M48
;Layer_Color=9474304
;FILE_FORMAT=2:5
INCH,LZ
;TYPE=PLATED
T1F00S00C0.01200
T2F00S00C0.01800
T3F00S00C0.02362
T4F00S00C0.11811
%
T01
X046933Y024676
X047148Y024674
X047329Y024679
X047501Y024674
X0473543Y0257591
X0470903Y0259821
X04802Y02604
X0483
X04844Y02632
X04816
X0483Y0266
X04858
X04886
X049Y02688
X04872
X04844
X04816
X0483Y02716
X04858
X04886
X04914
X04942
X04956Y02744
X04928
X049
X04872
X04844
X04816
X0483Y02772
X04802
X04816Y028
X04802Y02828
Y02884
X04816Y02912
X04844
X04858Y0294
X0483
X04802
X04844Y02968
X0479857Y0305453
X047942Y031207
X048149Y03122
X047324Y031027
X04984Y02912
X04998Y02884
Y02772
X04802Y02716
Y0266
X047954Y025651
X044795Y025342
X04477Y026306
X04564Y02716
X0462063Y0279594
X0466141Y0284892
Y0286752
X046612Y028865
X04664Y030553
X045815Y030626
X0455878Y0297573
X0427405Y0296774
X0423215
X041889Y029663
X0415268Y0295803
X041534Y029875
X040907Y029879
X041106Y029585
X04173Y029333
X041807Y028041
X0420915Y0278924
X042288Y030258
X04246Y030261
X04265Y030264
X042021Y030581
X04136Y031055
X0402583Y0308491
X0402533Y0305381
X039424Y03054
X039598Y030161
X039696Y02934
X038618Y030674
X038476Y030946
X03805Y030907
X0378483Y0303801
X0381903Y0282231
X036979Y028216
X036799Y028026
X03532Y028003
X035134Y028007
X03494Y028003
X034937Y028202
X034941Y028409
X035154Y028414
X035353
X035364Y028205
X035163Y028211
X033835Y027926
X033325Y027503
X033518Y027195
X03312Y027065
X032397Y027086
X032083Y028828
X031731Y029918
X032409Y030256
X032647Y030253
X033497Y030203
X033401Y030738
X034346Y030195
X031725Y031019
X0334032Y0250239
X033403Y024363
X033797Y024386
X0345482Y0238509
X0350702Y0238589
X035373Y023492
X035235Y023282
X034702Y023421
X0359166Y0233438
X0359126Y0235118
X0359976Y0231548
X0361936Y0231528
X0363876Y0231438
X0365026Y0233218
X0365116Y0234878
X036866Y023582
X037039Y023586
X037216Y023741
X0377821Y0237286
X037072Y023185
X036873
X035801Y024263
X035878Y024415
X035686Y024414
X0392181Y0242967
X0396331Y0243019
X0398621Y0243029
X0400851Y0242979
X0403151Y0242889
X0403048Y0241021
Y0239151
X0405558Y0243431
X0408628Y0240611
X0410728Y0240811
X0410561Y0234366
X0405621Y0231666
X041932Y0236817
X0437053Y0234741
X0436993Y0232951
X0437053Y0231151
X0448863Y0231371
X0433951Y0242317
X043139Y031055
X031044Y02741
X03084Y027415
X030604
X030378Y027412
X030147Y02741
X029909Y027406
X029686Y027411
X029457Y02741
X02898Y02716
X0287
X02842
X02814
X02786
X028Y02688
X02828
X02856
X02884
X02912
X02926Y0266
X02954
X02982
X0301
X03038
X03066
X03094
X0308Y0252
X03094Y02492
X03066
X0308Y02464
X03094Y02436
X03066
X0308Y02408
X03094Y0238
X03066
X0308Y02352
X03094Y02324
X02982
X02954
X02926
X02898
X0287
X02842
X02814
X02786
X028Y02352
X02828
X02856
X02884
X02912
X0294
X02968
X02982Y0238
X02954
X02926
X02898
X0287
X02842
X02814
X02786
X028Y02408
X02828
X02856
X02884
X02912
X0294
X02968
X02982Y02436
X02954
X02968Y02464
X0294
X02954Y02492
X02982
X02968Y0252
X0294
X02912
X02884
X02856
X02828
X028
X02814Y02548
X02842
X0287
X02898
X02912Y02576
X02884
X02856
X02828
X028
X02814Y02604
X02842
X0287
X02898
X02912Y02632
X02884
X02856
X02828
X028
X02814Y0266
X02842
X0287
X02898
X02786
Y02604
Y02548
X028Y02296
X02828
X02856
X02884
X02912
X0294
X02968
X02996
X029616Y03168
X0300223Y0324621
X0294573Y0333551
X0279783Y0328481
X031774Y0326961
Y0331171
X0326253Y0336381
X0326323Y0321731
X0326433Y0315461
X0343204Y0318037
X0354775Y0321214
X035687Y032382
X036492Y032373
X036666Y032171
X0368633Y0319981
X0368345Y0313924
X037125Y031409
X037416Y031559
X037701Y031685
X03771Y031259
X037964Y031429
X038356Y03223
X0387833Y0326399
X0390617Y0329183
X03934Y03264
Y0331966
X0396183Y0329183
X0396182Y0323615
X0393401Y0320831
X0390617Y0323615
X0398969Y0326399
X040492Y032366
X0413293Y0326494
X041303Y033157
X041079Y033349
X040893Y033573
X041437Y033773
X0417303Y0334934
X0418809Y0342236
X042306Y034232
X042292Y034437
X042394Y0347665
X042648Y0347495
X042208Y0350125
X042216Y0352115
X041737Y0352255
Y0350235
X0415929Y0345267
X0419699Y0345967
X0412079Y0346166
X041135Y034261
X040213Y034359
X040181Y034655
X039161Y034588
X038937Y034753
X038271Y034983
X038179Y035313
X038307Y035566
X03862Y035472
X0387197Y0360247
X038728Y03632
X0387277Y0366247
X038465Y036693
Y036939
X038467Y037163
X038237Y037159
X038234Y036939
X03799Y037168
X0387597Y0371337
X0391247Y0370817
X0394237Y0371457
X0394217Y0368777
X0389417Y0368157
Y0364857
Y0361717
X0389347Y0358967
X0390617Y0356907
X039237Y035858
X039206Y036065
X0378413Y0361871
X0376273Y0364071
X0369873Y0360411
X036781Y035991
X0366243Y0358191
X035616Y03574
X03578Y03555
X035301Y034839
X035956Y034207
X036696Y03401
X0365713Y0337261
X03669Y033449
X0366751Y0328265
X0371173Y0324001
X037175Y0332893
X037183Y0337093
X037191Y0341343
X0375833Y0354371
X038232Y032952
X039429Y031341
X04092Y031467
X042038Y032013
X042218Y032076
X0426595Y0320014
X042971Y031913
X0431734Y0314647
X043143Y031273
X0443143Y0323844
X045378Y032541
X0453742Y0319367
X044977Y033059
X044973Y033255
X044971Y033449
X0449731Y0336072
X044312Y0337194
X043134Y033941
X042968
X042942Y034152
X0424757Y0340948
X0421799Y0339257
X042037Y032718
X043027Y035131
X043195Y035134
X042907Y035675
X042573Y036093
X042359Y035881
X042193Y036336
X042195Y036587
X0419167Y0365767
X0419327Y0362347
X0417217Y0363977
X041567Y036189
X041364Y035974
X0417857Y0359727
X0413517Y0364057
X041129Y036606
Y036201
X040907Y035962
X0405847Y0359367
X0406437Y0368757
X04097Y036869
X0413477Y0368797
X041738Y036877
X041555Y036638
X041495Y037135
X041145
X0407917Y0371337
X0419167Y0371217
X042183Y037158
X042188Y036876
X042523Y036869
X042489Y037158
X042789
X044867Y036497
X044861Y035865
X0447742Y0347206
X046651Y033557
X0346633Y0340804
X047333Y033577
X047717Y034232
X0482773Y0342331
X048124Y032969
X047924
T02
X034696Y027352
X034917Y027167
X035125Y026975
X0353171Y0267505
X039077Y025896
X0393736Y0258948
X0396756Y0258848
X0399776Y0258898
X041512Y025877
X041826Y025875
X0421465Y0258768
X0424566Y0258798
X030443Y025865
X030447Y026174
X030131Y026182
X030101Y025867
X030093Y025549
X030461Y025555
X04387Y035632
X043614Y03649
T03
X0472795Y0234397
Y0239397
X0467795
X0462795
Y0234397
X0467795
X0457795Y0234397
Y0239397
X0449087Y0245006
X0440411Y0244851
X0328996Y0239398
Y0234398
X0323995Y0234398
Y0239398
X0318995
X0313995
Y0234398
X0318995
X0457796Y0360498
Y0365498
X0462796
X0467796
Y0360498
X0462796
X0472796Y0360498
Y0365498
T04
X0491Y0284192
M30
