G04*
G04 #@! TF.GenerationSoftware,Altium Limited,Altium Designer,20.0.13 (296)*
G04*
G04 Layer_Color=128*
%FSLAX24Y24*%
%MOIN*%
G70*
G01*
G75*
%ADD30R,0.0197X0.0157*%
%ADD31R,0.0866X0.0413*%
%ADD32R,0.0413X0.0394*%
%ADD33R,0.0157X0.0197*%
%ADD34R,0.0350X0.0300*%
%ADD35R,0.0197X0.0472*%
%ADD36R,0.0300X0.0350*%
%ADD37R,0.0709X0.0866*%
%ADD38R,0.0118X0.0512*%
%ADD39R,0.0315X0.0400*%
%ADD40R,0.1969X0.0472*%
%ADD41R,0.1181X0.0630*%
G04:AMPARAMS|DCode=42|XSize=15.7mil|YSize=19.7mil|CornerRadius=0mil|HoleSize=0mil|Usage=FLASHONLY|Rotation=225.000|XOffset=0mil|YOffset=0mil|HoleType=Round|Shape=Rectangle|*
%AMROTATEDRECTD42*
4,1,4,-0.0014,0.0125,0.0125,-0.0014,0.0014,-0.0125,-0.0125,0.0014,-0.0014,0.0125,0.0*
%
%ADD42ROTATEDRECTD42*%

%ADD43R,0.0217X0.0709*%
%ADD44O,0.0217X0.0709*%
%ADD45R,0.0394X0.0177*%
%ADD46R,0.0472X0.0197*%
%ADD47O,0.0638X0.0110*%
G04:AMPARAMS|DCode=48|XSize=24.8mil|YSize=88.6mil|CornerRadius=0mil|HoleSize=0mil|Usage=FLASHONLY|Rotation=45.000|XOffset=0mil|YOffset=0mil|HoleType=Round|Shape=Round|*
%AMOVALD48*
21,1,0.0638,0.0248,0.0000,0.0000,135.0*
1,1,0.0248,0.0226,-0.0226*
1,1,0.0248,-0.0226,0.0226*
%
%ADD48OVALD48*%

%ADD49R,0.0400X0.0315*%
G04:AMPARAMS|DCode=50|XSize=15.7mil|YSize=19.7mil|CornerRadius=0mil|HoleSize=0mil|Usage=FLASHONLY|Rotation=135.000|XOffset=0mil|YOffset=0mil|HoleType=Round|Shape=Rectangle|*
%AMROTATEDRECTD50*
4,1,4,0.0125,0.0014,-0.0014,-0.0125,-0.0125,-0.0014,0.0014,0.0125,0.0125,0.0014,0.0*
%
%ADD50ROTATEDRECTD50*%

G04:AMPARAMS|DCode=51|XSize=31.5mil|YSize=27.6mil|CornerRadius=0mil|HoleSize=0mil|Usage=FLASHONLY|Rotation=90.000|XOffset=0mil|YOffset=0mil|HoleType=Round|Shape=Octagon|*
%AMOCTAGOND51*
4,1,8,0.0069,0.0157,-0.0069,0.0157,-0.0138,0.0089,-0.0138,-0.0089,-0.0069,-0.0157,0.0069,-0.0157,0.0138,-0.0089,0.0138,0.0089,0.0069,0.0157,0.0*
%
%ADD51OCTAGOND51*%

%ADD52R,0.0276X0.0315*%
%ADD53R,0.0300X0.0300*%
G04:AMPARAMS|DCode=54|XSize=51.2mil|YSize=47.2mil|CornerRadius=0mil|HoleSize=0mil|Usage=FLASHONLY|Rotation=135.000|XOffset=0mil|YOffset=0mil|HoleType=Round|Shape=Rectangle|*
%AMROTATEDRECTD54*
4,1,4,0.0348,-0.0014,0.0014,-0.0348,-0.0348,0.0014,-0.0014,0.0348,0.0348,-0.0014,0.0*
%
%ADD54ROTATEDRECTD54*%

G04:AMPARAMS|DCode=58|XSize=39.4mil|YSize=31.5mil|CornerRadius=0mil|HoleSize=0mil|Usage=FLASHONLY|Rotation=90.000|XOffset=0mil|YOffset=0mil|HoleType=Round|Shape=Octagon|*
%AMOCTAGOND58*
4,1,8,0.0079,0.0197,-0.0079,0.0197,-0.0157,0.0118,-0.0157,-0.0118,-0.0079,-0.0197,0.0079,-0.0197,0.0157,-0.0118,0.0157,0.0118,0.0079,0.0197,0.0*
%
%ADD58OCTAGOND58*%

%ADD59R,0.0315X0.0394*%
%ADD60R,0.0350X0.0500*%
%ADD61R,0.0500X0.0350*%
G36*
X39685Y34377D02*
X39500Y34192D01*
X39444Y34248D01*
X39630Y34433D01*
X39685Y34377D01*
D02*
G37*
G36*
X39236Y34248D02*
X39180Y34192D01*
X38995Y34377D01*
X39050Y34433D01*
X39236Y34248D01*
D02*
G37*
G36*
X39797Y34266D02*
X39611Y34081D01*
X39556Y34136D01*
X39741Y34321D01*
X39797Y34266D01*
D02*
G37*
G36*
X39124Y34136D02*
X39069Y34081D01*
X38884Y34266D01*
X38939Y34321D01*
X39124Y34136D01*
D02*
G37*
G36*
X39908Y34154D02*
X39723Y33969D01*
X39667Y34025D01*
X39852Y34210D01*
X39908Y34154D01*
D02*
G37*
G36*
X39013Y34025D02*
X38957Y33969D01*
X38772Y34154D01*
X38828Y34210D01*
X39013Y34025D01*
D02*
G37*
G36*
X40019Y34043D02*
X39834Y33858D01*
X39778Y33914D01*
X39964Y34099D01*
X40019Y34043D01*
D02*
G37*
G36*
X38902Y33914D02*
X38846Y33858D01*
X38661Y34043D01*
X38716Y34099D01*
X38902Y33914D01*
D02*
G37*
G36*
X40131Y33932D02*
X39946Y33747D01*
X39890Y33802D01*
X40075Y33987D01*
X40131Y33932D01*
D02*
G37*
G36*
X38790Y33802D02*
X38735Y33747D01*
X38549Y33932D01*
X38605Y33987D01*
X38790Y33802D01*
D02*
G37*
G36*
X40242Y33820D02*
X40057Y33635D01*
X40001Y33691D01*
X40186Y33876D01*
X40242Y33820D01*
D02*
G37*
G36*
X38679Y33691D02*
X38623Y33635D01*
X38438Y33820D01*
X38494Y33876D01*
X38679Y33691D01*
D02*
G37*
G36*
X40353Y33709D02*
X40168Y33524D01*
X40113Y33580D01*
X40298Y33765D01*
X40353Y33709D01*
D02*
G37*
G36*
X38568Y33580D02*
X38512Y33524D01*
X38327Y33709D01*
X38382Y33765D01*
X38568Y33580D01*
D02*
G37*
G36*
X40465Y33598D02*
X40280Y33413D01*
X40224Y33468D01*
X40409Y33653D01*
X40465Y33598D01*
D02*
G37*
G36*
X38456Y33468D02*
X38400Y33413D01*
X38215Y33598D01*
X38271Y33653D01*
X38456Y33468D01*
D02*
G37*
G36*
X40576Y33486D02*
X40391Y33301D01*
X40335Y33357D01*
X40520Y33542D01*
X40576Y33486D01*
D02*
G37*
G36*
X38345Y33357D02*
X38289Y33301D01*
X38104Y33486D01*
X38160Y33542D01*
X38345Y33357D01*
D02*
G37*
G36*
X40687Y33375D02*
X40502Y33190D01*
X40447Y33246D01*
X40632Y33431D01*
X40687Y33375D01*
D02*
G37*
G36*
X38233Y33245D02*
X38178Y33190D01*
X37993Y33375D01*
X38048Y33431D01*
X38233Y33245D01*
D02*
G37*
G36*
X40799Y33264D02*
X40614Y33078D01*
X40558Y33134D01*
X40743Y33319D01*
X40799Y33264D01*
D02*
G37*
G36*
X38122Y33134D02*
X38066Y33078D01*
X37881Y33264D01*
X37937Y33319D01*
X38122Y33134D01*
D02*
G37*
G36*
X40910Y33152D02*
X40725Y32967D01*
X40669Y33023D01*
X40855Y33208D01*
X40910Y33152D01*
D02*
G37*
G36*
X38011Y33023D02*
X37955Y32967D01*
X37770Y33152D01*
X37826Y33208D01*
X38011Y33023D01*
D02*
G37*
G36*
X41022Y33041D02*
X40836Y32856D01*
X40781Y32911D01*
X40966Y33097D01*
X41022Y33041D01*
D02*
G37*
G36*
X37899Y32911D02*
X37844Y32856D01*
X37659Y33041D01*
X37714Y33097D01*
X37899Y32911D01*
D02*
G37*
G36*
X41133Y32930D02*
X40948Y32744D01*
X40892Y32800D01*
X41077Y32985D01*
X41133Y32930D01*
D02*
G37*
G36*
X37788Y32800D02*
X37732Y32744D01*
X37547Y32930D01*
X37603Y32985D01*
X37788Y32800D01*
D02*
G37*
G36*
X37788Y32480D02*
X37603Y32295D01*
X37547Y32350D01*
X37732Y32536D01*
X37788Y32480D01*
D02*
G37*
G36*
X41133Y32350D02*
X41077Y32295D01*
X40892Y32480D01*
X40948Y32536D01*
X41133Y32350D01*
D02*
G37*
G36*
X41022Y32239D02*
X40966Y32183D01*
X40781Y32369D01*
X40836Y32424D01*
X41022Y32239D01*
D02*
G37*
G36*
X37899Y32369D02*
X37714Y32183D01*
X37659Y32239D01*
X37844Y32424D01*
X37899Y32369D01*
D02*
G37*
G36*
X40910Y32128D02*
X40855Y32072D01*
X40669Y32257D01*
X40725Y32313D01*
X40910Y32128D01*
D02*
G37*
G36*
X38011Y32257D02*
X37826Y32072D01*
X37770Y32128D01*
X37955Y32313D01*
X38011Y32257D01*
D02*
G37*
G36*
X38122Y32146D02*
X37937Y31961D01*
X37881Y32016D01*
X38066Y32202D01*
X38122Y32146D01*
D02*
G37*
G36*
X40799Y32016D02*
X40743Y31961D01*
X40558Y32146D01*
X40614Y32201D01*
X40799Y32016D01*
D02*
G37*
G36*
X38233Y32035D02*
X38048Y31849D01*
X37993Y31905D01*
X38178Y32090D01*
X38233Y32035D01*
D02*
G37*
G36*
X40687Y31905D02*
X40632Y31849D01*
X40447Y32034D01*
X40502Y32090D01*
X40687Y31905D01*
D02*
G37*
G36*
X40231Y32640D02*
X39340Y31749D01*
X38449Y32640D01*
X39340Y33531D01*
X40231Y32640D01*
D02*
G37*
G36*
X38345Y31923D02*
X38160Y31738D01*
X38104Y31794D01*
X38289Y31979D01*
X38345Y31923D01*
D02*
G37*
G36*
X40576Y31794D02*
X40520Y31738D01*
X40335Y31923D01*
X40391Y31979D01*
X40576Y31794D01*
D02*
G37*
G36*
X40465Y31682D02*
X40409Y31627D01*
X40224Y31812D01*
X40280Y31867D01*
X40465Y31682D01*
D02*
G37*
G36*
X38456Y31812D02*
X38271Y31627D01*
X38215Y31682D01*
X38400Y31867D01*
X38456Y31812D01*
D02*
G37*
G36*
X40353Y31571D02*
X40298Y31515D01*
X40113Y31700D01*
X40168Y31756D01*
X40353Y31571D01*
D02*
G37*
G36*
X38568Y31700D02*
X38382Y31515D01*
X38327Y31571D01*
X38512Y31756D01*
X38568Y31700D01*
D02*
G37*
G36*
X38679Y31589D02*
X38494Y31404D01*
X38438Y31460D01*
X38623Y31645D01*
X38679Y31589D01*
D02*
G37*
G36*
X40242Y31460D02*
X40186Y31404D01*
X40001Y31589D01*
X40057Y31645D01*
X40242Y31460D01*
D02*
G37*
G36*
X38790Y31478D02*
X38605Y31293D01*
X38549Y31348D01*
X38735Y31533D01*
X38790Y31478D01*
D02*
G37*
G36*
X40131Y31348D02*
X40075Y31293D01*
X39890Y31478D01*
X39946Y31533D01*
X40131Y31348D01*
D02*
G37*
G36*
X38902Y31366D02*
X38716Y31181D01*
X38661Y31237D01*
X38846Y31422D01*
X38902Y31366D01*
D02*
G37*
G36*
X40019Y31237D02*
X39964Y31181D01*
X39778Y31366D01*
X39834Y31422D01*
X40019Y31237D01*
D02*
G37*
G36*
X39908Y31126D02*
X39852Y31070D01*
X39667Y31255D01*
X39723Y31311D01*
X39908Y31126D01*
D02*
G37*
G36*
X39013Y31255D02*
X38828Y31070D01*
X38772Y31126D01*
X38957Y31311D01*
X39013Y31255D01*
D02*
G37*
G36*
X39797Y31014D02*
X39741Y30959D01*
X39556Y31144D01*
X39612Y31199D01*
X39797Y31014D01*
D02*
G37*
G36*
X39124Y31144D02*
X38939Y30959D01*
X38884Y31014D01*
X39069Y31199D01*
X39124Y31144D01*
D02*
G37*
G36*
X39236Y31032D02*
X39050Y30847D01*
X38995Y30903D01*
X39180Y31088D01*
X39236Y31032D01*
D02*
G37*
G36*
X39685Y30903D02*
X39630Y30847D01*
X39444Y31032D01*
X39500Y31088D01*
X39685Y30903D01*
D02*
G37*
D30*
X39690Y35019D02*
D03*
X39690Y35373D02*
D03*
X39265Y35363D02*
D03*
X39265Y35009D02*
D03*
X32990Y30723D02*
D03*
X32990Y30369D02*
D03*
X42320Y30146D02*
D03*
X42320Y29792D02*
D03*
X42750Y30146D02*
D03*
X42750Y29792D02*
D03*
X41890Y30146D02*
D03*
X41890Y29792D02*
D03*
X45371Y32066D02*
D03*
X45371Y32420D02*
D03*
X41060Y23563D02*
D03*
X41060Y23917D02*
D03*
X41970Y35087D02*
D03*
X41970Y34733D02*
D03*
X40328Y35007D02*
D03*
X40328Y34653D02*
D03*
D31*
X40076Y37065D02*
D03*
Y35904D02*
D03*
D32*
X39485Y36485D02*
D03*
X40666D02*
D03*
D33*
X38510Y34990D02*
D03*
X38864Y34990D02*
D03*
X40430Y35423D02*
D03*
X40076Y35423D02*
D03*
X32446Y28981D02*
D03*
X32092Y28981D02*
D03*
X37047Y33290D02*
D03*
X36693Y33290D02*
D03*
X37055Y34131D02*
D03*
X36701Y34131D02*
D03*
X29327Y33360D02*
D03*
X28973Y33360D02*
D03*
X31857Y33110D02*
D03*
X31503Y33110D02*
D03*
X31857Y32690D02*
D03*
X31503Y32690D02*
D03*
X28326Y32692D02*
D03*
X27972Y32692D02*
D03*
X37057Y33712D02*
D03*
X36703Y33712D02*
D03*
X41067Y34610D02*
D03*
X40713Y34610D02*
D03*
D34*
X30157Y31513D02*
D03*
X29467D02*
D03*
D35*
X32470Y29636D02*
D03*
X32096D02*
D03*
X31722D02*
D03*
Y30738D02*
D03*
X32096D02*
D03*
X32470D02*
D03*
D36*
X36950Y24074D02*
D03*
Y23384D02*
D03*
X42490Y34310D02*
D03*
Y35000D02*
D03*
X42038Y32238D02*
D03*
Y32928D02*
D03*
X39210Y23390D02*
D03*
Y24080D02*
D03*
X40560Y24070D02*
D03*
Y23380D02*
D03*
X43400Y23320D02*
D03*
Y24010D02*
D03*
D37*
X35940Y27750D02*
D03*
X32475Y27750D02*
D03*
X39878D02*
D03*
X43342Y27750D02*
D03*
D38*
X33716Y28733D02*
D03*
X33912D02*
D03*
X35290D02*
D03*
X35094D02*
D03*
X34897D02*
D03*
X34700D02*
D03*
X34503D02*
D03*
X34306D02*
D03*
X34109D02*
D03*
X33519D02*
D03*
X33322D02*
D03*
X33125D02*
D03*
X40527D02*
D03*
X40724D02*
D03*
X40921D02*
D03*
X41512D02*
D03*
X41708D02*
D03*
X41905D02*
D03*
X42102D02*
D03*
X42299D02*
D03*
X42496D02*
D03*
X42693D02*
D03*
X41315D02*
D03*
X41118D02*
D03*
D39*
X37529Y27364D02*
D03*
Y28094D02*
D03*
X42653Y32216D02*
D03*
Y32946D02*
D03*
X45260Y25965D02*
D03*
Y26695D02*
D03*
X43112Y34162D02*
D03*
Y34892D02*
D03*
X47350Y26715D02*
D03*
Y25985D02*
D03*
X48000Y33335D02*
D03*
Y32605D02*
D03*
X47320D02*
D03*
Y33335D02*
D03*
X45970Y33315D02*
D03*
Y32585D02*
D03*
X46650D02*
D03*
Y33315D02*
D03*
X28770Y30625D02*
D03*
Y31355D02*
D03*
X28110Y30625D02*
D03*
Y31355D02*
D03*
D40*
X30292Y27112D02*
D03*
Y26128D02*
D03*
D41*
X28560Y28520D02*
D03*
Y24720D02*
D03*
D42*
X38521Y28557D02*
D03*
X38271Y28307D02*
D03*
X37735Y36295D02*
D03*
X37485Y36045D02*
D03*
X37485Y35345D02*
D03*
X37235Y35095D02*
D03*
X41492Y34419D02*
D03*
X41242Y34169D02*
D03*
X41787Y34121D02*
D03*
X41537Y33871D02*
D03*
X42083Y33825D02*
D03*
X41833Y33575D02*
D03*
D43*
X44815Y31251D02*
D03*
D44*
X44315D02*
D03*
X43815D02*
D03*
X43315D02*
D03*
X44815Y33317D02*
D03*
X44315D02*
D03*
X43815D02*
D03*
X43315D02*
D03*
D45*
X46750Y26724D02*
D03*
Y25976D02*
D03*
X45857Y26350D02*
D03*
D46*
X41669Y24054D02*
D03*
Y23306D02*
D03*
Y23680D02*
D03*
X42771Y23306D02*
D03*
Y24054D02*
D03*
X37499Y24114D02*
D03*
Y23366D02*
D03*
Y23740D02*
D03*
X38601Y23366D02*
D03*
Y24114D02*
D03*
D47*
X28977Y32103D02*
D03*
Y32300D02*
D03*
Y32497D02*
D03*
Y32694D02*
D03*
Y32890D02*
D03*
X30639Y32103D02*
D03*
Y32300D02*
D03*
Y32497D02*
D03*
Y32694D02*
D03*
Y32890D02*
D03*
D48*
X38512Y30094D02*
D03*
X38158Y29741D02*
D03*
X37805Y29387D02*
D03*
X37451Y29034D02*
D03*
X36546Y32060D02*
D03*
X36193Y31706D02*
D03*
X35839Y31353D02*
D03*
X35486Y30999D02*
D03*
D49*
X43885Y36483D02*
D03*
X44615D02*
D03*
X43879Y35861D02*
D03*
X44609Y35861D02*
D03*
X47305Y27980D02*
D03*
X46575D02*
D03*
Y27360D02*
D03*
X47305D02*
D03*
X44107Y23323D02*
D03*
X44837D02*
D03*
X45348Y30407D02*
D03*
X44618D02*
D03*
X44619Y29762D02*
D03*
X45349D02*
D03*
X44516Y34093D02*
D03*
X43786D02*
D03*
X43796Y34713D02*
D03*
X44526D02*
D03*
X32395Y31550D02*
D03*
X31665D02*
D03*
X32395Y32160D02*
D03*
X31665D02*
D03*
X31655Y33640D02*
D03*
X32385D02*
D03*
D50*
X37025Y32485D02*
D03*
X36775Y32735D02*
D03*
X41271Y31139D02*
D03*
X41021Y31389D02*
D03*
D51*
X34537Y24040D02*
D03*
X35068Y24055D02*
D03*
X35567Y24057D02*
D03*
X36974Y27341D02*
D03*
D52*
X34537Y23370D02*
D03*
X35068Y23385D02*
D03*
X35567Y23387D02*
D03*
X36974Y28011D02*
D03*
D53*
X40834Y35090D02*
D03*
X41446D02*
D03*
D54*
X36355Y36333D02*
D03*
X36940Y35748D02*
D03*
X36467Y35275D02*
D03*
X35882Y35860D02*
D03*
D58*
X47310Y31911D02*
D03*
X46640Y31901D02*
D03*
X47990Y30799D02*
D03*
X45950D02*
D03*
D59*
X47310Y30809D02*
D03*
X46640Y30799D02*
D03*
X47990Y31901D02*
D03*
X45950D02*
D03*
D60*
X45656Y28674D02*
D03*
X46404D02*
D03*
D61*
X36210Y23376D02*
D03*
Y24124D02*
D03*
X39880Y23346D02*
D03*
Y24094D02*
D03*
M02*
