G04*
G04 #@! TF.GenerationSoftware,Altium Limited,Altium Designer,20.0.13 (296)*
G04*
G04 Layer_Physical_Order=3*
G04 Layer_Color=16440176*
%FSLAX24Y24*%
%MOIN*%
G70*
G01*
G75*
%ADD10C,0.0100*%
%ADD11C,0.0150*%
%ADD16C,0.0060*%
%ADD17C,0.0250*%
%ADD18C,0.0374*%
%ADD22C,0.0200*%
%ADD24C,0.0300*%
%ADD26C,0.0200*%
%ADD27C,0.0300*%
%ADD28C,0.0400*%
G36*
X42635Y36014D02*
X42629Y36006D01*
X42623Y35998D01*
X42617Y35989D01*
X42613Y35981D01*
X42609Y35973D01*
X42607Y35964D01*
X42605Y35955D01*
X42603Y35947D01*
X42603Y35938D01*
X42543D01*
X42543Y35947D01*
X42541Y35955D01*
X42539Y35964D01*
X42537Y35973D01*
X42533Y35981D01*
X42529Y35989D01*
X42523Y35998D01*
X42517Y36006D01*
X42511Y36014D01*
X42503Y36022D01*
X42643D01*
X42635Y36014D01*
D02*
G37*
G36*
X42358Y35781D02*
X42347Y35781D01*
X42337Y35780D01*
X42327Y35778D01*
X42317Y35776D01*
X42308Y35774D01*
X42300Y35770D01*
X42292Y35766D01*
X42284Y35761D01*
X42277Y35756D01*
X42270Y35750D01*
X42228Y35792D01*
X42234Y35799D01*
X42239Y35806D01*
X42244Y35814D01*
X42248Y35822D01*
X42252Y35830D01*
X42254Y35839D01*
X42256Y35849D01*
X42258Y35859D01*
X42259Y35869D01*
X42259Y35880D01*
X42358Y35781D01*
D02*
G37*
G36*
X42745Y35058D02*
X42916Y34887D01*
Y34645D01*
X42223D01*
X41996Y34872D01*
X41433D01*
X41420Y35340D01*
X41455Y35376D01*
X42745D01*
Y35058D01*
D02*
G37*
G36*
X39622Y34333D02*
X39558Y34269D01*
X39552Y34275D01*
X38994D01*
X38990Y34799D01*
X39161Y34970D01*
X39166Y34973D01*
X39266Y35073D01*
X39622D01*
Y34333D01*
D02*
G37*
G36*
X31971Y34307D02*
X32059Y34327D01*
X32112Y34255D01*
X32184Y34327D01*
X32186Y34315D01*
X32191Y34301D01*
X32199Y34284D01*
X32211Y34265D01*
X32226Y34244D01*
X32266Y34195D01*
X32320Y34137D01*
X32352Y34105D01*
X32281Y34034D01*
X32252Y34063D01*
X32241Y34072D01*
X32229Y34076D01*
X32219Y34074D01*
X32209Y34066D01*
X32202Y34051D01*
X32195Y34030D01*
X32190Y34002D01*
X32185Y33928D01*
X32184Y33881D01*
X31934Y34027D01*
X31933Y34074D01*
X31930Y34117D01*
X31925Y34155D01*
X31918Y34187D01*
X31909Y34214D01*
X31898Y34237D01*
X31885Y34255D01*
X31870Y34267D01*
X31865Y34269D01*
X31819Y34274D01*
X31740Y34277D01*
X31694Y34277D01*
Y34377D01*
X31740Y34377D01*
X31882Y34387D01*
X31908Y34391D01*
X31930Y34396D01*
X31947Y34402D01*
X31961Y34408D01*
X31971Y34415D01*
Y34307D01*
D02*
G37*
G36*
X37276Y33749D02*
X37281Y33741D01*
X37288Y33735D01*
X37294Y33729D01*
X37301Y33724D01*
X37309Y33720D01*
X37316Y33717D01*
X37325Y33714D01*
X37334Y33713D01*
X37343Y33712D01*
X37325Y33652D01*
X37317Y33652D01*
X37309Y33651D01*
X37300Y33650D01*
X37291Y33648D01*
X37282Y33645D01*
X37263Y33638D01*
X37253Y33633D01*
X37233Y33623D01*
X37271Y33758D01*
X37276Y33749D01*
D02*
G37*
G36*
X32692Y33564D02*
X32688Y33560D01*
X32685Y33555D01*
X32681Y33549D01*
X32679Y33543D01*
X32676Y33536D01*
X32674Y33528D01*
X32673Y33519D01*
X32672Y33510D01*
X32671Y33489D01*
X32571Y33494D01*
X32571Y33505D01*
X32569Y33524D01*
X32568Y33533D01*
X32566Y33541D01*
X32564Y33548D01*
X32562Y33555D01*
X32559Y33560D01*
X32556Y33565D01*
X32552Y33570D01*
X32692Y33564D01*
D02*
G37*
G36*
X37254Y33352D02*
X37262Y33345D01*
X37270Y33339D01*
X37279Y33334D01*
X37287Y33329D01*
X37295Y33326D01*
X37304Y33323D01*
X37313Y33321D01*
X37321Y33320D01*
X37330Y33319D01*
Y33259D01*
X37321Y33259D01*
X37313Y33258D01*
X37304Y33256D01*
X37295Y33253D01*
X37287Y33249D01*
X37279Y33245D01*
X37270Y33240D01*
X37262Y33234D01*
X37254Y33227D01*
X37246Y33219D01*
Y33359D01*
X37254Y33352D01*
D02*
G37*
G36*
X45215Y32861D02*
X44775D01*
Y33789D01*
X45215D01*
Y32861D01*
D02*
G37*
G36*
X30028Y32611D02*
X30029Y32601D01*
X30030Y32592D01*
X30032Y32584D01*
X30034Y32578D01*
X30037Y32572D01*
X30040Y32566D01*
X30044Y32562D01*
X30049Y32559D01*
X30053Y32557D01*
X29929Y32497D01*
X29928Y32555D01*
X30028Y32622D01*
X30028Y32611D01*
D02*
G37*
G36*
X32671Y32315D02*
X32673Y32295D01*
X32675Y32287D01*
X32677Y32279D01*
X32679Y32272D01*
X32682Y32266D01*
X32686Y32261D01*
X32689Y32256D01*
X32694Y32252D01*
X32555Y32236D01*
X32558Y32241D01*
X32561Y32246D01*
X32563Y32251D01*
X32565Y32258D01*
X32567Y32265D01*
X32568Y32273D01*
X32570Y32291D01*
X32571Y32301D01*
X32571Y32312D01*
X32671Y32325D01*
X32671Y32315D01*
D02*
G37*
G36*
X37631Y32325D02*
X37604Y32324D01*
X37581Y32321D01*
X37564Y32316D01*
X37552Y32308D01*
X37545Y32299D01*
X37543Y32287D01*
X37547Y32273D01*
X37555Y32257D01*
X37568Y32239D01*
X37587Y32219D01*
X37375D01*
X37353Y32239D01*
X37331Y32257D01*
X37307Y32273D01*
X37283Y32287D01*
X37258Y32299D01*
X37232Y32308D01*
X37205Y32316D01*
X37177Y32321D01*
X37148Y32324D01*
X37119Y32325D01*
X37300Y32475D01*
X37631Y32325D01*
D02*
G37*
G36*
X32694Y32094D02*
X32689Y32090D01*
X32686Y32086D01*
X32682Y32080D01*
X32679Y32074D01*
X32677Y32067D01*
X32675Y32059D01*
X32673Y32051D01*
X32671Y32032D01*
X32671Y32021D01*
X32571Y32034D01*
X32571Y32045D01*
X32570Y32055D01*
X32568Y32073D01*
X32567Y32081D01*
X32565Y32088D01*
X32563Y32095D01*
X32561Y32101D01*
X32558Y32106D01*
X32555Y32110D01*
X32694Y32094D01*
D02*
G37*
G36*
X32671Y31702D02*
X32671Y31691D01*
X32673Y31672D01*
X32675Y31664D01*
X32677Y31657D01*
X32680Y31650D01*
X32683Y31644D01*
X32687Y31639D01*
X32691Y31635D01*
X32696Y31631D01*
X32559Y31600D01*
X32561Y31605D01*
X32563Y31610D01*
X32565Y31617D01*
X32567Y31626D01*
X32569Y31646D01*
X32571Y31672D01*
X32571Y31704D01*
X32671Y31702D01*
D02*
G37*
G36*
X41013Y31553D02*
X41023Y31551D01*
X41038Y31549D01*
X41080Y31545D01*
X41270Y31542D01*
Y31392D01*
X41008Y31379D01*
Y31555D01*
X41013Y31553D01*
D02*
G37*
G36*
X40832Y31379D02*
X40827Y31381D01*
X40817Y31383D01*
X40802Y31385D01*
X40760Y31389D01*
X40570Y31392D01*
Y31542D01*
X40832Y31555D01*
Y31379D01*
D02*
G37*
G36*
X40358Y31340D02*
X40353Y31338D01*
X40344Y31333D01*
X40333Y31324D01*
X40300Y31296D01*
X40164Y31164D01*
X40057Y31271D01*
X40233Y31465D01*
X40358Y31340D01*
D02*
G37*
G36*
X46800Y30012D02*
X46780Y29990D01*
X46762Y29968D01*
X46746Y29944D01*
X46732Y29920D01*
X46721Y29895D01*
X46711Y29869D01*
X46704Y29842D01*
X46698Y29814D01*
X46695Y29785D01*
X46694Y29756D01*
X46544D01*
X46543Y29785D01*
X46540Y29814D01*
X46534Y29842D01*
X46527Y29869D01*
X46517Y29895D01*
X46506Y29920D01*
X46492Y29944D01*
X46476Y29968D01*
X46458Y29990D01*
X46438Y30012D01*
X46513Y30149D01*
X46534Y30130D01*
X46555Y30115D01*
X46577Y30105D01*
X46598Y30098D01*
X46619Y30096D01*
X46640Y30098D01*
X46661Y30105D01*
X46683Y30115D01*
X46704Y30130D01*
X46725Y30149D01*
X46800Y30012D01*
D02*
G37*
G36*
X46694Y29414D02*
X46544Y29189D01*
X46543Y29218D01*
X46538Y29243D01*
X46530Y29265D01*
X46520Y29285D01*
X46507Y29302D01*
X46490Y29315D01*
X46470Y29325D01*
X46448Y29333D01*
X46423Y29337D01*
X46394Y29339D01*
Y29489D01*
X46423Y29490D01*
X46448Y29495D01*
X46470Y29502D01*
X46490Y29513D01*
X46507Y29527D01*
X46520Y29543D01*
X46530Y29562D01*
X46538Y29585D01*
X46543Y29611D01*
X46544Y29639D01*
X46694Y29414D01*
D02*
G37*
G36*
X46827Y28242D02*
X46387D01*
Y29170D01*
X46827D01*
Y28242D01*
D02*
G37*
G36*
X32463Y27010D02*
X32460Y27005D01*
X32457Y27000D01*
X32454Y26993D01*
X32452Y26986D01*
X32450Y26978D01*
X32449Y26970D01*
X32448Y26960D01*
X32447Y26939D01*
X32347D01*
X32347Y26950D01*
X32345Y26970D01*
X32344Y26978D01*
X32342Y26986D01*
X32340Y26993D01*
X32337Y27000D01*
X32334Y27005D01*
X32331Y27010D01*
X32327Y27015D01*
X32467D01*
X32463Y27010D01*
D02*
G37*
G36*
X40962Y26714D02*
X40712Y26339D01*
X40710Y26386D01*
X40702Y26429D01*
X40690Y26467D01*
X40672Y26499D01*
X40649Y26527D01*
X40622Y26549D01*
X40589Y26567D01*
X40552Y26579D01*
X40510Y26586D01*
X40462Y26589D01*
Y26839D01*
X40510Y26841D01*
X40552Y26849D01*
X40589Y26862D01*
X40622Y26879D01*
X40649Y26902D01*
X40672Y26929D01*
X40690Y26962D01*
X40702Y26999D01*
X40710Y27041D01*
X40712Y27089D01*
X40962Y26714D01*
D02*
G37*
G36*
X40183Y25685D02*
X40171Y25680D01*
X38815D01*
Y26120D01*
X40183D01*
Y25685D01*
D02*
G37*
G36*
X42669Y25654D02*
X42657Y25649D01*
X41301D01*
Y26089D01*
X42669D01*
Y25654D01*
D02*
G37*
G36*
X31018Y25471D02*
X30963Y25416D01*
X29536D01*
X29501Y25452D01*
X29515Y26393D01*
X31018D01*
Y25471D01*
D02*
G37*
G36*
X32448Y25084D02*
X32461Y24914D01*
X32462Y24906D01*
X32474Y24895D01*
X32495Y24882D01*
X32522Y24871D01*
X32555Y24862D01*
X32594Y24855D01*
X32690Y24847D01*
X32747Y24846D01*
X32397Y24546D01*
X32047Y24846D01*
X32155Y24850D01*
X32200Y24855D01*
X32239Y24862D01*
X32272Y24871D01*
X32299Y24882D01*
X32320Y24895D01*
X32332Y24906D01*
X32333Y24914D01*
X32338Y24950D01*
X32345Y25035D01*
X32347Y25137D01*
X32447D01*
X32448Y25084D01*
D02*
G37*
G36*
X41445Y23832D02*
X41268Y23655D01*
X41257Y23666D01*
X38580D01*
X38544Y23702D01*
X38555Y24636D01*
X38589Y24670D01*
X41445D01*
Y23832D01*
D02*
G37*
G36*
X36604Y23596D02*
X36656Y23544D01*
X36656Y22847D01*
X35588D01*
X35550Y22885D01*
Y23596D01*
X36604Y23596D01*
D02*
G37*
%LPC*%
G36*
X39218Y24460D02*
X39156Y24447D01*
X39103Y24412D01*
X39067Y24359D01*
X39055Y24297D01*
X39067Y24234D01*
X39103Y24181D01*
X39156Y24146D01*
X39218Y24134D01*
X39281Y24146D01*
X39334Y24181D01*
X39369Y24234D01*
X39381Y24297D01*
X39369Y24359D01*
X39334Y24412D01*
X39281Y24447D01*
X39218Y24460D01*
D02*
G37*
%LPD*%
D10*
X32621Y31639D02*
Y33765D01*
X29978Y32462D02*
Y33583D01*
X32397Y24696D02*
Y27086D01*
Y24689D02*
Y24696D01*
X32624Y31565D02*
X32643Y31546D01*
X32624Y31565D02*
Y31636D01*
X32621Y31639D02*
X32624Y31636D01*
X32059Y34327D02*
X32621Y33765D01*
X29978Y33583D02*
X30722Y34327D01*
X32059D01*
D11*
X44977Y33059D02*
Y33579D01*
Y31579D02*
Y33059D01*
X46619Y28865D02*
Y29414D01*
Y28480D02*
Y28865D01*
X44977Y31579D02*
X46619Y29937D01*
X37117Y32400D02*
X37300D01*
X37670D02*
X38235Y32965D01*
X40920Y31467D02*
X42125D01*
X42643Y31985D01*
Y31994D01*
X40358Y31465D02*
X40360Y31467D01*
X39891Y30998D02*
X40358Y31465D01*
X46619Y29414D02*
Y29937D01*
X46177Y29414D02*
X46619D01*
X38275Y31902D02*
X39179Y30998D01*
X47222Y30540D02*
X47974D01*
X46619Y29937D02*
X47222Y30540D01*
X44993Y32541D02*
X45378D01*
X44979Y32555D02*
X44993Y32541D01*
X40360Y31467D02*
X40920D01*
X37300Y32400D02*
X37670D01*
X39179Y30998D02*
X39891D01*
X37798Y31902D02*
X38275D01*
X37300Y32400D02*
X37798Y31902D01*
D16*
X37529Y33933D02*
X38754Y35158D01*
X37746Y33980D02*
X38804Y35038D01*
X38754Y35158D02*
X39049D01*
X38804Y35038D02*
X39101D01*
X37746Y33689D02*
Y33980D01*
X37529Y33795D02*
Y33933D01*
X37416Y33682D02*
X37529Y33795D01*
X37186Y33682D02*
X37416D01*
X37168Y33700D02*
X37186Y33682D01*
X42573Y35826D02*
Y36093D01*
X42228Y35481D02*
X42573Y35826D01*
X39544Y35481D02*
X42228D01*
X42079Y35601D02*
X42359Y35881D01*
X39492Y35601D02*
X42079D01*
X39049Y35158D02*
X39492Y35601D01*
X39101Y35038D02*
X39544Y35481D01*
X37346Y33289D02*
X37746Y33689D01*
X37182Y33289D02*
X37346D01*
X37179Y33292D02*
X37182Y33289D01*
D17*
X39978Y25900D02*
X40029D01*
X35442D02*
X39978D01*
X43456Y33509D02*
Y34163D01*
X42380Y32433D02*
X43456Y33509D01*
X42845Y34774D02*
X43456Y34163D01*
X41886Y32433D02*
X42380D01*
X34592Y27494D02*
X35372Y26714D01*
X40920Y31467D02*
X41886Y32433D01*
X40837Y24466D02*
Y26714D01*
Y24466D02*
X40853Y24450D01*
X40837Y26714D02*
Y27445D01*
X35372Y26714D02*
X40837D01*
X40358Y31462D02*
Y31465D01*
X32059Y29283D02*
X35442Y25900D01*
X32059Y29283D02*
Y34327D01*
X39046Y29236D02*
Y30882D01*
X39119Y30955D01*
X39046Y29236D02*
X40837Y27445D01*
X30565Y22999D02*
X30655Y22909D01*
X35939D02*
X36085Y23056D01*
Y23326D01*
X30655Y22909D02*
X35939D01*
D18*
X31400Y23940D02*
D03*
D22*
X39161Y34588D02*
D03*
X38937Y34753D02*
D03*
X32397Y27086D02*
D03*
X41737Y35226D02*
D03*
X42573Y36093D02*
D03*
X42359Y35881D02*
D03*
X38232Y32952D02*
D03*
X37117Y32400D02*
D03*
X37175Y33289D02*
D03*
X37183Y33709D02*
D03*
X42216Y35212D02*
D03*
X35801Y24263D02*
D03*
X35686Y24414D02*
D03*
X35878Y24415D02*
D03*
X36512Y23488D02*
D03*
X36503Y23322D02*
D03*
X35913Y23512D02*
D03*
X35917Y23344D02*
D03*
X36388Y23144D02*
D03*
X36194Y23153D02*
D03*
X35998Y23155D02*
D03*
X42648Y34750D02*
D03*
X42394Y34767D02*
D03*
X42208Y35013D02*
D03*
X41737Y35024D02*
D03*
X44973Y33607D02*
D03*
X44971Y33449D02*
D03*
X44973Y33255D02*
D03*
X44977Y33059D02*
D03*
X46614Y28489D02*
D03*
Y28675D02*
D03*
X41073Y24081D02*
D03*
X40863Y24061D02*
D03*
X40556Y24343D02*
D03*
X40305Y23915D02*
D03*
Y24102D02*
D03*
X40085Y24298D02*
D03*
X39862Y24303D02*
D03*
X39633Y24302D02*
D03*
X40315Y24289D02*
D03*
X47986Y30545D02*
D03*
X45815Y30626D02*
D03*
X45378Y32541D02*
D03*
X46612Y28865D02*
D03*
X40920Y31467D02*
D03*
X42660Y32001D02*
D03*
X30022Y32462D02*
D03*
X32643Y31546D02*
D03*
X32632Y32173D02*
D03*
X32625Y33638D02*
D03*
D24*
X39077Y25896D02*
D03*
X30461Y25555D02*
D03*
X30093Y25549D02*
D03*
X30443Y25865D02*
D03*
X30101Y25867D02*
D03*
X30131Y26182D02*
D03*
X30447Y26174D02*
D03*
X35317Y26750D02*
D03*
X35125Y26975D02*
D03*
X34917Y27167D02*
D03*
X34696Y27352D02*
D03*
X41826Y25875D02*
D03*
X42457Y25880D02*
D03*
X42147Y25877D02*
D03*
X39978Y25890D02*
D03*
X39676Y25885D02*
D03*
X39374Y25895D02*
D03*
X41512Y25877D02*
D03*
D26*
X39139Y34848D02*
X39611D01*
X39876Y35113D01*
X39037Y34749D02*
X39040D01*
X39139Y34848D01*
X41512Y25877D02*
X42640D01*
X39876Y35113D02*
X41525D01*
X42640Y25877D02*
X46177Y29414D01*
D27*
X35494Y24696D02*
X35809Y24381D01*
X32397Y24696D02*
X35494D01*
X31769D02*
X32397D01*
X31394Y23935D02*
Y24321D01*
X31769Y24696D01*
D28*
X30292Y23272D02*
X30565Y22999D01*
X30292Y23272D02*
Y26128D01*
M02*
