G04*
G04 #@! TF.GenerationSoftware,Altium Limited,Altium Designer,20.0.13 (296)*
G04*
G04 Layer_Color=8421504*
%FSLAX24Y24*%
%MOIN*%
G70*
G01*
G75*
%ADD25R,0.0600X0.1100*%
%ADD26R,0.2300X0.2450*%
%ADD27R,0.0394X0.0177*%
%ADD28R,0.0350X0.0300*%
%ADD29R,0.0350X0.0500*%
%ADD30R,0.0394X0.0315*%
G04:AMPARAMS|DCode=31|XSize=39.4mil|YSize=31.5mil|CornerRadius=0mil|HoleSize=0mil|Usage=FLASHONLY|Rotation=180.000|XOffset=0mil|YOffset=0mil|HoleType=Round|Shape=Octagon|*
%AMOCTAGOND31*
4,1,8,-0.0197,0.0079,-0.0197,-0.0079,-0.0118,-0.0157,0.0118,-0.0157,0.0197,-0.0079,0.0197,0.0079,0.0118,0.0157,-0.0118,0.0157,-0.0197,0.0079,0.0*
%
%ADD31OCTAGOND31*%

%ADD32R,0.0165X0.0394*%
%ADD33R,0.0276X0.0315*%
G04:AMPARAMS|DCode=34|XSize=31.5mil|YSize=27.6mil|CornerRadius=0mil|HoleSize=0mil|Usage=FLASHONLY|Rotation=90.000|XOffset=0mil|YOffset=0mil|HoleType=Round|Shape=Octagon|*
%AMOCTAGOND34*
4,1,8,0.0069,0.0157,-0.0069,0.0157,-0.0138,0.0089,-0.0138,-0.0089,-0.0069,-0.0157,0.0069,-0.0157,0.0138,-0.0089,0.0138,0.0089,0.0069,0.0157,0.0*
%
%ADD34OCTAGOND34*%

%ADD35R,0.0866X0.0984*%
%ADD36R,0.0315X0.0400*%
%ADD37R,0.0315X0.0394*%
G04:AMPARAMS|DCode=38|XSize=39.4mil|YSize=31.5mil|CornerRadius=0mil|HoleSize=0mil|Usage=FLASHONLY|Rotation=270.000|XOffset=0mil|YOffset=0mil|HoleType=Round|Shape=Octagon|*
%AMOCTAGOND38*
4,1,8,-0.0079,-0.0197,0.0079,-0.0197,0.0157,-0.0118,0.0157,0.0118,0.0079,0.0197,-0.0079,0.0197,-0.0157,0.0118,-0.0157,-0.0118,-0.0079,-0.0197,0.0*
%
%ADD38OCTAGOND38*%

%ADD39R,0.0709X0.1228*%
%ADD40R,0.1000X0.0600*%
%ADD41R,0.0400X0.0315*%
%ADD42R,0.1669X0.1500*%
G04:AMPARAMS|DCode=43|XSize=55mil|YSize=62mil|CornerRadius=0mil|HoleSize=0mil|Usage=FLASHONLY|Rotation=95.000|XOffset=0mil|YOffset=0mil|HoleType=Round|Shape=Rectangle|*
%AMROTATEDRECTD43*
4,1,4,0.0333,-0.0247,-0.0285,-0.0301,-0.0333,0.0247,0.0285,0.0301,0.0333,-0.0247,0.0*
%
%ADD43ROTATEDRECTD43*%

%ADD44R,0.0620X0.0550*%
G04:AMPARAMS|DCode=45|XSize=55mil|YSize=62mil|CornerRadius=0mil|HoleSize=0mil|Usage=FLASHONLY|Rotation=30.000|XOffset=0mil|YOffset=0mil|HoleType=Round|Shape=Rectangle|*
%AMROTATEDRECTD45*
4,1,4,-0.0083,-0.0406,-0.0393,0.0131,0.0083,0.0406,0.0393,-0.0131,-0.0083,-0.0406,0.0*
%
%ADD45ROTATEDRECTD45*%

G04:AMPARAMS|DCode=46|XSize=55mil|YSize=62mil|CornerRadius=0mil|HoleSize=0mil|Usage=FLASHONLY|Rotation=60.000|XOffset=0mil|YOffset=0mil|HoleType=Round|Shape=Rectangle|*
%AMROTATEDRECTD46*
4,1,4,0.0131,-0.0393,-0.0406,-0.0083,-0.0131,0.0393,0.0406,0.0083,0.0131,-0.0393,0.0*
%
%ADD46ROTATEDRECTD46*%

%ADD47R,0.1260X0.0650*%
%ADD48R,0.0300X0.0350*%
%ADD49R,0.0315X0.0591*%
%ADD50R,0.0197X0.0709*%
%ADD51O,0.0197X0.0709*%
%ADD52O,0.0197X0.0591*%
%ADD53R,0.0197X0.0591*%
%ADD54R,0.0650X0.1260*%
%ADD55O,0.0709X0.0197*%
%ADD56R,0.0709X0.0197*%
%ADD57R,0.1181X0.0906*%
%ADD58R,0.0709X0.0217*%
%ADD59O,0.0709X0.0217*%
%ADD60R,0.0550X0.0620*%
%ADD61R,0.1181X0.1378*%
%ADD62R,0.0217X0.0709*%
%ADD63O,0.0217X0.0709*%
%ADD64R,0.0118X0.0512*%
%ADD65R,0.0709X0.0866*%
%ADD66R,0.0539X0.0638*%
G04:AMPARAMS|DCode=67|XSize=63.8mil|YSize=53.9mil|CornerRadius=0mil|HoleSize=0mil|Usage=FLASHONLY|Rotation=270.000|XOffset=0mil|YOffset=0mil|HoleType=Round|Shape=Octagon|*
%AMOCTAGOND67*
4,1,8,-0.0135,-0.0319,0.0135,-0.0319,0.0270,-0.0184,0.0270,0.0184,0.0135,0.0319,-0.0135,0.0319,-0.0270,0.0184,-0.0270,-0.0184,-0.0135,-0.0319,0.0*
%
%ADD67OCTAGOND67*%

%ADD68R,0.0638X0.0539*%
G04:AMPARAMS|DCode=69|XSize=63.8mil|YSize=53.9mil|CornerRadius=0mil|HoleSize=0mil|Usage=FLASHONLY|Rotation=180.000|XOffset=0mil|YOffset=0mil|HoleType=Round|Shape=Octagon|*
%AMOCTAGOND69*
4,1,8,-0.0319,0.0135,-0.0319,-0.0135,-0.0184,-0.0270,0.0184,-0.0270,0.0319,-0.0135,0.0319,0.0135,0.0184,0.0270,-0.0184,0.0270,-0.0319,0.0135,0.0*
%
%ADD69OCTAGOND69*%

%ADD70R,0.0500X0.0350*%
%ADD71R,0.0866X0.0689*%
%ADD72R,0.1181X0.0630*%
%ADD73R,0.1969X0.0472*%
G04:AMPARAMS|DCode=74|XSize=40mil|YSize=31.5mil|CornerRadius=0mil|HoleSize=0mil|Usage=FLASHONLY|Rotation=315.000|XOffset=0mil|YOffset=0mil|HoleType=Round|Shape=Rectangle|*
%AMROTATEDRECTD74*
4,1,4,-0.0253,0.0030,-0.0030,0.0253,0.0253,-0.0030,0.0030,-0.0253,-0.0253,0.0030,0.0*
%
%ADD74ROTATEDRECTD74*%

%ADD75R,0.0591X0.0669*%
%ADD76R,0.0177X0.0394*%
D25*
X25401Y22182D02*
D03*
X23621Y22192D02*
D03*
D26*
X24505Y19331D02*
D03*
D27*
X38140Y13269D02*
D03*
X38170Y12521D02*
D03*
X39033Y12895D02*
D03*
X28521Y23428D02*
D03*
Y22680D02*
D03*
X29414Y23054D02*
D03*
D28*
X38147Y11895D02*
D03*
X38837D02*
D03*
X21500Y16003D02*
D03*
X22190D02*
D03*
X25097Y17572D02*
D03*
X24407D02*
D03*
X45558Y29266D02*
D03*
X46248D02*
D03*
X36780Y26590D02*
D03*
X37470D02*
D03*
X49429Y26190D02*
D03*
X50119D02*
D03*
X49426Y25590D02*
D03*
X50116D02*
D03*
X49443Y27871D02*
D03*
X50134D02*
D03*
X51063Y28657D02*
D03*
X51754D02*
D03*
X48738Y32267D02*
D03*
X48048D02*
D03*
X37716Y24526D02*
D03*
X37026D02*
D03*
X24331Y13945D02*
D03*
X23641D02*
D03*
X23362Y14849D02*
D03*
X22672D02*
D03*
X33136Y15183D02*
D03*
X33826D02*
D03*
X50815Y19879D02*
D03*
X51505D02*
D03*
X33386Y20416D02*
D03*
X34076D02*
D03*
X42817Y14220D02*
D03*
X42127D02*
D03*
X42786Y12472D02*
D03*
X42096D02*
D03*
X42795Y11818D02*
D03*
X42105D02*
D03*
X44035Y10112D02*
D03*
X44725D02*
D03*
X42154Y10548D02*
D03*
X42844D02*
D03*
X44670Y15462D02*
D03*
X45360D02*
D03*
X45337Y14205D02*
D03*
X44647D02*
D03*
X42844Y9179D02*
D03*
X42154D02*
D03*
X50619Y24392D02*
D03*
X51309D02*
D03*
X52197Y23124D02*
D03*
X52887D02*
D03*
X31565Y14502D02*
D03*
X32255D02*
D03*
D29*
X39631Y13971D02*
D03*
X40379D02*
D03*
X24110Y14819D02*
D03*
X24858D02*
D03*
D30*
X38725Y11231D02*
D03*
X49776Y30143D02*
D03*
X32852Y11637D02*
D03*
D31*
X37623Y11231D02*
D03*
X48673Y30143D02*
D03*
X33954Y11637D02*
D03*
D32*
X36756Y25236D02*
D03*
X37012D02*
D03*
X37268D02*
D03*
Y26000D02*
D03*
X37012D02*
D03*
X36756D02*
D03*
X25042Y16928D02*
D03*
X24786D02*
D03*
X24530D02*
D03*
Y16164D02*
D03*
X24786D02*
D03*
X25042D02*
D03*
D33*
X36196Y7185D02*
D03*
X26755Y7484D02*
D03*
X48064Y16391D02*
D03*
X25720Y17578D02*
D03*
D34*
X36196Y7854D02*
D03*
X26755Y8153D02*
D03*
X48064Y17060D02*
D03*
X25720Y16908D02*
D03*
D35*
X33964Y25385D02*
D03*
Y27236D02*
D03*
X33962Y28215D02*
D03*
Y30065D02*
D03*
X43968Y29330D02*
D03*
Y31180D02*
D03*
D36*
X32048Y29162D02*
D03*
Y28432D02*
D03*
X53548Y33182D02*
D03*
Y33912D02*
D03*
X26315Y18404D02*
D03*
Y19134D02*
D03*
X46793Y34754D02*
D03*
Y34024D02*
D03*
X38938Y25926D02*
D03*
Y25196D02*
D03*
X38319Y25914D02*
D03*
Y25184D02*
D03*
X26317Y17671D02*
D03*
Y16941D02*
D03*
X50134Y30890D02*
D03*
Y31620D02*
D03*
X48054Y30146D02*
D03*
Y30876D02*
D03*
X52913Y20671D02*
D03*
Y19941D02*
D03*
X43750Y22519D02*
D03*
Y21789D02*
D03*
X43741Y20967D02*
D03*
Y20237D02*
D03*
X30289Y25155D02*
D03*
Y25885D02*
D03*
X29770Y28182D02*
D03*
Y27452D02*
D03*
X52242Y19936D02*
D03*
Y20666D02*
D03*
X49517Y32218D02*
D03*
Y31488D02*
D03*
X49267Y17128D02*
D03*
Y16398D02*
D03*
X30049Y9346D02*
D03*
Y10076D02*
D03*
X28232Y10047D02*
D03*
Y9317D02*
D03*
X30645Y8508D02*
D03*
Y9238D02*
D03*
X20782Y11278D02*
D03*
Y12007D02*
D03*
X22452Y8810D02*
D03*
Y8080D02*
D03*
X27461Y11290D02*
D03*
Y12020D02*
D03*
X30269Y14364D02*
D03*
Y15094D02*
D03*
X26708Y14189D02*
D03*
Y14919D02*
D03*
X50141Y19031D02*
D03*
Y19761D02*
D03*
X26085Y15689D02*
D03*
Y14959D02*
D03*
X39683Y13199D02*
D03*
Y12469D02*
D03*
X23120Y10301D02*
D03*
Y9571D02*
D03*
X25995Y12747D02*
D03*
Y13477D02*
D03*
X26704Y13478D02*
D03*
Y12748D02*
D03*
X29584Y13466D02*
D03*
Y14196D02*
D03*
X28925D02*
D03*
Y13466D02*
D03*
X34632Y14458D02*
D03*
Y13728D02*
D03*
X33876Y13192D02*
D03*
Y12462D02*
D03*
X36201Y8484D02*
D03*
Y9214D02*
D03*
X34630Y13007D02*
D03*
Y12277D02*
D03*
X38057Y34139D02*
D03*
X38087Y34869D02*
D03*
X28880Y11925D02*
D03*
Y12655D02*
D03*
X37474Y13161D02*
D03*
Y12431D02*
D03*
X20132Y11292D02*
D03*
Y12022D02*
D03*
X22043Y13635D02*
D03*
Y12905D02*
D03*
X21329Y12861D02*
D03*
Y13591D02*
D03*
D37*
X31432Y25650D02*
D03*
X26373Y26541D02*
D03*
X28243Y11731D02*
D03*
X23111Y8847D02*
D03*
X26697Y12048D02*
D03*
X29562Y12685D02*
D03*
X35399Y9076D02*
D03*
X31335Y9259D02*
D03*
X21453Y12047D02*
D03*
D38*
X31432Y24547D02*
D03*
X26373Y25438D02*
D03*
X28243Y12834D02*
D03*
X23111Y7745D02*
D03*
X26697Y10946D02*
D03*
X29562Y11583D02*
D03*
X35399Y7974D02*
D03*
X31335Y8157D02*
D03*
X21453Y10945D02*
D03*
D39*
X30577Y23346D02*
D03*
X31603D02*
D03*
D40*
X30319Y20948D02*
D03*
Y22089D02*
D03*
X42348Y31470D02*
D03*
Y32612D02*
D03*
X38150Y29352D02*
D03*
Y30493D02*
D03*
X39555Y29337D02*
D03*
Y30479D02*
D03*
X40989Y30486D02*
D03*
Y29344D02*
D03*
X42400Y30501D02*
D03*
Y29359D02*
D03*
D41*
X27988Y16326D02*
D03*
X27258D02*
D03*
X39168Y24463D02*
D03*
X38438D02*
D03*
X26512Y16320D02*
D03*
X25782D02*
D03*
X28515Y19031D02*
D03*
X27785D02*
D03*
X48229Y33698D02*
D03*
X47498D02*
D03*
X47495Y34315D02*
D03*
X48225D02*
D03*
X48096Y31643D02*
D03*
X48826D02*
D03*
X49416Y27222D02*
D03*
X50146D02*
D03*
X50148Y28528D02*
D03*
X49418D02*
D03*
X51785Y28029D02*
D03*
X51055D02*
D03*
X51845Y15410D02*
D03*
X51115D02*
D03*
X51830Y16078D02*
D03*
X51100D02*
D03*
X28612Y24033D02*
D03*
X29341D02*
D03*
X49443Y30804D02*
D03*
X48713D02*
D03*
X49724Y29438D02*
D03*
X48994D02*
D03*
X51525Y20527D02*
D03*
X50795D02*
D03*
X53140Y32342D02*
D03*
X52410D02*
D03*
X26745Y9210D02*
D03*
X27475D02*
D03*
X35447Y9879D02*
D03*
X36177D02*
D03*
X21132Y14834D02*
D03*
X21862D02*
D03*
X31548Y15152D02*
D03*
X32278D02*
D03*
X33158Y10998D02*
D03*
X33888D02*
D03*
X22894Y39323D02*
D03*
X22164D02*
D03*
X22861Y34067D02*
D03*
X22132D02*
D03*
X42811Y13598D02*
D03*
X42081D02*
D03*
X44072Y9348D02*
D03*
X44802D02*
D03*
X42123Y9886D02*
D03*
X42853D02*
D03*
X42871Y8487D02*
D03*
X42141D02*
D03*
X51410Y23720D02*
D03*
X50680D02*
D03*
X52894D02*
D03*
X52164D02*
D03*
X52138Y22500D02*
D03*
X52868D02*
D03*
X30726Y9930D02*
D03*
X31456D02*
D03*
X45393Y14823D02*
D03*
X44663D02*
D03*
X42817Y15452D02*
D03*
X42087D02*
D03*
X22099Y35509D02*
D03*
X22829D02*
D03*
X22092Y34714D02*
D03*
X22852D02*
D03*
X22150Y40755D02*
D03*
X22880D02*
D03*
X22128Y39992D02*
D03*
X22888D02*
D03*
D42*
X20613Y17374D02*
D03*
X23126D02*
D03*
D43*
X51729Y38018D02*
D03*
X51827Y36901D02*
D03*
D44*
X53142Y37763D02*
D03*
Y36641D02*
D03*
X43049Y36239D02*
D03*
Y37361D02*
D03*
X37146Y36371D02*
D03*
Y37493D02*
D03*
X28570Y21928D02*
D03*
Y20806D02*
D03*
X27558Y20817D02*
D03*
Y21939D02*
D03*
X29641Y39916D02*
D03*
Y38794D02*
D03*
D45*
X47900Y37653D02*
D03*
X46928Y37092D02*
D03*
X48518Y36997D02*
D03*
X49489Y37558D02*
D03*
D46*
X42316Y38912D02*
D03*
X41755Y37940D02*
D03*
D47*
X36510Y31737D02*
D03*
Y29395D02*
D03*
X29251Y40913D02*
D03*
Y43256D02*
D03*
X49574Y41169D02*
D03*
Y38827D02*
D03*
D48*
X52478Y33223D02*
D03*
Y33913D02*
D03*
X34630Y10892D02*
D03*
Y11582D02*
D03*
X30414Y27469D02*
D03*
Y28159D02*
D03*
X50127Y17579D02*
D03*
Y18269D02*
D03*
X44793Y32465D02*
D03*
Y31775D02*
D03*
X50356Y15390D02*
D03*
Y16080D02*
D03*
X53000Y27413D02*
D03*
Y26723D02*
D03*
X48624Y17076D02*
D03*
Y16386D02*
D03*
X29440Y9361D02*
D03*
Y10051D02*
D03*
X28830Y10041D02*
D03*
Y9351D02*
D03*
X28273Y13555D02*
D03*
Y14245D02*
D03*
X40383Y12470D02*
D03*
Y13160D02*
D03*
X47463Y30505D02*
D03*
Y29815D02*
D03*
X53007Y25523D02*
D03*
Y24833D02*
D03*
X25969Y11300D02*
D03*
Y11990D02*
D03*
X30236Y11977D02*
D03*
Y12667D02*
D03*
X22162Y12016D02*
D03*
Y11326D02*
D03*
D49*
X51555Y41192D02*
D03*
X53130D02*
D03*
Y38730D02*
D03*
X51555D02*
D03*
D50*
X51879Y36078D02*
D03*
X21248Y35302D02*
D03*
X21298Y40620D02*
D03*
D51*
X50895Y36078D02*
D03*
X51879Y33716D02*
D03*
X50895D02*
D03*
X20264Y32940D02*
D03*
X21248D02*
D03*
X20264Y35302D02*
D03*
X20314Y38258D02*
D03*
X21298D02*
D03*
X20314Y40620D02*
D03*
D52*
X46906Y32021D02*
D03*
X46406Y32021D02*
D03*
X45907D02*
D03*
X45406D02*
D03*
X46906Y30053D02*
D03*
X46406D02*
D03*
X45907D02*
D03*
D53*
X45406Y30053D02*
D03*
D54*
X35484Y28047D02*
D03*
X37826D02*
D03*
D55*
X27022Y26249D02*
D03*
Y25265D02*
D03*
X29384Y26249D02*
D03*
X28972Y28319D02*
D03*
X26610Y27335D02*
D03*
Y28319D02*
D03*
D56*
X29384Y25265D02*
D03*
X28972Y27335D02*
D03*
D57*
X35684Y24278D02*
D03*
Y26208D02*
D03*
D58*
X27119Y18384D02*
D03*
X31013Y13783D02*
D03*
X22975Y13289D02*
D03*
D59*
X27119Y17884D02*
D03*
Y17384D02*
D03*
Y16884D02*
D03*
X29186Y18384D02*
D03*
Y17884D02*
D03*
Y17384D02*
D03*
Y16884D02*
D03*
X33080Y12283D02*
D03*
Y12782D02*
D03*
Y13283D02*
D03*
Y13783D02*
D03*
X31013Y12283D02*
D03*
Y12782D02*
D03*
Y13283D02*
D03*
X25042Y11789D02*
D03*
Y12289D02*
D03*
Y12789D02*
D03*
Y13289D02*
D03*
X22975Y11789D02*
D03*
Y12289D02*
D03*
Y12789D02*
D03*
D60*
X52067Y31520D02*
D03*
X53189D02*
D03*
X27770Y22943D02*
D03*
X26648D02*
D03*
D61*
X41856Y26525D02*
D03*
X46058Y26498D02*
D03*
D62*
X50901Y25153D02*
D03*
X50848Y16993D02*
D03*
X43659Y11141D02*
D03*
D63*
X51401Y25153D02*
D03*
X51901D02*
D03*
X52401D02*
D03*
X50901Y27220D02*
D03*
X51401D02*
D03*
X51901D02*
D03*
X52401D02*
D03*
X52348Y19060D02*
D03*
X51848D02*
D03*
X51348D02*
D03*
X50848D02*
D03*
X52348Y16993D02*
D03*
X51848D02*
D03*
X51348D02*
D03*
X45159Y13208D02*
D03*
X44659D02*
D03*
X44159D02*
D03*
X43659D02*
D03*
X45159Y11141D02*
D03*
X44659D02*
D03*
X44159D02*
D03*
D64*
X34174Y19479D02*
D03*
X33977D02*
D03*
X33781D02*
D03*
X33190D02*
D03*
X32993D02*
D03*
X32796D02*
D03*
X32599D02*
D03*
X32403D02*
D03*
X32206D02*
D03*
X32009D02*
D03*
X33387D02*
D03*
X33584D02*
D03*
X38549Y18020D02*
D03*
X38352D02*
D03*
X36974D02*
D03*
X37171D02*
D03*
X37367D02*
D03*
X37564D02*
D03*
X37761D02*
D03*
X37958D02*
D03*
X38155D02*
D03*
X38745D02*
D03*
X38942D02*
D03*
X39139D02*
D03*
X33851Y9938D02*
D03*
X33654D02*
D03*
X33457D02*
D03*
X33260D02*
D03*
X33063D02*
D03*
X32866D02*
D03*
X24686Y7661D02*
D03*
X24883D02*
D03*
X25080D02*
D03*
X25276D02*
D03*
D65*
X34824Y18496D02*
D03*
X31359Y18496D02*
D03*
X36324Y17037D02*
D03*
X39789Y17037D02*
D03*
X34500Y8955D02*
D03*
X32217Y8955D02*
D03*
X24036Y8644D02*
D03*
X25926Y8644D02*
D03*
D66*
X27901Y24351D02*
D03*
D67*
X26440D02*
D03*
D68*
X26327Y20642D02*
D03*
D69*
Y22103D02*
D03*
D70*
X34580Y15206D02*
D03*
Y15954D02*
D03*
D71*
X22033Y36762D02*
D03*
X23844D02*
D03*
X20623Y31267D02*
D03*
X22434D02*
D03*
D72*
X26095Y31780D02*
D03*
Y35580D02*
D03*
X26157Y37183D02*
D03*
Y40982D02*
D03*
D73*
X24363Y33188D02*
D03*
Y34172D02*
D03*
X24425Y38590D02*
D03*
Y39575D02*
D03*
D74*
X42729Y33737D02*
D03*
X42234Y34274D02*
D03*
D75*
X38840Y33784D02*
D03*
X39840D02*
D03*
X40840D02*
D03*
X38840Y37505D02*
D03*
X39840D02*
D03*
X40840D02*
D03*
X43931Y33846D02*
D03*
X44932D02*
D03*
X45932D02*
D03*
X43931Y37567D02*
D03*
X44932D02*
D03*
X45932D02*
D03*
D76*
X22527Y37769D02*
D03*
X22123Y38662D02*
D03*
X22901D02*
D03*
X22500Y32504D02*
D03*
X22096Y33397D02*
D03*
X22874D02*
D03*
M02*
