G04*
G04 #@! TF.GenerationSoftware,Altium Limited,Altium Designer,20.0.13 (296)*
G04*
G04 Layer_Color=128*
%FSLAX24Y24*%
%MOIN*%
G70*
G01*
G75*
%ADD179C,0.0020*%
D179*
X40074Y6727D02*
X40324D01*
X40199Y6602D02*
Y6852D01*
X25014Y44560D02*
X25447D01*
X25231Y44344D02*
Y44777D01*
X51820Y44379D02*
X51970D01*
X51895Y44304D02*
Y44454D01*
X51402Y44703D02*
X51552D01*
X51477Y44628D02*
Y44778D01*
X50898Y44723D02*
X51048D01*
X50973Y44648D02*
Y44798D01*
X50415Y44723D02*
X50565D01*
X50490Y44648D02*
Y44798D01*
X49892Y44722D02*
X50042D01*
X49967Y44647D02*
Y44797D01*
X44748Y42743D02*
X45181D01*
X44964Y42526D02*
Y42959D01*
X46056Y42732D02*
X46489D01*
X46273Y42516D02*
Y42949D01*
X43487Y42736D02*
X43920D01*
X43704Y42520D02*
Y42953D01*
X32545Y42727D02*
X32978D01*
X32762Y42510D02*
Y42943D01*
X33854Y42716D02*
X34287D01*
X34070Y42500D02*
Y42933D01*
X31285Y42720D02*
X31718D01*
X31501Y42504D02*
Y42937D01*
X39558Y6735D02*
X39808D01*
X39683Y6610D02*
Y6860D01*
X33617Y24181D02*
X34267D01*
X33942Y23856D02*
Y24506D01*
X52140Y8114D02*
X53390D01*
X52765Y7489D02*
Y8739D01*
X34830Y30555D02*
X35480D01*
X35155Y30230D02*
Y30880D01*
X22583Y23529D02*
X23213D01*
X22898Y23214D02*
Y23844D01*
X20221Y24316D02*
X20851D01*
X20536Y24001D02*
Y24631D01*
X24945Y24316D02*
X25575D01*
X25260Y24001D02*
Y24631D01*
X20221Y29119D02*
X20851D01*
X20536Y28804D02*
Y29434D01*
X24945Y29119D02*
X25575D01*
X25260Y28804D02*
Y29434D01*
X30904Y40121D02*
X31534D01*
X31219Y39806D02*
Y40436D01*
X34023Y40121D02*
X34653D01*
X34338Y39806D02*
Y40436D01*
X32463Y40121D02*
X33093D01*
X32778Y39806D02*
Y40436D01*
X46641Y40011D02*
X47271D01*
X46956Y39696D02*
Y40326D01*
X43522Y40011D02*
X44152D01*
X43837Y39696D02*
Y40326D01*
X45082Y40011D02*
X45712D01*
X45397Y39696D02*
Y40326D01*
X37413Y40426D02*
X37886D01*
X37649Y40190D02*
Y40662D01*
X37413Y43426D02*
X37886D01*
X37649Y43190D02*
Y43662D01*
X21228Y36113D02*
X21478D01*
X21353Y35988D02*
Y36238D01*
X20836Y37111D02*
X21086D01*
X20961Y36985D02*
Y37236D01*
X33947Y32055D02*
X34302D01*
X34124Y31878D02*
Y32232D01*
X33947Y33433D02*
X34302D01*
X34124Y33256D02*
Y33610D01*
X20241Y43524D02*
X21491D01*
X20866Y42899D02*
Y44149D01*
X19923Y8114D02*
X21173D01*
X20548Y7489D02*
Y8739D01*
X52140Y43455D02*
X53390D01*
X52765Y42830D02*
Y44080D01*
X37711Y21596D02*
X38066D01*
X37889Y21419D02*
Y21773D01*
X37711Y22974D02*
X38066D01*
X37889Y22797D02*
Y23151D01*
X41931Y21186D02*
X42522D01*
X42226Y20890D02*
Y21481D01*
X40553Y21186D02*
X41144D01*
X40848Y20890D02*
Y21481D01*
X21867Y21008D02*
X22458D01*
X22162Y20712D02*
Y21303D01*
X20489Y21008D02*
X21080D01*
X20784Y20712D02*
Y21303D01*
X28472Y7886D02*
X28622D01*
X28547Y7811D02*
Y7961D01*
X38655Y9985D02*
X39009D01*
X38832Y9808D02*
Y10162D01*
X38655Y8047D02*
X39009D01*
X38832Y7869D02*
Y8224D01*
X28395Y32037D02*
X28985D01*
X28690Y31742D02*
Y32332D01*
X29773Y32037D02*
X30363D01*
X30068Y31742D02*
Y32332D01*
X31151Y32037D02*
X31741D01*
X31446Y31742D02*
Y32332D01*
X47458Y32301D02*
X47578D01*
X47518Y32241D02*
Y32361D01*
X36964Y12924D02*
X37084D01*
X37024Y12864D02*
Y12984D01*
X36633Y14057D02*
X36753D01*
X36693Y13997D02*
Y14117D01*
X36264Y15195D02*
X36464D01*
X36364Y15095D02*
Y15295D01*
X37071Y11844D02*
X37191D01*
X37131Y11784D02*
Y11904D01*
X37479Y14907D02*
X37599D01*
X37539Y14847D02*
Y14967D01*
X38155Y13640D02*
X38275D01*
X38215Y13580D02*
Y13700D01*
X39153Y15166D02*
X39353D01*
X39253Y15066D02*
Y15266D01*
X38387Y14578D02*
X38507D01*
X38447Y14518D02*
Y14638D01*
X26507Y7477D02*
X26627D01*
X26567Y7416D02*
Y7537D01*
X33003Y6876D02*
X33123D01*
X33063Y6816D02*
Y6936D01*
X48474Y15320D02*
X48594D01*
X48534Y15260D02*
Y15380D01*
X38245Y37501D02*
X38365D01*
X38305Y37441D02*
Y37561D01*
X33147Y21812D02*
X33267D01*
X33207Y21752D02*
Y21872D01*
X42573Y24481D02*
X42693D01*
X42633Y24421D02*
Y24541D01*
X28127Y26229D02*
X28247D01*
X28187Y26169D02*
Y26289D01*
X28124Y26387D02*
X28244D01*
X28184Y26327D02*
Y26447D01*
X28121Y26551D02*
X28241D01*
X28181Y26491D02*
Y26611D01*
X30558Y20609D02*
X30678D01*
X30618Y20549D02*
Y20669D01*
X30749Y20611D02*
X30869D01*
X30809Y20551D02*
Y20671D01*
X30369Y20613D02*
X30489D01*
X30429Y20553D02*
Y20673D01*
X29816Y20609D02*
X29936D01*
X29876Y20549D02*
Y20669D01*
X30177Y20607D02*
X30297D01*
X30237Y20547D02*
Y20667D01*
X29990Y20613D02*
X30110D01*
X30050Y20553D02*
Y20673D01*
X31892Y20641D02*
X32092D01*
X31992Y20541D02*
Y20741D01*
X30402Y24654D02*
X30602D01*
X30502Y24554D02*
Y24754D01*
X32771Y22053D02*
X32891D01*
X32831Y21993D02*
Y22113D01*
X29455Y21872D02*
X29575D01*
X29515Y21812D02*
Y21932D01*
X29452Y22077D02*
X29572D01*
X29512Y22017D02*
Y22137D01*
X29454Y22284D02*
X29574D01*
X29514Y22224D02*
Y22344D01*
X31062Y27418D02*
X31182D01*
X31122Y27358D02*
Y27478D01*
X31066Y27673D02*
X31186D01*
X31126Y27613D02*
Y27733D01*
X27086Y27828D02*
X27286D01*
X27186Y27728D02*
Y27928D01*
X24324Y17235D02*
X24444D01*
X24384Y17175D02*
Y17295D01*
X24430Y17373D02*
X24550D01*
X24490Y17313D02*
Y17433D01*
X24229Y17387D02*
X24349D01*
X24289Y17327D02*
Y17447D01*
X31442Y27938D02*
X31642D01*
X31542Y27838D02*
Y28038D01*
X28659Y18999D02*
X28779D01*
X28719Y18939D02*
Y19059D01*
X31473Y22024D02*
X31673D01*
X31573Y21924D02*
Y22124D01*
X30123Y17388D02*
X30243D01*
X30183Y17328D02*
Y17448D01*
X27594Y17388D02*
X27714D01*
X27654Y17328D02*
Y17448D01*
X27519Y16326D02*
X27639D01*
X27579Y16266D02*
Y16386D01*
X25841Y15123D02*
X25961D01*
X25901Y15063D02*
Y15183D01*
X25838Y14965D02*
X25958D01*
X25898Y14906D02*
Y15026D01*
X25828Y14788D02*
X25948D01*
X25888Y14728D02*
Y14848D01*
X53498Y33413D02*
X53618D01*
X53558Y33353D02*
Y33473D01*
X53076Y35955D02*
X53196D01*
X53136Y35895D02*
Y36015D01*
X53083Y40482D02*
X53203D01*
X53143Y40422D02*
Y40542D01*
X53079Y40144D02*
X53199D01*
X53139Y40084D02*
Y40204D01*
X53079Y40306D02*
X53199D01*
X53139Y40246D02*
Y40366D01*
X53091Y40679D02*
X53211D01*
X53151Y40619D02*
Y40739D01*
X53072Y36329D02*
X53192D01*
X53132Y36269D02*
Y36389D01*
X53070Y36138D02*
X53190D01*
X53130Y36078D02*
Y36198D01*
X50700Y35854D02*
X50820D01*
X50760Y35794D02*
Y35914D01*
X50690Y36032D02*
X50810D01*
X50750Y35972D02*
Y36092D01*
X50797Y35696D02*
X50917D01*
X50857Y35636D02*
Y35756D01*
X47603Y37915D02*
X47723D01*
X47663Y37854D02*
Y37975D01*
X48088Y37385D02*
X48208D01*
X48148Y37325D02*
Y37445D01*
X37255Y34756D02*
X37455D01*
X37355Y34656D02*
Y34856D01*
X41708Y34647D02*
X41908D01*
X41808Y34547D02*
Y34747D01*
X52208Y33114D02*
X52328D01*
X52268Y33054D02*
Y33174D01*
X52214Y33311D02*
X52334D01*
X52274Y33251D02*
Y33371D01*
X50843Y33339D02*
X50963D01*
X50903Y33279D02*
Y33399D01*
X50686Y33513D02*
X50806D01*
X50746Y33453D02*
Y33573D01*
X51589Y32065D02*
X51709D01*
X51649Y32005D02*
Y32125D01*
X48397Y34322D02*
X48517D01*
X48457Y34262D02*
Y34382D01*
X48805Y17924D02*
X48925D01*
X48865Y17864D02*
Y17984D01*
X30996Y36906D02*
X31116D01*
X31056Y36846D02*
Y36966D01*
X30812Y36635D02*
X30932D01*
X30872Y36575D02*
Y36695D01*
X35562Y11838D02*
X35682D01*
X35622Y11777D02*
Y11897D01*
X42609Y7297D02*
X42729D01*
X42669Y7237D02*
Y7357D01*
X37028Y10576D02*
X37148D01*
X37088Y10516D02*
Y10636D01*
X53144Y26628D02*
X53264D01*
X53204Y26568D02*
Y26688D01*
X49072Y20115D02*
X49192D01*
X49132Y20055D02*
Y20175D01*
X49072Y20475D02*
X49192D01*
X49132Y20415D02*
Y20535D01*
X51695Y32312D02*
X51815D01*
X51755Y32252D02*
Y32372D01*
X51744Y32070D02*
X51864D01*
X51804Y32010D02*
Y32130D01*
X51940Y32070D02*
X52060D01*
X52000Y32010D02*
Y32130D01*
X51940Y32259D02*
X52060D01*
X52000Y32199D02*
Y32319D01*
X51930Y32447D02*
X52050D01*
X51990Y32387D02*
Y32507D01*
X51804Y32590D02*
X51924D01*
X51864Y32530D02*
Y32650D01*
X51625Y32590D02*
X51745D01*
X51685Y32530D02*
Y32650D01*
X50987Y33506D02*
X51107D01*
X51047Y33446D02*
Y33566D01*
X49284Y24901D02*
X49404D01*
X49344Y24841D02*
Y24961D01*
X49091Y24898D02*
X49211D01*
X49151Y24838D02*
Y24958D01*
X48901Y24903D02*
X49021D01*
X48961Y24843D02*
Y24963D01*
X48225Y24890D02*
X48345D01*
X48285Y24830D02*
Y24950D01*
X48316Y24400D02*
X48436D01*
X48376Y24340D02*
Y24460D01*
X48130Y24254D02*
X48250D01*
X48190Y24194D02*
Y24314D01*
X42948Y24633D02*
X43068D01*
X43008Y24573D02*
Y24693D01*
X39539Y24450D02*
X39659D01*
X39599Y24390D02*
Y24510D01*
X39538Y24648D02*
X39658D01*
X39598Y24588D02*
Y24708D01*
X39541Y24250D02*
X39661D01*
X39601Y24190D02*
Y24310D01*
X43554Y23508D02*
X43674D01*
X43614Y23448D02*
Y23568D01*
X44414Y19964D02*
X44534D01*
X44474Y19904D02*
Y20024D01*
X38586Y19440D02*
X38706D01*
X38646Y19380D02*
Y19500D01*
X43996Y23526D02*
X44116D01*
X44056Y23466D02*
Y23586D01*
X38249Y19168D02*
X38369D01*
X38309Y19108D02*
Y19228D01*
X38495Y18895D02*
X38615D01*
X38555Y18835D02*
Y18955D01*
X38690Y18666D02*
X38810D01*
X38750Y18606D02*
Y18726D01*
X44419Y18416D02*
X44539D01*
X44479Y18356D02*
Y18476D01*
X47978Y24118D02*
X48098D01*
X48038Y24058D02*
Y24178D01*
X48337Y18408D02*
X48457D01*
X48397Y18348D02*
Y18468D01*
X43680Y20042D02*
X43800D01*
X43740Y19982D02*
Y20102D01*
X49397Y23771D02*
X49517D01*
X49457Y23711D02*
Y23831D01*
X48380Y23774D02*
X48500D01*
X48440Y23714D02*
Y23835D01*
X49711Y23173D02*
X49831D01*
X49771Y23113D02*
Y23233D01*
X36938Y24859D02*
X37088D01*
X37013Y24784D02*
Y24934D01*
X38880Y26178D02*
X39000D01*
X38940Y26118D02*
Y26238D01*
X48388Y23184D02*
X48508D01*
X48448Y23124D02*
Y23245D01*
X45576Y31336D02*
X45696D01*
X45636Y31276D02*
Y31396D01*
X45572Y30991D02*
X45692D01*
X45632Y30931D02*
Y31051D01*
X45708Y31167D02*
X45828D01*
X45768Y31107D02*
Y31227D01*
X45981Y31167D02*
X46101D01*
X46041Y31107D02*
Y31227D01*
X45849Y30992D02*
X45969D01*
X45909Y30932D02*
Y31052D01*
X46119Y30999D02*
X46239D01*
X46179Y30939D02*
Y31059D01*
X45701Y30824D02*
X45821D01*
X45761Y30764D02*
Y30884D01*
X45994Y30797D02*
X46114D01*
X46054Y30737D02*
Y30857D01*
X45850Y31328D02*
X45970D01*
X45910Y31268D02*
Y31388D01*
X46139Y31366D02*
X46259D01*
X46199Y31306D02*
Y31426D01*
X47239Y16241D02*
X47359D01*
X47299Y16181D02*
Y16301D01*
X47648Y15240D02*
X47768D01*
X47708Y15180D02*
Y15300D01*
X37287Y16241D02*
X37407D01*
X37347Y16181D02*
Y16301D01*
X49065Y21848D02*
X49185D01*
X49125Y21788D02*
Y21908D01*
X49073Y20301D02*
X49193D01*
X49133Y20241D02*
Y20361D01*
X49627Y22512D02*
X49747D01*
X49687Y22452D02*
Y22572D01*
X48360Y22514D02*
X48480D01*
X48420Y22454D02*
Y22574D01*
X44352Y15248D02*
X44472D01*
X44412Y15188D02*
Y15308D01*
X42530Y14228D02*
X42650D01*
X42590Y14168D02*
Y14288D01*
X45058Y14212D02*
X45178D01*
X45118Y14152D02*
Y14272D01*
X37288Y15945D02*
X37408D01*
X37348Y15885D02*
Y16005D01*
X36381Y16302D02*
X36501D01*
X36441Y16242D02*
Y16362D01*
X48576Y17291D02*
X48696D01*
X48636Y17231D02*
Y17351D01*
X43596Y12114D02*
X43716D01*
X43656Y12054D02*
Y12174D01*
X38363Y28796D02*
X38483D01*
X38423Y28736D02*
Y28856D01*
X31848Y33460D02*
X31968D01*
X31908Y33400D02*
Y33520D01*
X32481Y33436D02*
X32601D01*
X32541Y33376D02*
Y33496D01*
X32527Y33081D02*
X32647D01*
X32587Y33021D02*
Y33141D01*
X32878Y33365D02*
X32998D01*
X32938Y33305D02*
Y33426D01*
X27624Y35764D02*
X27744D01*
X27684Y35704D02*
Y35824D01*
X27618Y36279D02*
X27738D01*
X27678Y36219D02*
Y36339D01*
X27190Y40831D02*
X27310D01*
X27250Y40771D02*
Y40891D01*
X32263Y24466D02*
X32383D01*
X32323Y24406D02*
Y24526D01*
X33121Y23718D02*
X33240D01*
X33180Y23658D02*
Y23778D01*
X30447Y17536D02*
X30647D01*
X30547Y17436D02*
Y17636D01*
X24498Y27445D02*
X24618D01*
X24558Y27385D02*
Y27505D01*
X24506Y27630D02*
X24626D01*
X24566Y27570D02*
Y27690D01*
X22522Y32094D02*
X22641D01*
X22582Y32034D02*
Y32154D01*
X28766Y18382D02*
X28886D01*
X28826Y18322D02*
Y18442D01*
X35648Y17968D02*
X35848D01*
X35748Y17868D02*
Y18068D01*
X35626Y19638D02*
X35826D01*
X35726Y19538D02*
Y19738D01*
X51669Y18245D02*
X51789D01*
X51729Y18185D02*
Y18305D01*
X35901Y11967D02*
X36021D01*
X35961Y11907D02*
Y12027D01*
X35875Y15077D02*
X35995D01*
X35935Y15017D02*
Y15137D01*
X33154Y21459D02*
X33274D01*
X33214Y21399D02*
Y21519D01*
X33192Y20946D02*
X33392D01*
X33292Y20846D02*
Y21046D01*
X37808Y18636D02*
X37928D01*
X37868Y18576D02*
Y18696D01*
X33477Y16314D02*
X33597D01*
X33537Y16254D02*
Y16374D01*
X35292Y15953D02*
X35492D01*
X35392Y15853D02*
Y16053D01*
X35298Y17277D02*
X35498D01*
X35398Y17177D02*
Y17377D01*
X34252Y17147D02*
X34452D01*
X34352Y17047D02*
Y17247D01*
X34785Y19637D02*
X34985D01*
X34885Y19537D02*
Y19737D01*
X31719Y15853D02*
X31919D01*
X31819Y15753D02*
Y15953D01*
X32518Y16547D02*
X32638D01*
X32578Y16487D02*
Y16608D01*
X26892Y15659D02*
X27012D01*
X26952Y15599D02*
Y15719D01*
X50303Y15860D02*
X50423D01*
X50363Y15800D02*
Y15920D01*
X50108Y16085D02*
X50228D01*
X50168Y16025D02*
Y16145D01*
X47101Y32297D02*
X47221D01*
X47161Y32236D02*
Y32357D01*
X46963Y29935D02*
X47083D01*
X47023Y29875D02*
Y29995D01*
X46982Y30207D02*
X47102D01*
X47042Y30147D02*
Y30267D01*
X47783Y30108D02*
X47903D01*
X47843Y30048D02*
Y30168D01*
X51793Y17370D02*
X51913D01*
X51853Y17310D02*
Y17430D01*
X46680Y31362D02*
X46800D01*
X46740Y31302D02*
Y31422D01*
X46404Y31362D02*
X46524D01*
X46464Y31302D02*
Y31422D01*
X46789Y30810D02*
X46909D01*
X46849Y30750D02*
Y30870D01*
X46536Y30793D02*
X46656D01*
X46596Y30733D02*
Y30853D01*
X46243Y30820D02*
X46363D01*
X46303Y30760D02*
Y30880D01*
X46660Y30995D02*
X46780D01*
X46720Y30935D02*
Y31055D01*
X46391Y30988D02*
X46511D01*
X46451Y30928D02*
Y31048D01*
X46795Y31156D02*
X46915D01*
X46855Y31096D02*
Y31216D01*
X46522Y31163D02*
X46642D01*
X46582Y31103D02*
Y31223D01*
X46249Y31163D02*
X46369D01*
X46309Y31103D02*
Y31223D01*
X48003Y29892D02*
X48123D01*
X48063Y29832D02*
Y29952D01*
X47422Y30720D02*
X47542D01*
X47482Y30660D02*
Y30780D01*
X49276Y31507D02*
X49396D01*
X49336Y31447D02*
Y31567D01*
X49249Y25895D02*
X49369D01*
X49309Y25835D02*
Y25955D01*
X50366Y24218D02*
X50486D01*
X50426Y24158D02*
Y24278D01*
X50373Y24561D02*
X50493D01*
X50433Y24501D02*
Y24621D01*
X52511Y24987D02*
X52631D01*
X52571Y24927D02*
Y25047D01*
X52513Y25304D02*
X52633D01*
X52573Y25244D02*
Y25364D01*
X52445Y17197D02*
X52565D01*
X52505Y17137D02*
Y17257D01*
X52292Y17385D02*
X52413D01*
X52352Y17325D02*
Y17444D01*
X49874Y17438D02*
X49994D01*
X49934Y17378D02*
Y17498D01*
X49874Y17655D02*
X49994D01*
X49934Y17595D02*
Y17715D01*
X48371Y16448D02*
X48491D01*
X48431Y16388D02*
Y16508D01*
X52931Y26489D02*
X53051D01*
X52991Y26429D02*
Y26549D01*
X33144Y20393D02*
X33264D01*
X33204Y20333D02*
Y20453D01*
X31930Y25550D02*
X32130D01*
X32030Y25450D02*
Y25650D01*
X34510Y19901D02*
X34710D01*
X34610Y19801D02*
Y20001D01*
X33730Y20497D02*
X33930D01*
X33830Y20397D02*
Y20597D01*
X25620Y7300D02*
X25740D01*
X25680Y7240D02*
Y7360D01*
X24207Y7319D02*
X24357D01*
X24282Y7244D02*
Y7394D01*
X49458Y25799D02*
X49578D01*
X49518Y25739D02*
Y25859D01*
X52343Y25540D02*
X52463D01*
X52403Y25480D02*
Y25600D01*
X51907Y23127D02*
X52027D01*
X51967Y23067D02*
Y23187D01*
X51031Y26638D02*
X51150D01*
X51090Y26578D02*
Y26698D01*
X50452Y26283D02*
X50572D01*
X50512Y26223D02*
Y26343D01*
X50282Y27883D02*
X50402D01*
X50342Y27823D02*
Y27943D01*
X22100Y11099D02*
X22220D01*
X22160Y11039D02*
Y11159D01*
X19876Y41119D02*
X20076D01*
X19976Y41019D02*
Y41219D01*
X39604Y12225D02*
X39724D01*
X39664Y12165D02*
Y12285D01*
X40331Y12255D02*
X40451D01*
X40391Y12195D02*
Y12315D01*
X34395Y19161D02*
X34595D01*
X34495Y19061D02*
Y19261D01*
X34717Y17140D02*
X34917D01*
X34817Y17040D02*
Y17240D01*
X34413Y17756D02*
X34613D01*
X34513Y17656D02*
Y17855D01*
X34798Y17713D02*
X34998D01*
X34898Y17613D02*
Y17813D01*
X34060Y17756D02*
X34260D01*
X34160Y17656D02*
Y17855D01*
X33994Y18197D02*
X34194D01*
X34094Y18097D02*
Y18297D01*
X34004Y18583D02*
X34204D01*
X34104Y18483D02*
Y18683D01*
X33999Y18959D02*
X34199D01*
X34099Y18859D02*
Y19059D01*
X35239Y15499D02*
X35439D01*
X35339Y15399D02*
Y15599D01*
X29896Y28176D02*
X30096D01*
X29996Y28076D02*
Y28276D01*
X31268Y15154D02*
X31388D01*
X31328Y15094D02*
Y15214D01*
X31442Y13496D02*
X31642D01*
X31542Y13396D02*
Y13596D01*
X32601Y13362D02*
X32801D01*
X32701Y13262D02*
Y13462D01*
X32740Y16034D02*
X32940D01*
X32840Y15934D02*
Y16134D01*
X33682Y17739D02*
X33883D01*
X33782Y17639D02*
Y17839D01*
X32683Y20380D02*
X32803D01*
X32743Y20320D02*
Y20440D01*
X24969Y15035D02*
X25089D01*
X25029Y14975D02*
Y15095D01*
X20148Y34099D02*
X20348D01*
X20248Y33999D02*
Y34199D01*
X20152Y33770D02*
X20352D01*
X20252Y33670D02*
Y33870D01*
X25209Y35993D02*
X25329D01*
X25269Y35933D02*
Y36053D01*
X34165Y13187D02*
X34285D01*
X34225Y13127D02*
Y13247D01*
X32418Y13001D02*
X32538D01*
X32478Y12941D02*
Y13061D01*
X32671Y12282D02*
X32791D01*
X32731Y12222D02*
Y12342D01*
X32296Y11033D02*
X32416D01*
X32356Y10973D02*
Y11093D01*
X31526Y10742D02*
X31646D01*
X31586Y10682D02*
Y10802D01*
X32282Y10198D02*
X32402D01*
X32342Y10138D02*
Y10258D01*
X22326Y32122D02*
X22446D01*
X22386Y32062D02*
Y32182D01*
X22419Y32289D02*
X22539D01*
X22479Y32229D02*
Y32349D01*
X23333Y33974D02*
X23453D01*
X23393Y33914D02*
Y34034D01*
X23348Y34150D02*
X23468D01*
X23408Y34090D02*
Y34210D01*
X23368Y34350D02*
X23488D01*
X23428Y34290D02*
Y34410D01*
X21754Y38725D02*
X21954D01*
X21854Y38625D02*
Y38825D01*
X21727Y33173D02*
X21927D01*
X21827Y33073D02*
Y33273D01*
X21719Y33657D02*
X21919D01*
X21819Y33557D02*
Y33757D01*
X22039Y38345D02*
X22159D01*
X22099Y38285D02*
Y38405D01*
X29504Y10583D02*
X29624D01*
X29564Y10523D02*
Y10643D01*
X20201Y39467D02*
X20401D01*
X20301Y39367D02*
Y39567D01*
X20214Y38803D02*
X20414D01*
X20314Y38703D02*
Y38903D01*
X20221Y39128D02*
X20421D01*
X20321Y39028D02*
Y39228D01*
X20148Y33446D02*
X20348D01*
X20248Y33346D02*
Y33546D01*
X45264Y10920D02*
X45384D01*
X45324Y10860D02*
Y10980D01*
X45264Y11159D02*
X45384D01*
X45324Y11099D02*
Y11219D01*
X45251Y11391D02*
X45371D01*
X45311Y11331D02*
Y11451D01*
X31275Y14487D02*
X31395D01*
X31335Y14427D02*
Y14547D01*
X22686Y11637D02*
X22806D01*
X22746Y11577D02*
Y11697D01*
X23070Y11644D02*
X23190D01*
X23130Y11584D02*
Y11704D01*
X29385Y9825D02*
X29506D01*
X29446Y9765D02*
Y9885D01*
X28776Y9580D02*
X28896D01*
X28836Y9520D02*
Y9640D01*
X31333Y12284D02*
X31453D01*
X31393Y12224D02*
Y12344D01*
X30185Y12223D02*
X30305D01*
X30245Y12163D02*
Y12283D01*
X29499Y11839D02*
X29619D01*
X29559Y11779D02*
Y11899D01*
X28872Y13959D02*
X28993D01*
X28932Y13899D02*
Y14019D01*
X28229Y14022D02*
X28349D01*
X28289Y13961D02*
Y14081D01*
X42565Y9173D02*
X42685D01*
X42625Y9113D02*
Y9233D01*
X43765Y10131D02*
X43885D01*
X43825Y10071D02*
Y10191D01*
X42269Y11819D02*
X42389D01*
X42329Y11760D02*
Y11880D01*
X22560Y14647D02*
X22680D01*
X22620Y14587D02*
Y14707D01*
X26493Y10746D02*
X26614D01*
X26553Y10686D02*
Y10806D01*
X21597Y10911D02*
X21717D01*
X21657Y10851D02*
Y10971D01*
X23574Y14142D02*
X23694D01*
X23634Y14082D02*
Y14202D01*
X31811Y12293D02*
X31931D01*
X31871Y12234D02*
Y12354D01*
X30749Y12141D02*
X30869D01*
X30809Y12082D02*
Y12201D01*
X30955Y12133D02*
X31075D01*
X31015Y12073D02*
Y12193D01*
X31166Y12146D02*
X31286D01*
X31226Y12086D02*
Y12206D01*
X33107Y9280D02*
X33227D01*
X33167Y9220D02*
Y9340D01*
X32872Y10963D02*
X32992D01*
X32932Y10903D02*
Y11022D01*
X31514Y10288D02*
X31634D01*
X31574Y10228D02*
Y10348D01*
X32990Y8046D02*
X33110D01*
X33050Y7986D02*
Y8106D01*
X29907Y10992D02*
X30027D01*
X29967Y10932D02*
Y11052D01*
X21283Y13855D02*
X21403D01*
X21343Y13795D02*
Y13915D01*
X22892Y11637D02*
X23012D01*
X22952Y11577D02*
Y11697D01*
X19821Y10300D02*
X19941D01*
X19881Y10240D02*
Y10360D01*
X21374Y10293D02*
X21494D01*
X21434Y10233D02*
Y10353D01*
X27040Y12354D02*
X27160D01*
X27100Y12294D02*
Y12414D01*
X27034Y11593D02*
X27154D01*
X27094Y11533D02*
Y11653D01*
X26430Y13592D02*
X26550D01*
X26490Y13532D02*
Y13651D01*
X25697Y11288D02*
X25817D01*
X25757Y11228D02*
Y11348D01*
X42055Y12687D02*
X42175D01*
X42115Y12628D02*
Y12747D01*
X32871Y15179D02*
X32991D01*
X32931Y15119D02*
Y15239D01*
X21760Y34071D02*
X21880D01*
X21820Y34011D02*
Y34131D01*
X21735Y33405D02*
X21935D01*
X21835Y33305D02*
Y33505D01*
X21861Y38473D02*
X21981D01*
X21921Y38413D02*
Y38533D01*
X21847Y38953D02*
X21967D01*
X21907Y38893D02*
Y39013D01*
X42745Y12116D02*
X42865D01*
X42805Y12056D02*
Y12176D01*
M02*
