G04*
G04 #@! TF.GenerationSoftware,Altium Limited,Altium Designer,20.0.13 (296)*
G04*
G04 Layer_Color=16711935*
%FSLAX24Y24*%
%MOIN*%
G70*
G01*
G75*
%ADD12C,0.0079*%
%ADD13C,0.0100*%
%ADD174C,0.0039*%
%ADD175C,0.0004*%
%ADD176C,0.0020*%
%ADD177C,0.0059*%
D12*
X36579Y25343D02*
X37445D01*
Y25894D01*
X36579D02*
X37445D01*
X36579Y25343D02*
Y25894D01*
X24353Y16821D02*
X25219D01*
X24353Y16270D02*
Y16821D01*
Y16270D02*
X25219D01*
Y16821D01*
D13*
X52028Y35397D02*
G03*
X52028Y35397I-141J0D01*
G01*
X28844Y25257D02*
G03*
X28844Y25257I-141J0D01*
G01*
X28432Y27327D02*
G03*
X28432Y27327I-141J0D01*
G01*
X21397Y34621D02*
G03*
X21397Y34621I-141J0D01*
G01*
X21447Y39939D02*
G03*
X21447Y39939I-141J0D01*
G01*
D174*
X45653Y30637D02*
G03*
X45653Y30637I-197J0D01*
G01*
X27949Y18334D02*
G03*
X27949Y18334I-197J0D01*
G01*
X51148Y25786D02*
G03*
X51148Y25786I-197J0D01*
G01*
X31843Y13733D02*
G03*
X31843Y13733I-197J0D01*
G01*
X23805Y13239D02*
G03*
X23805Y13239I-197J0D01*
G01*
X51095Y17626D02*
G03*
X51095Y17626I-197J0D01*
G01*
X43906Y11775D02*
G03*
X43906Y11775I-197J0D01*
G01*
X38954Y34680D02*
G03*
X38954Y34680I-197J0D01*
G01*
X44046Y34742D02*
G03*
X44046Y34742I-197J0D01*
G01*
X38335Y12304D02*
Y13485D01*
X38846Y12304D02*
Y13485D01*
X38335D02*
X38846D01*
X38335Y12304D02*
X38846D01*
X33216Y25208D02*
X34712D01*
X33216D02*
Y27413D01*
X34712Y25208D02*
Y27413D01*
X33213Y28038D02*
X34710D01*
X33213D02*
Y30243D01*
X34710Y28038D02*
Y30243D01*
X47141Y30329D02*
Y31746D01*
X45172Y30329D02*
Y31746D01*
X47141D01*
X45172Y30329D02*
X47141D01*
X27444Y16650D02*
X28861D01*
X27444Y18618D02*
X28861D01*
Y16650D02*
Y18618D01*
X27444Y16650D02*
Y18618D01*
X43220Y29152D02*
Y31357D01*
X44716Y29152D02*
Y31357D01*
X43220D02*
X44716D01*
X52635Y25478D02*
Y26895D01*
X50667Y25478D02*
Y26895D01*
X52635D01*
X50667Y25478D02*
X52635D01*
X28716Y22464D02*
Y23645D01*
X29227Y22464D02*
Y23645D01*
X28716D02*
X29227D01*
X28716Y22464D02*
X29227D01*
X31338Y12048D02*
Y14017D01*
X32755Y12048D02*
Y14017D01*
X31338D02*
X32755D01*
X31338Y12048D02*
X32755D01*
X23300Y11555D02*
Y13523D01*
X24717Y11555D02*
Y13523D01*
X23300D02*
X24717D01*
X23300Y11555D02*
X24717D01*
X50614Y17318D02*
X52582D01*
X50614Y18735D02*
X52582D01*
X50614Y17318D02*
Y18735D01*
X52582Y17318D02*
Y18735D01*
X43425Y11466D02*
X45394D01*
X43425Y12883D02*
X45394D01*
X43425Y11466D02*
Y12883D01*
X45394Y11466D02*
Y12883D01*
X38403Y34326D02*
X41277D01*
X38403Y36963D02*
X41277D01*
X38403Y34326D02*
Y36963D01*
X41277Y34326D02*
Y36963D01*
X43494Y34388D02*
X46369D01*
X43494Y37025D02*
X46369D01*
X43494Y34388D02*
Y37025D01*
X46369Y34388D02*
Y37025D01*
X21937Y37956D02*
Y38468D01*
X23118Y37956D02*
Y38468D01*
X21937Y37956D02*
X23118D01*
X21937Y38468D02*
X23118D01*
X21909Y32691D02*
Y33203D01*
X23090Y32691D02*
Y33203D01*
X21909Y32691D02*
X23090D01*
X21909Y33203D02*
X23090D01*
D175*
X38172Y11740D02*
X38802D01*
X38172D02*
Y12055D01*
X38802D01*
Y11740D02*
Y12055D01*
X52633Y33248D02*
Y33878D01*
X52318Y33248D02*
X52633D01*
X52318D02*
Y33878D01*
X52633D01*
X34785Y10917D02*
Y11547D01*
X34471Y10917D02*
X34785D01*
X34471D02*
Y11547D01*
X34785D01*
X30569Y27494D02*
Y28124D01*
X30254Y27494D02*
X30569D01*
X30254D02*
Y28124D01*
X30569D01*
X21525Y15848D02*
X22155D01*
X21525D02*
Y16163D01*
X22155D01*
Y15848D02*
Y16163D01*
X24442Y17727D02*
X25072D01*
Y17412D02*
Y17727D01*
X24442Y17412D02*
X25072D01*
X24442D02*
Y17727D01*
X50282Y17604D02*
Y18234D01*
X49967Y17604D02*
X50282D01*
X49967D02*
Y18234D01*
X50282D01*
X44638Y31810D02*
Y32440D01*
X44953D01*
Y31810D02*
Y32440D01*
X44638Y31810D02*
X44953D01*
X45583Y29111D02*
X46213D01*
X45583D02*
Y29426D01*
X46213D01*
Y29111D02*
Y29426D01*
X36815Y26430D02*
Y26745D01*
Y26430D02*
X37445D01*
Y26745D01*
X36815D02*
X37445D01*
X50511Y15415D02*
Y16045D01*
X50196Y15415D02*
X50511D01*
X50196D02*
Y16045D01*
X50511D01*
X49454Y26035D02*
X50084D01*
X49454D02*
Y26350D01*
X50084D01*
Y26035D02*
Y26350D01*
X49451Y25435D02*
X50081D01*
X49451D02*
Y25750D01*
X50081D01*
Y25435D02*
Y25750D01*
X49469Y27716D02*
X50098D01*
X49469D02*
Y28031D01*
X50098D01*
Y27716D02*
Y28031D01*
X51089Y28502D02*
X51718D01*
X51089D02*
Y28817D01*
X51718D01*
Y28502D02*
Y28817D01*
X52845Y26758D02*
Y27388D01*
X53159D01*
Y26758D02*
Y27388D01*
X52845Y26758D02*
X53159D01*
X48083Y32422D02*
X48713D01*
Y32107D02*
Y32422D01*
X48083Y32107D02*
X48713D01*
X48083D02*
Y32422D01*
X48464Y17041D02*
X48779D01*
X48464Y16411D02*
Y17041D01*
Y16411D02*
X48779D01*
Y17041D01*
X37681Y24371D02*
Y24686D01*
X37051D02*
X37681D01*
X37051Y24371D02*
Y24686D01*
Y24371D02*
X37681D01*
X29595Y9386D02*
Y10016D01*
X29280Y9386D02*
X29595D01*
X29280D02*
Y10016D01*
X29595D01*
X28675Y9386D02*
Y10016D01*
X28990D01*
Y9386D02*
Y10016D01*
X28675Y9386D02*
X28990D01*
X28118Y13590D02*
X28433D01*
Y14220D01*
X28118D02*
X28433D01*
X28118Y13590D02*
Y14220D01*
X23676Y14100D02*
X24306D01*
Y13785D02*
Y14100D01*
X23676Y13785D02*
X24306D01*
X23676D02*
Y14100D01*
X22707Y15004D02*
X23337D01*
Y14689D02*
Y15004D01*
X22707Y14689D02*
X23337D01*
X22707D02*
Y15004D01*
X33161Y15028D02*
X33791D01*
X33161D02*
Y15343D01*
X33791D01*
Y15028D02*
Y15343D01*
X50850Y19719D02*
Y20034D01*
Y19719D02*
X51480D01*
Y20034D01*
X50850D02*
X51480D01*
X33422Y20256D02*
Y20571D01*
Y20256D02*
X34051D01*
Y20571D01*
X33422D02*
X34051D01*
X40228Y12505D02*
X40543D01*
Y13135D01*
X40228D02*
X40543D01*
X40228Y12505D02*
Y13135D01*
X47303Y30470D02*
X47618D01*
X47303Y29840D02*
Y30470D01*
Y29840D02*
X47618D01*
Y30470D01*
X42782Y14065D02*
Y14380D01*
X42152D02*
X42782D01*
X42152Y14065D02*
Y14380D01*
Y14065D02*
X42782D01*
X42751Y12317D02*
Y12632D01*
X42121D02*
X42751D01*
X42121Y12317D02*
Y12632D01*
Y12317D02*
X42751D01*
X42760Y11663D02*
Y11978D01*
X42130D02*
X42760D01*
X42130Y11663D02*
Y11978D01*
Y11663D02*
X42760D01*
X44070Y9952D02*
Y10267D01*
Y9952D02*
X44700D01*
Y10267D01*
X44070D02*
X44700D01*
X42189Y10388D02*
Y10703D01*
Y10388D02*
X42819D01*
Y10703D01*
X42189D02*
X42819D01*
X44705Y15302D02*
Y15617D01*
Y15302D02*
X45335D01*
Y15617D01*
X44705D02*
X45335D01*
X45302Y14050D02*
Y14365D01*
X44672D02*
X45302D01*
X44672Y14050D02*
Y14365D01*
Y14050D02*
X45302D01*
X42809Y9024D02*
Y9339D01*
X42179D02*
X42809D01*
X42179Y9024D02*
Y9339D01*
Y9024D02*
X42809D01*
X50654Y24232D02*
Y24547D01*
Y24232D02*
X51284D01*
Y24547D01*
X50654D02*
X51284D01*
X52847Y25488D02*
X53162D01*
X52847Y24858D02*
Y25488D01*
Y24858D02*
X53162D01*
Y25488D01*
X52232Y22964D02*
Y23279D01*
Y22964D02*
X52862D01*
Y23279D01*
X52232D02*
X52862D01*
X25814Y11335D02*
X26129D01*
Y11965D01*
X25814D02*
X26129D01*
X25814Y11335D02*
Y11965D01*
X30081Y12012D02*
X30396D01*
Y12642D01*
X30081D02*
X30396D01*
X30081Y12012D02*
Y12642D01*
X31600Y14372D02*
Y14687D01*
Y14372D02*
X32230D01*
Y14687D01*
X31600D02*
X32230D01*
X21972Y11981D02*
X22287D01*
X21972Y11351D02*
Y11981D01*
Y11351D02*
X22287D01*
Y11981D01*
D176*
X51342Y41221D02*
X53342D01*
X51342Y38701D02*
Y41221D01*
Y38701D02*
X53342D01*
Y41221D01*
D177*
X50521Y34031D02*
Y35763D01*
Y34031D02*
X52253D01*
Y35763D01*
X50521D02*
X52253D01*
X29069Y24891D02*
Y26623D01*
X27337Y24891D02*
X29069D01*
X27337D02*
Y26623D01*
X29069D01*
X26925Y28693D02*
X28657D01*
X26925Y26961D02*
Y28693D01*
Y26961D02*
X28657D01*
Y28693D01*
X19890Y34987D02*
X21622D01*
Y33255D02*
Y34987D01*
X19890Y33255D02*
X21622D01*
X19890D02*
Y34987D01*
X19940Y40305D02*
X21672D01*
Y38572D02*
Y40305D01*
X19940Y38572D02*
X21672D01*
X19940D02*
Y40305D01*
M02*
