G04*
G04 #@! TF.GenerationSoftware,Altium Limited,Altium Designer,20.0.13 (296)*
G04*
G04 Layer_Physical_Order=3*
G04 Layer_Color=16440176*
%FSLAX24Y24*%
%MOIN*%
G70*
G01*
G75*
%ADD10C,0.0100*%
%ADD11C,0.0150*%
%ADD16C,0.0060*%
%ADD17C,0.0250*%
%ADD18C,0.0374*%
%ADD22C,0.0200*%
%ADD24C,0.0300*%
%ADD26C,0.0200*%
%ADD27C,0.0300*%
%ADD28C,0.0400*%
G36*
X42643Y36020D02*
X42627Y35995D01*
X42621Y35983D01*
X42615Y35971D01*
X42611Y35960D01*
X42607Y35949D01*
X42605Y35938D01*
X42604Y35928D01*
X42603Y35918D01*
X42543D01*
X42543Y35928D01*
X42541Y35938D01*
X42539Y35949D01*
X42535Y35960D01*
X42531Y35971D01*
X42525Y35983D01*
X42519Y35995D01*
X42503Y36020D01*
X42493Y36033D01*
X42653D01*
X42643Y36020D01*
D02*
G37*
G36*
X42373Y35782D02*
X42357Y35779D01*
X42328Y35773D01*
X42315Y35769D01*
X42303Y35765D01*
X42292Y35760D01*
X42281Y35754D01*
X42272Y35749D01*
X42264Y35742D01*
X42256Y35736D01*
X42214Y35778D01*
X42220Y35786D01*
X42227Y35794D01*
X42232Y35803D01*
X42238Y35814D01*
X42243Y35825D01*
X42247Y35837D01*
X42251Y35850D01*
X42257Y35879D01*
X42260Y35895D01*
X42373Y35782D01*
D02*
G37*
G36*
X42745Y35058D02*
X42916Y34887D01*
Y34645D01*
X42223D01*
X41996Y34872D01*
X41433D01*
X41420Y35340D01*
X41455Y35376D01*
X42745D01*
Y35058D01*
D02*
G37*
G36*
X39622Y34333D02*
X39558Y34269D01*
X39552Y34275D01*
X38994D01*
X38990Y34799D01*
X39161Y34970D01*
X39166Y34973D01*
X39266Y35073D01*
X39622D01*
Y34333D01*
D02*
G37*
G36*
X31971Y34307D02*
X32059Y34327D01*
X32112Y34255D01*
X32184Y34327D01*
X32186Y34315D01*
X32191Y34301D01*
X32199Y34284D01*
X32211Y34265D01*
X32226Y34244D01*
X32266Y34195D01*
X32320Y34137D01*
X32352Y34105D01*
X32281Y34034D01*
X32252Y34063D01*
X32241Y34072D01*
X32229Y34076D01*
X32219Y34074D01*
X32209Y34066D01*
X32202Y34051D01*
X32195Y34030D01*
X32190Y34002D01*
X32185Y33928D01*
X32184Y33881D01*
X31934Y34027D01*
X31933Y34074D01*
X31930Y34117D01*
X31925Y34155D01*
X31918Y34187D01*
X31909Y34214D01*
X31898Y34237D01*
X31885Y34255D01*
X31870Y34267D01*
X31865Y34269D01*
X31819Y34274D01*
X31740Y34277D01*
X31694Y34277D01*
Y34377D01*
X31740Y34377D01*
X31882Y34387D01*
X31908Y34391D01*
X31930Y34396D01*
X31947Y34402D01*
X31961Y34408D01*
X31971Y34415D01*
Y34307D01*
D02*
G37*
G36*
X37267Y33767D02*
X37292Y33745D01*
X37303Y33737D01*
X37314Y33729D01*
X37325Y33723D01*
X37335Y33718D01*
X37345Y33715D01*
X37354Y33713D01*
X37363Y33712D01*
X37345Y33652D01*
X37334Y33652D01*
X37322Y33651D01*
X37311Y33650D01*
X37300Y33647D01*
X37277Y33641D01*
X37265Y33637D01*
X37242Y33627D01*
X37230Y33621D01*
X37254Y33779D01*
X37267Y33767D01*
D02*
G37*
G36*
X32704Y33576D02*
X32697Y33568D01*
X32692Y33559D01*
X32687Y33549D01*
X32683Y33539D01*
X32679Y33529D01*
X32676Y33518D01*
X32674Y33506D01*
X32672Y33494D01*
X32671Y33482D01*
X32671Y33469D01*
X32571Y33474D01*
X32571Y33487D01*
X32569Y33512D01*
X32567Y33524D01*
X32564Y33535D01*
X32561Y33545D01*
X32558Y33555D01*
X32554Y33564D01*
X32549Y33572D01*
X32544Y33580D01*
X32704Y33576D01*
D02*
G37*
G36*
X37248Y33360D02*
X37273Y33344D01*
X37285Y33337D01*
X37296Y33332D01*
X37307Y33327D01*
X37317Y33324D01*
X37328Y33321D01*
X37337Y33320D01*
X37346Y33319D01*
Y33259D01*
X37337Y33259D01*
X37328Y33257D01*
X37317Y33255D01*
X37307Y33251D01*
X37296Y33247D01*
X37285Y33241D01*
X37273Y33235D01*
X37248Y33219D01*
X37235Y33209D01*
Y33369D01*
X37248Y33360D01*
D02*
G37*
G36*
X45215Y32861D02*
X44775D01*
Y33789D01*
X45215D01*
Y32861D01*
D02*
G37*
G36*
X38242Y32852D02*
X38239Y32852D01*
X38234Y32850D01*
X38229Y32847D01*
X38224Y32843D01*
X38209Y32831D01*
X38192Y32816D01*
X38172Y32796D01*
X38077Y32913D01*
X38134Y32970D01*
X38242Y32852D01*
D02*
G37*
G36*
X30029Y32631D02*
X30030Y32620D01*
X30033Y32609D01*
X30037Y32599D01*
X30042Y32588D01*
X30048Y32578D01*
X30056Y32568D01*
X30064Y32559D01*
X30074Y32550D01*
X30084Y32540D01*
X29930Y32500D01*
X29928Y32575D01*
X30028Y32642D01*
X30029Y32631D01*
D02*
G37*
G36*
X45318Y32461D02*
X45316Y32462D01*
X45312Y32463D01*
X45307Y32464D01*
X45293Y32465D01*
X45247Y32466D01*
X45232Y32466D01*
Y32616D01*
X45247Y32616D01*
X45316Y32620D01*
X45318Y32621D01*
Y32461D01*
D02*
G37*
G36*
X37179Y32479D02*
X37183Y32478D01*
X37188Y32478D01*
X37202Y32476D01*
X37248Y32475D01*
X37263Y32475D01*
Y32445D01*
X37300Y32475D01*
X37631Y32325D01*
X37604Y32324D01*
X37581Y32321D01*
X37564Y32316D01*
X37552Y32308D01*
X37545Y32299D01*
X37543Y32287D01*
X37547Y32273D01*
X37555Y32257D01*
X37568Y32239D01*
X37587Y32219D01*
X37375D01*
X37353Y32239D01*
X37331Y32257D01*
X37307Y32273D01*
X37283Y32287D01*
X37258Y32299D01*
X37232Y32308D01*
X37205Y32316D01*
X37178Y32321D01*
X37177Y32320D01*
Y32321D01*
X37177Y32321D01*
X37148Y32324D01*
X37119Y32325D01*
X37177Y32374D01*
Y32480D01*
X37179Y32479D01*
D02*
G37*
G36*
X32671Y32333D02*
X32672Y32321D01*
X32674Y32309D01*
X32677Y32298D01*
X32680Y32287D01*
X32684Y32276D01*
X32689Y32266D01*
X32695Y32256D01*
X32701Y32247D01*
X32708Y32238D01*
X32622Y32173D01*
X32549Y32228D01*
X32553Y32235D01*
X32557Y32243D01*
X32560Y32252D01*
X32563Y32261D01*
X32565Y32271D01*
X32567Y32282D01*
X32570Y32306D01*
X32571Y32318D01*
X32571Y32332D01*
X32671Y32345D01*
X32671Y32333D01*
D02*
G37*
G36*
X32708Y32108D02*
X32701Y32099D01*
X32695Y32090D01*
X32689Y32080D01*
X32684Y32070D01*
X32680Y32060D01*
X32677Y32049D01*
X32674Y32037D01*
X32672Y32026D01*
X32671Y32013D01*
X32671Y32001D01*
X32571Y32014D01*
X32571Y32028D01*
X32570Y32041D01*
X32567Y32064D01*
X32565Y32075D01*
X32563Y32085D01*
X32560Y32095D01*
X32557Y32103D01*
X32553Y32111D01*
X32549Y32118D01*
X32622Y32173D01*
X32708Y32108D01*
D02*
G37*
G36*
X42673Y31902D02*
X42671Y31902D01*
X42668Y31900D01*
X42664Y31897D01*
X42653Y31887D01*
X42620Y31856D01*
X42609Y31845D01*
X42503Y31951D01*
X42514Y31962D01*
X42560Y32013D01*
X42560Y32015D01*
X42673Y31902D01*
D02*
G37*
G36*
X32671Y31722D02*
X32671Y31710D01*
X32673Y31698D01*
X32675Y31687D01*
X32678Y31676D01*
X32682Y31665D01*
X32687Y31655D01*
X32693Y31644D01*
X32699Y31635D01*
X32707Y31625D01*
X32715Y31616D01*
X32557Y31596D01*
X32559Y31602D01*
X32562Y31609D01*
X32564Y31618D01*
X32566Y31628D01*
X32569Y31654D01*
X32570Y31686D01*
X32571Y31724D01*
X32671Y31722D01*
D02*
G37*
G36*
X41013Y31553D02*
X41023Y31551D01*
X41038Y31549D01*
X41080Y31545D01*
X41270Y31542D01*
Y31392D01*
X41008Y31379D01*
Y31390D01*
X40982Y31388D01*
X40980Y31387D01*
Y31547D01*
X40982Y31546D01*
X40986Y31545D01*
X40991Y31544D01*
X41005Y31543D01*
X41008Y31543D01*
Y31555D01*
X41013Y31553D01*
D02*
G37*
G36*
X40832Y31544D02*
X40858Y31546D01*
X40860Y31547D01*
Y31387D01*
X40858Y31388D01*
X40854Y31389D01*
X40849Y31390D01*
X40835Y31391D01*
X40832Y31391D01*
Y31379D01*
X40827Y31381D01*
X40817Y31383D01*
X40802Y31385D01*
X40760Y31389D01*
X40570Y31392D01*
Y31542D01*
X40832Y31555D01*
Y31544D01*
D02*
G37*
G36*
X40358Y31340D02*
X40353Y31338D01*
X40344Y31333D01*
X40333Y31324D01*
X40300Y31296D01*
X40164Y31164D01*
X40057Y31271D01*
X40233Y31465D01*
X40358Y31340D01*
D02*
G37*
G36*
X45877Y30704D02*
X45875Y30686D01*
X45723Y30664D01*
X45726Y30673D01*
X45727Y30682D01*
X45728Y30691D01*
X45727Y30701D01*
X45724Y30710D01*
X45721Y30719D01*
X45715Y30729D01*
X45709Y30738D01*
X45701Y30748D01*
X45692Y30758D01*
X45828Y30834D01*
X45877Y30704D01*
D02*
G37*
G36*
X46023Y30639D02*
X45947Y30503D01*
X45937Y30512D01*
X45927Y30520D01*
X45918Y30526D01*
X45908Y30532D01*
X45899Y30535D01*
X45890Y30538D01*
X45880Y30539D01*
X45871Y30538D01*
X45862Y30537D01*
X45853Y30534D01*
X45875Y30686D01*
X45893Y30688D01*
X46023Y30639D01*
D02*
G37*
G36*
X47928Y30464D02*
X47927Y30464D01*
X47924Y30464D01*
X47898Y30465D01*
X47846Y30465D01*
X47834Y30615D01*
X47849Y30615D01*
X47911Y30619D01*
X47916Y30620D01*
X47920Y30622D01*
X47923Y30623D01*
X47928Y30464D01*
D02*
G37*
G36*
X46800Y30012D02*
X46780Y29990D01*
X46762Y29968D01*
X46746Y29944D01*
X46732Y29920D01*
X46721Y29895D01*
X46711Y29869D01*
X46704Y29842D01*
X46698Y29814D01*
X46695Y29785D01*
X46694Y29756D01*
X46544D01*
X46543Y29785D01*
X46540Y29814D01*
X46534Y29842D01*
X46527Y29869D01*
X46517Y29895D01*
X46506Y29920D01*
X46492Y29944D01*
X46476Y29968D01*
X46458Y29990D01*
X46438Y30012D01*
X46513Y30149D01*
X46534Y30130D01*
X46555Y30115D01*
X46577Y30105D01*
X46598Y30098D01*
X46619Y30096D01*
X46640Y30098D01*
X46661Y30105D01*
X46683Y30115D01*
X46704Y30130D01*
X46725Y30149D01*
X46800Y30012D01*
D02*
G37*
G36*
X46694Y29414D02*
X46544Y29189D01*
X46543Y29218D01*
X46538Y29243D01*
X46530Y29265D01*
X46520Y29285D01*
X46507Y29302D01*
X46490Y29315D01*
X46470Y29325D01*
X46448Y29333D01*
X46423Y29337D01*
X46394Y29339D01*
Y29489D01*
X46423Y29490D01*
X46448Y29495D01*
X46470Y29502D01*
X46490Y29513D01*
X46507Y29527D01*
X46520Y29543D01*
X46530Y29562D01*
X46538Y29585D01*
X46543Y29611D01*
X46544Y29639D01*
X46694Y29414D01*
D02*
G37*
G36*
X46827Y28242D02*
X46387D01*
Y29170D01*
X46827D01*
Y28242D01*
D02*
G37*
G36*
X32471Y27018D02*
X32466Y27009D01*
X32462Y27000D01*
X32458Y26990D01*
X32454Y26979D01*
X32452Y26968D01*
X32450Y26957D01*
X32448Y26945D01*
X32447Y26932D01*
X32447Y26919D01*
X32347D01*
X32347Y26932D01*
X32344Y26957D01*
X32342Y26968D01*
X32340Y26979D01*
X32336Y26990D01*
X32332Y27000D01*
X32328Y27009D01*
X32323Y27018D01*
X32317Y27026D01*
X32477D01*
X32471Y27018D01*
D02*
G37*
G36*
X40962Y26714D02*
X40712Y26339D01*
X40710Y26386D01*
X40702Y26429D01*
X40690Y26467D01*
X40672Y26499D01*
X40649Y26527D01*
X40622Y26549D01*
X40589Y26567D01*
X40552Y26579D01*
X40510Y26586D01*
X40462Y26589D01*
Y26839D01*
X40510Y26841D01*
X40552Y26849D01*
X40589Y26862D01*
X40622Y26879D01*
X40649Y26902D01*
X40672Y26929D01*
X40690Y26962D01*
X40702Y26999D01*
X40710Y27041D01*
X40712Y27089D01*
X40962Y26714D01*
D02*
G37*
G36*
X40183Y25685D02*
X40171Y25680D01*
X38815D01*
Y26120D01*
X40183D01*
Y25685D01*
D02*
G37*
G36*
X42669Y25654D02*
X42657Y25649D01*
X41301D01*
Y26089D01*
X42669D01*
Y25654D01*
D02*
G37*
G36*
X31018Y25471D02*
X30963Y25416D01*
X29536D01*
X29501Y25452D01*
X29515Y26393D01*
X31018D01*
Y25471D01*
D02*
G37*
G36*
X32448Y25084D02*
X32461Y24914D01*
X32462Y24906D01*
X32474Y24895D01*
X32495Y24882D01*
X32522Y24871D01*
X32555Y24862D01*
X32594Y24855D01*
X32690Y24847D01*
X32747Y24846D01*
X32397Y24546D01*
X32047Y24846D01*
X32155Y24850D01*
X32200Y24855D01*
X32239Y24862D01*
X32272Y24871D01*
X32299Y24882D01*
X32320Y24895D01*
X32332Y24906D01*
X32333Y24914D01*
X32338Y24950D01*
X32345Y25035D01*
X32347Y25137D01*
X32447D01*
X32448Y25084D01*
D02*
G37*
G36*
X41445Y23832D02*
X41268Y23655D01*
X41257Y23666D01*
X38580D01*
X38544Y23702D01*
X38555Y24636D01*
X38589Y24670D01*
X41445D01*
Y23832D01*
D02*
G37*
G36*
X36604Y23596D02*
X36656Y23544D01*
X36656Y22847D01*
X35588D01*
X35550Y22885D01*
Y23596D01*
X36604Y23596D01*
D02*
G37*
%LPC*%
G36*
X39218Y24460D02*
X39156Y24447D01*
X39103Y24412D01*
X39067Y24359D01*
X39055Y24297D01*
X39067Y24234D01*
X39103Y24181D01*
X39156Y24146D01*
X39218Y24134D01*
X39281Y24146D01*
X39334Y24181D01*
X39369Y24234D01*
X39381Y24297D01*
X39369Y24359D01*
X39334Y24412D01*
X39281Y24447D01*
X39218Y24460D01*
D02*
G37*
%LPD*%
D10*
X32621Y31639D02*
Y33765D01*
X29978Y32462D02*
Y33583D01*
X32397Y24696D02*
Y27086D01*
Y24689D02*
Y24696D01*
X32624Y31565D02*
X32643Y31546D01*
X32624Y31565D02*
Y31636D01*
X32621Y31639D02*
X32624Y31636D01*
X32059Y34327D02*
X32621Y33765D01*
X29978Y33583D02*
X30722Y34327D01*
X32059D01*
D11*
X44977Y33059D02*
Y33579D01*
Y31579D02*
Y33059D01*
X46619Y28865D02*
Y29414D01*
Y28480D02*
Y28865D01*
X44977Y31579D02*
X46619Y29937D01*
X37117Y32400D02*
X37300D01*
X37670D02*
X38235Y32965D01*
X40920Y31467D02*
X42125D01*
X42643Y31985D01*
Y31994D01*
X40358Y31465D02*
X40360Y31467D01*
X39891Y30998D02*
X40358Y31465D01*
X46619Y29414D02*
Y29937D01*
X46177Y29414D02*
X46619D01*
X38275Y31902D02*
X39179Y30998D01*
X47222Y30540D02*
X47974D01*
X46619Y29937D02*
X47222Y30540D01*
X44993Y32541D02*
X45378D01*
X44979Y32555D02*
X44993Y32541D01*
X40360Y31467D02*
X40920D01*
X37300Y32400D02*
X37670D01*
X39179Y30998D02*
X39891D01*
X37798Y31902D02*
X38275D01*
X37300Y32400D02*
X37798Y31902D01*
D16*
X37529Y33933D02*
X38754Y35158D01*
X37746Y33980D02*
X38804Y35038D01*
X38754Y35158D02*
X39049D01*
X38804Y35038D02*
X39101D01*
X37746Y33689D02*
Y33980D01*
X37529Y33795D02*
Y33933D01*
X37416Y33682D02*
X37529Y33795D01*
X37186Y33682D02*
X37416D01*
X37168Y33700D02*
X37186Y33682D01*
X42573Y35826D02*
Y36093D01*
X42228Y35481D02*
X42573Y35826D01*
X39544Y35481D02*
X42228D01*
X42079Y35601D02*
X42359Y35881D01*
X39492Y35601D02*
X42079D01*
X39049Y35158D02*
X39492Y35601D01*
X39101Y35038D02*
X39544Y35481D01*
X37346Y33289D02*
X37746Y33689D01*
X37182Y33289D02*
X37346D01*
X37179Y33292D02*
X37182Y33289D01*
D17*
X39978Y25900D02*
X40029D01*
X35442D02*
X39978D01*
X43456Y33509D02*
Y34163D01*
X42380Y32433D02*
X43456Y33509D01*
X42845Y34774D02*
X43456Y34163D01*
X41886Y32433D02*
X42380D01*
X34592Y27494D02*
X35372Y26714D01*
X40920Y31467D02*
X41886Y32433D01*
X40837Y24466D02*
Y26714D01*
Y24466D02*
X40853Y24450D01*
X40837Y26714D02*
Y27445D01*
X35372Y26714D02*
X40837D01*
X40358Y31462D02*
Y31465D01*
X32059Y29283D02*
X35442Y25900D01*
X32059Y29283D02*
Y34327D01*
X39046Y29236D02*
Y30882D01*
X39119Y30955D01*
X39046Y29236D02*
X40837Y27445D01*
X30565Y22999D02*
X30655Y22909D01*
X35939D02*
X36085Y23056D01*
Y23326D01*
X30655Y22909D02*
X35939D01*
D18*
X31400Y23940D02*
D03*
D22*
X39161Y34588D02*
D03*
X38937Y34753D02*
D03*
X32397Y27086D02*
D03*
X41737Y35226D02*
D03*
X42573Y36093D02*
D03*
X42359Y35881D02*
D03*
X38232Y32952D02*
D03*
X37117Y32400D02*
D03*
X37175Y33289D02*
D03*
X37183Y33709D02*
D03*
X42216Y35212D02*
D03*
X35801Y24263D02*
D03*
X35686Y24414D02*
D03*
X35878Y24415D02*
D03*
X36512Y23488D02*
D03*
X36503Y23322D02*
D03*
X35913Y23512D02*
D03*
X35917Y23344D02*
D03*
X36388Y23144D02*
D03*
X36194Y23153D02*
D03*
X35998Y23155D02*
D03*
X42648Y34750D02*
D03*
X42394Y34767D02*
D03*
X42208Y35013D02*
D03*
X41737Y35024D02*
D03*
X44973Y33607D02*
D03*
X44971Y33449D02*
D03*
X44973Y33255D02*
D03*
X44977Y33059D02*
D03*
X46614Y28489D02*
D03*
Y28675D02*
D03*
X41073Y24081D02*
D03*
X40863Y24061D02*
D03*
X40556Y24343D02*
D03*
X40305Y23915D02*
D03*
Y24102D02*
D03*
X40085Y24298D02*
D03*
X39862Y24303D02*
D03*
X39633Y24302D02*
D03*
X40315Y24289D02*
D03*
X47986Y30545D02*
D03*
X45815Y30626D02*
D03*
X45378Y32541D02*
D03*
X46612Y28865D02*
D03*
X40920Y31467D02*
D03*
X42660Y32001D02*
D03*
X30022Y32462D02*
D03*
X32643Y31546D02*
D03*
X32632Y32173D02*
D03*
X32625Y33638D02*
D03*
D24*
X39077Y25896D02*
D03*
X30461Y25555D02*
D03*
X30093Y25549D02*
D03*
X30443Y25865D02*
D03*
X30101Y25867D02*
D03*
X30131Y26182D02*
D03*
X30447Y26174D02*
D03*
X35317Y26750D02*
D03*
X35125Y26975D02*
D03*
X34917Y27167D02*
D03*
X34696Y27352D02*
D03*
X41826Y25875D02*
D03*
X42457Y25880D02*
D03*
X42147Y25877D02*
D03*
X39978Y25890D02*
D03*
X39676Y25885D02*
D03*
X39374Y25895D02*
D03*
X41512Y25877D02*
D03*
D26*
X39139Y34848D02*
X39611D01*
X39876Y35113D01*
X39037Y34749D02*
X39040D01*
X39139Y34848D01*
X41512Y25877D02*
X42640D01*
X39876Y35113D02*
X41525D01*
X42640Y25877D02*
X46177Y29414D01*
D27*
X35494Y24696D02*
X35809Y24381D01*
X32397Y24696D02*
X35494D01*
X31769D02*
X32397D01*
X31394Y23935D02*
Y24321D01*
X31769Y24696D01*
D28*
X30292Y23272D02*
X30565Y22999D01*
X30292Y23272D02*
Y26128D01*
M02*
