G04*
G04 #@! TF.GenerationSoftware,Altium Limited,Altium Designer,20.0.13 (296)*
G04*
G04 Layer_Color=16711935*
%FSLAX24Y24*%
%MOIN*%
G70*
G01*
G75*
%ADD107C,0.0039*%
%ADD108C,0.0004*%
D107*
X32587Y30072D02*
G03*
X32587Y30072I-100J0D01*
G01*
X44962Y31884D02*
G03*
X44962Y31884I-197J0D01*
G01*
X42205Y23289D02*
G03*
X42205Y23289I-100J0D01*
G01*
X38035Y23349D02*
G03*
X38035Y23349I-100J0D01*
G01*
X31505Y29872D02*
X32687D01*
X31505Y30502D02*
X32687D01*
Y29872D02*
Y30502D01*
X31505Y29872D02*
Y30502D01*
X43081Y31575D02*
Y32993D01*
X45049Y31575D02*
Y32993D01*
X43081D02*
X45049D01*
X43081Y31575D02*
X45049D01*
X46556Y25759D02*
Y26941D01*
X46044Y25759D02*
Y26941D01*
X46556D01*
X46044Y25759D02*
X46556D01*
X42535Y23089D02*
Y24271D01*
X41905D02*
X42535D01*
X41905Y23089D02*
Y24271D01*
Y23089D02*
X42535D01*
X38365Y23149D02*
Y24331D01*
X37735D02*
X38365D01*
X37735Y23149D02*
Y24331D01*
Y23149D02*
X38365D01*
D108*
X29502Y31358D02*
X30132D01*
Y31673D01*
X29502D02*
X30132D01*
X29502Y31358D02*
Y31673D01*
X37105Y23419D02*
Y24049D01*
X36790D02*
X37105D01*
X36790Y23419D02*
Y24049D01*
Y23419D02*
X37105D01*
X42335Y34335D02*
Y34965D01*
Y34335D02*
X42650D01*
Y34965D01*
X42335D02*
X42650D01*
X41878Y32273D02*
X42193D01*
X41878D02*
Y32903D01*
X42193D01*
Y32273D02*
Y32903D01*
X39055Y23415D02*
Y24045D01*
Y23415D02*
X39370D01*
Y24045D01*
X39055D02*
X39370D01*
X40715Y23415D02*
Y24045D01*
X40400D02*
X40715D01*
X40400Y23415D02*
Y24045D01*
Y23415D02*
X40715D01*
X43245Y23345D02*
Y23975D01*
Y23345D02*
X43560D01*
Y23975D01*
X43245D02*
X43560D01*
M02*
