G04*
G04 #@! TF.GenerationSoftware,Altium Limited,Altium Designer,20.0.13 (296)*
G04*
G04 Layer_Color=65535*
%FSLAX24Y24*%
%MOIN*%
G70*
G01*
G75*
%ADD10C,0.0100*%
%ADD11C,0.0150*%
G36*
X45051Y32074D02*
X33848D01*
Y33775D01*
X45051D01*
Y32074D01*
D02*
G37*
G36*
X40933Y31387D02*
X40951Y31384D01*
X40974Y31380D01*
X40999Y31373D01*
X41024Y31365D01*
X41049Y31354D01*
X41050D01*
X41051Y31352D01*
X41060Y31348D01*
X41072Y31340D01*
X41086Y31330D01*
X41103Y31316D01*
X41119Y31301D01*
X41136Y31283D01*
X41150Y31262D01*
X41151Y31259D01*
X41155Y31252D01*
X41161Y31240D01*
X41168Y31225D01*
X41175Y31206D01*
X41180Y31186D01*
X41185Y31162D01*
X41186Y31138D01*
Y31136D01*
Y31127D01*
X41185Y31116D01*
X41182Y31101D01*
X41178Y31083D01*
X41171Y31064D01*
X41162Y31044D01*
X41151Y31025D01*
X41150Y31022D01*
X41146Y31016D01*
X41137Y31007D01*
X41126Y30996D01*
X41112Y30983D01*
X41096Y30969D01*
X41076Y30957D01*
X41053Y30944D01*
X41054D01*
X41057Y30943D01*
X41061Y30941D01*
X41067Y30940D01*
X41082Y30934D01*
X41101Y30926D01*
X41123Y30915D01*
X41146Y30901D01*
X41167Y30883D01*
X41186Y30862D01*
X41187Y30859D01*
X41193Y30851D01*
X41201Y30837D01*
X41210Y30819D01*
X41218Y30797D01*
X41226Y30771D01*
X41232Y30740D01*
X41233Y30707D01*
Y30705D01*
Y30701D01*
Y30694D01*
X41232Y30686D01*
X41230Y30675D01*
X41228Y30662D01*
X41225Y30649D01*
X41222Y30633D01*
X41211Y30600D01*
X41203Y30582D01*
X41194Y30565D01*
X41183Y30547D01*
X41171Y30529D01*
X41157Y30511D01*
X41140Y30494D01*
X41139Y30493D01*
X41136Y30490D01*
X41130Y30486D01*
X41123Y30481D01*
X41115Y30474D01*
X41104Y30467D01*
X41092Y30458D01*
X41076Y30451D01*
X41061Y30443D01*
X41043Y30435D01*
X41025Y30428D01*
X41004Y30421D01*
X40982Y30415D01*
X40958Y30411D01*
X40935Y30408D01*
X40908Y30407D01*
X40896D01*
X40888Y30408D01*
X40876Y30410D01*
X40864Y30411D01*
X40850Y30414D01*
X40835Y30417D01*
X40801Y30425D01*
X40767Y30439D01*
X40749Y30447D01*
X40732Y30457D01*
X40715Y30469D01*
X40699Y30482D01*
X40697Y30483D01*
X40695Y30486D01*
X40690Y30490D01*
X40686Y30496D01*
X40679Y30503D01*
X40672Y30512D01*
X40664Y30522D01*
X40656Y30535D01*
X40647Y30549D01*
X40639Y30562D01*
X40624Y30596D01*
X40611Y30635D01*
X40607Y30655D01*
X40604Y30678D01*
X40722Y30693D01*
Y30692D01*
X40724Y30689D01*
X40725Y30683D01*
X40727Y30676D01*
X40728Y30668D01*
X40731Y30658D01*
X40738Y30637D01*
X40747Y30612D01*
X40760Y30589D01*
X40774Y30567D01*
X40790Y30547D01*
X40793Y30546D01*
X40799Y30540D01*
X40810Y30533D01*
X40824Y30526D01*
X40840Y30518D01*
X40861Y30511D01*
X40885Y30506D01*
X40910Y30504D01*
X40918D01*
X40924Y30506D01*
X40939Y30507D01*
X40958Y30511D01*
X40981Y30518D01*
X41004Y30528D01*
X41028Y30542D01*
X41050Y30561D01*
X41053Y30564D01*
X41060Y30572D01*
X41068Y30585D01*
X41079Y30601D01*
X41090Y30622D01*
X41099Y30646D01*
X41105Y30673D01*
X41108Y30704D01*
Y30705D01*
Y30708D01*
Y30712D01*
X41107Y30718D01*
X41105Y30733D01*
X41101Y30751D01*
X41096Y30773D01*
X41086Y30796D01*
X41072Y30818D01*
X41054Y30839D01*
X41051Y30841D01*
X41044Y30847D01*
X41033Y30855D01*
X41018Y30865D01*
X40999Y30875D01*
X40975Y30883D01*
X40949Y30889D01*
X40919Y30891D01*
X40907D01*
X40897Y30890D01*
X40885Y30889D01*
X40871Y30886D01*
X40854Y30883D01*
X40836Y30879D01*
X40850Y30983D01*
X40857D01*
X40863Y30982D01*
X40881D01*
X40896Y30984D01*
X40914Y30987D01*
X40935Y30991D01*
X40958Y30998D01*
X40981Y31008D01*
X41004Y31021D01*
X41006D01*
X41007Y31022D01*
X41014Y31027D01*
X41024Y31037D01*
X41035Y31050D01*
X41046Y31068D01*
X41055Y31089D01*
X41062Y31112D01*
X41065Y31126D01*
Y31141D01*
Y31143D01*
Y31144D01*
Y31152D01*
X41062Y31163D01*
X41060Y31179D01*
X41054Y31195D01*
X41047Y31213D01*
X41036Y31231D01*
X41021Y31248D01*
X41019Y31250D01*
X41012Y31255D01*
X41003Y31262D01*
X40990Y31270D01*
X40974Y31277D01*
X40954Y31284D01*
X40932Y31290D01*
X40907Y31291D01*
X40896D01*
X40883Y31288D01*
X40867Y31286D01*
X40849Y31280D01*
X40831Y31273D01*
X40811Y31262D01*
X40793Y31248D01*
X40792Y31247D01*
X40786Y31240D01*
X40778Y31230D01*
X40768Y31216D01*
X40758Y31198D01*
X40749Y31176D01*
X40740Y31150D01*
X40735Y31119D01*
X40617Y31140D01*
Y31141D01*
X40618Y31145D01*
X40620Y31151D01*
X40621Y31159D01*
X40624Y31169D01*
X40628Y31180D01*
X40636Y31206D01*
X40650Y31237D01*
X40667Y31268D01*
X40688Y31297D01*
X40714Y31323D01*
X40715Y31324D01*
X40718Y31326D01*
X40722Y31329D01*
X40728Y31333D01*
X40735Y31338D01*
X40745Y31344D01*
X40754Y31349D01*
X40767Y31356D01*
X40795Y31367D01*
X40826Y31379D01*
X40864Y31386D01*
X40883Y31388D01*
X40918D01*
X40933Y31387D01*
D02*
G37*
G36*
X40300Y30424D02*
X40182D01*
Y31175D01*
X40181Y31173D01*
X40174Y31168D01*
X40166Y31159D01*
X40152Y31150D01*
X40137Y31137D01*
X40117Y31123D01*
X40095Y31108D01*
X40070Y31093D01*
X40069D01*
X40067Y31091D01*
X40059Y31086D01*
X40045Y31079D01*
X40028Y31070D01*
X40009Y31061D01*
X39988Y31051D01*
X39967Y31041D01*
X39946Y31033D01*
Y31147D01*
X39948D01*
X39951Y31150D01*
X39956Y31151D01*
X39963Y31155D01*
X39971Y31159D01*
X39981Y31165D01*
X40005Y31179D01*
X40033Y31194D01*
X40060Y31213D01*
X40089Y31236D01*
X40119Y31259D01*
X40120Y31261D01*
X40121Y31262D01*
X40126Y31266D01*
X40131Y31270D01*
X40144Y31284D01*
X40160Y31301D01*
X40177Y31320D01*
X40195Y31343D01*
X40210Y31365D01*
X40224Y31388D01*
X40300D01*
Y30424D01*
D02*
G37*
G36*
X38434D02*
X38316D01*
Y31175D01*
X38314Y31173D01*
X38307Y31168D01*
X38299Y31159D01*
X38285Y31150D01*
X38270Y31137D01*
X38250Y31123D01*
X38228Y31108D01*
X38203Y31093D01*
X38202D01*
X38200Y31091D01*
X38192Y31086D01*
X38178Y31079D01*
X38161Y31070D01*
X38142Y31061D01*
X38121Y31051D01*
X38100Y31041D01*
X38080Y31033D01*
Y31147D01*
X38081D01*
X38084Y31150D01*
X38089Y31151D01*
X38096Y31155D01*
X38105Y31159D01*
X38114Y31165D01*
X38138Y31179D01*
X38166Y31194D01*
X38193Y31213D01*
X38223Y31236D01*
X38252Y31259D01*
X38253Y31261D01*
X38254Y31262D01*
X38259Y31266D01*
X38264Y31270D01*
X38277Y31284D01*
X38293Y31301D01*
X38310Y31320D01*
X38328Y31343D01*
X38343Y31365D01*
X38357Y31388D01*
X38434D01*
Y30424D01*
D02*
G37*
G36*
X37365Y30762D02*
X37495Y30762D01*
Y30654D01*
X37365Y30654D01*
Y30424D01*
X37247D01*
Y30654D01*
X36829D01*
Y30762D01*
X37269Y31384D01*
X37365D01*
Y30762D01*
D02*
G37*
G36*
X36464Y31387D02*
X36475Y31386D01*
X36489Y31384D01*
X36504Y31381D01*
X36519Y31379D01*
X36556Y31369D01*
X36592Y31355D01*
X36610Y31347D01*
X36628Y31337D01*
X36644Y31324D01*
X36660Y31311D01*
X36661Y31309D01*
X36664Y31308D01*
X36667Y31302D01*
X36672Y31297D01*
X36679Y31290D01*
X36686Y31280D01*
X36693Y31270D01*
X36701Y31258D01*
X36715Y31231D01*
X36729Y31198D01*
X36735Y31181D01*
X36737Y31162D01*
X36740Y31143D01*
X36742Y31122D01*
Y31119D01*
Y31112D01*
X36740Y31101D01*
X36739Y31086D01*
X36736Y31069D01*
X36730Y31050D01*
X36725Y31029D01*
X36717Y31008D01*
X36715Y31005D01*
X36712Y30998D01*
X36707Y30987D01*
X36699Y30972D01*
X36687Y30955D01*
X36674Y30934D01*
X36657Y30914D01*
X36637Y30890D01*
X36635Y30887D01*
X36628Y30879D01*
X36621Y30872D01*
X36614Y30865D01*
X36606Y30857D01*
X36594Y30846D01*
X36583Y30835D01*
X36569Y30822D01*
X36556Y30808D01*
X36539Y30793D01*
X36521Y30778D01*
X36501Y30760D01*
X36479Y30742D01*
X36457Y30722D01*
X36456Y30721D01*
X36453Y30718D01*
X36447Y30714D01*
X36440Y30708D01*
X36432Y30700D01*
X36422Y30692D01*
X36400Y30673D01*
X36377Y30653D01*
X36354Y30632D01*
X36335Y30614D01*
X36327Y30607D01*
X36320Y30600D01*
X36318Y30599D01*
X36314Y30594D01*
X36309Y30589D01*
X36302Y30580D01*
X36295Y30571D01*
X36286Y30561D01*
X36270Y30537D01*
X36743D01*
Y30424D01*
X36106D01*
Y30425D01*
Y30431D01*
Y30439D01*
X36107Y30450D01*
X36109Y30463D01*
X36111Y30476D01*
X36114Y30490D01*
X36120Y30506D01*
Y30507D01*
X36121Y30508D01*
X36124Y30517D01*
X36129Y30529D01*
X36138Y30546D01*
X36149Y30565D01*
X36163Y30587D01*
X36178Y30610D01*
X36197Y30633D01*
Y30635D01*
X36200Y30636D01*
X36207Y30644D01*
X36220Y30657D01*
X36238Y30675D01*
X36259Y30696D01*
X36285Y30721D01*
X36317Y30748D01*
X36352Y30778D01*
X36353Y30779D01*
X36358Y30783D01*
X36367Y30790D01*
X36377Y30798D01*
X36389Y30810D01*
X36404Y30822D01*
X36420Y30836D01*
X36438Y30851D01*
X36472Y30884D01*
X36507Y30918D01*
X36524Y30934D01*
X36539Y30951D01*
X36553Y30966D01*
X36564Y30982D01*
Y30983D01*
X36567Y30984D01*
X36569Y30989D01*
X36572Y30994D01*
X36582Y31009D01*
X36593Y31027D01*
X36603Y31050D01*
X36613Y31073D01*
X36618Y31100D01*
X36621Y31125D01*
Y31126D01*
Y31127D01*
X36619Y31136D01*
X36618Y31150D01*
X36614Y31165D01*
X36608Y31184D01*
X36599Y31204D01*
X36586Y31223D01*
X36569Y31243D01*
X36567Y31245D01*
X36560Y31251D01*
X36550Y31258D01*
X36535Y31268D01*
X36515Y31276D01*
X36493Y31284D01*
X36467Y31290D01*
X36438Y31291D01*
X36429D01*
X36424Y31290D01*
X36407Y31288D01*
X36388Y31284D01*
X36367Y31279D01*
X36343Y31269D01*
X36321Y31256D01*
X36300Y31240D01*
X36297Y31237D01*
X36292Y31230D01*
X36284Y31219D01*
X36275Y31202D01*
X36265Y31183D01*
X36257Y31158D01*
X36252Y31130D01*
X36249Y31098D01*
X36128Y31111D01*
Y31112D01*
X36129Y31116D01*
Y31123D01*
X36131Y31133D01*
X36134Y31144D01*
X36136Y31157D01*
X36141Y31172D01*
X36145Y31187D01*
X36156Y31220D01*
X36172Y31254D01*
X36182Y31270D01*
X36195Y31287D01*
X36207Y31302D01*
X36221Y31316D01*
X36222Y31318D01*
X36225Y31319D01*
X36229Y31323D01*
X36236Y31327D01*
X36245Y31333D01*
X36254Y31338D01*
X36265Y31345D01*
X36279Y31352D01*
X36295Y31359D01*
X36311Y31366D01*
X36329Y31372D01*
X36349Y31377D01*
X36370Y31381D01*
X36392Y31386D01*
X36415Y31387D01*
X36440Y31388D01*
X36454D01*
X36464Y31387D01*
D02*
G37*
G36*
X34970D02*
X34982Y31386D01*
X34995Y31384D01*
X35011Y31381D01*
X35026Y31379D01*
X35062Y31369D01*
X35098Y31355D01*
X35116Y31347D01*
X35134Y31337D01*
X35151Y31324D01*
X35166Y31311D01*
X35168Y31309D01*
X35170Y31308D01*
X35173Y31302D01*
X35179Y31297D01*
X35186Y31290D01*
X35193Y31280D01*
X35200Y31270D01*
X35208Y31258D01*
X35222Y31231D01*
X35236Y31198D01*
X35241Y31181D01*
X35244Y31162D01*
X35247Y31143D01*
X35248Y31122D01*
Y31119D01*
Y31112D01*
X35247Y31101D01*
X35245Y31086D01*
X35243Y31069D01*
X35237Y31050D01*
X35231Y31029D01*
X35223Y31008D01*
X35222Y31005D01*
X35219Y30998D01*
X35213Y30987D01*
X35205Y30972D01*
X35194Y30955D01*
X35180Y30934D01*
X35163Y30914D01*
X35144Y30890D01*
X35141Y30887D01*
X35134Y30879D01*
X35127Y30872D01*
X35120Y30865D01*
X35112Y30857D01*
X35101Y30846D01*
X35090Y30835D01*
X35076Y30822D01*
X35062Y30808D01*
X35045Y30793D01*
X35027Y30778D01*
X35008Y30760D01*
X34986Y30742D01*
X34964Y30722D01*
X34962Y30721D01*
X34959Y30718D01*
X34954Y30714D01*
X34947Y30708D01*
X34939Y30700D01*
X34929Y30692D01*
X34907Y30673D01*
X34883Y30653D01*
X34861Y30632D01*
X34841Y30614D01*
X34833Y30607D01*
X34826Y30600D01*
X34825Y30599D01*
X34821Y30594D01*
X34815Y30589D01*
X34808Y30580D01*
X34801Y30571D01*
X34793Y30561D01*
X34776Y30537D01*
X35249D01*
Y30424D01*
X34612D01*
Y30425D01*
Y30431D01*
Y30439D01*
X34614Y30450D01*
X34615Y30463D01*
X34618Y30476D01*
X34621Y30490D01*
X34626Y30506D01*
Y30507D01*
X34628Y30508D01*
X34630Y30517D01*
X34636Y30529D01*
X34644Y30546D01*
X34655Y30565D01*
X34669Y30587D01*
X34685Y30610D01*
X34704Y30633D01*
Y30635D01*
X34707Y30636D01*
X34714Y30644D01*
X34726Y30657D01*
X34744Y30675D01*
X34765Y30696D01*
X34791Y30721D01*
X34823Y30748D01*
X34858Y30778D01*
X34859Y30779D01*
X34865Y30783D01*
X34873Y30790D01*
X34883Y30798D01*
X34896Y30810D01*
X34911Y30822D01*
X34926Y30836D01*
X34944Y30851D01*
X34979Y30884D01*
X35014Y30918D01*
X35030Y30934D01*
X35045Y30951D01*
X35059Y30966D01*
X35070Y30982D01*
Y30983D01*
X35073Y30984D01*
X35076Y30989D01*
X35079Y30994D01*
X35088Y31009D01*
X35100Y31027D01*
X35109Y31050D01*
X35119Y31073D01*
X35125Y31100D01*
X35127Y31125D01*
Y31126D01*
Y31127D01*
X35126Y31136D01*
X35125Y31150D01*
X35120Y31165D01*
X35115Y31184D01*
X35105Y31204D01*
X35093Y31223D01*
X35076Y31243D01*
X35073Y31245D01*
X35066Y31251D01*
X35057Y31258D01*
X35041Y31268D01*
X35022Y31276D01*
X35000Y31284D01*
X34973Y31290D01*
X34944Y31291D01*
X34936D01*
X34930Y31290D01*
X34914Y31288D01*
X34894Y31284D01*
X34873Y31279D01*
X34850Y31269D01*
X34828Y31256D01*
X34807Y31240D01*
X34804Y31237D01*
X34798Y31230D01*
X34790Y31219D01*
X34782Y31202D01*
X34772Y31183D01*
X34764Y31158D01*
X34758Y31130D01*
X34755Y31098D01*
X34635Y31111D01*
Y31112D01*
X34636Y31116D01*
Y31123D01*
X34637Y31133D01*
X34640Y31144D01*
X34643Y31157D01*
X34647Y31172D01*
X34651Y31187D01*
X34662Y31220D01*
X34679Y31254D01*
X34689Y31270D01*
X34701Y31287D01*
X34714Y31302D01*
X34728Y31316D01*
X34729Y31318D01*
X34732Y31319D01*
X34736Y31323D01*
X34743Y31327D01*
X34751Y31333D01*
X34761Y31338D01*
X34772Y31345D01*
X34786Y31352D01*
X34801Y31359D01*
X34818Y31366D01*
X34836Y31372D01*
X34855Y31377D01*
X34876Y31381D01*
X34898Y31386D01*
X34922Y31387D01*
X34947Y31388D01*
X34961D01*
X34970Y31387D01*
D02*
G37*
G36*
X39522Y30407D02*
X39427D01*
X39706Y31401D01*
X39801D01*
X39522Y30407D01*
D02*
G37*
G36*
X39078Y31387D02*
X39096Y31384D01*
X39116Y31380D01*
X39139Y31374D01*
X39162Y31367D01*
X39184Y31356D01*
X39186D01*
X39187Y31355D01*
X39194Y31351D01*
X39205Y31344D01*
X39219Y31334D01*
X39234Y31320D01*
X39251Y31305D01*
X39266Y31287D01*
X39282Y31266D01*
X39283Y31263D01*
X39289Y31256D01*
X39294Y31244D01*
X39304Y31226D01*
X39312Y31205D01*
X39323Y31182D01*
X39333Y31154D01*
X39341Y31123D01*
Y31122D01*
X39343Y31119D01*
X39344Y31115D01*
X39345Y31108D01*
X39347Y31100D01*
X39348Y31090D01*
X39351Y31077D01*
X39352Y31064D01*
X39355Y31048D01*
X39357Y31032D01*
X39358Y31012D01*
X39361Y30993D01*
X39362Y30971D01*
Y30948D01*
X39364Y30923D01*
Y30897D01*
Y30896D01*
Y30890D01*
Y30880D01*
Y30869D01*
X39362Y30854D01*
Y30837D01*
X39361Y30819D01*
X39359Y30800D01*
X39355Y30755D01*
X39348Y30710D01*
X39340Y30665D01*
X39334Y30644D01*
X39327Y30624D01*
Y30622D01*
X39326Y30619D01*
X39323Y30614D01*
X39320Y30607D01*
X39318Y30597D01*
X39312Y30587D01*
X39301Y30564D01*
X39287Y30539D01*
X39269Y30511D01*
X39248Y30486D01*
X39223Y30463D01*
X39222D01*
X39221Y30460D01*
X39216Y30457D01*
X39211Y30454D01*
X39204Y30450D01*
X39197Y30444D01*
X39176Y30435D01*
X39151Y30425D01*
X39122Y30415D01*
X39087Y30410D01*
X39050Y30407D01*
X39036D01*
X39026Y30408D01*
X39015Y30410D01*
X39001Y30413D01*
X38986Y30415D01*
X38969Y30419D01*
X38953Y30425D01*
X38935Y30431D01*
X38917Y30439D01*
X38899Y30449D01*
X38880Y30460D01*
X38862Y30474D01*
X38846Y30489D01*
X38831Y30506D01*
X38829Y30507D01*
X38826Y30511D01*
X38822Y30518D01*
X38815Y30529D01*
X38808Y30542D01*
X38801Y30558D01*
X38792Y30578D01*
X38783Y30600D01*
X38775Y30625D01*
X38767Y30654D01*
X38758Y30686D01*
X38751Y30722D01*
X38744Y30761D01*
X38740Y30803D01*
X38738Y30848D01*
X38736Y30897D01*
Y30898D01*
Y30904D01*
Y30914D01*
Y30925D01*
X38738Y30940D01*
Y30957D01*
X38739Y30975D01*
X38740Y30996D01*
X38744Y31039D01*
X38751Y31084D01*
X38760Y31130D01*
X38765Y31151D01*
X38771Y31172D01*
Y31173D01*
X38772Y31176D01*
X38775Y31182D01*
X38778Y31188D01*
X38781Y31198D01*
X38786Y31208D01*
X38797Y31231D01*
X38811Y31256D01*
X38829Y31283D01*
X38850Y31309D01*
X38875Y31331D01*
X38876D01*
X38878Y31334D01*
X38882Y31337D01*
X38887Y31340D01*
X38894Y31345D01*
X38903Y31349D01*
X38924Y31361D01*
X38949Y31370D01*
X38978Y31380D01*
X39012Y31386D01*
X39050Y31388D01*
X39062D01*
X39078Y31387D01*
D02*
G37*
G36*
X37655Y30407D02*
X37561D01*
X37839Y31401D01*
X37934D01*
X37655Y30407D01*
D02*
G37*
G36*
X35717Y31387D02*
X35735Y31384D01*
X35756Y31380D01*
X35778Y31374D01*
X35802Y31367D01*
X35824Y31356D01*
X35826D01*
X35827Y31355D01*
X35834Y31351D01*
X35845Y31344D01*
X35859Y31334D01*
X35874Y31320D01*
X35891Y31305D01*
X35906Y31287D01*
X35921Y31266D01*
X35923Y31263D01*
X35928Y31256D01*
X35934Y31244D01*
X35943Y31226D01*
X35952Y31205D01*
X35963Y31181D01*
X35973Y31154D01*
X35981Y31123D01*
Y31122D01*
X35982Y31119D01*
X35984Y31115D01*
X35985Y31108D01*
X35987Y31100D01*
X35988Y31090D01*
X35991Y31077D01*
X35992Y31064D01*
X35995Y31048D01*
X35996Y31032D01*
X35998Y31012D01*
X36000Y30993D01*
X36002Y30971D01*
Y30948D01*
X36003Y30923D01*
Y30897D01*
Y30896D01*
Y30890D01*
Y30880D01*
Y30869D01*
X36002Y30854D01*
Y30837D01*
X36000Y30819D01*
X35999Y30800D01*
X35995Y30755D01*
X35988Y30710D01*
X35980Y30665D01*
X35974Y30644D01*
X35967Y30624D01*
Y30622D01*
X35966Y30619D01*
X35963Y30614D01*
X35960Y30607D01*
X35957Y30597D01*
X35952Y30587D01*
X35941Y30564D01*
X35927Y30539D01*
X35909Y30511D01*
X35888Y30486D01*
X35863Y30463D01*
X35862D01*
X35860Y30460D01*
X35856Y30457D01*
X35850Y30454D01*
X35844Y30450D01*
X35837Y30444D01*
X35816Y30435D01*
X35791Y30425D01*
X35762Y30415D01*
X35727Y30410D01*
X35689Y30407D01*
X35676D01*
X35666Y30408D01*
X35655Y30410D01*
X35641Y30413D01*
X35626Y30415D01*
X35609Y30419D01*
X35592Y30425D01*
X35574Y30431D01*
X35556Y30439D01*
X35538Y30449D01*
X35520Y30460D01*
X35502Y30474D01*
X35485Y30489D01*
X35470Y30506D01*
X35469Y30507D01*
X35466Y30511D01*
X35462Y30518D01*
X35455Y30529D01*
X35448Y30542D01*
X35441Y30558D01*
X35431Y30578D01*
X35423Y30600D01*
X35415Y30625D01*
X35406Y30654D01*
X35398Y30686D01*
X35391Y30722D01*
X35384Y30761D01*
X35380Y30803D01*
X35377Y30848D01*
X35376Y30897D01*
Y30898D01*
Y30904D01*
Y30914D01*
Y30925D01*
X35377Y30940D01*
Y30957D01*
X35379Y30975D01*
X35380Y30996D01*
X35384Y31039D01*
X35391Y31084D01*
X35399Y31130D01*
X35405Y31151D01*
X35410Y31172D01*
Y31173D01*
X35412Y31176D01*
X35415Y31181D01*
X35417Y31188D01*
X35420Y31198D01*
X35426Y31208D01*
X35437Y31231D01*
X35451Y31256D01*
X35469Y31283D01*
X35490Y31309D01*
X35515Y31331D01*
X35516D01*
X35517Y31334D01*
X35522Y31337D01*
X35527Y31340D01*
X35534Y31345D01*
X35542Y31349D01*
X35563Y31361D01*
X35588Y31370D01*
X35617Y31380D01*
X35652Y31386D01*
X35689Y31388D01*
X35702D01*
X35717Y31387D01*
D02*
G37*
G36*
X41129Y27508D02*
X40941D01*
X40978Y27678D01*
X41164D01*
X41129Y27508D01*
D02*
G37*
G36*
X36279Y27508D02*
X36092D01*
X36128Y27678D01*
X36314D01*
X36279Y27508D01*
D02*
G37*
G36*
X38830Y27694D02*
X38844Y27693D01*
X38861Y27691D01*
X38879Y27689D01*
X38898Y27686D01*
X38941Y27676D01*
X38964Y27669D01*
X38984Y27662D01*
X39007Y27653D01*
X39027Y27641D01*
X39047Y27629D01*
X39065Y27615D01*
X39066Y27614D01*
X39069Y27611D01*
X39073Y27607D01*
X39080Y27601D01*
X39087Y27593D01*
X39095Y27583D01*
X39104Y27572D01*
X39112Y27560D01*
X39122Y27544D01*
X39132Y27529D01*
X39140Y27511D01*
X39148Y27493D01*
X39155Y27472D01*
X39161Y27451D01*
X39165Y27428D01*
X39168Y27404D01*
X38979Y27396D01*
Y27397D01*
Y27399D01*
X38977Y27407D01*
X38973Y27419D01*
X38969Y27435D01*
X38962Y27451D01*
X38954Y27469D01*
X38943Y27486D01*
X38927Y27501D01*
X38926Y27503D01*
X38919Y27507D01*
X38909Y27514D01*
X38896Y27521D01*
X38879Y27526D01*
X38857Y27533D01*
X38830Y27537D01*
X38801Y27539D01*
X38787D01*
X38773Y27537D01*
X38755Y27535D01*
X38737Y27532D01*
X38718Y27526D01*
X38700Y27519D01*
X38685Y27510D01*
X38683Y27508D01*
X38679Y27504D01*
X38673Y27498D01*
X38668Y27490D01*
X38661Y27479D01*
X38655Y27467D01*
X38651Y27451D01*
X38650Y27436D01*
Y27435D01*
Y27429D01*
X38651Y27422D01*
X38654Y27412D01*
X38658Y27401D01*
X38664Y27390D01*
X38671Y27379D01*
X38682Y27368D01*
X38683Y27367D01*
X38689Y27362D01*
X38697Y27357D01*
X38711Y27349D01*
X38721Y27343D01*
X38730Y27337D01*
X38742Y27331D01*
X38755Y27324D01*
X38769Y27317D01*
X38786Y27308D01*
X38804Y27300D01*
X38823Y27292D01*
X38825Y27290D01*
X38830Y27289D01*
X38839Y27285D01*
X38850Y27281D01*
X38864Y27274D01*
X38879Y27267D01*
X38912Y27250D01*
X38948Y27232D01*
X38983Y27213D01*
X39000Y27203D01*
X39014Y27193D01*
X39026Y27183D01*
X39036Y27175D01*
X39037Y27174D01*
X39039Y27172D01*
X39043Y27168D01*
X39047Y27164D01*
X39058Y27149D01*
X39070Y27129D01*
X39083Y27106D01*
X39093Y27077D01*
X39101Y27043D01*
X39102Y27027D01*
X39104Y27007D01*
Y27006D01*
Y27002D01*
Y26995D01*
X39102Y26986D01*
X39101Y26975D01*
X39098Y26961D01*
X39095Y26947D01*
X39091Y26932D01*
X39086Y26916D01*
X39079Y26897D01*
X39070Y26879D01*
X39061Y26861D01*
X39050Y26843D01*
X39036Y26824D01*
X39020Y26807D01*
X39002Y26789D01*
X39001Y26788D01*
X38998Y26785D01*
X38991Y26781D01*
X38984Y26775D01*
X38973Y26768D01*
X38961Y26760D01*
X38947Y26753D01*
X38929Y26745D01*
X38911Y26735D01*
X38890Y26728D01*
X38866Y26720D01*
X38841Y26713D01*
X38815Y26707D01*
X38786Y26703D01*
X38755Y26700D01*
X38722Y26699D01*
X38701D01*
X38690Y26700D01*
X38678Y26702D01*
X38664D01*
X38649Y26705D01*
X38615Y26709D01*
X38579Y26716D01*
X38542Y26725D01*
X38507Y26739D01*
X38506D01*
X38503Y26741D01*
X38499Y26743D01*
X38492Y26748D01*
X38476Y26756D01*
X38457Y26770D01*
X38436Y26785D01*
X38415Y26806D01*
X38396Y26828D01*
X38379Y26854D01*
Y26856D01*
X38378Y26857D01*
X38376Y26861D01*
X38374Y26868D01*
X38371Y26875D01*
X38368Y26884D01*
X38361Y26904D01*
X38354Y26929D01*
X38349Y26959D01*
X38346Y26990D01*
X38345Y27025D01*
X38533Y27036D01*
Y27035D01*
Y27032D01*
Y27028D01*
X38535Y27022D01*
X38536Y27006D01*
X38539Y26988D01*
X38542Y26967D01*
X38547Y26946D01*
X38554Y26928D01*
X38564Y26914D01*
X38567Y26911D01*
X38572Y26906D01*
X38583Y26899D01*
X38600Y26889D01*
X38610Y26885D01*
X38622Y26879D01*
X38635Y26875D01*
X38650Y26872D01*
X38665Y26868D01*
X38683Y26867D01*
X38703Y26864D01*
X38739D01*
X38747Y26866D01*
X38757D01*
X38778Y26868D01*
X38800Y26872D01*
X38823Y26879D01*
X38846Y26888D01*
X38864Y26899D01*
X38865Y26900D01*
X38871Y26904D01*
X38878Y26913D01*
X38886Y26922D01*
X38894Y26935D01*
X38901Y26949D01*
X38907Y26964D01*
X38908Y26982D01*
Y26984D01*
Y26989D01*
X38907Y26997D01*
X38904Y27007D01*
X38900Y27018D01*
X38893Y27031D01*
X38884Y27043D01*
X38872Y27054D01*
X38871Y27056D01*
X38866Y27058D01*
X38858Y27064D01*
X38846Y27071D01*
X38837Y27077D01*
X38828Y27082D01*
X38816Y27088D01*
X38804Y27093D01*
X38789Y27100D01*
X38773Y27108D01*
X38754Y27117D01*
X38735Y27125D01*
X38733D01*
X38729Y27128D01*
X38723Y27129D01*
X38717Y27133D01*
X38707Y27138D01*
X38696Y27142D01*
X38672Y27153D01*
X38646Y27167D01*
X38618Y27179D01*
X38593Y27193D01*
X38580Y27200D01*
X38571Y27206D01*
X38568Y27207D01*
X38562Y27211D01*
X38553Y27220D01*
X38542Y27229D01*
X38529Y27240D01*
X38515Y27256D01*
X38503Y27272D01*
X38490Y27290D01*
X38489Y27293D01*
X38486Y27300D01*
X38481Y27311D01*
X38476Y27325D01*
X38471Y27343D01*
X38465Y27364D01*
X38463Y27387D01*
X38461Y27412D01*
Y27414D01*
Y27418D01*
Y27425D01*
X38463Y27433D01*
X38464Y27443D01*
X38465Y27455D01*
X38468Y27469D01*
X38472Y27483D01*
X38482Y27515D01*
X38490Y27532D01*
X38499Y27550D01*
X38508Y27566D01*
X38519Y27583D01*
X38533Y27600D01*
X38549Y27615D01*
X38550Y27616D01*
X38553Y27619D01*
X38558Y27622D01*
X38565Y27628D01*
X38574Y27633D01*
X38585Y27640D01*
X38599Y27648D01*
X38614Y27655D01*
X38630Y27662D01*
X38649Y27671D01*
X38669Y27678D01*
X38693Y27683D01*
X38718Y27689D01*
X38744Y27693D01*
X38772Y27694D01*
X38803Y27696D01*
X38819D01*
X38830Y27694D01*
D02*
G37*
G36*
X35191Y27694D02*
X35203Y27693D01*
X35219Y27691D01*
X35237Y27689D01*
X35255Y27684D01*
X35295Y27675D01*
X35316Y27668D01*
X35337Y27659D01*
X35359Y27650D01*
X35378Y27639D01*
X35399Y27626D01*
X35417Y27611D01*
X35419Y27610D01*
X35421Y27607D01*
X35426Y27603D01*
X35433Y27596D01*
X35439Y27587D01*
X35449Y27578D01*
X35457Y27565D01*
X35467Y27551D01*
X35477Y27536D01*
X35487Y27519D01*
X35496Y27500D01*
X35506Y27480D01*
X35514Y27458D01*
X35521Y27435D01*
X35527Y27410D01*
X35531Y27383D01*
X35342Y27365D01*
Y27367D01*
X35341Y27369D01*
Y27374D01*
X35340Y27379D01*
X35335Y27393D01*
X35328Y27411D01*
X35320Y27432D01*
X35309Y27451D01*
X35296Y27471D01*
X35281Y27486D01*
X35280Y27487D01*
X35273Y27492D01*
X35263Y27498D01*
X35249Y27505D01*
X35233Y27512D01*
X35212Y27519D01*
X35188Y27523D01*
X35162Y27525D01*
X35154D01*
X35148Y27523D01*
X35133Y27522D01*
X35112Y27518D01*
X35088Y27512D01*
X35063Y27503D01*
X35036Y27490D01*
X35009Y27473D01*
X35008D01*
X35006Y27471D01*
X34998Y27464D01*
X34984Y27453D01*
X34969Y27435D01*
X34951Y27414D01*
X34931Y27386D01*
X34912Y27354D01*
X34895Y27317D01*
Y27315D01*
X34894Y27313D01*
X34891Y27307D01*
X34888Y27299D01*
X34886Y27289D01*
X34883Y27278D01*
X34879Y27265D01*
X34875Y27251D01*
X34868Y27220D01*
X34861Y27183D01*
X34855Y27145D01*
X34854Y27106D01*
Y27104D01*
Y27100D01*
Y27095D01*
X34855Y27086D01*
Y27077D01*
X34856Y27065D01*
X34861Y27040D01*
X34868Y27011D01*
X34876Y26982D01*
X34890Y26953D01*
X34908Y26927D01*
X34911Y26924D01*
X34918Y26917D01*
X34930Y26907D01*
X34945Y26896D01*
X34966Y26884D01*
X34990Y26874D01*
X35016Y26867D01*
X35030Y26866D01*
X35045Y26864D01*
X35052D01*
X35058Y26866D01*
X35073Y26867D01*
X35091Y26870D01*
X35113Y26877D01*
X35137Y26885D01*
X35160Y26896D01*
X35185Y26913D01*
X35187D01*
X35188Y26916D01*
X35197Y26922D01*
X35208Y26934D01*
X35222Y26950D01*
X35237Y26971D01*
X35253Y26996D01*
X35267Y27027D01*
X35281Y27061D01*
X35481Y27031D01*
Y27029D01*
X35478Y27024D01*
X35476Y27015D01*
X35470Y27004D01*
X35463Y26990D01*
X35456Y26975D01*
X35448Y26957D01*
X35437Y26939D01*
X35412Y26899D01*
X35381Y26859D01*
X35346Y26818D01*
X35326Y26800D01*
X35305Y26784D01*
X35303Y26782D01*
X35299Y26779D01*
X35294Y26775D01*
X35284Y26771D01*
X35273Y26764D01*
X35260Y26757D01*
X35244Y26749D01*
X35227Y26742D01*
X35208Y26734D01*
X35187Y26725D01*
X35165Y26718D01*
X35141Y26713D01*
X35116Y26707D01*
X35090Y26703D01*
X35062Y26700D01*
X35033Y26699D01*
X35024D01*
X35016Y26700D01*
X35004D01*
X34988Y26702D01*
X34972Y26705D01*
X34952Y26707D01*
X34933Y26713D01*
X34911Y26718D01*
X34888Y26725D01*
X34865Y26734D01*
X34843Y26743D01*
X34819Y26756D01*
X34797Y26770D01*
X34776Y26786D01*
X34757Y26804D01*
X34755Y26806D01*
X34752Y26810D01*
X34747Y26816D01*
X34741Y26824D01*
X34734Y26835D01*
X34726Y26849D01*
X34716Y26866D01*
X34708Y26884D01*
X34698Y26904D01*
X34689Y26927D01*
X34680Y26953D01*
X34673Y26981D01*
X34668Y27010D01*
X34662Y27043D01*
X34659Y27077D01*
X34658Y27114D01*
Y27115D01*
Y27121D01*
Y27131D01*
X34659Y27142D01*
Y27156D01*
X34662Y27174D01*
X34664Y27192D01*
X34666Y27213D01*
X34669Y27235D01*
X34675Y27260D01*
X34686Y27310D01*
X34702Y27362D01*
X34712Y27387D01*
X34723Y27414D01*
X34725Y27415D01*
X34726Y27419D01*
X34730Y27426D01*
X34736Y27436D01*
X34743Y27447D01*
X34751Y27461D01*
X34761Y27475D01*
X34772Y27492D01*
X34798Y27525D01*
X34829Y27560D01*
X34866Y27593D01*
X34887Y27608D01*
X34908Y27622D01*
X34909Y27623D01*
X34913Y27625D01*
X34920Y27629D01*
X34929Y27633D01*
X34940Y27639D01*
X34952Y27646D01*
X34968Y27653D01*
X34984Y27659D01*
X35002Y27665D01*
X35023Y27672D01*
X35066Y27684D01*
X35113Y27693D01*
X35138Y27694D01*
X35165Y27696D01*
X35180D01*
X35191Y27694D01*
D02*
G37*
G36*
X39780Y27428D02*
X39796Y27426D01*
X39816Y27424D01*
X39838Y27417D01*
X39860Y27408D01*
X39882Y27396D01*
X39903Y27379D01*
X39906Y27376D01*
X39912Y27371D01*
X39919Y27360D01*
X39928Y27344D01*
X39938Y27325D01*
X39945Y27303D01*
X39950Y27278D01*
X39953Y27249D01*
Y27247D01*
Y27242D01*
X39952Y27232D01*
X39949Y27217D01*
X39946Y27199D01*
X39942Y27174D01*
X39939Y27160D01*
X39937Y27145D01*
X39932Y27128D01*
X39928Y27110D01*
X39844Y26717D01*
X39658D01*
X39742Y27111D01*
Y27113D01*
X39744Y27115D01*
Y27120D01*
X39745Y27125D01*
X39748Y27140D01*
X39752Y27157D01*
X39755Y27175D01*
X39758Y27193D01*
X39760Y27207D01*
X39762Y27213D01*
Y27217D01*
Y27218D01*
Y27222D01*
X39760Y27229D01*
X39759Y27238D01*
X39756Y27246D01*
X39752Y27256D01*
X39746Y27265D01*
X39739Y27274D01*
X39738Y27275D01*
X39735Y27276D01*
X39731Y27281D01*
X39724Y27285D01*
X39716Y27288D01*
X39706Y27292D01*
X39694Y27293D01*
X39680Y27294D01*
X39673D01*
X39665Y27293D01*
X39652Y27290D01*
X39638Y27286D01*
X39623Y27279D01*
X39606Y27271D01*
X39587Y27260D01*
X39584Y27258D01*
X39578Y27253D01*
X39569Y27246D01*
X39558Y27235D01*
X39545Y27222D01*
X39531Y27207D01*
X39519Y27189D01*
X39506Y27168D01*
X39505Y27167D01*
X39502Y27160D01*
X39498Y27149D01*
X39495Y27140D01*
X39492Y27132D01*
X39490Y27121D01*
X39485Y27110D01*
X39481Y27096D01*
X39477Y27081D01*
X39473Y27064D01*
X39467Y27045D01*
X39463Y27024D01*
X39458Y27002D01*
X39398Y26717D01*
X39212D01*
X39358Y27414D01*
X39535D01*
X39517Y27322D01*
X39519D01*
X39520Y27325D01*
X39528Y27332D01*
X39542Y27342D01*
X39559Y27354D01*
X39578Y27367D01*
X39599Y27381D01*
X39621Y27393D01*
X39644Y27404D01*
X39646Y27405D01*
X39653Y27408D01*
X39666Y27412D01*
X39681Y27417D01*
X39699Y27421D01*
X39720Y27425D01*
X39742Y27428D01*
X39766Y27429D01*
X39774D01*
X39780Y27428D01*
D02*
G37*
G36*
X37269Y27426D02*
X37287Y27424D01*
X37308Y27418D01*
X37330Y27410D01*
X37351Y27399D01*
X37369Y27383D01*
X37370Y27382D01*
X37376Y27375D01*
X37384Y27365D01*
X37392Y27351D01*
X37401Y27335D01*
X37409Y27315D01*
X37415Y27292D01*
X37416Y27265D01*
Y27264D01*
Y27258D01*
X37415Y27249D01*
X37413Y27236D01*
X37412Y27220D01*
X37408Y27197D01*
X37403Y27171D01*
X37397Y27140D01*
X37305Y26717D01*
X37119D01*
X37209Y27140D01*
Y27142D01*
X37211Y27145D01*
Y27147D01*
X37212Y27153D01*
X37215Y27167D01*
X37217Y27182D01*
X37220Y27197D01*
X37223Y27213D01*
X37226Y27224D01*
Y27228D01*
Y27231D01*
Y27232D01*
Y27236D01*
X37224Y27240D01*
X37223Y27247D01*
X37219Y27263D01*
X37213Y27269D01*
X37208Y27276D01*
X37206Y27278D01*
X37205Y27279D01*
X37201Y27282D01*
X37195Y27286D01*
X37188Y27289D01*
X37179Y27292D01*
X37169Y27293D01*
X37156Y27294D01*
X37149D01*
X37144Y27293D01*
X37130Y27290D01*
X37113Y27285D01*
X37094Y27276D01*
X37072Y27263D01*
X37061Y27254D01*
X37050Y27244D01*
X37040Y27233D01*
X37029Y27220D01*
X37027Y27217D01*
X37025Y27214D01*
X37022Y27210D01*
X37019Y27203D01*
X37015Y27196D01*
X37009Y27186D01*
X37005Y27176D01*
X37000Y27164D01*
X36994Y27150D01*
X36988Y27135D01*
X36983Y27118D01*
X36976Y27100D01*
X36970Y27079D01*
X36965Y27057D01*
X36959Y27032D01*
X36893Y26717D01*
X36707D01*
X36794Y27136D01*
Y27138D01*
X36796Y27139D01*
X36797Y27149D01*
X36800Y27161D01*
X36802Y27175D01*
X36805Y27192D01*
X36807Y27207D01*
X36809Y27221D01*
Y27231D01*
Y27232D01*
Y27235D01*
X36808Y27240D01*
X36807Y27247D01*
X36801Y27261D01*
X36797Y27269D01*
X36790Y27276D01*
X36789Y27278D01*
X36787Y27279D01*
X36783Y27282D01*
X36777Y27286D01*
X36769Y27289D01*
X36761Y27292D01*
X36751Y27293D01*
X36739Y27294D01*
X36733D01*
X36728Y27293D01*
X36719Y27292D01*
X36709Y27290D01*
X36698Y27286D01*
X36687Y27282D01*
X36675Y27275D01*
X36673Y27274D01*
X36669Y27272D01*
X36662Y27268D01*
X36655Y27263D01*
X36646Y27256D01*
X36636Y27246D01*
X36626Y27236D01*
X36616Y27225D01*
X36615Y27224D01*
X36612Y27220D01*
X36608Y27213D01*
X36603Y27203D01*
X36596Y27192D01*
X36589Y27176D01*
X36582Y27161D01*
X36575Y27143D01*
Y27142D01*
X36573Y27138D01*
X36571Y27131D01*
X36568Y27121D01*
X36565Y27107D01*
X36560Y27088D01*
X36554Y27065D01*
X36551Y27052D01*
X36547Y27036D01*
X36480Y26717D01*
X36294D01*
X36440Y27414D01*
X36616D01*
X36600Y27329D01*
X36601Y27331D01*
X36604Y27333D01*
X36610Y27339D01*
X36618Y27344D01*
X36628Y27353D01*
X36639Y27361D01*
X36651Y27369D01*
X36666Y27379D01*
X36700Y27397D01*
X36736Y27414D01*
X36757Y27419D01*
X36776Y27425D01*
X36798Y27428D01*
X36819Y27429D01*
X36832D01*
X36847Y27428D01*
X36864Y27425D01*
X36883Y27421D01*
X36904Y27415D01*
X36923Y27407D01*
X36940Y27396D01*
X36941Y27394D01*
X36947Y27390D01*
X36954Y27382D01*
X36963Y27372D01*
X36972Y27360D01*
X36982Y27343D01*
X36990Y27326D01*
X36995Y27306D01*
X36997Y27308D01*
X37002Y27314D01*
X37011Y27324D01*
X37022Y27336D01*
X37037Y27350D01*
X37054Y27364D01*
X37075Y27379D01*
X37098Y27393D01*
X37099D01*
X37101Y27394D01*
X37105Y27396D01*
X37111Y27399D01*
X37123Y27404D01*
X37141Y27411D01*
X37162Y27418D01*
X37187Y27424D01*
X37212Y27428D01*
X37240Y27429D01*
X37254D01*
X37269Y27426D01*
D02*
G37*
G36*
X41334Y26717D02*
X41148D01*
X41350Y27678D01*
X41536D01*
X41334Y26717D01*
D02*
G37*
G36*
X40962D02*
X40776D01*
X40922Y27414D01*
X41109D01*
X40962Y26717D01*
D02*
G37*
G36*
X40449Y27428D02*
X40460D01*
X40472Y27426D01*
X40501Y27422D01*
X40535Y27417D01*
X40567Y27407D01*
X40599Y27393D01*
X40613Y27385D01*
X40625Y27375D01*
X40626D01*
X40628Y27372D01*
X40635Y27365D01*
X40646Y27354D01*
X40658Y27337D01*
X40669Y27318D01*
X40681Y27296D01*
X40687Y27271D01*
X40690Y27257D01*
Y27242D01*
Y27240D01*
Y27236D01*
Y27231D01*
X40689Y27222D01*
Y27213D01*
X40687Y27201D01*
X40683Y27175D01*
Y27174D01*
X40682Y27167D01*
X40681Y27163D01*
Y27156D01*
X40678Y27149D01*
X40676Y27139D01*
X40674Y27128D01*
X40671Y27114D01*
X40668Y27099D01*
X40665Y27082D01*
X40661Y27063D01*
X40656Y27040D01*
X40650Y27015D01*
X40644Y26989D01*
Y26988D01*
X40643Y26984D01*
X40642Y26978D01*
X40640Y26970D01*
X40639Y26959D01*
X40636Y26947D01*
X40632Y26921D01*
X40626Y26892D01*
X40622Y26864D01*
X40619Y26838D01*
X40618Y26825D01*
Y26816D01*
Y26814D01*
Y26807D01*
X40619Y26799D01*
Y26786D01*
X40622Y26773D01*
X40625Y26756D01*
X40628Y26736D01*
X40633Y26717D01*
X40452D01*
Y26718D01*
X40450Y26724D01*
X40447Y26731D01*
X40445Y26741D01*
X40443Y26753D01*
X40440Y26766D01*
X40438Y26795D01*
X40436Y26793D01*
X40431Y26788D01*
X40421Y26779D01*
X40410Y26768D01*
X40396Y26757D01*
X40379Y26746D01*
X40361Y26734D01*
X40342Y26724D01*
X40339Y26723D01*
X40332Y26720D01*
X40322Y26716D01*
X40309Y26711D01*
X40292Y26707D01*
X40274Y26703D01*
X40254Y26700D01*
X40234Y26699D01*
X40225D01*
X40220Y26700D01*
X40203Y26702D01*
X40184Y26706D01*
X40161Y26713D01*
X40136Y26723D01*
X40113Y26736D01*
X40091Y26755D01*
X40088Y26757D01*
X40082Y26764D01*
X40073Y26777D01*
X40063Y26795D01*
X40053Y26816D01*
X40043Y26841D01*
X40038Y26870D01*
X40035Y26902D01*
Y26903D01*
Y26906D01*
Y26911D01*
X40037Y26918D01*
Y26927D01*
X40038Y26936D01*
X40043Y26959D01*
X40050Y26985D01*
X40061Y27011D01*
X40077Y27038D01*
X40085Y27050D01*
X40096Y27061D01*
X40098Y27063D01*
X40099Y27064D01*
X40103Y27067D01*
X40109Y27071D01*
X40116Y27075D01*
X40124Y27081D01*
X40135Y27086D01*
X40148Y27093D01*
X40161Y27099D01*
X40178Y27106D01*
X40196Y27111D01*
X40217Y27117D01*
X40239Y27122D01*
X40263Y27127D01*
X40289Y27131D01*
X40318Y27133D01*
X40324D01*
X40331Y27135D01*
X40340D01*
X40350Y27136D01*
X40363Y27138D01*
X40390Y27142D01*
X40421Y27145D01*
X40450Y27150D01*
X40464Y27153D01*
X40476Y27156D01*
X40488Y27158D01*
X40497Y27161D01*
Y27163D01*
X40499Y27168D01*
X40501Y27175D01*
X40504Y27183D01*
X40508Y27204D01*
X40510Y27214D01*
Y27224D01*
Y27225D01*
Y27229D01*
X40508Y27233D01*
X40507Y27240D01*
X40504Y27249D01*
X40499Y27257D01*
X40493Y27265D01*
X40485Y27274D01*
X40483Y27275D01*
X40481Y27276D01*
X40475Y27281D01*
X40467Y27285D01*
X40456Y27288D01*
X40445Y27292D01*
X40429Y27293D01*
X40413Y27294D01*
X40404D01*
X40395Y27293D01*
X40384Y27292D01*
X40371Y27289D01*
X40357Y27286D01*
X40345Y27281D01*
X40332Y27274D01*
X40331Y27272D01*
X40328Y27269D01*
X40322Y27265D01*
X40317Y27258D01*
X40310Y27250D01*
X40303Y27240D01*
X40297Y27229D01*
X40293Y27217D01*
X40110Y27232D01*
Y27233D01*
X40111Y27236D01*
X40113Y27240D01*
X40116Y27247D01*
X40124Y27264D01*
X40135Y27285D01*
X40150Y27307D01*
X40168Y27332D01*
X40192Y27356D01*
X40218Y27376D01*
X40220D01*
X40222Y27379D01*
X40227Y27382D01*
X40232Y27385D01*
X40241Y27389D01*
X40250Y27393D01*
X40261Y27397D01*
X40274Y27403D01*
X40288Y27408D01*
X40304Y27412D01*
X40321Y27417D01*
X40339Y27421D01*
X40381Y27426D01*
X40427Y27429D01*
X40439D01*
X40449Y27428D01*
D02*
G37*
G36*
X36113Y26717D02*
X35927D01*
X36072Y27414D01*
X36260D01*
X36113Y26717D01*
D02*
G37*
G36*
X35738D02*
X35552D01*
X35753Y27678D01*
X35939D01*
X35738Y26717D01*
D02*
G37*
G36*
X37807Y27356D02*
X37810Y27357D01*
X37816Y27362D01*
X37825Y27369D01*
X37839Y27378D01*
X37853Y27386D01*
X37870Y27396D01*
X37886Y27404D01*
X37903Y27411D01*
X37906Y27412D01*
X37911Y27414D01*
X37921Y27417D01*
X37932Y27421D01*
X37948Y27424D01*
X37964Y27426D01*
X37984Y27428D01*
X38003Y27429D01*
X38014D01*
X38021Y27428D01*
X38031Y27426D01*
X38042Y27425D01*
X38067Y27419D01*
X38095Y27411D01*
X38125Y27397D01*
X38139Y27389D01*
X38154Y27379D01*
X38168Y27368D01*
X38181Y27354D01*
X38182Y27353D01*
X38184Y27351D01*
X38186Y27346D01*
X38192Y27340D01*
X38196Y27333D01*
X38202Y27324D01*
X38208Y27313D01*
X38214Y27300D01*
X38221Y27285D01*
X38227Y27269D01*
X38232Y27251D01*
X38238Y27232D01*
X38242Y27211D01*
X38245Y27189D01*
X38246Y27165D01*
X38247Y27139D01*
Y27138D01*
Y27135D01*
Y27129D01*
Y27122D01*
X38246Y27114D01*
Y27104D01*
X38243Y27081D01*
X38239Y27053D01*
X38233Y27021D01*
X38227Y26988D01*
X38215Y26954D01*
Y26953D01*
X38214Y26950D01*
X38213Y26946D01*
X38210Y26939D01*
X38203Y26924D01*
X38193Y26903D01*
X38182Y26879D01*
X38167Y26856D01*
X38152Y26831D01*
X38132Y26809D01*
X38129Y26806D01*
X38122Y26799D01*
X38113Y26789D01*
X38099Y26778D01*
X38082Y26764D01*
X38063Y26750D01*
X38043Y26736D01*
X38021Y26725D01*
X38018Y26724D01*
X38011Y26721D01*
X38000Y26717D01*
X37985Y26713D01*
X37967Y26707D01*
X37946Y26703D01*
X37925Y26700D01*
X37902Y26699D01*
X37895D01*
X37888Y26700D01*
X37877Y26702D01*
X37864Y26703D01*
X37850Y26706D01*
X37835Y26710D01*
X37818Y26716D01*
X37800Y26723D01*
X37782Y26731D01*
X37764Y26742D01*
X37745Y26755D01*
X37728Y26768D01*
X37712Y26786D01*
X37695Y26806D01*
X37681Y26829D01*
X37657Y26717D01*
X37488Y26717D01*
X37689Y27678D01*
X37875D01*
X37807Y27356D01*
D02*
G37*
G36*
X37086Y29318D02*
X36968D01*
Y29452D01*
X37086D01*
Y29318D01*
D02*
G37*
G36*
X40066Y28492D02*
X39956D01*
Y28579D01*
X39955Y28578D01*
X39954Y28575D01*
X39950Y28569D01*
X39944Y28563D01*
X39937Y28556D01*
X39929Y28547D01*
X39919Y28538D01*
X39906Y28528D01*
X39894Y28518D01*
X39880Y28508D01*
X39863Y28500D01*
X39845Y28493D01*
X39827Y28486D01*
X39807Y28481D01*
X39784Y28478D01*
X39761Y28477D01*
X39752D01*
X39747Y28478D01*
X39730Y28479D01*
X39711Y28482D01*
X39687Y28488D01*
X39661Y28496D01*
X39634Y28507D01*
X39608Y28522D01*
X39607D01*
X39605Y28525D01*
X39597Y28531D01*
X39584Y28542D01*
X39569Y28556D01*
X39551Y28574D01*
X39533Y28596D01*
X39515Y28621D01*
X39500Y28650D01*
Y28651D01*
X39498Y28654D01*
X39497Y28658D01*
X39494Y28664D01*
X39491Y28672D01*
X39487Y28682D01*
X39485Y28692D01*
X39482Y28704D01*
X39475Y28732D01*
X39468Y28764D01*
X39464Y28800D01*
X39462Y28839D01*
Y28840D01*
Y28843D01*
Y28848D01*
Y28857D01*
X39464Y28865D01*
Y28876D01*
X39466Y28901D01*
X39471Y28930D01*
X39478Y28962D01*
X39486Y28996D01*
X39497Y29028D01*
Y29029D01*
X39498Y29032D01*
X39501Y29036D01*
X39504Y29041D01*
X39512Y29057D01*
X39523Y29076D01*
X39537Y29097D01*
X39555Y29118D01*
X39576Y29140D01*
X39601Y29158D01*
X39603D01*
X39604Y29159D01*
X39608Y29162D01*
X39614Y29165D01*
X39627Y29172D01*
X39647Y29182D01*
X39669Y29190D01*
X39696Y29197D01*
X39725Y29202D01*
X39755Y29204D01*
X39766D01*
X39777Y29202D01*
X39793Y29201D01*
X39811Y29197D01*
X39830Y29193D01*
X39850Y29186D01*
X39868Y29176D01*
X39870Y29175D01*
X39876Y29172D01*
X39884Y29165D01*
X39895Y29158D01*
X39909Y29148D01*
X39922Y29136D01*
X39936Y29123D01*
X39948Y29108D01*
Y29452D01*
X40066D01*
Y28492D01*
D02*
G37*
G36*
X38362Y29202D02*
X38377Y29201D01*
X38395Y29198D01*
X38414Y29194D01*
X38435Y29189D01*
X38455Y29180D01*
X38457Y29179D01*
X38463Y29176D01*
X38473Y29172D01*
X38484Y29165D01*
X38498Y29157D01*
X38510Y29146D01*
X38523Y29134D01*
X38534Y29121D01*
X38535Y29119D01*
X38538Y29114D01*
X38542Y29107D01*
X38549Y29097D01*
X38555Y29083D01*
X38560Y29069D01*
X38567Y29053D01*
X38571Y29034D01*
Y29033D01*
X38573Y29028D01*
X38574Y29019D01*
X38575Y29008D01*
Y28991D01*
X38577Y28972D01*
X38578Y28948D01*
Y28919D01*
Y28492D01*
X38460D01*
Y28914D01*
Y28915D01*
Y28916D01*
Y28926D01*
Y28939D01*
X38459Y28954D01*
X38457Y28972D01*
X38455Y28990D01*
X38450Y29007D01*
X38446Y29022D01*
Y29023D01*
X38444Y29028D01*
X38439Y29034D01*
X38435Y29043D01*
X38428Y29051D01*
X38420Y29061D01*
X38409Y29071D01*
X38396Y29079D01*
X38395Y29080D01*
X38391Y29083D01*
X38382Y29086D01*
X38373Y29090D01*
X38362Y29094D01*
X38348Y29098D01*
X38331Y29100D01*
X38314Y29101D01*
X38308D01*
X38302Y29100D01*
X38288Y29098D01*
X38270Y29096D01*
X38251Y29089D01*
X38228Y29080D01*
X38206Y29069D01*
X38185Y29053D01*
X38183Y29050D01*
X38177Y29043D01*
X38173Y29037D01*
X38169Y29030D01*
X38163Y29022D01*
X38159Y29012D01*
X38153Y29001D01*
X38148Y28987D01*
X38144Y28972D01*
X38140Y28955D01*
X38137Y28937D01*
X38134Y28918D01*
X38131Y28894D01*
Y28871D01*
Y28492D01*
X38013D01*
Y29189D01*
X38119D01*
Y29089D01*
X38120Y29090D01*
X38123Y29094D01*
X38127Y29100D01*
X38133Y29107D01*
X38141Y29115D01*
X38151Y29125D01*
X38162Y29136D01*
X38176Y29147D01*
X38190Y29157D01*
X38206Y29168D01*
X38224Y29177D01*
X38244Y29186D01*
X38266Y29193D01*
X38288Y29198D01*
X38313Y29202D01*
X38339Y29204D01*
X38351D01*
X38362Y29202D01*
D02*
G37*
G36*
X36553Y29202D02*
X36574Y29201D01*
X36596Y29198D01*
X36620Y29193D01*
X36645Y29187D01*
X36668Y29179D01*
X36670D01*
X36671Y29177D01*
X36678Y29175D01*
X36689Y29169D01*
X36703Y29162D01*
X36718Y29152D01*
X36734Y29141D01*
X36747Y29129D01*
X36760Y29115D01*
X36761Y29114D01*
X36764Y29108D01*
X36770Y29098D01*
X36777Y29087D01*
X36783Y29071D01*
X36790Y29053D01*
X36796Y29032D01*
X36802Y29008D01*
X36686Y28993D01*
Y28996D01*
X36685Y29001D01*
X36682Y29011D01*
X36678Y29023D01*
X36671Y29036D01*
X36663Y29050D01*
X36653Y29064D01*
X36639Y29076D01*
X36638Y29077D01*
X36632Y29080D01*
X36624Y29086D01*
X36611Y29091D01*
X36597Y29097D01*
X36579Y29102D01*
X36557Y29105D01*
X36534Y29107D01*
X36520D01*
X36506Y29105D01*
X36488Y29104D01*
X36470Y29100D01*
X36450Y29096D01*
X36432Y29089D01*
X36417Y29079D01*
X36416Y29077D01*
X36411Y29075D01*
X36406Y29069D01*
X36400Y29061D01*
X36393Y29053D01*
X36388Y29041D01*
X36384Y29029D01*
X36382Y29016D01*
Y29015D01*
Y29012D01*
X36384Y29008D01*
Y29003D01*
X36388Y28989D01*
X36396Y28975D01*
X36398Y28973D01*
X36399Y28972D01*
X36402Y28968D01*
X36407Y28964D01*
X36413Y28960D01*
X36421Y28954D01*
X36431Y28950D01*
X36442Y28944D01*
X36443D01*
X36446Y28943D01*
X36452Y28941D01*
X36461Y28937D01*
X36475Y28933D01*
X36493Y28929D01*
X36504Y28925D01*
X36517Y28922D01*
X36531Y28918D01*
X36546Y28914D01*
X36548D01*
X36552Y28912D01*
X36559Y28911D01*
X36567Y28908D01*
X36577Y28905D01*
X36589Y28903D01*
X36616Y28894D01*
X36645Y28886D01*
X36674Y28876D01*
X36700Y28867D01*
X36711Y28862D01*
X36721Y28858D01*
X36724Y28857D01*
X36729Y28854D01*
X36738Y28850D01*
X36750Y28843D01*
X36763Y28835D01*
X36775Y28823D01*
X36788Y28811D01*
X36799Y28797D01*
X36800Y28796D01*
X36803Y28790D01*
X36808Y28782D01*
X36814Y28769D01*
X36818Y28754D01*
X36824Y28737D01*
X36827Y28718D01*
X36828Y28696D01*
Y28693D01*
Y28686D01*
X36827Y28675D01*
X36824Y28660D01*
X36820Y28643D01*
X36813Y28625D01*
X36804Y28604D01*
X36793Y28585D01*
X36792Y28582D01*
X36786Y28576D01*
X36779Y28567D01*
X36768Y28556D01*
X36753Y28543D01*
X36736Y28529D01*
X36717Y28517D01*
X36693Y28504D01*
X36692D01*
X36690Y28503D01*
X36682Y28500D01*
X36668Y28496D01*
X36650Y28490D01*
X36628Y28485D01*
X36603Y28481D01*
X36577Y28478D01*
X36546Y28477D01*
X36534D01*
X36524Y28478D01*
X36513D01*
X36499Y28479D01*
X36485Y28481D01*
X36470Y28483D01*
X36436Y28490D01*
X36402Y28500D01*
X36368Y28514D01*
X36353Y28522D01*
X36339Y28532D01*
X36338Y28533D01*
X36337Y28535D01*
X36328Y28543D01*
X36316Y28556D01*
X36302Y28575D01*
X36287Y28599D01*
X36271Y28626D01*
X36259Y28661D01*
X36249Y28700D01*
X36366Y28718D01*
Y28717D01*
Y28715D01*
X36368Y28707D01*
X36371Y28693D01*
X36377Y28678D01*
X36384Y28661D01*
X36392Y28643D01*
X36405Y28625D01*
X36420Y28610D01*
X36423Y28608D01*
X36428Y28604D01*
X36439Y28599D01*
X36453Y28592D01*
X36471Y28585D01*
X36492Y28579D01*
X36517Y28575D01*
X36546Y28574D01*
X36560D01*
X36574Y28575D01*
X36592Y28578D01*
X36611Y28582D01*
X36632Y28588D01*
X36650Y28594D01*
X36667Y28606D01*
X36668Y28607D01*
X36674Y28611D01*
X36679Y28618D01*
X36688Y28628D01*
X36695Y28639D01*
X36702Y28653D01*
X36706Y28667D01*
X36707Y28683D01*
Y28685D01*
Y28690D01*
X36706Y28697D01*
X36703Y28707D01*
X36699Y28717D01*
X36692Y28726D01*
X36684Y28737D01*
X36671Y28746D01*
X36670Y28747D01*
X36666Y28749D01*
X36659Y28753D01*
X36647Y28757D01*
X36631Y28762D01*
X36621Y28767D01*
X36610Y28769D01*
X36597Y28774D01*
X36584Y28778D01*
X36568Y28782D01*
X36550Y28786D01*
X36549D01*
X36545Y28787D01*
X36538Y28789D01*
X36529Y28792D01*
X36518Y28794D01*
X36506Y28799D01*
X36480Y28805D01*
X36449Y28815D01*
X36420Y28823D01*
X36392Y28833D01*
X36380Y28839D01*
X36370Y28843D01*
X36367Y28844D01*
X36362Y28847D01*
X36353Y28853D01*
X36342Y28860D01*
X36330Y28869D01*
X36317Y28880D01*
X36305Y28893D01*
X36294Y28908D01*
X36292Y28910D01*
X36289Y28915D01*
X36285Y28925D01*
X36281Y28936D01*
X36277Y28950D01*
X36273Y28966D01*
X36270Y28983D01*
X36269Y29003D01*
Y29005D01*
Y29011D01*
X36270Y29019D01*
X36271Y29032D01*
X36274Y29044D01*
X36277Y29059D01*
X36282Y29073D01*
X36289Y29089D01*
X36291Y29090D01*
X36294Y29096D01*
X36298Y29102D01*
X36305Y29112D01*
X36313Y29122D01*
X36323Y29134D01*
X36334Y29146D01*
X36348Y29155D01*
X36349Y29157D01*
X36353Y29158D01*
X36359Y29162D01*
X36367Y29166D01*
X36378Y29172D01*
X36391Y29177D01*
X36406Y29183D01*
X36423Y29189D01*
X36425Y29190D01*
X36431Y29191D01*
X36441Y29194D01*
X36453Y29197D01*
X36468Y29200D01*
X36485Y29201D01*
X36504Y29204D01*
X36538D01*
X36553Y29202D01*
D02*
G37*
G36*
X41679Y28481D02*
Y28479D01*
X41678Y28475D01*
X41675Y28470D01*
X41672Y28463D01*
X41668Y28453D01*
X41664Y28442D01*
X41654Y28418D01*
X41644Y28392D01*
X41633Y28365D01*
X41622Y28342D01*
X41617Y28332D01*
X41612Y28322D01*
X41611Y28320D01*
X41607Y28313D01*
X41600Y28303D01*
X41592Y28291D01*
X41580Y28277D01*
X41568Y28263D01*
X41555Y28249D01*
X41540Y28238D01*
X41539Y28236D01*
X41533Y28234D01*
X41525Y28229D01*
X41512Y28224D01*
X41499Y28218D01*
X41482Y28214D01*
X41464Y28211D01*
X41443Y28210D01*
X41437D01*
X41431Y28211D01*
X41421D01*
X41410Y28214D01*
X41397Y28217D01*
X41383Y28220D01*
X41368Y28225D01*
X41356Y28335D01*
X41357D01*
X41363Y28334D01*
X41369Y28332D01*
X41378Y28329D01*
X41400Y28325D01*
X41422Y28324D01*
X41429D01*
X41436Y28325D01*
X41444D01*
X41465Y28329D01*
X41475Y28334D01*
X41485Y28338D01*
X41486D01*
X41489Y28340D01*
X41493Y28343D01*
X41499Y28347D01*
X41511Y28359D01*
X41522Y28374D01*
Y28375D01*
X41525Y28378D01*
X41528Y28384D01*
X41530Y28392D01*
X41536Y28403D01*
X41542Y28420D01*
X41550Y28439D01*
X41558Y28463D01*
Y28464D01*
X41561Y28470D01*
X41564Y28479D01*
X41569Y28492D01*
X41306Y29189D01*
X41431D01*
X41576Y28785D01*
Y28783D01*
X41578Y28782D01*
X41579Y28778D01*
X41580Y28771D01*
X41583Y28764D01*
X41586Y28755D01*
X41593Y28736D01*
X41601Y28712D01*
X41610Y28685D01*
X41618Y28656D01*
X41626Y28624D01*
Y28625D01*
X41628Y28628D01*
X41629Y28632D01*
X41630Y28638D01*
X41632Y28644D01*
X41635Y28653D01*
X41640Y28674D01*
X41647Y28697D01*
X41657Y28725D01*
X41665Y28753D01*
X41676Y28782D01*
X41826Y29189D01*
X41944D01*
X41679Y28481D01*
D02*
G37*
G36*
X37086Y28492D02*
X36968D01*
Y29189D01*
X37086D01*
Y28492D01*
D02*
G37*
G36*
X34990Y29451D02*
X35018Y29449D01*
X35046Y29447D01*
X35073Y29443D01*
X35097Y29438D01*
X35098D01*
X35101Y29437D01*
X35105D01*
X35111Y29434D01*
X35126Y29430D01*
X35146Y29423D01*
X35168Y29413D01*
X35191Y29401D01*
X35215Y29387D01*
X35237Y29369D01*
X35239Y29368D01*
X35240Y29366D01*
X35244Y29362D01*
X35250Y29358D01*
X35264Y29344D01*
X35280Y29325D01*
X35298Y29301D01*
X35318Y29273D01*
X35336Y29241D01*
X35351Y29205D01*
Y29204D01*
X35352Y29201D01*
X35355Y29195D01*
X35357Y29187D01*
X35361Y29177D01*
X35364Y29166D01*
X35366Y29154D01*
X35371Y29139D01*
X35375Y29123D01*
X35377Y29105D01*
X35384Y29066D01*
X35389Y29023D01*
X35390Y28976D01*
Y28975D01*
Y28972D01*
Y28965D01*
Y28958D01*
X35389Y28948D01*
Y28937D01*
X35387Y28911D01*
X35383Y28880D01*
X35379Y28848D01*
X35372Y28815D01*
X35364Y28782D01*
Y28780D01*
X35362Y28778D01*
X35361Y28774D01*
X35359Y28768D01*
X35354Y28753D01*
X35346Y28733D01*
X35337Y28711D01*
X35326Y28689D01*
X35312Y28665D01*
X35298Y28643D01*
X35297Y28640D01*
X35291Y28633D01*
X35283Y28624D01*
X35272Y28611D01*
X35259Y28597D01*
X35244Y28583D01*
X35229Y28568D01*
X35211Y28556D01*
X35208Y28554D01*
X35203Y28550D01*
X35193Y28545D01*
X35179Y28538D01*
X35162Y28529D01*
X35143Y28522D01*
X35121Y28514D01*
X35096Y28507D01*
X35093D01*
X35089Y28506D01*
X35085Y28504D01*
X35071Y28503D01*
X35051Y28500D01*
X35029Y28497D01*
X35003Y28495D01*
X34974Y28493D01*
X34942Y28492D01*
X34596D01*
Y29452D01*
X34965D01*
X34990Y29451D01*
D02*
G37*
G36*
X40742Y29109D02*
X40743Y29111D01*
X40745Y29114D01*
X40749Y29118D01*
X40756Y29125D01*
X40763Y29132D01*
X40771Y29140D01*
X40782Y29148D01*
X40793Y29157D01*
X40821Y29175D01*
X40853Y29189D01*
X40871Y29195D01*
X40891Y29200D01*
X40911Y29202D01*
X40932Y29204D01*
X40943D01*
X40956Y29202D01*
X40971Y29201D01*
X40989Y29197D01*
X41010Y29193D01*
X41032Y29186D01*
X41053Y29177D01*
X41056Y29176D01*
X41063Y29173D01*
X41074Y29166D01*
X41086Y29158D01*
X41102Y29148D01*
X41117Y29136D01*
X41133Y29121D01*
X41147Y29104D01*
X41149Y29102D01*
X41153Y29096D01*
X41160Y29086D01*
X41168Y29073D01*
X41178Y29057D01*
X41188Y29037D01*
X41197Y29015D01*
X41206Y28991D01*
Y28990D01*
X41207Y28989D01*
X41208Y28984D01*
X41210Y28980D01*
X41213Y28966D01*
X41217Y28948D01*
X41221Y28928D01*
X41225Y28904D01*
X41226Y28878D01*
X41228Y28850D01*
Y28848D01*
Y28842D01*
Y28833D01*
X41226Y28821D01*
X41225Y28805D01*
X41224Y28789D01*
X41221Y28769D01*
X41217Y28749D01*
X41206Y28704D01*
X41199Y28681D01*
X41190Y28658D01*
X41181Y28635D01*
X41168Y28614D01*
X41154Y28593D01*
X41139Y28574D01*
X41138Y28572D01*
X41135Y28569D01*
X41131Y28565D01*
X41124Y28558D01*
X41114Y28551D01*
X41104Y28543D01*
X41093Y28535D01*
X41079Y28525D01*
X41064Y28517D01*
X41049Y28507D01*
X41011Y28492D01*
X40992Y28485D01*
X40971Y28481D01*
X40949Y28478D01*
X40927Y28477D01*
X40921D01*
X40914Y28478D01*
X40906D01*
X40896Y28479D01*
X40884Y28482D01*
X40856Y28489D01*
X40841Y28495D01*
X40825Y28501D01*
X40809Y28510D01*
X40793Y28520D01*
X40777Y28532D01*
X40761Y28546D01*
X40748Y28561D01*
X40734Y28579D01*
Y28492D01*
X40624D01*
Y29452D01*
X40742D01*
Y29109D01*
D02*
G37*
G36*
X39068Y29202D02*
X39079Y29201D01*
X39093Y29198D01*
X39108Y29195D01*
X39126Y29191D01*
X39143Y29187D01*
X39163Y29180D01*
X39181Y29173D01*
X39200Y29164D01*
X39219Y29152D01*
X39239Y29140D01*
X39257Y29125D01*
X39274Y29108D01*
X39275Y29107D01*
X39278Y29104D01*
X39282Y29098D01*
X39287Y29090D01*
X39294Y29080D01*
X39301Y29069D01*
X39310Y29055D01*
X39318Y29039D01*
X39326Y29021D01*
X39335Y29001D01*
X39342Y28979D01*
X39349Y28955D01*
X39354Y28929D01*
X39358Y28901D01*
X39361Y28872D01*
X39362Y28840D01*
Y28839D01*
Y28833D01*
Y28823D01*
X39361Y28810D01*
X38840D01*
Y28808D01*
Y28804D01*
X38842Y28799D01*
Y28790D01*
X38843Y28780D01*
X38846Y28769D01*
X38850Y28744D01*
X38859Y28717D01*
X38870Y28686D01*
X38885Y28658D01*
X38904Y28633D01*
X38906D01*
X38907Y28631D01*
X38915Y28624D01*
X38928Y28614D01*
X38945Y28604D01*
X38967Y28593D01*
X38992Y28583D01*
X39020Y28576D01*
X39035Y28575D01*
X39051Y28574D01*
X39063D01*
X39075Y28575D01*
X39090Y28578D01*
X39107Y28582D01*
X39126Y28588D01*
X39144Y28596D01*
X39163Y28607D01*
X39164Y28608D01*
X39171Y28614D01*
X39179Y28622D01*
X39189Y28633D01*
X39200Y28649D01*
X39212Y28668D01*
X39225Y28690D01*
X39236Y28717D01*
X39358Y28701D01*
Y28700D01*
X39357Y28697D01*
X39355Y28692D01*
X39353Y28683D01*
X39349Y28675D01*
X39344Y28664D01*
X39333Y28640D01*
X39319Y28614D01*
X39300Y28586D01*
X39278Y28560D01*
X39250Y28535D01*
X39249D01*
X39246Y28532D01*
X39242Y28529D01*
X39236Y28525D01*
X39228Y28521D01*
X39219Y28517D01*
X39208Y28511D01*
X39196Y28506D01*
X39182Y28500D01*
X39168Y28495D01*
X39133Y28486D01*
X39095Y28479D01*
X39051Y28477D01*
X39036D01*
X39027Y28478D01*
X39014Y28479D01*
X38999Y28482D01*
X38982Y28485D01*
X38964Y28488D01*
X38925Y28499D01*
X38904Y28507D01*
X38885Y28515D01*
X38864Y28526D01*
X38845Y28539D01*
X38827Y28553D01*
X38809Y28569D01*
X38807Y28571D01*
X38804Y28574D01*
X38800Y28579D01*
X38795Y28588D01*
X38788Y28597D01*
X38781Y28608D01*
X38772Y28622D01*
X38764Y28638D01*
X38756Y28656D01*
X38748Y28675D01*
X38741Y28697D01*
X38734Y28721D01*
X38728Y28746D01*
X38724Y28774D01*
X38721Y28803D01*
X38720Y28833D01*
Y28835D01*
Y28842D01*
Y28850D01*
X38721Y28862D01*
X38723Y28878D01*
X38724Y28894D01*
X38727Y28914D01*
X38731Y28933D01*
X38742Y28978D01*
X38749Y29000D01*
X38757Y29023D01*
X38768Y29046D01*
X38781Y29066D01*
X38795Y29087D01*
X38810Y29107D01*
X38811Y29108D01*
X38814Y29111D01*
X38820Y29115D01*
X38827Y29122D01*
X38835Y29129D01*
X38846Y29137D01*
X38859Y29147D01*
X38874Y29155D01*
X38889Y29165D01*
X38907Y29173D01*
X38927Y29182D01*
X38947Y29189D01*
X38970Y29195D01*
X38993Y29200D01*
X39018Y29202D01*
X39045Y29204D01*
X39058D01*
X39068Y29202D01*
D02*
G37*
G36*
X35858Y29202D02*
X35869Y29201D01*
X35883Y29198D01*
X35898Y29195D01*
X35916Y29191D01*
X35933Y29187D01*
X35952Y29180D01*
X35970Y29173D01*
X35990Y29164D01*
X36009Y29152D01*
X36028Y29140D01*
X36046Y29125D01*
X36063Y29108D01*
X36065Y29107D01*
X36067Y29104D01*
X36071Y29098D01*
X36077Y29090D01*
X36084Y29080D01*
X36091Y29069D01*
X36099Y29055D01*
X36108Y29039D01*
X36116Y29021D01*
X36124Y29001D01*
X36131Y28979D01*
X36138Y28955D01*
X36144Y28929D01*
X36148Y28901D01*
X36151Y28872D01*
X36152Y28840D01*
Y28839D01*
Y28833D01*
Y28823D01*
X36151Y28810D01*
X35630D01*
Y28808D01*
Y28804D01*
X35631Y28799D01*
Y28790D01*
X35633Y28780D01*
X35636Y28769D01*
X35640Y28744D01*
X35648Y28717D01*
X35659Y28686D01*
X35674Y28658D01*
X35694Y28633D01*
X35695D01*
X35697Y28631D01*
X35705Y28624D01*
X35717Y28614D01*
X35734Y28604D01*
X35756Y28593D01*
X35781Y28583D01*
X35809Y28576D01*
X35824Y28575D01*
X35841Y28574D01*
X35852D01*
X35865Y28575D01*
X35880Y28578D01*
X35897Y28582D01*
X35916Y28588D01*
X35934Y28596D01*
X35952Y28607D01*
X35953Y28608D01*
X35960Y28614D01*
X35969Y28622D01*
X35978Y28633D01*
X35990Y28649D01*
X36002Y28668D01*
X36015Y28690D01*
X36026Y28717D01*
X36148Y28701D01*
Y28700D01*
X36146Y28697D01*
X36145Y28692D01*
X36142Y28683D01*
X36138Y28675D01*
X36134Y28664D01*
X36123Y28640D01*
X36109Y28614D01*
X36089Y28586D01*
X36067Y28560D01*
X36040Y28535D01*
X36038D01*
X36035Y28532D01*
X36031Y28529D01*
X36026Y28525D01*
X36017Y28521D01*
X36009Y28517D01*
X35998Y28511D01*
X35985Y28506D01*
X35972Y28500D01*
X35958Y28495D01*
X35923Y28486D01*
X35884Y28479D01*
X35841Y28477D01*
X35826D01*
X35816Y28478D01*
X35804Y28479D01*
X35788Y28482D01*
X35772Y28485D01*
X35754Y28488D01*
X35715Y28499D01*
X35694Y28507D01*
X35674Y28515D01*
X35654Y28526D01*
X35634Y28539D01*
X35616Y28553D01*
X35598Y28569D01*
X35597Y28571D01*
X35594Y28574D01*
X35590Y28579D01*
X35584Y28588D01*
X35577Y28597D01*
X35570Y28608D01*
X35562Y28622D01*
X35554Y28637D01*
X35545Y28656D01*
X35537Y28675D01*
X35530Y28697D01*
X35523Y28721D01*
X35518Y28746D01*
X35513Y28774D01*
X35511Y28803D01*
X35509Y28833D01*
Y28835D01*
Y28842D01*
Y28850D01*
X35511Y28862D01*
X35512Y28878D01*
X35513Y28894D01*
X35516Y28914D01*
X35520Y28933D01*
X35532Y28978D01*
X35538Y29000D01*
X35547Y29023D01*
X35558Y29046D01*
X35570Y29066D01*
X35584Y29087D01*
X35600Y29107D01*
X35601Y29108D01*
X35604Y29111D01*
X35609Y29115D01*
X35616Y29122D01*
X35625Y29129D01*
X35636Y29137D01*
X35648Y29147D01*
X35663Y29155D01*
X35679Y29165D01*
X35697Y29173D01*
X35716Y29182D01*
X35737Y29189D01*
X35759Y29195D01*
X35783Y29200D01*
X35808Y29202D01*
X35834Y29204D01*
X35848D01*
X35858Y29202D01*
D02*
G37*
G36*
X37543Y29202D02*
X37552Y29201D01*
X37565Y29198D01*
X37579Y29195D01*
X37594Y29191D01*
X37609Y29186D01*
X37626Y29179D01*
X37643Y29170D01*
X37661Y29161D01*
X37677Y29150D01*
X37694Y29136D01*
X37711Y29121D01*
X37726Y29102D01*
Y29189D01*
X37834D01*
Y28586D01*
Y28585D01*
Y28579D01*
Y28571D01*
Y28560D01*
X37833Y28547D01*
Y28532D01*
X37831Y28515D01*
X37830Y28497D01*
X37826Y28460D01*
X37820Y28421D01*
X37816Y28403D01*
X37812Y28386D01*
X37806Y28371D01*
X37801Y28357D01*
Y28356D01*
X37799Y28354D01*
X37794Y28346D01*
X37787Y28334D01*
X37776Y28318D01*
X37761Y28302D01*
X37743Y28284D01*
X37720Y28266D01*
X37695Y28250D01*
X37694D01*
X37693Y28249D01*
X37688Y28246D01*
X37683Y28245D01*
X37676Y28241D01*
X37668Y28238D01*
X37647Y28231D01*
X37622Y28222D01*
X37591Y28217D01*
X37557Y28211D01*
X37519Y28210D01*
X37507D01*
X37498Y28211D01*
X37487D01*
X37476Y28213D01*
X37462Y28214D01*
X37447Y28217D01*
X37415Y28224D01*
X37382Y28234D01*
X37348Y28247D01*
X37318Y28267D01*
X37316Y28268D01*
X37315Y28270D01*
X37305Y28278D01*
X37294Y28291D01*
X37280Y28309D01*
X37267Y28332D01*
X37254Y28361D01*
X37250Y28378D01*
X37247Y28396D01*
X37244Y28414D01*
Y28435D01*
X37360Y28420D01*
Y28417D01*
X37361Y28411D01*
X37364Y28402D01*
X37366Y28389D01*
X37372Y28377D01*
X37379Y28364D01*
X37387Y28352D01*
X37398Y28342D01*
X37401Y28340D01*
X37407Y28336D01*
X37416Y28331D01*
X37430Y28325D01*
X37447Y28318D01*
X37468Y28313D01*
X37493Y28309D01*
X37519Y28307D01*
X37533D01*
X37547Y28309D01*
X37566Y28311D01*
X37586Y28315D01*
X37607Y28321D01*
X37627Y28329D01*
X37645Y28340D01*
X37647Y28342D01*
X37652Y28346D01*
X37661Y28354D01*
X37670Y28364D01*
X37680Y28378D01*
X37690Y28393D01*
X37700Y28411D01*
X37707Y28432D01*
Y28433D01*
X37708Y28439D01*
X37709Y28450D01*
X37711Y28464D01*
X37712Y28474D01*
Y28485D01*
X37713Y28497D01*
Y28511D01*
Y28526D01*
X37715Y28545D01*
Y28563D01*
Y28583D01*
X37713Y28582D01*
X37711Y28579D01*
X37707Y28575D01*
X37701Y28569D01*
X37694Y28563D01*
X37684Y28554D01*
X37673Y28546D01*
X37662Y28538D01*
X37633Y28521D01*
X37601Y28506D01*
X37583Y28500D01*
X37564Y28496D01*
X37543Y28493D01*
X37522Y28492D01*
X37515D01*
X37508Y28493D01*
X37498D01*
X37486Y28495D01*
X37472Y28497D01*
X37457Y28500D01*
X37440Y28504D01*
X37422Y28510D01*
X37404Y28517D01*
X37386Y28525D01*
X37366Y28535D01*
X37348Y28547D01*
X37330Y28561D01*
X37314Y28576D01*
X37298Y28594D01*
X37297Y28596D01*
X37296Y28599D01*
X37292Y28606D01*
X37286Y28613D01*
X37280Y28624D01*
X37273Y28635D01*
X37267Y28649D01*
X37260Y28665D01*
X37253Y28682D01*
X37246Y28701D01*
X37239Y28721D01*
X37233Y28743D01*
X37223Y28790D01*
X37222Y28817D01*
X37221Y28843D01*
Y28844D01*
Y28847D01*
Y28853D01*
Y28860D01*
X37222Y28869D01*
Y28879D01*
X37225Y28904D01*
X37229Y28932D01*
X37236Y28962D01*
X37244Y28994D01*
X37257Y29026D01*
Y29028D01*
X37258Y29030D01*
X37261Y29034D01*
X37264Y29040D01*
X37272Y29055D01*
X37283Y29075D01*
X37298Y29096D01*
X37316Y29116D01*
X37337Y29139D01*
X37361Y29157D01*
X37362D01*
X37364Y29158D01*
X37368Y29161D01*
X37373Y29164D01*
X37387Y29172D01*
X37407Y29180D01*
X37430Y29189D01*
X37458Y29197D01*
X37489Y29202D01*
X37522Y29204D01*
X37534D01*
X37543Y29202D01*
D02*
G37*
G36*
X40570Y23127D02*
X40574Y23127D01*
X40578Y23127D01*
X40582Y23126D01*
X40586Y23125D01*
X40596Y23123D01*
X40607Y23120D01*
X40613Y23117D01*
X40618Y23115D01*
X40623Y23112D01*
X40628Y23108D01*
X40628Y23108D01*
X40629Y23108D01*
X40630Y23107D01*
X40632Y23105D01*
X40634Y23103D01*
X40637Y23100D01*
X40639Y23097D01*
X40642Y23094D01*
X40645Y23091D01*
X40648Y23086D01*
X40651Y23082D01*
X40654Y23077D01*
X40657Y23072D01*
X40660Y23066D01*
X40662Y23061D01*
X40664Y23054D01*
X40631Y23046D01*
Y23047D01*
X40631Y23048D01*
X40630Y23049D01*
X40629Y23051D01*
X40629Y23053D01*
X40628Y23056D01*
X40625Y23062D01*
X40621Y23068D01*
X40617Y23075D01*
X40611Y23081D01*
X40605Y23086D01*
X40605Y23087D01*
X40602Y23089D01*
X40599Y23091D01*
X40594Y23093D01*
X40588Y23095D01*
X40581Y23097D01*
X40573Y23099D01*
X40563Y23099D01*
X40561D01*
X40559Y23099D01*
X40556D01*
X40553Y23098D01*
X40546Y23097D01*
X40539Y23096D01*
X40531Y23093D01*
X40522Y23090D01*
X40515Y23085D01*
X40514D01*
X40514Y23084D01*
X40511Y23082D01*
X40508Y23080D01*
X40504Y23075D01*
X40499Y23070D01*
X40495Y23064D01*
X40491Y23056D01*
X40487Y23048D01*
Y23047D01*
X40487Y23046D01*
X40487Y23045D01*
X40486Y23044D01*
X40486Y23041D01*
X40485Y23039D01*
X40484Y23033D01*
X40482Y23025D01*
X40481Y23017D01*
X40480Y23009D01*
X40480Y22999D01*
Y22999D01*
Y22998D01*
Y22996D01*
Y22994D01*
X40480Y22991D01*
Y22988D01*
X40480Y22984D01*
X40481Y22980D01*
X40482Y22971D01*
X40484Y22962D01*
X40486Y22953D01*
X40489Y22943D01*
Y22943D01*
X40489Y22942D01*
X40490Y22941D01*
X40491Y22939D01*
X40493Y22935D01*
X40496Y22930D01*
X40500Y22924D01*
X40505Y22918D01*
X40511Y22912D01*
X40518Y22907D01*
X40518D01*
X40519Y22907D01*
X40520Y22906D01*
X40522Y22905D01*
X40523Y22904D01*
X40526Y22903D01*
X40531Y22901D01*
X40537Y22899D01*
X40545Y22897D01*
X40553Y22896D01*
X40561Y22895D01*
X40563D01*
X40566Y22896D01*
X40568D01*
X40571Y22896D01*
X40577Y22898D01*
X40585Y22899D01*
X40593Y22902D01*
X40601Y22906D01*
X40605Y22908D01*
X40608Y22911D01*
X40609Y22912D01*
X40609Y22912D01*
X40610Y22913D01*
X40612Y22914D01*
X40613Y22916D01*
X40615Y22918D01*
X40617Y22921D01*
X40619Y22923D01*
X40621Y22927D01*
X40624Y22930D01*
X40626Y22934D01*
X40628Y22938D01*
X40630Y22943D01*
X40632Y22948D01*
X40633Y22954D01*
X40635Y22959D01*
X40668Y22951D01*
Y22951D01*
X40668Y22949D01*
X40667Y22947D01*
X40666Y22944D01*
X40665Y22941D01*
X40664Y22937D01*
X40662Y22933D01*
X40660Y22928D01*
X40654Y22918D01*
X40648Y22907D01*
X40644Y22902D01*
X40640Y22897D01*
X40636Y22893D01*
X40630Y22888D01*
X40630Y22888D01*
X40629Y22887D01*
X40628Y22887D01*
X40626Y22885D01*
X40623Y22883D01*
X40620Y22882D01*
X40616Y22880D01*
X40612Y22878D01*
X40607Y22876D01*
X40602Y22874D01*
X40597Y22872D01*
X40591Y22870D01*
X40585Y22869D01*
X40578Y22868D01*
X40571Y22867D01*
X40564Y22867D01*
X40560D01*
X40557Y22867D01*
X40554D01*
X40550Y22868D01*
X40545Y22868D01*
X40540Y22869D01*
X40530Y22871D01*
X40519Y22874D01*
X40508Y22878D01*
X40503Y22880D01*
X40498Y22883D01*
X40497Y22884D01*
X40496Y22884D01*
X40495Y22885D01*
X40494Y22887D01*
X40491Y22888D01*
X40489Y22890D01*
X40486Y22893D01*
X40483Y22896D01*
X40480Y22899D01*
X40477Y22902D01*
X40470Y22911D01*
X40464Y22921D01*
X40459Y22931D01*
Y22932D01*
X40458Y22933D01*
X40458Y22935D01*
X40456Y22937D01*
X40456Y22940D01*
X40455Y22943D01*
X40453Y22947D01*
X40452Y22952D01*
X40451Y22957D01*
X40450Y22962D01*
X40448Y22973D01*
X40446Y22986D01*
X40446Y22999D01*
Y22999D01*
Y23001D01*
Y23003D01*
X40446Y23006D01*
Y23009D01*
X40446Y23013D01*
X40447Y23018D01*
X40447Y23022D01*
X40449Y23033D01*
X40452Y23045D01*
X40455Y23056D01*
X40460Y23068D01*
X40461Y23068D01*
X40461Y23069D01*
X40462Y23070D01*
X40463Y23072D01*
X40465Y23075D01*
X40467Y23078D01*
X40471Y23084D01*
X40478Y23092D01*
X40485Y23099D01*
X40493Y23106D01*
X40503Y23112D01*
X40503Y23113D01*
X40504Y23113D01*
X40506Y23114D01*
X40508Y23115D01*
X40511Y23116D01*
X40514Y23117D01*
X40517Y23119D01*
X40521Y23120D01*
X40526Y23121D01*
X40530Y23123D01*
X40541Y23125D01*
X40552Y23127D01*
X40564Y23128D01*
X40568D01*
X40570Y23127D01*
D02*
G37*
G36*
X39944D02*
X39948Y23127D01*
X39952Y23127D01*
X39956Y23126D01*
X39960Y23125D01*
X39970Y23123D01*
X39981Y23120D01*
X39987Y23117D01*
X39992Y23115D01*
X39997Y23112D01*
X40002Y23108D01*
X40002Y23108D01*
X40003Y23108D01*
X40004Y23107D01*
X40006Y23105D01*
X40008Y23103D01*
X40011Y23100D01*
X40013Y23097D01*
X40016Y23094D01*
X40019Y23091D01*
X40022Y23086D01*
X40025Y23082D01*
X40028Y23077D01*
X40031Y23072D01*
X40033Y23066D01*
X40036Y23061D01*
X40038Y23054D01*
X40005Y23046D01*
Y23047D01*
X40005Y23048D01*
X40004Y23049D01*
X40003Y23051D01*
X40003Y23053D01*
X40001Y23056D01*
X39999Y23062D01*
X39995Y23068D01*
X39991Y23075D01*
X39985Y23081D01*
X39979Y23086D01*
X39979Y23087D01*
X39976Y23089D01*
X39973Y23091D01*
X39968Y23093D01*
X39962Y23095D01*
X39955Y23097D01*
X39946Y23099D01*
X39937Y23099D01*
X39934D01*
X39933Y23099D01*
X39930D01*
X39927Y23098D01*
X39920Y23097D01*
X39913Y23096D01*
X39905Y23093D01*
X39896Y23090D01*
X39889Y23085D01*
X39888D01*
X39888Y23084D01*
X39885Y23082D01*
X39882Y23080D01*
X39878Y23075D01*
X39873Y23070D01*
X39869Y23064D01*
X39865Y23056D01*
X39861Y23048D01*
Y23047D01*
X39861Y23046D01*
X39861Y23045D01*
X39860Y23044D01*
X39859Y23041D01*
X39859Y23039D01*
X39858Y23033D01*
X39856Y23025D01*
X39855Y23017D01*
X39854Y23009D01*
X39854Y22999D01*
Y22999D01*
Y22998D01*
Y22996D01*
Y22994D01*
X39854Y22991D01*
Y22988D01*
X39854Y22984D01*
X39855Y22980D01*
X39856Y22971D01*
X39858Y22962D01*
X39860Y22953D01*
X39863Y22943D01*
Y22943D01*
X39863Y22942D01*
X39864Y22941D01*
X39865Y22939D01*
X39867Y22935D01*
X39870Y22930D01*
X39874Y22924D01*
X39879Y22918D01*
X39885Y22912D01*
X39892Y22907D01*
X39892D01*
X39893Y22907D01*
X39894Y22906D01*
X39896Y22905D01*
X39897Y22904D01*
X39900Y22903D01*
X39905Y22901D01*
X39911Y22899D01*
X39918Y22897D01*
X39926Y22896D01*
X39935Y22895D01*
X39937D01*
X39940Y22896D01*
X39942D01*
X39945Y22896D01*
X39951Y22898D01*
X39959Y22899D01*
X39966Y22902D01*
X39975Y22906D01*
X39979Y22908D01*
X39982Y22911D01*
X39983Y22912D01*
X39983Y22912D01*
X39984Y22913D01*
X39985Y22914D01*
X39987Y22916D01*
X39989Y22918D01*
X39991Y22921D01*
X39993Y22923D01*
X39995Y22927D01*
X39997Y22930D01*
X40000Y22934D01*
X40002Y22938D01*
X40004Y22943D01*
X40005Y22948D01*
X40007Y22954D01*
X40009Y22959D01*
X40042Y22951D01*
Y22951D01*
X40042Y22949D01*
X40041Y22947D01*
X40040Y22944D01*
X40039Y22941D01*
X40037Y22937D01*
X40036Y22933D01*
X40033Y22928D01*
X40028Y22918D01*
X40022Y22907D01*
X40018Y22902D01*
X40014Y22897D01*
X40009Y22893D01*
X40004Y22888D01*
X40004Y22888D01*
X40003Y22887D01*
X40001Y22887D01*
X40000Y22885D01*
X39997Y22883D01*
X39994Y22882D01*
X39990Y22880D01*
X39986Y22878D01*
X39981Y22876D01*
X39976Y22874D01*
X39971Y22872D01*
X39965Y22870D01*
X39959Y22869D01*
X39952Y22868D01*
X39945Y22867D01*
X39938Y22867D01*
X39934D01*
X39931Y22867D01*
X39928D01*
X39924Y22868D01*
X39919Y22868D01*
X39914Y22869D01*
X39904Y22871D01*
X39893Y22874D01*
X39882Y22878D01*
X39877Y22880D01*
X39871Y22883D01*
X39871Y22884D01*
X39870Y22884D01*
X39869Y22885D01*
X39867Y22887D01*
X39865Y22888D01*
X39863Y22890D01*
X39860Y22893D01*
X39857Y22896D01*
X39854Y22899D01*
X39851Y22902D01*
X39844Y22911D01*
X39838Y22921D01*
X39833Y22931D01*
Y22932D01*
X39832Y22933D01*
X39831Y22935D01*
X39830Y22937D01*
X39830Y22940D01*
X39829Y22943D01*
X39827Y22947D01*
X39826Y22952D01*
X39825Y22957D01*
X39823Y22962D01*
X39822Y22973D01*
X39820Y22986D01*
X39819Y22999D01*
Y22999D01*
Y23001D01*
Y23003D01*
X39820Y23006D01*
Y23009D01*
X39820Y23013D01*
X39821Y23018D01*
X39821Y23022D01*
X39823Y23033D01*
X39826Y23045D01*
X39829Y23056D01*
X39834Y23068D01*
X39835Y23068D01*
X39835Y23069D01*
X39836Y23070D01*
X39837Y23072D01*
X39839Y23075D01*
X39841Y23078D01*
X39845Y23084D01*
X39851Y23092D01*
X39859Y23099D01*
X39867Y23106D01*
X39877Y23112D01*
X39877Y23113D01*
X39878Y23113D01*
X39880Y23114D01*
X39882Y23115D01*
X39885Y23116D01*
X39888Y23117D01*
X39891Y23119D01*
X39895Y23120D01*
X39900Y23121D01*
X39904Y23123D01*
X39914Y23125D01*
X39926Y23127D01*
X39938Y23128D01*
X39942D01*
X39944Y23127D01*
D02*
G37*
G36*
X39318D02*
X39321Y23127D01*
X39325Y23127D01*
X39330Y23126D01*
X39334Y23125D01*
X39344Y23123D01*
X39355Y23120D01*
X39360Y23117D01*
X39366Y23115D01*
X39371Y23112D01*
X39376Y23108D01*
X39376Y23108D01*
X39377Y23108D01*
X39378Y23107D01*
X39380Y23105D01*
X39382Y23103D01*
X39384Y23100D01*
X39387Y23097D01*
X39390Y23094D01*
X39393Y23091D01*
X39396Y23086D01*
X39399Y23082D01*
X39402Y23077D01*
X39404Y23072D01*
X39407Y23066D01*
X39410Y23061D01*
X39412Y23054D01*
X39379Y23046D01*
Y23047D01*
X39379Y23048D01*
X39378Y23049D01*
X39377Y23051D01*
X39376Y23053D01*
X39375Y23056D01*
X39372Y23062D01*
X39369Y23068D01*
X39364Y23075D01*
X39359Y23081D01*
X39353Y23086D01*
X39352Y23087D01*
X39350Y23089D01*
X39347Y23091D01*
X39342Y23093D01*
X39336Y23095D01*
X39329Y23097D01*
X39320Y23099D01*
X39311Y23099D01*
X39308D01*
X39307Y23099D01*
X39304D01*
X39301Y23098D01*
X39294Y23097D01*
X39287Y23096D01*
X39279Y23093D01*
X39270Y23090D01*
X39263Y23085D01*
X39262D01*
X39262Y23084D01*
X39259Y23082D01*
X39256Y23080D01*
X39252Y23075D01*
X39247Y23070D01*
X39243Y23064D01*
X39239Y23056D01*
X39235Y23048D01*
Y23047D01*
X39235Y23046D01*
X39234Y23045D01*
X39234Y23044D01*
X39233Y23041D01*
X39233Y23039D01*
X39232Y23033D01*
X39230Y23025D01*
X39229Y23017D01*
X39228Y23009D01*
X39228Y22999D01*
Y22999D01*
Y22998D01*
Y22996D01*
Y22994D01*
X39228Y22991D01*
Y22988D01*
X39228Y22984D01*
X39229Y22980D01*
X39230Y22971D01*
X39232Y22962D01*
X39234Y22953D01*
X39237Y22943D01*
Y22943D01*
X39237Y22942D01*
X39238Y22941D01*
X39239Y22939D01*
X39241Y22935D01*
X39244Y22930D01*
X39248Y22924D01*
X39253Y22918D01*
X39259Y22912D01*
X39266Y22907D01*
X39266D01*
X39267Y22907D01*
X39268Y22906D01*
X39269Y22905D01*
X39271Y22904D01*
X39273Y22903D01*
X39279Y22901D01*
X39285Y22899D01*
X39292Y22897D01*
X39300Y22896D01*
X39309Y22895D01*
X39311D01*
X39313Y22896D01*
X39316D01*
X39319Y22896D01*
X39325Y22898D01*
X39333Y22899D01*
X39340Y22902D01*
X39348Y22906D01*
X39352Y22908D01*
X39356Y22911D01*
X39356Y22912D01*
X39357Y22912D01*
X39358Y22913D01*
X39359Y22914D01*
X39361Y22916D01*
X39363Y22918D01*
X39365Y22921D01*
X39367Y22923D01*
X39369Y22927D01*
X39371Y22930D01*
X39374Y22934D01*
X39376Y22938D01*
X39378Y22943D01*
X39379Y22948D01*
X39381Y22954D01*
X39383Y22959D01*
X39416Y22951D01*
Y22951D01*
X39416Y22949D01*
X39415Y22947D01*
X39414Y22944D01*
X39413Y22941D01*
X39411Y22937D01*
X39410Y22933D01*
X39407Y22928D01*
X39402Y22918D01*
X39396Y22907D01*
X39392Y22902D01*
X39388Y22897D01*
X39383Y22893D01*
X39378Y22888D01*
X39378Y22888D01*
X39377Y22887D01*
X39375Y22887D01*
X39374Y22885D01*
X39371Y22883D01*
X39368Y22882D01*
X39364Y22880D01*
X39360Y22878D01*
X39355Y22876D01*
X39350Y22874D01*
X39344Y22872D01*
X39339Y22870D01*
X39332Y22869D01*
X39326Y22868D01*
X39319Y22867D01*
X39312Y22867D01*
X39308D01*
X39305Y22867D01*
X39301D01*
X39297Y22868D01*
X39293Y22868D01*
X39288Y22869D01*
X39277Y22871D01*
X39267Y22874D01*
X39256Y22878D01*
X39251Y22880D01*
X39245Y22883D01*
X39245Y22884D01*
X39244Y22884D01*
X39243Y22885D01*
X39241Y22887D01*
X39239Y22888D01*
X39237Y22890D01*
X39234Y22893D01*
X39231Y22896D01*
X39228Y22899D01*
X39225Y22902D01*
X39218Y22911D01*
X39212Y22921D01*
X39206Y22931D01*
Y22932D01*
X39206Y22933D01*
X39205Y22935D01*
X39204Y22937D01*
X39204Y22940D01*
X39202Y22943D01*
X39201Y22947D01*
X39200Y22952D01*
X39199Y22957D01*
X39197Y22962D01*
X39196Y22973D01*
X39194Y22986D01*
X39193Y22999D01*
Y22999D01*
Y23001D01*
Y23003D01*
X39194Y23006D01*
Y23009D01*
X39194Y23013D01*
X39194Y23018D01*
X39195Y23022D01*
X39197Y23033D01*
X39200Y23045D01*
X39203Y23056D01*
X39208Y23068D01*
X39209Y23068D01*
X39209Y23069D01*
X39210Y23070D01*
X39211Y23072D01*
X39213Y23075D01*
X39214Y23078D01*
X39219Y23084D01*
X39225Y23092D01*
X39233Y23099D01*
X39241Y23106D01*
X39251Y23112D01*
X39251Y23113D01*
X39252Y23113D01*
X39254Y23114D01*
X39256Y23115D01*
X39259Y23116D01*
X39261Y23117D01*
X39265Y23119D01*
X39269Y23120D01*
X39273Y23121D01*
X39278Y23123D01*
X39288Y23125D01*
X39300Y23127D01*
X39312Y23128D01*
X39316D01*
X39318Y23127D01*
D02*
G37*
G36*
X38692D02*
X38695Y23127D01*
X38699Y23127D01*
X38703Y23126D01*
X38708Y23125D01*
X38718Y23123D01*
X38729Y23120D01*
X38734Y23117D01*
X38739Y23115D01*
X38745Y23112D01*
X38750Y23108D01*
X38750Y23108D01*
X38751Y23108D01*
X38752Y23107D01*
X38754Y23105D01*
X38756Y23103D01*
X38758Y23100D01*
X38761Y23097D01*
X38764Y23094D01*
X38767Y23091D01*
X38770Y23086D01*
X38773Y23082D01*
X38776Y23077D01*
X38778Y23072D01*
X38781Y23066D01*
X38784Y23061D01*
X38786Y23054D01*
X38753Y23046D01*
Y23047D01*
X38753Y23048D01*
X38752Y23049D01*
X38751Y23051D01*
X38750Y23053D01*
X38749Y23056D01*
X38746Y23062D01*
X38743Y23068D01*
X38738Y23075D01*
X38733Y23081D01*
X38727Y23086D01*
X38726Y23087D01*
X38724Y23089D01*
X38721Y23091D01*
X38716Y23093D01*
X38710Y23095D01*
X38703Y23097D01*
X38694Y23099D01*
X38685Y23099D01*
X38682D01*
X38680Y23099D01*
X38678D01*
X38675Y23098D01*
X38668Y23097D01*
X38660Y23096D01*
X38652Y23093D01*
X38644Y23090D01*
X38636Y23085D01*
X38636D01*
X38636Y23084D01*
X38633Y23082D01*
X38630Y23080D01*
X38626Y23075D01*
X38621Y23070D01*
X38617Y23064D01*
X38613Y23056D01*
X38609Y23048D01*
Y23047D01*
X38609Y23046D01*
X38608Y23045D01*
X38608Y23044D01*
X38607Y23041D01*
X38607Y23039D01*
X38606Y23033D01*
X38604Y23025D01*
X38603Y23017D01*
X38602Y23009D01*
X38602Y22999D01*
Y22999D01*
Y22998D01*
Y22996D01*
Y22994D01*
X38602Y22991D01*
Y22988D01*
X38602Y22984D01*
X38603Y22980D01*
X38604Y22971D01*
X38606Y22962D01*
X38608Y22953D01*
X38611Y22943D01*
Y22943D01*
X38611Y22942D01*
X38612Y22941D01*
X38612Y22939D01*
X38615Y22935D01*
X38618Y22930D01*
X38622Y22924D01*
X38627Y22918D01*
X38633Y22912D01*
X38640Y22907D01*
X38640D01*
X38641Y22907D01*
X38642Y22906D01*
X38643Y22905D01*
X38645Y22904D01*
X38647Y22903D01*
X38652Y22901D01*
X38659Y22899D01*
X38666Y22897D01*
X38674Y22896D01*
X38683Y22895D01*
X38685D01*
X38687Y22896D01*
X38690D01*
X38693Y22896D01*
X38699Y22898D01*
X38707Y22899D01*
X38714Y22902D01*
X38722Y22906D01*
X38726Y22908D01*
X38730Y22911D01*
X38730Y22912D01*
X38731Y22912D01*
X38732Y22913D01*
X38733Y22914D01*
X38735Y22916D01*
X38737Y22918D01*
X38739Y22921D01*
X38741Y22923D01*
X38743Y22927D01*
X38745Y22930D01*
X38747Y22934D01*
X38750Y22938D01*
X38751Y22943D01*
X38753Y22948D01*
X38755Y22954D01*
X38757Y22959D01*
X38790Y22951D01*
Y22951D01*
X38790Y22949D01*
X38789Y22947D01*
X38788Y22944D01*
X38787Y22941D01*
X38785Y22937D01*
X38784Y22933D01*
X38781Y22928D01*
X38776Y22918D01*
X38770Y22907D01*
X38766Y22902D01*
X38762Y22897D01*
X38757Y22893D01*
X38752Y22888D01*
X38752Y22888D01*
X38751Y22887D01*
X38749Y22887D01*
X38747Y22885D01*
X38745Y22883D01*
X38742Y22882D01*
X38738Y22880D01*
X38734Y22878D01*
X38729Y22876D01*
X38724Y22874D01*
X38718Y22872D01*
X38713Y22870D01*
X38706Y22869D01*
X38700Y22868D01*
X38693Y22867D01*
X38686Y22867D01*
X38682D01*
X38679Y22867D01*
X38675D01*
X38671Y22868D01*
X38667Y22868D01*
X38662Y22869D01*
X38651Y22871D01*
X38640Y22874D01*
X38630Y22878D01*
X38624Y22880D01*
X38619Y22883D01*
X38619Y22884D01*
X38618Y22884D01*
X38617Y22885D01*
X38615Y22887D01*
X38613Y22888D01*
X38611Y22890D01*
X38608Y22893D01*
X38605Y22896D01*
X38602Y22899D01*
X38599Y22902D01*
X38592Y22911D01*
X38586Y22921D01*
X38580Y22931D01*
Y22932D01*
X38580Y22933D01*
X38579Y22935D01*
X38578Y22937D01*
X38577Y22940D01*
X38576Y22943D01*
X38575Y22947D01*
X38574Y22952D01*
X38573Y22957D01*
X38571Y22962D01*
X38569Y22973D01*
X38568Y22986D01*
X38567Y22999D01*
Y22999D01*
Y23001D01*
Y23003D01*
X38568Y23006D01*
Y23009D01*
X38568Y23013D01*
X38568Y23018D01*
X38569Y23022D01*
X38571Y23033D01*
X38573Y23045D01*
X38577Y23056D01*
X38582Y23068D01*
X38583Y23068D01*
X38583Y23069D01*
X38584Y23070D01*
X38585Y23072D01*
X38587Y23075D01*
X38588Y23078D01*
X38593Y23084D01*
X38599Y23092D01*
X38607Y23099D01*
X38615Y23106D01*
X38625Y23112D01*
X38625Y23113D01*
X38626Y23113D01*
X38628Y23114D01*
X38630Y23115D01*
X38632Y23116D01*
X38635Y23117D01*
X38639Y23119D01*
X38643Y23120D01*
X38647Y23121D01*
X38652Y23123D01*
X38662Y23125D01*
X38674Y23127D01*
X38686Y23128D01*
X38690D01*
X38692Y23127D01*
D02*
G37*
G36*
X40205Y22951D02*
Y22951D01*
Y22950D01*
Y22949D01*
Y22946D01*
X40205Y22943D01*
Y22941D01*
X40204Y22934D01*
X40203Y22926D01*
X40202Y22917D01*
X40199Y22910D01*
X40197Y22902D01*
Y22902D01*
X40197Y22902D01*
X40195Y22899D01*
X40194Y22896D01*
X40191Y22892D01*
X40187Y22888D01*
X40183Y22884D01*
X40178Y22880D01*
X40173Y22876D01*
X40172Y22876D01*
X40170Y22875D01*
X40166Y22873D01*
X40162Y22872D01*
X40156Y22870D01*
X40149Y22868D01*
X40142Y22867D01*
X40134Y22867D01*
X40131D01*
X40128Y22867D01*
X40126Y22868D01*
X40123Y22868D01*
X40115Y22870D01*
X40107Y22872D01*
X40099Y22875D01*
X40094Y22877D01*
X40090Y22880D01*
X40087Y22883D01*
X40083Y22886D01*
X40083Y22886D01*
X40082Y22887D01*
X40082Y22888D01*
X40080Y22890D01*
X40079Y22891D01*
X40078Y22894D01*
X40076Y22897D01*
X40074Y22900D01*
X40073Y22904D01*
X40071Y22908D01*
X40070Y22912D01*
X40068Y22918D01*
X40068Y22923D01*
X40067Y22929D01*
X40066Y22935D01*
Y22942D01*
X40096Y22947D01*
Y22946D01*
Y22946D01*
Y22944D01*
X40097Y22942D01*
X40097Y22940D01*
Y22937D01*
X40098Y22931D01*
X40099Y22925D01*
X40102Y22918D01*
X40104Y22912D01*
X40105Y22910D01*
X40107Y22907D01*
X40107Y22907D01*
X40109Y22906D01*
X40111Y22904D01*
X40114Y22902D01*
X40118Y22900D01*
X40122Y22899D01*
X40128Y22897D01*
X40134Y22897D01*
X40136D01*
X40138Y22897D01*
X40141Y22898D01*
X40145Y22898D01*
X40148Y22899D01*
X40152Y22900D01*
X40155Y22902D01*
X40156Y22903D01*
X40157Y22903D01*
X40158Y22905D01*
X40161Y22906D01*
X40162Y22909D01*
X40165Y22911D01*
X40166Y22914D01*
X40168Y22918D01*
Y22918D01*
X40169Y22920D01*
X40169Y22922D01*
X40170Y22926D01*
X40170Y22930D01*
X40171Y22935D01*
X40171Y22942D01*
Y22950D01*
Y23123D01*
X40205D01*
Y22951D01*
D02*
G37*
G36*
X39579D02*
Y22951D01*
Y22950D01*
Y22949D01*
Y22946D01*
X39578Y22943D01*
Y22941D01*
X39578Y22934D01*
X39577Y22926D01*
X39576Y22917D01*
X39573Y22910D01*
X39571Y22902D01*
Y22902D01*
X39570Y22902D01*
X39569Y22899D01*
X39568Y22896D01*
X39565Y22892D01*
X39561Y22888D01*
X39557Y22884D01*
X39552Y22880D01*
X39546Y22876D01*
X39546Y22876D01*
X39544Y22875D01*
X39540Y22873D01*
X39536Y22872D01*
X39530Y22870D01*
X39523Y22868D01*
X39516Y22867D01*
X39508Y22867D01*
X39505D01*
X39502Y22867D01*
X39499Y22868D01*
X39497Y22868D01*
X39489Y22870D01*
X39481Y22872D01*
X39473Y22875D01*
X39468Y22877D01*
X39464Y22880D01*
X39461Y22883D01*
X39457Y22886D01*
X39457Y22886D01*
X39456Y22887D01*
X39455Y22888D01*
X39454Y22890D01*
X39453Y22891D01*
X39451Y22894D01*
X39450Y22897D01*
X39448Y22900D01*
X39447Y22904D01*
X39445Y22908D01*
X39444Y22912D01*
X39442Y22918D01*
X39442Y22923D01*
X39441Y22929D01*
X39440Y22935D01*
Y22942D01*
X39470Y22947D01*
Y22946D01*
Y22946D01*
Y22944D01*
X39471Y22942D01*
X39471Y22940D01*
Y22937D01*
X39472Y22931D01*
X39473Y22925D01*
X39475Y22918D01*
X39478Y22912D01*
X39479Y22910D01*
X39481Y22907D01*
X39481Y22907D01*
X39483Y22906D01*
X39485Y22904D01*
X39488Y22902D01*
X39492Y22900D01*
X39496Y22899D01*
X39502Y22897D01*
X39508Y22897D01*
X39510D01*
X39512Y22897D01*
X39515Y22898D01*
X39518Y22898D01*
X39522Y22899D01*
X39526Y22900D01*
X39529Y22902D01*
X39530Y22903D01*
X39531Y22903D01*
X39532Y22905D01*
X39534Y22906D01*
X39536Y22909D01*
X39538Y22911D01*
X39540Y22914D01*
X39542Y22918D01*
Y22918D01*
X39542Y22920D01*
X39543Y22922D01*
X39544Y22926D01*
X39544Y22930D01*
X39545Y22935D01*
X39545Y22942D01*
Y22950D01*
Y23123D01*
X39579D01*
Y22951D01*
D02*
G37*
G36*
X38953D02*
Y22951D01*
Y22950D01*
Y22949D01*
Y22946D01*
X38952Y22943D01*
Y22941D01*
X38952Y22934D01*
X38951Y22926D01*
X38949Y22917D01*
X38947Y22910D01*
X38945Y22902D01*
Y22902D01*
X38944Y22902D01*
X38943Y22899D01*
X38941Y22896D01*
X38939Y22892D01*
X38935Y22888D01*
X38931Y22884D01*
X38926Y22880D01*
X38920Y22876D01*
X38920Y22876D01*
X38917Y22875D01*
X38914Y22873D01*
X38909Y22872D01*
X38904Y22870D01*
X38897Y22868D01*
X38890Y22867D01*
X38882Y22867D01*
X38879D01*
X38876Y22867D01*
X38873Y22868D01*
X38870Y22868D01*
X38863Y22870D01*
X38855Y22872D01*
X38846Y22875D01*
X38842Y22877D01*
X38838Y22880D01*
X38834Y22883D01*
X38831Y22886D01*
X38830Y22886D01*
X38830Y22887D01*
X38829Y22888D01*
X38828Y22890D01*
X38827Y22891D01*
X38825Y22894D01*
X38824Y22897D01*
X38822Y22900D01*
X38821Y22904D01*
X38819Y22908D01*
X38818Y22912D01*
X38816Y22918D01*
X38816Y22923D01*
X38814Y22929D01*
X38814Y22935D01*
Y22942D01*
X38844Y22947D01*
Y22946D01*
Y22946D01*
Y22944D01*
X38845Y22942D01*
X38845Y22940D01*
Y22937D01*
X38846Y22931D01*
X38847Y22925D01*
X38849Y22918D01*
X38852Y22912D01*
X38853Y22910D01*
X38855Y22907D01*
X38855Y22907D01*
X38857Y22906D01*
X38859Y22904D01*
X38862Y22902D01*
X38866Y22900D01*
X38870Y22899D01*
X38876Y22897D01*
X38881Y22897D01*
X38884D01*
X38886Y22897D01*
X38889Y22898D01*
X38892Y22898D01*
X38896Y22899D01*
X38900Y22900D01*
X38903Y22902D01*
X38904Y22903D01*
X38905Y22903D01*
X38906Y22905D01*
X38908Y22906D01*
X38910Y22909D01*
X38912Y22911D01*
X38914Y22914D01*
X38916Y22918D01*
Y22918D01*
X38916Y22920D01*
X38917Y22922D01*
X38917Y22926D01*
X38918Y22930D01*
X38919Y22935D01*
X38919Y22942D01*
Y22950D01*
Y23123D01*
X38953D01*
Y22951D01*
D02*
G37*
G36*
X38327D02*
Y22951D01*
Y22950D01*
Y22949D01*
Y22946D01*
X38326Y22943D01*
Y22941D01*
X38326Y22934D01*
X38325Y22926D01*
X38323Y22917D01*
X38321Y22910D01*
X38319Y22902D01*
Y22902D01*
X38318Y22902D01*
X38317Y22899D01*
X38315Y22896D01*
X38313Y22892D01*
X38309Y22888D01*
X38305Y22884D01*
X38300Y22880D01*
X38294Y22876D01*
X38294Y22876D01*
X38291Y22875D01*
X38288Y22873D01*
X38283Y22872D01*
X38278Y22870D01*
X38271Y22868D01*
X38264Y22867D01*
X38256Y22867D01*
X38252D01*
X38250Y22867D01*
X38247Y22868D01*
X38244Y22868D01*
X38237Y22870D01*
X38229Y22872D01*
X38220Y22875D01*
X38216Y22877D01*
X38212Y22880D01*
X38208Y22883D01*
X38205Y22886D01*
X38204Y22886D01*
X38204Y22887D01*
X38203Y22888D01*
X38202Y22890D01*
X38201Y22891D01*
X38199Y22894D01*
X38198Y22897D01*
X38196Y22900D01*
X38195Y22904D01*
X38193Y22908D01*
X38192Y22912D01*
X38190Y22918D01*
X38189Y22923D01*
X38188Y22929D01*
X38188Y22935D01*
Y22942D01*
X38218Y22947D01*
Y22946D01*
Y22946D01*
Y22944D01*
X38219Y22942D01*
X38219Y22940D01*
Y22937D01*
X38220Y22931D01*
X38221Y22925D01*
X38223Y22918D01*
X38225Y22912D01*
X38227Y22910D01*
X38229Y22907D01*
X38229Y22907D01*
X38231Y22906D01*
X38233Y22904D01*
X38236Y22902D01*
X38240Y22900D01*
X38244Y22899D01*
X38250Y22897D01*
X38255Y22897D01*
X38258D01*
X38260Y22897D01*
X38263Y22898D01*
X38266Y22898D01*
X38270Y22899D01*
X38274Y22900D01*
X38277Y22902D01*
X38278Y22903D01*
X38279Y22903D01*
X38280Y22905D01*
X38282Y22906D01*
X38284Y22909D01*
X38286Y22911D01*
X38288Y22914D01*
X38290Y22918D01*
Y22918D01*
X38290Y22920D01*
X38291Y22922D01*
X38291Y22926D01*
X38292Y22930D01*
X38292Y22935D01*
X38293Y22942D01*
Y22950D01*
Y23123D01*
X38327D01*
Y22951D01*
D02*
G37*
G36*
X40292Y22901D02*
X40416D01*
Y22871D01*
X40258D01*
Y23123D01*
X40292D01*
Y22901D01*
D02*
G37*
G36*
X39665D02*
X39790D01*
Y22871D01*
X39632D01*
Y23123D01*
X39665D01*
Y22901D01*
D02*
G37*
G36*
X39039D02*
X39164D01*
Y22871D01*
X39006D01*
Y23123D01*
X39039D01*
Y22901D01*
D02*
G37*
G36*
X38413D02*
X38537D01*
Y22871D01*
X38380D01*
Y23123D01*
X38413D01*
Y22901D01*
D02*
G37*
G36*
X46711Y25016D02*
X46718Y25015D01*
X46727Y25013D01*
X46737Y25010D01*
X46747Y25007D01*
X46757Y25002D01*
X46757D01*
X46758Y25002D01*
X46761Y25000D01*
X46766Y24997D01*
X46772Y24993D01*
X46778Y24987D01*
X46785Y24981D01*
X46792Y24974D01*
X46797Y24966D01*
X46798Y24965D01*
X46799Y24962D01*
X46802Y24957D01*
X46804Y24951D01*
X46807Y24943D01*
X46809Y24935D01*
X46811Y24926D01*
X46812Y24916D01*
Y24915D01*
Y24912D01*
X46811Y24907D01*
X46810Y24901D01*
X46808Y24894D01*
X46806Y24886D01*
X46802Y24879D01*
X46798Y24871D01*
X46797Y24870D01*
X46796Y24867D01*
X46792Y24864D01*
X46788Y24859D01*
X46782Y24854D01*
X46776Y24849D01*
X46768Y24844D01*
X46758Y24839D01*
X46759D01*
X46760Y24838D01*
X46762Y24837D01*
X46764Y24837D01*
X46770Y24835D01*
X46778Y24831D01*
X46787Y24827D01*
X46796Y24821D01*
X46804Y24814D01*
X46812Y24806D01*
X46812Y24805D01*
X46814Y24801D01*
X46818Y24796D01*
X46821Y24789D01*
X46824Y24780D01*
X46828Y24769D01*
X46830Y24757D01*
X46831Y24744D01*
Y24743D01*
Y24741D01*
Y24739D01*
X46830Y24735D01*
X46829Y24731D01*
X46828Y24726D01*
X46827Y24720D01*
X46826Y24714D01*
X46822Y24701D01*
X46818Y24694D01*
X46815Y24687D01*
X46811Y24680D01*
X46806Y24673D01*
X46800Y24665D01*
X46793Y24659D01*
X46793Y24658D01*
X46792Y24657D01*
X46789Y24655D01*
X46787Y24653D01*
X46783Y24650D01*
X46779Y24648D01*
X46774Y24644D01*
X46768Y24642D01*
X46762Y24638D01*
X46754Y24635D01*
X46747Y24632D01*
X46739Y24629D01*
X46730Y24627D01*
X46721Y24625D01*
X46711Y24624D01*
X46701Y24624D01*
X46696D01*
X46692Y24624D01*
X46688Y24625D01*
X46683Y24625D01*
X46677Y24627D01*
X46671Y24628D01*
X46658Y24631D01*
X46644Y24637D01*
X46637Y24640D01*
X46630Y24644D01*
X46623Y24649D01*
X46617Y24654D01*
X46616Y24654D01*
X46615Y24655D01*
X46613Y24657D01*
X46612Y24659D01*
X46609Y24662D01*
X46606Y24666D01*
X46603Y24670D01*
X46600Y24675D01*
X46596Y24680D01*
X46593Y24686D01*
X46587Y24699D01*
X46582Y24715D01*
X46580Y24723D01*
X46579Y24732D01*
X46626Y24738D01*
Y24738D01*
X46627Y24736D01*
X46627Y24734D01*
X46628Y24731D01*
X46628Y24728D01*
X46630Y24724D01*
X46632Y24716D01*
X46636Y24706D01*
X46641Y24697D01*
X46647Y24688D01*
X46653Y24680D01*
X46655Y24679D01*
X46657Y24677D01*
X46661Y24674D01*
X46667Y24672D01*
X46673Y24668D01*
X46682Y24665D01*
X46691Y24663D01*
X46701Y24663D01*
X46705D01*
X46707Y24663D01*
X46713Y24664D01*
X46721Y24665D01*
X46729Y24668D01*
X46739Y24672D01*
X46748Y24678D01*
X46757Y24685D01*
X46758Y24687D01*
X46761Y24690D01*
X46764Y24695D01*
X46769Y24702D01*
X46773Y24710D01*
X46777Y24719D01*
X46779Y24730D01*
X46781Y24743D01*
Y24743D01*
Y24744D01*
Y24746D01*
X46780Y24748D01*
X46779Y24754D01*
X46778Y24761D01*
X46776Y24770D01*
X46772Y24779D01*
X46766Y24788D01*
X46759Y24796D01*
X46758Y24798D01*
X46755Y24800D01*
X46751Y24803D01*
X46744Y24807D01*
X46737Y24811D01*
X46727Y24814D01*
X46717Y24816D01*
X46705Y24818D01*
X46700D01*
X46696Y24817D01*
X46691Y24816D01*
X46686Y24815D01*
X46679Y24814D01*
X46672Y24813D01*
X46677Y24854D01*
X46680D01*
X46682Y24854D01*
X46690D01*
X46696Y24855D01*
X46703Y24856D01*
X46711Y24857D01*
X46721Y24860D01*
X46729Y24864D01*
X46739Y24869D01*
X46739D01*
X46740Y24870D01*
X46743Y24872D01*
X46747Y24876D01*
X46751Y24881D01*
X46756Y24888D01*
X46759Y24896D01*
X46762Y24906D01*
X46763Y24911D01*
Y24917D01*
Y24918D01*
Y24919D01*
Y24922D01*
X46762Y24926D01*
X46761Y24932D01*
X46759Y24939D01*
X46756Y24946D01*
X46752Y24953D01*
X46746Y24960D01*
X46745Y24961D01*
X46742Y24963D01*
X46738Y24966D01*
X46733Y24969D01*
X46727Y24972D01*
X46719Y24975D01*
X46710Y24977D01*
X46700Y24977D01*
X46696D01*
X46691Y24976D01*
X46684Y24975D01*
X46677Y24973D01*
X46670Y24970D01*
X46662Y24966D01*
X46655Y24960D01*
X46654Y24960D01*
X46652Y24957D01*
X46648Y24953D01*
X46645Y24947D01*
X46641Y24940D01*
X46637Y24931D01*
X46633Y24921D01*
X46631Y24909D01*
X46584Y24917D01*
Y24917D01*
X46585Y24919D01*
X46585Y24921D01*
X46586Y24925D01*
X46587Y24929D01*
X46589Y24933D01*
X46592Y24943D01*
X46597Y24956D01*
X46604Y24968D01*
X46612Y24980D01*
X46623Y24990D01*
X46623Y24991D01*
X46625Y24991D01*
X46626Y24992D01*
X46628Y24994D01*
X46631Y24996D01*
X46635Y24998D01*
X46639Y25001D01*
X46644Y25003D01*
X46655Y25008D01*
X46668Y25012D01*
X46683Y25015D01*
X46691Y25016D01*
X46705D01*
X46711Y25016D01*
D02*
G37*
G36*
X46157Y24753D02*
Y24752D01*
Y24750D01*
Y24748D01*
Y24745D01*
X46156Y24740D01*
Y24736D01*
X46155Y24725D01*
X46154Y24713D01*
X46152Y24700D01*
X46148Y24689D01*
X46145Y24678D01*
Y24677D01*
X46144Y24677D01*
X46142Y24673D01*
X46140Y24669D01*
X46136Y24663D01*
X46130Y24657D01*
X46124Y24650D01*
X46116Y24643D01*
X46107Y24638D01*
X46106Y24637D01*
X46103Y24635D01*
X46098Y24633D01*
X46091Y24631D01*
X46082Y24628D01*
X46072Y24626D01*
X46061Y24624D01*
X46049Y24624D01*
X46044D01*
X46040Y24624D01*
X46036Y24625D01*
X46031Y24625D01*
X46020Y24628D01*
X46007Y24631D01*
X45995Y24636D01*
X45988Y24639D01*
X45982Y24643D01*
X45976Y24648D01*
X45971Y24653D01*
X45970Y24653D01*
X45970Y24654D01*
X45969Y24656D01*
X45967Y24658D01*
X45965Y24661D01*
X45962Y24665D01*
X45960Y24669D01*
X45957Y24674D01*
X45955Y24680D01*
X45953Y24687D01*
X45951Y24693D01*
X45949Y24701D01*
X45947Y24709D01*
X45946Y24719D01*
X45945Y24728D01*
Y24739D01*
X45991Y24745D01*
Y24745D01*
Y24744D01*
Y24741D01*
X45992Y24738D01*
X45992Y24735D01*
Y24731D01*
X45994Y24721D01*
X45996Y24711D01*
X45999Y24702D01*
X46002Y24693D01*
X46005Y24689D01*
X46007Y24685D01*
X46008Y24685D01*
X46010Y24683D01*
X46014Y24680D01*
X46018Y24678D01*
X46024Y24674D01*
X46031Y24672D01*
X46039Y24670D01*
X46048Y24669D01*
X46051D01*
X46055Y24670D01*
X46060Y24670D01*
X46065Y24672D01*
X46070Y24673D01*
X46076Y24675D01*
X46081Y24678D01*
X46082Y24678D01*
X46083Y24679D01*
X46086Y24682D01*
X46089Y24684D01*
X46092Y24688D01*
X46095Y24692D01*
X46098Y24696D01*
X46100Y24702D01*
Y24702D01*
X46101Y24704D01*
X46102Y24708D01*
X46103Y24713D01*
X46104Y24720D01*
X46105Y24728D01*
X46106Y24738D01*
Y24750D01*
Y25015D01*
X46157D01*
Y24753D01*
D02*
G37*
G36*
X47055Y24630D02*
X47008D01*
Y24931D01*
X47007Y24930D01*
X47004Y24928D01*
X47001Y24925D01*
X46995Y24921D01*
X46989Y24916D01*
X46981Y24910D01*
X46973Y24904D01*
X46963Y24898D01*
X46962D01*
X46961Y24897D01*
X46958Y24895D01*
X46953Y24892D01*
X46946Y24889D01*
X46938Y24885D01*
X46930Y24881D01*
X46922Y24877D01*
X46913Y24874D01*
Y24920D01*
X46914D01*
X46915Y24921D01*
X46917Y24921D01*
X46920Y24923D01*
X46923Y24925D01*
X46927Y24927D01*
X46937Y24932D01*
X46948Y24938D01*
X46959Y24946D01*
X46970Y24955D01*
X46982Y24965D01*
X46983Y24965D01*
X46983Y24966D01*
X46985Y24967D01*
X46987Y24969D01*
X46992Y24975D01*
X46999Y24981D01*
X47005Y24989D01*
X47013Y24998D01*
X47019Y25007D01*
X47024Y25016D01*
X47055D01*
Y24630D01*
D02*
G37*
G36*
X46406Y25014D02*
X46415Y25013D01*
X46425Y25013D01*
X46435Y25012D01*
X46443Y25011D01*
X46444D01*
X46448Y25010D01*
X46453Y25008D01*
X46460Y25007D01*
X46467Y25004D01*
X46475Y25001D01*
X46483Y24997D01*
X46490Y24992D01*
X46491Y24992D01*
X46494Y24990D01*
X46497Y24987D01*
X46501Y24983D01*
X46506Y24978D01*
X46511Y24971D01*
X46517Y24964D01*
X46521Y24956D01*
X46522Y24955D01*
X46523Y24952D01*
X46525Y24947D01*
X46527Y24940D01*
X46529Y24932D01*
X46531Y24924D01*
X46532Y24914D01*
X46533Y24903D01*
Y24902D01*
Y24901D01*
Y24899D01*
X46532Y24895D01*
X46532Y24891D01*
X46531Y24886D01*
X46530Y24880D01*
X46529Y24874D01*
X46525Y24861D01*
X46523Y24855D01*
X46520Y24847D01*
X46516Y24840D01*
X46512Y24834D01*
X46507Y24827D01*
X46501Y24820D01*
X46501Y24820D01*
X46500Y24819D01*
X46498Y24817D01*
X46495Y24815D01*
X46492Y24813D01*
X46488Y24810D01*
X46482Y24806D01*
X46476Y24804D01*
X46469Y24800D01*
X46460Y24797D01*
X46451Y24794D01*
X46441Y24792D01*
X46430Y24790D01*
X46418Y24788D01*
X46404Y24787D01*
X46389Y24786D01*
X46291D01*
Y24630D01*
X46240D01*
Y25015D01*
X46398D01*
X46406Y25014D01*
D02*
G37*
G36*
X46780Y35424D02*
X46788Y35423D01*
X46796Y35421D01*
X46806Y35418D01*
X46816Y35415D01*
X46826Y35410D01*
X46827D01*
X46828Y35410D01*
X46831Y35408D01*
X46836Y35405D01*
X46841Y35401D01*
X46848Y35395D01*
X46855Y35389D01*
X46861Y35382D01*
X46867Y35374D01*
X46868Y35373D01*
X46869Y35370D01*
X46871Y35365D01*
X46874Y35359D01*
X46877Y35351D01*
X46879Y35343D01*
X46881Y35334D01*
X46881Y35324D01*
Y35323D01*
Y35320D01*
X46881Y35315D01*
X46880Y35309D01*
X46878Y35302D01*
X46875Y35294D01*
X46872Y35287D01*
X46868Y35279D01*
X46867Y35278D01*
X46865Y35275D01*
X46862Y35272D01*
X46858Y35267D01*
X46852Y35262D01*
X46845Y35257D01*
X46838Y35252D01*
X46828Y35247D01*
X46829D01*
X46830Y35246D01*
X46831Y35245D01*
X46834Y35245D01*
X46840Y35243D01*
X46848Y35239D01*
X46856Y35235D01*
X46865Y35229D01*
X46874Y35222D01*
X46881Y35214D01*
X46882Y35213D01*
X46884Y35209D01*
X46887Y35204D01*
X46891Y35197D01*
X46894Y35188D01*
X46897Y35177D01*
X46900Y35165D01*
X46900Y35152D01*
Y35151D01*
Y35149D01*
Y35147D01*
X46900Y35143D01*
X46899Y35139D01*
X46898Y35134D01*
X46897Y35128D01*
X46896Y35122D01*
X46891Y35109D01*
X46888Y35102D01*
X46885Y35095D01*
X46880Y35088D01*
X46875Y35081D01*
X46870Y35073D01*
X46863Y35067D01*
X46863Y35066D01*
X46861Y35065D01*
X46859Y35063D01*
X46856Y35061D01*
X46853Y35058D01*
X46849Y35056D01*
X46844Y35052D01*
X46838Y35050D01*
X46831Y35046D01*
X46824Y35043D01*
X46817Y35040D01*
X46809Y35037D01*
X46800Y35035D01*
X46790Y35033D01*
X46781Y35032D01*
X46770Y35032D01*
X46765D01*
X46762Y35032D01*
X46758Y35033D01*
X46753Y35033D01*
X46747Y35035D01*
X46741Y35036D01*
X46728Y35039D01*
X46714Y35045D01*
X46707Y35048D01*
X46700Y35052D01*
X46693Y35057D01*
X46687Y35062D01*
X46686Y35062D01*
X46685Y35063D01*
X46683Y35065D01*
X46682Y35067D01*
X46679Y35070D01*
X46676Y35074D01*
X46673Y35078D01*
X46669Y35083D01*
X46666Y35088D01*
X46663Y35094D01*
X46657Y35107D01*
X46652Y35123D01*
X46650Y35131D01*
X46649Y35140D01*
X46696Y35146D01*
Y35146D01*
X46697Y35144D01*
X46697Y35142D01*
X46698Y35139D01*
X46698Y35136D01*
X46699Y35132D01*
X46702Y35124D01*
X46706Y35114D01*
X46711Y35105D01*
X46717Y35096D01*
X46723Y35088D01*
X46724Y35087D01*
X46727Y35085D01*
X46731Y35082D01*
X46737Y35080D01*
X46743Y35076D01*
X46752Y35073D01*
X46761Y35071D01*
X46771Y35071D01*
X46774D01*
X46776Y35071D01*
X46783Y35072D01*
X46790Y35073D01*
X46799Y35076D01*
X46809Y35080D01*
X46818Y35086D01*
X46827Y35093D01*
X46828Y35095D01*
X46831Y35098D01*
X46834Y35103D01*
X46839Y35110D01*
X46843Y35118D01*
X46846Y35127D01*
X46849Y35138D01*
X46850Y35151D01*
Y35151D01*
Y35152D01*
Y35154D01*
X46850Y35156D01*
X46849Y35162D01*
X46848Y35169D01*
X46845Y35178D01*
X46841Y35187D01*
X46836Y35196D01*
X46829Y35204D01*
X46828Y35206D01*
X46825Y35208D01*
X46820Y35211D01*
X46814Y35215D01*
X46806Y35219D01*
X46797Y35222D01*
X46786Y35224D01*
X46775Y35226D01*
X46770D01*
X46766Y35225D01*
X46761Y35224D01*
X46755Y35223D01*
X46749Y35222D01*
X46742Y35221D01*
X46747Y35262D01*
X46750D01*
X46752Y35262D01*
X46759D01*
X46765Y35263D01*
X46773Y35264D01*
X46781Y35265D01*
X46790Y35268D01*
X46799Y35272D01*
X46809Y35277D01*
X46809D01*
X46810Y35278D01*
X46813Y35280D01*
X46816Y35284D01*
X46821Y35289D01*
X46825Y35296D01*
X46829Y35304D01*
X46832Y35314D01*
X46833Y35319D01*
Y35325D01*
Y35326D01*
Y35327D01*
Y35330D01*
X46832Y35334D01*
X46831Y35340D01*
X46829Y35347D01*
X46826Y35354D01*
X46821Y35361D01*
X46815Y35368D01*
X46815Y35369D01*
X46812Y35371D01*
X46808Y35374D01*
X46803Y35377D01*
X46796Y35380D01*
X46789Y35383D01*
X46780Y35385D01*
X46770Y35385D01*
X46765D01*
X46760Y35384D01*
X46754Y35383D01*
X46747Y35381D01*
X46739Y35378D01*
X46732Y35374D01*
X46724Y35368D01*
X46724Y35368D01*
X46722Y35365D01*
X46718Y35361D01*
X46714Y35355D01*
X46710Y35348D01*
X46707Y35339D01*
X46703Y35329D01*
X46701Y35317D01*
X46654Y35325D01*
Y35325D01*
X46654Y35327D01*
X46655Y35329D01*
X46656Y35333D01*
X46657Y35336D01*
X46658Y35341D01*
X46662Y35351D01*
X46667Y35364D01*
X46674Y35376D01*
X46682Y35388D01*
X46693Y35398D01*
X46693Y35399D01*
X46694Y35399D01*
X46696Y35400D01*
X46698Y35402D01*
X46701Y35404D01*
X46705Y35406D01*
X46709Y35409D01*
X46714Y35411D01*
X46725Y35416D01*
X46738Y35420D01*
X46753Y35423D01*
X46760Y35424D01*
X46774D01*
X46780Y35424D01*
D02*
G37*
G36*
X46226Y35161D02*
Y35160D01*
Y35158D01*
Y35156D01*
Y35153D01*
X46226Y35148D01*
Y35144D01*
X46225Y35133D01*
X46224Y35121D01*
X46221Y35108D01*
X46218Y35097D01*
X46214Y35086D01*
Y35085D01*
X46214Y35085D01*
X46212Y35081D01*
X46209Y35077D01*
X46205Y35071D01*
X46200Y35065D01*
X46194Y35058D01*
X46186Y35051D01*
X46177Y35046D01*
X46176Y35045D01*
X46173Y35043D01*
X46168Y35041D01*
X46160Y35039D01*
X46152Y35036D01*
X46142Y35034D01*
X46130Y35032D01*
X46118Y35032D01*
X46113D01*
X46110Y35032D01*
X46105Y35033D01*
X46101Y35033D01*
X46089Y35036D01*
X46077Y35039D01*
X46064Y35044D01*
X46058Y35047D01*
X46052Y35051D01*
X46046Y35056D01*
X46041Y35061D01*
X46040Y35061D01*
X46039Y35062D01*
X46038Y35064D01*
X46037Y35066D01*
X46034Y35069D01*
X46032Y35073D01*
X46030Y35077D01*
X46027Y35082D01*
X46025Y35088D01*
X46023Y35095D01*
X46021Y35101D01*
X46018Y35109D01*
X46017Y35117D01*
X46016Y35127D01*
X46015Y35136D01*
Y35147D01*
X46061Y35153D01*
Y35153D01*
Y35152D01*
Y35149D01*
X46062Y35146D01*
X46062Y35143D01*
Y35139D01*
X46064Y35129D01*
X46066Y35120D01*
X46069Y35110D01*
X46072Y35101D01*
X46074Y35097D01*
X46077Y35093D01*
X46078Y35093D01*
X46080Y35091D01*
X46083Y35088D01*
X46088Y35086D01*
X46094Y35082D01*
X46101Y35080D01*
X46109Y35078D01*
X46118Y35077D01*
X46121D01*
X46124Y35078D01*
X46129Y35078D01*
X46134Y35080D01*
X46140Y35081D01*
X46145Y35083D01*
X46151Y35086D01*
X46152Y35086D01*
X46153Y35087D01*
X46155Y35090D01*
X46159Y35092D01*
X46162Y35096D01*
X46165Y35100D01*
X46168Y35104D01*
X46170Y35110D01*
Y35110D01*
X46171Y35112D01*
X46172Y35116D01*
X46173Y35121D01*
X46174Y35128D01*
X46174Y35136D01*
X46175Y35146D01*
Y35158D01*
Y35423D01*
X46226D01*
Y35161D01*
D02*
G37*
G36*
X47083Y35424D02*
X47088Y35423D01*
X47093Y35423D01*
X47099Y35421D01*
X47106Y35420D01*
X47120Y35416D01*
X47134Y35411D01*
X47142Y35408D01*
X47149Y35404D01*
X47156Y35399D01*
X47162Y35393D01*
X47162Y35393D01*
X47163Y35392D01*
X47164Y35390D01*
X47167Y35388D01*
X47169Y35385D01*
X47172Y35381D01*
X47175Y35377D01*
X47178Y35372D01*
X47184Y35361D01*
X47189Y35348D01*
X47192Y35341D01*
X47193Y35334D01*
X47194Y35326D01*
X47194Y35318D01*
Y35317D01*
Y35314D01*
X47194Y35309D01*
X47193Y35303D01*
X47192Y35297D01*
X47190Y35289D01*
X47188Y35280D01*
X47184Y35272D01*
X47184Y35271D01*
X47183Y35268D01*
X47181Y35264D01*
X47177Y35258D01*
X47173Y35251D01*
X47167Y35243D01*
X47161Y35234D01*
X47153Y35225D01*
X47152Y35224D01*
X47149Y35221D01*
X47146Y35218D01*
X47143Y35215D01*
X47140Y35212D01*
X47136Y35207D01*
X47131Y35203D01*
X47126Y35198D01*
X47120Y35192D01*
X47113Y35186D01*
X47106Y35180D01*
X47098Y35173D01*
X47090Y35166D01*
X47081Y35158D01*
X47080Y35157D01*
X47079Y35156D01*
X47077Y35154D01*
X47074Y35152D01*
X47071Y35149D01*
X47067Y35146D01*
X47058Y35138D01*
X47048Y35130D01*
X47040Y35122D01*
X47032Y35115D01*
X47028Y35112D01*
X47026Y35109D01*
X47025Y35108D01*
X47023Y35107D01*
X47021Y35105D01*
X47018Y35101D01*
X47016Y35097D01*
X47012Y35093D01*
X47006Y35084D01*
X47195D01*
Y35038D01*
X46940D01*
Y35039D01*
Y35041D01*
Y35045D01*
X46941Y35049D01*
X46941Y35054D01*
X46942Y35060D01*
X46944Y35065D01*
X46946Y35071D01*
Y35072D01*
X46946Y35072D01*
X46947Y35076D01*
X46950Y35081D01*
X46953Y35087D01*
X46957Y35095D01*
X46963Y35104D01*
X46969Y35113D01*
X46977Y35122D01*
Y35123D01*
X46978Y35123D01*
X46981Y35127D01*
X46986Y35132D01*
X46993Y35139D01*
X47001Y35147D01*
X47012Y35157D01*
X47025Y35168D01*
X47038Y35180D01*
X47039Y35181D01*
X47041Y35182D01*
X47045Y35185D01*
X47048Y35188D01*
X47053Y35193D01*
X47060Y35198D01*
X47066Y35203D01*
X47073Y35209D01*
X47087Y35223D01*
X47101Y35236D01*
X47107Y35243D01*
X47113Y35249D01*
X47119Y35255D01*
X47123Y35262D01*
Y35262D01*
X47124Y35263D01*
X47126Y35264D01*
X47127Y35267D01*
X47131Y35273D01*
X47135Y35280D01*
X47139Y35289D01*
X47143Y35298D01*
X47145Y35309D01*
X47146Y35319D01*
Y35319D01*
Y35320D01*
X47146Y35323D01*
X47145Y35329D01*
X47143Y35335D01*
X47141Y35343D01*
X47137Y35350D01*
X47132Y35358D01*
X47126Y35366D01*
X47124Y35367D01*
X47122Y35369D01*
X47118Y35372D01*
X47112Y35376D01*
X47104Y35379D01*
X47095Y35383D01*
X47085Y35385D01*
X47073Y35385D01*
X47070D01*
X47067Y35385D01*
X47061Y35384D01*
X47053Y35383D01*
X47045Y35380D01*
X47035Y35376D01*
X47026Y35371D01*
X47018Y35365D01*
X47017Y35364D01*
X47015Y35361D01*
X47011Y35356D01*
X47008Y35350D01*
X47004Y35342D01*
X47001Y35332D01*
X46999Y35321D01*
X46997Y35308D01*
X46949Y35313D01*
Y35314D01*
X46950Y35315D01*
Y35318D01*
X46950Y35322D01*
X46951Y35327D01*
X46952Y35332D01*
X46954Y35338D01*
X46956Y35344D01*
X46960Y35357D01*
X46967Y35370D01*
X46971Y35377D01*
X46976Y35384D01*
X46981Y35390D01*
X46986Y35395D01*
X46987Y35396D01*
X46988Y35396D01*
X46990Y35398D01*
X46992Y35400D01*
X46996Y35402D01*
X47000Y35404D01*
X47004Y35407D01*
X47010Y35410D01*
X47016Y35413D01*
X47022Y35415D01*
X47030Y35418D01*
X47037Y35420D01*
X47046Y35421D01*
X47055Y35423D01*
X47064Y35424D01*
X47074Y35424D01*
X47080D01*
X47083Y35424D01*
D02*
G37*
G36*
X46476Y35422D02*
X46485Y35421D01*
X46495Y35421D01*
X46505Y35420D01*
X46513Y35419D01*
X46514D01*
X46518Y35418D01*
X46523Y35416D01*
X46530Y35415D01*
X46537Y35412D01*
X46544Y35409D01*
X46553Y35405D01*
X46560Y35400D01*
X46561Y35400D01*
X46563Y35398D01*
X46567Y35395D01*
X46571Y35391D01*
X46576Y35386D01*
X46581Y35379D01*
X46587Y35372D01*
X46591Y35364D01*
X46592Y35363D01*
X46593Y35360D01*
X46595Y35355D01*
X46597Y35348D01*
X46599Y35340D01*
X46601Y35332D01*
X46602Y35322D01*
X46603Y35311D01*
Y35310D01*
Y35309D01*
Y35307D01*
X46602Y35303D01*
X46602Y35299D01*
X46601Y35294D01*
X46600Y35288D01*
X46599Y35282D01*
X46595Y35269D01*
X46593Y35263D01*
X46589Y35255D01*
X46586Y35248D01*
X46582Y35242D01*
X46577Y35235D01*
X46571Y35228D01*
X46571Y35228D01*
X46569Y35227D01*
X46568Y35225D01*
X46565Y35223D01*
X46562Y35221D01*
X46557Y35218D01*
X46552Y35214D01*
X46546Y35212D01*
X46538Y35208D01*
X46530Y35205D01*
X46521Y35202D01*
X46511Y35200D01*
X46500Y35198D01*
X46487Y35196D01*
X46473Y35195D01*
X46459Y35194D01*
X46361D01*
Y35038D01*
X46310D01*
Y35423D01*
X46467D01*
X46476Y35422D01*
D02*
G37*
G36*
X32634Y24986D02*
X32641Y24985D01*
X32650Y24983D01*
X32660Y24980D01*
X32670Y24977D01*
X32680Y24972D01*
X32681D01*
X32681Y24972D01*
X32685Y24970D01*
X32690Y24967D01*
X32695Y24963D01*
X32702Y24957D01*
X32708Y24951D01*
X32715Y24944D01*
X32721Y24936D01*
X32721Y24935D01*
X32723Y24932D01*
X32725Y24927D01*
X32728Y24921D01*
X32731Y24913D01*
X32733Y24905D01*
X32734Y24896D01*
X32735Y24886D01*
Y24885D01*
Y24882D01*
X32734Y24877D01*
X32733Y24871D01*
X32732Y24864D01*
X32729Y24856D01*
X32726Y24849D01*
X32721Y24841D01*
X32721Y24840D01*
X32719Y24837D01*
X32716Y24834D01*
X32711Y24829D01*
X32706Y24824D01*
X32699Y24819D01*
X32691Y24814D01*
X32682Y24809D01*
X32682D01*
X32683Y24808D01*
X32685Y24807D01*
X32687Y24807D01*
X32693Y24805D01*
X32701Y24801D01*
X32710Y24797D01*
X32719Y24791D01*
X32727Y24784D01*
X32735Y24776D01*
X32736Y24775D01*
X32738Y24771D01*
X32741Y24766D01*
X32744Y24759D01*
X32748Y24750D01*
X32751Y24739D01*
X32753Y24727D01*
X32754Y24714D01*
Y24713D01*
Y24711D01*
Y24709D01*
X32753Y24705D01*
X32753Y24701D01*
X32752Y24696D01*
X32751Y24690D01*
X32749Y24684D01*
X32745Y24671D01*
X32742Y24664D01*
X32738Y24657D01*
X32734Y24650D01*
X32729Y24643D01*
X32723Y24635D01*
X32717Y24629D01*
X32716Y24628D01*
X32715Y24627D01*
X32713Y24625D01*
X32710Y24623D01*
X32707Y24620D01*
X32702Y24618D01*
X32697Y24614D01*
X32691Y24612D01*
X32685Y24608D01*
X32678Y24605D01*
X32671Y24602D01*
X32662Y24599D01*
X32653Y24597D01*
X32644Y24595D01*
X32635Y24594D01*
X32624Y24594D01*
X32619D01*
X32616Y24594D01*
X32611Y24595D01*
X32606Y24595D01*
X32601Y24597D01*
X32595Y24598D01*
X32581Y24601D01*
X32567Y24607D01*
X32560Y24610D01*
X32554Y24614D01*
X32547Y24619D01*
X32540Y24624D01*
X32540Y24624D01*
X32539Y24625D01*
X32537Y24627D01*
X32535Y24629D01*
X32532Y24632D01*
X32530Y24636D01*
X32526Y24640D01*
X32523Y24645D01*
X32520Y24650D01*
X32516Y24656D01*
X32510Y24669D01*
X32505Y24685D01*
X32504Y24693D01*
X32502Y24702D01*
X32550Y24708D01*
Y24708D01*
X32550Y24706D01*
X32551Y24704D01*
X32551Y24701D01*
X32552Y24698D01*
X32553Y24694D01*
X32556Y24686D01*
X32560Y24676D01*
X32565Y24667D01*
X32570Y24658D01*
X32577Y24650D01*
X32578Y24649D01*
X32580Y24647D01*
X32585Y24644D01*
X32590Y24642D01*
X32597Y24638D01*
X32605Y24635D01*
X32615Y24633D01*
X32625Y24633D01*
X32628D01*
X32630Y24633D01*
X32636Y24634D01*
X32644Y24635D01*
X32653Y24638D01*
X32662Y24642D01*
X32672Y24648D01*
X32681Y24655D01*
X32682Y24657D01*
X32685Y24660D01*
X32688Y24665D01*
X32692Y24672D01*
X32697Y24680D01*
X32700Y24689D01*
X32703Y24700D01*
X32704Y24713D01*
Y24713D01*
Y24714D01*
Y24716D01*
X32703Y24718D01*
X32703Y24724D01*
X32701Y24731D01*
X32699Y24740D01*
X32695Y24749D01*
X32690Y24758D01*
X32682Y24766D01*
X32681Y24768D01*
X32678Y24770D01*
X32674Y24773D01*
X32668Y24777D01*
X32660Y24781D01*
X32651Y24784D01*
X32640Y24786D01*
X32628Y24787D01*
X32623D01*
X32620Y24787D01*
X32615Y24786D01*
X32609Y24785D01*
X32602Y24784D01*
X32595Y24783D01*
X32601Y24824D01*
X32603D01*
X32606Y24824D01*
X32613D01*
X32619Y24825D01*
X32626Y24826D01*
X32635Y24827D01*
X32644Y24830D01*
X32653Y24834D01*
X32662Y24839D01*
X32663D01*
X32663Y24840D01*
X32666Y24842D01*
X32670Y24846D01*
X32675Y24851D01*
X32679Y24858D01*
X32683Y24866D01*
X32686Y24876D01*
X32687Y24881D01*
Y24887D01*
Y24888D01*
Y24889D01*
Y24892D01*
X32686Y24896D01*
X32685Y24902D01*
X32682Y24909D01*
X32680Y24916D01*
X32675Y24923D01*
X32669Y24930D01*
X32668Y24931D01*
X32666Y24933D01*
X32662Y24936D01*
X32657Y24939D01*
X32650Y24942D01*
X32642Y24945D01*
X32633Y24947D01*
X32623Y24947D01*
X32619D01*
X32614Y24946D01*
X32607Y24945D01*
X32600Y24943D01*
X32593Y24940D01*
X32585Y24936D01*
X32578Y24930D01*
X32577Y24930D01*
X32575Y24927D01*
X32572Y24923D01*
X32568Y24917D01*
X32564Y24910D01*
X32560Y24901D01*
X32557Y24891D01*
X32555Y24879D01*
X32507Y24887D01*
Y24887D01*
X32508Y24889D01*
X32509Y24891D01*
X32509Y24895D01*
X32510Y24899D01*
X32512Y24903D01*
X32515Y24913D01*
X32521Y24926D01*
X32527Y24938D01*
X32536Y24950D01*
X32546Y24960D01*
X32547Y24961D01*
X32548Y24961D01*
X32550Y24962D01*
X32552Y24964D01*
X32555Y24966D01*
X32559Y24968D01*
X32562Y24971D01*
X32567Y24973D01*
X32579Y24978D01*
X32591Y24982D01*
X32606Y24985D01*
X32614Y24986D01*
X32628D01*
X32634Y24986D01*
D02*
G37*
G36*
X32335D02*
X32343Y24985D01*
X32352Y24983D01*
X32362Y24980D01*
X32372Y24977D01*
X32381Y24972D01*
X32382D01*
X32383Y24972D01*
X32386Y24970D01*
X32391Y24967D01*
X32396Y24963D01*
X32403Y24957D01*
X32410Y24951D01*
X32416Y24944D01*
X32422Y24936D01*
X32423Y24935D01*
X32424Y24932D01*
X32426Y24927D01*
X32429Y24921D01*
X32432Y24913D01*
X32434Y24905D01*
X32436Y24896D01*
X32436Y24886D01*
Y24885D01*
Y24882D01*
X32436Y24877D01*
X32435Y24871D01*
X32433Y24864D01*
X32430Y24856D01*
X32427Y24849D01*
X32423Y24841D01*
X32422Y24840D01*
X32420Y24837D01*
X32417Y24834D01*
X32413Y24829D01*
X32407Y24824D01*
X32400Y24819D01*
X32393Y24814D01*
X32383Y24809D01*
X32384D01*
X32385Y24808D01*
X32387Y24807D01*
X32389Y24807D01*
X32395Y24805D01*
X32403Y24801D01*
X32411Y24797D01*
X32420Y24791D01*
X32429Y24784D01*
X32436Y24776D01*
X32437Y24775D01*
X32439Y24771D01*
X32443Y24766D01*
X32446Y24759D01*
X32449Y24750D01*
X32453Y24739D01*
X32455Y24727D01*
X32455Y24714D01*
Y24713D01*
Y24711D01*
Y24709D01*
X32455Y24705D01*
X32454Y24701D01*
X32453Y24696D01*
X32452Y24690D01*
X32451Y24684D01*
X32446Y24671D01*
X32443Y24664D01*
X32440Y24657D01*
X32435Y24650D01*
X32430Y24643D01*
X32425Y24635D01*
X32418Y24629D01*
X32418Y24628D01*
X32416Y24627D01*
X32414Y24625D01*
X32411Y24623D01*
X32408Y24620D01*
X32404Y24618D01*
X32399Y24614D01*
X32393Y24612D01*
X32387Y24608D01*
X32379Y24605D01*
X32372Y24602D01*
X32364Y24599D01*
X32355Y24597D01*
X32345Y24595D01*
X32336Y24594D01*
X32325Y24594D01*
X32320D01*
X32317Y24594D01*
X32313Y24595D01*
X32308Y24595D01*
X32302Y24597D01*
X32296Y24598D01*
X32283Y24601D01*
X32269Y24607D01*
X32262Y24610D01*
X32255Y24614D01*
X32248Y24619D01*
X32242Y24624D01*
X32241Y24624D01*
X32240Y24625D01*
X32238Y24627D01*
X32237Y24629D01*
X32234Y24632D01*
X32231Y24636D01*
X32228Y24640D01*
X32224Y24645D01*
X32221Y24650D01*
X32218Y24656D01*
X32212Y24669D01*
X32207Y24685D01*
X32205Y24693D01*
X32204Y24702D01*
X32251Y24708D01*
Y24708D01*
X32252Y24706D01*
X32252Y24704D01*
X32253Y24701D01*
X32253Y24698D01*
X32254Y24694D01*
X32257Y24686D01*
X32261Y24676D01*
X32266Y24667D01*
X32272Y24658D01*
X32278Y24650D01*
X32279Y24649D01*
X32282Y24647D01*
X32286Y24644D01*
X32292Y24642D01*
X32298Y24638D01*
X32307Y24635D01*
X32316Y24633D01*
X32326Y24633D01*
X32329D01*
X32332Y24633D01*
X32338Y24634D01*
X32345Y24635D01*
X32354Y24638D01*
X32364Y24642D01*
X32373Y24648D01*
X32382Y24655D01*
X32383Y24657D01*
X32386Y24660D01*
X32389Y24665D01*
X32394Y24672D01*
X32398Y24680D01*
X32401Y24689D01*
X32404Y24700D01*
X32405Y24713D01*
Y24713D01*
Y24714D01*
Y24716D01*
X32405Y24718D01*
X32404Y24724D01*
X32403Y24731D01*
X32400Y24740D01*
X32396Y24749D01*
X32391Y24758D01*
X32384Y24766D01*
X32383Y24768D01*
X32380Y24770D01*
X32375Y24773D01*
X32369Y24777D01*
X32362Y24781D01*
X32352Y24784D01*
X32342Y24786D01*
X32330Y24787D01*
X32325D01*
X32321Y24787D01*
X32316Y24786D01*
X32310Y24785D01*
X32304Y24784D01*
X32297Y24783D01*
X32302Y24824D01*
X32305D01*
X32307Y24824D01*
X32314D01*
X32320Y24825D01*
X32328Y24826D01*
X32336Y24827D01*
X32345Y24830D01*
X32354Y24834D01*
X32364Y24839D01*
X32364D01*
X32365Y24840D01*
X32368Y24842D01*
X32372Y24846D01*
X32376Y24851D01*
X32380Y24858D01*
X32384Y24866D01*
X32387Y24876D01*
X32388Y24881D01*
Y24887D01*
Y24888D01*
Y24889D01*
Y24892D01*
X32387Y24896D01*
X32386Y24902D01*
X32384Y24909D01*
X32381Y24916D01*
X32377Y24923D01*
X32370Y24930D01*
X32370Y24931D01*
X32367Y24933D01*
X32363Y24936D01*
X32358Y24939D01*
X32352Y24942D01*
X32344Y24945D01*
X32335Y24947D01*
X32325Y24947D01*
X32320D01*
X32315Y24946D01*
X32309Y24945D01*
X32302Y24943D01*
X32294Y24940D01*
X32287Y24936D01*
X32279Y24930D01*
X32279Y24930D01*
X32277Y24927D01*
X32273Y24923D01*
X32269Y24917D01*
X32266Y24910D01*
X32262Y24901D01*
X32258Y24891D01*
X32256Y24879D01*
X32209Y24887D01*
Y24887D01*
X32209Y24889D01*
X32210Y24891D01*
X32211Y24895D01*
X32212Y24899D01*
X32213Y24903D01*
X32217Y24913D01*
X32222Y24926D01*
X32229Y24938D01*
X32237Y24950D01*
X32248Y24960D01*
X32248Y24961D01*
X32249Y24961D01*
X32251Y24962D01*
X32253Y24964D01*
X32256Y24966D01*
X32260Y24968D01*
X32264Y24971D01*
X32269Y24973D01*
X32280Y24978D01*
X32293Y24982D01*
X32308Y24985D01*
X32315Y24986D01*
X32329D01*
X32335Y24986D01*
D02*
G37*
G36*
X31782Y24723D02*
Y24722D01*
Y24720D01*
Y24718D01*
Y24715D01*
X31781Y24710D01*
Y24706D01*
X31780Y24695D01*
X31779Y24683D01*
X31777Y24670D01*
X31773Y24659D01*
X31769Y24648D01*
Y24647D01*
X31769Y24647D01*
X31767Y24643D01*
X31764Y24639D01*
X31760Y24633D01*
X31755Y24627D01*
X31749Y24620D01*
X31741Y24613D01*
X31732Y24608D01*
X31731Y24607D01*
X31728Y24605D01*
X31723Y24603D01*
X31716Y24601D01*
X31707Y24598D01*
X31697Y24596D01*
X31686Y24594D01*
X31673Y24594D01*
X31668D01*
X31665Y24594D01*
X31661Y24595D01*
X31656Y24595D01*
X31644Y24598D01*
X31632Y24601D01*
X31619Y24606D01*
X31613Y24609D01*
X31607Y24613D01*
X31601Y24618D01*
X31596Y24623D01*
X31595Y24623D01*
X31595Y24624D01*
X31593Y24626D01*
X31592Y24628D01*
X31590Y24631D01*
X31587Y24635D01*
X31585Y24639D01*
X31582Y24644D01*
X31580Y24650D01*
X31578Y24657D01*
X31576Y24663D01*
X31573Y24671D01*
X31572Y24679D01*
X31571Y24689D01*
X31570Y24698D01*
Y24709D01*
X31616Y24715D01*
Y24715D01*
Y24714D01*
Y24711D01*
X31617Y24708D01*
X31617Y24705D01*
Y24701D01*
X31619Y24691D01*
X31621Y24681D01*
X31624Y24672D01*
X31627Y24663D01*
X31629Y24659D01*
X31632Y24655D01*
X31633Y24655D01*
X31635Y24653D01*
X31638Y24650D01*
X31643Y24648D01*
X31649Y24644D01*
X31656Y24642D01*
X31664Y24640D01*
X31673Y24639D01*
X31676D01*
X31679Y24640D01*
X31684Y24640D01*
X31689Y24642D01*
X31695Y24643D01*
X31701Y24645D01*
X31706Y24648D01*
X31707Y24648D01*
X31708Y24649D01*
X31711Y24652D01*
X31714Y24654D01*
X31717Y24658D01*
X31720Y24662D01*
X31723Y24666D01*
X31725Y24672D01*
Y24672D01*
X31726Y24674D01*
X31727Y24678D01*
X31728Y24683D01*
X31729Y24690D01*
X31729Y24698D01*
X31730Y24708D01*
Y24720D01*
Y24985D01*
X31782D01*
Y24723D01*
D02*
G37*
G36*
X32031Y24984D02*
X32040Y24983D01*
X32050Y24983D01*
X32060Y24982D01*
X32068Y24981D01*
X32069D01*
X32073Y24980D01*
X32078Y24978D01*
X32085Y24977D01*
X32092Y24974D01*
X32100Y24971D01*
X32108Y24967D01*
X32115Y24962D01*
X32116Y24962D01*
X32118Y24960D01*
X32122Y24957D01*
X32126Y24953D01*
X32131Y24948D01*
X32136Y24941D01*
X32142Y24934D01*
X32146Y24926D01*
X32147Y24925D01*
X32148Y24922D01*
X32150Y24917D01*
X32152Y24910D01*
X32154Y24902D01*
X32156Y24894D01*
X32157Y24884D01*
X32158Y24873D01*
Y24872D01*
Y24871D01*
Y24869D01*
X32157Y24865D01*
X32157Y24861D01*
X32156Y24856D01*
X32155Y24850D01*
X32154Y24844D01*
X32150Y24831D01*
X32148Y24825D01*
X32145Y24817D01*
X32141Y24810D01*
X32137Y24804D01*
X32132Y24797D01*
X32126Y24790D01*
X32126Y24790D01*
X32125Y24789D01*
X32123Y24787D01*
X32120Y24785D01*
X32117Y24783D01*
X32112Y24780D01*
X32107Y24776D01*
X32101Y24774D01*
X32093Y24770D01*
X32085Y24767D01*
X32076Y24764D01*
X32066Y24762D01*
X32055Y24760D01*
X32042Y24758D01*
X32029Y24757D01*
X32014Y24756D01*
X31916D01*
Y24600D01*
X31865D01*
Y24985D01*
X32022D01*
X32031Y24984D01*
D02*
G37*
G36*
X45055Y23605D02*
X44902D01*
X44881Y23501D01*
X44882Y23501D01*
X44883Y23502D01*
X44884Y23503D01*
X44887Y23505D01*
X44891Y23506D01*
X44894Y23509D01*
X44903Y23513D01*
X44914Y23517D01*
X44927Y23521D01*
X44940Y23524D01*
X44947Y23525D01*
X44959D01*
X44962Y23525D01*
X44967Y23524D01*
X44972Y23524D01*
X44977Y23522D01*
X44983Y23521D01*
X44997Y23517D01*
X45004Y23514D01*
X45011Y23510D01*
X45018Y23506D01*
X45025Y23502D01*
X45032Y23496D01*
X45039Y23490D01*
X45039Y23490D01*
X45040Y23489D01*
X45042Y23487D01*
X45044Y23484D01*
X45047Y23480D01*
X45050Y23476D01*
X45053Y23471D01*
X45056Y23466D01*
X45059Y23460D01*
X45063Y23453D01*
X45065Y23445D01*
X45068Y23438D01*
X45070Y23429D01*
X45072Y23420D01*
X45073Y23410D01*
X45074Y23400D01*
Y23400D01*
Y23398D01*
Y23395D01*
X45073Y23391D01*
X45073Y23387D01*
X45072Y23382D01*
X45071Y23376D01*
X45070Y23370D01*
X45066Y23355D01*
X45061Y23340D01*
X45058Y23333D01*
X45053Y23325D01*
X45049Y23318D01*
X45043Y23310D01*
X45043Y23310D01*
X45041Y23308D01*
X45039Y23306D01*
X45036Y23303D01*
X45033Y23300D01*
X45028Y23295D01*
X45023Y23292D01*
X45016Y23287D01*
X45010Y23283D01*
X45002Y23279D01*
X44994Y23275D01*
X44985Y23271D01*
X44975Y23268D01*
X44965Y23266D01*
X44954Y23264D01*
X44942Y23264D01*
X44937D01*
X44933Y23264D01*
X44929Y23265D01*
X44924Y23265D01*
X44918Y23266D01*
X44912Y23268D01*
X44898Y23271D01*
X44884Y23276D01*
X44877Y23279D01*
X44869Y23283D01*
X44863Y23288D01*
X44856Y23293D01*
X44856Y23293D01*
X44854Y23294D01*
X44853Y23296D01*
X44851Y23298D01*
X44848Y23301D01*
X44846Y23304D01*
X44842Y23309D01*
X44839Y23314D01*
X44836Y23319D01*
X44833Y23325D01*
X44827Y23338D01*
X44822Y23354D01*
X44820Y23362D01*
X44819Y23371D01*
X44868Y23375D01*
Y23374D01*
Y23373D01*
X44869Y23371D01*
X44869Y23369D01*
X44871Y23363D01*
X44873Y23354D01*
X44877Y23346D01*
X44881Y23337D01*
X44887Y23328D01*
X44893Y23320D01*
X44894Y23320D01*
X44897Y23318D01*
X44901Y23315D01*
X44907Y23312D01*
X44914Y23308D01*
X44922Y23305D01*
X44932Y23303D01*
X44942Y23303D01*
X44945D01*
X44948Y23303D01*
X44954Y23304D01*
X44962Y23306D01*
X44972Y23309D01*
X44981Y23313D01*
X44991Y23320D01*
X44995Y23324D01*
X45000Y23328D01*
X45000Y23329D01*
X45001Y23329D01*
X45002Y23331D01*
X45004Y23333D01*
X45008Y23339D01*
X45012Y23347D01*
X45016Y23356D01*
X45020Y23368D01*
X45023Y23381D01*
X45024Y23389D01*
Y23396D01*
Y23397D01*
Y23398D01*
Y23400D01*
X45023Y23403D01*
Y23406D01*
X45023Y23410D01*
X45021Y23419D01*
X45018Y23430D01*
X45014Y23440D01*
X45009Y23450D01*
X45001Y23460D01*
Y23460D01*
X45000Y23461D01*
X44997Y23464D01*
X44992Y23467D01*
X44985Y23472D01*
X44977Y23476D01*
X44967Y23480D01*
X44955Y23482D01*
X44948Y23484D01*
X44938D01*
X44933Y23483D01*
X44928Y23482D01*
X44921Y23481D01*
X44914Y23479D01*
X44907Y23476D01*
X44900Y23473D01*
X44899Y23472D01*
X44897Y23471D01*
X44894Y23469D01*
X44889Y23466D01*
X44885Y23462D01*
X44881Y23457D01*
X44876Y23452D01*
X44872Y23446D01*
X44827Y23452D01*
X44864Y23650D01*
X45055D01*
Y23605D01*
D02*
G37*
G36*
X44657Y23656D02*
X44661Y23655D01*
X44667Y23655D01*
X44673Y23653D01*
X44679Y23652D01*
X44693Y23648D01*
X44708Y23643D01*
X44715Y23640D01*
X44722Y23636D01*
X44729Y23631D01*
X44735Y23625D01*
X44736Y23625D01*
X44737Y23624D01*
X44738Y23622D01*
X44740Y23620D01*
X44743Y23617D01*
X44746Y23613D01*
X44748Y23609D01*
X44752Y23604D01*
X44757Y23593D01*
X44763Y23580D01*
X44765Y23574D01*
X44766Y23566D01*
X44767Y23558D01*
X44768Y23550D01*
Y23549D01*
Y23546D01*
X44767Y23541D01*
X44767Y23535D01*
X44766Y23529D01*
X44763Y23521D01*
X44761Y23512D01*
X44758Y23504D01*
X44757Y23503D01*
X44756Y23500D01*
X44754Y23496D01*
X44751Y23490D01*
X44746Y23483D01*
X44741Y23475D01*
X44734Y23466D01*
X44726Y23457D01*
X44725Y23456D01*
X44722Y23453D01*
X44720Y23450D01*
X44717Y23447D01*
X44713Y23444D01*
X44709Y23439D01*
X44705Y23435D01*
X44699Y23430D01*
X44693Y23424D01*
X44687Y23418D01*
X44680Y23412D01*
X44672Y23405D01*
X44663Y23398D01*
X44654Y23390D01*
X44654Y23389D01*
X44652Y23388D01*
X44650Y23386D01*
X44647Y23384D01*
X44644Y23381D01*
X44640Y23378D01*
X44631Y23370D01*
X44622Y23362D01*
X44613Y23354D01*
X44605Y23347D01*
X44602Y23344D01*
X44599Y23341D01*
X44599Y23340D01*
X44597Y23339D01*
X44595Y23337D01*
X44592Y23333D01*
X44589Y23329D01*
X44586Y23325D01*
X44579Y23316D01*
X44768D01*
Y23270D01*
X44514D01*
Y23271D01*
Y23273D01*
Y23277D01*
X44514Y23281D01*
X44515Y23286D01*
X44516Y23292D01*
X44517Y23297D01*
X44519Y23303D01*
Y23304D01*
X44520Y23304D01*
X44521Y23308D01*
X44523Y23313D01*
X44526Y23319D01*
X44531Y23327D01*
X44536Y23336D01*
X44543Y23345D01*
X44550Y23354D01*
Y23355D01*
X44551Y23355D01*
X44554Y23359D01*
X44559Y23364D01*
X44566Y23371D01*
X44575Y23379D01*
X44585Y23389D01*
X44598Y23400D01*
X44612Y23412D01*
X44612Y23413D01*
X44615Y23414D01*
X44618Y23417D01*
X44622Y23420D01*
X44627Y23425D01*
X44633Y23430D01*
X44639Y23435D01*
X44646Y23441D01*
X44660Y23455D01*
X44674Y23468D01*
X44681Y23475D01*
X44687Y23481D01*
X44692Y23487D01*
X44697Y23494D01*
Y23494D01*
X44698Y23495D01*
X44699Y23496D01*
X44700Y23499D01*
X44704Y23505D01*
X44708Y23512D01*
X44712Y23521D01*
X44716Y23530D01*
X44718Y23541D01*
X44720Y23551D01*
Y23551D01*
Y23552D01*
X44719Y23555D01*
X44718Y23561D01*
X44717Y23567D01*
X44715Y23575D01*
X44711Y23582D01*
X44706Y23590D01*
X44699Y23598D01*
X44698Y23599D01*
X44695Y23601D01*
X44691Y23604D01*
X44685Y23608D01*
X44677Y23611D01*
X44669Y23615D01*
X44658Y23617D01*
X44646Y23617D01*
X44643D01*
X44641Y23617D01*
X44634Y23616D01*
X44626Y23615D01*
X44618Y23612D01*
X44609Y23608D01*
X44600Y23603D01*
X44591Y23597D01*
X44590Y23596D01*
X44588Y23593D01*
X44585Y23588D01*
X44581Y23582D01*
X44577Y23574D01*
X44574Y23564D01*
X44572Y23553D01*
X44571Y23540D01*
X44523Y23545D01*
Y23546D01*
X44523Y23547D01*
Y23550D01*
X44524Y23554D01*
X44525Y23559D01*
X44526Y23564D01*
X44528Y23570D01*
X44529Y23576D01*
X44534Y23589D01*
X44540Y23602D01*
X44544Y23609D01*
X44549Y23616D01*
X44554Y23622D01*
X44560Y23627D01*
X44560Y23628D01*
X44561Y23628D01*
X44563Y23630D01*
X44566Y23632D01*
X44569Y23634D01*
X44573Y23636D01*
X44577Y23639D01*
X44583Y23642D01*
X44589Y23645D01*
X44596Y23647D01*
X44603Y23650D01*
X44611Y23652D01*
X44619Y23653D01*
X44628Y23655D01*
X44637Y23656D01*
X44647Y23656D01*
X44653D01*
X44657Y23656D01*
D02*
G37*
G36*
X44399Y23270D02*
X44352D01*
Y23571D01*
X44352Y23570D01*
X44349Y23568D01*
X44346Y23565D01*
X44340Y23561D01*
X44334Y23556D01*
X44326Y23550D01*
X44317Y23544D01*
X44307Y23538D01*
X44307D01*
X44306Y23537D01*
X44303Y23535D01*
X44297Y23532D01*
X44291Y23529D01*
X44283Y23525D01*
X44274Y23521D01*
X44266Y23517D01*
X44258Y23514D01*
Y23560D01*
X44258D01*
X44259Y23561D01*
X44262Y23561D01*
X44264Y23563D01*
X44268Y23565D01*
X44272Y23567D01*
X44281Y23572D01*
X44292Y23578D01*
X44303Y23586D01*
X44315Y23595D01*
X44327Y23605D01*
X44327Y23605D01*
X44328Y23606D01*
X44329Y23607D01*
X44332Y23609D01*
X44337Y23615D01*
X44343Y23621D01*
X44350Y23629D01*
X44357Y23638D01*
X44363Y23647D01*
X44369Y23656D01*
X44399D01*
Y23270D01*
D02*
G37*
G36*
X44037Y23654D02*
X44042D01*
X44054Y23653D01*
X44066Y23652D01*
X44079Y23650D01*
X44091Y23647D01*
X44097Y23646D01*
X44102Y23644D01*
X44103D01*
X44104Y23643D01*
X44107Y23642D01*
X44112Y23640D01*
X44118Y23636D01*
X44125Y23631D01*
X44132Y23624D01*
X44138Y23616D01*
X44145Y23607D01*
Y23607D01*
X44146Y23606D01*
X44148Y23603D01*
X44150Y23597D01*
X44153Y23590D01*
X44156Y23582D01*
X44159Y23572D01*
X44161Y23561D01*
X44161Y23550D01*
Y23549D01*
Y23548D01*
Y23546D01*
X44161Y23543D01*
Y23539D01*
X44160Y23535D01*
X44158Y23526D01*
X44155Y23515D01*
X44150Y23503D01*
X44143Y23491D01*
X44139Y23486D01*
X44135Y23480D01*
X44134Y23480D01*
X44134Y23479D01*
X44132Y23477D01*
X44130Y23476D01*
X44127Y23474D01*
X44124Y23471D01*
X44119Y23469D01*
X44115Y23465D01*
X44109Y23463D01*
X44103Y23460D01*
X44096Y23456D01*
X44089Y23454D01*
X44081Y23451D01*
X44072Y23449D01*
X44063Y23447D01*
X44053Y23445D01*
X44054Y23445D01*
X44056Y23444D01*
X44060Y23441D01*
X44064Y23439D01*
X44074Y23433D01*
X44079Y23429D01*
X44084Y23426D01*
X44085Y23425D01*
X44087Y23422D01*
X44092Y23418D01*
X44097Y23412D01*
X44104Y23404D01*
X44111Y23396D01*
X44118Y23386D01*
X44126Y23375D01*
X44192Y23270D01*
X44128D01*
X44078Y23350D01*
Y23351D01*
X44077Y23352D01*
X44076Y23354D01*
X44074Y23356D01*
X44070Y23362D01*
X44065Y23370D01*
X44059Y23378D01*
X44053Y23387D01*
X44047Y23395D01*
X44041Y23403D01*
X44041Y23404D01*
X44039Y23406D01*
X44036Y23409D01*
X44032Y23413D01*
X44024Y23421D01*
X44020Y23425D01*
X44015Y23429D01*
X44015Y23429D01*
X44014Y23430D01*
X44011Y23431D01*
X44008Y23433D01*
X44005Y23434D01*
X44001Y23436D01*
X43992Y23439D01*
X43991D01*
X43990Y23439D01*
X43988D01*
X43985Y23440D01*
X43981Y23440D01*
X43977D01*
X43971Y23441D01*
X43905D01*
Y23270D01*
X43854D01*
Y23655D01*
X44032D01*
X44037Y23654D01*
D02*
G37*
%LPC*%
G36*
X39031Y33523D02*
X38652D01*
D01*
X39031D01*
D02*
G37*
G36*
X39786Y33511D02*
D01*
Y33354D01*
D01*
Y33511D01*
D02*
G37*
G36*
X42933Y33511D02*
D01*
Y32853D01*
X42931Y32879D01*
X42928Y32903D01*
X42924Y32926D01*
X42920Y32947D01*
X42913Y32968D01*
X42906Y32986D01*
X42899Y33004D01*
X42891Y33019D01*
X42883Y33033D01*
X42876Y33046D01*
X42869Y33055D01*
X42862Y33065D01*
X42858Y33072D01*
X42853Y33076D01*
X42851Y33079D01*
X42849Y33080D01*
X42834Y33096D01*
X42817Y33110D01*
X42801Y33122D01*
X42784Y33132D01*
X42767Y33140D01*
X42751Y33147D01*
X42720Y33158D01*
X42706Y33162D01*
X42692Y33165D01*
X42681Y33166D01*
X42672Y33168D01*
X42663Y33169D01*
X42652D01*
X42633Y33168D01*
X42615Y33165D01*
X42598Y33162D01*
X42581Y33157D01*
X42552Y33143D01*
X42527Y33129D01*
X42508Y33114D01*
X42500Y33107D01*
X42493Y33100D01*
X42487Y33094D01*
X42483Y33092D01*
X42481Y33089D01*
X42480Y33087D01*
X42483Y33117D01*
X42486Y33144D01*
X42488Y33169D01*
X42493Y33191D01*
X42497Y33211D01*
X42501Y33229D01*
X42505Y33244D01*
X42511Y33258D01*
X42515Y33271D01*
X42518Y33280D01*
X42522Y33289D01*
X42525Y33294D01*
X42527Y33300D01*
X42530Y33303D01*
X42531Y33305D01*
X42547Y33323D01*
X42563Y33336D01*
X42580Y33346D01*
X42595Y33351D01*
X42609Y33355D01*
X42620Y33357D01*
X42627Y33358D01*
X42630D01*
X42645Y33357D01*
X42661Y33354D01*
X42673Y33350D01*
X42683Y33346D01*
X42691Y33340D01*
X42697Y33336D01*
X42701Y33333D01*
X42702Y33332D01*
X42712Y33321D01*
X42719Y33308D01*
X42726Y33294D01*
X42730Y33282D01*
X42733Y33269D01*
X42735Y33259D01*
X42737Y33254D01*
Y33251D01*
X42915Y33271D01*
X42905Y33312D01*
X42891Y33347D01*
X42876Y33377D01*
X42860Y33404D01*
X42845Y33423D01*
X42840Y33430D01*
X42833Y33437D01*
X42828Y33441D01*
X42824Y33445D01*
X42823Y33448D01*
X42822D01*
X42808Y33459D01*
X42794Y33469D01*
X42763Y33484D01*
X42733Y33495D01*
X42705Y33502D01*
X42680Y33508D01*
X42669Y33509D01*
X42659D01*
X42652Y33511D01*
X42641D01*
X42612Y33509D01*
X42586Y33505D01*
X42559Y33500D01*
X42536Y33493D01*
X42513Y33483D01*
X42491Y33473D01*
X42473Y33462D01*
X42455Y33452D01*
X42440Y33441D01*
X42426Y33430D01*
X42415Y33420D01*
X42405Y33411D01*
X42397Y33404D01*
X42391Y33398D01*
X42388Y33394D01*
X42387Y33393D01*
X42370Y33369D01*
X42355Y33343D01*
X42343Y33314D01*
X42332Y33284D01*
X42322Y33253D01*
X42314Y33221D01*
X42307Y33189D01*
X42302Y33158D01*
X42298Y33129D01*
X42295Y33101D01*
X42293Y33076D01*
X42291Y33054D01*
X42290Y33036D01*
Y33011D01*
X42291Y32964D01*
X42294Y32921D01*
X42298Y32881D01*
X42305Y32844D01*
X42312Y32810D01*
X42319Y32779D01*
X42327Y32753D01*
X42337Y32728D01*
X42345Y32707D01*
X42354Y32689D01*
X42361Y32674D01*
X42369Y32661D01*
X42375Y32652D01*
X42379Y32645D01*
X42382Y32640D01*
X42383Y32639D01*
X42401Y32620D01*
X42420Y32602D01*
X42440Y32586D01*
X42461Y32574D01*
X42480Y32563D01*
X42501Y32554D01*
X42520Y32546D01*
X42538Y32541D01*
X42556Y32536D01*
X42572Y32532D01*
X42587Y32531D01*
X42599Y32528D01*
X42609D01*
X42616Y32527D01*
X42290Y32527D01*
D01*
X42933Y32527D01*
Y33511D01*
D02*
G37*
G36*
X44032D02*
D01*
Y33241D01*
X44030Y33262D01*
X44028Y33283D01*
X44025Y33303D01*
X44019Y33321D01*
X44006Y33352D01*
X43992Y33380D01*
X43983Y33393D01*
X43976Y33402D01*
X43969Y33412D01*
X43962Y33419D01*
X43957Y33425D01*
X43954Y33430D01*
X43951Y33432D01*
X43950Y33433D01*
X43935Y33447D01*
X43917Y33459D01*
X43900Y33469D01*
X43881Y33477D01*
X43844Y33491D01*
X43808Y33501D01*
X43792Y33504D01*
X43776Y33507D01*
X43763Y33508D01*
X43750Y33509D01*
X43740Y33511D01*
X44032D01*
X43727D01*
X43703Y33509D01*
X43681Y33508D01*
X43638Y33501D01*
X43602Y33490D01*
X43585Y33484D01*
X43570Y33477D01*
X43556Y33472D01*
X43545Y33465D01*
X43534Y33459D01*
X43525Y33455D01*
X43518Y33450D01*
X43514Y33447D01*
X43511Y33445D01*
X43510Y33444D01*
X43495Y33430D01*
X43481Y33416D01*
X43468Y33400D01*
X43457Y33382D01*
X43441Y33346D01*
X43427Y33311D01*
X43423Y33293D01*
X43418Y33278D01*
X43414Y33264D01*
X43413Y33251D01*
X43410Y33240D01*
Y33233D01*
X43409Y33228D01*
Y33226D01*
X43592Y33208D01*
X43595Y33236D01*
X43600Y33259D01*
X43606Y33280D01*
X43613Y33296D01*
X43618Y33308D01*
X43624Y33316D01*
X43628Y33322D01*
X43629Y33323D01*
X43643Y33334D01*
X43659Y33343D01*
X43674Y33350D01*
X43689Y33354D01*
X43702Y33357D01*
X43713Y33358D01*
X43722D01*
X43743Y33357D01*
X43761Y33352D01*
X43776Y33347D01*
X43790Y33341D01*
X43800Y33336D01*
X43808Y33330D01*
X43813Y33326D01*
X43814Y33325D01*
X43825Y33311D01*
X43833Y33296D01*
X43839Y33280D01*
X43843Y33265D01*
X43846Y33251D01*
X43847Y33239D01*
Y33232D01*
Y33230D01*
Y33229D01*
X43846Y33208D01*
X43842Y33189D01*
X43835Y33169D01*
X43828Y33153D01*
X43821Y33137D01*
X43814Y33126D01*
X43810Y33119D01*
X43808Y33117D01*
X43803Y33108D01*
X43795Y33098D01*
X43783Y33086D01*
X43772Y33075D01*
X43747Y33049D01*
X43722Y33022D01*
X43697Y32997D01*
X43686Y32986D01*
X43675Y32978D01*
X43667Y32969D01*
X43661Y32964D01*
X43657Y32960D01*
X43656Y32958D01*
X43628Y32932D01*
X43603Y32907D01*
X43579Y32883D01*
X43559Y32863D01*
X43539Y32842D01*
X43522Y32822D01*
X43507Y32806D01*
X43495Y32789D01*
X43484Y32775D01*
X43474Y32763D01*
X43466Y32753D01*
X43460Y32743D01*
X43454Y32738D01*
X43452Y32732D01*
X43449Y32729D01*
Y32728D01*
X43431Y32696D01*
X43417Y32663D01*
X43406Y32632D01*
X43398Y32604D01*
X43392Y32579D01*
X43391Y32570D01*
X43389Y32561D01*
X43388Y32554D01*
X43386Y32549D01*
Y32545D01*
X44032D01*
Y33511D01*
D02*
G37*
G36*
X41792Y33511D02*
D01*
Y33241D01*
X41790Y33262D01*
X41787Y33283D01*
X41785Y33303D01*
X41779Y33321D01*
X41765Y33352D01*
X41751Y33380D01*
X41743Y33393D01*
X41736Y33402D01*
X41729Y33412D01*
X41722Y33419D01*
X41717Y33425D01*
X41714Y33430D01*
X41711Y33432D01*
X41710Y33433D01*
X41694Y33447D01*
X41676Y33459D01*
X41660Y33469D01*
X41640Y33477D01*
X41604Y33491D01*
X41568Y33501D01*
X41552Y33504D01*
X41536Y33507D01*
X41522Y33508D01*
X41510Y33509D01*
X41500Y33511D01*
X41486D01*
X41463Y33509D01*
X41440Y33508D01*
X41397Y33501D01*
X41361Y33490D01*
X41345Y33484D01*
X41329Y33477D01*
X41316Y33472D01*
X41304Y33465D01*
X41293Y33459D01*
X41285Y33455D01*
X41278Y33450D01*
X41274Y33447D01*
X41271Y33445D01*
X41270Y33444D01*
X41255Y33430D01*
X41241Y33416D01*
X41228Y33400D01*
X41217Y33382D01*
X41200Y33346D01*
X41186Y33311D01*
X41182Y33293D01*
X41178Y33278D01*
X41174Y33264D01*
X41173Y33251D01*
X41170Y33240D01*
Y33233D01*
X41168Y33228D01*
Y33226D01*
X41352Y33208D01*
X41354Y33236D01*
X41360Y33259D01*
X41366Y33280D01*
X41372Y33296D01*
X41378Y33308D01*
X41384Y33316D01*
X41388Y33322D01*
X41389Y33323D01*
X41403Y33334D01*
X41418Y33343D01*
X41434Y33350D01*
X41449Y33354D01*
X41461Y33357D01*
X41472Y33358D01*
X41482D01*
X41503Y33357D01*
X41521Y33352D01*
X41536Y33347D01*
X41550Y33341D01*
X41560Y33336D01*
X41568Y33330D01*
X41572Y33326D01*
X41574Y33325D01*
X41585Y33311D01*
X41593Y33296D01*
X41599Y33280D01*
X41603Y33265D01*
X41606Y33251D01*
X41607Y33239D01*
Y33232D01*
Y33230D01*
Y33229D01*
X41606Y33208D01*
X41602Y33189D01*
X41595Y33169D01*
X41588Y33153D01*
X41581Y33137D01*
X41574Y33126D01*
X41570Y33119D01*
X41568Y33117D01*
X41563Y33108D01*
X41554Y33098D01*
X41543Y33086D01*
X41532Y33075D01*
X41507Y33049D01*
X41482Y33022D01*
X41457Y32997D01*
X41446Y32986D01*
X41435Y32978D01*
X41427Y32969D01*
X41421Y32964D01*
X41417Y32960D01*
X41416Y32958D01*
X41388Y32932D01*
X41363Y32907D01*
X41339Y32883D01*
X41318Y32863D01*
X41299Y32842D01*
X41282Y32822D01*
X41267Y32806D01*
X41255Y32789D01*
X41243Y32775D01*
X41234Y32763D01*
X41225Y32753D01*
X41220Y32743D01*
X41214Y32738D01*
X41211Y32732D01*
X41209Y32729D01*
Y32728D01*
X41191Y32696D01*
X41177Y32663D01*
X41166Y32632D01*
X41157Y32604D01*
X41152Y32579D01*
X41150Y32570D01*
X41149Y32561D01*
X41148Y32554D01*
X41146Y32549D01*
Y32545D01*
X41792D01*
Y33511D01*
D02*
G37*
G36*
X38652Y33523D02*
X38635D01*
X38595Y33522D01*
X38559Y33518D01*
X38527Y33512D01*
X38499Y33507D01*
X38487Y33502D01*
X38476Y33500D01*
X38467Y33497D01*
X38459Y33494D01*
X38454Y33491D01*
X38449Y33490D01*
X38447Y33489D01*
X38445D01*
X38417Y33475D01*
X38394Y33459D01*
X38373Y33443D01*
X38356Y33427D01*
X38342Y33414D01*
X38334Y33402D01*
X38327Y33394D01*
X38326Y33393D01*
Y33391D01*
X38312Y33368D01*
X38302Y33343D01*
X38295Y33319D01*
X38291Y33298D01*
X38288Y33280D01*
X38286Y33266D01*
Y33261D01*
Y33257D01*
Y33255D01*
Y33254D01*
X38287Y33233D01*
X38290Y33212D01*
X38294Y33194D01*
X38299Y33176D01*
X38313Y33143D01*
X38330Y33114D01*
X38337Y33101D01*
X38345Y33092D01*
X38352Y33082D01*
X38359Y33073D01*
X38365Y33068D01*
X38369Y33064D01*
X38372Y33061D01*
X38373Y33060D01*
X38386Y33050D01*
X38401Y33040D01*
X38416Y33030D01*
X38434Y33022D01*
X38469Y33005D01*
X38505Y32992D01*
X38523Y32986D01*
X38538Y32980D01*
X38553Y32976D01*
X38566Y32972D01*
X38576Y32969D01*
X38584Y32967D01*
X38590Y32965D01*
X38591D01*
X38613Y32960D01*
X38633Y32954D01*
X38651Y32950D01*
X38667Y32946D01*
X38681Y32942D01*
X38694Y32939D01*
X38705Y32935D01*
X38714Y32932D01*
X38723Y32931D01*
X38730Y32928D01*
X38739Y32925D01*
X38745Y32922D01*
X38746D01*
X38764Y32915D01*
X38778Y32908D01*
X38791Y32901D01*
X38801Y32894D01*
X38807Y32889D01*
X38812Y32885D01*
X38814Y32882D01*
X38816Y32881D01*
X38823Y32871D01*
X38828Y32861D01*
X38831Y32851D01*
X38834Y32843D01*
X38835Y32835D01*
X38837Y32828D01*
Y32824D01*
Y32822D01*
X38835Y32803D01*
X38830Y32786D01*
X38821Y32770D01*
X38813Y32756D01*
X38803Y32745D01*
X38796Y32736D01*
X38791Y32731D01*
X38788Y32729D01*
X38769Y32717D01*
X38746Y32707D01*
X38723Y32700D01*
X38701Y32696D01*
X38680Y32693D01*
X38663Y32690D01*
X38648D01*
X38616Y32692D01*
X38588Y32697D01*
X38565Y32704D01*
X38544Y32713D01*
X38527Y32721D01*
X38516Y32728D01*
X38509Y32733D01*
X38506Y32735D01*
X38488Y32754D01*
X38474Y32775D01*
X38462Y32799D01*
X38454Y32822D01*
X38447Y32843D01*
X38441Y32860D01*
X38440Y32865D01*
Y32871D01*
X38438Y32874D01*
Y32875D01*
X38249Y32857D01*
D01*
X38254Y32828D01*
X38259Y32800D01*
X38268Y32774D01*
X38274Y32750D01*
X38284Y32728D01*
X38294Y32707D01*
X38304Y32689D01*
X38313Y32672D01*
X38323Y32658D01*
X38333Y32646D01*
X38341Y32635D01*
X38349Y32625D01*
X38355Y32618D01*
X38361Y32614D01*
X38363Y32611D01*
X38365Y32610D01*
X38384Y32595D01*
X38405Y32582D01*
X38427Y32571D01*
X38451Y32561D01*
X38473Y32554D01*
X38497Y32547D01*
X38542Y32538D01*
X38563Y32534D01*
X38583Y32531D01*
X38599Y32529D01*
X38615Y32528D01*
X38627Y32527D01*
X38249D01*
D01*
X39031D01*
Y32824D01*
X39030Y32857D01*
X39025Y32886D01*
X39018Y32912D01*
X39011Y32935D01*
X39005Y32953D01*
X38998Y32965D01*
X38993Y32974D01*
X38992Y32976D01*
X38977Y32999D01*
X38959Y33018D01*
X38941Y33035D01*
X38924Y33049D01*
X38909Y33060D01*
X38896Y33068D01*
X38888Y33073D01*
X38887Y33075D01*
X38885D01*
X38871Y33082D01*
X38857Y33089D01*
X38824Y33101D01*
X38789Y33112D01*
X38756Y33123D01*
X38741Y33128D01*
X38726Y33132D01*
X38712Y33136D01*
X38701Y33139D01*
X38691Y33142D01*
X38684Y33143D01*
X38678Y33144D01*
X38677D01*
X38652Y33151D01*
X38630Y33157D01*
X38609Y33162D01*
X38590Y33168D01*
X38574Y33173D01*
X38559Y33179D01*
X38547Y33185D01*
X38535Y33189D01*
X38526Y33193D01*
X38519Y33197D01*
X38512Y33200D01*
X38508Y33203D01*
X38501Y33207D01*
X38499Y33208D01*
X38490Y33218D01*
X38483Y33228D01*
X38479Y33237D01*
X38476Y33247D01*
X38473Y33254D01*
X38472Y33261D01*
Y33265D01*
Y33266D01*
X38473Y33280D01*
X38476Y33291D01*
X38481Y33303D01*
X38487Y33311D01*
X38492Y33318D01*
X38498Y33322D01*
X38501Y33325D01*
X38502Y33326D01*
X38522Y33339D01*
X38542Y33347D01*
X38565Y33354D01*
X38585Y33358D01*
X38603Y33361D01*
X38619Y33362D01*
X38633D01*
X38662Y33361D01*
X38687Y33357D01*
X38708Y33351D01*
X38724Y33346D01*
X38738Y33340D01*
X38748Y33334D01*
X38753Y33330D01*
X38755Y33329D01*
X38769Y33315D01*
X38781Y33298D01*
X38791Y33282D01*
X38798Y33264D01*
X38803Y33248D01*
X38806Y33236D01*
X38809Y33226D01*
Y33225D01*
Y33223D01*
X39003Y33230D01*
X39002Y33255D01*
X38998Y33278D01*
X38992Y33300D01*
X38985Y33319D01*
X38978Y33339D01*
X38970Y33357D01*
X38962Y33372D01*
X38953Y33387D01*
X38943Y33400D01*
X38935Y33411D01*
X38927Y33420D01*
X38920Y33429D01*
X38914Y33434D01*
X38910Y33439D01*
X38907Y33441D01*
X38906Y33443D01*
X38888Y33457D01*
X38869Y33469D01*
X38848Y33480D01*
X38826Y33490D01*
X38803Y33497D01*
X38781Y33504D01*
X38737Y33513D01*
X38716Y33516D01*
X38698Y33519D01*
X38680Y33520D01*
X38664Y33522D01*
X38652Y33523D01*
D02*
G37*
G36*
X35300Y33523D02*
X35283D01*
X35247Y33522D01*
X35211Y33518D01*
X35179Y33511D01*
X35147Y33502D01*
X35120Y33493D01*
X35092Y33482D01*
X35068Y33469D01*
X35046Y33457D01*
X35025Y33444D01*
X35008Y33432D01*
X34993Y33420D01*
X34981Y33411D01*
X34971Y33402D01*
X34964Y33396D01*
X34960Y33391D01*
X34959Y33390D01*
X34936Y33364D01*
X34918Y33336D01*
X34902Y33307D01*
X34888Y33276D01*
X34875Y33244D01*
X34866Y33214D01*
X34857Y33183D01*
X34850Y33154D01*
X34845Y33125D01*
X34842Y33100D01*
X34839Y33076D01*
X34836Y33057D01*
Y33040D01*
X34835Y33028D01*
Y33017D01*
X34836Y32975D01*
X34841Y32936D01*
X34846Y32899D01*
X34854Y32865D01*
X34863Y32833D01*
X34874Y32803D01*
X34885Y32776D01*
X34896Y32753D01*
X34907Y32731D01*
X34918Y32711D01*
X34929Y32696D01*
X34938Y32682D01*
X34946Y32672D01*
X34952Y32664D01*
X34956Y32660D01*
X34957Y32658D01*
X34981Y32635D01*
X35006Y32615D01*
X35032Y32597D01*
X35058Y32584D01*
X35085Y32571D01*
X35111Y32560D01*
X35136Y32552D01*
X35160Y32545D01*
X35183Y32539D01*
X35204Y32535D01*
X35224Y32532D01*
X35239Y32531D01*
X35253Y32529D01*
X35262Y32528D01*
X34835D01*
D01*
X35671D01*
Y32839D01*
X35482Y32897D01*
X35471Y32860D01*
X35458Y32828D01*
X35446Y32801D01*
X35432Y32779D01*
X35421Y32763D01*
X35411Y32751D01*
X35404Y32745D01*
X35401Y32742D01*
X35379Y32725D01*
X35357Y32714D01*
X35335Y32706D01*
X35315Y32699D01*
X35297Y32696D01*
X35282Y32695D01*
X35276Y32693D01*
X35269D01*
X35250Y32695D01*
X35232Y32696D01*
X35199Y32706D01*
X35169Y32717D01*
X35146Y32732D01*
X35126Y32746D01*
X35113Y32757D01*
X35107Y32763D01*
X35103Y32767D01*
X35101Y32768D01*
X35100Y32770D01*
X35089Y32785D01*
X35079Y32803D01*
X35070Y32822D01*
X35063Y32843D01*
X35052Y32886D01*
X35043Y32929D01*
X35040Y32950D01*
X35039Y32968D01*
X35036Y32986D01*
Y33001D01*
X35035Y33012D01*
Y33022D01*
Y33029D01*
Y33030D01*
X35036Y33062D01*
X35038Y33092D01*
X35040Y33118D01*
X35045Y33143D01*
X35050Y33165D01*
X35056Y33186D01*
X35061Y33204D01*
X35068Y33221D01*
X35074Y33235D01*
X35079Y33247D01*
X35085Y33257D01*
X35090Y33265D01*
X35095Y33272D01*
X35097Y33276D01*
X35100Y33279D01*
Y33280D01*
X35113Y33294D01*
X35126Y33307D01*
X35140Y33316D01*
X35156Y33325D01*
X35185Y33339D01*
X35213Y33348D01*
X35236Y33354D01*
X35247Y33355D01*
X35256Y33357D01*
X35264Y33358D01*
X35274D01*
X35301Y33357D01*
X35326Y33351D01*
X35349Y33344D01*
X35368Y33336D01*
X35383Y33327D01*
X35394Y33321D01*
X35401Y33315D01*
X35404Y33314D01*
X35422Y33297D01*
X35439Y33278D01*
X35451Y33258D01*
X35461Y33239D01*
X35468Y33222D01*
X35472Y33210D01*
X35475Y33204D01*
Y33200D01*
X35476Y33198D01*
Y33197D01*
X35668Y33243D01*
X35654Y33283D01*
X35639Y33318D01*
X35622Y33348D01*
X35607Y33373D01*
X35591Y33393D01*
X35586Y33401D01*
X35580Y33408D01*
X35576Y33412D01*
X35572Y33416D01*
X35571Y33419D01*
X35569D01*
X35548Y33437D01*
X35525Y33454D01*
X35503Y33468D01*
X35479Y33479D01*
X35454Y33490D01*
X35430Y33498D01*
X35407Y33505D01*
X35385Y33511D01*
X35364Y33515D01*
X35344Y33518D01*
X35328Y33520D01*
X35312Y33522D01*
X35300Y33523D01*
D02*
G37*
G36*
X39786Y33351D02*
Y33153D01*
D01*
Y33351D01*
D02*
G37*
G36*
X36988Y33257D02*
X36977D01*
X36960Y33255D01*
X36946Y33254D01*
X36932Y33250D01*
X36921Y33246D01*
X36911Y33241D01*
X36903Y33239D01*
X36899Y33236D01*
X36898Y33235D01*
X36884Y33225D01*
X36871Y33211D01*
X36857Y33196D01*
X36846Y33180D01*
X36835Y33165D01*
X36827Y33153D01*
X36821Y33144D01*
X36820Y33143D01*
Y33241D01*
X36649Y33241D01*
Y32545D01*
X37099Y32545D01*
D01*
X36834D01*
Y32758D01*
Y32790D01*
Y32819D01*
X36835Y32846D01*
X36836Y32869D01*
Y32892D01*
X36838Y32910D01*
X36839Y32928D01*
X36841Y32942D01*
X36842Y32954D01*
X36843Y32965D01*
X36845Y32974D01*
Y32980D01*
X36846Y32985D01*
X36848Y32989D01*
Y32992D01*
X36853Y33011D01*
X36860Y33028D01*
X36867Y33042D01*
X36874Y33051D01*
X36880Y33060D01*
X36885Y33065D01*
X36888Y33068D01*
X36889Y33069D01*
X36900Y33076D01*
X36911Y33082D01*
X36923Y33086D01*
X36932Y33089D01*
X36941Y33090D01*
X36949Y33092D01*
X36954D01*
X36970Y33090D01*
X36985Y33087D01*
X36999Y33082D01*
X37013Y33076D01*
X37024Y33071D01*
X37032Y33065D01*
X37039Y33062D01*
X37041Y33061D01*
X37099Y33221D01*
X37077Y33233D01*
X37056Y33241D01*
X37035Y33248D01*
X37016Y33253D01*
X37000Y33255D01*
X36988Y33257D01*
D02*
G37*
G36*
X39786Y33151D02*
Y33129D01*
D01*
Y33151D01*
D02*
G37*
G36*
X35794Y33112D02*
D01*
D01*
D01*
D02*
G37*
G36*
X39786Y33128D02*
Y33075D01*
D01*
Y33128D01*
D02*
G37*
G36*
Y33073D02*
Y33068D01*
D01*
Y33073D01*
D02*
G37*
G36*
X35794Y33030D02*
Y33029D01*
D01*
Y33030D01*
D02*
G37*
G36*
Y32996D02*
Y32994D01*
D01*
Y32996D01*
D02*
G37*
G36*
Y32967D02*
Y32965D01*
D01*
Y32967D01*
D02*
G37*
G36*
Y32964D02*
D01*
D01*
D01*
D02*
G37*
G36*
Y32957D02*
Y32956D01*
D01*
Y32957D01*
D02*
G37*
G36*
X41113Y33505D02*
X40906D01*
X40672Y32794D01*
X40427Y33505D01*
X40628D01*
X40218D01*
D01*
X40562Y32545D01*
X40218D01*
X40771D01*
X41113Y33505D01*
D02*
G37*
G36*
X39470Y33511D02*
X39457D01*
X39428Y33509D01*
X39402Y33507D01*
X39377Y33501D01*
X39356Y33495D01*
X39339Y33490D01*
X39325Y33484D01*
X39317Y33482D01*
X39315Y33480D01*
X39314D01*
X39292Y33468D01*
X39271Y33454D01*
X39254Y33440D01*
X39241Y33427D01*
X39229Y33415D01*
X39221Y33405D01*
X39216Y33400D01*
X39214Y33397D01*
X39202Y33376D01*
X39191Y33354D01*
X39182Y33330D01*
X39174Y33308D01*
X39168Y33287D01*
X39164Y33272D01*
X39163Y33265D01*
Y33261D01*
X39161Y33258D01*
Y33257D01*
X39331Y33229D01*
X39335Y33251D01*
X39340Y33271D01*
X39346Y33287D01*
X39353Y33300D01*
X39360Y33311D01*
X39365Y33319D01*
X39370Y33323D01*
X39371Y33325D01*
X39383Y33336D01*
X39397Y33344D01*
X39411Y33350D01*
X39424Y33354D01*
X39435Y33357D01*
X39443Y33358D01*
X39451D01*
X39468Y33357D01*
X39485Y33354D01*
X39497Y33348D01*
X39508Y33344D01*
X39518Y33339D01*
X39524Y33333D01*
X39528Y33330D01*
X39529Y33329D01*
X39539Y33318D01*
X39546Y33304D01*
X39551Y33291D01*
X39554Y33279D01*
X39557Y33268D01*
X39558Y33259D01*
Y33254D01*
Y33251D01*
X39557Y33230D01*
X39553Y33212D01*
X39546Y33197D01*
X39539Y33185D01*
X39531Y33173D01*
X39525Y33166D01*
X39520Y33161D01*
X39518Y33160D01*
X39501Y33148D01*
X39483Y33140D01*
X39464Y33135D01*
X39446Y33130D01*
X39429Y33129D01*
X39415Y33128D01*
X39403D01*
X39383Y32979D01*
X39402Y32983D01*
X39417Y32987D01*
X39432Y32990D01*
X39445Y32992D01*
X39454Y32993D01*
X39468D01*
X39488Y32992D01*
X39504Y32986D01*
X39520Y32980D01*
X39533Y32972D01*
X39543Y32965D01*
X39551Y32958D01*
X39557Y32953D01*
X39558Y32951D01*
X39571Y32935D01*
X39581Y32917D01*
X39588Y32899D01*
X39593Y32881D01*
X39596Y32864D01*
X39597Y32851D01*
Y32843D01*
Y32842D01*
Y32840D01*
X39596Y32814D01*
X39592Y32790D01*
X39585Y32770D01*
X39578Y32753D01*
X39569Y32740D01*
X39564Y32731D01*
X39558Y32724D01*
X39557Y32722D01*
X39542Y32708D01*
X39525Y32697D01*
X39510Y32690D01*
X39495Y32685D01*
X39481Y32682D01*
X39471Y32681D01*
X39464Y32679D01*
X39461D01*
X39442Y32681D01*
X39425Y32685D01*
X39410Y32690D01*
X39396Y32697D01*
X39386Y32703D01*
X39378Y32708D01*
X39372Y32713D01*
X39371Y32714D01*
X39358Y32729D01*
X39347Y32746D01*
X39340Y32764D01*
X39334Y32781D01*
X39329Y32796D01*
X39327Y32808D01*
X39325Y32817D01*
Y32818D01*
Y32819D01*
X39148Y32797D01*
D01*
X39150Y32775D01*
X39156Y32754D01*
X39168Y32715D01*
X39184Y32682D01*
X39193Y32668D01*
X39202Y32654D01*
X39210Y32642D01*
X39218Y32632D01*
X39225Y32622D01*
X39232Y32615D01*
X39238Y32610D01*
X39242Y32606D01*
X39245Y32603D01*
X39246Y32602D01*
X39263Y32589D01*
X39281Y32577D01*
X39297Y32567D01*
X39317Y32559D01*
X39353Y32545D01*
X39386Y32536D01*
X39403Y32534D01*
X39417Y32531D01*
X39429Y32529D01*
X39440Y32528D01*
X39450Y32527D01*
X39148D01*
X39786D01*
Y33068D01*
Y32832D01*
X39783Y32864D01*
X39778Y32892D01*
X39771Y32918D01*
X39761Y32939D01*
X39751Y32957D01*
X39744Y32969D01*
X39739Y32978D01*
X39736Y32980D01*
X39717Y33001D01*
X39694Y33019D01*
X39672Y33033D01*
X39651Y33044D01*
X39633Y33053D01*
X39618Y33057D01*
X39612Y33060D01*
X39608D01*
X39606Y33061D01*
X39604D01*
X39629Y33076D01*
X39650Y33092D01*
X39668Y33108D01*
X39685Y33125D01*
X39699Y33142D01*
X39710Y33158D01*
X39718Y33175D01*
X39726Y33190D01*
X39732Y33205D01*
X39736Y33219D01*
X39739Y33232D01*
X39740Y33243D01*
X39742Y33251D01*
X39743Y33258D01*
Y33262D01*
Y33264D01*
X39742Y33280D01*
X39740Y33296D01*
X39732Y33326D01*
X39722Y33354D01*
X39710Y33377D01*
X39697Y33397D01*
X39686Y33411D01*
X39682Y33416D01*
X39678Y33420D01*
X39676Y33422D01*
X39675Y33423D01*
X39660Y33439D01*
X39642Y33452D01*
X39625Y33464D01*
X39607Y33473D01*
X39588Y33483D01*
X39569Y33490D01*
X39535Y33500D01*
X39520Y33504D01*
X39504Y33507D01*
X39492Y33508D01*
X39479Y33509D01*
X39470Y33511D01*
D02*
G37*
G36*
X43260Y32729D02*
X43076D01*
Y32545D01*
X43260D01*
Y32729D01*
D02*
G37*
G36*
X42140Y32729D02*
X41955D01*
Y32545D01*
X42140D01*
Y32729D01*
D02*
G37*
G36*
X41113Y33505D02*
D01*
Y32545D01*
X40807D01*
X41113D01*
Y33505D01*
D02*
G37*
G36*
X36167Y33257D02*
X35794D01*
X36152D01*
X36115Y33255D01*
X36080Y33250D01*
X36048Y33243D01*
X36020Y33235D01*
X36009Y33229D01*
X35998Y33225D01*
X35988Y33222D01*
X35981Y33218D01*
X35975Y33215D01*
X35970Y33212D01*
X35968Y33211D01*
X35966D01*
X35937Y33191D01*
X35912Y33171D01*
X35890Y33148D01*
X35872Y33128D01*
X35858Y33108D01*
X35847Y33093D01*
X35843Y33087D01*
X35841Y33083D01*
X35839Y33080D01*
Y33079D01*
X35823Y33047D01*
X35814Y33015D01*
X35805Y32986D01*
X35800Y32960D01*
X35797Y32936D01*
X35795Y32926D01*
Y32918D01*
X35794Y32912D01*
Y32903D01*
X35795Y32860D01*
X35801Y32819D01*
X35808Y32785D01*
X35812Y32770D01*
X35816Y32756D01*
X35820Y32743D01*
X35825Y32732D01*
X35829Y32722D01*
X35832Y32714D01*
X35834Y32707D01*
X35837Y32703D01*
X35839Y32700D01*
Y32699D01*
X35858Y32670D01*
X35879Y32645D01*
X35901Y32622D01*
X35922Y32604D01*
X35941Y32590D01*
X35956Y32581D01*
X35962Y32577D01*
X35966Y32574D01*
X35969Y32572D01*
X35970D01*
X36004Y32559D01*
X36036Y32547D01*
X36066Y32541D01*
X36095Y32535D01*
X36119Y32532D01*
X36129Y32531D01*
X36137D01*
X36144Y32529D01*
X36154D01*
X36183Y32531D01*
X36209Y32534D01*
X36235Y32539D01*
X36259Y32546D01*
X36283Y32553D01*
X36304Y32561D01*
X36323Y32571D01*
X36341Y32581D01*
X36356Y32590D01*
X36370Y32600D01*
X36383Y32609D01*
X36392Y32615D01*
X36401Y32622D01*
X36406Y32628D01*
X36409Y32631D01*
X36410Y32632D01*
X36428Y32653D01*
X36444Y32674D01*
X36458Y32695D01*
X36470Y32717D01*
X36480Y32739D01*
X36488Y32761D01*
X36495Y32782D01*
X36501Y32803D01*
X36505Y32821D01*
X36508Y32839D01*
X36510Y32854D01*
X36512Y32868D01*
X36513Y32879D01*
Y32536D01*
Y32879D01*
Y32894D01*
X36512Y32924D01*
X36509Y32951D01*
X36503Y32976D01*
X36498Y33001D01*
X36489Y33024D01*
X36481Y33046D01*
X36471Y33065D01*
X36463Y33083D01*
X36453Y33098D01*
X36444Y33114D01*
X36435Y33125D01*
X36427Y33136D01*
X36421Y33143D01*
X36416Y33150D01*
X36413Y33153D01*
X36412Y33154D01*
X36392Y33172D01*
X36372Y33187D01*
X36351Y33201D01*
X36328Y33214D01*
X36306Y33223D01*
X36285Y33232D01*
X36265Y33239D01*
X36244Y33244D01*
X36226Y33248D01*
X36208Y33251D01*
X36192Y33254D01*
X36179Y33255D01*
X36167Y33257D01*
D02*
G37*
G36*
X37458Y33257D02*
X37443D01*
X37418Y33255D01*
X37394Y33253D01*
X37371Y33247D01*
X37350Y33241D01*
X37329Y33235D01*
X37311Y33226D01*
X37293Y33216D01*
X37278Y33208D01*
X37264Y33198D01*
X37252Y33189D01*
X37240Y33180D01*
X37232Y33173D01*
X37225Y33168D01*
X37220Y33162D01*
X37217Y33160D01*
X37215Y33158D01*
X37200Y33139D01*
X37186Y33118D01*
X37174Y33097D01*
X37163Y33075D01*
X37154Y33051D01*
X37147Y33029D01*
X37136Y32986D01*
X37132Y32965D01*
X37129Y32947D01*
X37128Y32931D01*
X37127Y32917D01*
X37125Y32904D01*
Y32529D01*
Y32887D01*
X37127Y32861D01*
X37128Y32835D01*
X37132Y32811D01*
X37136Y32789D01*
X37140Y32767D01*
X37147Y32747D01*
X37153Y32729D01*
X37160Y32713D01*
X37165Y32697D01*
X37172Y32685D01*
X37178Y32674D01*
X37182Y32664D01*
X37188Y32657D01*
X37190Y32652D01*
X37192Y32649D01*
X37193Y32647D01*
X37211Y32627D01*
X37229Y32609D01*
X37250Y32593D01*
X37272Y32579D01*
X37295Y32568D01*
X37317Y32559D01*
X37339Y32550D01*
X37361Y32545D01*
X37381Y32539D01*
X37400Y32536D01*
X37418Y32534D01*
X37433Y32531D01*
X37446D01*
X37454Y32529D01*
X37775D01*
X37462D01*
X37503Y32532D01*
X37540Y32538D01*
X37572Y32546D01*
X37600Y32556D01*
X37612Y32561D01*
X37622Y32565D01*
X37632Y32570D01*
X37639Y32574D01*
X37644Y32578D01*
X37650Y32579D01*
X37651Y32582D01*
X37653D01*
X37679Y32604D01*
X37703Y32628D01*
X37722Y32654D01*
X37737Y32679D01*
X37750Y32702D01*
X37754Y32711D01*
X37758Y32720D01*
X37761Y32726D01*
X37764Y32732D01*
X37765Y32735D01*
Y32736D01*
X37582Y32767D01*
X37575Y32749D01*
X37568Y32732D01*
X37561Y32720D01*
X37553Y32708D01*
X37547Y32700D01*
X37542Y32695D01*
X37537Y32692D01*
X37536Y32690D01*
X37525Y32682D01*
X37512Y32677D01*
X37500Y32672D01*
X37489Y32670D01*
X37479Y32668D01*
X37471Y32667D01*
X37464D01*
X37442Y32668D01*
X37421Y32674D01*
X37401Y32681D01*
X37386Y32689D01*
X37374Y32697D01*
X37365Y32704D01*
X37358Y32710D01*
X37357Y32711D01*
X37343Y32729D01*
X37333Y32750D01*
X37325Y32772D01*
X37320Y32792D01*
X37317Y32811D01*
X37315Y32825D01*
X37314Y32831D01*
Y32835D01*
Y32838D01*
Y32839D01*
X37775D01*
Y32881D01*
Y32878D01*
X37772Y32912D01*
X37768Y32946D01*
X37762Y32976D01*
X37755Y33005D01*
X37748Y33030D01*
X37740Y33054D01*
X37732Y33075D01*
X37723Y33093D01*
X37715Y33110D01*
X37708Y33122D01*
X37701Y33133D01*
X37696Y33142D01*
X37692Y33148D01*
X37689Y33151D01*
X37687Y33153D01*
X37671Y33171D01*
X37651Y33187D01*
X37632Y33201D01*
X37612Y33212D01*
X37592Y33223D01*
X37571Y33232D01*
X37551Y33239D01*
X37532Y33244D01*
X37514Y33248D01*
X37497Y33251D01*
X37482Y33254D01*
X37469Y33255D01*
X37458Y33257D01*
D02*
G37*
G36*
X44823Y33505D02*
X44497D01*
Y33362D01*
X44648D01*
Y32418D01*
X44497D01*
Y32274D01*
X44823D01*
Y33505D01*
D02*
G37*
G36*
X34374Y33505D02*
X34048D01*
Y32274D01*
X34374D01*
Y33505D01*
D02*
G37*
%LPD*%
G36*
X42642Y33032D02*
X42661Y33026D01*
X42676Y33019D01*
X42690Y33011D01*
X42701Y33003D01*
X42708Y32996D01*
X42713Y32990D01*
X42715Y32989D01*
X42727Y32971D01*
X42737Y32949D01*
X42742Y32925D01*
X42748Y32903D01*
X42751Y32882D01*
X42752Y32865D01*
Y32860D01*
Y32854D01*
Y32851D01*
Y32850D01*
X42751Y32818D01*
X42747Y32790D01*
X42741Y32768D01*
X42735Y32750D01*
X42729Y32736D01*
X42723Y32726D01*
X42719Y32720D01*
X42717Y32718D01*
X42704Y32706D01*
X42690Y32696D01*
X42674Y32689D01*
X42662Y32685D01*
X42649Y32682D01*
X42640Y32679D01*
X42631D01*
X42612Y32682D01*
X42594Y32688D01*
X42579Y32695D01*
X42565Y32704D01*
X42554Y32713D01*
X42544Y32721D01*
X42538Y32726D01*
X42537Y32728D01*
X42523Y32747D01*
X42513Y32770D01*
X42506Y32793D01*
X42502Y32815D01*
X42500Y32836D01*
X42497Y32851D01*
Y32858D01*
Y32863D01*
Y32865D01*
Y32867D01*
X42498Y32896D01*
X42502Y32921D01*
X42508Y32942D01*
X42515Y32960D01*
X42522Y32972D01*
X42527Y32982D01*
X42531Y32989D01*
X42533Y32990D01*
X42547Y33004D01*
X42562Y33015D01*
X42577Y33022D01*
X42591Y33028D01*
X42604Y33030D01*
X42615Y33033D01*
X42623D01*
X42642Y33032D01*
D02*
G37*
G36*
X42933Y32527D02*
X42623D01*
X42648Y32528D01*
X42672Y32531D01*
X42694Y32535D01*
X42715Y32541D01*
X42735Y32547D01*
X42754Y32554D01*
X42770Y32563D01*
X42785Y32571D01*
X42799Y32579D01*
X42810Y32588D01*
X42822Y32595D01*
X42830Y32602D01*
X42837Y32607D01*
X42841Y32611D01*
X42844Y32614D01*
X42845Y32615D01*
X42860Y32632D01*
X42874Y32652D01*
X42885Y32671D01*
X42895Y32690D01*
X42905Y32710D01*
X42912Y32729D01*
X42921Y32768D01*
X42926Y32785D01*
X42928Y32801D01*
X42930Y32815D01*
X42931Y32828D01*
X42933Y32839D01*
Y32527D01*
D02*
G37*
G36*
X44032Y32715D02*
X43665D01*
X43677Y32733D01*
X43689Y32749D01*
X43695Y32756D01*
X43699Y32761D01*
X43702Y32764D01*
X43703Y32765D01*
X43708Y32771D01*
X43714Y32778D01*
X43731Y32793D01*
X43749Y32811D01*
X43767Y32829D01*
X43785Y32846D01*
X43800Y32860D01*
X43806Y32865D01*
X43810Y32869D01*
X43813Y32871D01*
X43814Y32872D01*
X43844Y32901D01*
X43869Y32925D01*
X43890Y32947D01*
X43907Y32964D01*
X43919Y32978D01*
X43928Y32987D01*
X43933Y32994D01*
X43935Y32996D01*
X43953Y33019D01*
X43968Y33042D01*
X43981Y33062D01*
X43990Y33080D01*
X43999Y33096D01*
X44004Y33108D01*
X44007Y33115D01*
X44008Y33118D01*
X44017Y33140D01*
X44022Y33162D01*
X44026Y33183D01*
X44029Y33203D01*
X44030Y33218D01*
X44032Y33230D01*
Y32715D01*
D02*
G37*
G36*
X41792Y32715D02*
X41425D01*
X41436Y32733D01*
X41449Y32749D01*
X41454Y32756D01*
X41459Y32761D01*
X41461Y32764D01*
X41463Y32765D01*
X41468Y32771D01*
X41474Y32778D01*
X41490Y32793D01*
X41508Y32811D01*
X41527Y32829D01*
X41545Y32846D01*
X41560Y32860D01*
X41565Y32865D01*
X41570Y32869D01*
X41572Y32871D01*
X41574Y32872D01*
X41604Y32901D01*
X41629Y32925D01*
X41650Y32947D01*
X41667Y32964D01*
X41679Y32978D01*
X41688Y32987D01*
X41693Y32994D01*
X41694Y32996D01*
X41713Y33019D01*
X41728Y33042D01*
X41740Y33062D01*
X41750Y33080D01*
X41758Y33096D01*
X41764Y33108D01*
X41767Y33115D01*
X41768Y33118D01*
X41776Y33140D01*
X41782Y33162D01*
X41786Y33183D01*
X41789Y33203D01*
X41790Y33218D01*
X41792Y33230D01*
Y32715D01*
D02*
G37*
G36*
X39031Y32527D02*
X38645D01*
X38689Y32528D01*
X38730Y32532D01*
X38766Y32538D01*
X38781Y32541D01*
X38796Y32545D01*
X38809Y32547D01*
X38820Y32550D01*
X38830Y32553D01*
X38838Y32556D01*
X38845Y32559D01*
X38849Y32560D01*
X38852Y32561D01*
X38853D01*
X38884Y32577D01*
X38909Y32593D01*
X38932Y32610D01*
X38950Y32628D01*
X38964Y32643D01*
X38975Y32657D01*
X38981Y32665D01*
X38984Y32667D01*
Y32668D01*
X38999Y32696D01*
X39011Y32722D01*
X39020Y32749D01*
X39025Y32774D01*
X39028Y32793D01*
X39030Y32803D01*
X39031Y32810D01*
Y32527D01*
D02*
G37*
G36*
X35671Y32528D02*
X35271D01*
X35300Y32529D01*
X35326Y32531D01*
X35353Y32535D01*
X35376Y32541D01*
X35399Y32546D01*
X35419Y32552D01*
X35439Y32559D01*
X35457Y32567D01*
X35472Y32574D01*
X35486Y32581D01*
X35498Y32586D01*
X35508Y32592D01*
X35517Y32597D01*
X35522Y32602D01*
X35525Y32603D01*
X35526Y32604D01*
X35544Y32620D01*
X35561Y32636D01*
X35591Y32674D01*
X35616Y32713D01*
X35636Y32750D01*
X35644Y32768D01*
X35651Y32785D01*
X35657Y32800D01*
X35662Y32813D01*
X35666Y32824D01*
X35669Y32832D01*
X35671Y32838D01*
Y32528D01*
D02*
G37*
G36*
X39786Y32527D02*
X39463D01*
X39488Y32528D01*
X39513Y32531D01*
X39535Y32535D01*
X39557Y32541D01*
X39576Y32547D01*
X39596Y32554D01*
X39614Y32563D01*
X39629Y32571D01*
X39643Y32579D01*
X39657Y32588D01*
X39667Y32595D01*
X39676Y32602D01*
X39683Y32607D01*
X39689Y32611D01*
X39692Y32614D01*
X39693Y32615D01*
X39710Y32632D01*
X39724Y32650D01*
X39736Y32668D01*
X39747Y32686D01*
X39755Y32706D01*
X39764Y32724D01*
X39775Y32757D01*
X39778Y32772D01*
X39780Y32788D01*
X39783Y32800D01*
X39785Y32811D01*
X39786Y32819D01*
Y32527D01*
D02*
G37*
G36*
X36180Y33104D02*
X36204Y33098D01*
X36223Y33089D01*
X36241Y33079D01*
X36255Y33069D01*
X36266Y33060D01*
X36272Y33054D01*
X36274Y33051D01*
X36291Y33029D01*
X36304Y33003D01*
X36312Y32976D01*
X36319Y32951D01*
X36322Y32929D01*
X36323Y32918D01*
Y32910D01*
X36324Y32903D01*
Y32897D01*
Y32894D01*
Y32893D01*
X36322Y32857D01*
X36316Y32824D01*
X36309Y32797D01*
X36299Y32774D01*
X36290Y32757D01*
X36283Y32743D01*
X36277Y32736D01*
X36274Y32733D01*
X36255Y32715D01*
X36235Y32701D01*
X36215Y32693D01*
X36195Y32686D01*
X36179Y32682D01*
X36166Y32681D01*
X36161Y32679D01*
X36154D01*
X36127Y32682D01*
X36104Y32688D01*
X36083Y32696D01*
X36066Y32707D01*
X36051Y32717D01*
X36040Y32725D01*
X36034Y32731D01*
X36031Y32733D01*
X36015Y32756D01*
X36004Y32782D01*
X35995Y32808D01*
X35988Y32835D01*
X35986Y32857D01*
X35984Y32867D01*
Y32876D01*
X35983Y32883D01*
Y32889D01*
Y32892D01*
Y32893D01*
X35986Y32929D01*
X35991Y32961D01*
X35998Y32989D01*
X36008Y33011D01*
X36016Y33028D01*
X36025Y33042D01*
X36030Y33049D01*
X36031Y33051D01*
X36051Y33069D01*
X36072Y33083D01*
X36093Y33093D01*
X36112Y33100D01*
X36129Y33104D01*
X36141Y33105D01*
X36147Y33107D01*
X36154D01*
X36180Y33104D01*
D02*
G37*
G36*
X37475Y33114D02*
X37493Y33108D01*
X37510Y33101D01*
X37524Y33094D01*
X37535Y33086D01*
X37543Y33079D01*
X37549Y33073D01*
X37550Y33072D01*
X37562Y33055D01*
X37574Y33036D01*
X37580Y33015D01*
X37586Y32996D01*
X37589Y32979D01*
X37590Y32964D01*
X37592Y32958D01*
Y32956D01*
Y32953D01*
Y32951D01*
X37317D01*
X37318Y32978D01*
X37322Y33001D01*
X37328Y33022D01*
X37336Y33039D01*
X37343Y33053D01*
X37350Y33062D01*
X37354Y33069D01*
X37356Y33071D01*
X37371Y33086D01*
X37388Y33097D01*
X37404Y33104D01*
X37419Y33110D01*
X37433Y33112D01*
X37444Y33115D01*
X37454D01*
X37475Y33114D01*
D02*
G37*
G36*
X34374Y32418D02*
X34223D01*
Y33361D01*
X34374D01*
Y32418D01*
D02*
G37*
%LPC*%
G36*
X37247Y31193D02*
X36944Y30762D01*
X37247D01*
Y31193D01*
D02*
G37*
G36*
X39048Y31291D02*
X39040D01*
X39035Y31290D01*
X39019Y31287D01*
X39001Y31283D01*
X38980Y31274D01*
X38958Y31262D01*
X38947Y31254D01*
X38936Y31245D01*
X38926Y31234D01*
X38917Y31222D01*
Y31220D01*
X38914Y31218D01*
X38911Y31212D01*
X38907Y31205D01*
X38903Y31194D01*
X38897Y31182D01*
X38893Y31166D01*
X38887Y31148D01*
X38882Y31127D01*
X38876Y31104D01*
X38871Y31077D01*
X38867Y31048D01*
X38862Y31015D01*
X38860Y30979D01*
X38858Y30940D01*
X38857Y30897D01*
Y30894D01*
Y30887D01*
Y30875D01*
X38858Y30858D01*
Y30840D01*
X38860Y30818D01*
X38861Y30794D01*
X38864Y30769D01*
X38871Y30715D01*
X38875Y30689D01*
X38880Y30664D01*
X38886Y30640D01*
X38894Y30618D01*
X38903Y30599D01*
X38912Y30582D01*
Y30580D01*
X38915Y30579D01*
X38922Y30569D01*
X38935Y30557D01*
X38950Y30543D01*
X38971Y30529D01*
X38994Y30517D01*
X39021Y30507D01*
X39035Y30506D01*
X39050Y30504D01*
X39058D01*
X39064Y30506D01*
X39078Y30508D01*
X39097Y30514D01*
X39118Y30524D01*
X39141Y30537D01*
X39153Y30546D01*
X39164Y30557D01*
X39175Y30568D01*
X39186Y30582D01*
Y30583D01*
X39189Y30586D01*
X39191Y30590D01*
X39194Y30597D01*
X39200Y30607D01*
X39204Y30619D01*
X39209Y30633D01*
X39215Y30650D01*
X39219Y30671D01*
X39225Y30693D01*
X39230Y30719D01*
X39234Y30747D01*
X39237Y30780D01*
X39240Y30815D01*
X39243Y30854D01*
Y30897D01*
Y30898D01*
Y30900D01*
Y30907D01*
Y30919D01*
X39241Y30936D01*
Y30954D01*
X39240Y30976D01*
X39239Y31000D01*
X39236Y31026D01*
X39229Y31079D01*
X39225Y31105D01*
X39219Y31130D01*
X39214Y31154D01*
X39205Y31176D01*
X39197Y31195D01*
X39187Y31212D01*
Y31213D01*
X39184Y31215D01*
X39182Y31219D01*
X39178Y31225D01*
X39165Y31237D01*
X39150Y31252D01*
X39129Y31266D01*
X39105Y31279D01*
X39093Y31284D01*
X39079Y31288D01*
X39064Y31290D01*
X39048Y31291D01*
D02*
G37*
G36*
X35688Y31291D02*
X35680D01*
X35674Y31290D01*
X35659Y31287D01*
X35641Y31283D01*
X35620Y31274D01*
X35598Y31262D01*
X35587Y31254D01*
X35576Y31245D01*
X35566Y31234D01*
X35556Y31222D01*
Y31220D01*
X35553Y31218D01*
X35551Y31212D01*
X35547Y31205D01*
X35542Y31194D01*
X35537Y31181D01*
X35533Y31166D01*
X35527Y31148D01*
X35522Y31127D01*
X35516Y31104D01*
X35510Y31077D01*
X35506Y31048D01*
X35502Y31015D01*
X35499Y30979D01*
X35498Y30940D01*
X35497Y30897D01*
Y30894D01*
Y30887D01*
Y30875D01*
X35498Y30858D01*
Y30840D01*
X35499Y30818D01*
X35501Y30794D01*
X35503Y30769D01*
X35510Y30715D01*
X35515Y30689D01*
X35520Y30664D01*
X35526Y30640D01*
X35534Y30618D01*
X35542Y30599D01*
X35552Y30582D01*
Y30580D01*
X35555Y30579D01*
X35562Y30569D01*
X35574Y30557D01*
X35590Y30543D01*
X35610Y30529D01*
X35634Y30517D01*
X35660Y30507D01*
X35674Y30506D01*
X35689Y30504D01*
X35698D01*
X35703Y30506D01*
X35717Y30508D01*
X35737Y30514D01*
X35757Y30524D01*
X35781Y30537D01*
X35792Y30546D01*
X35803Y30557D01*
X35814Y30568D01*
X35826Y30582D01*
Y30583D01*
X35828Y30586D01*
X35831Y30590D01*
X35834Y30597D01*
X35839Y30607D01*
X35844Y30619D01*
X35849Y30633D01*
X35855Y30650D01*
X35859Y30671D01*
X35864Y30693D01*
X35870Y30719D01*
X35874Y30747D01*
X35877Y30780D01*
X35880Y30815D01*
X35882Y30854D01*
Y30897D01*
Y30898D01*
Y30900D01*
Y30907D01*
Y30919D01*
X35881Y30936D01*
Y30954D01*
X35880Y30976D01*
X35878Y31000D01*
X35875Y31026D01*
X35869Y31079D01*
X35864Y31105D01*
X35859Y31130D01*
X35853Y31154D01*
X35845Y31176D01*
X35837Y31195D01*
X35827Y31212D01*
Y31213D01*
X35824Y31215D01*
X35821Y31219D01*
X35817Y31225D01*
X35805Y31237D01*
X35789Y31252D01*
X35769Y31266D01*
X35745Y31279D01*
X35733Y31284D01*
X35719Y31288D01*
X35703Y31290D01*
X35688Y31291D01*
D02*
G37*
G36*
X40472Y27042D02*
X40471D01*
X40470Y27040D01*
X40465D01*
X40460Y27039D01*
X40446Y27035D01*
X40427Y27032D01*
X40425D01*
X40421Y27031D01*
X40413D01*
X40404Y27029D01*
X40392Y27028D01*
X40379Y27025D01*
X40350Y27020D01*
X40320Y27013D01*
X40289Y27004D01*
X40275Y26999D01*
X40263Y26993D01*
X40252Y26988D01*
X40242Y26982D01*
X40241Y26981D01*
X40238Y26978D01*
X40232Y26972D01*
X40227Y26965D01*
X40221Y26956D01*
X40216Y26945D01*
X40213Y26932D01*
X40211Y26918D01*
Y26917D01*
Y26913D01*
X40213Y26907D01*
X40214Y26899D01*
X40217Y26891D01*
X40221Y26881D01*
X40227Y26871D01*
X40235Y26863D01*
X40236Y26861D01*
X40239Y26860D01*
X40245Y26856D01*
X40252Y26852D01*
X40260Y26848D01*
X40271Y26845D01*
X40284Y26842D01*
X40297Y26841D01*
X40304D01*
X40313Y26842D01*
X40322Y26843D01*
X40335Y26845D01*
X40349Y26849D01*
X40363Y26853D01*
X40377Y26860D01*
X40378Y26861D01*
X40384Y26864D01*
X40390Y26868D01*
X40399Y26875D01*
X40407Y26882D01*
X40417Y26892D01*
X40427Y26902D01*
X40433Y26914D01*
X40435Y26916D01*
X40436Y26921D01*
X40440Y26928D01*
X40445Y26939D01*
X40450Y26953D01*
X40456Y26971D01*
X40461Y26992D01*
X40467Y27015D01*
X40472Y27042D01*
D02*
G37*
G36*
X37934Y27294D02*
X37927D01*
X37921Y27293D01*
X37909Y27292D01*
X37891Y27286D01*
X37871Y27278D01*
X37852Y27267D01*
X37830Y27250D01*
X37820Y27239D01*
X37810Y27228D01*
X37809Y27226D01*
X37807Y27224D01*
X37803Y27218D01*
X37799Y27211D01*
X37793Y27203D01*
X37788Y27192D01*
X37782Y27179D01*
X37775Y27165D01*
X37769Y27150D01*
X37763Y27132D01*
X37757Y27114D01*
X37752Y27093D01*
X37744Y27049D01*
X37742Y27024D01*
X37741Y26999D01*
Y26997D01*
Y26996D01*
Y26988D01*
X37744Y26974D01*
X37746Y26959D01*
X37750Y26939D01*
X37757Y26921D01*
X37767Y26902D01*
X37780Y26884D01*
X37781Y26882D01*
X37787Y26877D01*
X37795Y26870D01*
X37806Y26863D01*
X37820Y26854D01*
X37837Y26848D01*
X37855Y26842D01*
X37874Y26841D01*
X37882D01*
X37891Y26842D01*
X37903Y26845D01*
X37917Y26849D01*
X37932Y26854D01*
X37948Y26863D01*
X37964Y26874D01*
X37966Y26875D01*
X37971Y26881D01*
X37979Y26889D01*
X37989Y26900D01*
X38000Y26916D01*
X38013Y26935D01*
X38025Y26957D01*
X38036Y26984D01*
Y26985D01*
X38038Y26986D01*
X38039Y26990D01*
X38041Y26996D01*
X38046Y27011D01*
X38052Y27031D01*
X38056Y27053D01*
X38061Y27079D01*
X38064Y27107D01*
X38066Y27135D01*
Y27136D01*
Y27138D01*
Y27142D01*
Y27147D01*
X38064Y27160D01*
X38061Y27176D01*
X38056Y27196D01*
X38049Y27215D01*
X38039Y27235D01*
X38027Y27251D01*
X38025Y27253D01*
X38020Y27258D01*
X38011Y27265D01*
X38000Y27274D01*
X37986Y27281D01*
X37971Y27288D01*
X37953Y27293D01*
X37934Y27294D01*
D02*
G37*
G36*
X39768Y29107D02*
X39761D01*
X39755Y29105D01*
X39740Y29104D01*
X39722Y29098D01*
X39701Y29091D01*
X39679Y29079D01*
X39657Y29064D01*
X39646Y29053D01*
X39636Y29041D01*
Y29040D01*
X39633Y29039D01*
X39632Y29034D01*
X39627Y29029D01*
X39623Y29022D01*
X39619Y29014D01*
X39615Y29004D01*
X39609Y28993D01*
X39604Y28979D01*
X39600Y28964D01*
X39596Y28947D01*
X39591Y28929D01*
X39589Y28910D01*
X39586Y28887D01*
X39583Y28864D01*
Y28839D01*
Y28837D01*
Y28833D01*
Y28826D01*
X39584Y28817D01*
Y28805D01*
X39586Y28793D01*
X39590Y28764D01*
X39597Y28732D01*
X39607Y28699D01*
X39621Y28667D01*
X39629Y28653D01*
X39639Y28639D01*
X39640D01*
X39641Y28636D01*
X39648Y28629D01*
X39661Y28618D01*
X39676Y28607D01*
X39696Y28594D01*
X39719Y28583D01*
X39744Y28576D01*
X39758Y28575D01*
X39772Y28574D01*
X39779D01*
X39784Y28575D01*
X39800Y28576D01*
X39818Y28582D01*
X39838Y28589D01*
X39861Y28600D01*
X39883Y28615D01*
X39894Y28625D01*
X39904Y28636D01*
Y28638D01*
X39906Y28639D01*
X39909Y28643D01*
X39912Y28649D01*
X39916Y28656D01*
X39922Y28662D01*
X39926Y28674D01*
X39931Y28685D01*
X39937Y28697D01*
X39941Y28711D01*
X39947Y28728D01*
X39951Y28744D01*
X39954Y28764D01*
X39956Y28783D01*
X39959Y28805D01*
Y28829D01*
Y28830D01*
Y28836D01*
Y28843D01*
X39958Y28853D01*
Y28864D01*
X39956Y28878D01*
X39955Y28893D01*
X39952Y28910D01*
X39945Y28943D01*
X39936Y28978D01*
X39922Y29011D01*
X39913Y29025D01*
X39904Y29039D01*
Y29040D01*
X39901Y29041D01*
X39894Y29050D01*
X39881Y29061D01*
X39866Y29073D01*
X39847Y29086D01*
X39823Y29096D01*
X39797Y29104D01*
X39783Y29105D01*
X39768Y29107D01*
D02*
G37*
G36*
X34946Y29338D02*
X34724D01*
Y28606D01*
X34951D01*
X34961Y28607D01*
X34982Y28608D01*
X35005Y28610D01*
X35030Y28613D01*
X35055Y28617D01*
X35076Y28622D01*
X35079Y28624D01*
X35086Y28625D01*
X35096Y28629D01*
X35108Y28635D01*
X35122Y28643D01*
X35136Y28651D01*
X35150Y28661D01*
X35164Y28672D01*
X35165Y28675D01*
X35171Y28681D01*
X35179Y28690D01*
X35189Y28704D01*
X35200Y28722D01*
X35212Y28743D01*
X35223Y28767D01*
X35233Y28793D01*
Y28794D01*
X35234Y28797D01*
X35236Y28801D01*
X35237Y28807D01*
X35239Y28814D01*
X35241Y28823D01*
X35244Y28833D01*
X35247Y28844D01*
X35251Y28872D01*
X35255Y28904D01*
X35258Y28940D01*
X35259Y28979D01*
Y28980D01*
Y28986D01*
Y28993D01*
X35258Y29004D01*
Y29016D01*
X35257Y29030D01*
X35255Y29047D01*
X35254Y29064D01*
X35247Y29101D01*
X35239Y29140D01*
X35226Y29176D01*
X35218Y29194D01*
X35210Y29209D01*
Y29211D01*
X35207Y29214D01*
X35204Y29218D01*
X35201Y29223D01*
X35190Y29237D01*
X35176Y29254D01*
X35158Y29272D01*
X35137Y29290D01*
X35114Y29305D01*
X35089Y29318D01*
X35086Y29319D01*
X35079Y29320D01*
X35067Y29325D01*
X35048Y29329D01*
X35026Y29332D01*
X34999Y29336D01*
X34982Y29337D01*
X34964D01*
X34946Y29338D01*
D02*
G37*
G36*
X40935Y29107D02*
X40914D01*
X40909Y29105D01*
X40893Y29102D01*
X40875Y29098D01*
X40854Y29090D01*
X40832Y29077D01*
X40821Y29071D01*
X40810Y29061D01*
X40799Y29051D01*
X40788Y29039D01*
Y29037D01*
X40785Y29036D01*
X40782Y29032D01*
X40780Y29026D01*
X40775Y29019D01*
X40770Y29011D01*
X40766Y29001D01*
X40760Y28990D01*
X40755Y28976D01*
X40750Y28962D01*
X40745Y28946D01*
X40741Y28929D01*
X40738Y28910D01*
X40735Y28889D01*
X40732Y28868D01*
Y28844D01*
Y28843D01*
Y28839D01*
Y28832D01*
Y28823D01*
X40734Y28814D01*
Y28801D01*
X40737Y28775D01*
X40741Y28746D01*
X40746Y28715D01*
X40755Y28687D01*
X40760Y28675D01*
X40766Y28664D01*
Y28662D01*
X40768Y28660D01*
X40771Y28656D01*
X40775Y28650D01*
X40788Y28635D01*
X40806Y28619D01*
X40827Y28603D01*
X40853Y28588D01*
X40867Y28582D01*
X40884Y28578D01*
X40899Y28575D01*
X40917Y28574D01*
X40924D01*
X40929Y28575D01*
X40945Y28578D01*
X40963Y28582D01*
X40984Y28590D01*
X41006Y28601D01*
X41028Y28618D01*
X41039Y28629D01*
X41050Y28640D01*
Y28642D01*
X41053Y28643D01*
X41056Y28647D01*
X41059Y28653D01*
X41064Y28660D01*
X41068Y28668D01*
X41074Y28679D01*
X41079Y28690D01*
X41084Y28704D01*
X41089Y28718D01*
X41095Y28735D01*
X41099Y28753D01*
X41102Y28772D01*
X41104Y28793D01*
X41107Y28817D01*
Y28840D01*
Y28842D01*
Y28846D01*
Y28853D01*
X41106Y28862D01*
Y28873D01*
X41104Y28887D01*
X41100Y28916D01*
X41095Y28948D01*
X41085Y28983D01*
X41071Y29014D01*
X41063Y29029D01*
X41053Y29041D01*
Y29043D01*
X41050Y29044D01*
X41043Y29051D01*
X41032Y29062D01*
X41017Y29075D01*
X40997Y29086D01*
X40975Y29097D01*
X40949Y29104D01*
X40935Y29107D01*
D02*
G37*
G36*
X39046D02*
X39038D01*
X39032Y29105D01*
X39017Y29104D01*
X38999Y29100D01*
X38977Y29093D01*
X38953Y29083D01*
X38931Y29069D01*
X38909Y29051D01*
X38906Y29048D01*
X38900Y29041D01*
X38890Y29029D01*
X38881Y29012D01*
X38870Y28993D01*
X38860Y28968D01*
X38852Y28939D01*
X38847Y28907D01*
X39237D01*
Y28908D01*
Y28911D01*
X39236Y28915D01*
Y28921D01*
X39233Y28937D01*
X39229Y28955D01*
X39222Y28978D01*
X39215Y28998D01*
X39204Y29019D01*
X39192Y29037D01*
Y29039D01*
X39189Y29040D01*
X39182Y29048D01*
X39169Y29059D01*
X39153Y29072D01*
X39132Y29084D01*
X39107Y29096D01*
X39078Y29104D01*
X39063Y29105D01*
X39046Y29107D01*
D02*
G37*
G36*
X35835Y29107D02*
X35827D01*
X35822Y29105D01*
X35806Y29104D01*
X35788Y29100D01*
X35766Y29093D01*
X35742Y29083D01*
X35720Y29069D01*
X35698Y29051D01*
X35695Y29048D01*
X35690Y29041D01*
X35680Y29029D01*
X35670Y29012D01*
X35659Y28993D01*
X35649Y28968D01*
X35641Y28939D01*
X35637Y28907D01*
X36027D01*
Y28908D01*
Y28911D01*
X36026Y28915D01*
Y28921D01*
X36023Y28937D01*
X36019Y28955D01*
X36012Y28978D01*
X36005Y28998D01*
X35994Y29019D01*
X35981Y29037D01*
Y29039D01*
X35978Y29040D01*
X35972Y29048D01*
X35959Y29059D01*
X35942Y29072D01*
X35922Y29084D01*
X35897Y29096D01*
X35867Y29104D01*
X35852Y29105D01*
X35835Y29107D01*
D02*
G37*
G36*
X37545Y29107D02*
X37523D01*
X37518Y29105D01*
X37502Y29104D01*
X37484Y29098D01*
X37462Y29091D01*
X37440Y29079D01*
X37418Y29064D01*
X37407Y29053D01*
X37396Y29041D01*
Y29040D01*
X37393Y29039D01*
X37390Y29034D01*
X37387Y29029D01*
X37383Y29023D01*
X37379Y29015D01*
X37373Y29005D01*
X37369Y28994D01*
X37364Y28982D01*
X37358Y28966D01*
X37354Y28951D01*
X37350Y28935D01*
X37347Y28915D01*
X37344Y28896D01*
X37341Y28875D01*
Y28851D01*
Y28850D01*
Y28846D01*
Y28839D01*
X37343Y28829D01*
Y28818D01*
X37344Y28804D01*
X37348Y28775D01*
X37355Y28742D01*
X37364Y28710D01*
X37378Y28678D01*
X37386Y28664D01*
X37396Y28651D01*
X37398Y28649D01*
X37405Y28642D01*
X37416Y28632D01*
X37433Y28621D01*
X37452Y28608D01*
X37476Y28599D01*
X37502Y28592D01*
X37516Y28590D01*
X37532Y28589D01*
X37540D01*
X37545Y28590D01*
X37561Y28592D01*
X37580Y28597D01*
X37601Y28604D01*
X37625Y28615D01*
X37647Y28631D01*
X37658Y28640D01*
X37669Y28651D01*
Y28653D01*
X37672Y28654D01*
X37675Y28658D01*
X37677Y28664D01*
X37682Y28669D01*
X37687Y28678D01*
X37691Y28687D01*
X37697Y28700D01*
X37702Y28712D01*
X37707Y28726D01*
X37712Y28743D01*
X37716Y28761D01*
X37719Y28779D01*
X37722Y28800D01*
X37725Y28823D01*
Y28847D01*
Y28848D01*
Y28853D01*
Y28860D01*
X37723Y28868D01*
Y28879D01*
X37722Y28892D01*
X37718Y28919D01*
X37711Y28951D01*
X37701Y28983D01*
X37687Y29015D01*
X37677Y29029D01*
X37668Y29041D01*
Y29043D01*
X37665Y29044D01*
X37658Y29051D01*
X37645Y29062D01*
X37629Y29075D01*
X37609Y29086D01*
X37586Y29097D01*
X37559Y29104D01*
X37545Y29107D01*
D02*
G37*
G36*
X46401Y24969D02*
X46291D01*
Y24832D01*
X46394D01*
X46398Y24832D01*
X46402D01*
X46406Y24833D01*
X46417Y24834D01*
X46429Y24836D01*
X46440Y24840D01*
X46451Y24844D01*
X46456Y24847D01*
X46460Y24850D01*
X46461Y24851D01*
X46463Y24854D01*
X46466Y24858D01*
X46470Y24864D01*
X46474Y24871D01*
X46478Y24880D01*
X46480Y24890D01*
X46481Y24901D01*
Y24902D01*
Y24902D01*
Y24905D01*
X46480Y24910D01*
X46479Y24916D01*
X46478Y24922D01*
X46476Y24929D01*
X46473Y24936D01*
X46469Y24942D01*
X46468Y24943D01*
X46466Y24945D01*
X46464Y24948D01*
X46460Y24952D01*
X46455Y24956D01*
X46450Y24959D01*
X46444Y24962D01*
X46436Y24965D01*
X46436D01*
X46434Y24966D01*
X46430Y24966D01*
X46426Y24967D01*
X46419Y24968D01*
X46411Y24968D01*
X46401Y24969D01*
D02*
G37*
G36*
X46471Y35377D02*
X46361D01*
Y35240D01*
X46464D01*
X46468Y35240D01*
X46472D01*
X46476Y35241D01*
X46487Y35242D01*
X46498Y35244D01*
X46510Y35248D01*
X46521Y35252D01*
X46526Y35255D01*
X46530Y35258D01*
X46531Y35259D01*
X46533Y35262D01*
X46536Y35266D01*
X46540Y35272D01*
X46544Y35279D01*
X46547Y35288D01*
X46550Y35298D01*
X46551Y35309D01*
Y35310D01*
Y35310D01*
Y35313D01*
X46550Y35318D01*
X46549Y35324D01*
X46548Y35330D01*
X46546Y35337D01*
X46542Y35344D01*
X46538Y35350D01*
X46538Y35351D01*
X46536Y35353D01*
X46533Y35356D01*
X46530Y35360D01*
X46525Y35364D01*
X46520Y35367D01*
X46513Y35370D01*
X46506Y35373D01*
X46506D01*
X46503Y35374D01*
X46500Y35374D01*
X46496Y35375D01*
X46489Y35376D01*
X46481Y35376D01*
X46471Y35377D01*
D02*
G37*
G36*
X32026Y24939D02*
X31916D01*
Y24802D01*
X32019D01*
X32023Y24802D01*
X32027D01*
X32031Y24803D01*
X32042Y24804D01*
X32053Y24806D01*
X32065Y24810D01*
X32076Y24814D01*
X32081Y24817D01*
X32085Y24820D01*
X32086Y24821D01*
X32088Y24824D01*
X32091Y24828D01*
X32095Y24834D01*
X32099Y24841D01*
X32102Y24850D01*
X32105Y24860D01*
X32106Y24871D01*
Y24872D01*
Y24872D01*
Y24875D01*
X32105Y24880D01*
X32104Y24886D01*
X32103Y24892D01*
X32101Y24899D01*
X32097Y24906D01*
X32093Y24912D01*
X32093Y24913D01*
X32091Y24915D01*
X32088Y24918D01*
X32085Y24922D01*
X32080Y24926D01*
X32075Y24929D01*
X32068Y24932D01*
X32061Y24935D01*
X32061D01*
X32058Y24936D01*
X32055Y24936D01*
X32051Y24937D01*
X32044Y24938D01*
X32036Y24938D01*
X32026Y24939D01*
D02*
G37*
G36*
X44026Y23612D02*
X43905D01*
Y23485D01*
X44020D01*
X44026Y23485D01*
X44034Y23486D01*
X44043Y23486D01*
X44052Y23487D01*
X44061Y23489D01*
X44069Y23491D01*
X44070Y23492D01*
X44072Y23493D01*
X44075Y23495D01*
X44080Y23497D01*
X44085Y23500D01*
X44090Y23504D01*
X44095Y23509D01*
X44099Y23515D01*
X44099Y23515D01*
X44100Y23517D01*
X44102Y23521D01*
X44104Y23525D01*
X44106Y23530D01*
X44107Y23536D01*
X44109Y23542D01*
X44109Y23549D01*
Y23550D01*
Y23550D01*
X44109Y23554D01*
X44108Y23559D01*
X44107Y23565D01*
X44104Y23572D01*
X44101Y23580D01*
X44096Y23587D01*
X44089Y23594D01*
X44088Y23595D01*
X44085Y23597D01*
X44081Y23600D01*
X44074Y23603D01*
X44065Y23606D01*
X44054Y23609D01*
X44041Y23611D01*
X44026Y23612D01*
D02*
G37*
%LPD*%
D10*
X45197Y24502D02*
G03*
X45197Y24502I-722J0D01*
G01*
X32649Y22970D02*
Y24410D01*
X31649Y22970D02*
Y24410D01*
X32149Y22970D02*
Y24410D01*
X31099Y23690D02*
X33199D01*
Y22970D02*
Y24410D01*
X31099D02*
X33199D01*
X31099Y22970D02*
Y24410D01*
Y22970D02*
X33199D01*
X46030D02*
Y24410D01*
X47030Y22970D02*
Y24410D01*
X46530Y22970D02*
Y24410D01*
X45480Y23690D02*
X47580D01*
X45480Y22970D02*
Y24410D01*
Y22970D02*
X47580D01*
Y24410D01*
X45480D02*
X47580D01*
X47030Y35580D02*
Y37020D01*
X46030Y35580D02*
Y37020D01*
X46530Y35580D02*
Y37020D01*
X45480Y36300D02*
X47580D01*
Y35580D02*
Y37020D01*
X45480D02*
X47580D01*
X45480Y35580D02*
Y37020D01*
Y35580D02*
X47580D01*
D11*
X33955Y26511D02*
Y31511D01*
M02*
