G04*
G04 #@! TF.GenerationSoftware,Altium Limited,Altium Designer,20.0.13 (296)*
G04*
G04 Layer_Color=16711935*
%FSLAX24Y24*%
%MOIN*%
G70*
G01*
G75*
%ADD12C,0.0454*%
%ADD13R,0.0454X0.0454*%
%ADD14C,0.0474*%
%ADD15C,0.1655*%
%ADD27C,0.0300*%
%ADD28C,0.0400*%
%ADD64R,0.0453X0.0433*%
%ADD65R,0.0906X0.0453*%
%ADD66R,0.0789X0.0612*%
%ADD67R,0.0277X0.0237*%
%ADD68R,0.0237X0.0277*%
%ADD69R,0.0430X0.0380*%
%ADD70R,0.0277X0.0552*%
%ADD71R,0.0380X0.0430*%
%ADD72R,0.0789X0.0946*%
%ADD73R,0.0198X0.0592*%
%ADD74R,0.0395X0.0480*%
%ADD75R,0.2049X0.0552*%
%ADD76R,0.1261X0.0710*%
G04:AMPARAMS|DCode=77|XSize=23.7mil|YSize=27.7mil|CornerRadius=0mil|HoleSize=0mil|Usage=FLASHONLY|Rotation=225.000|XOffset=0mil|YOffset=0mil|HoleType=Round|Shape=Rectangle|*
%AMROTATEDRECTD77*
4,1,4,-0.0014,0.0182,0.0182,-0.0014,0.0014,-0.0182,-0.0182,0.0014,-0.0014,0.0182,0.0*
%
%ADD77ROTATEDRECTD77*%

%ADD78R,0.0297X0.0789*%
%ADD79O,0.0297X0.0789*%
%ADD80R,0.0474X0.0257*%
%ADD81R,0.0552X0.0277*%
%ADD82O,0.0718X0.0190*%
G04:AMPARAMS|DCode=83|XSize=32.8mil|YSize=96.6mil|CornerRadius=0mil|HoleSize=0mil|Usage=FLASHONLY|Rotation=45.000|XOffset=0mil|YOffset=0mil|HoleType=Round|Shape=Round|*
%AMOVALD83*
21,1,0.0638,0.0328,0.0000,0.0000,135.0*
1,1,0.0328,0.0226,-0.0226*
1,1,0.0328,-0.0226,0.0226*
%
%ADD83OVALD83*%

%ADD84R,0.0480X0.0395*%
G04:AMPARAMS|DCode=85|XSize=23.7mil|YSize=27.7mil|CornerRadius=0mil|HoleSize=0mil|Usage=FLASHONLY|Rotation=135.000|XOffset=0mil|YOffset=0mil|HoleType=Round|Shape=Rectangle|*
%AMROTATEDRECTD85*
4,1,4,0.0182,0.0014,-0.0014,-0.0182,-0.0182,-0.0014,0.0014,0.0182,0.0182,0.0014,0.0*
%
%ADD85ROTATEDRECTD85*%

G04:AMPARAMS|DCode=86|XSize=39.5mil|YSize=35.6mil|CornerRadius=0mil|HoleSize=0mil|Usage=FLASHONLY|Rotation=90.000|XOffset=0mil|YOffset=0mil|HoleType=Round|Shape=Octagon|*
%AMOCTAGOND86*
4,1,8,0.0089,0.0197,-0.0089,0.0197,-0.0178,0.0109,-0.0178,-0.0109,-0.0089,-0.0197,0.0089,-0.0197,0.0178,-0.0109,0.0178,0.0109,0.0089,0.0197,0.0*
%
%ADD86OCTAGOND86*%

%ADD87R,0.0356X0.0395*%
%ADD88R,0.0380X0.0380*%
G04:AMPARAMS|DCode=89|XSize=59.2mil|YSize=55.2mil|CornerRadius=0mil|HoleSize=0mil|Usage=FLASHONLY|Rotation=135.000|XOffset=0mil|YOffset=0mil|HoleType=Round|Shape=Rectangle|*
%AMROTATEDRECTD89*
4,1,4,0.0405,-0.0014,0.0014,-0.0405,-0.0405,0.0014,-0.0014,0.0405,0.0405,-0.0014,0.0*
%
%ADD89ROTATEDRECTD89*%

%ADD90P,0.2284X4X270.0*%
G04:AMPARAMS|DCode=91|XSize=11.9mil|YSize=30.2mil|CornerRadius=0mil|HoleSize=0mil|Usage=FLASHONLY|Rotation=225.000|XOffset=0mil|YOffset=0mil|HoleType=Round|Shape=Rectangle|*
%AMROTATEDRECTD91*
4,1,4,-0.0065,0.0149,0.0149,-0.0065,0.0065,-0.0149,-0.0149,0.0065,-0.0065,0.0149,0.0*
%
%ADD91ROTATEDRECTD91*%

G04:AMPARAMS|DCode=92|XSize=30.2mil|YSize=11.9mil|CornerRadius=0mil|HoleSize=0mil|Usage=FLASHONLY|Rotation=225.000|XOffset=0mil|YOffset=0mil|HoleType=Round|Shape=Rectangle|*
%AMROTATEDRECTD92*
4,1,4,0.0065,0.0149,0.0149,0.0065,-0.0065,-0.0149,-0.0149,-0.0065,0.0065,0.0149,0.0*
%
%ADD92ROTATEDRECTD92*%

G04:AMPARAMS|DCode=93|XSize=47.4mil|YSize=39.5mil|CornerRadius=0mil|HoleSize=0mil|Usage=FLASHONLY|Rotation=90.000|XOffset=0mil|YOffset=0mil|HoleType=Round|Shape=Octagon|*
%AMOCTAGOND93*
4,1,8,0.0099,0.0237,-0.0099,0.0237,-0.0197,0.0138,-0.0197,-0.0138,-0.0099,-0.0237,0.0099,-0.0237,0.0197,-0.0138,0.0197,0.0138,0.0099,0.0237,0.0*
%
%ADD93OCTAGOND93*%

%ADD94R,0.0395X0.0474*%
%ADD95R,0.0430X0.0580*%
%ADD96R,0.0580X0.0430*%
D12*
X31400Y23440D02*
D03*
Y23940D02*
D03*
X32900Y23940D02*
D03*
X32400Y23940D02*
D03*
Y23440D02*
D03*
X31900Y23940D02*
D03*
Y23440D02*
D03*
X47280Y23940D02*
D03*
Y23440D02*
D03*
X45780Y23440D02*
D03*
X46280Y23440D02*
D03*
Y23940D02*
D03*
X46780Y23440D02*
D03*
Y23940D02*
D03*
X45780Y36050D02*
D03*
Y36550D02*
D03*
X47280Y36550D02*
D03*
X46780Y36550D02*
D03*
Y36050D02*
D03*
X46280Y36550D02*
D03*
Y36050D02*
D03*
D13*
X32900Y23440D02*
D03*
X45780Y23940D02*
D03*
X47280Y36050D02*
D03*
D14*
X44909Y24501D02*
D03*
X44041Y24485D02*
D03*
D15*
X49100Y28419D02*
D03*
D27*
X36706Y30752D02*
X37438D01*
D28*
X36484Y30155D02*
X37424D01*
D64*
X40666Y36485D02*
D03*
X39485D02*
D03*
D65*
X40076Y35904D02*
D03*
Y37065D02*
D03*
D66*
X34634Y32659D02*
D03*
Y34293D02*
D03*
D67*
X39690Y35019D02*
D03*
X39690Y35373D02*
D03*
X39265Y35363D02*
D03*
X39265Y35009D02*
D03*
X32990Y30723D02*
D03*
X32990Y30369D02*
D03*
X42320Y30146D02*
D03*
X42320Y29792D02*
D03*
X42750Y30146D02*
D03*
X42750Y29792D02*
D03*
X41890Y30146D02*
D03*
X41890Y29792D02*
D03*
X45371Y32066D02*
D03*
X45371Y32420D02*
D03*
X41060Y23563D02*
D03*
X41060Y23917D02*
D03*
X41970Y35087D02*
D03*
X41970Y34733D02*
D03*
X40328Y35007D02*
D03*
X40328Y34653D02*
D03*
D68*
X38510Y34990D02*
D03*
X38864Y34990D02*
D03*
X40430Y35423D02*
D03*
X40076Y35423D02*
D03*
X32446Y28981D02*
D03*
X32092Y28981D02*
D03*
X37047Y33290D02*
D03*
X36693Y33290D02*
D03*
X37055Y34131D02*
D03*
X36701Y34131D02*
D03*
X29327Y33360D02*
D03*
X28973Y33360D02*
D03*
X31857Y33110D02*
D03*
X31503Y33110D02*
D03*
X31857Y32690D02*
D03*
X31503Y32690D02*
D03*
X28326Y32692D02*
D03*
X27972Y32692D02*
D03*
X37057Y33712D02*
D03*
X36703Y33712D02*
D03*
X41067Y34610D02*
D03*
X40713Y34610D02*
D03*
D69*
X30157Y31513D02*
D03*
X29467D02*
D03*
D70*
X32470Y29636D02*
D03*
X32096D02*
D03*
X31722D02*
D03*
Y30738D02*
D03*
X32096D02*
D03*
X32470D02*
D03*
D71*
X36950Y24074D02*
D03*
Y23384D02*
D03*
X42490Y34310D02*
D03*
Y35000D02*
D03*
X42038Y32238D02*
D03*
Y32928D02*
D03*
X39210Y23390D02*
D03*
Y24080D02*
D03*
X40560Y24070D02*
D03*
Y23380D02*
D03*
X43400Y23320D02*
D03*
Y24010D02*
D03*
D72*
X35940Y27750D02*
D03*
X32475Y27750D02*
D03*
X39878D02*
D03*
X43342Y27750D02*
D03*
D73*
X33716Y28733D02*
D03*
X33912D02*
D03*
X35290D02*
D03*
X35094D02*
D03*
X34897D02*
D03*
X34700D02*
D03*
X34503D02*
D03*
X34306D02*
D03*
X34109D02*
D03*
X33519D02*
D03*
X33322D02*
D03*
X33125D02*
D03*
X40527D02*
D03*
X40724D02*
D03*
X40921D02*
D03*
X41512D02*
D03*
X41708D02*
D03*
X41905D02*
D03*
X42102D02*
D03*
X42299D02*
D03*
X42496D02*
D03*
X42693D02*
D03*
X41315D02*
D03*
X41118D02*
D03*
D74*
X37529Y27364D02*
D03*
Y28094D02*
D03*
X42653Y32216D02*
D03*
Y32946D02*
D03*
X45260Y25965D02*
D03*
Y26695D02*
D03*
X43112Y34162D02*
D03*
Y34892D02*
D03*
X47350Y26715D02*
D03*
Y25985D02*
D03*
X48000Y33335D02*
D03*
Y32605D02*
D03*
X47320D02*
D03*
Y33335D02*
D03*
X45970Y33315D02*
D03*
Y32585D02*
D03*
X46650D02*
D03*
Y33315D02*
D03*
X28770Y30625D02*
D03*
Y31355D02*
D03*
X28110Y30625D02*
D03*
Y31355D02*
D03*
D75*
X30292Y27112D02*
D03*
Y26128D02*
D03*
D76*
X28560Y28520D02*
D03*
Y24720D02*
D03*
D77*
X38521Y28557D02*
D03*
X38271Y28307D02*
D03*
X37735Y36295D02*
D03*
X37485Y36045D02*
D03*
X37485Y35345D02*
D03*
X37235Y35095D02*
D03*
X41492Y34419D02*
D03*
X41242Y34169D02*
D03*
X41787Y34121D02*
D03*
X41537Y33871D02*
D03*
X42083Y33825D02*
D03*
X41833Y33575D02*
D03*
D78*
X44815Y31251D02*
D03*
D79*
X44315D02*
D03*
X43815D02*
D03*
X43315D02*
D03*
X44815Y33317D02*
D03*
X44315D02*
D03*
X43815D02*
D03*
X43315D02*
D03*
D80*
X46750Y26724D02*
D03*
Y25976D02*
D03*
X45857Y26350D02*
D03*
D81*
X41669Y24054D02*
D03*
Y23306D02*
D03*
Y23680D02*
D03*
X42771Y23306D02*
D03*
Y24054D02*
D03*
X37499Y24114D02*
D03*
Y23366D02*
D03*
Y23740D02*
D03*
X38601Y23366D02*
D03*
Y24114D02*
D03*
D82*
X28977Y32103D02*
D03*
Y32300D02*
D03*
Y32497D02*
D03*
Y32694D02*
D03*
Y32890D02*
D03*
X30639Y32103D02*
D03*
Y32300D02*
D03*
Y32497D02*
D03*
Y32694D02*
D03*
Y32890D02*
D03*
D83*
X38512Y30094D02*
D03*
X38158Y29741D02*
D03*
X37805Y29387D02*
D03*
X37451Y29034D02*
D03*
X36546Y32060D02*
D03*
X36193Y31706D02*
D03*
X35839Y31353D02*
D03*
X35486Y30999D02*
D03*
D84*
X43885Y36483D02*
D03*
X44615D02*
D03*
X43879Y35861D02*
D03*
X44609Y35861D02*
D03*
X47305Y27980D02*
D03*
X46575D02*
D03*
Y27360D02*
D03*
X47305D02*
D03*
X44107Y23323D02*
D03*
X44837D02*
D03*
X45348Y30407D02*
D03*
X44618D02*
D03*
X44619Y29762D02*
D03*
X45349D02*
D03*
X44516Y34093D02*
D03*
X43786D02*
D03*
X43796Y34713D02*
D03*
X44526D02*
D03*
X32395Y31550D02*
D03*
X31665D02*
D03*
X32395Y32160D02*
D03*
X31665D02*
D03*
X31655Y33640D02*
D03*
X32385D02*
D03*
D85*
X37025Y32485D02*
D03*
X36775Y32735D02*
D03*
X41271Y31139D02*
D03*
X41021Y31389D02*
D03*
D86*
X34537Y24040D02*
D03*
X35068Y24055D02*
D03*
X35567Y24057D02*
D03*
X36974Y27341D02*
D03*
D87*
X34537Y23370D02*
D03*
X35068Y23385D02*
D03*
X35567Y23387D02*
D03*
X36974Y28011D02*
D03*
D88*
X40834Y35090D02*
D03*
X41446D02*
D03*
D89*
X36355Y36333D02*
D03*
X36940Y35748D02*
D03*
X36467Y35275D02*
D03*
X35882Y35860D02*
D03*
D90*
X39340Y32640D02*
D03*
D91*
X39115Y34312D02*
D03*
X39004Y34201D02*
D03*
X38893Y34090D02*
D03*
X38781Y33978D02*
D03*
X38670Y33867D02*
D03*
X38558Y33756D02*
D03*
X38447Y33644D02*
D03*
X38336Y33533D02*
D03*
X38224Y33422D02*
D03*
X38113Y33310D02*
D03*
X38002Y33199D02*
D03*
X37890Y33088D02*
D03*
X37779Y32976D02*
D03*
X37668Y32865D02*
D03*
X39565Y30968D02*
D03*
X39676Y31079D02*
D03*
X39788Y31190D02*
D03*
X39899Y31302D02*
D03*
X40010Y31413D02*
D03*
X40122Y31524D02*
D03*
X40233Y31636D02*
D03*
X40344Y31747D02*
D03*
X40456Y31858D02*
D03*
X40567Y31970D02*
D03*
X40678Y32081D02*
D03*
X40790Y32192D02*
D03*
X40901Y32304D02*
D03*
X41012Y32415D02*
D03*
D92*
X37668Y32415D02*
D03*
X37779Y32304D02*
D03*
X37890Y32192D02*
D03*
X38002Y32081D02*
D03*
X38113Y31970D02*
D03*
X38224Y31858D02*
D03*
X38336Y31747D02*
D03*
X38447Y31636D02*
D03*
X38558Y31524D02*
D03*
X38670Y31413D02*
D03*
X38781Y31302D02*
D03*
X38893Y31190D02*
D03*
X39004Y31079D02*
D03*
X39115Y30968D02*
D03*
X41012Y32865D02*
D03*
X40901Y32976D02*
D03*
X40790Y33088D02*
D03*
X40678Y33199D02*
D03*
X40567Y33310D02*
D03*
X40456Y33422D02*
D03*
X40344Y33533D02*
D03*
X40233Y33644D02*
D03*
X40122Y33756D02*
D03*
X40010Y33867D02*
D03*
X39899Y33978D02*
D03*
X39788Y34090D02*
D03*
X39676Y34201D02*
D03*
X39565Y34312D02*
D03*
D93*
X47310Y31911D02*
D03*
X46640Y31901D02*
D03*
X47990Y30799D02*
D03*
X45950D02*
D03*
D94*
X47310Y30809D02*
D03*
X46640Y30799D02*
D03*
X47990Y31901D02*
D03*
X45950D02*
D03*
D95*
X45656Y28674D02*
D03*
X46404D02*
D03*
D96*
X36210Y23376D02*
D03*
Y24124D02*
D03*
X39880Y23346D02*
D03*
Y24094D02*
D03*
M02*
