G04*
G04 #@! TF.GenerationSoftware,Altium Limited,Altium Designer,20.0.13 (296)*
G04*
G04 Layer_Color=8388736*
%FSLAX24Y24*%
%MOIN*%
G70*
G01*
G75*
%ADD21C,0.0800*%
%ADD77C,0.1181*%
%ADD78C,0.0320*%
%ADD79C,0.0400*%
%ADD80C,0.1000*%
%ADD81R,0.0356X0.0395*%
G04:AMPARAMS|DCode=82|XSize=39.5mil|YSize=35.6mil|CornerRadius=0mil|HoleSize=0mil|Usage=FLASHONLY|Rotation=90.000|XOffset=0mil|YOffset=0mil|HoleType=Round|Shape=Octagon|*
%AMOCTAGOND82*
4,1,8,0.0089,0.0197,-0.0089,0.0197,-0.0178,0.0109,-0.0178,-0.0109,-0.0089,-0.0197,0.0089,-0.0197,0.0178,-0.0109,0.0178,0.0109,0.0089,0.0197,0.0*
%
%ADD82OCTAGOND82*%

%ADD83R,0.0946X0.1064*%
%ADD84R,0.0395X0.0480*%
%ADD85R,0.0395X0.0474*%
G04:AMPARAMS|DCode=86|XSize=47.4mil|YSize=39.5mil|CornerRadius=0mil|HoleSize=0mil|Usage=FLASHONLY|Rotation=270.000|XOffset=0mil|YOffset=0mil|HoleType=Round|Shape=Octagon|*
%AMOCTAGOND86*
4,1,8,-0.0099,-0.0237,0.0099,-0.0237,0.0197,-0.0138,0.0197,0.0138,0.0099,0.0237,-0.0099,0.0237,-0.0197,0.0138,-0.0197,-0.0138,-0.0099,-0.0237,0.0*
%
%ADD86OCTAGOND86*%

%ADD87R,0.0789X0.1308*%
%ADD88R,0.1080X0.0680*%
%ADD89R,0.0480X0.0395*%
%ADD90R,0.1749X0.1580*%
G04:AMPARAMS|DCode=91|XSize=63mil|YSize=70mil|CornerRadius=0mil|HoleSize=0mil|Usage=FLASHONLY|Rotation=95.000|XOffset=0mil|YOffset=0mil|HoleType=Round|Shape=Rectangle|*
%AMROTATEDRECTD91*
4,1,4,0.0376,-0.0283,-0.0321,-0.0344,-0.0376,0.0283,0.0321,0.0344,0.0376,-0.0283,0.0*
%
%ADD91ROTATEDRECTD91*%

%ADD92R,0.0700X0.0630*%
G04:AMPARAMS|DCode=93|XSize=63mil|YSize=70mil|CornerRadius=0mil|HoleSize=0mil|Usage=FLASHONLY|Rotation=30.000|XOffset=0mil|YOffset=0mil|HoleType=Round|Shape=Rectangle|*
%AMROTATEDRECTD93*
4,1,4,-0.0098,-0.0461,-0.0448,0.0146,0.0098,0.0461,0.0448,-0.0146,-0.0098,-0.0461,0.0*
%
%ADD93ROTATEDRECTD93*%

G04:AMPARAMS|DCode=94|XSize=63mil|YSize=70mil|CornerRadius=0mil|HoleSize=0mil|Usage=FLASHONLY|Rotation=60.000|XOffset=0mil|YOffset=0mil|HoleType=Round|Shape=Rectangle|*
%AMROTATEDRECTD94*
4,1,4,0.0146,-0.0448,-0.0461,-0.0098,-0.0146,0.0448,0.0461,0.0098,0.0146,-0.0448,0.0*
%
%ADD94ROTATEDRECTD94*%

%ADD95R,0.1340X0.0730*%
%ADD96R,0.0380X0.0430*%
%ADD97R,0.0395X0.0671*%
%ADD98R,0.0277X0.0789*%
%ADD99O,0.0277X0.0789*%
%ADD100O,0.0277X0.0671*%
%ADD101R,0.0277X0.0671*%
%ADD102R,0.0730X0.1340*%
%ADD103O,0.0789X0.0277*%
%ADD104R,0.0789X0.0277*%
%ADD105R,0.0430X0.0380*%
%ADD106R,0.1220X0.0945*%
%ADD107R,0.0789X0.0297*%
%ADD108O,0.0789X0.0297*%
%ADD109R,0.0205X0.0434*%
%ADD110R,0.0630X0.0700*%
%ADD111R,0.1261X0.1458*%
%ADD112R,0.0474X0.0395*%
G04:AMPARAMS|DCode=113|XSize=47.4mil|YSize=39.5mil|CornerRadius=0mil|HoleSize=0mil|Usage=FLASHONLY|Rotation=180.000|XOffset=0mil|YOffset=0mil|HoleType=Round|Shape=Octagon|*
%AMOCTAGOND113*
4,1,8,-0.0237,0.0099,-0.0237,-0.0099,-0.0138,-0.0197,0.0138,-0.0197,0.0237,-0.0099,0.0237,0.0099,0.0138,0.0197,-0.0138,0.0197,-0.0237,0.0099,0.0*
%
%ADD113OCTAGOND113*%

%ADD114R,0.0297X0.0789*%
%ADD115O,0.0297X0.0789*%
%ADD116R,0.0198X0.0592*%
%ADD117R,0.0789X0.0946*%
%ADD118R,0.0474X0.0257*%
%ADD119R,0.0619X0.0718*%
G04:AMPARAMS|DCode=120|XSize=71.8mil|YSize=61.9mil|CornerRadius=0mil|HoleSize=0mil|Usage=FLASHONLY|Rotation=270.000|XOffset=0mil|YOffset=0mil|HoleType=Round|Shape=Octagon|*
%AMOCTAGOND120*
4,1,8,-0.0155,-0.0359,0.0155,-0.0359,0.0310,-0.0204,0.0310,0.0204,0.0155,0.0359,-0.0155,0.0359,-0.0310,0.0204,-0.0310,-0.0204,-0.0155,-0.0359,0.0*
%
%ADD120OCTAGOND120*%

%ADD121R,0.0718X0.0619*%
G04:AMPARAMS|DCode=122|XSize=71.8mil|YSize=61.9mil|CornerRadius=0mil|HoleSize=0mil|Usage=FLASHONLY|Rotation=180.000|XOffset=0mil|YOffset=0mil|HoleType=Round|Shape=Octagon|*
%AMOCTAGOND122*
4,1,8,-0.0359,0.0155,-0.0359,-0.0155,-0.0204,-0.0310,0.0204,-0.0310,0.0359,-0.0155,0.0359,0.0155,0.0204,0.0310,-0.0204,0.0310,-0.0359,0.0155,0.0*
%
%ADD122OCTAGOND122*%

%ADD123R,0.2380X0.2530*%
%ADD124R,0.0680X0.1180*%
%ADD125R,0.0430X0.0580*%
%ADD126R,0.0580X0.0430*%
%ADD127R,0.0946X0.0769*%
%ADD128R,0.1261X0.0710*%
%ADD129R,0.2049X0.0552*%
G04:AMPARAMS|DCode=130|XSize=48mil|YSize=39.5mil|CornerRadius=0mil|HoleSize=0mil|Usage=FLASHONLY|Rotation=315.000|XOffset=0mil|YOffset=0mil|HoleType=Round|Shape=Rectangle|*
%AMROTATEDRECTD130*
4,1,4,-0.0309,0.0030,-0.0030,0.0309,0.0309,-0.0030,0.0030,-0.0309,-0.0309,0.0030,0.0*
%
%ADD130ROTATEDRECTD130*%

%ADD131R,0.0671X0.0749*%
%ADD132R,0.0257X0.0474*%
%ADD133C,0.0480*%
%ADD134C,0.0867*%
%ADD135R,0.0867X0.0867*%
%ADD136C,0.1080*%
%ADD137C,0.2080*%
%ADD138C,0.1261*%
%ADD139O,0.1143X0.1537*%
%ADD140R,0.1143X0.1537*%
%ADD141C,0.1064*%
%ADD142R,0.1064X0.1064*%
%ADD143C,0.0789*%
%ADD144R,0.0789X0.0789*%
%ADD145R,0.1064X0.1064*%
%ADD146R,0.0789X0.0789*%
G36*
X24466Y43045D02*
X24472D01*
X24480Y43044D01*
X24497Y43041D01*
X24517Y43036D01*
X24537Y43029D01*
X24557Y43018D01*
X24567Y43011D01*
X24577Y43004D01*
X24578Y43003D01*
X24579Y43002D01*
X24581Y42999D01*
X24584Y42996D01*
X24589Y42992D01*
X24592Y42986D01*
X24603Y42973D01*
X24613Y42957D01*
X24622Y42936D01*
X24630Y42913D01*
X24636Y42887D01*
X24557Y42881D01*
Y42882D01*
X24556Y42883D01*
X24555Y42888D01*
X24553Y42896D01*
X24549Y42907D01*
X24545Y42918D01*
X24540Y42929D01*
X24533Y42939D01*
X24527Y42947D01*
X24525Y42949D01*
X24521Y42953D01*
X24515Y42958D01*
X24505Y42965D01*
X24493Y42970D01*
X24480Y42976D01*
X24465Y42980D01*
X24448Y42982D01*
X24442D01*
X24434Y42981D01*
X24426Y42979D01*
X24415Y42976D01*
X24404Y42972D01*
X24393Y42968D01*
X24381Y42960D01*
X24380Y42959D01*
X24375Y42956D01*
X24369Y42949D01*
X24360Y42940D01*
X24351Y42929D01*
X24341Y42916D01*
X24332Y42899D01*
X24322Y42881D01*
Y42880D01*
X24321Y42878D01*
X24320Y42875D01*
X24319Y42871D01*
X24318Y42866D01*
X24316Y42859D01*
X24314Y42852D01*
X24312Y42843D01*
X24309Y42833D01*
X24307Y42821D01*
X24306Y42809D01*
X24305Y42797D01*
X24303Y42782D01*
X24302Y42767D01*
X24301Y42750D01*
Y42734D01*
X24302Y42735D01*
X24306Y42740D01*
X24312Y42748D01*
X24320Y42757D01*
X24330Y42768D01*
X24342Y42778D01*
X24355Y42788D01*
X24369Y42797D01*
X24370D01*
X24371Y42798D01*
X24377Y42801D01*
X24385Y42804D01*
X24396Y42809D01*
X24409Y42812D01*
X24424Y42815D01*
X24440Y42818D01*
X24456Y42819D01*
X24464D01*
X24469Y42818D01*
X24477Y42817D01*
X24484Y42816D01*
X24493Y42814D01*
X24503Y42811D01*
X24524Y42805D01*
X24535Y42800D01*
X24546Y42794D01*
X24557Y42787D01*
X24569Y42780D01*
X24580Y42771D01*
X24591Y42760D01*
X24591Y42760D01*
X24593Y42758D01*
X24596Y42755D01*
X24599Y42750D01*
X24604Y42744D01*
X24608Y42737D01*
X24613Y42729D01*
X24618Y42720D01*
X24624Y42710D01*
X24628Y42698D01*
X24633Y42686D01*
X24638Y42673D01*
X24641Y42659D01*
X24643Y42643D01*
X24645Y42627D01*
X24646Y42611D01*
Y42610D01*
Y42608D01*
Y42605D01*
Y42600D01*
X24645Y42595D01*
Y42589D01*
X24642Y42575D01*
X24640Y42557D01*
X24635Y42538D01*
X24628Y42518D01*
X24619Y42499D01*
Y42498D01*
X24618Y42497D01*
X24616Y42494D01*
X24615Y42490D01*
X24609Y42481D01*
X24601Y42469D01*
X24591Y42456D01*
X24579Y42443D01*
X24564Y42430D01*
X24548Y42419D01*
X24547D01*
X24546Y42418D01*
X24543Y42416D01*
X24540Y42415D01*
X24530Y42411D01*
X24518Y42406D01*
X24503Y42401D01*
X24485Y42397D01*
X24466Y42393D01*
X24444Y42392D01*
X24440D01*
X24435Y42393D01*
X24428D01*
X24419Y42394D01*
X24410Y42396D01*
X24399Y42399D01*
X24388Y42402D01*
X24375Y42405D01*
X24362Y42410D01*
X24349Y42415D01*
X24335Y42423D01*
X24322Y42431D01*
X24309Y42440D01*
X24296Y42452D01*
X24284Y42464D01*
X24283Y42465D01*
X24282Y42468D01*
X24279Y42472D01*
X24275Y42478D01*
X24270Y42487D01*
X24265Y42496D01*
X24259Y42508D01*
X24254Y42521D01*
X24247Y42537D01*
X24242Y42554D01*
X24237Y42574D01*
X24233Y42595D01*
X24228Y42619D01*
X24225Y42645D01*
X24223Y42673D01*
X24222Y42702D01*
Y42703D01*
Y42704D01*
Y42707D01*
Y42710D01*
X24223Y42720D01*
Y42733D01*
X24224Y42748D01*
X24226Y42765D01*
X24228Y42785D01*
X24231Y42806D01*
X24234Y42827D01*
X24239Y42850D01*
X24245Y42872D01*
X24251Y42895D01*
X24259Y42916D01*
X24269Y42936D01*
X24279Y42956D01*
X24291Y42972D01*
X24292Y42973D01*
X24294Y42975D01*
X24297Y42979D01*
X24302Y42984D01*
X24307Y42990D01*
X24315Y42995D01*
X24324Y43003D01*
X24333Y43009D01*
X24344Y43016D01*
X24357Y43023D01*
X24370Y43029D01*
X24384Y43035D01*
X24400Y43040D01*
X24417Y43043D01*
X24434Y43045D01*
X24453Y43046D01*
X24460D01*
X24466Y43045D01*
D02*
G37*
G36*
X23389Y42877D02*
X23399Y42875D01*
X23411Y42871D01*
X23424Y42867D01*
X23439Y42860D01*
X23455Y42852D01*
X23426Y42780D01*
X23425Y42781D01*
X23421Y42783D01*
X23416Y42785D01*
X23408Y42788D01*
X23400Y42791D01*
X23390Y42794D01*
X23380Y42796D01*
X23370Y42797D01*
X23365D01*
X23360Y42796D01*
X23354Y42795D01*
X23347Y42793D01*
X23339Y42790D01*
X23331Y42786D01*
X23323Y42781D01*
X23322Y42780D01*
X23320Y42778D01*
X23317Y42774D01*
X23312Y42770D01*
X23308Y42763D01*
X23303Y42756D01*
X23298Y42748D01*
X23295Y42737D01*
X23294Y42735D01*
X23293Y42730D01*
X23291Y42722D01*
X23288Y42710D01*
X23285Y42697D01*
X23284Y42681D01*
X23283Y42664D01*
X23282Y42646D01*
Y42403D01*
X23203D01*
Y42868D01*
X23274D01*
Y42797D01*
X23275Y42798D01*
X23279Y42805D01*
X23284Y42813D01*
X23291Y42823D01*
X23298Y42834D01*
X23307Y42845D01*
X23315Y42854D01*
X23323Y42861D01*
X23324Y42862D01*
X23327Y42864D01*
X23333Y42867D01*
X23338Y42870D01*
X23345Y42872D01*
X23355Y42875D01*
X23364Y42877D01*
X23374Y42878D01*
X23381D01*
X23389Y42877D01*
D02*
G37*
G36*
X22390Y42403D02*
X22301D01*
X22053Y43043D01*
X22146D01*
X22312Y42578D01*
Y42577D01*
X22313Y42575D01*
X22314Y42573D01*
X22316Y42569D01*
X22317Y42563D01*
X22319Y42558D01*
X22323Y42544D01*
X22329Y42528D01*
X22334Y42511D01*
X22346Y42474D01*
Y42475D01*
X22346Y42476D01*
X22347Y42479D01*
X22348Y42483D01*
X22351Y42493D01*
X22356Y42507D01*
X22360Y42523D01*
X22366Y42540D01*
X22372Y42559D01*
X22380Y42578D01*
X22554Y43043D01*
X22640D01*
X22390Y42403D01*
D02*
G37*
G36*
X25757Y43043D02*
X25764D01*
X25781Y43041D01*
X25800Y43039D01*
X25819Y43035D01*
X25838Y43031D01*
X25856Y43024D01*
X25857D01*
X25858Y43023D01*
X25863Y43020D01*
X25872Y43016D01*
X25881Y43009D01*
X25892Y43001D01*
X25904Y42991D01*
X25915Y42978D01*
X25925Y42964D01*
X25926Y42962D01*
X25929Y42957D01*
X25934Y42949D01*
X25938Y42938D01*
X25943Y42925D01*
X25948Y42911D01*
X25950Y42895D01*
X25951Y42880D01*
Y42878D01*
Y42873D01*
X25950Y42865D01*
X25948Y42855D01*
X25946Y42843D01*
X25941Y42830D01*
X25935Y42817D01*
X25928Y42803D01*
X25927Y42801D01*
X25924Y42797D01*
X25919Y42790D01*
X25911Y42783D01*
X25902Y42773D01*
X25891Y42763D01*
X25877Y42754D01*
X25861Y42745D01*
X25862D01*
X25864Y42744D01*
X25867Y42743D01*
X25871Y42741D01*
X25882Y42737D01*
X25895Y42731D01*
X25909Y42723D01*
X25924Y42712D01*
X25938Y42700D01*
X25951Y42686D01*
X25952Y42684D01*
X25956Y42678D01*
X25961Y42670D01*
X25967Y42659D01*
X25972Y42644D01*
X25978Y42628D01*
X25982Y42610D01*
X25983Y42589D01*
Y42588D01*
Y42587D01*
Y42582D01*
X25982Y42573D01*
X25980Y42562D01*
X25978Y42549D01*
X25974Y42535D01*
X25970Y42520D01*
X25963Y42505D01*
X25962Y42503D01*
X25960Y42499D01*
X25956Y42492D01*
X25950Y42483D01*
X25943Y42474D01*
X25935Y42464D01*
X25926Y42453D01*
X25916Y42445D01*
X25915Y42444D01*
X25911Y42441D01*
X25905Y42438D01*
X25897Y42434D01*
X25886Y42428D01*
X25874Y42423D01*
X25861Y42418D01*
X25846Y42414D01*
X25844D01*
X25838Y42412D01*
X25829Y42411D01*
X25817Y42409D01*
X25802Y42407D01*
X25785Y42405D01*
X25765Y42404D01*
X25743Y42403D01*
X25499D01*
Y43043D01*
X25751D01*
X25757Y43043D01*
D02*
G37*
G36*
X24858Y42403D02*
X24768D01*
Y42493D01*
X24858D01*
Y42403D01*
D02*
G37*
G36*
X24111D02*
X24022D01*
Y42493D01*
X24111D01*
Y42403D01*
D02*
G37*
G36*
X23707Y43045D02*
X23715Y43044D01*
X23724Y43043D01*
X23734Y43042D01*
X23744Y43040D01*
X23768Y43033D01*
X23792Y43024D01*
X23804Y43019D01*
X23816Y43012D01*
X23827Y43004D01*
X23838Y42994D01*
X23839Y42994D01*
X23840Y42993D01*
X23842Y42989D01*
X23846Y42985D01*
X23851Y42981D01*
X23855Y42974D01*
X23860Y42968D01*
X23865Y42959D01*
X23875Y42942D01*
X23884Y42920D01*
X23888Y42908D01*
X23889Y42895D01*
X23891Y42883D01*
X23892Y42869D01*
Y42867D01*
Y42862D01*
X23891Y42855D01*
X23890Y42845D01*
X23888Y42834D01*
X23885Y42821D01*
X23881Y42807D01*
X23876Y42793D01*
X23875Y42791D01*
X23873Y42786D01*
X23869Y42779D01*
X23863Y42769D01*
X23856Y42758D01*
X23847Y42744D01*
X23836Y42730D01*
X23823Y42714D01*
X23821Y42712D01*
X23816Y42707D01*
X23812Y42702D01*
X23807Y42698D01*
X23802Y42692D01*
X23794Y42685D01*
X23787Y42677D01*
X23777Y42669D01*
X23768Y42660D01*
X23757Y42649D01*
X23745Y42639D01*
X23732Y42627D01*
X23717Y42615D01*
X23703Y42602D01*
X23702Y42601D01*
X23700Y42600D01*
X23696Y42597D01*
X23691Y42593D01*
X23686Y42587D01*
X23679Y42582D01*
X23665Y42570D01*
X23649Y42556D01*
X23634Y42542D01*
X23621Y42530D01*
X23616Y42526D01*
X23611Y42521D01*
X23610Y42520D01*
X23607Y42517D01*
X23604Y42513D01*
X23599Y42508D01*
X23594Y42501D01*
X23589Y42495D01*
X23578Y42479D01*
X23893D01*
Y42403D01*
X23469D01*
Y42404D01*
Y42408D01*
Y42414D01*
X23469Y42421D01*
X23470Y42429D01*
X23472Y42439D01*
X23474Y42448D01*
X23478Y42458D01*
Y42459D01*
X23479Y42460D01*
X23481Y42465D01*
X23484Y42474D01*
X23490Y42485D01*
X23497Y42498D01*
X23506Y42513D01*
X23517Y42527D01*
X23530Y42543D01*
Y42544D01*
X23531Y42545D01*
X23536Y42550D01*
X23544Y42559D01*
X23556Y42571D01*
X23570Y42585D01*
X23588Y42601D01*
X23609Y42620D01*
X23632Y42639D01*
X23633Y42640D01*
X23637Y42643D01*
X23642Y42648D01*
X23649Y42653D01*
X23657Y42661D01*
X23667Y42669D01*
X23678Y42678D01*
X23690Y42688D01*
X23713Y42710D01*
X23736Y42733D01*
X23747Y42744D01*
X23757Y42755D01*
X23766Y42765D01*
X23774Y42775D01*
Y42776D01*
X23776Y42777D01*
X23777Y42780D01*
X23779Y42784D01*
X23786Y42794D01*
X23793Y42806D01*
X23800Y42821D01*
X23806Y42836D01*
X23810Y42854D01*
X23812Y42871D01*
Y42871D01*
Y42872D01*
X23811Y42878D01*
X23810Y42887D01*
X23807Y42897D01*
X23803Y42910D01*
X23797Y42923D01*
X23789Y42936D01*
X23777Y42949D01*
X23776Y42951D01*
X23771Y42955D01*
X23765Y42959D01*
X23754Y42966D01*
X23741Y42971D01*
X23727Y42977D01*
X23709Y42981D01*
X23690Y42982D01*
X23684D01*
X23680Y42981D01*
X23669Y42980D01*
X23656Y42977D01*
X23642Y42973D01*
X23627Y42967D01*
X23612Y42958D01*
X23598Y42947D01*
X23596Y42945D01*
X23592Y42941D01*
X23587Y42933D01*
X23581Y42922D01*
X23575Y42909D01*
X23569Y42893D01*
X23566Y42874D01*
X23564Y42853D01*
X23483Y42861D01*
Y42862D01*
X23484Y42865D01*
Y42870D01*
X23485Y42876D01*
X23487Y42883D01*
X23489Y42892D01*
X23492Y42902D01*
X23494Y42912D01*
X23502Y42934D01*
X23513Y42957D01*
X23519Y42968D01*
X23528Y42979D01*
X23536Y42989D01*
X23545Y42998D01*
X23546Y42999D01*
X23548Y43000D01*
X23551Y43003D01*
X23555Y43006D01*
X23561Y43009D01*
X23568Y43013D01*
X23575Y43018D01*
X23584Y43022D01*
X23594Y43027D01*
X23605Y43031D01*
X23617Y43035D01*
X23630Y43039D01*
X23644Y43042D01*
X23659Y43044D01*
X23675Y43045D01*
X23691Y43046D01*
X23701D01*
X23707Y43045D01*
D02*
G37*
G36*
X22912Y42877D02*
X22919Y42876D01*
X22928Y42874D01*
X22938Y42872D01*
X22951Y42870D01*
X22962Y42867D01*
X22975Y42862D01*
X22987Y42858D01*
X23000Y42851D01*
X23012Y42844D01*
X23025Y42835D01*
X23037Y42825D01*
X23049Y42814D01*
X23049Y42813D01*
X23051Y42811D01*
X23054Y42808D01*
X23058Y42802D01*
X23062Y42796D01*
X23067Y42788D01*
X23073Y42779D01*
X23078Y42768D01*
X23084Y42756D01*
X23089Y42743D01*
X23094Y42728D01*
X23099Y42712D01*
X23102Y42695D01*
X23105Y42676D01*
X23107Y42657D01*
X23108Y42636D01*
Y42635D01*
Y42631D01*
Y42624D01*
X23107Y42615D01*
X22760D01*
Y42614D01*
Y42612D01*
X22761Y42608D01*
Y42602D01*
X22762Y42596D01*
X22764Y42588D01*
X22766Y42572D01*
X22772Y42553D01*
X22779Y42533D01*
X22790Y42514D01*
X22803Y42498D01*
X22803D01*
X22804Y42496D01*
X22810Y42491D01*
X22818Y42485D01*
X22829Y42478D01*
X22844Y42471D01*
X22861Y42464D01*
X22879Y42460D01*
X22889Y42459D01*
X22901Y42458D01*
X22908D01*
X22916Y42459D01*
X22926Y42461D01*
X22938Y42464D01*
X22951Y42467D01*
X22963Y42473D01*
X22975Y42480D01*
X22975Y42481D01*
X22980Y42485D01*
X22986Y42490D01*
X22992Y42498D01*
X23000Y42508D01*
X23008Y42521D01*
X23016Y42536D01*
X23024Y42553D01*
X23105Y42543D01*
Y42542D01*
X23104Y42540D01*
X23103Y42537D01*
X23101Y42531D01*
X23099Y42526D01*
X23096Y42518D01*
X23088Y42502D01*
X23079Y42485D01*
X23066Y42466D01*
X23051Y42449D01*
X23033Y42432D01*
X23032D01*
X23030Y42430D01*
X23027Y42428D01*
X23024Y42426D01*
X23018Y42423D01*
X23012Y42420D01*
X23005Y42416D01*
X22997Y42413D01*
X22988Y42409D01*
X22978Y42405D01*
X22955Y42400D01*
X22929Y42395D01*
X22901Y42393D01*
X22890D01*
X22884Y42394D01*
X22876Y42395D01*
X22865Y42397D01*
X22854Y42399D01*
X22842Y42401D01*
X22816Y42408D01*
X22803Y42414D01*
X22790Y42419D01*
X22776Y42427D01*
X22763Y42435D01*
X22751Y42444D01*
X22739Y42455D01*
X22738Y42456D01*
X22736Y42458D01*
X22733Y42462D01*
X22729Y42467D01*
X22725Y42474D01*
X22720Y42481D01*
X22715Y42490D01*
X22709Y42501D01*
X22704Y42513D01*
X22698Y42526D01*
X22693Y42540D01*
X22689Y42556D01*
X22685Y42573D01*
X22682Y42591D01*
X22680Y42611D01*
X22680Y42631D01*
Y42632D01*
Y42636D01*
Y42642D01*
X22680Y42650D01*
X22681Y42661D01*
X22682Y42672D01*
X22684Y42685D01*
X22687Y42698D01*
X22694Y42727D01*
X22699Y42742D01*
X22704Y42758D01*
X22712Y42772D01*
X22720Y42786D01*
X22729Y42800D01*
X22740Y42813D01*
X22741Y42814D01*
X22742Y42816D01*
X22746Y42819D01*
X22751Y42823D01*
X22756Y42828D01*
X22764Y42834D01*
X22772Y42840D01*
X22782Y42846D01*
X22792Y42852D01*
X22804Y42858D01*
X22817Y42863D01*
X22831Y42868D01*
X22846Y42872D01*
X22862Y42875D01*
X22878Y42877D01*
X22896Y42878D01*
X22905D01*
X22912Y42877D01*
D02*
G37*
G36*
X25200Y43045D02*
X25212Y43043D01*
X25226Y43041D01*
X25241Y43037D01*
X25257Y43032D01*
X25271Y43025D01*
X25272D01*
X25273Y43024D01*
X25278Y43021D01*
X25285Y43017D01*
X25294Y43010D01*
X25305Y43001D01*
X25316Y42991D01*
X25326Y42979D01*
X25336Y42965D01*
X25337Y42963D01*
X25341Y42958D01*
X25344Y42950D01*
X25351Y42938D01*
X25356Y42924D01*
X25364Y42908D01*
X25370Y42890D01*
X25376Y42870D01*
Y42869D01*
X25377Y42867D01*
X25378Y42864D01*
X25379Y42859D01*
X25380Y42854D01*
X25380Y42847D01*
X25382Y42839D01*
X25383Y42830D01*
X25385Y42820D01*
X25386Y42809D01*
X25387Y42796D01*
X25389Y42783D01*
X25390Y42768D01*
Y42753D01*
X25391Y42736D01*
Y42719D01*
Y42718D01*
Y42714D01*
Y42708D01*
Y42700D01*
X25390Y42690D01*
Y42679D01*
X25389Y42667D01*
X25388Y42654D01*
X25385Y42624D01*
X25380Y42594D01*
X25375Y42564D01*
X25371Y42550D01*
X25367Y42537D01*
Y42536D01*
X25366Y42534D01*
X25364Y42530D01*
X25362Y42526D01*
X25360Y42519D01*
X25356Y42513D01*
X25349Y42497D01*
X25340Y42480D01*
X25328Y42462D01*
X25314Y42445D01*
X25297Y42429D01*
X25296D01*
X25295Y42427D01*
X25293Y42426D01*
X25289Y42424D01*
X25284Y42421D01*
X25280Y42417D01*
X25266Y42411D01*
X25249Y42404D01*
X25230Y42398D01*
X25207Y42394D01*
X25182Y42392D01*
X25172D01*
X25166Y42393D01*
X25159Y42394D01*
X25149Y42396D01*
X25139Y42398D01*
X25128Y42401D01*
X25117Y42404D01*
X25105Y42408D01*
X25093Y42414D01*
X25081Y42420D01*
X25069Y42427D01*
X25057Y42437D01*
X25046Y42447D01*
X25035Y42458D01*
X25035Y42459D01*
X25033Y42462D01*
X25030Y42466D01*
X25025Y42474D01*
X25021Y42482D01*
X25016Y42493D01*
X25010Y42506D01*
X25004Y42521D01*
X24998Y42538D01*
X24993Y42557D01*
X24987Y42578D01*
X24983Y42602D01*
X24978Y42628D01*
X24975Y42656D01*
X24973Y42686D01*
X24973Y42719D01*
Y42720D01*
Y42723D01*
Y42730D01*
Y42737D01*
X24973Y42748D01*
Y42759D01*
X24974Y42771D01*
X24975Y42785D01*
X24978Y42813D01*
X24983Y42844D01*
X24988Y42874D01*
X24992Y42888D01*
X24996Y42902D01*
Y42903D01*
X24997Y42905D01*
X24998Y42908D01*
X25000Y42913D01*
X25002Y42920D01*
X25006Y42926D01*
X25013Y42942D01*
X25023Y42958D01*
X25035Y42976D01*
X25048Y42994D01*
X25065Y43008D01*
X25066D01*
X25067Y43010D01*
X25070Y43012D01*
X25073Y43014D01*
X25078Y43018D01*
X25084Y43020D01*
X25097Y43028D01*
X25114Y43034D01*
X25134Y43041D01*
X25157Y43044D01*
X25182Y43046D01*
X25190D01*
X25200Y43045D01*
D02*
G37*
%LPC*%
G36*
X24441Y42749D02*
X24435D01*
X24431Y42748D01*
X24422Y42748D01*
X24409Y42745D01*
X24395Y42740D01*
X24380Y42733D01*
X24365Y42723D01*
X24350Y42710D01*
X24348Y42709D01*
X24344Y42704D01*
X24338Y42696D01*
X24332Y42684D01*
X24325Y42670D01*
X24319Y42652D01*
X24315Y42633D01*
X24313Y42611D01*
Y42609D01*
Y42604D01*
X24314Y42596D01*
X24315Y42586D01*
X24317Y42574D01*
X24320Y42561D01*
X24324Y42547D01*
X24330Y42533D01*
X24331Y42531D01*
X24333Y42526D01*
X24337Y42520D01*
X24343Y42512D01*
X24349Y42503D01*
X24357Y42493D01*
X24367Y42485D01*
X24378Y42476D01*
X24380Y42476D01*
X24383Y42474D01*
X24390Y42470D01*
X24398Y42467D01*
X24407Y42464D01*
X24418Y42460D01*
X24431Y42458D01*
X24443Y42457D01*
X24448D01*
X24452Y42458D01*
X24461Y42459D01*
X24473Y42462D01*
X24486Y42467D01*
X24501Y42474D01*
X24516Y42484D01*
X24523Y42489D01*
X24530Y42497D01*
Y42498D01*
X24531Y42499D01*
X24535Y42504D01*
X24541Y42513D01*
X24548Y42526D01*
X24554Y42541D01*
X24560Y42560D01*
X24564Y42581D01*
X24566Y42606D01*
Y42607D01*
Y42609D01*
Y42612D01*
X24565Y42617D01*
Y42623D01*
X24564Y42629D01*
X24561Y42644D01*
X24557Y42661D01*
X24551Y42678D01*
X24542Y42695D01*
X24530Y42710D01*
X24528Y42712D01*
X24523Y42717D01*
X24516Y42723D01*
X24505Y42730D01*
X24492Y42737D01*
X24478Y42743D01*
X24460Y42748D01*
X24441Y42749D01*
D02*
G37*
G36*
X25736Y42968D02*
X25584D01*
Y42775D01*
X25741D01*
X25753Y42776D01*
X25766Y42777D01*
X25779Y42778D01*
X25792Y42780D01*
X25802Y42782D01*
X25804Y42783D01*
X25808Y42784D01*
X25813Y42786D01*
X25821Y42790D01*
X25828Y42794D01*
X25837Y42799D01*
X25845Y42807D01*
X25851Y42814D01*
X25852Y42815D01*
X25854Y42818D01*
X25857Y42823D01*
X25860Y42830D01*
X25862Y42837D01*
X25865Y42846D01*
X25867Y42858D01*
X25868Y42870D01*
Y42871D01*
Y42875D01*
X25867Y42881D01*
X25866Y42888D01*
X25864Y42897D01*
X25861Y42907D01*
X25858Y42916D01*
X25852Y42925D01*
X25851Y42926D01*
X25849Y42929D01*
X25846Y42933D01*
X25841Y42938D01*
X25835Y42944D01*
X25827Y42949D01*
X25818Y42955D01*
X25808Y42958D01*
X25807D01*
X25802Y42960D01*
X25796Y42961D01*
X25786Y42963D01*
X25772Y42965D01*
X25756Y42966D01*
X25736Y42968D01*
D02*
G37*
G36*
X25752Y42699D02*
X25584D01*
Y42479D01*
X25766D01*
X25786Y42480D01*
X25794Y42481D01*
X25801Y42482D01*
X25802D01*
X25806Y42483D01*
X25812Y42484D01*
X25818Y42486D01*
X25834Y42491D01*
X25849Y42499D01*
X25850Y42500D01*
X25853Y42501D01*
X25857Y42504D01*
X25861Y42508D01*
X25866Y42513D01*
X25873Y42519D01*
X25877Y42526D01*
X25883Y42535D01*
X25884Y42536D01*
X25885Y42538D01*
X25886Y42544D01*
X25889Y42550D01*
X25892Y42558D01*
X25894Y42567D01*
X25895Y42578D01*
X25896Y42589D01*
Y42591D01*
Y42595D01*
X25895Y42602D01*
X25893Y42611D01*
X25891Y42620D01*
X25887Y42630D01*
X25883Y42640D01*
X25876Y42650D01*
X25875Y42651D01*
X25873Y42655D01*
X25869Y42660D01*
X25863Y42665D01*
X25856Y42672D01*
X25847Y42678D01*
X25837Y42684D01*
X25824Y42688D01*
X25823Y42689D01*
X25819Y42690D01*
X25811Y42692D01*
X25800Y42694D01*
X25787Y42696D01*
X25772Y42698D01*
X25752Y42699D01*
D02*
G37*
G36*
X22897Y42813D02*
X22891D01*
X22888Y42812D01*
X22877Y42811D01*
X22865Y42809D01*
X22851Y42804D01*
X22835Y42797D01*
X22820Y42788D01*
X22805Y42776D01*
X22803Y42774D01*
X22800Y42770D01*
X22793Y42761D01*
X22787Y42750D01*
X22779Y42737D01*
X22773Y42721D01*
X22767Y42701D01*
X22765Y42680D01*
X23025D01*
Y42681D01*
Y42683D01*
X23024Y42686D01*
Y42689D01*
X23022Y42700D01*
X23019Y42712D01*
X23014Y42727D01*
X23010Y42741D01*
X23002Y42755D01*
X22994Y42767D01*
Y42768D01*
X22992Y42769D01*
X22988Y42774D01*
X22979Y42782D01*
X22968Y42790D01*
X22954Y42798D01*
X22938Y42806D01*
X22918Y42811D01*
X22908Y42812D01*
X22897Y42813D01*
D02*
G37*
G36*
X25181Y42982D02*
X25175D01*
X25171Y42981D01*
X25161Y42979D01*
X25149Y42976D01*
X25135Y42970D01*
X25121Y42962D01*
X25113Y42957D01*
X25106Y42951D01*
X25099Y42944D01*
X25093Y42935D01*
Y42934D01*
X25091Y42933D01*
X25089Y42929D01*
X25086Y42924D01*
X25084Y42917D01*
X25080Y42908D01*
X25077Y42898D01*
X25073Y42886D01*
X25070Y42872D01*
X25066Y42857D01*
X25062Y42839D01*
X25060Y42820D01*
X25057Y42797D01*
X25055Y42773D01*
X25054Y42748D01*
X25053Y42719D01*
Y42717D01*
Y42712D01*
Y42704D01*
X25054Y42693D01*
Y42681D01*
X25055Y42666D01*
X25056Y42650D01*
X25058Y42634D01*
X25062Y42598D01*
X25065Y42580D01*
X25069Y42563D01*
X25072Y42548D01*
X25078Y42533D01*
X25084Y42520D01*
X25090Y42509D01*
Y42508D01*
X25092Y42507D01*
X25097Y42501D01*
X25105Y42492D01*
X25115Y42483D01*
X25129Y42474D01*
X25145Y42465D01*
X25162Y42459D01*
X25171Y42458D01*
X25182Y42457D01*
X25187D01*
X25191Y42458D01*
X25200Y42460D01*
X25213Y42464D01*
X25227Y42470D01*
X25243Y42479D01*
X25250Y42485D01*
X25257Y42492D01*
X25265Y42500D01*
X25272Y42509D01*
Y42510D01*
X25274Y42512D01*
X25276Y42514D01*
X25278Y42519D01*
X25282Y42526D01*
X25284Y42534D01*
X25288Y42543D01*
X25292Y42554D01*
X25294Y42568D01*
X25298Y42583D01*
X25302Y42600D01*
X25305Y42619D01*
X25306Y42641D01*
X25308Y42664D01*
X25310Y42690D01*
Y42719D01*
Y42720D01*
Y42721D01*
Y42725D01*
Y42734D01*
X25309Y42745D01*
Y42757D01*
X25308Y42772D01*
X25307Y42787D01*
X25306Y42805D01*
X25301Y42840D01*
X25298Y42858D01*
X25294Y42874D01*
X25291Y42890D01*
X25285Y42905D01*
X25280Y42918D01*
X25273Y42929D01*
Y42930D01*
X25271Y42931D01*
X25269Y42933D01*
X25267Y42937D01*
X25258Y42945D01*
X25248Y42956D01*
X25234Y42965D01*
X25219Y42973D01*
X25210Y42977D01*
X25201Y42980D01*
X25191Y42981D01*
X25181Y42982D01*
D02*
G37*
%LPD*%
D21*
X45627Y31061D02*
X46733D01*
X44980Y41523D02*
X45426Y41077D01*
Y39963D02*
Y41077D01*
X32758Y42736D02*
X32765Y40130D01*
X31495Y43943D02*
X32038Y44507D01*
X44968Y42699D02*
X44972Y41515D01*
X42893Y43568D02*
X43603Y42878D01*
X36217Y43568D02*
X42893D01*
X35252Y44522D02*
X36217Y43568D01*
X32038Y44507D02*
X35252Y44522D01*
X31495Y42714D02*
Y43943D01*
D77*
X49961Y44489D02*
X51803Y44475D01*
X52796Y43430D01*
D78*
X39619Y32902D02*
X40836D01*
X39896Y32032D02*
X40979Y32036D01*
X43252Y32030D02*
X43825Y32028D01*
X43248Y32474D02*
X44053Y32472D01*
X43240Y32894D02*
X44045Y32892D01*
X39580Y32464D02*
X40910D01*
X37848Y32898D02*
X39065D01*
X38161Y32028D02*
X39384Y32031D01*
X37718Y32469D02*
X39003Y32477D01*
D79*
X36126Y32834D02*
X37234Y32825D01*
X36072Y33366D02*
X37697Y33371D01*
X35879Y33912D02*
X37252Y33906D01*
X32015Y35189D02*
X33208Y35189D01*
X31551Y35726D02*
X32587Y35716D01*
X32167Y34635D02*
X33331Y34639D01*
X28836Y34431D02*
X29386Y34982D01*
X29338Y34164D02*
X29634Y34448D01*
X28496Y34880D02*
X29047Y35431D01*
X29239Y32876D02*
Y33676D01*
X28131Y32909D02*
Y34409D01*
X28680Y32911D02*
Y33911D01*
X29939Y35189D02*
X31439D01*
X30091Y34635D02*
X31591D01*
X29474Y35726D02*
X30974D01*
X40722Y6737D02*
X42560Y6742D01*
D80*
X34683Y40425D02*
X43396Y40457D01*
D81*
X36196Y7185D02*
D03*
X26755Y7484D02*
D03*
X48064Y16391D02*
D03*
X25720Y17578D02*
D03*
D82*
X36196Y7854D02*
D03*
X26755Y8153D02*
D03*
X48064Y17060D02*
D03*
X25720Y16908D02*
D03*
D83*
X33964Y25385D02*
D03*
Y27236D02*
D03*
X33962Y28215D02*
D03*
Y30065D02*
D03*
X43968Y29330D02*
D03*
Y31180D02*
D03*
D84*
X32048Y29162D02*
D03*
Y28432D02*
D03*
X53548Y33182D02*
D03*
Y33912D02*
D03*
X26315Y18404D02*
D03*
Y19134D02*
D03*
X46793Y34754D02*
D03*
Y34024D02*
D03*
X38938Y25926D02*
D03*
Y25196D02*
D03*
X38319Y25914D02*
D03*
Y25184D02*
D03*
X26317Y17671D02*
D03*
Y16941D02*
D03*
X50134Y30890D02*
D03*
Y31620D02*
D03*
X48054Y30146D02*
D03*
Y30876D02*
D03*
X52913Y20671D02*
D03*
Y19941D02*
D03*
X43750Y22519D02*
D03*
Y21789D02*
D03*
X43741Y20967D02*
D03*
Y20237D02*
D03*
X30289Y25155D02*
D03*
Y25885D02*
D03*
X29770Y28182D02*
D03*
Y27452D02*
D03*
X52242Y19936D02*
D03*
Y20666D02*
D03*
X49517Y32218D02*
D03*
Y31488D02*
D03*
X49267Y17128D02*
D03*
Y16398D02*
D03*
X30049Y9346D02*
D03*
Y10076D02*
D03*
X28232Y10047D02*
D03*
Y9317D02*
D03*
X30645Y8508D02*
D03*
Y9238D02*
D03*
X20782Y11278D02*
D03*
Y12007D02*
D03*
X22452Y8810D02*
D03*
Y8080D02*
D03*
X27461Y11290D02*
D03*
Y12020D02*
D03*
X30269Y14364D02*
D03*
Y15094D02*
D03*
X26708Y14189D02*
D03*
Y14919D02*
D03*
X50141Y19031D02*
D03*
Y19761D02*
D03*
X26085Y15689D02*
D03*
Y14959D02*
D03*
X39683Y13199D02*
D03*
Y12469D02*
D03*
X23120Y10301D02*
D03*
Y9571D02*
D03*
X25995Y12747D02*
D03*
Y13477D02*
D03*
X26704Y13478D02*
D03*
Y12748D02*
D03*
X29584Y13466D02*
D03*
Y14196D02*
D03*
X28925D02*
D03*
Y13466D02*
D03*
X34632Y14458D02*
D03*
Y13728D02*
D03*
X33876Y13192D02*
D03*
Y12462D02*
D03*
X36201Y8484D02*
D03*
Y9214D02*
D03*
X34630Y13007D02*
D03*
Y12277D02*
D03*
X38057Y34139D02*
D03*
X38087Y34869D02*
D03*
X28880Y11925D02*
D03*
Y12655D02*
D03*
X37457Y12017D02*
D03*
Y11287D02*
D03*
X20132Y11292D02*
D03*
Y12022D02*
D03*
X22043Y13635D02*
D03*
Y12905D02*
D03*
X21329Y12861D02*
D03*
Y13591D02*
D03*
D85*
X31432Y25650D02*
D03*
X26373Y26541D02*
D03*
X28243Y11731D02*
D03*
X23111Y8847D02*
D03*
X26697Y12048D02*
D03*
X29562Y12685D02*
D03*
X35399Y9076D02*
D03*
X31335Y9259D02*
D03*
X21453Y12047D02*
D03*
D86*
X31432Y24547D02*
D03*
X26373Y25438D02*
D03*
X28243Y12834D02*
D03*
X23111Y7745D02*
D03*
X26697Y10946D02*
D03*
X29562Y11583D02*
D03*
X35399Y7974D02*
D03*
X31335Y8157D02*
D03*
X21453Y10945D02*
D03*
D87*
X30577Y23346D02*
D03*
X31603D02*
D03*
D88*
X30319Y20948D02*
D03*
Y22089D02*
D03*
X42348Y31470D02*
D03*
Y32612D02*
D03*
X38150Y29352D02*
D03*
Y30493D02*
D03*
X39555Y29337D02*
D03*
Y30479D02*
D03*
X40989Y30486D02*
D03*
Y29344D02*
D03*
X42400Y30501D02*
D03*
Y29359D02*
D03*
D89*
X27988Y16326D02*
D03*
X27258D02*
D03*
X39168Y24463D02*
D03*
X38438D02*
D03*
X26512Y16320D02*
D03*
X25782D02*
D03*
X28515Y19031D02*
D03*
X27785D02*
D03*
X48229Y33698D02*
D03*
X47498D02*
D03*
X47495Y34315D02*
D03*
X48225D02*
D03*
X48096Y31643D02*
D03*
X48826D02*
D03*
X49416Y27222D02*
D03*
X50146D02*
D03*
X50148Y28528D02*
D03*
X49418D02*
D03*
X51785Y28029D02*
D03*
X51055D02*
D03*
X51845Y15410D02*
D03*
X51115D02*
D03*
X51830Y16078D02*
D03*
X51100D02*
D03*
X28612Y24033D02*
D03*
X29341D02*
D03*
X49443Y30804D02*
D03*
X48713D02*
D03*
X49724Y29438D02*
D03*
X48994D02*
D03*
X51525Y20527D02*
D03*
X50795D02*
D03*
X53140Y32342D02*
D03*
X52410D02*
D03*
X26745Y9210D02*
D03*
X27475D02*
D03*
X35447Y9879D02*
D03*
X36177D02*
D03*
X21132Y14834D02*
D03*
X21862D02*
D03*
X31548Y15152D02*
D03*
X32278D02*
D03*
X33158Y10998D02*
D03*
X33888D02*
D03*
X22894Y39323D02*
D03*
X22164D02*
D03*
X22861Y34067D02*
D03*
X22132D02*
D03*
X42811Y13598D02*
D03*
X42081D02*
D03*
X44072Y9348D02*
D03*
X44802D02*
D03*
X42123Y9886D02*
D03*
X42853D02*
D03*
X42871Y8487D02*
D03*
X42141D02*
D03*
X51410Y23720D02*
D03*
X50680D02*
D03*
X52894D02*
D03*
X52164D02*
D03*
X52138Y22500D02*
D03*
X52868D02*
D03*
X30726Y9930D02*
D03*
X31456D02*
D03*
X45393Y14823D02*
D03*
X44663D02*
D03*
X42817Y15452D02*
D03*
X42087D02*
D03*
X22099Y35509D02*
D03*
X22829D02*
D03*
X22092Y34714D02*
D03*
X22852D02*
D03*
X22150Y40755D02*
D03*
X22880D02*
D03*
X22128Y39992D02*
D03*
X22888D02*
D03*
D90*
X20613Y17374D02*
D03*
X23126D02*
D03*
D91*
X51729Y38018D02*
D03*
X51827Y36901D02*
D03*
D92*
X53142Y37763D02*
D03*
Y36641D02*
D03*
X43049Y36239D02*
D03*
Y37361D02*
D03*
X37146Y36371D02*
D03*
Y37493D02*
D03*
X28570Y21928D02*
D03*
Y20806D02*
D03*
X27558Y20817D02*
D03*
Y21939D02*
D03*
X29641Y39916D02*
D03*
Y38794D02*
D03*
D93*
X47900Y37653D02*
D03*
X46928Y37092D02*
D03*
X48518Y36997D02*
D03*
X49489Y37558D02*
D03*
D94*
X42316Y38912D02*
D03*
X41755Y37940D02*
D03*
D95*
X36510Y31737D02*
D03*
Y29395D02*
D03*
X29251Y40913D02*
D03*
Y43256D02*
D03*
X49574Y41169D02*
D03*
Y38827D02*
D03*
D96*
X52478Y33223D02*
D03*
Y33913D02*
D03*
X34630Y10892D02*
D03*
Y11582D02*
D03*
X30414Y27469D02*
D03*
Y28159D02*
D03*
X50127Y17579D02*
D03*
Y18269D02*
D03*
X44793Y32465D02*
D03*
Y31775D02*
D03*
X50356Y15390D02*
D03*
Y16080D02*
D03*
X53000Y27413D02*
D03*
Y26723D02*
D03*
X48624Y17076D02*
D03*
Y16386D02*
D03*
X29440Y9361D02*
D03*
Y10051D02*
D03*
X28830Y10041D02*
D03*
Y9351D02*
D03*
X28273Y13555D02*
D03*
Y14245D02*
D03*
X40383Y12470D02*
D03*
Y13160D02*
D03*
X47463Y30505D02*
D03*
Y29815D02*
D03*
X53007Y25523D02*
D03*
Y24833D02*
D03*
X25969Y11300D02*
D03*
Y11990D02*
D03*
X30236Y11977D02*
D03*
Y12667D02*
D03*
X22162Y12016D02*
D03*
Y11326D02*
D03*
D97*
X51555Y41192D02*
D03*
X53130D02*
D03*
Y38730D02*
D03*
X51555D02*
D03*
D98*
X51879Y36078D02*
D03*
X21248Y35302D02*
D03*
X21298Y40620D02*
D03*
D99*
X50895Y36078D02*
D03*
X51879Y33716D02*
D03*
X50895D02*
D03*
X20264Y32940D02*
D03*
X21248D02*
D03*
X20264Y35302D02*
D03*
X20314Y38258D02*
D03*
X21298D02*
D03*
X20314Y40620D02*
D03*
D100*
X46906Y32021D02*
D03*
X46406Y32021D02*
D03*
X45907D02*
D03*
X45406D02*
D03*
X46906Y30053D02*
D03*
X46406D02*
D03*
X45907D02*
D03*
D101*
X45406Y30053D02*
D03*
D102*
X35484Y28047D02*
D03*
X37826D02*
D03*
D103*
X27022Y26249D02*
D03*
Y25265D02*
D03*
X29384Y26249D02*
D03*
X28972Y28319D02*
D03*
X26610Y27335D02*
D03*
Y28319D02*
D03*
D104*
X29384Y25265D02*
D03*
X28972Y27335D02*
D03*
D105*
X21500Y16003D02*
D03*
X22190D02*
D03*
X25097Y17572D02*
D03*
X24407D02*
D03*
X45558Y29266D02*
D03*
X46248D02*
D03*
X36780Y26590D02*
D03*
X37470D02*
D03*
X49429Y26190D02*
D03*
X50119D02*
D03*
X49426Y25590D02*
D03*
X50116D02*
D03*
X49443Y27871D02*
D03*
X50134D02*
D03*
X51063Y28657D02*
D03*
X51754D02*
D03*
X48738Y32267D02*
D03*
X48048D02*
D03*
X37716Y24526D02*
D03*
X37026D02*
D03*
X24331Y13945D02*
D03*
X23641D02*
D03*
X23362Y14849D02*
D03*
X22672D02*
D03*
X33136Y15183D02*
D03*
X33826D02*
D03*
X50815Y19879D02*
D03*
X51505D02*
D03*
X33386Y20416D02*
D03*
X34076D02*
D03*
X42817Y14220D02*
D03*
X42127D02*
D03*
X42786Y12472D02*
D03*
X42096D02*
D03*
X42795Y11818D02*
D03*
X42105D02*
D03*
X44035Y10112D02*
D03*
X44725D02*
D03*
X42154Y10548D02*
D03*
X42844D02*
D03*
X44670Y15462D02*
D03*
X45360D02*
D03*
X45337Y14205D02*
D03*
X44647D02*
D03*
X42844Y9179D02*
D03*
X42154D02*
D03*
X50619Y24392D02*
D03*
X51309D02*
D03*
X52197Y23124D02*
D03*
X52887D02*
D03*
X31565Y14502D02*
D03*
X32255D02*
D03*
D106*
X35684Y24278D02*
D03*
Y26208D02*
D03*
D107*
X27119Y18384D02*
D03*
X31013Y13783D02*
D03*
X22975Y13289D02*
D03*
D108*
X27119Y17884D02*
D03*
Y17384D02*
D03*
Y16884D02*
D03*
X29186Y18384D02*
D03*
Y17884D02*
D03*
Y17384D02*
D03*
Y16884D02*
D03*
X33080Y12283D02*
D03*
Y12782D02*
D03*
Y13283D02*
D03*
Y13783D02*
D03*
X31013Y12283D02*
D03*
Y12782D02*
D03*
Y13283D02*
D03*
X25042Y11789D02*
D03*
Y12289D02*
D03*
Y12789D02*
D03*
Y13289D02*
D03*
X22975Y11789D02*
D03*
Y12289D02*
D03*
Y12789D02*
D03*
D109*
X25042Y16164D02*
D03*
X24786D02*
D03*
X24530D02*
D03*
Y16928D02*
D03*
X24786D02*
D03*
X25042D02*
D03*
X36756Y26000D02*
D03*
X37012D02*
D03*
X37268D02*
D03*
Y25236D02*
D03*
X37012D02*
D03*
X36756D02*
D03*
D110*
X52067Y31520D02*
D03*
X53189D02*
D03*
X27770Y22943D02*
D03*
X26648D02*
D03*
D111*
X41856Y26525D02*
D03*
X46058Y26498D02*
D03*
D112*
X49776Y30143D02*
D03*
X32852Y11637D02*
D03*
D113*
X48673Y30143D02*
D03*
X33954Y11637D02*
D03*
D114*
X50901Y25153D02*
D03*
X50848Y16993D02*
D03*
X43659Y11141D02*
D03*
D115*
X51401Y25153D02*
D03*
X51901D02*
D03*
X52401D02*
D03*
X50901Y27220D02*
D03*
X51401D02*
D03*
X51901D02*
D03*
X52401D02*
D03*
X52348Y19060D02*
D03*
X51848D02*
D03*
X51348D02*
D03*
X50848D02*
D03*
X52348Y16993D02*
D03*
X51848D02*
D03*
X51348D02*
D03*
X45159Y13208D02*
D03*
X44659D02*
D03*
X44159D02*
D03*
X43659D02*
D03*
X45159Y11141D02*
D03*
X44659D02*
D03*
X44159D02*
D03*
D116*
X34174Y19479D02*
D03*
X33977D02*
D03*
X33781D02*
D03*
X33190D02*
D03*
X32993D02*
D03*
X32796D02*
D03*
X32599D02*
D03*
X32403D02*
D03*
X32206D02*
D03*
X32009D02*
D03*
X33387D02*
D03*
X33584D02*
D03*
X38549Y18020D02*
D03*
X38352D02*
D03*
X36974D02*
D03*
X37171D02*
D03*
X37367D02*
D03*
X37564D02*
D03*
X37761D02*
D03*
X37958D02*
D03*
X38155D02*
D03*
X38745D02*
D03*
X38942D02*
D03*
X39139D02*
D03*
X33851Y9938D02*
D03*
X33654D02*
D03*
X33457D02*
D03*
X33260D02*
D03*
X33063D02*
D03*
X32866D02*
D03*
X24686Y7661D02*
D03*
X24883D02*
D03*
X25080D02*
D03*
X25276D02*
D03*
D117*
X34824Y18496D02*
D03*
X31359Y18496D02*
D03*
X36324Y17037D02*
D03*
X39789Y17037D02*
D03*
X34500Y8955D02*
D03*
X32217Y8955D02*
D03*
X24036Y8644D02*
D03*
X25926Y8644D02*
D03*
D118*
X28521Y23428D02*
D03*
Y22680D02*
D03*
X29414Y23054D02*
D03*
X38981Y11688D02*
D03*
X38118Y11314D02*
D03*
X38088Y12063D02*
D03*
D119*
X27901Y24351D02*
D03*
D120*
X26440D02*
D03*
D121*
X26327Y20642D02*
D03*
D122*
Y22103D02*
D03*
D123*
X24505Y19331D02*
D03*
D124*
X23621Y22192D02*
D03*
X25401Y22182D02*
D03*
D125*
X40379Y13971D02*
D03*
X39631D02*
D03*
X24110Y14819D02*
D03*
X24858D02*
D03*
D126*
X34580Y15206D02*
D03*
Y15954D02*
D03*
D127*
X22033Y36762D02*
D03*
X23844D02*
D03*
X20623Y31267D02*
D03*
X22434D02*
D03*
D128*
X26095Y31780D02*
D03*
Y35580D02*
D03*
X26157Y37183D02*
D03*
Y40982D02*
D03*
D129*
X24363Y33188D02*
D03*
Y34172D02*
D03*
X24425Y38590D02*
D03*
Y39575D02*
D03*
D130*
X42729Y33737D02*
D03*
X42234Y34274D02*
D03*
D131*
X38840Y33784D02*
D03*
X39840D02*
D03*
X40840D02*
D03*
X38840Y37505D02*
D03*
X39840D02*
D03*
X40840D02*
D03*
X43931Y33846D02*
D03*
X44932D02*
D03*
X45932D02*
D03*
X43931Y37567D02*
D03*
X44932D02*
D03*
X45932D02*
D03*
D132*
X22527Y37769D02*
D03*
X22123Y38662D02*
D03*
X22901D02*
D03*
X22500Y32504D02*
D03*
X22096Y33397D02*
D03*
X22874D02*
D03*
D133*
X40199Y6727D02*
D03*
X51895Y44379D02*
D03*
X51477Y44703D02*
D03*
X50973Y44723D02*
D03*
X50490D02*
D03*
X49967Y44722D02*
D03*
X39683Y6735D02*
D03*
X21353Y36113D02*
D03*
X20961Y37111D02*
D03*
X28547Y7886D02*
D03*
D134*
X25231Y44560D02*
D03*
X44964Y42743D02*
D03*
X46273Y42732D02*
D03*
X32762Y42727D02*
D03*
X34070Y42716D02*
D03*
D135*
X43704Y42736D02*
D03*
X31501Y42720D02*
D03*
D136*
X33942Y24181D02*
D03*
X35155Y30555D02*
D03*
D137*
X52765Y8114D02*
D03*
X20866Y43524D02*
D03*
X20548Y8114D02*
D03*
X52765Y43455D02*
D03*
D138*
X22898Y23529D02*
D03*
X20536Y24316D02*
D03*
X25260D02*
D03*
X20536Y29119D02*
D03*
X25260D02*
D03*
D139*
X31219Y40121D02*
D03*
X32778D02*
D03*
X46956Y40011D02*
D03*
X45397D02*
D03*
D140*
X34338Y40121D02*
D03*
X43837Y40011D02*
D03*
D141*
X37649Y40426D02*
D03*
X42226Y21186D02*
D03*
X22162Y21008D02*
D03*
X30068Y32037D02*
D03*
X31446Y32037D02*
D03*
D142*
X37649Y43426D02*
D03*
D143*
X34124Y32055D02*
D03*
X37889Y21596D02*
D03*
X38832Y9985D02*
D03*
D144*
X34124Y33433D02*
D03*
X37889Y22974D02*
D03*
D145*
X40848Y21186D02*
D03*
X20784Y21008D02*
D03*
X28690Y32037D02*
D03*
D146*
X38832Y8047D02*
D03*
M02*
