M48
;Layer_Color=9474304
;FILE_FORMAT=2:5
INCH,LZ
;TYPE=PLATED
T1F00S00C0.01200
T2F00S00C0.01500
T3F00S00C0.02000
T4F00S00C0.02500
T5F00S00C0.03543
T6F00S00C0.04331
T7F00S00C0.04724
T8F00S00C0.05906
T9F00S00C0.06299
T10F00S00C0.06500
T11F00S00C0.12500
%
T01
X019881Y0103002
X0214336Y0102926
X0216568Y0109109
X0221598Y0110988
X0227457Y0116371
X0229524Y0116371
X0231296Y0116437
X025757Y011288
X0265535Y0107462
X0270938Y0115929
X0271003Y012354
X0264904Y0135915
X0258877Y0147884
X0258979Y0149655
X0259014Y0151228
X0250294Y0150353
X0236344Y0141421
X0226198Y0146474
X0213426Y0138549
X0282886Y0140215
X0289325Y0139586
X0295593Y0118394
X030245Y0122229
X0308094Y0121415
X0310154Y0121329
X0312258Y0121458
X029967Y0109916
X0295638Y0105829
X0294455Y0098251
X0288356Y0095797
X0265667Y0074765
X0256799Y0073001
X0330627Y0068761
X0330504Y0080458
X033167Y00928
X0323424Y0101976
X0323559Y0110327
X0329321Y0109625
X0327313Y0122822
X0318711Y0122935
X0313927Y012284
X0315862Y0107423
X0315735Y010288
X0324784Y0130015
X0342254Y0131869
X0356223Y0118375
X0359606Y0119666
X0370509Y0126615
X0373386Y01244
X0372752Y0131975
X0372576Y0145349
X0370388Y0147462
X0359348Y0150772
X0329308Y0151792
X0313282Y0151544
X0313354Y0144874
X0370718Y0108544
X0370878Y0105762
X0396636Y0122253
X040391Y0122545
X0421151Y0126875
X0423287Y0118195
X0428047Y012116
X0436556Y012114
X043825Y010131
X0426252Y0091731
X0426687Y0072971
X0453238Y0109199
X0453241Y0111594
X0453112Y0113913
X0451177Y0142121
X0444118Y0152481
X0425901Y0142279
X0477082Y0152399
X0485343Y0153199
X0484314Y0164477
X0486362Y0172912
X0488654Y0179238
X0483969Y0184078
X0499341Y0176546
Y017438
X0501679Y016085
X0503625Y0158596
X0518535Y0173696
X0523525Y0173845
X0525053Y0171972
X0517285Y0182449
X0491321Y0201151
X049133Y0203006
X0491322Y020475
X0491254Y0218483
X0496867Y0225118
X0497706Y0231728
X0494566Y0237713
X0484404Y0237745
X0484482Y0231845
X0484202Y0225144
X0483756Y0243997
X0481901Y0242539
X0480377Y0241181
X0482852Y0248902
X0489608Y0249032
X0491514Y0248984
X0493439Y0249014
X049309Y025895
X0495177Y0257993
X0505124Y0262831
X0510905Y0266381
X0503419Y0278832
X0504326Y0245611
X0504263Y0242177
X0519666Y0231267
X0525714Y024987
X0525733Y0253043
X0524031Y0255398
X0529913Y0264892
X0532039Y0266279
X0480632Y0298922
X0478432Y0301085
X0470417Y0302068
X047023Y0299349
X0474817Y0307199
X0472986Y0162406
X0444794Y0184164
X0444738Y0199635
X0437402Y0200423
X0436136Y023508
X0440564Y0235256
X043008Y0246333
X0426329Y0244807
X039599Y0244497
X0395978Y0246481
X0396014Y0242498
X0389404Y0261783
X0384226Y0287957
X0457612Y0308237
X0456321Y0309906
X0459094Y0309921
X0461789Y0309989
X0464508Y030988
X0467203Y0309948
X046855Y0311564
X0465822Y0311632
X0463094
X0460408Y0311673
X045768
X0460543Y0307968
X0463026Y0308196
X0465957Y0307927
X0468493Y03081
X038646Y0194403
X0383091Y019168
X0385546Y0188949
X0387503Y0186658
X0378683Y0186361
X0373466Y0162412
X0373477Y0159447
X0364412Y0163019
X0335372Y0163143
X0325777Y0165475
X0327431Y0203801
X0332039Y0203933
X033214Y0214592
X0332071Y0218116
X0328311Y0220533
X0331805Y0237179
X032323Y0244658
X031122Y0274184
X0311262Y0276729
X0281814Y0265507
X0281838Y0263872
X0281873Y0262294
X0245581Y0274448
X0245658Y0276304
X029514Y0222841
X0295118Y0220767
X0295146Y0218722
X0298761Y0206088
X0300503Y0206131
X0302374Y0206067
X0304288Y0206131
X030618Y0206088
X0308094Y0206109
X0287191Y0189986
X0288264Y0183819
X0276543Y0173881
X0275789Y0163256
X0269519Y0156591
X0243838Y0172352
X0244896Y0173727
X0242887Y0173868
X0301827Y0173879
X0308719Y0366354
X0310558Y0369059
X027678Y0362786
X0276837Y0357643
X0252687Y0359932
X0234275Y0343503
X0234079Y0341499
X023393Y0339738
X0218201Y034071
X0224791Y0322892
X022386Y0321216
X0225815Y0320937
X0220992Y0383448
X0219207Y0384728
X0219074Y0389529
X02725Y0408306
X0319081Y0334602
X032541Y0334358
X0325868Y0330811
X0329384Y0333655
X0383054Y0375005
X0456362Y0313358
X04591Y0313277
X0461991Y031366
X0464643Y0313619
X0467405
X0471615Y0322965
X0476361Y0323073
X0493358Y0315068
X0516489Y0320651
X0518038Y03207
X0519997
Y0322587
X05199Y0324473
X0518643Y0325901
X0516853
X0517554Y0323119
X0522681Y0331136
X0522745Y0333114
X053558Y0334131
X0510467Y0335056
X0507465Y0335132
X0509029Y0333391
X0508566Y0356958
X0507595Y0358541
X0507502Y0360323
X0531364Y0359554
X0531296Y036138
X0531317Y0363291
X053139Y0401438
Y0403058
X0531427Y0404823
X0531511Y0406788
X0476627Y0379145
X0481481Y0373852
X048457Y0343224
T02
X0242818Y0073187
X0285471Y0078858
X0370134Y0248593
X0499673Y0447222
X0504896Y0447233
X0509732
X0514769Y0447031
X0518954Y0443786
T03
X0315422Y0134962
X0327008Y0133621
X0353387Y0154987
X0363446Y0150896
X0382385Y0139866
X0353916Y0159534
X0353975Y017277
X0348171Y0171396
X0343516Y0171471
X0339285Y017163
X0337825Y0177393
X0341603Y0177555
X0345129
X0348984Y0177132
X0357478Y0179681
X0357258Y0196378
X0348855Y0196367
X0346101Y0199009
X0344954Y0191612
X0340992Y018959
X0341039Y0185829
X0340944Y0181974
X0338304Y0204969
X0332916Y0209457
X0319921Y0206411
X0315726Y0220239
X0320298Y0255497
X0315424Y0279381
X031819Y0158528
X0328395Y0160342
X0305469Y0175361
X0305016Y0246542
X0299959Y0281763
X0271862Y027828
X0218268Y0331727
X0218348Y0334051
X0218188Y0336568
X0202524Y0337704
X020248Y0334462
X0202479Y0340992
X0203142Y0388029
X020321Y0391282
X0203007Y0394671
X0199764Y0411194
X0218543Y0387246
X0373555Y0347564
X0418083Y0346466
T04
X0396827Y0067353
X040199Y006727
X0213529Y0361133
X0209606Y0371105
T05
X0388321Y0080465
Y009985
X0378886Y0215963
Y0229743
X0341244Y0320549
Y0334329
T06
X0252308Y0445602
X0315013Y0427202
X0327619Y0427267
X0340704Y0427163
X0437036Y0427364
X0449642Y0427429
X0462727Y0427325
T07
X0376494Y0404259
Y0434259
T08
X0408484Y0211856
X0422264
X0221624Y0210077
X0207845
X0286902Y0320371
X0300681
X0314461Y0320371
T09
X020536Y024316
X0228982Y0235285
X0252604Y024316
Y0291191
X020536
X0312191Y0401207
X0327781
X0343381
X0438373Y0400111
X0453973
X0469564
T10
X033942Y0241808
X0351552Y0305548
T11
X0205477Y0081137
X0527652
X0208661Y0435242
X0527652Y0434552
M30
