G04*
G04 #@! TF.GenerationSoftware,Altium Limited,Altium Designer,20.0.13 (296)*
G04*
G04 Layer_Color=128*
%FSLAX24Y24*%
%MOIN*%
G70*
G01*
G75*
%ADD62C,0.0020*%
D62*
X33091Y17249D02*
X36240D01*
X34665Y15674D02*
Y18824D01*
X39390Y17249D02*
X42539D01*
X40965Y15674D02*
Y18824D01*
X20879Y21993D02*
X22379D01*
X21629Y21243D02*
Y22743D01*
X48602Y31496D02*
X51398D01*
X50000Y30098D02*
Y32894D01*
X31429Y32297D02*
X32020D01*
X31724Y32001D02*
Y32592D01*
X31429Y35092D02*
X32020D01*
X31724Y34797D02*
Y35387D01*
X40899Y32282D02*
X41490D01*
X41194Y31987D02*
Y32578D01*
X40899Y35078D02*
X41490D01*
X41194Y34782D02*
Y35373D01*
X36765Y34740D02*
X37119D01*
X36942Y34563D02*
Y34917D01*
X35859Y34740D02*
X36213D01*
X36036Y34563D02*
Y34917D01*
X21979Y31338D02*
X22235D01*
X22107Y31210D02*
Y31466D01*
X21979Y29062D02*
X22235D01*
X22107Y28934D02*
Y29190D01*
X20552Y28499D02*
X20788D01*
X20670Y28381D02*
Y28617D01*
X22198Y28499D02*
X22434D01*
X22316Y28381D02*
Y28617D01*
X22198Y31901D02*
X22434D01*
X22316Y31783D02*
Y32019D01*
X20552Y31901D02*
X20788D01*
X20670Y31783D02*
Y32019D01*
X31692Y15289D02*
X31812D01*
X31752Y15229D02*
Y15349D01*
X31854Y15424D02*
X31974D01*
X31914Y15364D02*
Y15484D01*
X38776Y20155D02*
X38896D01*
X38836Y20095D02*
Y20215D01*
X37476Y19106D02*
X37596D01*
X37536Y19046D02*
Y19166D01*
X42750Y14470D02*
X42870D01*
X42810Y14410D02*
Y14530D01*
X42980Y14250D02*
X43100D01*
X43040Y14190D02*
Y14310D01*
X42870Y14364D02*
X42990D01*
X42930Y14304D02*
Y14424D01*
X31577Y15013D02*
X31697D01*
X31637Y14953D02*
Y15073D01*
X37303Y19025D02*
X37423D01*
X37363Y18965D02*
Y19085D01*
X38590Y20137D02*
X38710D01*
X38650Y20077D02*
Y20197D01*
X52718Y35840D02*
X52838D01*
X52778Y35780D02*
Y35900D01*
X45568Y19863D02*
X45689D01*
X45628Y19803D02*
Y19923D01*
X39753Y28855D02*
X39873D01*
X39813Y28795D02*
Y28915D01*
X40618Y26926D02*
X40738D01*
X40678Y26866D02*
Y26986D01*
X39915Y27275D02*
X40035D01*
X39975Y27215D02*
Y27335D01*
X36263Y26615D02*
X36383D01*
X36323Y26555D02*
Y26675D01*
X36621Y26279D02*
X36741D01*
X36681Y26219D02*
Y26339D01*
X37088Y26013D02*
X37208D01*
X37148Y25953D02*
Y26073D01*
X45540Y36024D02*
X45660D01*
X45600Y35964D02*
Y36084D01*
X37270Y33745D02*
X37390D01*
X37330Y33685D02*
Y33805D01*
X37270Y32705D02*
X37390D01*
X37330Y32645D02*
Y32765D01*
X33638Y31692D02*
X33758D01*
X33698Y31632D02*
Y31752D01*
X42182Y31611D02*
X42302D01*
X42242Y31551D02*
Y31671D01*
X35685Y33729D02*
X35805D01*
X35745Y33669D02*
Y33789D01*
X49457Y28963D02*
X49577D01*
X49517Y28903D02*
Y29023D01*
X52918Y36132D02*
X53038D01*
X52978Y36072D02*
Y36192D01*
X53162Y24767D02*
X53282D01*
X53222Y24707D02*
Y24827D01*
X55597Y31984D02*
X55717D01*
X55657Y31924D02*
Y32044D01*
X52184Y25043D02*
X52304D01*
X52244Y24983D02*
Y25103D01*
X45838Y35111D02*
X45958D01*
X45898Y35051D02*
Y35171D01*
X47634Y34441D02*
X47754D01*
X47694Y34381D02*
Y34501D01*
X45543Y32703D02*
X45663D01*
X45603Y32643D02*
Y32763D01*
X33564Y22040D02*
X33684D01*
X33624Y21980D02*
Y22100D01*
X32355Y21688D02*
X32475D01*
X32415Y21628D02*
Y21748D01*
X32058Y22016D02*
X32178D01*
X32118Y21956D02*
Y22076D01*
X45119Y20320D02*
X45239D01*
X45179Y20260D02*
Y20380D01*
X55106Y31968D02*
X55226D01*
X55166Y31908D02*
Y32028D01*
X54731Y31962D02*
X54851D01*
X54791Y31902D02*
Y32022D01*
X54747Y31304D02*
X54867D01*
X54807Y31244D02*
Y31364D01*
X55652Y31333D02*
X55772D01*
X55712Y31273D02*
Y31393D01*
X23160Y30510D02*
X23280D01*
X23220Y30450D02*
Y30570D01*
X23160Y30174D02*
X23280D01*
X23220Y30114D02*
Y30234D01*
X23237Y28594D02*
X23357D01*
X23297Y28534D02*
Y28654D01*
X23237Y28265D02*
X23357D01*
X23297Y28205D02*
Y28325D01*
X22304Y31483D02*
X22424D01*
X22364Y31423D02*
Y31543D01*
X23237Y27936D02*
X23357D01*
X23297Y27876D02*
Y27996D01*
X45118Y22878D02*
X45238D01*
X45178Y22818D02*
Y22938D01*
X45101Y31034D02*
X45221D01*
X45161Y30974D02*
Y31094D01*
X51407Y28205D02*
X51527D01*
X51467Y28145D02*
Y28265D01*
X27744Y29530D02*
X27864D01*
X27804Y29470D02*
Y29590D01*
X27750Y30512D02*
X27870D01*
X27810Y30452D02*
Y30572D01*
X26539Y29657D02*
X26659D01*
X26599Y29597D02*
Y29717D01*
X23130Y29690D02*
X23250D01*
X23190Y29630D02*
Y29750D01*
X47720Y26563D02*
X47840D01*
X47780Y26503D02*
Y26623D01*
M02*
