G04*
G04 #@! TF.GenerationSoftware,Altium Limited,Altium Designer,20.0.13 (296)*
G04*
G04 Layer_Color=255*
%FSLAX24Y24*%
%MOIN*%
G70*
G01*
G75*
G04:AMPARAMS|DCode=12|XSize=16.5mil|YSize=51.2mil|CornerRadius=0mil|HoleSize=0mil|Usage=FLASHONLY|Rotation=315.000|XOffset=0mil|YOffset=0mil|HoleType=Round|Shape=Rectangle|*
%AMROTATEDRECTD12*
4,1,4,-0.0239,-0.0122,0.0122,0.0239,0.0239,0.0122,-0.0122,-0.0239,-0.0239,-0.0122,0.0*
%
%ADD12ROTATEDRECTD12*%

G04:AMPARAMS|DCode=13|XSize=16.5mil|YSize=51.2mil|CornerRadius=0mil|HoleSize=0mil|Usage=FLASHONLY|Rotation=225.000|XOffset=0mil|YOffset=0mil|HoleType=Round|Shape=Rectangle|*
%AMROTATEDRECTD13*
4,1,4,-0.0122,0.0239,0.0239,-0.0122,0.0122,-0.0239,-0.0239,0.0122,-0.0122,0.0239,0.0*
%
%ADD13ROTATEDRECTD13*%

%ADD14R,0.1378X0.0157*%
%ADD15R,0.1181X0.1181*%
G04:AMPARAMS|DCode=16|XSize=16.5mil|YSize=51.2mil|CornerRadius=0mil|HoleSize=0mil|Usage=FLASHONLY|Rotation=150.000|XOffset=0mil|YOffset=0mil|HoleType=Round|Shape=Rectangle|*
%AMROTATEDRECTD16*
4,1,4,0.0200,0.0180,-0.0056,-0.0263,-0.0200,-0.0180,0.0056,0.0263,0.0200,0.0180,0.0*
%
%ADD16ROTATEDRECTD16*%

%ADD17R,0.0165X0.0512*%
G04:AMPARAMS|DCode=18|XSize=31.5mil|YSize=70.9mil|CornerRadius=7.9mil|HoleSize=0mil|Usage=FLASHONLY|Rotation=90.000|XOffset=0mil|YOffset=0mil|HoleType=Round|Shape=RoundedRectangle|*
%AMROUNDEDRECTD18*
21,1,0.0315,0.0551,0,0,90.0*
21,1,0.0157,0.0709,0,0,90.0*
1,1,0.0157,0.0276,0.0079*
1,1,0.0157,0.0276,-0.0079*
1,1,0.0157,-0.0276,-0.0079*
1,1,0.0157,-0.0276,0.0079*
%
%ADD18ROUNDEDRECTD18*%
%ADD38C,0.3150*%
%ADD39C,0.1500*%
%ADD40C,0.0591*%
%ADD41O,0.0630X0.0394*%
%ADD42O,0.0827X0.0394*%
D12*
X32575Y14466D02*
D03*
X31865Y15176D02*
D03*
X32338Y14703D02*
D03*
X32101Y14940D02*
D03*
X36783Y19977D02*
D03*
X37493Y19267D02*
D03*
X37020Y19740D02*
D03*
X37256Y19504D02*
D03*
D13*
X38113Y19245D02*
D03*
X38823Y19955D02*
D03*
X38350Y19482D02*
D03*
X38587Y19719D02*
D03*
X43753Y15161D02*
D03*
X43043Y14452D02*
D03*
X43516Y14925D02*
D03*
X43280Y14688D02*
D03*
D14*
X38600Y25688D02*
D03*
Y26003D02*
D03*
Y26318D02*
D03*
Y26633D02*
D03*
Y26948D02*
D03*
Y27263D02*
D03*
Y27578D02*
D03*
Y27893D02*
D03*
Y28208D02*
D03*
Y28523D02*
D03*
Y28838D02*
D03*
Y29153D02*
D03*
Y29467D02*
D03*
Y29782D02*
D03*
Y30097D02*
D03*
Y30412D02*
D03*
Y30727D02*
D03*
Y31042D02*
D03*
D15*
X52100Y34628D02*
D03*
X48160D02*
D03*
D16*
X49734Y35513D02*
D03*
X50603Y35011D02*
D03*
X50024Y35346D02*
D03*
X50313Y35178D02*
D03*
D17*
X49517Y28465D02*
D03*
X50521D02*
D03*
X49852D02*
D03*
X50186D02*
D03*
D18*
X20946Y24523D02*
D03*
Y26532D02*
D03*
D38*
X34665Y17249D02*
D03*
X40965D02*
D03*
D39*
X21629Y21993D02*
D03*
D40*
X31724Y32297D02*
D03*
Y35092D02*
D03*
X41194Y32282D02*
D03*
Y35078D02*
D03*
D41*
X20670Y28499D02*
D03*
Y31901D02*
D03*
D42*
X22316Y28499D02*
D03*
Y31901D02*
D03*
M02*
