M48
;Layer_Color=9474304
;FILE_FORMAT=2:5
INCH,LZ
;TYPE=PLATED
T1F00S00C0.01200
T3F00S00C0.02559
T4F00S00C0.03543
T5F00S00C0.05906
T6F00S00C0.15000
T7F00S00C0.27953
T8F00S00C0.31496
%
T01
X0316373Y0150133
X0317523Y0152887
X031914Y015424
X04281Y01447
X0429304Y0143639
X04304Y01425
X0477799Y0265627
X0495168Y0289626
X0514674Y0282047
X0522441Y0250431
X0532217Y0247669
X045178Y0228778
X0451793Y0203196
X0456285Y0198628
X038836Y020155
X03865Y0201367
X037536Y019106
X0373629Y0190252
X0336244Y0220398
X0321182Y022016
X0324152Y0216882
X0363231Y0266149
X0366806Y0262793
X0371476Y026013
X0399747Y0272753
X0406783Y0269265
X039813Y0288552
X0451608Y0310342
X0278102Y0305118
X027804Y0295296
X0265994Y0296575
X02319Y02969
X02322Y0301743
Y03051
X0232968Y0285936
Y0282648
Y0279361
X0223641Y0314831
X033698Y0316918
X0357448Y0337286
X03733Y0337447
Y0327047
X042242Y0316111
X0456033Y0327031
X0458976Y0351108
X0456002Y0360244
X0476944Y0344411
X0527783Y0358402
X0529776Y036132
X0547912Y0319621
X0551663Y0319684
X0556565Y0319835
X0557116Y0313332
X0548065Y0313038
T03
X0221069Y0290621
Y0313377
T04
X0360362Y03474
X0369417
T05
X0317244Y0322966
Y0350919
X0411945Y0350777
Y0322824
T06
X0216292Y0219928
T07
X05Y0314961
T08
X0346655Y0172492
X0409647
M30
