G04*
G04 #@! TF.GenerationSoftware,Altium Limited,Altium Designer,20.0.13 (296)*
G04*
G04 Layer_Color=8388736*
%FSLAX24Y24*%
%MOIN*%
G70*
G01*
G75*
%ADD14R,0.1378X0.0157*%
%ADD19R,0.1078X0.0670*%
G04:AMPARAMS|DCode=20|XSize=20.5mil|YSize=55.2mil|CornerRadius=0mil|HoleSize=0mil|Usage=FLASHONLY|Rotation=315.000|XOffset=0mil|YOffset=0mil|HoleType=Round|Shape=Rectangle|*
%AMROTATEDRECTD20*
4,1,4,-0.0268,-0.0122,0.0122,0.0268,0.0268,0.0122,-0.0122,-0.0268,-0.0268,-0.0122,0.0*
%
%ADD20ROTATEDRECTD20*%

G04:AMPARAMS|DCode=21|XSize=20.5mil|YSize=55.2mil|CornerRadius=0mil|HoleSize=0mil|Usage=FLASHONLY|Rotation=225.000|XOffset=0mil|YOffset=0mil|HoleType=Round|Shape=Rectangle|*
%AMROTATEDRECTD21*
4,1,4,-0.0122,0.0268,0.0268,-0.0122,0.0122,-0.0268,-0.0268,0.0122,-0.0122,0.0268,0.0*
%
%ADD21ROTATEDRECTD21*%

%ADD22R,0.1261X0.1261*%
G04:AMPARAMS|DCode=23|XSize=20.5mil|YSize=55.2mil|CornerRadius=0mil|HoleSize=0mil|Usage=FLASHONLY|Rotation=150.000|XOffset=0mil|YOffset=0mil|HoleType=Round|Shape=Rectangle|*
%AMROTATEDRECTD23*
4,1,4,0.0227,0.0188,-0.0049,-0.0290,-0.0227,-0.0188,0.0049,0.0290,0.0227,0.0188,0.0*
%
%ADD23ROTATEDRECTD23*%

%ADD24R,0.0205X0.0552*%
G04:AMPARAMS|DCode=25|XSize=39.5mil|YSize=78.9mil|CornerRadius=11.9mil|HoleSize=0mil|Usage=FLASHONLY|Rotation=90.000|XOffset=0mil|YOffset=0mil|HoleType=Round|Shape=RoundedRectangle|*
%AMROUNDEDRECTD25*
21,1,0.0395,0.0551,0,0,90.0*
21,1,0.0157,0.0789,0,0,90.0*
1,1,0.0237,0.0276,0.0079*
1,1,0.0237,0.0276,-0.0079*
1,1,0.0237,-0.0276,-0.0079*
1,1,0.0237,-0.0276,0.0079*
%
%ADD25ROUNDEDRECTD25*%
%ADD26C,0.3230*%
%ADD27C,0.1580*%
%ADD28C,0.0080*%
%ADD29C,0.0671*%
%ADD30O,0.0710X0.0474*%
%ADD31O,0.0907X0.0474*%
G36*
X25024Y14392D02*
X24996Y14367D01*
Y14245D01*
X25209D01*
X25244Y14280D01*
X25293Y14231D01*
X25261Y14207D01*
Y14206D01*
Y14204D01*
Y14200D01*
Y14195D01*
Y14188D01*
Y14181D01*
Y14172D01*
Y14162D01*
Y14140D01*
Y14115D01*
Y14088D01*
X25262Y14059D01*
Y13999D01*
Y13970D01*
X25263Y13942D01*
Y13916D01*
X25264Y13893D01*
Y13883D01*
Y13874D01*
X25265Y13866D01*
Y13858D01*
X25212Y13833D01*
Y13876D01*
X24996D01*
Y13718D01*
Y13716D01*
X24997Y13712D01*
X24998Y13706D01*
X25002Y13699D01*
X25006Y13693D01*
X25014Y13686D01*
X25024Y13682D01*
X25030Y13681D01*
X25280D01*
X25284Y13681D01*
X25289Y13683D01*
X25295Y13686D01*
X25301Y13691D01*
X25307Y13697D01*
X25311Y13706D01*
X25313Y13717D01*
Y13718D01*
Y13720D01*
X25314Y13723D01*
Y13728D01*
X25315Y13732D01*
Y13738D01*
X25316Y13745D01*
Y13754D01*
X25317Y13764D01*
Y13775D01*
X25318Y13787D01*
X25319Y13801D01*
X25320Y13816D01*
Y13832D01*
X25321Y13851D01*
X25338D01*
Y13850D01*
Y13847D01*
Y13842D01*
Y13837D01*
Y13829D01*
X25339Y13822D01*
X25340Y13804D01*
X25341Y13784D01*
X25344Y13766D01*
X25345Y13756D01*
X25347Y13748D01*
X25348Y13742D01*
X25350Y13735D01*
X25351Y13734D01*
X25352Y13731D01*
X25356Y13726D01*
X25359Y13719D01*
X25365Y13712D01*
X25371Y13705D01*
X25379Y13697D01*
X25387Y13691D01*
X25386Y13690D01*
X25384Y13686D01*
X25382Y13681D01*
X25378Y13675D01*
X25372Y13669D01*
X25367Y13662D01*
X25359Y13657D01*
X25352Y13651D01*
X25351Y13650D01*
X25348Y13649D01*
X25344Y13647D01*
X25336Y13644D01*
X25328Y13642D01*
X25318Y13640D01*
X25307Y13639D01*
X25293Y13638D01*
X25017D01*
X25014Y13639D01*
X25009D01*
X24997Y13642D01*
X24984Y13646D01*
X24977Y13650D01*
X24970Y13655D01*
X24964Y13660D01*
X24958Y13668D01*
X24953Y13675D01*
X24950Y13684D01*
X24948Y13695D01*
X24947Y13707D01*
Y13876D01*
X24737D01*
Y13827D01*
X24685Y13802D01*
Y13804D01*
Y13807D01*
Y13814D01*
X24686Y13822D01*
Y13833D01*
Y13846D01*
Y13861D01*
X24687Y13877D01*
Y13895D01*
Y13914D01*
Y13934D01*
X24688Y13955D01*
Y14000D01*
Y14046D01*
Y14048D01*
Y14051D01*
Y14058D01*
Y14067D01*
Y14078D01*
Y14091D01*
Y14106D01*
Y14122D01*
X24687Y14139D01*
Y14158D01*
Y14196D01*
X24686Y14236D01*
X24685Y14276D01*
X24741Y14245D01*
X24947D01*
Y14246D01*
Y14249D01*
Y14255D01*
Y14262D01*
Y14271D01*
Y14282D01*
Y14293D01*
Y14306D01*
X24946Y14320D01*
Y14335D01*
X24945Y14366D01*
X24944Y14398D01*
X24943Y14431D01*
X25024Y14392D01*
D02*
G37*
G36*
X26975D02*
X26948Y14368D01*
Y14217D01*
X27045D01*
X27090Y14266D01*
X27153Y14197D01*
X26948D01*
Y14196D01*
Y14192D01*
Y14187D01*
X26947Y14179D01*
Y14171D01*
X26946Y14160D01*
Y14148D01*
X26945Y14135D01*
X26944Y14121D01*
X26943Y14106D01*
X26941Y14074D01*
X26939Y14040D01*
X26937Y14007D01*
X27076D01*
X27122Y14056D01*
X27185Y13987D01*
X26962D01*
Y13986D01*
X26963Y13984D01*
X26963Y13980D01*
X26965Y13976D01*
X26967Y13970D01*
X26969Y13963D01*
X26973Y13955D01*
X26975Y13946D01*
X26984Y13926D01*
X26993Y13903D01*
X27005Y13879D01*
X27018Y13853D01*
X27034Y13826D01*
X27051Y13799D01*
X27070Y13773D01*
X27091Y13748D01*
X27114Y13726D01*
X27139Y13706D01*
X27153Y13697D01*
X27167Y13690D01*
X27181Y13682D01*
X27196Y13677D01*
Y13663D01*
X27187D01*
X27178Y13662D01*
X27166Y13659D01*
X27154Y13656D01*
X27141Y13649D01*
X27129Y13640D01*
X27123Y13634D01*
X27119Y13628D01*
X27117Y13630D01*
X27113Y13633D01*
X27106Y13641D01*
X27098Y13651D01*
X27086Y13664D01*
X27074Y13680D01*
X27061Y13698D01*
X27047Y13719D01*
X27033Y13743D01*
X27018Y13770D01*
X27003Y13800D01*
X26989Y13832D01*
X26975Y13866D01*
X26963Y13904D01*
X26953Y13944D01*
X26944Y13987D01*
X26933D01*
Y13986D01*
X26932Y13984D01*
X26931Y13980D01*
X26930Y13975D01*
X26928Y13969D01*
X26926Y13962D01*
X26923Y13953D01*
X26920Y13943D01*
X26915Y13933D01*
X26912Y13922D01*
X26901Y13897D01*
X26887Y13870D01*
X26871Y13841D01*
X26852Y13811D01*
X26828Y13780D01*
X26816Y13765D01*
X26802Y13749D01*
X26788Y13733D01*
X26773Y13718D01*
X26756Y13704D01*
X26739Y13690D01*
X26720Y13676D01*
X26701Y13663D01*
X26680Y13650D01*
X26659Y13638D01*
X26636Y13627D01*
X26612Y13617D01*
X26605Y13628D01*
X26605D01*
X26607Y13630D01*
X26610Y13632D01*
X26615Y13634D01*
X26619Y13637D01*
X26626Y13642D01*
X26641Y13652D01*
X26659Y13665D01*
X26679Y13681D01*
X26702Y13700D01*
X26725Y13722D01*
X26749Y13746D01*
X26773Y13773D01*
X26796Y13803D01*
X26819Y13835D01*
X26839Y13869D01*
X26858Y13906D01*
X26873Y13945D01*
X26879Y13965D01*
X26885Y13987D01*
X26800D01*
X26790Y13986D01*
X26779D01*
X26767Y13984D01*
X26753Y13982D01*
X26739Y13979D01*
X26724Y13976D01*
X26692Y14007D01*
X26888D01*
Y14008D01*
Y14011D01*
X26889Y14016D01*
Y14023D01*
X26889Y14031D01*
X26890Y14041D01*
X26891Y14052D01*
X26892Y14065D01*
Y14079D01*
X26893Y14094D01*
X26895Y14125D01*
X26897Y14161D01*
X26899Y14197D01*
X26787D01*
Y14196D01*
X26785Y14193D01*
X26782Y14187D01*
X26779Y14181D01*
X26776Y14174D01*
X26771Y14164D01*
X26766Y14153D01*
X26760Y14142D01*
X26748Y14118D01*
X26733Y14093D01*
X26718Y14069D01*
X26703Y14046D01*
X26692Y14053D01*
X26693Y14054D01*
X26694Y14058D01*
X26697Y14064D01*
X26701Y14074D01*
X26705Y14085D01*
X26710Y14099D01*
X26716Y14114D01*
X26722Y14133D01*
X26728Y14153D01*
X26735Y14176D01*
X26741Y14202D01*
X26748Y14230D01*
X26754Y14261D01*
X26761Y14293D01*
X26767Y14327D01*
X26773Y14364D01*
X26850Y14322D01*
X26822Y14308D01*
X26821Y14307D01*
X26820Y14302D01*
X26817Y14296D01*
X26815Y14286D01*
X26810Y14273D01*
X26805Y14258D01*
X26800Y14239D01*
X26793Y14217D01*
X26899D01*
Y14218D01*
Y14223D01*
Y14228D01*
Y14236D01*
Y14247D01*
Y14259D01*
Y14273D01*
Y14287D01*
X26898Y14304D01*
Y14321D01*
X26897Y14358D01*
X26896Y14396D01*
X26895Y14434D01*
X26975Y14392D01*
D02*
G37*
G36*
X25556Y14199D02*
X25557Y14198D01*
Y14194D01*
X25557Y14190D01*
X25558Y14185D01*
X25559Y14178D01*
X25561Y14163D01*
X25563Y14148D01*
X25564Y14130D01*
X25566Y14113D01*
Y14096D01*
Y14095D01*
Y14092D01*
Y14088D01*
X25565Y14083D01*
X25564Y14071D01*
X25560Y14059D01*
Y14058D01*
X25559Y14056D01*
X25556Y14051D01*
X25552Y14046D01*
X25548Y14042D01*
X25543Y14039D01*
X25536Y14036D01*
X25535D01*
X25533Y14035D01*
X25530Y14034D01*
X25525Y14033D01*
X25515Y14031D01*
X25505Y14030D01*
X25503D01*
X25499Y14032D01*
X25495Y14035D01*
X25494Y14037D01*
X25493Y14039D01*
Y14040D01*
Y14041D01*
X25494Y14044D01*
X25495Y14048D01*
X25497Y14053D01*
X25500Y14060D01*
X25505Y14068D01*
X25510Y14078D01*
Y14079D01*
X25511Y14080D01*
X25512Y14083D01*
X25514Y14086D01*
X25516Y14090D01*
X25519Y14096D01*
X25520Y14102D01*
X25523Y14109D01*
X25526Y14117D01*
X25529Y14126D01*
X25532Y14137D01*
X25533Y14148D01*
X25536Y14160D01*
X25538Y14172D01*
X25542Y14200D01*
X25556D01*
Y14199D01*
D02*
G37*
G36*
X25992Y14392D02*
X25964Y14378D01*
Y14377D01*
X25963Y14376D01*
X25961Y14373D01*
X25959Y14370D01*
X25953Y14360D01*
X25946Y14349D01*
X25939Y14337D01*
X25932Y14325D01*
X25927Y14314D01*
X25923Y14305D01*
X26115D01*
X26143Y14340D01*
X26195Y14287D01*
X26163Y14270D01*
X26162Y14269D01*
X26161Y14265D01*
X26158Y14261D01*
X26153Y14254D01*
X26148Y14245D01*
X26142Y14236D01*
X26135Y14224D01*
X26127Y14213D01*
X26110Y14187D01*
X26090Y14160D01*
X26070Y14132D01*
X26049Y14106D01*
X26050Y14105D01*
X26054Y14101D01*
X26060Y14097D01*
X26069Y14089D01*
X26079Y14082D01*
X26092Y14073D01*
X26107Y14064D01*
X26124Y14053D01*
X26141Y14043D01*
X26161Y14034D01*
X26181Y14025D01*
X26203Y14016D01*
X26226Y14009D01*
X26250Y14003D01*
X26275Y14000D01*
X26300Y13998D01*
Y13984D01*
X26297D01*
X26295Y13983D01*
X26291Y13982D01*
X26282Y13979D01*
X26271Y13976D01*
X26260Y13970D01*
X26248Y13963D01*
X26239Y13953D01*
X26236Y13948D01*
X26234Y13941D01*
X26233Y13942D01*
X26228Y13943D01*
X26223Y13946D01*
X26214Y13950D01*
X26204Y13954D01*
X26192Y13960D01*
X26179Y13967D01*
X26164Y13975D01*
X26149Y13984D01*
X26132Y13994D01*
X26114Y14005D01*
X26097Y14018D01*
X26078Y14032D01*
X26060Y14047D01*
X26041Y14064D01*
X26024Y14081D01*
X26023Y14080D01*
X26020Y14077D01*
X26016Y14074D01*
X26011Y14068D01*
X26003Y14062D01*
X25995Y14054D01*
X25986Y14046D01*
X25975Y14037D01*
X25964Y14027D01*
X25951Y14016D01*
X25924Y13996D01*
X25894Y13975D01*
X25864Y13955D01*
X25905Y13928D01*
X26129D01*
X26153Y13959D01*
X26212Y13914D01*
X26185Y13892D01*
Y13891D01*
Y13891D01*
Y13888D01*
Y13884D01*
Y13874D01*
Y13861D01*
Y13846D01*
Y13829D01*
Y13809D01*
X26186Y13789D01*
Y13747D01*
Y13727D01*
X26186Y13707D01*
Y13690D01*
X26187Y13673D01*
Y13660D01*
X26188Y13649D01*
X26136Y13628D01*
Y13694D01*
X25902D01*
Y13634D01*
X25849Y13617D01*
Y13618D01*
Y13620D01*
Y13624D01*
X25850Y13631D01*
Y13639D01*
Y13650D01*
X25851Y13664D01*
Y13681D01*
Y13701D01*
X25852Y13724D01*
Y13737D01*
Y13751D01*
Y13766D01*
Y13781D01*
X25853Y13799D01*
Y13817D01*
Y13836D01*
Y13856D01*
Y13878D01*
Y13900D01*
Y13923D01*
Y13948D01*
X25852D01*
X25850Y13946D01*
X25846Y13944D01*
X25841Y13942D01*
X25835Y13940D01*
X25828Y13936D01*
X25820Y13932D01*
X25812Y13928D01*
X25791Y13920D01*
X25770Y13912D01*
X25747Y13903D01*
X25723Y13896D01*
X25720Y13906D01*
X25722Y13907D01*
X25728Y13910D01*
X25736Y13914D01*
X25747Y13920D01*
X25760Y13928D01*
X25777Y13936D01*
X25794Y13947D01*
X25814Y13959D01*
X25835Y13973D01*
X25856Y13988D01*
X25879Y14004D01*
X25902Y14023D01*
X25927Y14042D01*
X25950Y14063D01*
X25974Y14086D01*
X25996Y14109D01*
X25995Y14110D01*
X25994Y14112D01*
X25991Y14115D01*
X25988Y14121D01*
X25984Y14127D01*
X25979Y14136D01*
X25974Y14145D01*
X25968Y14155D01*
X25962Y14166D01*
X25955Y14179D01*
X25948Y14193D01*
X25940Y14208D01*
X25932Y14224D01*
X25925Y14241D01*
X25909Y14277D01*
X25908Y14276D01*
X25906Y14273D01*
X25903Y14267D01*
X25899Y14260D01*
X25894Y14250D01*
X25888Y14240D01*
X25880Y14228D01*
X25873Y14215D01*
X25854Y14187D01*
X25833Y14156D01*
X25810Y14125D01*
X25786Y14095D01*
X25776Y14102D01*
X25777Y14103D01*
X25778Y14106D01*
X25780Y14110D01*
X25784Y14115D01*
X25789Y14123D01*
X25793Y14131D01*
X25800Y14141D01*
X25805Y14152D01*
X25813Y14164D01*
X25820Y14178D01*
X25828Y14193D01*
X25836Y14209D01*
X25843Y14225D01*
X25852Y14244D01*
X25868Y14282D01*
X25869Y14283D01*
X25870Y14286D01*
X25872Y14292D01*
X25875Y14299D01*
X25878Y14308D01*
X25882Y14318D01*
X25886Y14329D01*
X25890Y14341D01*
X25899Y14366D01*
X25906Y14391D01*
X25913Y14415D01*
X25914Y14425D01*
X25915Y14434D01*
X25992Y14392D01*
D02*
G37*
G36*
X25699Y14385D02*
X25675Y14360D01*
Y14134D01*
X25676Y14135D01*
X25678Y14138D01*
X25680Y14142D01*
X25685Y14148D01*
X25690Y14155D01*
X25696Y14163D01*
X25703Y14173D01*
X25709Y14183D01*
X25723Y14204D01*
X25737Y14228D01*
X25749Y14251D01*
X25754Y14262D01*
X25758Y14273D01*
X25807Y14221D01*
X25806D01*
X25803Y14220D01*
X25799Y14218D01*
X25792Y14215D01*
X25785Y14211D01*
X25776Y14204D01*
X25766Y14196D01*
X25754Y14186D01*
X25753Y14184D01*
X25749Y14180D01*
X25742Y14174D01*
X25733Y14164D01*
X25721Y14153D01*
X25707Y14140D01*
X25692Y14125D01*
X25675Y14109D01*
Y14108D01*
Y14105D01*
Y14101D01*
Y14095D01*
Y14088D01*
X25674Y14078D01*
Y14067D01*
Y14055D01*
X25673Y14041D01*
X25672Y14026D01*
X25671Y14009D01*
X25670Y13991D01*
X25669Y13972D01*
X25668Y13951D01*
X25666Y13929D01*
X25664Y13906D01*
X25665D01*
X25668Y13904D01*
X25671Y13903D01*
X25677Y13901D01*
X25683Y13897D01*
X25691Y13894D01*
X25707Y13886D01*
X25725Y13876D01*
X25742Y13866D01*
X25758Y13855D01*
X25765Y13850D01*
X25770Y13845D01*
X25771Y13844D01*
X25775Y13841D01*
X25779Y13836D01*
X25784Y13829D01*
X25789Y13821D01*
X25793Y13813D01*
X25796Y13804D01*
X25797Y13794D01*
Y13792D01*
Y13790D01*
X25796Y13787D01*
X25795Y13778D01*
X25791Y13765D01*
Y13764D01*
X25791Y13762D01*
X25787Y13755D01*
X25781Y13748D01*
X25779Y13746D01*
X25774Y13745D01*
X25773D01*
X25772Y13746D01*
X25769Y13748D01*
X25766Y13751D01*
X25762Y13756D01*
X25756Y13765D01*
X25754Y13769D01*
X25751Y13776D01*
X25748Y13782D01*
X25744Y13791D01*
Y13792D01*
X25743Y13792D01*
X25740Y13798D01*
X25734Y13807D01*
X25726Y13819D01*
X25715Y13834D01*
X25700Y13852D01*
X25681Y13871D01*
X25671Y13881D01*
X25660Y13892D01*
Y13891D01*
X25659Y13889D01*
X25658Y13885D01*
X25657Y13879D01*
X25655Y13872D01*
X25653Y13864D01*
X25650Y13854D01*
X25647Y13844D01*
X25639Y13821D01*
X25630Y13797D01*
X25618Y13772D01*
X25605Y13747D01*
Y13746D01*
X25603Y13744D01*
X25601Y13741D01*
X25597Y13736D01*
X25594Y13731D01*
X25588Y13723D01*
X25582Y13716D01*
X25575Y13707D01*
X25568Y13697D01*
X25558Y13687D01*
X25549Y13677D01*
X25538Y13665D01*
X25527Y13654D01*
X25514Y13642D01*
X25501Y13629D01*
X25486Y13617D01*
X25479Y13628D01*
X25480Y13629D01*
X25483Y13632D01*
X25487Y13637D01*
X25493Y13644D01*
X25500Y13654D01*
X25507Y13664D01*
X25517Y13676D01*
X25526Y13689D01*
X25535Y13703D01*
X25545Y13718D01*
X25565Y13752D01*
X25581Y13787D01*
X25589Y13805D01*
X25595Y13824D01*
Y13825D01*
X25596Y13829D01*
X25598Y13834D01*
X25600Y13842D01*
X25603Y13852D01*
X25606Y13864D01*
X25608Y13878D01*
X25611Y13893D01*
X25614Y13910D01*
X25617Y13929D01*
X25619Y13950D01*
X25621Y13972D01*
X25624Y13996D01*
X25625Y14021D01*
X25626Y14048D01*
X25627Y14076D01*
Y14077D01*
Y14083D01*
Y14091D01*
Y14102D01*
Y14117D01*
Y14134D01*
Y14154D01*
Y14176D01*
Y14200D01*
Y14227D01*
X25626Y14256D01*
Y14286D01*
X25625Y14319D01*
X25624Y14352D01*
X25623Y14387D01*
X25622Y14423D01*
X25699Y14385D01*
D02*
G37*
G36*
X26591D02*
X26563Y14372D01*
Y14371D01*
X26562Y14369D01*
X26560Y14366D01*
X26558Y14361D01*
X26556Y14356D01*
X26554Y14350D01*
X26547Y14335D01*
X26541Y14320D01*
X26533Y14304D01*
X26527Y14287D01*
X26521Y14273D01*
X26622D01*
X26665Y14319D01*
X26724Y14253D01*
X26514D01*
Y14252D01*
X26512Y14250D01*
X26510Y14247D01*
X26508Y14241D01*
X26505Y14236D01*
X26501Y14228D01*
X26493Y14212D01*
X26483Y14194D01*
X26472Y14175D01*
X26462Y14155D01*
X26451Y14137D01*
X26602D01*
X26643Y14179D01*
X26699Y14116D01*
X26559D01*
Y13976D01*
X26622D01*
X26665Y14014D01*
X26716Y13955D01*
X26559D01*
Y13759D01*
X26703Y13843D01*
X26713Y13832D01*
X26711Y13831D01*
X26706Y13827D01*
X26699Y13821D01*
X26689Y13813D01*
X26677Y13804D01*
X26663Y13792D01*
X26649Y13780D01*
X26633Y13767D01*
X26603Y13739D01*
X26588Y13725D01*
X26575Y13711D01*
X26563Y13697D01*
X26552Y13685D01*
X26544Y13673D01*
X26539Y13663D01*
X26490Y13714D01*
X26491Y13715D01*
X26493Y13718D01*
X26496Y13721D01*
X26500Y13727D01*
X26504Y13734D01*
X26507Y13743D01*
X26509Y13755D01*
X26510Y13767D01*
Y13955D01*
X26482D01*
X26473Y13954D01*
X26462D01*
X26449Y13953D01*
X26435Y13951D01*
X26420Y13948D01*
X26406Y13944D01*
X26374Y13976D01*
X26510D01*
Y14116D01*
X26441D01*
X26440Y14114D01*
X26435Y14110D01*
X26429Y14102D01*
X26421Y14092D01*
X26411Y14081D01*
X26401Y14069D01*
X26378Y14042D01*
X26368Y14050D01*
X26369Y14051D01*
X26371Y14055D01*
X26376Y14063D01*
X26382Y14074D01*
X26389Y14087D01*
X26397Y14102D01*
X26407Y14122D01*
X26417Y14144D01*
X26428Y14169D01*
X26439Y14197D01*
X26451Y14228D01*
X26463Y14262D01*
X26475Y14298D01*
X26487Y14338D01*
X26499Y14382D01*
X26510Y14427D01*
X26591Y14385D01*
D02*
G37*
G36*
X37804Y14371D02*
X37776Y14350D01*
Y13731D01*
Y13730D01*
Y13727D01*
X37775Y13721D01*
X37774Y13714D01*
X37771Y13698D01*
X37768Y13691D01*
X37764Y13683D01*
X37763Y13682D01*
X37761Y13680D01*
X37758Y13677D01*
X37754Y13672D01*
X37747Y13667D01*
X37739Y13661D01*
X37729Y13655D01*
X37717Y13648D01*
Y13649D01*
X37716Y13651D01*
X37714Y13653D01*
X37711Y13656D01*
X37708Y13661D01*
X37704Y13666D01*
X37698Y13671D01*
X37692Y13677D01*
X37684Y13682D01*
X37675Y13689D01*
X37665Y13694D01*
X37653Y13700D01*
X37640Y13705D01*
X37625Y13710D01*
X37609Y13715D01*
X37591Y13718D01*
Y13735D01*
X37592D01*
X37596Y13734D01*
X37601D01*
X37609Y13733D01*
X37617Y13732D01*
X37626Y13731D01*
X37647Y13729D01*
X37669Y13727D01*
X37679D01*
X37689Y13726D01*
X37697Y13725D01*
X37711D01*
X37715Y13726D01*
X37716D01*
X37718Y13727D01*
X37720Y13728D01*
X37723Y13730D01*
X37726Y13733D01*
X37728Y13739D01*
X37730Y13744D01*
X37731Y13753D01*
Y14368D01*
X37546D01*
X37605Y14339D01*
X37580Y14319D01*
Y14245D01*
X37619D01*
X37654Y14280D01*
X37706Y14224D01*
X37580D01*
Y14126D01*
X37633D01*
X37671Y14165D01*
X37727Y14106D01*
X37507D01*
X37498Y14105D01*
X37486D01*
X37473Y14103D01*
X37460Y14101D01*
X37445Y14099D01*
X37430Y14095D01*
X37399Y14126D01*
X37538D01*
Y14224D01*
X37527D01*
X37518Y14223D01*
X37507D01*
X37495Y14222D01*
X37480Y14220D01*
X37466Y14217D01*
X37451Y14213D01*
X37420Y14245D01*
X37538D01*
Y14246D01*
Y14247D01*
Y14251D01*
Y14257D01*
Y14262D01*
Y14270D01*
Y14286D01*
X37537Y14306D01*
X37536Y14326D01*
X37535Y14347D01*
X37535Y14368D01*
X37395D01*
Y14074D01*
Y14073D01*
Y14071D01*
Y14066D01*
Y14061D01*
Y14054D01*
Y14047D01*
Y14037D01*
Y14026D01*
X37394Y14015D01*
X37393Y14003D01*
X37391Y13976D01*
X37387Y13946D01*
X37382Y13914D01*
X37375Y13879D01*
X37366Y13844D01*
X37354Y13809D01*
X37340Y13774D01*
X37323Y13740D01*
X37303Y13706D01*
X37291Y13691D01*
X37279Y13676D01*
X37265Y13662D01*
X37251Y13648D01*
X37245Y13659D01*
X37246Y13661D01*
X37250Y13666D01*
X37255Y13674D01*
X37262Y13685D01*
X37270Y13700D01*
X37279Y13717D01*
X37289Y13736D01*
X37300Y13757D01*
X37309Y13781D01*
X37319Y13807D01*
X37328Y13836D01*
X37337Y13865D01*
X37343Y13897D01*
X37349Y13929D01*
X37352Y13963D01*
X37353Y13999D01*
Y14000D01*
Y14000D01*
Y14003D01*
Y14007D01*
Y14016D01*
Y14029D01*
Y14045D01*
Y14062D01*
Y14082D01*
Y14102D01*
Y14144D01*
Y14165D01*
Y14186D01*
Y14205D01*
Y14223D01*
Y14239D01*
Y14252D01*
Y14253D01*
Y14255D01*
Y14259D01*
Y14263D01*
Y14270D01*
Y14277D01*
Y14286D01*
Y14296D01*
X37352Y14308D01*
Y14320D01*
Y14333D01*
X37351Y14347D01*
Y14363D01*
X37350Y14380D01*
Y14397D01*
X37350Y14416D01*
X37402Y14388D01*
X37723D01*
X37755Y14420D01*
X37804Y14371D01*
D02*
G37*
G36*
X39630Y14364D02*
X39382D01*
X39437Y14333D01*
X39436Y14332D01*
X39433Y14331D01*
X39428Y14328D01*
X39422Y14325D01*
X39408Y14317D01*
X39400Y14311D01*
X39394Y14306D01*
X39393Y14305D01*
X39391Y14303D01*
X39387Y14298D01*
X39382Y14292D01*
X39374Y14284D01*
X39366Y14272D01*
X39355Y14259D01*
X39343Y14242D01*
X39500D01*
X39525Y14277D01*
X39577Y14232D01*
X39549Y14207D01*
Y14206D01*
Y14204D01*
Y14201D01*
Y14198D01*
Y14192D01*
Y14186D01*
Y14173D01*
Y14156D01*
Y14136D01*
Y14116D01*
X39550Y14095D01*
Y14051D01*
Y14031D01*
X39551Y14012D01*
Y13995D01*
X39552Y13980D01*
Y13975D01*
Y13969D01*
X39553Y13964D01*
Y13962D01*
X39504Y13938D01*
Y13973D01*
X39413D01*
Y13742D01*
Y13741D01*
Y13740D01*
Y13736D01*
X39412Y13731D01*
X39411Y13726D01*
X39410Y13719D01*
X39406Y13705D01*
X39401Y13697D01*
X39397Y13690D01*
X39391Y13682D01*
X39384Y13675D01*
X39375Y13668D01*
X39365Y13662D01*
X39353Y13656D01*
X39339Y13652D01*
Y13653D01*
Y13654D01*
X39337Y13660D01*
X39334Y13668D01*
X39332Y13673D01*
X39328Y13679D01*
X39323Y13684D01*
X39318Y13690D01*
X39311Y13695D01*
X39303Y13701D01*
X39294Y13705D01*
X39283Y13710D01*
X39270Y13715D01*
X39256Y13718D01*
Y13731D01*
X39263D01*
X39272Y13730D01*
X39283Y13729D01*
X39295D01*
X39308Y13729D01*
X39321Y13728D01*
X39337D01*
X39343Y13729D01*
X39348Y13730D01*
X39354Y13733D01*
X39360Y13738D01*
X39363Y13744D01*
X39364Y13753D01*
Y13973D01*
X39274D01*
Y13955D01*
X39225Y13934D01*
Y13935D01*
Y13938D01*
Y13943D01*
X39225Y13950D01*
Y13957D01*
Y13967D01*
X39226Y13977D01*
Y13989D01*
Y14002D01*
X39227Y14015D01*
Y14044D01*
X39228Y14074D01*
Y14105D01*
Y14106D01*
Y14109D01*
Y14113D01*
Y14119D01*
Y14126D01*
Y14136D01*
Y14145D01*
Y14156D01*
X39227Y14168D01*
Y14181D01*
X39226Y14209D01*
X39225Y14239D01*
X39225Y14270D01*
X39274Y14242D01*
X39323D01*
Y14243D01*
X39324Y14246D01*
X39325Y14249D01*
X39328Y14255D01*
X39331Y14261D01*
X39334Y14270D01*
X39341Y14287D01*
X39348Y14307D01*
X39355Y14327D01*
X39360Y14346D01*
X39364Y14364D01*
X39151D01*
Y14362D01*
Y14358D01*
Y14350D01*
Y14340D01*
Y14327D01*
Y14311D01*
Y14295D01*
Y14276D01*
Y14255D01*
Y14234D01*
X39150Y14210D01*
Y14187D01*
Y14137D01*
X39149Y14087D01*
Y14086D01*
Y14082D01*
Y14074D01*
X39148Y14065D01*
X39147Y14053D01*
X39146Y14040D01*
X39144Y14025D01*
X39142Y14008D01*
X39139Y13990D01*
X39136Y13971D01*
X39127Y13931D01*
X39122Y13911D01*
X39115Y13890D01*
X39107Y13870D01*
X39099Y13850D01*
X39098Y13849D01*
X39097Y13845D01*
X39093Y13840D01*
X39089Y13832D01*
X39085Y13823D01*
X39078Y13812D01*
X39071Y13800D01*
X39062Y13786D01*
X39052Y13771D01*
X39041Y13755D01*
X39029Y13739D01*
X39016Y13722D01*
X39002Y13704D01*
X38986Y13687D01*
X38969Y13669D01*
X38952Y13652D01*
X38945Y13663D01*
X38946Y13664D01*
X38949Y13667D01*
X38953Y13674D01*
X38959Y13681D01*
X38966Y13692D01*
X38975Y13703D01*
X38983Y13716D01*
X38993Y13730D01*
X39003Y13747D01*
X39014Y13764D01*
X39024Y13782D01*
X39033Y13801D01*
X39052Y13841D01*
X39060Y13862D01*
X39067Y13883D01*
Y13884D01*
X39069Y13889D01*
X39071Y13895D01*
X39073Y13903D01*
X39076Y13914D01*
X39078Y13927D01*
X39081Y13943D01*
X39085Y13961D01*
X39089Y13980D01*
X39091Y14001D01*
X39094Y14025D01*
X39097Y14049D01*
X39100Y14075D01*
X39101Y14103D01*
X39102Y14132D01*
Y14162D01*
Y14163D01*
Y14164D01*
Y14170D01*
Y14178D01*
Y14190D01*
Y14204D01*
Y14220D01*
Y14237D01*
Y14257D01*
X39101Y14277D01*
Y14298D01*
X39101Y14341D01*
Y14362D01*
X39100Y14383D01*
Y14402D01*
X39099Y14420D01*
X39151Y14384D01*
X39514D01*
X39563Y14434D01*
X39630Y14364D01*
D02*
G37*
G36*
X38893Y14429D02*
X38898Y14427D01*
X38904Y14423D01*
X38913Y14420D01*
X38921Y14416D01*
X38941Y14406D01*
X38961Y14395D01*
X38970Y14389D01*
X38978Y14383D01*
X38987Y14376D01*
X38993Y14370D01*
X38998Y14364D01*
X39001Y14358D01*
Y14358D01*
X39002Y14354D01*
X39003Y14348D01*
Y14341D01*
Y14333D01*
X39002Y14323D01*
X39000Y14315D01*
X38995Y14306D01*
X38994Y14305D01*
X38992Y14302D01*
X38990Y14298D01*
X38987Y14295D01*
X38983Y14291D01*
X38979Y14287D01*
X38976Y14284D01*
X38973Y14284D01*
X38972D01*
X38971Y14284D01*
X38968Y14285D01*
X38965Y14287D01*
X38962Y14291D01*
X38958Y14296D01*
X38954Y14303D01*
X38952Y14312D01*
Y14313D01*
X38951Y14314D01*
X38950Y14317D01*
X38948Y14321D01*
X38943Y14330D01*
X38937Y14343D01*
X38927Y14358D01*
X38915Y14377D01*
X38900Y14397D01*
X38882Y14420D01*
X38889Y14431D01*
X38890D01*
X38893Y14429D01*
D02*
G37*
G36*
X37126Y14433D02*
X37128Y14432D01*
X37133Y14430D01*
X37143Y14424D01*
X37156Y14417D01*
X37171Y14408D01*
X37186Y14399D01*
X37200Y14390D01*
X37212Y14380D01*
X37213Y14379D01*
X37216Y14375D01*
X37221Y14370D01*
X37227Y14363D01*
X37232Y14355D01*
X37237Y14346D01*
X37240Y14335D01*
X37241Y14325D01*
Y14324D01*
Y14321D01*
X37240Y14316D01*
X37239Y14310D01*
X37237Y14298D01*
X37233Y14294D01*
X37229Y14290D01*
X37228D01*
X37227Y14289D01*
X37223Y14287D01*
X37217Y14284D01*
X37214Y14284D01*
X37213D01*
X37211Y14284D01*
X37207Y14285D01*
X37203Y14288D01*
X37199Y14293D01*
X37194Y14300D01*
X37190Y14309D01*
X37186Y14322D01*
Y14323D01*
X37185Y14324D01*
X37184Y14327D01*
X37182Y14331D01*
X37177Y14340D01*
X37170Y14352D01*
X37161Y14367D01*
X37149Y14384D01*
X37134Y14403D01*
X37115Y14423D01*
X37123Y14434D01*
X37124D01*
X37126Y14433D01*
D02*
G37*
G36*
X38357Y14420D02*
X38329Y14395D01*
Y14272D01*
X38542D01*
X38577Y14308D01*
X38626Y14259D01*
X38595Y14235D01*
Y14234D01*
Y14232D01*
Y14228D01*
Y14222D01*
Y14216D01*
Y14209D01*
Y14199D01*
Y14190D01*
Y14168D01*
Y14143D01*
Y14115D01*
X38595Y14087D01*
Y14026D01*
Y13998D01*
X38596Y13970D01*
Y13944D01*
X38597Y13921D01*
Y13911D01*
Y13902D01*
X38598Y13893D01*
Y13886D01*
X38546Y13861D01*
Y13903D01*
X38329D01*
Y13745D01*
Y13743D01*
X38330Y13740D01*
X38331Y13733D01*
X38335Y13727D01*
X38339Y13720D01*
X38347Y13714D01*
X38357Y13710D01*
X38363Y13708D01*
X38613D01*
X38617Y13709D01*
X38622Y13711D01*
X38628Y13714D01*
X38634Y13718D01*
X38640Y13725D01*
X38645Y13733D01*
X38646Y13744D01*
Y13746D01*
Y13748D01*
X38647Y13751D01*
Y13755D01*
X38648Y13760D01*
Y13766D01*
X38649Y13773D01*
Y13781D01*
X38650Y13791D01*
Y13803D01*
X38651Y13815D01*
X38652Y13828D01*
X38653Y13843D01*
Y13860D01*
X38654Y13878D01*
X38671D01*
Y13877D01*
Y13875D01*
Y13870D01*
Y13865D01*
Y13857D01*
X38672Y13850D01*
X38673Y13831D01*
X38674Y13812D01*
X38677Y13793D01*
X38678Y13784D01*
X38680Y13776D01*
X38682Y13769D01*
X38683Y13763D01*
X38684Y13762D01*
X38685Y13758D01*
X38689Y13754D01*
X38693Y13747D01*
X38698Y13740D01*
X38704Y13732D01*
X38712Y13725D01*
X38720Y13718D01*
X38719Y13717D01*
X38718Y13714D01*
X38715Y13709D01*
X38711Y13703D01*
X38706Y13696D01*
X38700Y13690D01*
X38693Y13684D01*
X38685Y13679D01*
X38684Y13678D01*
X38682Y13677D01*
X38677Y13675D01*
X38670Y13672D01*
X38661Y13669D01*
X38651Y13667D01*
X38640Y13667D01*
X38626Y13666D01*
X38350D01*
X38347Y13667D01*
X38342D01*
X38330Y13669D01*
X38317Y13674D01*
X38310Y13678D01*
X38303Y13682D01*
X38297Y13688D01*
X38291Y13695D01*
X38287Y13703D01*
X38283Y13712D01*
X38281Y13723D01*
X38280Y13735D01*
Y13903D01*
X38070D01*
Y13854D01*
X38018Y13829D01*
Y13831D01*
Y13835D01*
Y13841D01*
X38019Y13850D01*
Y13861D01*
Y13874D01*
Y13889D01*
X38020Y13904D01*
Y13923D01*
Y13941D01*
Y13962D01*
X38021Y13983D01*
Y14027D01*
Y14074D01*
Y14075D01*
Y14079D01*
Y14086D01*
Y14095D01*
Y14106D01*
Y14119D01*
Y14134D01*
Y14149D01*
X38020Y14167D01*
Y14185D01*
Y14223D01*
X38019Y14264D01*
X38018Y14304D01*
X38074Y14272D01*
X38280D01*
Y14273D01*
Y14277D01*
Y14283D01*
Y14290D01*
Y14298D01*
Y14309D01*
Y14321D01*
Y14333D01*
X38279Y14347D01*
Y14362D01*
X38278Y14394D01*
X38277Y14426D01*
X38276Y14458D01*
X38357Y14420D01*
D02*
G37*
G36*
X36584Y14193D02*
X36556Y14168D01*
Y14018D01*
Y14017D01*
Y14015D01*
Y14013D01*
Y14008D01*
Y14002D01*
Y13995D01*
Y13988D01*
Y13978D01*
X36557Y13969D01*
Y13958D01*
Y13934D01*
X36558Y13907D01*
X36559Y13878D01*
X36507Y13858D01*
Y13921D01*
X36307D01*
Y13840D01*
X36255Y13823D01*
Y13825D01*
Y13828D01*
Y13835D01*
X36256Y13843D01*
Y13854D01*
Y13866D01*
X36257Y13880D01*
Y13896D01*
Y13912D01*
X36258Y13929D01*
Y13965D01*
X36259Y14001D01*
Y14037D01*
Y14038D01*
Y14042D01*
Y14047D01*
Y14053D01*
Y14062D01*
Y14072D01*
Y14084D01*
Y14097D01*
X36258Y14111D01*
Y14125D01*
Y14141D01*
X36257Y14158D01*
X36256Y14194D01*
X36255Y14231D01*
X36311Y14203D01*
X36503D01*
X36524Y14238D01*
X36584Y14193D01*
D02*
G37*
G36*
X38814Y14226D02*
X38818Y14224D01*
X38823Y14222D01*
X38831Y14218D01*
X38841Y14213D01*
X38851Y14208D01*
X38873Y14195D01*
X38895Y14181D01*
X38905Y14173D01*
X38915Y14165D01*
X38923Y14158D01*
X38928Y14150D01*
X38933Y14143D01*
X38934Y14136D01*
Y14135D01*
Y14131D01*
X38933Y14124D01*
X38932Y14117D01*
X38930Y14109D01*
X38928Y14100D01*
X38925Y14092D01*
X38920Y14086D01*
X38919Y14085D01*
X38918Y14083D01*
X38913Y14078D01*
X38905Y14073D01*
X38902Y14071D01*
X38899Y14070D01*
X38897Y14071D01*
X38895Y14072D01*
X38892Y14074D01*
X38890Y14078D01*
X38886Y14085D01*
X38882Y14093D01*
X38879Y14105D01*
Y14106D01*
X38878Y14107D01*
X38877Y14110D01*
X38875Y14113D01*
X38870Y14123D01*
X38863Y14136D01*
X38853Y14152D01*
X38841Y14172D01*
X38825Y14193D01*
X38805Y14217D01*
X38812Y14227D01*
X38814Y14226D01*
D02*
G37*
G36*
X39074Y14321D02*
Y14321D01*
X39073Y14317D01*
X39071Y14312D01*
X39069Y14305D01*
X39066Y14296D01*
X39064Y14286D01*
X39061Y14274D01*
X39057Y14261D01*
X39052Y14247D01*
X39049Y14232D01*
X39039Y14198D01*
X39029Y14163D01*
X39018Y14125D01*
X39008Y14087D01*
X38998Y14050D01*
X38988Y14014D01*
X38978Y13982D01*
X38975Y13966D01*
X38970Y13952D01*
X38967Y13939D01*
X38964Y13927D01*
X38961Y13917D01*
X38959Y13908D01*
X38957Y13902D01*
X38956Y13896D01*
Y13895D01*
Y13894D01*
X38955Y13891D01*
Y13888D01*
X38953Y13878D01*
X38952Y13865D01*
X38950Y13850D01*
X38949Y13831D01*
X38947Y13811D01*
X38946Y13788D01*
Y13787D01*
Y13785D01*
Y13782D01*
Y13778D01*
Y13766D01*
Y13754D01*
Y13740D01*
Y13725D01*
X38947Y13712D01*
X38948Y13701D01*
Y13700D01*
Y13699D01*
X38946Y13694D01*
X38944Y13692D01*
X38942Y13689D01*
X38939Y13688D01*
X38934Y13687D01*
X38932D01*
X38929Y13688D01*
X38926D01*
X38921Y13689D01*
X38916Y13691D01*
X38909Y13693D01*
X38901Y13696D01*
X38900D01*
X38897Y13698D01*
X38893Y13700D01*
X38890Y13704D01*
X38886Y13708D01*
X38882Y13715D01*
X38879Y13722D01*
X38879Y13731D01*
Y13732D01*
Y13736D01*
Y13741D01*
X38879Y13747D01*
X38880Y13754D01*
X38881Y13763D01*
X38885Y13780D01*
X38886Y13782D01*
X38887Y13786D01*
X38889Y13792D01*
X38891Y13801D01*
X38892Y13810D01*
X38894Y13819D01*
X38896Y13828D01*
Y13837D01*
Y13838D01*
Y13840D01*
X38895Y13844D01*
X38894Y13849D01*
X38892Y13854D01*
X38890Y13860D01*
X38886Y13865D01*
X38880Y13871D01*
X38879Y13872D01*
X38877Y13874D01*
X38873Y13877D01*
X38866Y13880D01*
X38856Y13884D01*
X38845Y13889D01*
X38830Y13894D01*
X38812Y13900D01*
Y13914D01*
X38815D01*
X38818Y13913D01*
X38822D01*
X38832Y13912D01*
X38845Y13910D01*
X38859Y13909D01*
X38872Y13908D01*
X38891D01*
X38893Y13909D01*
X38897Y13910D01*
X38901Y13913D01*
X38906Y13916D01*
X38912Y13922D01*
X38918Y13929D01*
X38926Y13939D01*
X38927Y13941D01*
X38928Y13945D01*
X38930Y13950D01*
X38934Y13957D01*
X38938Y13967D01*
X38941Y13974D01*
X38943Y13981D01*
X38946Y13989D01*
X38950Y13999D01*
X38953Y14009D01*
X38958Y14021D01*
X38962Y14033D01*
X38967Y14047D01*
X38972Y14062D01*
X38978Y14078D01*
X38984Y14096D01*
X38990Y14114D01*
X38998Y14136D01*
X39005Y14158D01*
X39013Y14181D01*
X39021Y14207D01*
X39030Y14234D01*
X39039Y14262D01*
X39050Y14293D01*
X39060Y14325D01*
X39074Y14321D01*
D02*
G37*
G36*
X37503Y14022D02*
X37609D01*
X37636Y14050D01*
X37678Y14008D01*
X37654Y13987D01*
Y13986D01*
Y13981D01*
Y13976D01*
Y13967D01*
Y13958D01*
Y13947D01*
Y13935D01*
X37655Y13921D01*
Y13894D01*
X37656Y13866D01*
Y13852D01*
X37657Y13840D01*
Y13829D01*
X37658Y13819D01*
X37611Y13798D01*
Y13844D01*
X37503D01*
Y13798D01*
X37458Y13778D01*
Y13778D01*
Y13780D01*
Y13784D01*
X37459Y13789D01*
Y13795D01*
Y13803D01*
X37460Y13811D01*
Y13819D01*
X37461Y13840D01*
Y13863D01*
X37461Y13888D01*
Y13914D01*
Y13914D01*
Y13916D01*
Y13921D01*
Y13926D01*
Y13932D01*
Y13939D01*
Y13948D01*
Y13957D01*
X37461Y13978D01*
X37460Y14002D01*
X37459Y14027D01*
X37458Y14053D01*
X37503Y14022D01*
D02*
G37*
G36*
X36943Y14347D02*
X36776D01*
Y13778D01*
Y13777D01*
Y13774D01*
Y13769D01*
X36775Y13763D01*
X36774Y13755D01*
X36772Y13747D01*
X36770Y13738D01*
X36768Y13729D01*
X36764Y13718D01*
X36758Y13708D01*
X36752Y13698D01*
X36745Y13688D01*
X36736Y13679D01*
X36725Y13669D01*
X36713Y13662D01*
X36699Y13655D01*
Y13656D01*
X36698Y13657D01*
X36697Y13660D01*
X36696Y13664D01*
X36694Y13667D01*
X36691Y13673D01*
X36687Y13678D01*
X36682Y13684D01*
X36675Y13690D01*
X36667Y13696D01*
X36658Y13703D01*
X36646Y13710D01*
X36633Y13717D01*
X36617Y13723D01*
X36599Y13729D01*
X36580Y13735D01*
Y13753D01*
X36583D01*
X36585Y13752D01*
X36589D01*
X36599Y13751D01*
X36612Y13749D01*
X36628Y13747D01*
X36646Y13745D01*
X36664Y13744D01*
X36683Y13742D01*
X36691D01*
X36698Y13744D01*
X36708Y13747D01*
X36716Y13753D01*
X36720Y13756D01*
X36722Y13762D01*
X36725Y13767D01*
X36727Y13774D01*
X36728Y13782D01*
X36727Y13791D01*
Y14347D01*
X36237D01*
X36228Y14346D01*
X36216D01*
X36204Y14345D01*
X36190Y14343D01*
X36176Y14340D01*
X36161Y14336D01*
X36129Y14368D01*
X36818D01*
X36870Y14420D01*
X36943Y14347D01*
D02*
G37*
G36*
X37238Y14158D02*
X37202Y14134D01*
Y13822D01*
X37312Y13920D01*
X37322Y13910D01*
X37321Y13908D01*
X37317Y13903D01*
X37312Y13897D01*
X37304Y13888D01*
X37296Y13877D01*
X37286Y13864D01*
X37276Y13850D01*
X37264Y13835D01*
X37241Y13803D01*
X37219Y13773D01*
X37209Y13759D01*
X37200Y13746D01*
X37192Y13735D01*
X37186Y13726D01*
X37143Y13774D01*
X37144Y13775D01*
X37145Y13778D01*
X37148Y13782D01*
X37151Y13788D01*
X37153Y13794D01*
X37155Y13803D01*
X37156Y13812D01*
X37157Y13822D01*
Y14151D01*
X37132D01*
X37123Y14150D01*
X37112D01*
X37100Y14148D01*
X37085Y14147D01*
X37071Y14144D01*
X37056Y14140D01*
X37025Y14172D01*
X37154D01*
X37189Y14207D01*
X37238Y14158D01*
D02*
G37*
G36*
X39452Y13898D02*
X39456Y13896D01*
X39462Y13892D01*
X39470Y13887D01*
X39479Y13881D01*
X39489Y13875D01*
X39511Y13859D01*
X39535Y13842D01*
X39546Y13835D01*
X39557Y13827D01*
X39567Y13819D01*
X39575Y13812D01*
X39582Y13806D01*
X39586Y13801D01*
X39587Y13800D01*
X39589Y13797D01*
X39593Y13792D01*
X39596Y13786D01*
X39599Y13779D01*
X39603Y13772D01*
X39605Y13764D01*
X39606Y13756D01*
Y13755D01*
Y13754D01*
X39605Y13750D01*
Y13745D01*
X39603Y13739D01*
X39601Y13732D01*
X39598Y13725D01*
X39595Y13717D01*
Y13716D01*
X39593Y13713D01*
X39591Y13709D01*
X39589Y13705D01*
X39586Y13702D01*
X39582Y13698D01*
X39580Y13695D01*
X39577Y13694D01*
X39575Y13695D01*
X39573Y13696D01*
X39570Y13700D01*
X39566Y13704D01*
X39561Y13712D01*
X39556Y13722D01*
X39552Y13728D01*
X39549Y13735D01*
Y13736D01*
X39548Y13738D01*
X39546Y13741D01*
X39545Y13746D01*
X39541Y13752D01*
X39537Y13759D01*
X39533Y13767D01*
X39527Y13777D01*
X39520Y13787D01*
X39513Y13799D01*
X39505Y13811D01*
X39495Y13825D01*
X39484Y13840D01*
X39472Y13855D01*
X39459Y13871D01*
X39445Y13889D01*
X39451Y13899D01*
X39452Y13898D01*
D02*
G37*
G36*
X39308Y13865D02*
X39306Y13864D01*
X39301Y13861D01*
X39294Y13856D01*
X39284Y13850D01*
X39272Y13840D01*
X39258Y13829D01*
X39244Y13815D01*
X39228Y13798D01*
X39227Y13797D01*
X39226Y13796D01*
X39224Y13793D01*
X39220Y13790D01*
X39214Y13785D01*
X39209Y13779D01*
X39201Y13773D01*
X39194Y13766D01*
X39185Y13757D01*
X39175Y13748D01*
X39163Y13739D01*
X39151Y13729D01*
X39138Y13718D01*
X39124Y13707D01*
X39108Y13695D01*
X39091Y13683D01*
X39085Y13694D01*
X39087Y13696D01*
X39090Y13700D01*
X39097Y13706D01*
X39105Y13715D01*
X39115Y13726D01*
X39126Y13738D01*
X39138Y13752D01*
X39152Y13767D01*
X39165Y13783D01*
X39179Y13801D01*
X39205Y13838D01*
X39217Y13856D01*
X39228Y13876D01*
X39237Y13894D01*
X39245Y13913D01*
X39308Y13865D01*
D02*
G37*
G36*
X41339Y36639D02*
X41276D01*
Y36711D01*
X41339D01*
Y36639D01*
D02*
G37*
G36*
X42289Y36577D02*
X42300Y36577D01*
X42312Y36575D01*
X42324Y36572D01*
X42338Y36569D01*
X42350Y36565D01*
X42351D01*
X42352Y36564D01*
X42355Y36563D01*
X42361Y36560D01*
X42369Y36556D01*
X42377Y36551D01*
X42385Y36545D01*
X42392Y36538D01*
X42399Y36531D01*
X42400Y36530D01*
X42401Y36527D01*
X42404Y36522D01*
X42408Y36516D01*
X42412Y36507D01*
X42415Y36498D01*
X42418Y36486D01*
X42421Y36474D01*
X42360Y36466D01*
Y36467D01*
X42359Y36470D01*
X42358Y36475D01*
X42355Y36482D01*
X42352Y36489D01*
X42347Y36496D01*
X42342Y36503D01*
X42335Y36510D01*
X42334Y36511D01*
X42331Y36512D01*
X42326Y36515D01*
X42320Y36518D01*
X42312Y36521D01*
X42303Y36524D01*
X42291Y36526D01*
X42278Y36526D01*
X42271D01*
X42264Y36526D01*
X42254Y36525D01*
X42244Y36523D01*
X42234Y36520D01*
X42224Y36517D01*
X42216Y36512D01*
X42215Y36511D01*
X42213Y36509D01*
X42210Y36506D01*
X42207Y36502D01*
X42204Y36498D01*
X42201Y36492D01*
X42198Y36485D01*
X42198Y36478D01*
Y36478D01*
Y36476D01*
X42198Y36474D01*
Y36471D01*
X42201Y36463D01*
X42205Y36456D01*
X42206Y36455D01*
X42207Y36455D01*
X42208Y36452D01*
X42211Y36450D01*
X42214Y36448D01*
X42218Y36445D01*
X42224Y36443D01*
X42230Y36440D01*
X42230D01*
X42232Y36439D01*
X42235Y36438D01*
X42240Y36436D01*
X42247Y36434D01*
X42257Y36432D01*
X42263Y36429D01*
X42270Y36428D01*
X42277Y36426D01*
X42285Y36424D01*
X42286D01*
X42288Y36423D01*
X42292Y36422D01*
X42296Y36421D01*
X42301Y36419D01*
X42308Y36418D01*
X42322Y36413D01*
X42338Y36409D01*
X42353Y36404D01*
X42367Y36398D01*
X42373Y36396D01*
X42378Y36394D01*
X42380Y36393D01*
X42383Y36392D01*
X42387Y36389D01*
X42394Y36386D01*
X42400Y36381D01*
X42407Y36375D01*
X42414Y36369D01*
X42420Y36361D01*
X42420Y36361D01*
X42422Y36358D01*
X42425Y36353D01*
X42428Y36347D01*
X42430Y36338D01*
X42433Y36330D01*
X42435Y36319D01*
X42435Y36307D01*
Y36306D01*
Y36302D01*
X42435Y36296D01*
X42433Y36288D01*
X42431Y36279D01*
X42427Y36270D01*
X42423Y36259D01*
X42417Y36248D01*
X42416Y36247D01*
X42413Y36244D01*
X42409Y36239D01*
X42403Y36233D01*
X42395Y36226D01*
X42386Y36219D01*
X42376Y36212D01*
X42364Y36205D01*
X42363D01*
X42362Y36204D01*
X42358Y36203D01*
X42350Y36201D01*
X42341Y36198D01*
X42329Y36195D01*
X42315Y36193D01*
X42301Y36191D01*
X42285Y36190D01*
X42278D01*
X42273Y36191D01*
X42267D01*
X42260Y36192D01*
X42252Y36193D01*
X42244Y36194D01*
X42227Y36198D01*
X42208Y36203D01*
X42190Y36210D01*
X42182Y36215D01*
X42175Y36220D01*
X42174Y36221D01*
X42173Y36222D01*
X42169Y36226D01*
X42162Y36233D01*
X42155Y36243D01*
X42147Y36256D01*
X42139Y36270D01*
X42132Y36289D01*
X42127Y36310D01*
X42189Y36319D01*
Y36318D01*
Y36318D01*
X42190Y36313D01*
X42192Y36306D01*
X42195Y36298D01*
X42198Y36289D01*
X42203Y36279D01*
X42210Y36270D01*
X42218Y36261D01*
X42219Y36261D01*
X42222Y36259D01*
X42228Y36256D01*
X42235Y36252D01*
X42245Y36248D01*
X42256Y36245D01*
X42270Y36243D01*
X42285Y36242D01*
X42292D01*
X42300Y36243D01*
X42309Y36244D01*
X42320Y36247D01*
X42331Y36250D01*
X42341Y36253D01*
X42349Y36259D01*
X42350Y36260D01*
X42353Y36262D01*
X42356Y36266D01*
X42361Y36271D01*
X42364Y36277D01*
X42368Y36284D01*
X42370Y36292D01*
X42371Y36301D01*
Y36301D01*
Y36304D01*
X42370Y36308D01*
X42369Y36313D01*
X42366Y36318D01*
X42363Y36324D01*
X42358Y36330D01*
X42352Y36334D01*
X42351Y36335D01*
X42349Y36335D01*
X42345Y36338D01*
X42339Y36340D01*
X42330Y36343D01*
X42325Y36345D01*
X42319Y36347D01*
X42312Y36349D01*
X42305Y36351D01*
X42297Y36353D01*
X42287Y36355D01*
X42287D01*
X42284Y36356D01*
X42281Y36357D01*
X42276Y36358D01*
X42270Y36360D01*
X42264Y36362D01*
X42250Y36366D01*
X42233Y36371D01*
X42218Y36375D01*
X42203Y36381D01*
X42196Y36384D01*
X42191Y36386D01*
X42190Y36387D01*
X42187Y36388D01*
X42182Y36391D01*
X42176Y36395D01*
X42170Y36400D01*
X42163Y36406D01*
X42156Y36412D01*
X42150Y36421D01*
X42150Y36421D01*
X42148Y36424D01*
X42146Y36429D01*
X42144Y36435D01*
X42141Y36443D01*
X42139Y36452D01*
X42138Y36461D01*
X42137Y36471D01*
Y36472D01*
Y36475D01*
X42138Y36480D01*
X42139Y36486D01*
X42140Y36493D01*
X42141Y36501D01*
X42144Y36509D01*
X42148Y36517D01*
X42149Y36518D01*
X42150Y36520D01*
X42153Y36524D01*
X42156Y36529D01*
X42161Y36535D01*
X42166Y36541D01*
X42172Y36547D01*
X42179Y36552D01*
X42180Y36553D01*
X42182Y36554D01*
X42185Y36556D01*
X42190Y36558D01*
X42196Y36561D01*
X42202Y36564D01*
X42210Y36567D01*
X42219Y36570D01*
X42221Y36571D01*
X42224Y36572D01*
X42229Y36573D01*
X42235Y36574D01*
X42244Y36576D01*
X42252Y36577D01*
X42263Y36578D01*
X42281D01*
X42289Y36577D01*
D02*
G37*
G36*
X40697D02*
X40708Y36577D01*
X40720Y36575D01*
X40733Y36572D01*
X40746Y36569D01*
X40758Y36565D01*
X40759D01*
X40760Y36564D01*
X40764Y36563D01*
X40770Y36560D01*
X40777Y36556D01*
X40785Y36551D01*
X40793Y36545D01*
X40801Y36538D01*
X40807Y36531D01*
X40808Y36530D01*
X40809Y36527D01*
X40812Y36522D01*
X40816Y36516D01*
X40820Y36507D01*
X40824Y36498D01*
X40827Y36486D01*
X40829Y36474D01*
X40768Y36466D01*
Y36467D01*
X40767Y36470D01*
X40766Y36475D01*
X40764Y36482D01*
X40760Y36489D01*
X40755Y36496D01*
X40750Y36503D01*
X40743Y36510D01*
X40742Y36511D01*
X40739Y36512D01*
X40735Y36515D01*
X40728Y36518D01*
X40721Y36521D01*
X40711Y36524D01*
X40699Y36526D01*
X40687Y36526D01*
X40679D01*
X40672Y36526D01*
X40662Y36525D01*
X40653Y36523D01*
X40642Y36520D01*
X40633Y36517D01*
X40624Y36512D01*
X40624Y36511D01*
X40622Y36509D01*
X40619Y36506D01*
X40616Y36502D01*
X40612Y36498D01*
X40609Y36492D01*
X40607Y36485D01*
X40606Y36478D01*
Y36478D01*
Y36476D01*
X40607Y36474D01*
Y36471D01*
X40609Y36463D01*
X40613Y36456D01*
X40614Y36455D01*
X40615Y36455D01*
X40616Y36452D01*
X40619Y36450D01*
X40622Y36448D01*
X40627Y36445D01*
X40632Y36443D01*
X40638Y36440D01*
X40639D01*
X40640Y36439D01*
X40643Y36438D01*
X40648Y36436D01*
X40656Y36434D01*
X40665Y36432D01*
X40671Y36429D01*
X40678Y36428D01*
X40685Y36426D01*
X40693Y36424D01*
X40694D01*
X40696Y36423D01*
X40700Y36422D01*
X40704Y36421D01*
X40710Y36419D01*
X40716Y36418D01*
X40730Y36413D01*
X40746Y36409D01*
X40761Y36404D01*
X40775Y36398D01*
X40781Y36396D01*
X40787Y36394D01*
X40788Y36393D01*
X40791Y36392D01*
X40795Y36389D01*
X40802Y36386D01*
X40809Y36381D01*
X40815Y36375D01*
X40822Y36369D01*
X40828Y36361D01*
X40829Y36361D01*
X40830Y36358D01*
X40833Y36353D01*
X40836Y36347D01*
X40838Y36338D01*
X40841Y36330D01*
X40843Y36319D01*
X40844Y36307D01*
Y36306D01*
Y36302D01*
X40843Y36296D01*
X40841Y36288D01*
X40839Y36279D01*
X40835Y36270D01*
X40831Y36259D01*
X40825Y36248D01*
X40824Y36247D01*
X40821Y36244D01*
X40818Y36239D01*
X40812Y36233D01*
X40804Y36226D01*
X40795Y36219D01*
X40784Y36212D01*
X40772Y36205D01*
X40771D01*
X40770Y36204D01*
X40766Y36203D01*
X40758Y36201D01*
X40749Y36198D01*
X40737Y36195D01*
X40724Y36193D01*
X40710Y36191D01*
X40693Y36190D01*
X40687D01*
X40681Y36191D01*
X40676D01*
X40668Y36192D01*
X40661Y36193D01*
X40653Y36194D01*
X40635Y36198D01*
X40616Y36203D01*
X40599Y36210D01*
X40590Y36215D01*
X40583Y36220D01*
X40582Y36221D01*
X40582Y36222D01*
X40577Y36226D01*
X40570Y36233D01*
X40563Y36243D01*
X40555Y36256D01*
X40547Y36270D01*
X40540Y36289D01*
X40535Y36310D01*
X40597Y36319D01*
Y36318D01*
Y36318D01*
X40599Y36313D01*
X40600Y36306D01*
X40603Y36298D01*
X40607Y36289D01*
X40611Y36279D01*
X40618Y36270D01*
X40626Y36261D01*
X40627Y36261D01*
X40630Y36259D01*
X40636Y36256D01*
X40644Y36252D01*
X40653Y36248D01*
X40664Y36245D01*
X40678Y36243D01*
X40693Y36242D01*
X40701D01*
X40708Y36243D01*
X40718Y36244D01*
X40728Y36247D01*
X40739Y36250D01*
X40749Y36253D01*
X40758Y36259D01*
X40758Y36260D01*
X40761Y36262D01*
X40764Y36266D01*
X40769Y36271D01*
X40773Y36277D01*
X40776Y36284D01*
X40778Y36292D01*
X40779Y36301D01*
Y36301D01*
Y36304D01*
X40778Y36308D01*
X40777Y36313D01*
X40775Y36318D01*
X40771Y36324D01*
X40767Y36330D01*
X40760Y36334D01*
X40759Y36335D01*
X40757Y36335D01*
X40753Y36338D01*
X40747Y36340D01*
X40738Y36343D01*
X40733Y36345D01*
X40727Y36347D01*
X40721Y36349D01*
X40713Y36351D01*
X40705Y36353D01*
X40696Y36355D01*
X40695D01*
X40693Y36356D01*
X40689Y36357D01*
X40684Y36358D01*
X40679Y36360D01*
X40672Y36362D01*
X40658Y36366D01*
X40642Y36371D01*
X40626Y36375D01*
X40611Y36381D01*
X40605Y36384D01*
X40599Y36386D01*
X40598Y36387D01*
X40595Y36388D01*
X40590Y36391D01*
X40585Y36395D01*
X40578Y36400D01*
X40571Y36406D01*
X40565Y36412D01*
X40559Y36421D01*
X40558Y36421D01*
X40556Y36424D01*
X40554Y36429D01*
X40552Y36435D01*
X40550Y36443D01*
X40548Y36452D01*
X40546Y36461D01*
X40545Y36471D01*
Y36472D01*
Y36475D01*
X40546Y36480D01*
X40547Y36486D01*
X40548Y36493D01*
X40550Y36501D01*
X40553Y36509D01*
X40556Y36517D01*
X40557Y36518D01*
X40559Y36520D01*
X40561Y36524D01*
X40565Y36529D01*
X40569Y36535D01*
X40574Y36541D01*
X40580Y36547D01*
X40588Y36552D01*
X40588Y36553D01*
X40590Y36554D01*
X40593Y36556D01*
X40598Y36558D01*
X40604Y36561D01*
X40610Y36564D01*
X40619Y36567D01*
X40627Y36570D01*
X40629Y36571D01*
X40632Y36572D01*
X40637Y36573D01*
X40644Y36574D01*
X40652Y36576D01*
X40661Y36577D01*
X40671Y36578D01*
X40689D01*
X40697Y36577D01*
D02*
G37*
G36*
X41079D02*
X41083D01*
X41089Y36577D01*
X41103Y36574D01*
X41119Y36571D01*
X41135Y36565D01*
X41151Y36557D01*
X41167Y36547D01*
X41168D01*
X41168Y36546D01*
X41173Y36541D01*
X41179Y36535D01*
X41188Y36525D01*
X41196Y36513D01*
X41204Y36498D01*
X41211Y36481D01*
X41217Y36461D01*
X41155Y36452D01*
Y36452D01*
X41154Y36453D01*
X41154Y36458D01*
X41151Y36464D01*
X41148Y36472D01*
X41144Y36481D01*
X41138Y36491D01*
X41131Y36500D01*
X41124Y36507D01*
X41123Y36508D01*
X41120Y36510D01*
X41115Y36513D01*
X41109Y36517D01*
X41101Y36520D01*
X41092Y36523D01*
X41082Y36526D01*
X41071Y36526D01*
X41066D01*
X41063Y36526D01*
X41054Y36525D01*
X41043Y36522D01*
X41031Y36518D01*
X41018Y36512D01*
X41006Y36503D01*
X41000Y36498D01*
X40994Y36492D01*
Y36492D01*
X40992Y36491D01*
X40991Y36489D01*
X40989Y36486D01*
X40987Y36482D01*
X40984Y36478D01*
X40982Y36472D01*
X40979Y36466D01*
X40976Y36459D01*
X40974Y36451D01*
X40971Y36442D01*
X40969Y36432D01*
X40967Y36422D01*
X40966Y36410D01*
X40964Y36398D01*
Y36384D01*
Y36384D01*
Y36381D01*
Y36377D01*
X40965Y36372D01*
Y36366D01*
X40966Y36359D01*
X40968Y36343D01*
X40971Y36325D01*
X40976Y36307D01*
X40983Y36290D01*
X40987Y36282D01*
X40992Y36276D01*
X40994Y36274D01*
X40997Y36270D01*
X41004Y36265D01*
X41012Y36259D01*
X41023Y36253D01*
X41036Y36247D01*
X41051Y36244D01*
X41059Y36243D01*
X41067Y36242D01*
X41069D01*
X41073Y36243D01*
X41080Y36244D01*
X41088Y36245D01*
X41098Y36247D01*
X41108Y36252D01*
X41119Y36257D01*
X41128Y36264D01*
X41130Y36265D01*
X41132Y36269D01*
X41137Y36274D01*
X41142Y36282D01*
X41147Y36292D01*
X41153Y36304D01*
X41157Y36318D01*
X41160Y36335D01*
X41222Y36327D01*
Y36326D01*
X41222Y36324D01*
X41221Y36321D01*
X41220Y36316D01*
X41219Y36310D01*
X41217Y36304D01*
X41212Y36290D01*
X41205Y36274D01*
X41196Y36257D01*
X41184Y36241D01*
X41177Y36233D01*
X41170Y36226D01*
X41169Y36225D01*
X41168Y36224D01*
X41165Y36223D01*
X41162Y36221D01*
X41159Y36218D01*
X41154Y36215D01*
X41148Y36212D01*
X41142Y36208D01*
X41127Y36202D01*
X41109Y36196D01*
X41090Y36192D01*
X41079Y36191D01*
X41068Y36190D01*
X41060D01*
X41055Y36191D01*
X41049Y36192D01*
X41041Y36193D01*
X41033Y36195D01*
X41024Y36196D01*
X41004Y36202D01*
X40995Y36207D01*
X40984Y36211D01*
X40974Y36217D01*
X40964Y36224D01*
X40955Y36231D01*
X40946Y36240D01*
X40945Y36241D01*
X40943Y36242D01*
X40941Y36245D01*
X40938Y36249D01*
X40935Y36254D01*
X40931Y36261D01*
X40927Y36268D01*
X40923Y36276D01*
X40918Y36286D01*
X40915Y36297D01*
X40910Y36308D01*
X40907Y36321D01*
X40904Y36335D01*
X40902Y36350D01*
X40901Y36366D01*
X40900Y36383D01*
Y36384D01*
Y36386D01*
Y36389D01*
Y36393D01*
X40901Y36398D01*
Y36404D01*
X40901Y36411D01*
X40902Y36418D01*
X40904Y36435D01*
X40908Y36452D01*
X40912Y36470D01*
X40919Y36488D01*
Y36489D01*
X40920Y36490D01*
X40921Y36492D01*
X40923Y36495D01*
X40927Y36503D01*
X40934Y36513D01*
X40943Y36524D01*
X40953Y36535D01*
X40966Y36546D01*
X40980Y36555D01*
X40980D01*
X40982Y36556D01*
X40984Y36557D01*
X40987Y36559D01*
X40991Y36560D01*
X40995Y36563D01*
X41006Y36567D01*
X41019Y36571D01*
X41034Y36574D01*
X41051Y36577D01*
X41069Y36578D01*
X41074D01*
X41079Y36577D01*
D02*
G37*
G36*
X41656Y36199D02*
X41593D01*
Y36711D01*
X41656D01*
Y36199D01*
D02*
G37*
G36*
X41497D02*
X41434D01*
Y36711D01*
X41497D01*
Y36199D01*
D02*
G37*
G36*
X41339D02*
X41276D01*
Y36570D01*
X41339D01*
Y36199D01*
D02*
G37*
G36*
X41917Y36577D02*
X41923Y36577D01*
X41931Y36575D01*
X41939Y36574D01*
X41948Y36572D01*
X41968Y36566D01*
X41979Y36562D01*
X41989Y36557D01*
X41999Y36552D01*
X42010Y36544D01*
X42019Y36537D01*
X42029Y36528D01*
X42030Y36527D01*
X42031Y36526D01*
X42033Y36523D01*
X42036Y36519D01*
X42040Y36514D01*
X42045Y36507D01*
X42049Y36500D01*
X42053Y36492D01*
X42058Y36483D01*
X42062Y36472D01*
X42067Y36461D01*
X42070Y36448D01*
X42073Y36435D01*
X42076Y36421D01*
X42077Y36406D01*
X42078Y36389D01*
Y36389D01*
Y36387D01*
Y36383D01*
Y36378D01*
X42077Y36372D01*
X42076Y36364D01*
Y36357D01*
X42075Y36349D01*
X42073Y36330D01*
X42068Y36312D01*
X42063Y36293D01*
X42056Y36276D01*
Y36276D01*
X42055Y36275D01*
X42053Y36273D01*
X42052Y36270D01*
X42047Y36262D01*
X42040Y36253D01*
X42031Y36243D01*
X42020Y36233D01*
X42008Y36222D01*
X41993Y36213D01*
X41992D01*
X41991Y36212D01*
X41989Y36210D01*
X41985Y36209D01*
X41982Y36207D01*
X41977Y36206D01*
X41966Y36202D01*
X41954Y36198D01*
X41938Y36194D01*
X41922Y36191D01*
X41904Y36190D01*
X41897D01*
X41891Y36191D01*
X41884Y36192D01*
X41877Y36193D01*
X41868Y36195D01*
X41859Y36196D01*
X41839Y36202D01*
X41828Y36207D01*
X41817Y36211D01*
X41807Y36217D01*
X41797Y36224D01*
X41787Y36231D01*
X41777Y36240D01*
X41777Y36241D01*
X41775Y36242D01*
X41773Y36245D01*
X41770Y36250D01*
X41766Y36255D01*
X41763Y36261D01*
X41758Y36268D01*
X41754Y36277D01*
X41749Y36287D01*
X41745Y36298D01*
X41741Y36310D01*
X41737Y36322D01*
X41734Y36336D01*
X41732Y36351D01*
X41731Y36367D01*
X41730Y36384D01*
Y36386D01*
Y36389D01*
X41731Y36394D01*
Y36401D01*
X41732Y36409D01*
X41733Y36420D01*
X41734Y36430D01*
X41737Y36442D01*
X41740Y36454D01*
X41744Y36466D01*
X41749Y36480D01*
X41754Y36492D01*
X41760Y36504D01*
X41769Y36516D01*
X41777Y36527D01*
X41787Y36537D01*
X41788Y36537D01*
X41789Y36538D01*
X41792Y36540D01*
X41796Y36543D01*
X41800Y36546D01*
X41806Y36550D01*
X41812Y36554D01*
X41820Y36557D01*
X41828Y36561D01*
X41837Y36565D01*
X41857Y36572D01*
X41880Y36577D01*
X41891Y36577D01*
X41904Y36578D01*
X41911D01*
X41917Y36577D01*
D02*
G37*
G36*
X40248Y36719D02*
X40255D01*
X40261Y36718D01*
X40270Y36717D01*
X40279Y36715D01*
X40298Y36711D01*
X40320Y36705D01*
X40342Y36697D01*
X40353Y36691D01*
X40364Y36685D01*
X40365Y36685D01*
X40366Y36684D01*
X40369Y36682D01*
X40374Y36680D01*
X40378Y36676D01*
X40384Y36671D01*
X40397Y36661D01*
X40410Y36648D01*
X40425Y36631D01*
X40439Y36612D01*
X40451Y36591D01*
Y36590D01*
X40452Y36588D01*
X40454Y36585D01*
X40455Y36580D01*
X40458Y36574D01*
X40460Y36568D01*
X40463Y36560D01*
X40466Y36551D01*
X40468Y36541D01*
X40471Y36531D01*
X40474Y36519D01*
X40476Y36507D01*
X40479Y36481D01*
X40481Y36453D01*
Y36452D01*
Y36449D01*
Y36446D01*
X40480Y36440D01*
Y36433D01*
X40479Y36425D01*
X40478Y36416D01*
X40477Y36407D01*
X40474Y36385D01*
X40468Y36361D01*
X40459Y36338D01*
X40455Y36326D01*
X40449Y36314D01*
Y36313D01*
X40448Y36311D01*
X40446Y36308D01*
X40443Y36304D01*
X40440Y36298D01*
X40437Y36293D01*
X40426Y36279D01*
X40414Y36264D01*
X40399Y36249D01*
X40381Y36234D01*
X40360Y36221D01*
X40360D01*
X40358Y36219D01*
X40354Y36218D01*
X40350Y36216D01*
X40345Y36213D01*
X40339Y36211D01*
X40331Y36208D01*
X40323Y36205D01*
X40314Y36202D01*
X40305Y36199D01*
X40283Y36195D01*
X40260Y36191D01*
X40236Y36190D01*
X40229D01*
X40224Y36190D01*
X40217D01*
X40210Y36192D01*
X40202Y36193D01*
X40192Y36194D01*
X40172Y36199D01*
X40151Y36204D01*
X40129Y36213D01*
X40118Y36219D01*
X40107Y36224D01*
X40106Y36225D01*
X40104Y36226D01*
X40101Y36228D01*
X40097Y36231D01*
X40092Y36234D01*
X40087Y36239D01*
X40075Y36250D01*
X40061Y36263D01*
X40046Y36279D01*
X40033Y36298D01*
X40020Y36319D01*
Y36320D01*
X40018Y36322D01*
X40017Y36325D01*
X40015Y36330D01*
X40013Y36335D01*
X40011Y36342D01*
X40008Y36350D01*
X40006Y36358D01*
X40003Y36367D01*
X40000Y36377D01*
X39996Y36399D01*
X39993Y36422D01*
X39991Y36447D01*
Y36448D01*
Y36449D01*
Y36453D01*
X39992Y36460D01*
Y36469D01*
X39993Y36479D01*
X39995Y36492D01*
X39997Y36506D01*
X40000Y36520D01*
X40003Y36536D01*
X40007Y36552D01*
X40013Y36569D01*
X40020Y36586D01*
X40027Y36602D01*
X40037Y36618D01*
X40047Y36633D01*
X40059Y36647D01*
X40060Y36648D01*
X40062Y36650D01*
X40067Y36654D01*
X40072Y36658D01*
X40078Y36664D01*
X40087Y36670D01*
X40096Y36677D01*
X40107Y36683D01*
X40119Y36690D01*
X40132Y36697D01*
X40147Y36703D01*
X40163Y36708D01*
X40180Y36713D01*
X40198Y36717D01*
X40216Y36719D01*
X40236Y36720D01*
X40243D01*
X40248Y36719D01*
D02*
G37*
G36*
X33337Y36717D02*
X33343Y36717D01*
X33352Y36716D01*
X33360Y36715D01*
X33369Y36713D01*
X33389Y36708D01*
X33411Y36702D01*
X33423Y36697D01*
X33433Y36692D01*
X33443Y36686D01*
X33454Y36679D01*
X33454Y36678D01*
X33456Y36677D01*
X33459Y36675D01*
X33463Y36671D01*
X33466Y36668D01*
X33471Y36663D01*
X33477Y36657D01*
X33482Y36651D01*
X33488Y36643D01*
X33494Y36634D01*
X33501Y36626D01*
X33507Y36616D01*
X33512Y36605D01*
X33518Y36594D01*
X33522Y36582D01*
X33527Y36569D01*
X33460Y36553D01*
Y36554D01*
X33460Y36555D01*
X33458Y36558D01*
X33457Y36562D01*
X33455Y36566D01*
X33453Y36572D01*
X33447Y36584D01*
X33440Y36597D01*
X33431Y36611D01*
X33420Y36623D01*
X33408Y36634D01*
X33406Y36636D01*
X33402Y36639D01*
X33394Y36643D01*
X33385Y36648D01*
X33372Y36652D01*
X33358Y36657D01*
X33341Y36660D01*
X33323Y36660D01*
X33317D01*
X33313Y36660D01*
X33308D01*
X33302Y36659D01*
X33288Y36657D01*
X33272Y36654D01*
X33256Y36649D01*
X33239Y36641D01*
X33224Y36632D01*
X33223D01*
X33222Y36630D01*
X33217Y36626D01*
X33210Y36620D01*
X33202Y36612D01*
X33192Y36600D01*
X33184Y36588D01*
X33175Y36572D01*
X33168Y36555D01*
Y36555D01*
X33167Y36553D01*
X33167Y36551D01*
X33166Y36547D01*
X33164Y36543D01*
X33163Y36538D01*
X33161Y36525D01*
X33158Y36510D01*
X33155Y36494D01*
X33153Y36476D01*
X33152Y36457D01*
Y36456D01*
Y36454D01*
Y36450D01*
Y36446D01*
X33153Y36441D01*
Y36434D01*
X33154Y36427D01*
X33155Y36418D01*
X33157Y36401D01*
X33161Y36381D01*
X33165Y36362D01*
X33171Y36343D01*
Y36342D01*
X33172Y36341D01*
X33173Y36338D01*
X33175Y36335D01*
X33179Y36326D01*
X33186Y36316D01*
X33194Y36304D01*
X33204Y36291D01*
X33216Y36280D01*
X33230Y36270D01*
X33231D01*
X33232Y36269D01*
X33235Y36267D01*
X33238Y36266D01*
X33241Y36264D01*
X33246Y36262D01*
X33256Y36258D01*
X33269Y36253D01*
X33284Y36250D01*
X33300Y36247D01*
X33317Y36246D01*
X33323D01*
X33327Y36247D01*
X33332D01*
X33337Y36247D01*
X33351Y36250D01*
X33366Y36254D01*
X33382Y36260D01*
X33398Y36268D01*
X33406Y36273D01*
X33414Y36279D01*
X33414Y36279D01*
X33415Y36280D01*
X33417Y36282D01*
X33420Y36284D01*
X33423Y36288D01*
X33427Y36293D01*
X33431Y36297D01*
X33435Y36303D01*
X33440Y36310D01*
X33445Y36317D01*
X33449Y36324D01*
X33454Y36333D01*
X33457Y36343D01*
X33461Y36353D01*
X33465Y36364D01*
X33468Y36376D01*
X33536Y36359D01*
Y36358D01*
X33535Y36356D01*
X33534Y36351D01*
X33531Y36345D01*
X33529Y36338D01*
X33526Y36330D01*
X33522Y36321D01*
X33518Y36312D01*
X33508Y36291D01*
X33494Y36270D01*
X33486Y36260D01*
X33478Y36250D01*
X33469Y36241D01*
X33459Y36232D01*
X33458Y36231D01*
X33457Y36230D01*
X33453Y36228D01*
X33449Y36225D01*
X33443Y36222D01*
X33437Y36218D01*
X33429Y36214D01*
X33421Y36210D01*
X33411Y36206D01*
X33401Y36202D01*
X33390Y36199D01*
X33378Y36195D01*
X33366Y36192D01*
X33352Y36190D01*
X33338Y36189D01*
X33323Y36188D01*
X33315D01*
X33309Y36189D01*
X33303D01*
X33295Y36190D01*
X33286Y36191D01*
X33275Y36193D01*
X33254Y36196D01*
X33232Y36202D01*
X33209Y36210D01*
X33199Y36216D01*
X33189Y36222D01*
X33188Y36222D01*
X33187Y36223D01*
X33184Y36225D01*
X33181Y36228D01*
X33176Y36231D01*
X33171Y36236D01*
X33165Y36241D01*
X33159Y36247D01*
X33153Y36253D01*
X33147Y36260D01*
X33133Y36277D01*
X33121Y36297D01*
X33110Y36319D01*
Y36320D01*
X33108Y36322D01*
X33107Y36326D01*
X33105Y36330D01*
X33104Y36336D01*
X33101Y36344D01*
X33098Y36352D01*
X33096Y36361D01*
X33094Y36370D01*
X33091Y36381D01*
X33087Y36404D01*
X33084Y36430D01*
X33083Y36457D01*
Y36458D01*
Y36461D01*
Y36465D01*
X33084Y36470D01*
Y36478D01*
X33084Y36485D01*
X33085Y36495D01*
X33087Y36504D01*
X33090Y36526D01*
X33095Y36549D01*
X33103Y36573D01*
X33113Y36596D01*
X33114Y36597D01*
X33115Y36599D01*
X33116Y36602D01*
X33119Y36606D01*
X33122Y36611D01*
X33126Y36617D01*
X33135Y36630D01*
X33148Y36645D01*
X33163Y36660D01*
X33180Y36674D01*
X33200Y36687D01*
X33201Y36688D01*
X33203Y36689D01*
X33206Y36690D01*
X33209Y36692D01*
X33215Y36694D01*
X33221Y36697D01*
X33229Y36700D01*
X33237Y36703D01*
X33246Y36706D01*
X33255Y36708D01*
X33276Y36713D01*
X33300Y36717D01*
X33324Y36718D01*
X33332D01*
X33337Y36717D01*
D02*
G37*
G36*
X31402Y36197D02*
X31337D01*
Y36626D01*
X31187Y36197D01*
X31126D01*
X30978Y36633D01*
Y36197D01*
X30913D01*
Y36709D01*
X31015D01*
X31136Y36346D01*
Y36345D01*
X31137Y36344D01*
X31137Y36341D01*
X31139Y36338D01*
X31142Y36329D01*
X31146Y36318D01*
X31149Y36305D01*
X31154Y36293D01*
X31157Y36281D01*
X31160Y36270D01*
X31161Y36272D01*
X31162Y36276D01*
X31164Y36282D01*
X31167Y36291D01*
X31171Y36303D01*
X31176Y36317D01*
X31181Y36333D01*
X31188Y36353D01*
X31311Y36709D01*
X31402D01*
Y36197D01*
D02*
G37*
G36*
X30711D02*
X30645D01*
X30537Y36587D01*
Y36588D01*
X30537Y36589D01*
X30536Y36592D01*
X30535Y36595D01*
X30533Y36603D01*
X30531Y36613D01*
X30528Y36623D01*
X30525Y36633D01*
X30522Y36641D01*
X30522Y36645D01*
X30521Y36647D01*
Y36646D01*
X30520Y36646D01*
X30520Y36641D01*
X30518Y36634D01*
X30516Y36626D01*
X30514Y36617D01*
X30511Y36607D01*
X30508Y36597D01*
X30505Y36587D01*
X30397Y36197D01*
X30326D01*
X30192Y36709D01*
X30263D01*
X30339Y36373D01*
Y36373D01*
X30340Y36371D01*
X30340Y36368D01*
X30341Y36364D01*
X30342Y36359D01*
X30343Y36354D01*
X30345Y36347D01*
X30346Y36340D01*
X30350Y36324D01*
X30354Y36307D01*
X30357Y36287D01*
X30361Y36268D01*
Y36269D01*
X30362Y36272D01*
X30363Y36276D01*
X30364Y36282D01*
X30366Y36287D01*
X30368Y36295D01*
X30372Y36311D01*
X30376Y36327D01*
X30377Y36336D01*
X30380Y36343D01*
X30381Y36350D01*
X30383Y36356D01*
X30384Y36360D01*
X30385Y36363D01*
X30482Y36709D01*
X30564D01*
X30636Y36449D01*
Y36449D01*
X30638Y36445D01*
X30639Y36440D01*
X30641Y36433D01*
X30643Y36424D01*
X30646Y36415D01*
X30649Y36404D01*
X30652Y36391D01*
X30656Y36377D01*
X30659Y36363D01*
X30665Y36333D01*
X30672Y36301D01*
X30677Y36268D01*
Y36269D01*
X30678Y36270D01*
Y36273D01*
X30679Y36277D01*
X30680Y36282D01*
X30682Y36287D01*
X30682Y36293D01*
X30685Y36301D01*
X30688Y36317D01*
X30693Y36336D01*
X30697Y36357D01*
X30703Y36380D01*
X30783Y36709D01*
X30852D01*
X30711Y36197D01*
D02*
G37*
G36*
X33048Y36197D02*
X32971D01*
X32911Y36353D01*
X32697D01*
X32641Y36197D01*
X32569Y36197D01*
X32765Y36709D01*
X32839D01*
X33048Y36197D01*
D02*
G37*
G36*
X32319Y36708D02*
X32334Y36708D01*
X32349Y36706D01*
X32364Y36704D01*
X32376Y36702D01*
X32377D01*
X32378Y36701D01*
X32381D01*
X32384Y36700D01*
X32392Y36697D01*
X32402Y36694D01*
X32414Y36689D01*
X32427Y36682D01*
X32439Y36674D01*
X32451Y36665D01*
X32452Y36664D01*
X32452Y36663D01*
X32455Y36661D01*
X32458Y36659D01*
X32465Y36652D01*
X32474Y36641D01*
X32483Y36629D01*
X32494Y36614D01*
X32503Y36597D01*
X32512Y36578D01*
Y36577D01*
X32512Y36575D01*
X32514Y36572D01*
X32515Y36568D01*
X32517Y36563D01*
X32518Y36557D01*
X32520Y36550D01*
X32522Y36542D01*
X32524Y36534D01*
X32526Y36524D01*
X32529Y36504D01*
X32532Y36481D01*
X32532Y36455D01*
Y36455D01*
Y36453D01*
Y36449D01*
Y36446D01*
X32532Y36441D01*
Y36435D01*
X32531Y36421D01*
X32529Y36404D01*
X32526Y36387D01*
X32523Y36370D01*
X32518Y36352D01*
Y36351D01*
X32518Y36350D01*
X32517Y36347D01*
X32516Y36344D01*
X32513Y36336D01*
X32509Y36326D01*
X32504Y36314D01*
X32498Y36302D01*
X32491Y36290D01*
X32483Y36278D01*
X32483Y36276D01*
X32480Y36273D01*
X32475Y36267D01*
X32469Y36261D01*
X32463Y36253D01*
X32455Y36246D01*
X32446Y36238D01*
X32437Y36231D01*
X32435Y36230D01*
X32432Y36228D01*
X32427Y36225D01*
X32420Y36222D01*
X32411Y36217D01*
X32401Y36213D01*
X32389Y36209D01*
X32375Y36205D01*
X32374D01*
X32372Y36205D01*
X32370Y36204D01*
X32362Y36203D01*
X32352Y36202D01*
X32340Y36200D01*
X32326Y36199D01*
X32310Y36198D01*
X32293Y36197D01*
X32109D01*
Y36709D01*
X32306D01*
X32319Y36708D01*
D02*
G37*
G36*
X29984D02*
X29996Y36708D01*
X30010Y36707D01*
X30022Y36706D01*
X30033Y36704D01*
X30035D01*
X30040Y36703D01*
X30047Y36701D01*
X30056Y36699D01*
X30065Y36695D01*
X30076Y36691D01*
X30087Y36686D01*
X30096Y36680D01*
X30098Y36679D01*
X30101Y36677D01*
X30105Y36672D01*
X30111Y36667D01*
X30118Y36660D01*
X30124Y36652D01*
X30132Y36642D01*
X30138Y36631D01*
X30138Y36629D01*
X30140Y36626D01*
X30143Y36619D01*
X30146Y36610D01*
X30148Y36600D01*
X30151Y36588D01*
X30152Y36575D01*
X30153Y36560D01*
Y36560D01*
Y36558D01*
Y36555D01*
X30152Y36549D01*
X30152Y36544D01*
X30151Y36538D01*
X30150Y36530D01*
X30148Y36522D01*
X30143Y36505D01*
X30140Y36496D01*
X30135Y36486D01*
X30130Y36477D01*
X30125Y36468D01*
X30118Y36459D01*
X30111Y36450D01*
X30110Y36449D01*
X30109Y36448D01*
X30107Y36446D01*
X30103Y36444D01*
X30098Y36440D01*
X30093Y36436D01*
X30085Y36432D01*
X30077Y36428D01*
X30067Y36424D01*
X30056Y36419D01*
X30044Y36415D01*
X30030Y36412D01*
X30016Y36410D01*
X29999Y36407D01*
X29981Y36406D01*
X29962Y36405D01*
X29831D01*
Y36197D01*
X29763D01*
Y36709D01*
X29973D01*
X29984Y36708D01*
D02*
G37*
G36*
X31706Y36188D02*
X31655D01*
X31804Y36718D01*
X31855D01*
X31706Y36188D01*
D02*
G37*
G36*
X50419Y14340D02*
X50390Y14315D01*
Y14314D01*
Y14312D01*
Y14308D01*
Y14303D01*
Y14297D01*
Y14290D01*
Y14280D01*
Y14271D01*
Y14261D01*
Y14250D01*
Y14225D01*
Y14197D01*
Y14168D01*
X50391Y14138D01*
Y14107D01*
X50392Y14077D01*
X50393Y14047D01*
X50394Y14019D01*
X50396Y13994D01*
X50398Y13970D01*
X50398Y13959D01*
X50399Y13950D01*
Y13949D01*
X50400Y13945D01*
Y13941D01*
X50402Y13934D01*
X50403Y13926D01*
X50405Y13917D01*
X50407Y13907D01*
X50409Y13896D01*
X50414Y13872D01*
X50422Y13849D01*
X50430Y13826D01*
X50435Y13816D01*
X50439Y13807D01*
Y13806D01*
X50440Y13805D01*
X50444Y13799D01*
X50450Y13790D01*
X50458Y13779D01*
X50468Y13767D01*
X50479Y13754D01*
X50492Y13740D01*
X50506Y13728D01*
X50541Y13882D01*
X50555Y13878D01*
Y13877D01*
Y13874D01*
X50554Y13869D01*
X50553Y13862D01*
Y13855D01*
X50552Y13846D01*
X50551Y13835D01*
X50550Y13824D01*
X50548Y13801D01*
X50547Y13777D01*
Y13754D01*
Y13744D01*
Y13734D01*
Y13733D01*
Y13732D01*
Y13729D01*
X50548Y13725D01*
X50549Y13716D01*
X50550Y13705D01*
X50552Y13693D01*
X50555Y13680D01*
X50558Y13667D01*
X50561Y13656D01*
Y13654D01*
X50562Y13650D01*
X50560Y13647D01*
X50558Y13646D01*
X50555Y13645D01*
X50552D01*
X50548Y13646D01*
X50543Y13648D01*
X50534Y13650D01*
X50524Y13655D01*
X50512Y13661D01*
X50497Y13668D01*
X50496D01*
X50495Y13669D01*
X50489Y13673D01*
X50480Y13679D01*
X50469Y13689D01*
X50462Y13695D01*
X50455Y13702D01*
X50448Y13711D01*
X50439Y13720D01*
X50431Y13730D01*
X50423Y13741D01*
X50413Y13754D01*
X50404Y13768D01*
X50403Y13769D01*
X50402Y13772D01*
X50399Y13776D01*
X50397Y13783D01*
X50393Y13790D01*
X50388Y13799D01*
X50384Y13810D01*
X50379Y13823D01*
X50374Y13837D01*
X50370Y13853D01*
X50364Y13871D01*
X50361Y13889D01*
X50357Y13908D01*
X50353Y13930D01*
X50350Y13952D01*
X50349Y13976D01*
Y13978D01*
Y13982D01*
X50348Y13990D01*
Y14000D01*
X50347Y14013D01*
Y14029D01*
X50346Y14047D01*
X50345Y14069D01*
X50344Y14093D01*
Y14119D01*
X50343Y14148D01*
X50342Y14180D01*
Y14214D01*
X50341Y14250D01*
Y14289D01*
Y14329D01*
X49930D01*
Y14328D01*
Y14326D01*
Y14322D01*
Y14316D01*
Y14310D01*
Y14303D01*
Y14293D01*
Y14283D01*
Y14272D01*
Y14260D01*
Y14233D01*
X49929Y14204D01*
Y14175D01*
X49928Y14112D01*
X49927Y14081D01*
Y14052D01*
X49926Y14024D01*
X49925Y14000D01*
X49924Y13989D01*
X49923Y13979D01*
Y13970D01*
X49922Y13962D01*
Y13961D01*
Y13958D01*
X49921Y13955D01*
X49920Y13949D01*
X49919Y13942D01*
X49918Y13933D01*
X49917Y13924D01*
X49915Y13914D01*
X49913Y13902D01*
X49910Y13890D01*
X49904Y13863D01*
X49895Y13834D01*
X49885Y13805D01*
Y13804D01*
X49883Y13801D01*
X49881Y13797D01*
X49879Y13791D01*
X49875Y13784D01*
X49871Y13774D01*
X49865Y13764D01*
X49858Y13752D01*
X49851Y13740D01*
X49842Y13726D01*
X49831Y13711D01*
X49820Y13696D01*
X49807Y13680D01*
X49794Y13662D01*
X49778Y13645D01*
X49761Y13627D01*
X49751Y13635D01*
X49752Y13636D01*
X49754Y13638D01*
X49757Y13644D01*
X49763Y13650D01*
X49769Y13658D01*
X49775Y13668D01*
X49782Y13678D01*
X49791Y13690D01*
X49799Y13703D01*
X49806Y13717D01*
X49823Y13748D01*
X49837Y13779D01*
X49843Y13795D01*
X49848Y13811D01*
Y13812D01*
X49849Y13815D01*
X49851Y13820D01*
X49852Y13826D01*
X49854Y13834D01*
X49856Y13844D01*
X49858Y13855D01*
X49861Y13867D01*
X49864Y13879D01*
X49866Y13893D01*
X49871Y13923D01*
X49875Y13955D01*
X49877Y13988D01*
Y13989D01*
Y13992D01*
Y13997D01*
X49878Y14004D01*
Y14011D01*
Y14021D01*
X49879Y14031D01*
Y14044D01*
Y14056D01*
X49880Y14070D01*
Y14101D01*
X49880Y14132D01*
Y14165D01*
Y14166D01*
Y14169D01*
Y14176D01*
Y14184D01*
Y14194D01*
Y14205D01*
Y14219D01*
Y14234D01*
X49880Y14251D01*
Y14267D01*
Y14286D01*
X49879Y14304D01*
X49878Y14344D01*
X49877Y14385D01*
X49936Y14350D01*
X50335D01*
X50366Y14389D01*
X50419Y14340D01*
D02*
G37*
G36*
X51348Y14084D02*
X51321Y14063D01*
Y13882D01*
Y13881D01*
Y13880D01*
Y13877D01*
X51320Y13873D01*
X51317Y13864D01*
X51312Y13852D01*
X51309Y13846D01*
X51304Y13839D01*
X51299Y13833D01*
X51291Y13827D01*
X51284Y13821D01*
X51274Y13814D01*
X51263Y13809D01*
X51251Y13804D01*
Y13806D01*
X51249Y13810D01*
X51247Y13818D01*
X51244Y13822D01*
X51240Y13826D01*
X51235Y13832D01*
X51229Y13836D01*
X51222Y13842D01*
X51212Y13846D01*
X51202Y13852D01*
X51190Y13858D01*
X51175Y13862D01*
X51160Y13867D01*
Y13882D01*
X51163D01*
X51167Y13881D01*
X51172Y13880D01*
X51178Y13879D01*
X51185Y13878D01*
X51200Y13877D01*
X51216Y13875D01*
X51232Y13874D01*
X51239Y13873D01*
X51250D01*
X51254Y13874D01*
X51255D01*
X51257Y13875D01*
X51260Y13877D01*
X51263Y13880D01*
X51266Y13884D01*
X51269Y13889D01*
X51271Y13896D01*
X51272Y13906D01*
Y14070D01*
X51090D01*
Y13742D01*
Y13741D01*
Y13740D01*
X51091Y13736D01*
X51093Y13728D01*
X51096Y13721D01*
X51101Y13712D01*
X51110Y13706D01*
X51114Y13704D01*
X51121Y13702D01*
X51127Y13701D01*
X51350D01*
X51354Y13702D01*
X51360Y13703D01*
X51367Y13706D01*
X51373Y13711D01*
X51380Y13717D01*
X51385Y13726D01*
X51387Y13739D01*
Y13741D01*
X51388Y13747D01*
Y13750D01*
Y13756D01*
X51389Y13761D01*
Y13768D01*
X51390Y13776D01*
Y13785D01*
X51391Y13795D01*
X51392Y13805D01*
Y13817D01*
X51393Y13830D01*
Y13843D01*
X51394Y13858D01*
X51411D01*
Y13857D01*
Y13855D01*
Y13851D01*
Y13847D01*
Y13842D01*
X51412Y13835D01*
Y13822D01*
X51413Y13805D01*
X51415Y13788D01*
X51417Y13772D01*
X51420Y13756D01*
X51421Y13754D01*
X51422Y13750D01*
X51424Y13744D01*
X51428Y13736D01*
X51434Y13729D01*
X51441Y13723D01*
X51449Y13717D01*
X51460Y13714D01*
Y13713D01*
X51459Y13711D01*
X51458Y13709D01*
X51456Y13706D01*
X51448Y13697D01*
X51444Y13692D01*
X51438Y13686D01*
X51431Y13681D01*
X51423Y13676D01*
X51414Y13672D01*
X51405Y13667D01*
X51394Y13664D01*
X51381Y13662D01*
X51367Y13660D01*
X51352Y13659D01*
X51095D01*
X51092Y13660D01*
X51083Y13662D01*
X51073Y13665D01*
X51062Y13672D01*
X51057Y13676D01*
X51052Y13681D01*
X51048Y13687D01*
X51045Y13694D01*
X51042Y13702D01*
X51041Y13711D01*
Y13955D01*
Y13956D01*
Y13958D01*
Y13961D01*
Y13966D01*
Y13972D01*
Y13981D01*
Y13989D01*
Y13999D01*
X51040Y14010D01*
Y14023D01*
Y14037D01*
X51040Y14052D01*
Y14068D01*
X51039Y14085D01*
Y14103D01*
X51038Y14122D01*
X51090Y14091D01*
X51265D01*
X51293Y14126D01*
X51348Y14084D01*
D02*
G37*
G36*
X51220Y14395D02*
X51181Y14371D01*
Y14370D01*
X51182Y14369D01*
X51184Y14366D01*
X51186Y14363D01*
X51191Y14353D01*
X51199Y14341D01*
X51209Y14328D01*
X51221Y14311D01*
X51236Y14292D01*
X51252Y14273D01*
X51271Y14253D01*
X51292Y14233D01*
X51315Y14213D01*
X51340Y14194D01*
X51368Y14176D01*
X51397Y14159D01*
X51430Y14145D01*
X51464Y14133D01*
Y14119D01*
X51461D01*
X51459Y14118D01*
X51455D01*
X51446Y14117D01*
X51435Y14113D01*
X51423Y14108D01*
X51412Y14102D01*
X51404Y14093D01*
X51400Y14088D01*
X51397Y14081D01*
X51396Y14082D01*
X51391Y14086D01*
X51384Y14091D01*
X51373Y14098D01*
X51360Y14108D01*
X51346Y14120D01*
X51330Y14134D01*
X51313Y14150D01*
X51295Y14168D01*
X51276Y14189D01*
X51258Y14211D01*
X51238Y14236D01*
X51220Y14263D01*
X51202Y14291D01*
X51186Y14323D01*
X51171Y14356D01*
Y14355D01*
X51170Y14354D01*
X51169Y14352D01*
X51167Y14348D01*
X51162Y14338D01*
X51155Y14325D01*
X51146Y14309D01*
X51136Y14291D01*
X51123Y14270D01*
X51109Y14248D01*
X51093Y14224D01*
X51076Y14200D01*
X51056Y14174D01*
X51035Y14149D01*
X51013Y14124D01*
X50989Y14099D01*
X50964Y14075D01*
X50937Y14053D01*
X50929Y14064D01*
X50931Y14066D01*
X50936Y14071D01*
X50943Y14080D01*
X50953Y14092D01*
X50966Y14107D01*
X50979Y14125D01*
X50994Y14146D01*
X51011Y14170D01*
X51027Y14196D01*
X51045Y14226D01*
X51063Y14256D01*
X51080Y14291D01*
X51097Y14326D01*
X51113Y14364D01*
X51126Y14403D01*
X51139Y14444D01*
X51220Y14395D01*
D02*
G37*
G36*
X50300Y14204D02*
X50268Y14189D01*
Y14188D01*
X50266Y14186D01*
X50264Y14181D01*
X50262Y14177D01*
X50258Y14170D01*
X50253Y14162D01*
X50249Y14153D01*
X50242Y14143D01*
X50237Y14130D01*
X50229Y14118D01*
X50222Y14105D01*
X50213Y14091D01*
X50197Y14059D01*
X50177Y14025D01*
X50178Y14024D01*
X50180Y14021D01*
X50184Y14018D01*
X50189Y14012D01*
X50195Y14007D01*
X50201Y13999D01*
X50217Y13982D01*
X50233Y13964D01*
X50250Y13945D01*
X50263Y13927D01*
X50270Y13919D01*
X50275Y13911D01*
X50275Y13909D01*
X50278Y13905D01*
X50283Y13898D01*
X50287Y13890D01*
X50291Y13880D01*
X50296Y13869D01*
X50299Y13858D01*
X50300Y13846D01*
Y13846D01*
Y13844D01*
Y13841D01*
X50299Y13837D01*
X50298Y13832D01*
X50296Y13826D01*
X50290Y13811D01*
Y13810D01*
X50289Y13809D01*
X50287Y13805D01*
X50286Y13801D01*
X50283Y13797D01*
X50280Y13794D01*
X50278Y13792D01*
X50275Y13791D01*
X50275D01*
X50274Y13792D01*
X50272Y13793D01*
X50269Y13796D01*
X50265Y13799D01*
X50262Y13806D01*
X50258Y13814D01*
X50254Y13826D01*
Y13827D01*
X50253Y13829D01*
X50251Y13832D01*
X50250Y13836D01*
X50247Y13842D01*
X50243Y13848D01*
X50238Y13857D01*
X50234Y13867D01*
X50227Y13878D01*
X50220Y13890D01*
X50212Y13904D01*
X50202Y13919D01*
X50191Y13935D01*
X50180Y13953D01*
X50167Y13972D01*
X50152Y13994D01*
X50152Y13992D01*
X50149Y13987D01*
X50143Y13980D01*
X50136Y13970D01*
X50127Y13958D01*
X50115Y13943D01*
X50103Y13927D01*
X50089Y13909D01*
X50072Y13891D01*
X50053Y13871D01*
X50034Y13851D01*
X50013Y13830D01*
X49990Y13809D01*
X49966Y13789D01*
X49940Y13769D01*
X49912Y13749D01*
X49905Y13760D01*
X49906Y13760D01*
X49910Y13764D01*
X49917Y13771D01*
X49927Y13779D01*
X49938Y13789D01*
X49951Y13802D01*
X49966Y13817D01*
X49981Y13834D01*
X49998Y13852D01*
X50016Y13872D01*
X50035Y13894D01*
X50053Y13917D01*
X50073Y13942D01*
X50091Y13969D01*
X50111Y13996D01*
X50128Y14025D01*
X50127Y14026D01*
X50127Y14028D01*
X50124Y14031D01*
X50120Y14035D01*
X50115Y14041D01*
X50110Y14047D01*
X50103Y14056D01*
X50095Y14066D01*
X50086Y14076D01*
X50075Y14088D01*
X50064Y14102D01*
X50051Y14117D01*
X50036Y14132D01*
X50020Y14150D01*
X50004Y14168D01*
X49985Y14189D01*
X49995Y14196D01*
X49996Y14195D01*
X49999Y14193D01*
X50003Y14191D01*
X50008Y14186D01*
X50015Y14180D01*
X50023Y14173D01*
X50032Y14166D01*
X50041Y14157D01*
X50065Y14137D01*
X50090Y14114D01*
X50117Y14088D01*
X50146Y14060D01*
Y14061D01*
X50147Y14062D01*
X50149Y14065D01*
X50151Y14069D01*
X50156Y14079D01*
X50163Y14091D01*
X50170Y14106D01*
X50178Y14123D01*
X50186Y14141D01*
X50194Y14159D01*
Y14160D01*
X50195Y14161D01*
X50196Y14164D01*
X50198Y14167D01*
X50201Y14178D01*
X50207Y14191D01*
X50213Y14205D01*
X50218Y14221D01*
X50230Y14255D01*
X50300Y14204D01*
D02*
G37*
G36*
X50874Y14402D02*
X50842Y14377D01*
Y14217D01*
X50884D01*
X50926Y14258D01*
X50989Y14196D01*
X50842D01*
Y14105D01*
X50843D01*
X50846Y14103D01*
X50850Y14101D01*
X50855Y14098D01*
X50861Y14095D01*
X50867Y14092D01*
X50883Y14082D01*
X50900Y14073D01*
X50916Y14063D01*
X50922Y14057D01*
X50929Y14053D01*
X50934Y14048D01*
X50938Y14044D01*
X50939Y14043D01*
X50941Y14040D01*
X50944Y14035D01*
X50948Y14030D01*
X50951Y14023D01*
X50954Y14016D01*
X50956Y14008D01*
X50957Y14000D01*
Y13999D01*
Y13997D01*
Y13994D01*
X50956Y13989D01*
X50953Y13977D01*
X50948Y13963D01*
Y13962D01*
X50947Y13960D01*
X50943Y13954D01*
X50940Y13947D01*
X50938Y13945D01*
X50937Y13945D01*
X50936D01*
X50935Y13945D01*
X50932Y13946D01*
X50929Y13949D01*
X50926Y13953D01*
X50922Y13959D01*
X50916Y13968D01*
X50912Y13979D01*
Y13980D01*
X50911Y13982D01*
X50910Y13984D01*
X50908Y13988D01*
X50905Y13993D01*
X50903Y13998D01*
X50895Y14012D01*
X50886Y14029D01*
X50874Y14047D01*
X50859Y14067D01*
X50842Y14088D01*
Y14087D01*
Y14083D01*
Y14079D01*
Y14071D01*
Y14063D01*
Y14052D01*
Y14041D01*
Y14027D01*
Y14013D01*
Y13997D01*
Y13981D01*
Y13964D01*
Y13928D01*
Y13890D01*
X50843Y13851D01*
Y13813D01*
Y13776D01*
Y13742D01*
Y13726D01*
X50844Y13711D01*
Y13699D01*
Y13686D01*
Y13675D01*
X50845Y13666D01*
Y13658D01*
Y13652D01*
X50790Y13624D01*
Y13625D01*
Y13625D01*
Y13631D01*
Y13640D01*
X50791Y13652D01*
Y13669D01*
Y13688D01*
X50792Y13711D01*
Y13736D01*
Y13765D01*
X50793Y13797D01*
Y13832D01*
Y13869D01*
X50793Y13909D01*
Y13952D01*
Y13997D01*
Y14045D01*
X50793Y14044D01*
X50791Y14039D01*
X50787Y14031D01*
X50782Y14021D01*
X50777Y14008D01*
X50769Y13994D01*
X50762Y13979D01*
X50753Y13961D01*
X50743Y13943D01*
X50732Y13923D01*
X50709Y13884D01*
X50683Y13845D01*
X50670Y13826D01*
X50657Y13809D01*
X50646Y13815D01*
Y13816D01*
X50647Y13817D01*
X50649Y13820D01*
X50651Y13823D01*
X50656Y13833D01*
X50663Y13846D01*
X50671Y13862D01*
X50681Y13882D01*
X50691Y13904D01*
X50702Y13928D01*
X50714Y13956D01*
X50725Y13985D01*
X50737Y14017D01*
X50748Y14050D01*
X50759Y14084D01*
X50769Y14120D01*
X50779Y14158D01*
X50786Y14196D01*
X50706D01*
X50674Y14189D01*
X50646Y14217D01*
X50793D01*
Y14218D01*
Y14223D01*
Y14230D01*
Y14241D01*
Y14253D01*
Y14266D01*
Y14282D01*
Y14299D01*
X50793Y14317D01*
Y14336D01*
X50792Y14375D01*
X50791Y14413D01*
Y14431D01*
X50790Y14448D01*
X50874Y14402D01*
D02*
G37*
G36*
X49131Y14413D02*
X49103Y14388D01*
Y14262D01*
X49146D01*
X49184Y14301D01*
X49237Y14241D01*
X49103D01*
Y14118D01*
X49104D01*
X49105Y14119D01*
X49108Y14120D01*
X49112Y14121D01*
X49116Y14122D01*
X49121Y14124D01*
X49134Y14129D01*
X49152Y14134D01*
X49172Y14141D01*
X49196Y14148D01*
X49223Y14157D01*
X49226Y14143D01*
X49225D01*
X49222Y14142D01*
X49218Y14140D01*
X49213Y14138D01*
X49206Y14135D01*
X49198Y14131D01*
X49180Y14123D01*
X49161Y14114D01*
X49140Y14105D01*
X49121Y14095D01*
X49103Y14087D01*
Y13941D01*
Y13940D01*
Y13938D01*
Y13934D01*
X49103Y13930D01*
Y13924D01*
X49101Y13919D01*
X49096Y13904D01*
X49092Y13896D01*
X49088Y13888D01*
X49082Y13881D01*
X49076Y13873D01*
X49067Y13866D01*
X49058Y13859D01*
X49047Y13852D01*
X49034Y13846D01*
Y13847D01*
Y13848D01*
X49032Y13854D01*
X49029Y13862D01*
X49026Y13867D01*
X49022Y13872D01*
X49017Y13878D01*
X49012Y13884D01*
X49005Y13889D01*
X48997Y13895D01*
X48988Y13900D01*
X48977Y13906D01*
X48964Y13911D01*
X48950Y13916D01*
Y13930D01*
X48953D01*
X48955Y13929D01*
X48960D01*
X48971Y13928D01*
X48984Y13927D01*
X48998Y13925D01*
X49013Y13924D01*
X49025Y13923D01*
X49039D01*
X49042Y13924D01*
X49047Y13926D01*
X49051Y13929D01*
X49054Y13933D01*
X49057Y13939D01*
X49058Y13947D01*
Y14069D01*
X49056Y14069D01*
X49053Y14068D01*
X49046Y14065D01*
X49038Y14061D01*
X49029Y14057D01*
X49017Y14053D01*
X48992Y14042D01*
X48967Y14030D01*
X48955Y14023D01*
X48943Y14017D01*
X48932Y14010D01*
X48923Y14004D01*
X48917Y13998D01*
X48911Y13993D01*
X48869Y14056D01*
X48872D01*
X48875Y14056D01*
X48880Y14057D01*
X48886Y14058D01*
X48894Y14060D01*
X48903Y14062D01*
X48913Y14065D01*
X48925Y14068D01*
X48939Y14070D01*
X48955Y14075D01*
X48971Y14080D01*
X48991Y14084D01*
X49011Y14091D01*
X49034Y14097D01*
X49058Y14105D01*
Y14241D01*
X49005D01*
X48996Y14241D01*
X48985D01*
X48972Y14239D01*
X48958Y14237D01*
X48943Y14234D01*
X48929Y14230D01*
X48897Y14262D01*
X49058D01*
Y14264D01*
Y14267D01*
Y14275D01*
Y14284D01*
Y14295D01*
Y14307D01*
Y14321D01*
Y14336D01*
X49057Y14366D01*
X49056Y14396D01*
Y14410D01*
X49055Y14423D01*
Y14435D01*
X49054Y14444D01*
X49131Y14413D01*
D02*
G37*
G36*
X49404Y14402D02*
X49376Y14377D01*
Y14377D01*
Y14374D01*
Y14368D01*
X49375Y14363D01*
Y14355D01*
Y14347D01*
X49375Y14328D01*
X49374Y14309D01*
Y14291D01*
X49373Y14282D01*
Y14276D01*
Y14270D01*
Y14266D01*
X49477Y14269D01*
X49498Y14304D01*
X49551Y14263D01*
X49523Y14241D01*
Y14241D01*
Y14239D01*
X49523Y14234D01*
X49522Y14229D01*
X49521Y14223D01*
X49520Y14216D01*
X49518Y14199D01*
X49516Y14180D01*
X49514Y14161D01*
X49513Y14142D01*
X49512Y14123D01*
Y14122D01*
Y14120D01*
Y14118D01*
Y14113D01*
X49513Y14107D01*
Y14101D01*
X49515Y14086D01*
X49517Y14069D01*
X49521Y14048D01*
X49525Y14028D01*
X49532Y14007D01*
Y14006D01*
X49533Y14004D01*
X49534Y14001D01*
X49535Y13997D01*
X49540Y13988D01*
X49547Y13976D01*
X49555Y13964D01*
X49566Y13951D01*
X49578Y13940D01*
X49593Y13931D01*
Y13932D01*
X49594Y13934D01*
X49595Y13939D01*
X49596Y13945D01*
X49597Y13952D01*
X49599Y13961D01*
X49601Y13970D01*
X49603Y13981D01*
X49609Y14002D01*
X49613Y14025D01*
X49619Y14046D01*
X49624Y14067D01*
X49638D01*
Y14066D01*
Y14064D01*
X49637Y14060D01*
Y14056D01*
X49636Y14050D01*
Y14044D01*
X49635Y14028D01*
X49634Y14010D01*
Y13992D01*
X49633Y13974D01*
Y13957D01*
Y13956D01*
Y13955D01*
X49634Y13949D01*
X49634Y13941D01*
X49635Y13931D01*
X49637Y13920D01*
X49640Y13907D01*
X49645Y13894D01*
X49649Y13882D01*
Y13881D01*
X49650Y13878D01*
X49651Y13875D01*
X49652Y13871D01*
X49651Y13867D01*
X49649Y13864D01*
X49645Y13861D01*
X49638Y13860D01*
X49636D01*
X49634Y13861D01*
X49630Y13862D01*
X49623Y13864D01*
X49614Y13866D01*
X49602Y13870D01*
X49587Y13874D01*
X49586D01*
X49585Y13875D01*
X49580Y13877D01*
X49572Y13882D01*
X49561Y13889D01*
X49549Y13898D01*
X49536Y13911D01*
X49530Y13919D01*
X49523Y13927D01*
X49517Y13937D01*
X49510Y13947D01*
Y13948D01*
X49509Y13950D01*
X49508Y13953D01*
X49505Y13958D01*
X49503Y13963D01*
X49499Y13969D01*
X49494Y13983D01*
X49486Y14000D01*
X49481Y14018D01*
X49476Y14036D01*
X49473Y14055D01*
Y14056D01*
Y14056D01*
Y14062D01*
X49473Y14071D01*
Y14081D01*
X49472Y14093D01*
Y14105D01*
X49471Y14116D01*
Y14126D01*
Y14127D01*
Y14129D01*
Y14131D01*
Y14136D01*
Y14141D01*
Y14147D01*
X49472Y14163D01*
X49473Y14180D01*
X49473Y14202D01*
X49475Y14225D01*
X49477Y14249D01*
X49373Y14245D01*
Y14244D01*
Y14241D01*
Y14235D01*
X49372Y14228D01*
Y14218D01*
X49371Y14207D01*
X49370Y14196D01*
X49369Y14183D01*
X49366Y14155D01*
X49362Y14128D01*
X49357Y14100D01*
X49354Y14086D01*
X49351Y14074D01*
X49352Y14073D01*
X49354Y14072D01*
X49358Y14069D01*
X49362Y14066D01*
X49374Y14056D01*
X49387Y14044D01*
X49401Y14032D01*
X49413Y14019D01*
X49419Y14014D01*
X49423Y14008D01*
X49426Y14003D01*
X49428Y13998D01*
Y13997D01*
X49429Y13994D01*
X49431Y13991D01*
X49432Y13986D01*
X49435Y13976D01*
X49436Y13972D01*
Y13969D01*
Y13967D01*
X49435Y13961D01*
X49433Y13953D01*
X49428Y13941D01*
Y13940D01*
X49427Y13938D01*
X49424Y13933D01*
X49420Y13926D01*
X49417Y13924D01*
X49414Y13923D01*
X49413Y13924D01*
X49412Y13925D01*
X49410Y13927D01*
X49407Y13930D01*
X49403Y13935D01*
X49399Y13942D01*
X49394Y13951D01*
Y13952D01*
X49393Y13953D01*
X49390Y13958D01*
X49386Y13967D01*
X49378Y13978D01*
X49370Y13991D01*
X49360Y14007D01*
X49349Y14022D01*
X49335Y14039D01*
X49334Y14037D01*
X49331Y14033D01*
X49327Y14027D01*
X49322Y14019D01*
X49314Y14008D01*
X49306Y13996D01*
X49296Y13983D01*
X49285Y13969D01*
X49272Y13954D01*
X49259Y13939D01*
X49244Y13924D01*
X49228Y13909D01*
X49212Y13895D01*
X49194Y13881D01*
X49176Y13868D01*
X49156Y13857D01*
X49149Y13868D01*
X49150Y13869D01*
X49153Y13871D01*
X49159Y13876D01*
X49166Y13883D01*
X49175Y13891D01*
X49185Y13900D01*
X49196Y13911D01*
X49207Y13924D01*
X49219Y13938D01*
X49232Y13953D01*
X49245Y13970D01*
X49257Y13987D01*
X49269Y14006D01*
X49280Y14025D01*
X49290Y14045D01*
X49300Y14067D01*
X49298Y14069D01*
X49294Y14072D01*
X49288Y14078D01*
X49279Y14086D01*
X49270Y14095D01*
X49258Y14105D01*
X49246Y14116D01*
X49233Y14126D01*
X49240Y14137D01*
X49241D01*
X49242Y14136D01*
X49249Y14133D01*
X49257Y14128D01*
X49267Y14122D01*
X49278Y14116D01*
X49290Y14108D01*
X49301Y14101D01*
X49310Y14094D01*
Y14095D01*
X49311Y14097D01*
Y14102D01*
X49312Y14106D01*
X49313Y14113D01*
X49314Y14120D01*
X49315Y14130D01*
X49317Y14139D01*
X49320Y14161D01*
X49323Y14186D01*
X49325Y14213D01*
X49327Y14241D01*
X49272Y14238D01*
X49257Y14228D01*
X49229Y14259D01*
X49327Y14263D01*
Y14265D01*
Y14268D01*
Y14274D01*
Y14282D01*
Y14292D01*
Y14303D01*
Y14316D01*
Y14330D01*
X49326Y14358D01*
X49325Y14388D01*
Y14402D01*
X49325Y14414D01*
Y14426D01*
X49324Y14437D01*
X49404Y14402D01*
D02*
G37*
G36*
X49311Y13834D02*
X49313Y13833D01*
X49316Y13830D01*
X49322Y13826D01*
X49334Y13815D01*
X49348Y13803D01*
X49362Y13789D01*
X49375Y13775D01*
X49382Y13770D01*
X49387Y13763D01*
X49390Y13758D01*
X49393Y13753D01*
X49394Y13752D01*
X49395Y13749D01*
X49397Y13746D01*
X49399Y13741D01*
X49402Y13730D01*
X49404Y13725D01*
Y13721D01*
Y13720D01*
Y13717D01*
X49403Y13713D01*
X49402Y13709D01*
X49400Y13703D01*
X49398Y13697D01*
X49394Y13690D01*
X49388Y13684D01*
X49387Y13683D01*
X49386Y13681D01*
X49380Y13675D01*
X49374Y13669D01*
X49371Y13667D01*
X49369Y13666D01*
X49368D01*
X49367Y13667D01*
X49364Y13668D01*
X49362Y13672D01*
X49358Y13676D01*
X49354Y13684D01*
X49351Y13694D01*
X49350Y13700D01*
X49349Y13708D01*
Y13709D01*
X49348Y13711D01*
Y13714D01*
X49347Y13719D01*
X49345Y13724D01*
X49343Y13731D01*
X49338Y13747D01*
X49332Y13764D01*
X49324Y13785D01*
X49313Y13807D01*
X49300Y13829D01*
X49310Y13835D01*
X49311Y13834D01*
D02*
G37*
G36*
X49136Y13828D02*
X49138Y13826D01*
X49141Y13823D01*
X49145Y13819D01*
X49151Y13813D01*
X49156Y13808D01*
X49169Y13793D01*
X49183Y13778D01*
X49195Y13761D01*
X49201Y13753D01*
X49205Y13746D01*
X49209Y13738D01*
X49212Y13732D01*
X49213Y13730D01*
X49214Y13726D01*
X49214Y13720D01*
Y13712D01*
Y13704D01*
X49212Y13695D01*
X49208Y13686D01*
X49202Y13678D01*
X49201Y13677D01*
X49198Y13675D01*
X49194Y13672D01*
X49190Y13669D01*
X49181Y13662D01*
X49177Y13660D01*
X49174Y13659D01*
X49173D01*
X49172Y13660D01*
X49169Y13661D01*
X49166Y13664D01*
X49164Y13669D01*
X49161Y13676D01*
X49158Y13686D01*
X49157Y13693D01*
X49156Y13700D01*
Y13701D01*
Y13703D01*
X49155Y13706D01*
Y13711D01*
X49154Y13716D01*
X49153Y13723D01*
X49153Y13730D01*
X49151Y13738D01*
X49146Y13757D01*
X49140Y13778D01*
X49131Y13801D01*
X49121Y13825D01*
X49135Y13829D01*
X49136Y13828D01*
D02*
G37*
G36*
X49003Y13834D02*
Y13831D01*
Y13824D01*
Y13817D01*
X49002Y13808D01*
Y13797D01*
X49001Y13785D01*
X49000Y13773D01*
X48997Y13748D01*
X48993Y13724D01*
X48992Y13713D01*
X48989Y13703D01*
X48985Y13694D01*
X48981Y13686D01*
X48980Y13685D01*
X48978Y13681D01*
X48973Y13676D01*
X48968Y13671D01*
X48959Y13665D01*
X48951Y13661D01*
X48942Y13659D01*
X48936D01*
X48931Y13660D01*
X48930D01*
X48926Y13661D01*
X48921Y13662D01*
X48916Y13664D01*
X48910Y13667D01*
X48906Y13671D01*
X48902Y13675D01*
X48901Y13680D01*
Y13681D01*
Y13682D01*
X48903Y13686D01*
X48906Y13690D01*
X48908Y13695D01*
X48913Y13699D01*
X48918Y13704D01*
X48920Y13706D01*
X48922Y13708D01*
X48925Y13711D01*
X48928Y13715D01*
X48931Y13720D01*
X48936Y13726D01*
X48941Y13734D01*
X48945Y13742D01*
X48951Y13751D01*
X48957Y13762D01*
X48963Y13774D01*
X48969Y13787D01*
X48976Y13802D01*
X48982Y13818D01*
X48989Y13835D01*
X49003D01*
Y13834D01*
D02*
G37*
G36*
X49496Y13842D02*
X49498Y13840D01*
X49503Y13837D01*
X49509Y13834D01*
X49515Y13828D01*
X49523Y13822D01*
X49539Y13810D01*
X49556Y13797D01*
X49572Y13783D01*
X49580Y13775D01*
X49586Y13770D01*
X49591Y13764D01*
X49595Y13759D01*
X49596Y13758D01*
X49597Y13755D01*
X49599Y13750D01*
X49603Y13745D01*
X49608Y13732D01*
X49609Y13724D01*
X49610Y13718D01*
Y13717D01*
Y13714D01*
X49609Y13710D01*
X49609Y13703D01*
X49607Y13697D01*
X49605Y13689D01*
X49601Y13682D01*
X49597Y13674D01*
X49596Y13674D01*
X49595Y13672D01*
X49589Y13665D01*
X49582Y13658D01*
X49578Y13656D01*
X49575Y13655D01*
X49573Y13656D01*
X49572Y13657D01*
X49570Y13660D01*
X49567Y13664D01*
X49563Y13672D01*
X49560Y13681D01*
X49558Y13694D01*
Y13695D01*
X49557Y13697D01*
Y13699D01*
X49555Y13704D01*
X49553Y13710D01*
X49551Y13716D01*
X49548Y13723D01*
X49545Y13733D01*
X49540Y13742D01*
X49535Y13753D01*
X49529Y13765D01*
X49523Y13777D01*
X49515Y13791D01*
X49506Y13805D01*
X49496Y13821D01*
X49485Y13836D01*
X49495Y13843D01*
X49496Y13842D01*
D02*
G37*
%LPC*%
G36*
X25212Y14224D02*
X24996D01*
Y14074D01*
X25212D01*
Y14224D01*
D02*
G37*
G36*
X24947D02*
X24737D01*
Y14074D01*
X24947D01*
Y14224D01*
D02*
G37*
G36*
X25212Y14053D02*
X24996D01*
Y13896D01*
X25212D01*
Y14053D01*
D02*
G37*
G36*
X24947D02*
X24737D01*
Y13896D01*
X24947D01*
Y14053D01*
D02*
G37*
G36*
X26115Y14285D02*
X25923D01*
X25924Y14284D01*
X25925Y14281D01*
X25927Y14275D01*
X25931Y14269D01*
X25935Y14261D01*
X25940Y14252D01*
X25946Y14242D01*
X25952Y14231D01*
X25966Y14207D01*
X25983Y14183D01*
X26001Y14159D01*
X26011Y14148D01*
X26021Y14138D01*
X26022Y14138D01*
X26024Y14141D01*
X26026Y14145D01*
X26031Y14150D01*
X26036Y14157D01*
X26041Y14164D01*
X26048Y14174D01*
X26055Y14184D01*
X26070Y14206D01*
X26086Y14230D01*
X26101Y14257D01*
X26115Y14285D01*
D02*
G37*
G36*
X26136Y13907D02*
X25902D01*
Y13714D01*
X26136D01*
Y13907D01*
D02*
G37*
G36*
X39504Y14222D02*
X39274D01*
Y14119D01*
X39504D01*
Y14222D01*
D02*
G37*
G36*
Y14099D02*
X39274D01*
Y13993D01*
X39504D01*
Y14099D01*
D02*
G37*
G36*
X38546Y14252D02*
X38329D01*
Y14101D01*
X38546D01*
Y14252D01*
D02*
G37*
G36*
X38280D02*
X38070D01*
Y14101D01*
X38280D01*
Y14252D01*
D02*
G37*
G36*
X38546Y14081D02*
X38329D01*
Y13924D01*
X38546D01*
Y14081D01*
D02*
G37*
G36*
X38280D02*
X38070D01*
Y13924D01*
X38280D01*
Y14081D01*
D02*
G37*
G36*
X36507Y14183D02*
X36307D01*
Y13941D01*
X36507D01*
Y14183D01*
D02*
G37*
G36*
X37611Y14001D02*
X37503D01*
Y13865D01*
X37611D01*
Y14001D01*
D02*
G37*
G36*
X41904Y36526D02*
X41900D01*
X41896Y36526D01*
X41888Y36525D01*
X41877Y36522D01*
X41864Y36518D01*
X41851Y36512D01*
X41838Y36503D01*
X41831Y36497D01*
X41826Y36491D01*
Y36490D01*
X41824Y36489D01*
X41823Y36487D01*
X41820Y36484D01*
X41818Y36481D01*
X41816Y36476D01*
X41813Y36470D01*
X41810Y36464D01*
X41807Y36457D01*
X41804Y36449D01*
X41802Y36441D01*
X41800Y36431D01*
X41797Y36421D01*
X41796Y36409D01*
X41795Y36397D01*
X41794Y36384D01*
Y36384D01*
Y36381D01*
Y36378D01*
X41795Y36372D01*
Y36367D01*
X41796Y36360D01*
X41798Y36344D01*
X41802Y36327D01*
X41808Y36309D01*
X41815Y36292D01*
X41820Y36284D01*
X41826Y36277D01*
X41826D01*
X41827Y36276D01*
X41831Y36272D01*
X41838Y36266D01*
X41847Y36260D01*
X41858Y36253D01*
X41871Y36247D01*
X41887Y36244D01*
X41895Y36243D01*
X41904Y36242D01*
X41908D01*
X41912Y36243D01*
X41920Y36244D01*
X41931Y36247D01*
X41943Y36251D01*
X41957Y36257D01*
X41969Y36266D01*
X41976Y36272D01*
X41982Y36278D01*
X41982Y36278D01*
X41983Y36279D01*
X41985Y36281D01*
X41987Y36284D01*
X41989Y36288D01*
X41992Y36293D01*
X41995Y36298D01*
X41998Y36304D01*
X42001Y36312D01*
X42003Y36320D01*
X42006Y36329D01*
X42008Y36338D01*
X42011Y36350D01*
X42012Y36361D01*
X42013Y36373D01*
Y36387D01*
Y36387D01*
Y36389D01*
Y36393D01*
X42013Y36398D01*
Y36404D01*
X42012Y36410D01*
X42010Y36426D01*
X42006Y36442D01*
X42000Y36460D01*
X41992Y36476D01*
X41988Y36484D01*
X41982Y36491D01*
Y36492D01*
X41980Y36492D01*
X41976Y36497D01*
X41969Y36502D01*
X41960Y36509D01*
X41949Y36515D01*
X41936Y36521D01*
X41921Y36525D01*
X41913Y36526D01*
X41904Y36526D01*
D02*
G37*
G36*
X40236Y36661D02*
X40229D01*
X40224Y36660D01*
X40217Y36660D01*
X40211Y36658D01*
X40203Y36657D01*
X40194Y36655D01*
X40175Y36649D01*
X40164Y36645D01*
X40154Y36640D01*
X40143Y36634D01*
X40132Y36628D01*
X40122Y36620D01*
X40112Y36611D01*
X40112Y36611D01*
X40110Y36609D01*
X40108Y36606D01*
X40104Y36602D01*
X40101Y36597D01*
X40096Y36590D01*
X40092Y36582D01*
X40087Y36572D01*
X40082Y36562D01*
X40077Y36549D01*
X40072Y36536D01*
X40069Y36521D01*
X40065Y36505D01*
X40063Y36486D01*
X40061Y36467D01*
X40061Y36446D01*
Y36446D01*
Y36443D01*
Y36438D01*
X40061Y36431D01*
X40062Y36424D01*
X40064Y36415D01*
X40065Y36404D01*
X40067Y36394D01*
X40072Y36370D01*
X40077Y36358D01*
X40081Y36346D01*
X40087Y36334D01*
X40094Y36322D01*
X40101Y36311D01*
X40110Y36301D01*
X40111Y36300D01*
X40112Y36298D01*
X40115Y36295D01*
X40119Y36293D01*
X40124Y36288D01*
X40130Y36284D01*
X40137Y36279D01*
X40144Y36274D01*
X40153Y36269D01*
X40163Y36264D01*
X40173Y36260D01*
X40184Y36256D01*
X40196Y36253D01*
X40208Y36250D01*
X40221Y36248D01*
X40235Y36247D01*
X40239D01*
X40243Y36248D01*
X40248D01*
X40255Y36249D01*
X40262Y36250D01*
X40271Y36252D01*
X40280Y36254D01*
X40290Y36257D01*
X40300Y36261D01*
X40311Y36264D01*
X40321Y36270D01*
X40331Y36276D01*
X40342Y36283D01*
X40352Y36291D01*
X40362Y36301D01*
X40363Y36301D01*
X40364Y36303D01*
X40366Y36307D01*
X40370Y36311D01*
X40374Y36316D01*
X40377Y36323D01*
X40382Y36331D01*
X40387Y36340D01*
X40391Y36350D01*
X40396Y36362D01*
X40400Y36375D01*
X40404Y36388D01*
X40407Y36403D01*
X40409Y36419D01*
X40411Y36436D01*
X40411Y36454D01*
Y36455D01*
Y36457D01*
Y36460D01*
Y36464D01*
X40411Y36469D01*
Y36476D01*
X40410Y36483D01*
X40408Y36491D01*
X40406Y36508D01*
X40402Y36526D01*
X40397Y36545D01*
X40390Y36563D01*
Y36563D01*
X40389Y36565D01*
X40388Y36567D01*
X40386Y36570D01*
X40381Y36579D01*
X40374Y36589D01*
X40366Y36601D01*
X40354Y36613D01*
X40342Y36625D01*
X40328Y36635D01*
X40327D01*
X40326Y36637D01*
X40324Y36637D01*
X40320Y36640D01*
X40317Y36641D01*
X40312Y36643D01*
X40301Y36648D01*
X40288Y36653D01*
X40272Y36657D01*
X40255Y36660D01*
X40236Y36661D01*
D02*
G37*
G36*
X32800Y36656D02*
Y36655D01*
X32799Y36654D01*
Y36651D01*
X32798Y36648D01*
X32797Y36643D01*
X32796Y36637D01*
X32793Y36625D01*
X32789Y36610D01*
X32784Y36594D01*
X32779Y36576D01*
X32772Y36558D01*
X32717Y36408D01*
X32890D01*
X32836Y36549D01*
Y36549D01*
X32836Y36552D01*
X32834Y36555D01*
X32833Y36560D01*
X32831Y36565D01*
X32828Y36572D01*
X32826Y36579D01*
X32823Y36586D01*
X32817Y36603D01*
X32811Y36621D01*
X32805Y36639D01*
X32800Y36656D01*
D02*
G37*
G36*
X32296Y36649D02*
X32177D01*
Y36258D01*
X32299D01*
X32304Y36259D01*
X32315Y36259D01*
X32327Y36260D01*
X32341Y36262D01*
X32354Y36264D01*
X32365Y36267D01*
X32367Y36267D01*
X32370Y36268D01*
X32375Y36270D01*
X32382Y36273D01*
X32390Y36278D01*
X32397Y36282D01*
X32404Y36287D01*
X32412Y36293D01*
X32412Y36295D01*
X32415Y36298D01*
X32420Y36303D01*
X32425Y36310D01*
X32431Y36320D01*
X32438Y36331D01*
X32444Y36344D01*
X32449Y36358D01*
Y36358D01*
X32449Y36360D01*
X32450Y36362D01*
X32451Y36365D01*
X32452Y36369D01*
X32453Y36374D01*
X32455Y36379D01*
X32456Y36385D01*
X32458Y36400D01*
X32461Y36417D01*
X32462Y36436D01*
X32463Y36457D01*
Y36458D01*
Y36461D01*
Y36464D01*
X32462Y36470D01*
Y36477D01*
X32461Y36484D01*
X32461Y36493D01*
X32460Y36502D01*
X32456Y36522D01*
X32452Y36543D01*
X32445Y36562D01*
X32441Y36572D01*
X32436Y36580D01*
Y36580D01*
X32435Y36582D01*
X32433Y36584D01*
X32432Y36587D01*
X32426Y36595D01*
X32418Y36603D01*
X32409Y36613D01*
X32398Y36623D01*
X32385Y36631D01*
X32372Y36637D01*
X32370Y36638D01*
X32367Y36639D01*
X32360Y36641D01*
X32350Y36643D01*
X32338Y36645D01*
X32324Y36647D01*
X32315Y36648D01*
X32305D01*
X32296Y36649D01*
D02*
G37*
G36*
X29977D02*
X29831D01*
Y36466D01*
X29968D01*
X29973Y36467D01*
X29979D01*
X29985Y36467D01*
X29999Y36469D01*
X30014Y36472D01*
X30030Y36476D01*
X30044Y36482D01*
X30050Y36486D01*
X30056Y36490D01*
X30057Y36492D01*
X30060Y36495D01*
X30064Y36501D01*
X30070Y36508D01*
X30075Y36518D01*
X30079Y36529D01*
X30082Y36543D01*
X30084Y36558D01*
Y36559D01*
Y36560D01*
Y36563D01*
X30083Y36570D01*
X30081Y36578D01*
X30080Y36586D01*
X30077Y36595D01*
X30073Y36604D01*
X30067Y36613D01*
X30067Y36614D01*
X30064Y36617D01*
X30061Y36620D01*
X30056Y36626D01*
X30050Y36631D01*
X30042Y36635D01*
X30034Y36640D01*
X30024Y36643D01*
X30024D01*
X30021Y36644D01*
X30016Y36645D01*
X30010Y36646D01*
X30002Y36647D01*
X29990Y36648D01*
X29977Y36649D01*
D02*
G37*
%LPD*%
D14*
X38600Y25688D02*
D03*
Y26003D02*
D03*
Y26318D02*
D03*
Y26633D02*
D03*
Y26948D02*
D03*
Y27263D02*
D03*
Y27578D02*
D03*
Y27893D02*
D03*
Y28208D02*
D03*
Y28523D02*
D03*
Y28838D02*
D03*
Y29153D02*
D03*
Y29467D02*
D03*
Y29782D02*
D03*
Y30097D02*
D03*
Y30412D02*
D03*
Y30727D02*
D03*
Y31042D02*
D03*
D19*
X20965Y23727D02*
D03*
D20*
X32575Y14466D02*
D03*
X31865Y15176D02*
D03*
X32338Y14703D02*
D03*
X32101Y14940D02*
D03*
X36783Y19977D02*
D03*
X37493Y19267D02*
D03*
X37020Y19740D02*
D03*
X37256Y19504D02*
D03*
D21*
X38113Y19245D02*
D03*
X38823Y19955D02*
D03*
X38350Y19482D02*
D03*
X38587Y19719D02*
D03*
X43753Y15161D02*
D03*
X43043Y14452D02*
D03*
X43516Y14925D02*
D03*
X43280Y14688D02*
D03*
D22*
X52100Y34628D02*
D03*
X48160D02*
D03*
D23*
X49734Y35513D02*
D03*
X50603Y35011D02*
D03*
X50024Y35346D02*
D03*
X50313Y35178D02*
D03*
D24*
X49517Y28465D02*
D03*
X50521D02*
D03*
X49852D02*
D03*
X50186D02*
D03*
D25*
X20946Y24523D02*
D03*
Y26532D02*
D03*
D26*
X34665Y17249D02*
D03*
X40965D02*
D03*
D27*
X21629Y21993D02*
D03*
D28*
X50000Y31496D02*
D03*
X36942Y34740D02*
D03*
X36036D02*
D03*
X22107Y31338D02*
D03*
Y29062D02*
D03*
D29*
X31724Y32297D02*
D03*
Y35092D02*
D03*
X41194Y32282D02*
D03*
Y35078D02*
D03*
D30*
X20670Y28499D02*
D03*
Y31901D02*
D03*
D31*
X22316Y28499D02*
D03*
Y31901D02*
D03*
M02*
