G04*
G04 #@! TF.GenerationSoftware,Altium Limited,Altium Designer,20.0.13 (296)*
G04*
G04 Layer_Color=16711935*
%FSLAX24Y24*%
%MOIN*%
G70*
G01*
G75*
%ADD10C,0.0100*%
%ADD32C,0.0060*%
%ADD35C,0.0080*%
%ADD60C,0.0079*%
D10*
X56864Y35439D02*
G03*
X56864Y35439I-630J0D01*
G01*
X21549D02*
G03*
X21549Y35439I-630J0D01*
G01*
X56864Y14770D02*
G03*
X56864Y14770I-630J0D01*
G01*
X21549D02*
G03*
X21549Y14770I-630J0D01*
G01*
D32*
X52979Y19824D02*
G03*
X47251Y19807I-2860J-1319D01*
G01*
X47257Y17190D02*
G03*
X52974Y17175I2862J1316D01*
G01*
X26814Y15053D02*
G03*
X26788Y19427I-906J2182D01*
G01*
X24992Y19432D02*
G03*
X25017Y15064I911J-2179D01*
G01*
X47256Y17184D02*
G03*
X52984Y17201I2860J1319D01*
G01*
X52973Y19820D02*
G03*
X47256Y19835I-2862J-1316D01*
G01*
X52984Y17191D02*
X52986Y19838D01*
X47263Y17190D02*
X47265Y19836D01*
X25014Y15057D02*
X26806D01*
X24992Y19432D02*
X26784D01*
X47262Y17185D02*
X47264Y19832D01*
X52981Y17167D02*
X52983Y19814D01*
D35*
X57693Y36128D02*
G03*
X56905Y36915I-787J0D01*
G01*
X20315Y36908D02*
G03*
X19528Y36121I0J-787D01*
G01*
X56907Y13283D02*
G03*
X57694Y14071I0J787D01*
G01*
X19504Y14071D02*
G03*
X20292Y13284I787J0D01*
G01*
X19500Y14050D02*
Y36199D01*
D60*
X53739Y30027D02*
Y32848D01*
X53185Y29474D02*
X53739Y30027D01*
X52512Y29474D02*
X53185D01*
X52511Y33409D02*
X53178D01*
X53739Y32848D01*
X46269Y30017D02*
Y32856D01*
Y30017D02*
X46836Y29450D01*
X47482D01*
X46799Y33385D02*
X47482D01*
X46269Y32856D02*
X46799Y33385D01*
X52511Y33409D02*
X52512Y29474D01*
X47482Y33385D02*
X47482Y29450D01*
X20323Y36914D02*
X56923Y36914D01*
X57694Y14071D02*
Y36121D01*
X20292Y13284D02*
X56892Y13284D01*
M02*
