G04*
G04 #@! TF.GenerationSoftware,Altium Limited,Altium Designer,20.0.13 (296)*
G04*
G04 Layer_Color=16777215*
%FSLAX24Y24*%
%MOIN*%
G70*
G01*
G75*
%ADD12C,0.0100*%
%ADD58C,0.0020*%
D12*
X39193Y17844D02*
G03*
X39193Y17844I-1378J0D01*
G01*
X60893Y19273D02*
G03*
X60893Y19273I-1378J0D01*
G01*
X51497Y19293D02*
G03*
X51497Y19293I-1378J0D01*
G01*
X27293Y17844D02*
G03*
X27293Y17844I-1378J0D01*
G01*
D58*
X37946Y17870D02*
G03*
X37946Y17870I-138J0D01*
G01*
X37953Y17844D02*
G03*
X37953Y17844I-138J0D01*
G01*
X61228Y23620D02*
G03*
X61228Y23620I-138J0D01*
G01*
X59653Y19273D02*
G03*
X59653Y19273I-138J0D01*
G01*
X50257Y19293D02*
G03*
X50257Y19293I-138J0D01*
G01*
X26053Y17844D02*
G03*
X26053Y17844I-138J0D01*
G01*
X49195Y24277D02*
G03*
X49195Y24277I-138J0D01*
G01*
X37948Y18640D02*
G03*
X37948Y18640I-138J0D01*
G01*
X61908Y16360D02*
G03*
X61908Y16360I-138J0D01*
G01*
X37611Y17870D02*
X38005D01*
X37808Y17673D02*
Y18067D01*
X37815Y17647D02*
Y18041D01*
X37618Y17844D02*
X38012D01*
X60893Y23620D02*
X61287D01*
X61090Y23423D02*
Y23817D01*
X59515Y19076D02*
Y19470D01*
X59318Y19273D02*
X59712D01*
X50119Y19096D02*
Y19490D01*
X49922Y19293D02*
X50316D01*
X25915Y17647D02*
Y18041D01*
X25718Y17844D02*
X26112D01*
X48918Y24416D02*
X49196Y24138D01*
X48918D02*
X49196Y24416D01*
X37810Y18443D02*
Y18837D01*
X37613Y18640D02*
X38007D01*
X61770Y16163D02*
Y16557D01*
X61573Y16360D02*
X61967D01*
M02*
