M48
;Layer_Color=9474304
;FILE_FORMAT=2:5
INCH,LZ
;TYPE=PLATED
T1F00S00C0.01200
T2F00S00C0.03543
T3F00S00C0.04500
T4F00S00C0.06000
T5F00S00C0.06299
T6F00S00C0.07087
T7F00S00C0.07874
T8F00S00C0.10236
T9F00S00C0.11811
T10F00S00C0.31496
%
T01
X04387Y01544
X05879Y01674
X05926Y01681
X037515Y016
T02
X05612Y02248
Y02348
X05344Y02519
Y02619
T03
X06313Y01955
X05604Y01678
T04
X04727Y0221
X0581Y02401
T05
X06265Y02362
X06109
X0595309
X05016Y02538
X0490569Y0242769
X0479545Y0231745
T06
X0258924Y0168302
X0264721Y0186449
X0253129Y0186527
T07
X0488963Y0182043
X0484737Y0195693
X0492827Y0206992
X0509367Y0207032
X051763Y0195749
X0514392Y0182106
X0501438Y0176202
X0582925Y0181841
X0578699Y0195491
X0586789Y020679
X060333Y020683
X0611592Y0195547
X0608354Y0181904
X05954Y0176
T08
X0249252Y017531
X0268545Y0175263
T09
X0501145Y0192932
X0595108Y019273
T10
X0346654Y0178437
X0409646
M30
