G04 EasyEDA Pro v1.9.28, 2025-09-15 11:43:01*
G04 Gerber Generator version 0.3*G04*
G04 #@! TF.GenerationSoftware,Altium Limited,Altium Designer,20.0.13 (296)*
G04*
G04 Layer_Color=2752767*
%FSLAX24Y24*%
%MOIN*%
G70*
G01*
G75*
%ADD71C,0.0020*%
%ADD74C,0.0027*%
%ADD75C,0.0013*%
D71*
X56154Y35359D02*
Y35519D01*
X56314D01*
Y35359D01*
X56154D01*
Y14690D02*
Y14850D01*
X56314D01*
Y14690D01*
X56154D01*
X20839D02*
Y14850D01*
X20999D01*
Y14690D01*
X20839D01*
Y35359D02*
Y35519D01*
X20999D01*
Y35359D01*
X20839D01*
X34665Y17169D02*
X34585Y17329D01*
X34745D01*
X34665Y17169D01*
X40965D02*
X40885Y17329D01*
X41045D01*
X40965Y17169D01*
X21629Y21913D02*
X21669Y21953D01*
X21709D01*
X21669Y21993D01*
X21709Y22033D01*
X21669D01*
X21629Y22073D01*
X21589Y22033D01*
X21549D01*
X21589Y21993D01*
X21549Y21953D01*
X21589D01*
X21629Y21913D01*
X49920Y31416D02*
X49960Y31496D01*
X49920Y31576D01*
X50000Y31536D01*
X50080Y31576D01*
X50040Y31496D01*
X50080Y31416D01*
X50000Y31456D01*
X49920Y31416D01*
X31684Y32257D02*
Y32217D01*
X31764D01*
Y32257D01*
X31804D01*
Y32337D01*
X31764D01*
Y32377D01*
X31684D01*
Y32337D01*
X31644D01*
Y32257D01*
X31684D01*
Y35052D02*
Y35012D01*
X31764D01*
Y35052D01*
X31804D01*
Y35132D01*
X31764D01*
Y35172D01*
X31684D01*
Y35132D01*
X31644D01*
Y35052D01*
X31684D01*
X41154Y32242D02*
Y32202D01*
X41234D01*
Y32242D01*
X41274D01*
Y32322D01*
X41234D01*
Y32362D01*
X41154D01*
Y32322D01*
X41114D01*
Y32242D01*
X41154D01*
Y35038D02*
Y34998D01*
X41234D01*
Y35038D01*
X41274D01*
Y35118D01*
X41234D01*
Y35158D01*
X41154D01*
Y35118D01*
X41114D01*
Y35038D01*
X41154D01*
X36862Y34660D02*
X36902D01*
X36942Y34700D01*
X36982Y34660D01*
X37022D01*
Y34700D01*
X36982Y34740D01*
X37022Y34780D01*
Y34820D01*
X36982D01*
X36942Y34780D01*
X36902Y34820D01*
X36862D01*
Y34780D01*
X36902Y34740D01*
X36862Y34700D01*
Y34660D01*
X35956D02*
X35996D01*
X36036Y34700D01*
X36076Y34660D01*
X36116D01*
Y34700D01*
X36076Y34740D01*
X36116Y34780D01*
Y34820D01*
X36076D01*
X36036Y34780D01*
X35996Y34820D01*
X35956D01*
Y34780D01*
X35996Y34740D01*
X35956Y34700D01*
Y34660D01*
X22027Y31338D02*
X22107Y31418D01*
X22187Y31338D01*
X22107Y31258D01*
X22027Y31338D01*
Y29062D02*
X22107Y29142D01*
X22187Y29062D01*
X22107Y28982D01*
X22027Y29062D01*
X20590Y28419D02*
Y28579D01*
X20750D01*
Y28419D01*
X20590D01*
X20630Y28459D02*
Y28539D01*
X20710D01*
Y28459D01*
X20630D01*
X20590Y31821D02*
Y31981D01*
X20750D01*
Y31821D01*
X20590D01*
X20630Y31861D02*
Y31941D01*
X20710D01*
Y31861D01*
X20630D01*
X46168Y26480D02*
X46088Y26640D01*
X46248D01*
X46168Y26480D01*
Y26520D02*
X46128Y26600D01*
X46208D01*
X46168Y26520D01*
X47822Y26480D02*
X47742Y26640D01*
X47902D01*
X47822Y26480D01*
Y26520D02*
X47782Y26600D01*
X47862D01*
X47822Y26520D01*
X46995Y25653D02*
X46915Y25813D01*
X47075D01*
X46995Y25653D01*
Y25693D02*
X46955Y25773D01*
X47035D01*
X46995Y25693D01*
X47593Y27052D02*
X47513Y27212D01*
X47673D01*
X47593Y27052D01*
Y27092D02*
X47553Y27172D01*
X47633D01*
X47593Y27092D01*
X46408Y27060D02*
X46328Y27220D01*
X46488D01*
X46408Y27060D01*
Y27100D02*
X46368Y27180D01*
X46448D01*
X46408Y27100D01*
X46389Y25924D02*
X46309Y26084D01*
X46469D01*
X46389Y25924D01*
Y25964D02*
X46350Y26044D01*
X46430D01*
X46389Y25964D01*
X47558Y25886D02*
X47478Y26046D01*
X47638D01*
X47558Y25886D01*
Y25926D02*
X47518Y26006D01*
X47598D01*
X47558Y25926D01*
X46995Y27307D02*
X46915Y27467D01*
X47075D01*
X46995Y27307D01*
Y27347D02*
X46955Y27427D01*
X47035D01*
X46995Y27347D01*
X43673Y22214D02*
X43593Y22374D01*
X43753D01*
X43673Y22214D01*
Y22254D02*
X43633Y22334D01*
X43713D01*
X43673Y22254D01*
X30285Y22228D02*
X30205Y22388D01*
X30365D01*
X30285Y22228D01*
Y22268D02*
X30245Y22348D01*
X30325D01*
X30285Y22268D01*
X29293Y21273D02*
X29213Y21433D01*
X29373D01*
X29293Y21273D01*
Y21313D02*
X29253Y21393D01*
X29333D01*
X29293Y21313D01*
X30290Y21298D02*
X30210Y21458D01*
X30370D01*
X30290Y21298D01*
Y21338D02*
X30250Y21418D01*
X30330D01*
X30290Y21338D01*
X30797Y21289D02*
X30717Y21449D01*
X30877D01*
X30797Y21289D01*
Y21329D02*
X30757Y21409D01*
X30837D01*
X30797Y21329D01*
X29280Y22170D02*
X29200Y22330D01*
X29360D01*
X29280Y22170D01*
Y22210D02*
X29240Y22290D01*
X29320D01*
X29280Y22210D01*
X29785Y22187D02*
X29705Y22347D01*
X29865D01*
X29785Y22187D01*
Y22227D02*
X29745Y22307D01*
X29825D01*
X29785Y22227D01*
X30791Y22203D02*
X30711Y22363D01*
X30871D01*
X30791Y22203D01*
Y22243D02*
X30751Y22323D01*
X30831D01*
X30791Y22243D01*
X43688Y34791D02*
X43608Y34951D01*
X43768D01*
X43688Y34791D01*
Y34831D02*
X43648Y34911D01*
X43728D01*
X43688Y34831D01*
X44678Y34791D02*
X44598Y34951D01*
X44758D01*
X44678Y34791D01*
Y34831D02*
X44638Y34911D01*
X44718D01*
X44678Y34831D01*
X44162Y34812D02*
X44082Y34972D01*
X44242D01*
X44162Y34812D01*
Y34852D02*
X44122Y34932D01*
X44202D01*
X44162Y34852D01*
X45169Y34793D02*
X45089Y34953D01*
X45249D01*
X45169Y34793D01*
Y34833D02*
X45129Y34913D01*
X45209D01*
X45169Y34833D01*
X45156Y33926D02*
X45076Y34086D01*
X45236D01*
X45156Y33926D01*
Y33966D02*
X45116Y34046D01*
X45196D01*
X45156Y33966D01*
X44180Y33915D02*
X44100Y34075D01*
X44260D01*
X44180Y33915D01*
Y33955D02*
X44140Y34035D01*
X44220D01*
X44180Y33955D01*
X44675Y33923D02*
X44595Y34083D01*
X44755D01*
X44675Y33923D01*
Y33963D02*
X44635Y34043D01*
X44715D01*
X44675Y33963D01*
X43672Y33904D02*
X43592Y34064D01*
X43752D01*
X43672Y33904D01*
Y33944D02*
X43632Y34024D01*
X43712D01*
X43672Y33944D01*
X44682Y22212D02*
X44602Y22372D01*
X44762D01*
X44682Y22212D01*
Y22252D02*
X44642Y22332D01*
X44722D01*
X44682Y22252D01*
X44166Y22217D02*
X44086Y22377D01*
X44246D01*
X44166Y22217D01*
Y22257D02*
X44126Y22337D01*
X44206D01*
X44166Y22257D01*
X45177Y21293D02*
X45097Y21453D01*
X45257D01*
X45177Y21293D01*
Y21333D02*
X45137Y21413D01*
X45217D01*
X45177Y21333D01*
X44681Y21298D02*
X44601Y21458D01*
X44761D01*
X44681Y21298D01*
Y21338D02*
X44641Y21418D01*
X44721D01*
X44681Y21338D01*
X44181Y21294D02*
X44101Y21454D01*
X44261D01*
X44181Y21294D01*
Y21334D02*
X44141Y21414D01*
X44221D01*
X44181Y21334D01*
X43680Y21299D02*
X43600Y21459D01*
X43760D01*
X43680Y21299D01*
Y21339D02*
X43640Y21419D01*
X43720D01*
X43680Y21339D01*
X53273Y35627D02*
X53193Y35787D01*
X53353D01*
X53273Y35627D01*
Y35667D02*
X53233Y35747D01*
X53313D01*
X53273Y35667D01*
X31752Y15209D02*
X31672Y15369D01*
X31832D01*
X31752Y15209D01*
Y15249D02*
X31712Y15329D01*
X31792D01*
X31752Y15249D01*
X31914Y15344D02*
X31834Y15504D01*
X31994D01*
X31914Y15344D01*
Y15384D02*
X31874Y15464D01*
X31954D01*
X31914Y15384D01*
X38836Y20075D02*
X38756Y20235D01*
X38916D01*
X38836Y20075D01*
Y20115D02*
X38796Y20195D01*
X38876D01*
X38836Y20115D01*
X37536Y19026D02*
X37456Y19186D01*
X37616D01*
X37536Y19026D01*
Y19066D02*
X37496Y19146D01*
X37576D01*
X37536Y19066D01*
X42810Y14390D02*
X42730Y14550D01*
X42890D01*
X42810Y14390D01*
Y14430D02*
X42770Y14510D01*
X42850D01*
X42810Y14430D01*
X43040Y14170D02*
X42960Y14330D01*
X43120D01*
X43040Y14170D01*
Y14210D02*
X43000Y14290D01*
X43080D01*
X43040Y14210D01*
X42930Y14284D02*
X42850Y14444D01*
X43010D01*
X42930Y14284D01*
Y14324D02*
X42890Y14404D01*
X42970D01*
X42930Y14324D01*
X31637Y14933D02*
X31557Y15093D01*
X31717D01*
X31637Y14933D01*
Y14973D02*
X31597Y15053D01*
X31677D01*
X31637Y14973D01*
X37363Y18945D02*
X37283Y19105D01*
X37443D01*
X37363Y18945D01*
Y18985D02*
X37323Y19065D01*
X37403D01*
X37363Y18985D01*
X38650Y20057D02*
X38570Y20217D01*
X38730D01*
X38650Y20057D01*
Y20097D02*
X38610Y20177D01*
X38690D01*
X38650Y20097D01*
X52778Y35760D02*
X52698Y35920D01*
X52858D01*
X52778Y35760D01*
Y35800D02*
X52738Y35880D01*
X52818D01*
X52778Y35800D01*
X45628Y19783D02*
X45549Y19943D01*
X45708D01*
X45628Y19783D01*
Y19823D02*
X45588Y19903D01*
X45669D01*
X45628Y19823D01*
X39813Y28775D02*
X39733Y28935D01*
X39893D01*
X39813Y28775D01*
Y28815D02*
X39773Y28895D01*
X39853D01*
X39813Y28815D01*
X40678Y26846D02*
X40598Y27006D01*
X40758D01*
X40678Y26846D01*
Y26886D02*
X40638Y26966D01*
X40718D01*
X40678Y26886D01*
X39975Y27195D02*
X39895Y27355D01*
X40055D01*
X39975Y27195D01*
Y27235D02*
X39935Y27315D01*
X40015D01*
X39975Y27235D01*
X36323Y26535D02*
X36243Y26695D01*
X36403D01*
X36323Y26535D01*
Y26575D02*
X36283Y26655D01*
X36363D01*
X36323Y26575D01*
X36681Y26199D02*
X36601Y26359D01*
X36761D01*
X36681Y26199D01*
Y26239D02*
X36641Y26319D01*
X36721D01*
X36681Y26239D01*
X37148Y25933D02*
X37068Y26093D01*
X37228D01*
X37148Y25933D01*
Y25973D02*
X37108Y26053D01*
X37188D01*
X37148Y25973D01*
X45600Y35944D02*
X45520Y36104D01*
X45680D01*
X45600Y35944D01*
Y35984D02*
X45560Y36064D01*
X45640D01*
X45600Y35984D01*
X37330Y33665D02*
X37250Y33825D01*
X37410D01*
X37330Y33665D01*
Y33705D02*
X37290Y33785D01*
X37370D01*
X37330Y33705D01*
Y32625D02*
X37250Y32785D01*
X37410D01*
X37330Y32625D01*
Y32665D02*
X37290Y32745D01*
X37370D01*
X37330Y32665D01*
X33698Y31612D02*
X33618Y31772D01*
X33778D01*
X33698Y31612D01*
Y31652D02*
X33658Y31732D01*
X33738D01*
X33698Y31652D01*
X42242Y31531D02*
X42162Y31691D01*
X42322D01*
X42242Y31531D01*
Y31571D02*
X42202Y31651D01*
X42282D01*
X42242Y31571D01*
X35745Y33649D02*
X35665Y33809D01*
X35825D01*
X35745Y33649D01*
Y33689D02*
X35705Y33769D01*
X35785D01*
X35745Y33689D01*
X49517Y28883D02*
X49437Y29043D01*
X49597D01*
X49517Y28883D01*
Y28923D02*
X49477Y29003D01*
X49557D01*
X49517Y28923D01*
X53222Y24687D02*
X53142Y24847D01*
X53302D01*
X53222Y24687D01*
Y24727D02*
X53182Y24807D01*
X53262D01*
X53222Y24727D01*
X55657Y31904D02*
X55577Y32064D01*
X55737D01*
X55657Y31904D01*
Y31944D02*
X55617Y32024D01*
X55697D01*
X55657Y31944D01*
X52244Y24963D02*
X52164Y25123D01*
X52324D01*
X52244Y24963D01*
Y25003D02*
X52204Y25083D01*
X52284D01*
X52244Y25003D01*
X45898Y35031D02*
X45818Y35191D01*
X45978D01*
X45898Y35031D01*
Y35071D02*
X45858Y35151D01*
X45938D01*
X45898Y35071D01*
X47694Y34361D02*
X47614Y34521D01*
X47774D01*
X47694Y34361D01*
Y34401D02*
X47654Y34481D01*
X47734D01*
X47694Y34401D01*
X45603Y32623D02*
X45523Y32783D01*
X45683D01*
X45603Y32623D01*
Y32663D02*
X45563Y32743D01*
X45643D01*
X45603Y32663D01*
X33624Y21960D02*
X33544Y22120D01*
X33704D01*
X33624Y21960D01*
Y22000D02*
X33584Y22080D01*
X33664D01*
X33624Y22000D01*
X32415Y21608D02*
X32335Y21768D01*
X32495D01*
X32415Y21608D01*
Y21648D02*
X32375Y21728D01*
X32455D01*
X32415Y21648D01*
X32118Y21936D02*
X32038Y22096D01*
X32198D01*
X32118Y21936D01*
Y21976D02*
X32078Y22056D01*
X32158D01*
X32118Y21976D01*
X45179Y20240D02*
X45099Y20400D01*
X45259D01*
X45179Y20240D01*
Y20280D02*
X45139Y20360D01*
X45219D01*
X45179Y20280D01*
X55166Y31888D02*
X55086Y32048D01*
X55246D01*
X55166Y31888D01*
Y31928D02*
X55126Y32008D01*
X55206D01*
X55166Y31928D01*
X54791Y31882D02*
X54711Y32042D01*
X54871D01*
X54791Y31882D01*
Y31922D02*
X54751Y32002D01*
X54831D01*
X54791Y31922D01*
X54807Y31224D02*
X54727Y31384D01*
X54887D01*
X54807Y31224D01*
Y31264D02*
X54767Y31344D01*
X54847D01*
X54807Y31264D01*
X55712Y31253D02*
X55632Y31413D01*
X55792D01*
X55712Y31253D01*
Y31293D02*
X55672Y31373D01*
X55752D01*
X55712Y31293D01*
X23220Y30430D02*
X23140Y30590D01*
X23300D01*
X23220Y30430D01*
Y30470D02*
X23180Y30550D01*
X23260D01*
X23220Y30470D01*
Y30094D02*
X23140Y30254D01*
X23300D01*
X23220Y30094D01*
Y30134D02*
X23180Y30214D01*
X23260D01*
X23220Y30134D01*
X23297Y28514D02*
X23217Y28674D01*
X23377D01*
X23297Y28514D01*
Y28554D02*
X23257Y28634D01*
X23337D01*
X23297Y28554D01*
Y28185D02*
X23217Y28345D01*
X23377D01*
X23297Y28185D01*
Y28225D02*
X23257Y28305D01*
X23337D01*
X23297Y28225D01*
X22364Y31403D02*
X22284Y31563D01*
X22444D01*
X22364Y31403D01*
Y31443D02*
X22324Y31523D01*
X22404D01*
X22364Y31443D01*
X23297Y27856D02*
X23217Y28016D01*
X23377D01*
X23297Y27856D01*
Y27896D02*
X23257Y27976D01*
X23337D01*
X23297Y27896D01*
X45178Y22798D02*
X45098Y22958D01*
X45258D01*
X45178Y22798D01*
Y22838D02*
X45138Y22918D01*
X45218D01*
X45178Y22838D01*
X45161Y30954D02*
X45081Y31114D01*
X45241D01*
X45161Y30954D01*
Y30994D02*
X45121Y31074D01*
X45201D01*
X45161Y30994D01*
X51467Y28125D02*
X51387Y28285D01*
X51547D01*
X51467Y28125D01*
Y28165D02*
X51427Y28245D01*
X51507D01*
X51467Y28165D01*
X27804Y29450D02*
X27724Y29610D01*
X27884D01*
X27804Y29450D01*
Y29490D02*
X27764Y29570D01*
X27844D01*
X27804Y29490D01*
X27810Y30432D02*
X27730Y30592D01*
X27890D01*
X27810Y30432D01*
Y30472D02*
X27770Y30552D01*
X27850D01*
X27810Y30472D01*
X26599Y29577D02*
X26519Y29737D01*
X26679D01*
X26599Y29577D01*
Y29617D02*
X26559Y29697D01*
X26639D01*
X26599Y29617D01*
X23190Y29610D02*
X23110Y29770D01*
X23270D01*
X23190Y29610D01*
Y29650D02*
X23150Y29730D01*
X23230D01*
X23190Y29650D01*
D74*
X47075Y26560D02*
G03*
X47075Y26560I-80J0D01*
G01*
X22396Y28499D02*
G03*
X22396Y28499I-80J0D01*
G01*
Y31901D02*
G03*
X22396Y31901I-80J0D01*
G01*
D75*
X22356Y28499D02*
G03*
X22356Y28499I-40J0D01*
G01*
Y31901D02*
G03*
X22356Y31901I-40J0D01*
G01*
M02*
