G04 EasyEDA Pro v1.9.28, 2025-09-15 11:43:01*
G04 Gerber Generator version 0.3*G04*
G04 #@! TF.GenerationSoftware,Altium Limited,Altium Designer,20.0.13 (296)*
G04*
G04 Layer_Color=128*
%FSLAX24Y24*%
%MOIN*%
G70*
G01*
G75*
%ADD43C,0.3150*%
%ADD49R,0.0315X0.0394*%
G04:AMPARAMS|DCode=50|XSize=39.4mil|YSize=31.5mil|CornerRadius=0mil|HoleSize=0mil|Usage=FLASHONLY|Rotation=90.000|XOffset=0mil|YOffset=0mil|HoleType=Round|Shape=Octagon|*
%AMOCTAGOND50*
4,1,8,0.0079,0.0197,-0.0079,0.0197,-0.0157,0.0118,-0.0157,-0.0118,-0.0079,-0.0197,0.0079,-0.0197,0.0157,-0.0118,0.0157,0.0118,0.0079,0.0197,0.0*
%
%ADD50OCTAGOND50*%

%ADD51R,0.0512X0.0165*%
%ADD52C,0.0906*%
%ADD53C,0.0606*%
%ADD54R,0.0315X0.0591*%
%ADD55R,0.0400X0.0315*%
%ADD56R,0.0906X0.0472*%
%ADD57R,0.0433X0.0591*%
%ADD58R,0.0571X0.0118*%
D43*
X46995Y26560D02*
D03*
D49*
X44446Y26756D02*
D03*
D50*
Y27858D02*
D03*
D51*
X54512Y31626D02*
D03*
Y31291D02*
D03*
Y31960D02*
D03*
Y30956D02*
D03*
X45463Y31366D02*
D03*
Y31701D02*
D03*
Y31032D02*
D03*
Y32036D02*
D03*
D52*
X50990Y28196D02*
D03*
X49016D02*
D03*
D53*
X49016Y34646D02*
D03*
X50000D02*
D03*
X50979D02*
D03*
D54*
X43672Y35193D02*
D03*
Y33693D02*
D03*
X44172Y35193D02*
D03*
Y33693D02*
D03*
X44672Y35193D02*
D03*
Y33693D02*
D03*
X45172Y35193D02*
D03*
Y33693D02*
D03*
X45172Y21083D02*
D03*
Y22583D02*
D03*
X44672Y21083D02*
D03*
Y22583D02*
D03*
X44172Y21083D02*
D03*
Y22583D02*
D03*
X43672Y21083D02*
D03*
Y22583D02*
D03*
X29292D02*
D03*
Y21083D02*
D03*
X29792Y22583D02*
D03*
Y21083D02*
D03*
X30292Y22583D02*
D03*
Y21083D02*
D03*
X30792Y22583D02*
D03*
Y21083D02*
D03*
X35662Y34051D02*
D03*
X37316D02*
D03*
D55*
X26837Y29663D02*
D03*
X27567D02*
D03*
X26848Y30647D02*
D03*
X27578D02*
D03*
D56*
X30324Y35210D02*
D03*
X33224D02*
D03*
Y33871D02*
D03*
X30324Y32375D02*
D03*
Y31470D02*
D03*
X33224Y31706D02*
D03*
X39794Y35196D02*
D03*
X42694D02*
D03*
Y33857D02*
D03*
X39794Y32361D02*
D03*
Y31456D02*
D03*
X42694Y31692D02*
D03*
D57*
X35082Y34838D02*
D03*
X37896D02*
D03*
D58*
X22678Y31106D02*
D03*
Y31224D02*
D03*
Y31411D02*
D03*
Y31529D02*
D03*
X22675Y28871D02*
D03*
Y28989D02*
D03*
Y29176D02*
D03*
Y29294D02*
D03*
Y30692D02*
D03*
Y29511D02*
D03*
Y30889D02*
D03*
Y30495D02*
D03*
Y30298D02*
D03*
Y30102D02*
D03*
Y29905D02*
D03*
Y29708D02*
D03*
M02*
