G04 EasyEDA Pro v1.9.28, 2025-09-15 11:43:01*
G04 Gerber Generator version 0.3*G04*
G04 #@! TF.GenerationSoftware,Altium Limited,Altium Designer,20.0.13 (296)*
G04*
G04 Layer_Physical_Order=1*
G04 Layer_Color=255*
%FSLAX24Y24*%
%MOIN*%
G70*
G01*
G75*
%ADD10C,0.0100*%
G04:AMPARAMS|DCode=13|XSize=16.5mil|YSize=51.2mil|CornerRadius=0mil|HoleSize=0mil|Usage=FLASHONLY|Rotation=315.000|XOffset=0mil|YOffset=0mil|HoleType=Round|Shape=Rectangle|*
%AMROTATEDRECTD13*
4,1,4,-0.0239,-0.0122,0.0122,0.0239,0.0239,0.0122,-0.0122,-0.0239,-0.0239,-0.0122,0.0*
%
%ADD13ROTATEDRECTD13*%

G04:AMPARAMS|DCode=14|XSize=16.5mil|YSize=51.2mil|CornerRadius=0mil|HoleSize=0mil|Usage=FLASHONLY|Rotation=225.000|XOffset=0mil|YOffset=0mil|HoleType=Round|Shape=Rectangle|*
%AMROTATEDRECTD14*
4,1,4,-0.0122,0.0239,0.0239,-0.0122,0.0122,-0.0239,-0.0239,0.0122,-0.0122,0.0239,0.0*
%
%ADD14ROTATEDRECTD14*%

%ADD15R,0.1378X0.0157*%
%ADD16R,0.1181X0.1181*%
G04:AMPARAMS|DCode=17|XSize=16.5mil|YSize=51.2mil|CornerRadius=0mil|HoleSize=0mil|Usage=FLASHONLY|Rotation=150.000|XOffset=0mil|YOffset=0mil|HoleType=Round|Shape=Rectangle|*
%AMROTATEDRECTD17*
4,1,4,0.0200,0.0180,-0.0056,-0.0263,-0.0200,-0.0180,0.0056,0.0263,0.0200,0.0180,0.0*
%
%ADD17ROTATEDRECTD17*%

%ADD18R,0.0165X0.0512*%
G04:AMPARAMS|DCode=19|XSize=31.5mil|YSize=70.9mil|CornerRadius=7.9mil|HoleSize=0mil|Usage=FLASHONLY|Rotation=90.000|XOffset=0mil|YOffset=0mil|HoleType=Round|Shape=RoundedRectangle|*
%AMROUNDEDRECTD19*
21,1,0.0315,0.0551,0,0,90.0*
21,1,0.0157,0.0709,0,0,90.0*
1,1,0.0157,0.0276,0.0079*
1,1,0.0157,0.0276,-0.0079*
1,1,0.0157,-0.0276,-0.0079*
1,1,0.0157,-0.0276,0.0079*
%
%ADD19ROUNDEDRECTD19*%
%ADD35C,0.0060*%
%ADD36C,0.0200*%
%ADD37C,0.0150*%
%ADD38C,0.0080*%
%ADD39C,0.0070*%
%ADD40R,0.1085X0.0670*%
%ADD41C,0.1260*%
%ADD42C,0.0433*%
%ADD43C,0.3150*%
%ADD44C,0.1500*%
%ADD45C,0.0591*%
%ADD46O,0.0630X0.0394*%
%ADD47O,0.0827X0.0394*%
%ADD48C,0.0200*%
G36*
X45665Y35947D02*
X45659Y35940D01*
X45655Y35933D01*
X45651Y35926D01*
X45648Y35918D01*
X45645Y35910D01*
X45643Y35901D01*
X45641Y35892D01*
X45641Y35883D01*
X45640Y35873D01*
X45560Y35873D01*
X45560Y35883D01*
X45559Y35892D01*
X45557Y35901D01*
X45555Y35910D01*
X45553Y35918D01*
X45549Y35926D01*
X45546Y35933D01*
X45541Y35940D01*
X45536Y35947D01*
X45530Y35953D01*
X45670Y35953D01*
X45665Y35947D01*
D02*
G37*
G36*
X52707Y35770D02*
X52703Y35774D01*
X52698Y35777D01*
X52692Y35780D01*
X52685Y35783D01*
X52678Y35785D01*
X52670Y35787D01*
X52662Y35788D01*
X52653Y35789D01*
X52632Y35790D01*
Y35890D01*
X52642Y35890D01*
X52662Y35892D01*
X52670Y35893D01*
X52678Y35895D01*
X52685Y35897D01*
X52692Y35900D01*
X52698Y35903D01*
X52703Y35906D01*
X52707Y35910D01*
Y35770D01*
D02*
G37*
G36*
X49949Y35750D02*
X49942Y35741D01*
X49935Y35734D01*
X49930Y35727D01*
X49926Y35720D01*
X49924Y35714D01*
X49923Y35709D01*
X49923Y35704D01*
X49924Y35700D01*
X49927Y35696D01*
X49932Y35693D01*
X49827Y35755D01*
X49832Y35752D01*
X49838Y35751D01*
X49844Y35750D01*
X49851Y35751D01*
X49857Y35753D01*
X49864Y35756D01*
X49872Y35761D01*
X49879Y35766D01*
X49887Y35773D01*
X49896Y35781D01*
X49949Y35750D01*
D02*
G37*
G36*
X53191Y35832D02*
X53198Y35826D01*
X53206Y35822D01*
X53214Y35818D01*
X53222Y35814D01*
X53231Y35811D01*
X53241Y35809D01*
X53251Y35808D01*
X53261Y35807D01*
X53272Y35807D01*
X53173Y35708D01*
X53173Y35719D01*
X53172Y35729D01*
X53170Y35739D01*
X53168Y35749D01*
X53166Y35758D01*
X53162Y35766D01*
X53158Y35774D01*
X53153Y35782D01*
X53148Y35789D01*
X53142Y35795D01*
X53184Y35838D01*
X53191Y35832D01*
D02*
G37*
G36*
X50285Y35600D02*
X50276Y35591D01*
X50229Y35537D01*
X50225Y35531D01*
X50221Y35526D01*
X50080Y35607D01*
X50090Y35603D01*
X50099Y35601D01*
X50109Y35600D01*
X50120Y35602D01*
X50131Y35605D01*
X50143Y35611D01*
X50156Y35618D01*
X50168Y35628D01*
X50182Y35639D01*
X50196Y35652D01*
X50285Y35600D01*
D02*
G37*
G36*
X49854Y35654D02*
X49784Y35576D01*
X49734Y35626D01*
X49736Y35627D01*
X49739Y35629D01*
X49744Y35633D01*
X49757Y35644D01*
X49812Y35697D01*
X49854Y35654D01*
D02*
G37*
G36*
X50529Y35415D02*
X50521Y35407D01*
X50515Y35399D01*
X50510Y35392D01*
X50506Y35385D01*
X50503Y35380D01*
X50502Y35374D01*
X50502Y35369D01*
X50504Y35365D01*
X50507Y35361D01*
X50511Y35358D01*
X50405Y35418D01*
X50411Y35416D01*
X50417Y35414D01*
X50423Y35414D01*
X50429Y35415D01*
X50436Y35417D01*
X50443Y35421D01*
X50451Y35425D01*
X50459Y35431D01*
X50467Y35438D01*
X50475Y35446D01*
X50529Y35415D01*
D02*
G37*
G36*
X45498Y35144D02*
Y32862D01*
X45495Y32855D01*
X45495Y32847D01*
X45495Y32842D01*
X45494Y32837D01*
X45493Y32833D01*
X45492Y32830D01*
X45491Y32827D01*
X45489Y32824D01*
X45488Y32822D01*
X45486Y32819D01*
X45482Y32815D01*
X45479Y32805D01*
X45453Y32766D01*
X45440Y32703D01*
X45453Y32641D01*
X45488Y32588D01*
X45541Y32552D01*
X45603Y32540D01*
X45666Y32552D01*
X45719Y32588D01*
X45754Y32641D01*
X45766Y32703D01*
X45754Y32766D01*
X45719Y32818D01*
X45717Y32822D01*
X45713Y32826D01*
X45712Y32828D01*
X45711Y32830D01*
X45710Y32832D01*
X45708Y32834D01*
X45707Y32837D01*
X45707Y32841D01*
X45706Y32845D01*
X45705Y32850D01*
X45705Y32858D01*
X45705Y32858D01*
X45705Y32858D01*
X45702Y32865D01*
Y35144D01*
X47510Y35144D01*
Y33977D01*
X48811D01*
Y35144D01*
X49742D01*
X49742Y35143D01*
Y35143D01*
X49946Y35026D01*
X49989Y35001D01*
X50032Y34976D01*
X50032Y34976D01*
X50279Y34833D01*
X50458Y35144D01*
X51450Y35144D01*
Y33977D01*
X52751D01*
Y35144D01*
X53475D01*
X55812Y32806D01*
Y32127D01*
X55797Y32116D01*
X55762Y32105D01*
X55719Y32134D01*
X55657Y32147D01*
X55594Y32134D01*
X55541Y32099D01*
X55538Y32095D01*
X55532Y32092D01*
X55529Y32088D01*
X55528Y32087D01*
X55526Y32086D01*
X55524Y32085D01*
X55522Y32084D01*
X55520Y32083D01*
X55517Y32082D01*
X55512Y32082D01*
X55508Y32081D01*
X55500Y32081D01*
X55498Y32080D01*
X55497Y32081D01*
X55491Y32078D01*
X55323D01*
X55316Y32081D01*
X55308Y32081D01*
X55302Y32082D01*
X55298Y32082D01*
X55293Y32083D01*
X55289Y32084D01*
X55286Y32086D01*
X55283Y32087D01*
X55280Y32089D01*
X55277Y32090D01*
X55273Y32094D01*
X55261Y32098D01*
X55229Y32119D01*
X55166Y32132D01*
X55104Y32119D01*
X55051Y32084D01*
X55016Y32031D01*
X55003Y31968D01*
X55016Y31906D01*
X55051Y31853D01*
X55104Y31818D01*
X55166Y31805D01*
X55229Y31818D01*
X55282Y31853D01*
X55284Y31857D01*
X55290Y31860D01*
X55294Y31864D01*
X55295Y31865D01*
X55297Y31866D01*
X55298Y31867D01*
X55300Y31868D01*
X55303Y31869D01*
X55306Y31870D01*
X55310Y31870D01*
X55315Y31871D01*
X55323Y31871D01*
X55325Y31872D01*
X55326Y31871D01*
X55332Y31874D01*
X55500D01*
X55507Y31871D01*
X55515Y31871D01*
X55520Y31870D01*
X55525Y31870D01*
X55530Y31869D01*
X55534Y31867D01*
X55537Y31866D01*
X55540Y31865D01*
X55543Y31863D01*
X55545Y31861D01*
X55550Y31858D01*
X55562Y31854D01*
X55594Y31833D01*
X55657Y31820D01*
X55719Y31833D01*
X55762Y31862D01*
X55797Y31851D01*
X55812Y31840D01*
Y31514D01*
X55762Y31486D01*
X55712Y31496D01*
X55649Y31484D01*
X55596Y31449D01*
X55577Y31420D01*
X55567Y31412D01*
X55566Y31410D01*
X55565Y31410D01*
X55562Y31409D01*
X55558Y31409D01*
X55550Y31409D01*
X55543Y31406D01*
X54967D01*
X54960Y31409D01*
X54952Y31409D01*
X54947Y31409D01*
X54943Y31410D01*
X54939Y31411D01*
X54936Y31412D01*
X54933Y31413D01*
X54930Y31415D01*
X54928Y31416D01*
X54926Y31417D01*
X54922Y31421D01*
X54914Y31424D01*
X54869Y31455D01*
X54807Y31467D01*
X54744Y31455D01*
X54691Y31419D01*
X54656Y31366D01*
X54643Y31304D01*
X54656Y31241D01*
X54691Y31188D01*
X54744Y31153D01*
X54807Y31141D01*
X54869Y31153D01*
X54914Y31183D01*
X54922Y31186D01*
X54926Y31190D01*
X54928Y31192D01*
X54930Y31193D01*
X54933Y31194D01*
X54935Y31195D01*
X54939Y31196D01*
X54943Y31197D01*
X54947Y31198D01*
X54952Y31199D01*
X54960Y31199D01*
X54967Y31202D01*
X55571D01*
X55577Y31199D01*
X55595Y31198D01*
X55600Y31198D01*
X55613Y31196D01*
X55617Y31194D01*
X55622Y31193D01*
X55626Y31192D01*
X55630Y31190D01*
X55635Y31187D01*
X55643Y31187D01*
X55649Y31182D01*
X55712Y31170D01*
X55762Y31180D01*
X55812Y31153D01*
X55812Y26290D01*
X51829D01*
X50282Y27836D01*
Y28141D01*
X50285Y28148D01*
X50285Y28149D01*
X50329D01*
Y28781D01*
X50044D01*
Y28781D01*
X49994D01*
Y28781D01*
X49710D01*
X49709Y28781D01*
X49660D01*
X49646Y28789D01*
X49639Y28795D01*
X49634Y28846D01*
X49634Y28846D01*
X49637Y28854D01*
X49667Y28900D01*
X49680Y28963D01*
X49667Y29025D01*
X49632Y29078D01*
X49579Y29113D01*
X49517Y29126D01*
X49454Y29113D01*
X49401Y29078D01*
X49366Y29025D01*
X49354Y28963D01*
X49366Y28900D01*
X49397Y28854D01*
X49400Y28846D01*
X49400Y28846D01*
X49398Y28822D01*
X49374Y28781D01*
X49374Y28781D01*
X49374Y28781D01*
Y28149D01*
X49659D01*
X49660Y28149D01*
X49709D01*
X49710Y28149D01*
X49739D01*
X49741Y28126D01*
X49741Y28109D01*
X49744Y28102D01*
Y27431D01*
X49744Y27431D01*
X49752Y27388D01*
X49777Y27352D01*
X50793Y26336D01*
X50774Y26290D01*
X48699D01*
X46041Y23632D01*
Y20042D01*
X43444D01*
X41718Y21768D01*
X41682Y21792D01*
X41639Y21800D01*
X41639Y21800D01*
X36224D01*
X36221Y21802D01*
X36214Y21800D01*
X36204D01*
X36196Y21802D01*
X36194Y21800D01*
X32570D01*
X32564Y21803D01*
X32546Y21804D01*
X32540Y21804D01*
X32536Y21805D01*
X32532Y21806D01*
X32530Y21807D01*
X32530Y21807D01*
X32529Y21807D01*
X32527Y21808D01*
X32526Y21808D01*
X32526Y21809D01*
X32525Y21809D01*
X32524Y21809D01*
X32521Y21810D01*
X32478Y21839D01*
X32415Y21851D01*
X32353Y21839D01*
X32300Y21804D01*
X32264Y21751D01*
X32252Y21688D01*
X32264Y21626D01*
X32294Y21582D01*
X32294Y21580D01*
X32295Y21578D01*
X32295Y21577D01*
X32295Y21577D01*
X32295Y21576D01*
X32296Y21574D01*
X32297Y21574D01*
X32297Y21574D01*
X32297Y21571D01*
X32298Y21568D01*
X32299Y21564D01*
X32300Y21549D01*
X32300Y21540D01*
X32303Y21534D01*
Y20819D01*
X27504D01*
Y23834D01*
X23813Y27525D01*
X21621D01*
X21572Y32712D01*
X21622Y32749D01*
X32661D01*
X34754Y34842D01*
X35764D01*
X35805Y34792D01*
X35794Y34740D01*
X35813Y34647D01*
X35865Y34569D01*
X35944Y34517D01*
X36036Y34498D01*
X36129Y34517D01*
X36207Y34569D01*
X36260Y34647D01*
X36278Y34740D01*
X36268Y34792D01*
X36309Y34842D01*
X36669D01*
X36710Y34792D01*
X36700Y34740D01*
X36718Y34647D01*
X36771Y34569D01*
X36849Y34517D01*
X36942Y34498D01*
X37034Y34517D01*
X37113Y34569D01*
X37165Y34647D01*
X37184Y34740D01*
X37173Y34792D01*
X37214Y34842D01*
X40928D01*
X40941Y34824D01*
X41015Y34767D01*
X41102Y34732D01*
X41194Y34719D01*
X41287Y34732D01*
X41374Y34767D01*
X41448Y34824D01*
X41461Y34842D01*
X43480D01*
X43504Y34842D01*
X43537Y34809D01*
X43573Y34756D01*
X43626Y34720D01*
X43688Y34708D01*
X43750Y34720D01*
X43803Y34756D01*
X43839Y34809D01*
X43851Y34871D01*
X43839Y34933D01*
X43803Y34986D01*
X43750Y35022D01*
X43688Y35034D01*
X43626Y35022D01*
X43573Y34986D01*
X43554Y34958D01*
X43504Y34973D01*
Y35144D01*
X45498D01*
D02*
G37*
G36*
X45641Y32846D02*
X45641Y32837D01*
X45643Y32827D01*
X45645Y32819D01*
X45648Y32811D01*
X45651Y32803D01*
X45655Y32796D01*
X45660Y32789D01*
X45665Y32783D01*
X45671Y32777D01*
X45531Y32772D01*
X45537Y32779D01*
X45542Y32785D01*
X45546Y32792D01*
X45550Y32800D01*
X45553Y32808D01*
X45556Y32816D01*
X45558Y32825D01*
X45559Y32834D01*
X45560Y32843D01*
X45560Y32853D01*
X45640Y32856D01*
X45641Y32846D01*
D02*
G37*
G36*
X55591Y31908D02*
X55584Y31914D01*
X55577Y31918D01*
X55570Y31922D01*
X55562Y31926D01*
X55554Y31929D01*
X55546Y31932D01*
X55537Y31933D01*
X55528Y31935D01*
X55518Y31936D01*
X55509Y31936D01*
X55502Y32016D01*
X55512Y32016D01*
X55521Y32017D01*
X55530Y32019D01*
X55539Y32021D01*
X55547Y32024D01*
X55555Y32027D01*
X55562Y32032D01*
X55568Y32036D01*
X55574Y32042D01*
X55580Y32048D01*
X55591Y31908D01*
D02*
G37*
G36*
X55239Y32038D02*
X55246Y32034D01*
X55253Y32029D01*
X55260Y32026D01*
X55269Y32023D01*
X55277Y32020D01*
X55286Y32018D01*
X55295Y32017D01*
X55304Y32016D01*
X55314Y32016D01*
X55321Y31936D01*
X55311Y31936D01*
X55301Y31935D01*
X55292Y31933D01*
X55284Y31931D01*
X55276Y31928D01*
X55268Y31924D01*
X55261Y31920D01*
X55255Y31916D01*
X55248Y31910D01*
X55243Y31904D01*
X55232Y32044D01*
X55239Y32038D01*
D02*
G37*
G36*
X55664Y31245D02*
X55657Y31249D01*
X55650Y31252D01*
X55642Y31255D01*
X55634Y31257D01*
X55626Y31259D01*
X55608Y31262D01*
X55599Y31263D01*
X55580Y31264D01*
X55552Y31344D01*
X55562Y31344D01*
X55572Y31345D01*
X55581Y31347D01*
X55589Y31349D01*
X55596Y31353D01*
X55603Y31356D01*
X55609Y31361D01*
X55614Y31366D01*
X55619Y31372D01*
X55623Y31379D01*
X55664Y31245D01*
D02*
G37*
G36*
X54884Y31368D02*
X54891Y31363D01*
X54898Y31358D01*
X54905Y31355D01*
X54913Y31351D01*
X54921Y31349D01*
X54930Y31346D01*
X54939Y31345D01*
X54948Y31344D01*
X54958Y31344D01*
Y31264D01*
X54948Y31263D01*
X54939Y31263D01*
X54930Y31261D01*
X54921Y31259D01*
X54913Y31256D01*
X54905Y31253D01*
X54898Y31249D01*
X54891Y31245D01*
X54884Y31239D01*
X54878Y31234D01*
Y31374D01*
X54884Y31368D01*
D02*
G37*
G36*
X49580Y28884D02*
X49574Y28877D01*
X49569Y28869D01*
X49564Y28862D01*
X49561Y28853D01*
X49557Y28845D01*
X49555Y28836D01*
X49553Y28828D01*
X49552Y28818D01*
X49552Y28809D01*
X49482D01*
X49481Y28818D01*
X49480Y28828D01*
X49479Y28836D01*
X49476Y28845D01*
X49473Y28853D01*
X49469Y28862D01*
X49465Y28869D01*
X49459Y28877D01*
X49453Y28884D01*
X49447Y28891D01*
X49587D01*
X49580Y28884D01*
D02*
G37*
G36*
X49552Y28776D02*
X49553Y28764D01*
X49555Y28754D01*
X49557Y28745D01*
X49561Y28737D01*
X49564Y28731D01*
X49569Y28726D01*
X49574Y28722D01*
X49580Y28720D01*
X49587Y28719D01*
X49447D01*
X49453Y28720D01*
X49459Y28722D01*
X49465Y28726D01*
X49469Y28731D01*
X49473Y28737D01*
X49476Y28745D01*
X49479Y28754D01*
X49480Y28764D01*
X49481Y28776D01*
X49482Y28789D01*
X49552D01*
X49552Y28776D01*
D02*
G37*
G36*
X50245Y28209D02*
X50240Y28208D01*
X50235Y28205D01*
X50231Y28200D01*
X50228Y28195D01*
X50225Y28188D01*
X50223Y28181D01*
X50222Y28172D01*
X50221Y28161D01*
X50221Y28150D01*
X50161D01*
X50160Y28161D01*
X50159Y28172D01*
X50158Y28181D01*
X50156Y28188D01*
X50153Y28195D01*
X50150Y28200D01*
X50146Y28205D01*
X50141Y28208D01*
X50136Y28209D01*
X50131Y28210D01*
X50251D01*
X50245Y28209D01*
D02*
G37*
G36*
X49928Y28209D02*
X49923Y28206D01*
X49919Y28201D01*
X49916Y28194D01*
X49913Y28185D01*
X49910Y28174D01*
X49908Y28161D01*
X49907Y28146D01*
X49906Y28110D01*
X49806D01*
X49805Y28129D01*
X49803Y28161D01*
X49800Y28174D01*
X49797Y28185D01*
X49793Y28194D01*
X49788Y28201D01*
X49783Y28206D01*
X49777Y28209D01*
X49770Y28210D01*
X49933D01*
X49928Y28209D01*
D02*
G37*
G36*
X52184Y25175D02*
X52198Y25162D01*
X52205Y25157D01*
X52212Y25153D01*
X52219Y25149D01*
X52225Y25147D01*
X52231Y25145D01*
X52237Y25143D01*
X52243Y25143D01*
X52144Y25044D01*
X52144Y25050D01*
X52143Y25056D01*
X52141Y25062D01*
X52138Y25068D01*
X52135Y25075D01*
X52130Y25082D01*
X52125Y25089D01*
X52119Y25096D01*
X52105Y25111D01*
X52176Y25182D01*
X52184Y25175D01*
D02*
G37*
G36*
X53140Y24892D02*
X53147Y24887D01*
X53154Y24882D01*
X53162Y24878D01*
X53171Y24874D01*
X53180Y24872D01*
X53189Y24869D01*
X53199Y24868D01*
X53210Y24867D01*
X53221Y24867D01*
X53122Y24768D01*
X53121Y24779D01*
X53121Y24789D01*
X53119Y24799D01*
X53117Y24809D01*
X53114Y24818D01*
X53111Y24826D01*
X53107Y24834D01*
X53102Y24842D01*
X53097Y24849D01*
X53091Y24856D01*
X53133Y24898D01*
X53140Y24892D01*
D02*
G37*
G36*
X32491Y21754D02*
X32496Y21751D01*
X32502Y21748D01*
X32508Y21745D01*
X32515Y21743D01*
X32523Y21741D01*
X32532Y21740D01*
X32541Y21739D01*
X32562Y21738D01*
Y21638D01*
X32551Y21638D01*
X32532Y21636D01*
X32523Y21635D01*
X32515Y21633D01*
X32508Y21631D01*
X32502Y21628D01*
X32496Y21625D01*
X32491Y21622D01*
X32487Y21618D01*
Y21758D01*
X32491Y21754D01*
D02*
G37*
G36*
X32481Y21613D02*
X32478Y21608D01*
X32475Y21602D01*
X32472Y21595D01*
X32470Y21588D01*
X32468Y21580D01*
X32467Y21572D01*
X32466Y21562D01*
X32465Y21542D01*
X32365D01*
X32365Y21552D01*
X32363Y21572D01*
X32362Y21580D01*
X32360Y21588D01*
X32358Y21595D01*
X32355Y21602D01*
X32352Y21608D01*
X32349Y21613D01*
X32345Y21617D01*
X32485D01*
X32481Y21613D01*
D02*
G37*
G36*
X36359Y21638D02*
X36340Y21637D01*
X36323Y21634D01*
X36308Y21629D01*
X36295Y21622D01*
X36284Y21613D01*
X36275Y21602D01*
X36268Y21589D01*
X36263Y21574D01*
X36260Y21557D01*
X36259Y21538D01*
X36159D01*
X36158Y21557D01*
X36155Y21574D01*
X36150Y21589D01*
X36143Y21602D01*
X36134Y21613D01*
X36123Y21622D01*
X36110Y21629D01*
X36095Y21634D01*
X36078Y21637D01*
X36059Y21638D01*
X36209Y21738D01*
X36359Y21638D01*
D02*
G37*
G36*
X37027Y20178D02*
X37019Y20170D01*
X37012Y20162D01*
X37007Y20155D01*
X37003Y20148D01*
X37000Y20141D01*
X36999Y20135D01*
X36999Y20129D01*
X37000Y20124D01*
X37002Y20119D01*
X37006Y20114D01*
X36921Y20199D01*
X36925Y20196D01*
X36930Y20193D01*
X36935Y20192D01*
X36941Y20193D01*
X36947Y20194D01*
X36954Y20197D01*
X36961Y20201D01*
X36968Y20206D01*
X36976Y20213D01*
X36984Y20221D01*
X37027Y20178D01*
D02*
G37*
G36*
X37306Y19956D02*
X37293Y19942D01*
X37272Y19918D01*
X37264Y19907D01*
X37258Y19897D01*
X37254Y19888D01*
X37252Y19880D01*
X37252Y19874D01*
X37254Y19868D01*
X37257Y19863D01*
X37142Y19978D01*
X37147Y19974D01*
X37153Y19973D01*
X37160Y19973D01*
X37168Y19975D01*
X37177Y19979D01*
X37186Y19985D01*
X37197Y19992D01*
X37209Y20002D01*
X37235Y20026D01*
X37306Y19956D01*
D02*
G37*
G36*
X38394Y19954D02*
X38402Y19948D01*
X38409Y19942D01*
X38416Y19938D01*
X38423Y19935D01*
X38429Y19934D01*
X38435Y19933D01*
X38440Y19934D01*
X38445Y19937D01*
X38450Y19940D01*
X38365Y19856D01*
X38369Y19860D01*
X38371Y19865D01*
X38372Y19870D01*
X38372Y19876D01*
X38370Y19882D01*
X38367Y19889D01*
X38363Y19896D01*
X38358Y19904D01*
X38351Y19912D01*
X38343Y19920D01*
X38385Y19962D01*
X38394Y19954D01*
D02*
G37*
G36*
X45557Y19793D02*
X45553Y19797D01*
X45548Y19800D01*
X45542Y19803D01*
X45536Y19806D01*
X45528Y19808D01*
X45521Y19810D01*
X45512Y19811D01*
X45503Y19812D01*
X45482Y19813D01*
Y19913D01*
X45493Y19913D01*
X45512Y19915D01*
X45521Y19916D01*
X45528Y19918D01*
X45536Y19920D01*
X45542Y19923D01*
X45548Y19926D01*
X45553Y19929D01*
X45557Y19933D01*
Y19793D01*
D02*
G37*
G36*
X45695Y19787D02*
X45691Y19782D01*
X45688Y19776D01*
X45686Y19770D01*
X45683Y19763D01*
X45682Y19755D01*
X45680Y19746D01*
X45679Y19737D01*
X45679Y19716D01*
X45578D01*
X45578Y19727D01*
X45577Y19746D01*
X45575Y19755D01*
X45574Y19763D01*
X45571Y19770D01*
X45569Y19776D01*
X45566Y19782D01*
X45562Y19787D01*
X45559Y19791D01*
X45698D01*
X45695Y19787D01*
D02*
G37*
G36*
X38148Y19755D02*
X38173Y19734D01*
X38183Y19726D01*
X38193Y19721D01*
X38202Y19717D01*
X38210Y19715D01*
X38217Y19715D01*
X38223Y19716D01*
X38227Y19720D01*
X38112Y19604D01*
X38116Y19609D01*
X38117Y19615D01*
X38117Y19622D01*
X38115Y19630D01*
X38111Y19639D01*
X38105Y19649D01*
X38098Y19659D01*
X38088Y19671D01*
X38064Y19697D01*
X38134Y19768D01*
X38148Y19755D01*
D02*
G37*
G36*
X36897Y19502D02*
X36892Y19506D01*
X36886Y19508D01*
X36879Y19507D01*
X36872Y19505D01*
X36863Y19501D01*
X36853Y19496D01*
X36842Y19488D01*
X36831Y19479D01*
X36804Y19454D01*
X36733Y19525D01*
X36747Y19538D01*
X36768Y19563D01*
X36775Y19574D01*
X36781Y19583D01*
X36785Y19592D01*
X36787Y19600D01*
X36787Y19607D01*
X36785Y19613D01*
X36782Y19618D01*
X36897Y19502D01*
D02*
G37*
G36*
X37119Y19281D02*
X37114Y19285D01*
X37109Y19287D01*
X37104Y19288D01*
X37098Y19288D01*
X37092Y19286D01*
X37086Y19284D01*
X37079Y19280D01*
X37071Y19274D01*
X37063Y19268D01*
X37055Y19260D01*
X37013Y19302D01*
X37020Y19310D01*
X37027Y19318D01*
X37032Y19326D01*
X37036Y19333D01*
X37039Y19339D01*
X37041Y19345D01*
X37041Y19351D01*
X37040Y19357D01*
X37037Y19361D01*
X37034Y19366D01*
X37119Y19281D01*
D02*
G37*
G36*
X38331Y19104D02*
X38329Y19099D01*
X38328Y19094D01*
X38328Y19088D01*
X38330Y19082D01*
X38333Y19075D01*
X38337Y19068D01*
X38342Y19061D01*
X38349Y19053D01*
X38357Y19044D01*
X38315Y19002D01*
X38306Y19010D01*
X38298Y19016D01*
X38291Y19022D01*
X38284Y19026D01*
X38277Y19029D01*
X38271Y19030D01*
X38265Y19031D01*
X38260Y19030D01*
X38255Y19027D01*
X38250Y19024D01*
X38335Y19109D01*
X38331Y19104D01*
D02*
G37*
G36*
X43874Y15240D02*
X43866Y15232D01*
X43859Y15224D01*
X43854Y15216D01*
X43850Y15209D01*
X43847Y15202D01*
X43845Y15196D01*
X43845Y15190D01*
X43846Y15185D01*
X43848Y15180D01*
X43852Y15176D01*
X43767Y15261D01*
X43772Y15257D01*
X43776Y15255D01*
X43782Y15254D01*
X43788Y15254D01*
X43794Y15256D01*
X43801Y15258D01*
X43808Y15263D01*
X43815Y15268D01*
X43823Y15275D01*
X43832Y15283D01*
X43874Y15240D01*
D02*
G37*
G36*
X31764Y15420D02*
X31790Y15398D01*
X31815Y15380D01*
X31839Y15366D01*
X31861Y15357D01*
X31881Y15352D01*
X31901Y15351D01*
X31918Y15355D01*
X31935Y15362D01*
X31949Y15374D01*
X31667Y15092D01*
X31679Y15106D01*
X31686Y15123D01*
X31690Y15140D01*
X31689Y15160D01*
X31684Y15180D01*
X31675Y15202D01*
X31661Y15226D01*
X31643Y15250D01*
X31621Y15277D01*
X31595Y15304D01*
X31736Y15446D01*
X31764Y15420D01*
D02*
G37*
G36*
X32615Y14916D02*
X32603Y14903D01*
X32585Y14880D01*
X32578Y14870D01*
X32573Y14861D01*
X32570Y14852D01*
X32569Y14844D01*
X32569Y14837D01*
X32572Y14831D01*
X32576Y14825D01*
X32461Y14941D01*
X32465Y14938D01*
X32470Y14936D01*
X32476Y14937D01*
X32483Y14939D01*
X32491Y14942D01*
X32500Y14948D01*
X32510Y14955D01*
X32521Y14964D01*
X32545Y14986D01*
X32615Y14916D01*
D02*
G37*
G36*
X43104Y14937D02*
X43111Y14931D01*
X43118Y14926D01*
X43125Y14922D01*
X43131Y14919D01*
X43136Y14918D01*
X43141Y14917D01*
X43146Y14918D01*
X43151Y14920D01*
X43154Y14923D01*
X43075Y14844D01*
X43078Y14848D01*
X43080Y14852D01*
X43081Y14857D01*
X43081Y14862D01*
X43079Y14868D01*
X43076Y14874D01*
X43073Y14880D01*
X43067Y14887D01*
X43061Y14894D01*
X43054Y14902D01*
X43096Y14944D01*
X43104Y14937D01*
D02*
G37*
G36*
X32818Y14668D02*
X32810Y14659D01*
X32804Y14651D01*
X32798Y14644D01*
X32794Y14637D01*
X32791Y14630D01*
X32790Y14624D01*
X32789Y14618D01*
X32790Y14612D01*
X32793Y14608D01*
X32796Y14603D01*
X32711Y14688D01*
X32716Y14684D01*
X32721Y14682D01*
X32726Y14681D01*
X32732Y14681D01*
X32738Y14683D01*
X32745Y14686D01*
X32752Y14690D01*
X32760Y14695D01*
X32768Y14702D01*
X32776Y14710D01*
X32818Y14668D01*
D02*
G37*
G36*
X50404Y14192D02*
X50376Y14167D01*
Y14166D01*
Y14164D01*
Y14160D01*
Y14155D01*
Y14149D01*
Y14142D01*
Y14133D01*
Y14124D01*
Y14113D01*
Y14102D01*
Y14077D01*
Y14050D01*
Y14021D01*
X50377Y13990D01*
Y13960D01*
X50378Y13929D01*
X50379Y13900D01*
X50379Y13872D01*
X50381Y13846D01*
X50383Y13823D01*
X50384Y13812D01*
X50385Y13803D01*
Y13802D01*
X50386Y13798D01*
Y13793D01*
X50388Y13787D01*
X50389Y13778D01*
X50391Y13769D01*
X50392Y13759D01*
X50394Y13749D01*
X50400Y13725D01*
X50407Y13702D01*
X50416Y13679D01*
X50420Y13668D01*
X50425Y13659D01*
Y13658D01*
X50426Y13657D01*
X50429Y13652D01*
X50436Y13642D01*
X50443Y13631D01*
X50453Y13619D01*
X50465Y13606D01*
X50478Y13593D01*
X50491Y13581D01*
X50527Y13734D01*
X50540Y13730D01*
Y13729D01*
Y13727D01*
X50539Y13721D01*
X50539Y13715D01*
Y13707D01*
X50538Y13698D01*
X50537Y13688D01*
X50536Y13677D01*
X50534Y13654D01*
X50533Y13630D01*
Y13606D01*
Y13596D01*
Y13586D01*
Y13585D01*
Y13584D01*
Y13581D01*
X50534Y13578D01*
X50535Y13569D01*
X50536Y13557D01*
X50538Y13545D01*
X50540Y13532D01*
X50543Y13519D01*
X50547Y13508D01*
Y13507D01*
X50548Y13503D01*
X50546Y13499D01*
X50543Y13498D01*
X50540Y13497D01*
X50538D01*
X50534Y13498D01*
X50528Y13500D01*
X50520Y13503D01*
X50510Y13507D01*
X50498Y13513D01*
X50482Y13520D01*
X50481D01*
X50480Y13521D01*
X50475Y13525D01*
X50465Y13532D01*
X50454Y13542D01*
X50448Y13547D01*
X50441Y13555D01*
X50433Y13563D01*
X50425Y13572D01*
X50416Y13582D01*
X50408Y13593D01*
X50399Y13606D01*
X50390Y13620D01*
X50389Y13621D01*
X50388Y13624D01*
X50385Y13629D01*
X50382Y13635D01*
X50379Y13642D01*
X50374Y13652D01*
X50369Y13663D01*
X50365Y13676D01*
X50360Y13690D01*
X50355Y13705D01*
X50350Y13723D01*
X50346Y13741D01*
X50342Y13761D01*
X50339Y13782D01*
X50336Y13804D01*
X50334Y13828D01*
Y13830D01*
Y13835D01*
X50333Y13842D01*
Y13852D01*
X50332Y13865D01*
Y13881D01*
X50331Y13900D01*
X50330Y13921D01*
X50330Y13945D01*
Y13972D01*
X50329Y14000D01*
X50328Y14032D01*
Y14066D01*
X50327Y14102D01*
Y14141D01*
Y14182D01*
X49915D01*
Y14181D01*
Y14178D01*
Y14174D01*
Y14169D01*
Y14162D01*
Y14155D01*
Y14146D01*
Y14136D01*
Y14124D01*
Y14112D01*
Y14086D01*
X49914Y14057D01*
Y14027D01*
X49913Y13964D01*
X49912Y13934D01*
Y13904D01*
X49911Y13877D01*
X49910Y13852D01*
X49910Y13841D01*
X49909Y13831D01*
Y13822D01*
X49908Y13815D01*
Y13814D01*
Y13811D01*
X49907Y13807D01*
X49906Y13802D01*
X49905Y13794D01*
X49904Y13786D01*
X49902Y13777D01*
X49900Y13766D01*
X49898Y13754D01*
X49896Y13742D01*
X49889Y13716D01*
X49881Y13687D01*
X49871Y13657D01*
Y13656D01*
X49869Y13654D01*
X49867Y13649D01*
X49864Y13643D01*
X49861Y13636D01*
X49857Y13627D01*
X49850Y13617D01*
X49844Y13605D01*
X49837Y13593D01*
X49827Y13579D01*
X49817Y13564D01*
X49806Y13548D01*
X49793Y13532D01*
X49779Y13515D01*
X49763Y13497D01*
X49747Y13480D01*
X49737Y13487D01*
X49738Y13488D01*
X49739Y13491D01*
X49743Y13496D01*
X49749Y13503D01*
X49754Y13510D01*
X49761Y13520D01*
X49768Y13531D01*
X49776Y13543D01*
X49785Y13556D01*
X49792Y13569D01*
X49809Y13600D01*
X49823Y13631D01*
X49829Y13647D01*
X49834Y13664D01*
Y13665D01*
X49835Y13667D01*
X49837Y13672D01*
X49837Y13679D01*
X49839Y13687D01*
X49842Y13696D01*
X49844Y13707D01*
X49847Y13719D01*
X49849Y13731D01*
X49851Y13745D01*
X49857Y13776D01*
X49861Y13807D01*
X49862Y13840D01*
Y13841D01*
Y13844D01*
Y13850D01*
X49863Y13856D01*
Y13864D01*
Y13874D01*
X49864Y13884D01*
Y13896D01*
Y13909D01*
X49865Y13923D01*
Y13953D01*
X49866Y13985D01*
Y14017D01*
Y14018D01*
Y14022D01*
Y14028D01*
Y14037D01*
Y14047D01*
Y14058D01*
Y14072D01*
Y14087D01*
X49865Y14103D01*
Y14120D01*
Y14138D01*
X49864Y14157D01*
X49863Y14197D01*
X49862Y14237D01*
X49922Y14202D01*
X50320D01*
X50352Y14241D01*
X50404Y14192D01*
D02*
G37*
G36*
X51334Y13937D02*
X51306Y13915D01*
Y13734D01*
Y13733D01*
Y13732D01*
Y13729D01*
X51305Y13726D01*
X51303Y13716D01*
X51298Y13704D01*
X51294Y13698D01*
X51290Y13692D01*
X51284Y13685D01*
X51277Y13679D01*
X51269Y13673D01*
X51260Y13667D01*
X51249Y13661D01*
X51237Y13656D01*
Y13658D01*
X51235Y13663D01*
X51232Y13670D01*
X51230Y13674D01*
X51226Y13679D01*
X51220Y13684D01*
X51215Y13689D01*
X51207Y13694D01*
X51198Y13699D01*
X51188Y13704D01*
X51176Y13710D01*
X51161Y13715D01*
X51145Y13719D01*
Y13734D01*
X51149D01*
X51153Y13733D01*
X51157Y13732D01*
X51164Y13731D01*
X51170Y13730D01*
X51186Y13729D01*
X51202Y13728D01*
X51218Y13727D01*
X51225Y13726D01*
X51236D01*
X51240Y13727D01*
X51241D01*
X51242Y13728D01*
X51245Y13729D01*
X51249Y13732D01*
X51252Y13736D01*
X51255Y13741D01*
X51256Y13749D01*
X51257Y13758D01*
Y13923D01*
X51076D01*
Y13594D01*
Y13593D01*
Y13593D01*
X51077Y13588D01*
X51079Y13581D01*
X51082Y13573D01*
X51087Y13565D01*
X51095Y13558D01*
X51100Y13556D01*
X51107Y13555D01*
X51113Y13554D01*
X51336D01*
X51340Y13555D01*
X51345Y13556D01*
X51353Y13558D01*
X51359Y13563D01*
X51366Y13569D01*
X51370Y13579D01*
X51373Y13592D01*
Y13593D01*
X51374Y13599D01*
Y13603D01*
Y13608D01*
X51375Y13614D01*
Y13620D01*
X51376Y13629D01*
Y13637D01*
X51377Y13647D01*
X51378Y13657D01*
Y13669D01*
X51378Y13682D01*
Y13695D01*
X51379Y13710D01*
X51397D01*
Y13709D01*
Y13707D01*
Y13704D01*
Y13700D01*
Y13694D01*
X51398Y13688D01*
Y13674D01*
X51399Y13657D01*
X51401Y13641D01*
X51403Y13624D01*
X51405Y13608D01*
X51406Y13606D01*
X51407Y13603D01*
X51410Y13596D01*
X51414Y13589D01*
X51419Y13581D01*
X51427Y13575D01*
X51435Y13569D01*
X51446Y13567D01*
Y13566D01*
X51445Y13564D01*
X51443Y13561D01*
X51441Y13558D01*
X51434Y13549D01*
X51429Y13544D01*
X51424Y13539D01*
X51416Y13533D01*
X51409Y13529D01*
X51400Y13524D01*
X51391Y13519D01*
X51379Y13517D01*
X51366Y13514D01*
X51353Y13512D01*
X51338Y13511D01*
X51081D01*
X51078Y13512D01*
X51069Y13514D01*
X51058Y13518D01*
X51047Y13524D01*
X51043Y13529D01*
X51038Y13533D01*
X51033Y13540D01*
X51031Y13546D01*
X51028Y13555D01*
X51027Y13564D01*
Y13807D01*
Y13808D01*
Y13810D01*
Y13814D01*
Y13818D01*
Y13825D01*
Y13833D01*
Y13841D01*
Y13852D01*
X51026Y13863D01*
Y13876D01*
Y13889D01*
X51025Y13904D01*
Y13920D01*
X51024Y13938D01*
Y13955D01*
X51023Y13975D01*
X51076Y13943D01*
X51251D01*
X51279Y13978D01*
X51334Y13937D01*
D02*
G37*
G36*
X51206Y14247D02*
X51167Y14223D01*
Y14222D01*
X51168Y14222D01*
X51169Y14219D01*
X51171Y14215D01*
X51177Y14206D01*
X51184Y14194D01*
X51194Y14180D01*
X51206Y14163D01*
X51221Y14145D01*
X51238Y14125D01*
X51256Y14105D01*
X51278Y14086D01*
X51301Y14065D01*
X51326Y14047D01*
X51354Y14028D01*
X51383Y14012D01*
X51415Y13998D01*
X51450Y13986D01*
Y13972D01*
X51447D01*
X51444Y13971D01*
X51440D01*
X51431Y13969D01*
X51421Y13965D01*
X51409Y13961D01*
X51398Y13954D01*
X51390Y13945D01*
X51386Y13940D01*
X51383Y13934D01*
X51381Y13935D01*
X51377Y13938D01*
X51369Y13943D01*
X51358Y13951D01*
X51346Y13961D01*
X51331Y13973D01*
X51316Y13987D01*
X51299Y14002D01*
X51280Y14021D01*
X51262Y14041D01*
X51243Y14063D01*
X51224Y14088D01*
X51206Y14115D01*
X51188Y14144D01*
X51171Y14175D01*
X51156Y14209D01*
Y14208D01*
X51156Y14207D01*
X51155Y14204D01*
X51153Y14200D01*
X51147Y14190D01*
X51141Y14177D01*
X51132Y14161D01*
X51121Y14143D01*
X51108Y14123D01*
X51094Y14100D01*
X51079Y14076D01*
X51061Y14052D01*
X51042Y14026D01*
X51020Y14001D01*
X50998Y13976D01*
X50974Y13951D01*
X50949Y13927D01*
X50922Y13905D01*
X50915Y13916D01*
X50917Y13918D01*
X50922Y13924D01*
X50929Y13932D01*
X50939Y13944D01*
X50951Y13960D01*
X50965Y13977D01*
X50980Y13999D01*
X50996Y14023D01*
X51013Y14049D01*
X51031Y14078D01*
X51048Y14109D01*
X51066Y14143D01*
X51082Y14178D01*
X51098Y14216D01*
X51112Y14256D01*
X51125Y14296D01*
X51206Y14247D01*
D02*
G37*
G36*
X50285Y14056D02*
X50254Y14041D01*
Y14040D01*
X50252Y14038D01*
X50250Y14034D01*
X50247Y14029D01*
X50244Y14023D01*
X50239Y14014D01*
X50234Y14005D01*
X50228Y13995D01*
X50222Y13983D01*
X50215Y13971D01*
X50207Y13957D01*
X50199Y13943D01*
X50182Y13912D01*
X50163Y13877D01*
X50164Y13877D01*
X50166Y13874D01*
X50170Y13870D01*
X50175Y13865D01*
X50181Y13859D01*
X50187Y13852D01*
X50203Y13835D01*
X50219Y13816D01*
X50235Y13797D01*
X50249Y13779D01*
X50256Y13771D01*
X50260Y13764D01*
X50261Y13762D01*
X50264Y13757D01*
X50268Y13751D01*
X50273Y13742D01*
X50277Y13732D01*
X50281Y13721D01*
X50284Y13710D01*
X50285Y13699D01*
Y13698D01*
Y13696D01*
Y13693D01*
X50284Y13690D01*
X50283Y13684D01*
X50281Y13679D01*
X50276Y13664D01*
Y13663D01*
X50275Y13661D01*
X50273Y13657D01*
X50271Y13654D01*
X50268Y13650D01*
X50266Y13646D01*
X50264Y13644D01*
X50261Y13643D01*
X50260D01*
X50259Y13644D01*
X50257Y13645D01*
X50255Y13648D01*
X50251Y13652D01*
X50247Y13658D01*
X50244Y13667D01*
X50240Y13679D01*
Y13679D01*
X50239Y13681D01*
X50237Y13684D01*
X50235Y13689D01*
X50232Y13694D01*
X50229Y13701D01*
X50224Y13709D01*
X50219Y13719D01*
X50213Y13730D01*
X50206Y13742D01*
X50197Y13756D01*
X50188Y13771D01*
X50177Y13788D01*
X50166Y13805D01*
X50153Y13825D01*
X50138Y13846D01*
X50137Y13844D01*
X50134Y13840D01*
X50129Y13832D01*
X50121Y13822D01*
X50112Y13810D01*
X50101Y13795D01*
X50089Y13779D01*
X50074Y13762D01*
X50058Y13743D01*
X50039Y13723D01*
X50020Y13704D01*
X49998Y13682D01*
X49975Y13662D01*
X49951Y13642D01*
X49925Y13621D01*
X49898Y13602D01*
X49890Y13612D01*
X49892Y13613D01*
X49896Y13617D01*
X49903Y13623D01*
X49912Y13631D01*
X49923Y13642D01*
X49936Y13655D01*
X49951Y13669D01*
X49967Y13686D01*
X49984Y13704D01*
X50002Y13725D01*
X50021Y13746D01*
X50039Y13769D01*
X50058Y13794D01*
X50077Y13821D01*
X50096Y13849D01*
X50114Y13877D01*
X50113Y13878D01*
X50112Y13880D01*
X50109Y13883D01*
X50106Y13888D01*
X50101Y13893D01*
X50096Y13900D01*
X50089Y13908D01*
X50081Y13918D01*
X50071Y13928D01*
X50060Y13940D01*
X50049Y13954D01*
X50036Y13969D01*
X50022Y13985D01*
X50006Y14002D01*
X49989Y14021D01*
X49971Y14041D01*
X49981Y14049D01*
X49982Y14048D01*
X49984Y14046D01*
X49988Y14043D01*
X49994Y14038D01*
X50000Y14033D01*
X50009Y14025D01*
X50018Y14018D01*
X50027Y14010D01*
X50050Y13989D01*
X50076Y13966D01*
X50103Y13940D01*
X50132Y13913D01*
Y13914D01*
X50132Y13914D01*
X50134Y13917D01*
X50136Y13921D01*
X50142Y13931D01*
X50148Y13943D01*
X50156Y13958D01*
X50164Y13975D01*
X50171Y13993D01*
X50180Y14012D01*
Y14013D01*
X50181Y14013D01*
X50182Y14016D01*
X50183Y14020D01*
X50187Y14030D01*
X50193Y14043D01*
X50198Y14058D01*
X50204Y14074D01*
X50216Y14108D01*
X50285Y14056D01*
D02*
G37*
G36*
X50860Y14254D02*
X50828Y14230D01*
Y14069D01*
X50870D01*
X50911Y14111D01*
X50974Y14049D01*
X50828D01*
Y13957D01*
X50829D01*
X50832Y13955D01*
X50835Y13953D01*
X50840Y13951D01*
X50847Y13948D01*
X50853Y13944D01*
X50869Y13935D01*
X50885Y13926D01*
X50901Y13915D01*
X50908Y13910D01*
X50914Y13905D01*
X50920Y13901D01*
X50923Y13896D01*
X50924Y13895D01*
X50926Y13892D01*
X50930Y13888D01*
X50934Y13882D01*
X50936Y13876D01*
X50940Y13868D01*
X50942Y13861D01*
X50943Y13852D01*
Y13852D01*
Y13850D01*
Y13846D01*
X50942Y13841D01*
X50939Y13829D01*
X50934Y13815D01*
Y13815D01*
X50933Y13813D01*
X50929Y13806D01*
X50925Y13800D01*
X50923Y13798D01*
X50922Y13797D01*
X50922D01*
X50921Y13798D01*
X50918Y13799D01*
X50915Y13802D01*
X50911Y13805D01*
X50908Y13812D01*
X50902Y13820D01*
X50897Y13831D01*
Y13832D01*
X50897Y13834D01*
X50896Y13837D01*
X50894Y13840D01*
X50891Y13845D01*
X50888Y13851D01*
X50881Y13865D01*
X50872Y13881D01*
X50860Y13900D01*
X50845Y13919D01*
X50828Y13940D01*
Y13939D01*
Y13936D01*
Y13931D01*
Y13924D01*
Y13915D01*
Y13904D01*
Y13893D01*
Y13879D01*
Y13865D01*
Y13850D01*
Y13833D01*
Y13816D01*
Y13780D01*
Y13742D01*
X50829Y13704D01*
Y13666D01*
Y13629D01*
Y13594D01*
Y13579D01*
X50830Y13564D01*
Y13551D01*
Y13538D01*
Y13528D01*
X50831Y13519D01*
Y13510D01*
Y13505D01*
X50775Y13476D01*
Y13477D01*
Y13478D01*
Y13483D01*
Y13493D01*
X50776Y13505D01*
Y13521D01*
Y13541D01*
X50777Y13563D01*
Y13589D01*
Y13618D01*
X50778Y13649D01*
Y13684D01*
Y13721D01*
X50779Y13762D01*
Y13804D01*
Y13850D01*
Y13898D01*
X50778Y13896D01*
X50776Y13891D01*
X50773Y13884D01*
X50768Y13874D01*
X50762Y13861D01*
X50755Y13847D01*
X50748Y13831D01*
X50738Y13814D01*
X50728Y13795D01*
X50718Y13776D01*
X50695Y13736D01*
X50669Y13697D01*
X50656Y13679D01*
X50642Y13661D01*
X50632Y13667D01*
Y13668D01*
X50633Y13669D01*
X50635Y13672D01*
X50637Y13676D01*
X50641Y13685D01*
X50649Y13698D01*
X50657Y13715D01*
X50666Y13734D01*
X50676Y13756D01*
X50687Y13780D01*
X50700Y13808D01*
X50711Y13838D01*
X50723Y13869D01*
X50734Y13902D01*
X50745Y13937D01*
X50755Y13973D01*
X50764Y14011D01*
X50772Y14049D01*
X50691D01*
X50660Y14041D01*
X50632Y14069D01*
X50779D01*
Y14071D01*
Y14075D01*
Y14083D01*
Y14093D01*
Y14105D01*
Y14119D01*
Y14135D01*
Y14151D01*
X50778Y14170D01*
Y14188D01*
X50777Y14227D01*
X50776Y14265D01*
Y14284D01*
X50775Y14300D01*
X50860Y14254D01*
D02*
G37*
G36*
X49117Y14265D02*
X49089Y14240D01*
Y14114D01*
X49132D01*
X49170Y14153D01*
X49222Y14094D01*
X49089D01*
Y13971D01*
X49090D01*
X49091Y13972D01*
X49094Y13973D01*
X49097Y13974D01*
X49101Y13975D01*
X49107Y13976D01*
X49120Y13981D01*
X49137Y13987D01*
X49158Y13993D01*
X49182Y14000D01*
X49208Y14010D01*
X49211Y13996D01*
X49210D01*
X49208Y13994D01*
X49204Y13992D01*
X49198Y13990D01*
X49192Y13988D01*
X49183Y13984D01*
X49166Y13975D01*
X49146Y13966D01*
X49126Y13957D01*
X49107Y13948D01*
X49089Y13939D01*
Y13793D01*
Y13792D01*
Y13791D01*
Y13787D01*
X49088Y13782D01*
Y13777D01*
X49086Y13771D01*
X49082Y13756D01*
X49078Y13749D01*
X49073Y13741D01*
X49068Y13733D01*
X49061Y13726D01*
X49053Y13718D01*
X49044Y13711D01*
X49033Y13704D01*
X49020Y13699D01*
Y13700D01*
Y13701D01*
X49018Y13706D01*
X49014Y13715D01*
X49011Y13719D01*
X49008Y13725D01*
X49003Y13730D01*
X48998Y13736D01*
X48991Y13741D01*
X48983Y13747D01*
X48973Y13753D01*
X48962Y13758D01*
X48949Y13764D01*
X48936Y13768D01*
Y13782D01*
X48938D01*
X48941Y13781D01*
X48946D01*
X48957Y13780D01*
X48970Y13779D01*
X48984Y13778D01*
X48998Y13777D01*
X49010Y13776D01*
X49024D01*
X49028Y13777D01*
X49033Y13778D01*
X49036Y13781D01*
X49040Y13786D01*
X49043Y13791D01*
X49044Y13800D01*
Y13922D01*
X49042Y13921D01*
X49038Y13920D01*
X49032Y13917D01*
X49023Y13914D01*
X49014Y13910D01*
X49003Y13905D01*
X48978Y13894D01*
X48952Y13882D01*
X48940Y13876D01*
X48929Y13869D01*
X48918Y13863D01*
X48909Y13856D01*
X48902Y13851D01*
X48897Y13845D01*
X48855Y13908D01*
X48858D01*
X48861Y13909D01*
X48865Y13910D01*
X48872Y13911D01*
X48879Y13913D01*
X48888Y13914D01*
X48899Y13917D01*
X48911Y13920D01*
X48924Y13923D01*
X48940Y13927D01*
X48957Y13932D01*
X48976Y13937D01*
X48997Y13943D01*
X49020Y13950D01*
X49044Y13957D01*
Y14094D01*
X48991D01*
X48982Y14093D01*
X48971D01*
X48958Y14091D01*
X48944Y14089D01*
X48929Y14087D01*
X48914Y14083D01*
X48883Y14114D01*
X49044D01*
Y14116D01*
Y14120D01*
Y14127D01*
Y14136D01*
Y14148D01*
Y14160D01*
Y14173D01*
Y14188D01*
X49043Y14219D01*
X49042Y14248D01*
Y14262D01*
X49041Y14275D01*
Y14287D01*
X49040Y14296D01*
X49117Y14265D01*
D02*
G37*
G36*
X49390Y14254D02*
X49362Y14230D01*
Y14229D01*
Y14226D01*
Y14221D01*
X49361Y14215D01*
Y14208D01*
Y14199D01*
X49360Y14181D01*
X49359Y14161D01*
Y14143D01*
X49358Y14135D01*
Y14128D01*
Y14123D01*
Y14118D01*
X49463Y14122D01*
X49484Y14157D01*
X49537Y14115D01*
X49509Y14094D01*
Y14093D01*
Y14091D01*
X49508Y14087D01*
X49507Y14082D01*
X49506Y14075D01*
X49505Y14068D01*
X49503Y14051D01*
X49502Y14033D01*
X49500Y14013D01*
X49499Y13994D01*
X49498Y13975D01*
Y13975D01*
Y13973D01*
Y13970D01*
Y13965D01*
X49499Y13960D01*
Y13953D01*
X49501Y13938D01*
X49503Y13921D01*
X49506Y13901D01*
X49511Y13880D01*
X49517Y13859D01*
Y13858D01*
X49518Y13856D01*
X49519Y13853D01*
X49521Y13850D01*
X49526Y13840D01*
X49532Y13828D01*
X49541Y13816D01*
X49552Y13803D01*
X49564Y13792D01*
X49578Y13783D01*
Y13784D01*
X49579Y13787D01*
X49580Y13791D01*
X49581Y13798D01*
X49583Y13804D01*
X49585Y13814D01*
X49587Y13823D01*
X49589Y13833D01*
X49594Y13854D01*
X49599Y13877D01*
X49604Y13899D01*
X49610Y13919D01*
X49624D01*
Y13918D01*
Y13916D01*
X49623Y13913D01*
Y13908D01*
X49622Y13902D01*
Y13896D01*
X49621Y13880D01*
X49619Y13863D01*
Y13844D01*
X49618Y13827D01*
Y13809D01*
Y13808D01*
Y13807D01*
X49619Y13802D01*
X49620Y13793D01*
X49621Y13783D01*
X49623Y13772D01*
X49626Y13759D01*
X49630Y13746D01*
X49635Y13734D01*
Y13733D01*
X49636Y13730D01*
X49637Y13728D01*
X49638Y13724D01*
X49637Y13719D01*
X49635Y13716D01*
X49630Y13714D01*
X49624Y13713D01*
X49622D01*
X49619Y13714D01*
X49615Y13715D01*
X49609Y13716D01*
X49600Y13718D01*
X49588Y13722D01*
X49573Y13727D01*
X49572D01*
X49571Y13728D01*
X49565Y13729D01*
X49557Y13734D01*
X49547Y13741D01*
X49535Y13751D01*
X49522Y13764D01*
X49516Y13771D01*
X49509Y13779D01*
X49503Y13790D01*
X49496Y13800D01*
Y13801D01*
X49494Y13803D01*
X49493Y13805D01*
X49491Y13810D01*
X49489Y13815D01*
X49485Y13821D01*
X49479Y13836D01*
X49472Y13852D01*
X49467Y13870D01*
X49462Y13889D01*
X49459Y13907D01*
Y13908D01*
Y13909D01*
Y13914D01*
X49458Y13924D01*
Y13934D01*
X49457Y13945D01*
Y13957D01*
X49456Y13968D01*
Y13978D01*
Y13979D01*
Y13981D01*
Y13984D01*
Y13988D01*
Y13993D01*
Y14000D01*
X49457Y14015D01*
X49458Y14033D01*
X49459Y14054D01*
X49461Y14077D01*
X49463Y14101D01*
X49358Y14098D01*
Y14097D01*
Y14093D01*
Y14087D01*
X49357Y14080D01*
Y14071D01*
X49356Y14060D01*
X49356Y14049D01*
X49355Y14036D01*
X49352Y14008D01*
X49348Y13980D01*
X49343Y13952D01*
X49340Y13938D01*
X49337Y13926D01*
X49338Y13926D01*
X49340Y13925D01*
X49343Y13922D01*
X49348Y13918D01*
X49359Y13909D01*
X49373Y13897D01*
X49387Y13885D01*
X49399Y13872D01*
X49405Y13866D01*
X49408Y13861D01*
X49412Y13855D01*
X49414Y13851D01*
Y13850D01*
X49415Y13847D01*
X49417Y13843D01*
X49417Y13839D01*
X49420Y13828D01*
X49421Y13825D01*
Y13821D01*
Y13819D01*
X49420Y13814D01*
X49418Y13805D01*
X49414Y13793D01*
Y13792D01*
X49413Y13791D01*
X49410Y13785D01*
X49405Y13778D01*
X49403Y13777D01*
X49400Y13776D01*
X49399Y13777D01*
X49397Y13778D01*
X49395Y13779D01*
X49392Y13782D01*
X49389Y13788D01*
X49384Y13794D01*
X49380Y13803D01*
Y13804D01*
X49379Y13805D01*
X49376Y13811D01*
X49371Y13819D01*
X49364Y13830D01*
X49356Y13843D01*
X49345Y13859D01*
X49334Y13875D01*
X49320Y13891D01*
X49319Y13889D01*
X49317Y13886D01*
X49313Y13879D01*
X49307Y13871D01*
X49300Y13861D01*
X49292Y13849D01*
X49282Y13836D01*
X49270Y13821D01*
X49257Y13806D01*
X49244Y13791D01*
X49230Y13777D01*
X49214Y13762D01*
X49197Y13747D01*
X49180Y13733D01*
X49161Y13720D01*
X49142Y13709D01*
X49134Y13720D01*
X49135Y13721D01*
X49139Y13724D01*
X49145Y13729D01*
X49152Y13735D01*
X49160Y13743D01*
X49170Y13753D01*
X49182Y13764D01*
X49193Y13777D01*
X49205Y13791D01*
X49218Y13805D01*
X49231Y13822D01*
X49243Y13840D01*
X49255Y13858D01*
X49266Y13877D01*
X49276Y13898D01*
X49285Y13919D01*
X49283Y13921D01*
X49280Y13925D01*
X49273Y13930D01*
X49265Y13938D01*
X49256Y13948D01*
X49244Y13957D01*
X49232Y13968D01*
X49219Y13978D01*
X49226Y13989D01*
X49227D01*
X49228Y13988D01*
X49234Y13986D01*
X49243Y13980D01*
X49253Y13975D01*
X49264Y13968D01*
X49276Y13961D01*
X49286Y13953D01*
X49295Y13947D01*
Y13948D01*
X49296Y13950D01*
Y13954D01*
X49297Y13959D01*
X49299Y13965D01*
X49300Y13973D01*
X49301Y13982D01*
X49303Y13991D01*
X49306Y14013D01*
X49308Y14038D01*
X49311Y14065D01*
X49313Y14094D01*
X49257Y14090D01*
X49243Y14080D01*
X49215Y14111D01*
X49313Y14115D01*
Y14117D01*
Y14121D01*
Y14126D01*
Y14135D01*
Y14145D01*
Y14156D01*
Y14169D01*
Y14183D01*
X49312Y14210D01*
X49311Y14240D01*
Y14254D01*
X49310Y14267D01*
Y14279D01*
X49309Y14289D01*
X49390Y14254D01*
D02*
G37*
G36*
X49296Y13687D02*
X49298Y13685D01*
X49302Y13682D01*
X49307Y13679D01*
X49319Y13667D01*
X49333Y13655D01*
X49348Y13642D01*
X49361Y13628D01*
X49368Y13622D01*
X49372Y13616D01*
X49376Y13610D01*
X49379Y13606D01*
X49380Y13605D01*
X49380Y13602D01*
X49382Y13598D01*
X49384Y13593D01*
X49388Y13582D01*
X49390Y13578D01*
Y13573D01*
Y13572D01*
Y13569D01*
X49389Y13566D01*
X49388Y13561D01*
X49386Y13556D01*
X49383Y13549D01*
X49380Y13543D01*
X49374Y13536D01*
X49373Y13535D01*
X49371Y13533D01*
X49366Y13528D01*
X49359Y13521D01*
X49356Y13519D01*
X49355Y13519D01*
X49354D01*
X49353Y13519D01*
X49350Y13520D01*
X49347Y13524D01*
X49343Y13529D01*
X49340Y13536D01*
X49337Y13546D01*
X49335Y13553D01*
X49334Y13560D01*
Y13561D01*
X49333Y13563D01*
Y13567D01*
X49332Y13571D01*
X49331Y13577D01*
X49329Y13583D01*
X49324Y13599D01*
X49318Y13617D01*
X49309Y13638D01*
X49298Y13659D01*
X49285Y13681D01*
X49295Y13688D01*
X49296Y13687D01*
D02*
G37*
G36*
X49121Y13680D02*
X49123Y13679D01*
X49127Y13676D01*
X49131Y13671D01*
X49136Y13666D01*
X49142Y13660D01*
X49155Y13645D01*
X49169Y13630D01*
X49181Y13614D01*
X49186Y13606D01*
X49191Y13598D01*
X49195Y13591D01*
X49197Y13584D01*
X49198Y13582D01*
X49199Y13579D01*
X49200Y13572D01*
Y13565D01*
Y13556D01*
X49197Y13547D01*
X49194Y13539D01*
X49187Y13531D01*
X49186Y13530D01*
X49183Y13528D01*
X49180Y13524D01*
X49176Y13521D01*
X49167Y13514D01*
X49162Y13512D01*
X49159Y13511D01*
X49158D01*
X49158Y13512D01*
X49155Y13513D01*
X49152Y13517D01*
X49149Y13521D01*
X49146Y13529D01*
X49144Y13539D01*
X49143Y13545D01*
X49142Y13553D01*
Y13554D01*
Y13556D01*
X49141Y13558D01*
Y13563D01*
X49140Y13569D01*
X49139Y13575D01*
X49138Y13582D01*
X49136Y13591D01*
X49132Y13609D01*
X49125Y13630D01*
X49117Y13654D01*
X49107Y13678D01*
X49121Y13681D01*
X49121Y13680D01*
D02*
G37*
G36*
X48988Y13687D02*
Y13683D01*
Y13677D01*
Y13669D01*
X48987Y13660D01*
Y13650D01*
X48986Y13638D01*
X48986Y13626D01*
X48983Y13601D01*
X48979Y13577D01*
X48977Y13566D01*
X48974Y13556D01*
X48971Y13546D01*
X48967Y13539D01*
X48966Y13537D01*
X48963Y13533D01*
X48959Y13529D01*
X48953Y13523D01*
X48945Y13518D01*
X48936Y13513D01*
X48927Y13511D01*
X48922D01*
X48916Y13512D01*
X48915D01*
X48911Y13513D01*
X48907Y13515D01*
X48901Y13517D01*
X48896Y13519D01*
X48891Y13523D01*
X48887Y13528D01*
X48887Y13532D01*
Y13533D01*
Y13534D01*
X48888Y13539D01*
X48891Y13543D01*
X48894Y13547D01*
X48899Y13552D01*
X48904Y13556D01*
X48906Y13558D01*
X48908Y13560D01*
X48911Y13563D01*
X48913Y13568D01*
X48917Y13572D01*
X48922Y13579D01*
X48926Y13586D01*
X48931Y13594D01*
X48936Y13604D01*
X48943Y13615D01*
X48948Y13627D01*
X48955Y13640D01*
X48961Y13655D01*
X48968Y13670D01*
X48974Y13688D01*
X48988D01*
Y13687D01*
D02*
G37*
G36*
X49481Y13694D02*
X49484Y13692D01*
X49489Y13690D01*
X49494Y13686D01*
X49501Y13680D01*
X49508Y13675D01*
X49525Y13663D01*
X49541Y13649D01*
X49558Y13635D01*
X49565Y13628D01*
X49572Y13622D01*
X49577Y13617D01*
X49580Y13611D01*
X49581Y13610D01*
X49583Y13607D01*
X49585Y13603D01*
X49589Y13597D01*
X49593Y13584D01*
X49595Y13577D01*
X49596Y13570D01*
Y13569D01*
Y13567D01*
X49595Y13562D01*
X49594Y13556D01*
X49592Y13549D01*
X49590Y13542D01*
X49587Y13534D01*
X49582Y13527D01*
X49581Y13526D01*
X49580Y13524D01*
X49575Y13518D01*
X49567Y13510D01*
X49564Y13508D01*
X49561Y13507D01*
X49559Y13508D01*
X49557Y13509D01*
X49555Y13512D01*
X49553Y13517D01*
X49549Y13524D01*
X49546Y13533D01*
X49543Y13546D01*
Y13547D01*
X49542Y13549D01*
Y13552D01*
X49541Y13556D01*
X49539Y13562D01*
X49537Y13569D01*
X49534Y13576D01*
X49530Y13585D01*
X49526Y13594D01*
X49521Y13606D01*
X49515Y13618D01*
X49508Y13630D01*
X49501Y13643D01*
X49491Y13657D01*
X49481Y13673D01*
X49470Y13689D01*
X49480Y13695D01*
X49481Y13694D01*
D02*
G37*
G36*
X37803Y14371D02*
X37776Y14350D01*
Y13731D01*
Y13730D01*
Y13727D01*
X37775Y13721D01*
X37774Y13714D01*
X37771Y13698D01*
X37767Y13691D01*
X37764Y13683D01*
X37763Y13682D01*
X37761Y13680D01*
X37758Y13677D01*
X37753Y13672D01*
X37747Y13667D01*
X37739Y13661D01*
X37728Y13655D01*
X37716Y13648D01*
Y13649D01*
X37715Y13651D01*
X37714Y13653D01*
X37711Y13656D01*
X37707Y13661D01*
X37703Y13666D01*
X37698Y13671D01*
X37691Y13677D01*
X37684Y13682D01*
X37675Y13689D01*
X37665Y13694D01*
X37653Y13700D01*
X37640Y13705D01*
X37625Y13710D01*
X37609Y13715D01*
X37591Y13718D01*
Y13735D01*
X37591D01*
X37595Y13734D01*
X37601D01*
X37608Y13733D01*
X37616Y13732D01*
X37626Y13731D01*
X37647Y13729D01*
X37668Y13727D01*
X37678D01*
X37689Y13726D01*
X37697Y13725D01*
X37711D01*
X37715Y13726D01*
X37715D01*
X37717Y13727D01*
X37719Y13728D01*
X37723Y13730D01*
X37726Y13733D01*
X37727Y13739D01*
X37729Y13744D01*
X37730Y13753D01*
Y14368D01*
X37545D01*
X37604Y14339D01*
X37579Y14319D01*
Y14245D01*
X37618D01*
X37653Y14280D01*
X37705Y14224D01*
X37579D01*
Y14126D01*
X37632D01*
X37671Y14165D01*
X37727Y14106D01*
X37506D01*
X37497Y14105D01*
X37486D01*
X37473Y14103D01*
X37459Y14101D01*
X37444Y14099D01*
X37430Y14095D01*
X37398Y14126D01*
X37538D01*
Y14224D01*
X37527D01*
X37517Y14223D01*
X37506D01*
X37494Y14222D01*
X37480Y14220D01*
X37466Y14217D01*
X37451Y14213D01*
X37419Y14245D01*
X37538D01*
Y14246D01*
Y14247D01*
Y14251D01*
Y14257D01*
Y14262D01*
Y14270D01*
Y14286D01*
X37537Y14306D01*
X37536Y14326D01*
X37535Y14347D01*
X37534Y14368D01*
X37394D01*
Y14074D01*
Y14073D01*
Y14071D01*
Y14066D01*
Y14061D01*
Y14054D01*
Y14047D01*
Y14037D01*
Y14026D01*
X37394Y14015D01*
X37393Y14003D01*
X37391Y13976D01*
X37387Y13946D01*
X37382Y13914D01*
X37375Y13879D01*
X37366Y13844D01*
X37354Y13809D01*
X37340Y13774D01*
X37322Y13740D01*
X37303Y13706D01*
X37291Y13691D01*
X37279Y13676D01*
X37265Y13662D01*
X37251Y13648D01*
X37245Y13659D01*
X37246Y13661D01*
X37249Y13666D01*
X37255Y13674D01*
X37261Y13685D01*
X37270Y13700D01*
X37279Y13717D01*
X37289Y13736D01*
X37299Y13757D01*
X37308Y13781D01*
X37319Y13807D01*
X37328Y13836D01*
X37336Y13865D01*
X37343Y13897D01*
X37348Y13929D01*
X37352Y13963D01*
X37353Y13999D01*
Y14000D01*
Y14000D01*
Y14003D01*
Y14007D01*
Y14016D01*
Y14029D01*
Y14045D01*
Y14062D01*
Y14082D01*
Y14102D01*
Y14144D01*
Y14165D01*
Y14186D01*
Y14205D01*
Y14223D01*
Y14239D01*
Y14252D01*
Y14253D01*
Y14255D01*
Y14259D01*
Y14263D01*
Y14270D01*
Y14277D01*
Y14286D01*
Y14296D01*
X37352Y14308D01*
Y14320D01*
Y14333D01*
X37351Y14347D01*
Y14363D01*
X37350Y14380D01*
Y14397D01*
X37349Y14416D01*
X37402Y14388D01*
X37723D01*
X37754Y14420D01*
X37803Y14371D01*
D02*
G37*
G36*
X39629Y14364D02*
X39381D01*
X39437Y14333D01*
X39436Y14332D01*
X39432Y14331D01*
X39428Y14328D01*
X39421Y14325D01*
X39407Y14317D01*
X39400Y14311D01*
X39393Y14306D01*
X39392Y14305D01*
X39391Y14303D01*
X39387Y14298D01*
X39381Y14292D01*
X39374Y14284D01*
X39366Y14272D01*
X39355Y14259D01*
X39343Y14242D01*
X39500D01*
X39525Y14277D01*
X39577Y14232D01*
X39549Y14207D01*
Y14206D01*
Y14204D01*
Y14201D01*
Y14198D01*
Y14192D01*
Y14186D01*
Y14173D01*
Y14156D01*
Y14136D01*
Y14116D01*
X39550Y14095D01*
Y14051D01*
Y14031D01*
X39551Y14012D01*
Y13995D01*
X39552Y13980D01*
Y13975D01*
Y13969D01*
X39552Y13964D01*
Y13962D01*
X39503Y13938D01*
Y13973D01*
X39413D01*
Y13742D01*
Y13741D01*
Y13740D01*
Y13736D01*
X39412Y13731D01*
X39411Y13726D01*
X39410Y13719D01*
X39405Y13705D01*
X39401Y13697D01*
X39396Y13690D01*
X39391Y13682D01*
X39383Y13675D01*
X39375Y13668D01*
X39365Y13662D01*
X39353Y13656D01*
X39339Y13652D01*
Y13653D01*
Y13654D01*
X39337Y13660D01*
X39333Y13668D01*
X39331Y13673D01*
X39328Y13679D01*
X39323Y13684D01*
X39318Y13690D01*
X39310Y13695D01*
X39303Y13701D01*
X39293Y13705D01*
X39282Y13710D01*
X39269Y13715D01*
X39256Y13718D01*
Y13731D01*
X39263D01*
X39271Y13730D01*
X39282Y13729D01*
X39294D01*
X39307Y13729D01*
X39320Y13728D01*
X39337D01*
X39343Y13729D01*
X39348Y13730D01*
X39354Y13733D01*
X39359Y13738D01*
X39363Y13744D01*
X39364Y13753D01*
Y13973D01*
X39273D01*
Y13955D01*
X39224Y13934D01*
Y13935D01*
Y13938D01*
Y13943D01*
X39225Y13950D01*
Y13957D01*
Y13967D01*
X39226Y13977D01*
Y13989D01*
Y14002D01*
X39227Y14015D01*
Y14044D01*
X39228Y14074D01*
Y14105D01*
Y14106D01*
Y14109D01*
Y14113D01*
Y14119D01*
Y14126D01*
Y14136D01*
Y14145D01*
Y14156D01*
X39227Y14168D01*
Y14181D01*
X39226Y14209D01*
X39225Y14239D01*
X39224Y14270D01*
X39273Y14242D01*
X39322D01*
Y14243D01*
X39324Y14246D01*
X39325Y14249D01*
X39328Y14255D01*
X39330Y14261D01*
X39333Y14270D01*
X39341Y14287D01*
X39347Y14307D01*
X39355Y14327D01*
X39360Y14346D01*
X39364Y14364D01*
X39150D01*
Y14362D01*
Y14358D01*
Y14350D01*
Y14340D01*
Y14327D01*
Y14311D01*
Y14295D01*
Y14276D01*
Y14255D01*
Y14234D01*
X39149Y14210D01*
Y14187D01*
Y14137D01*
X39148Y14087D01*
Y14086D01*
Y14082D01*
Y14074D01*
X39147Y14065D01*
X39146Y14053D01*
X39145Y14040D01*
X39144Y14025D01*
X39142Y14008D01*
X39139Y13990D01*
X39135Y13971D01*
X39127Y13931D01*
X39121Y13911D01*
X39115Y13890D01*
X39107Y13870D01*
X39098Y13850D01*
X39097Y13849D01*
X39096Y13845D01*
X39093Y13840D01*
X39089Y13832D01*
X39084Y13823D01*
X39078Y13812D01*
X39071Y13800D01*
X39061Y13786D01*
X39052Y13771D01*
X39041Y13755D01*
X39029Y13739D01*
X39016Y13722D01*
X39001Y13704D01*
X38985Y13687D01*
X38969Y13669D01*
X38951Y13652D01*
X38945Y13663D01*
X38946Y13664D01*
X38948Y13667D01*
X38953Y13674D01*
X38959Y13681D01*
X38966Y13692D01*
X38974Y13703D01*
X38983Y13716D01*
X38993Y13730D01*
X39003Y13747D01*
X39013Y13764D01*
X39023Y13782D01*
X39033Y13801D01*
X39051Y13841D01*
X39059Y13862D01*
X39067Y13883D01*
Y13884D01*
X39069Y13889D01*
X39071Y13895D01*
X39072Y13903D01*
X39075Y13914D01*
X39078Y13927D01*
X39081Y13943D01*
X39084Y13961D01*
X39088Y13980D01*
X39091Y14001D01*
X39094Y14025D01*
X39096Y14049D01*
X39099Y14075D01*
X39100Y14103D01*
X39102Y14132D01*
Y14162D01*
Y14163D01*
Y14164D01*
Y14170D01*
Y14178D01*
Y14190D01*
Y14204D01*
Y14220D01*
Y14237D01*
Y14257D01*
X39101Y14277D01*
Y14298D01*
X39100Y14341D01*
Y14362D01*
X39099Y14383D01*
Y14402D01*
X39098Y14420D01*
X39150Y14384D01*
X39514D01*
X39563Y14434D01*
X39629Y14364D01*
D02*
G37*
G36*
X38893Y14429D02*
X38898Y14427D01*
X38904Y14423D01*
X38912Y14420D01*
X38921Y14416D01*
X38940Y14406D01*
X38960Y14395D01*
X38970Y14389D01*
X38978Y14383D01*
X38986Y14376D01*
X38993Y14370D01*
X38997Y14364D01*
X39000Y14358D01*
Y14358D01*
X39001Y14354D01*
X39003Y14348D01*
Y14341D01*
Y14333D01*
X39002Y14323D01*
X38999Y14315D01*
X38995Y14306D01*
X38994Y14305D01*
X38992Y14302D01*
X38989Y14298D01*
X38986Y14295D01*
X38983Y14291D01*
X38979Y14287D01*
X38975Y14284D01*
X38973Y14284D01*
X38972D01*
X38971Y14284D01*
X38968Y14285D01*
X38965Y14287D01*
X38961Y14291D01*
X38958Y14296D01*
X38954Y14303D01*
X38951Y14312D01*
Y14313D01*
X38950Y14314D01*
X38949Y14317D01*
X38948Y14321D01*
X38943Y14330D01*
X38936Y14343D01*
X38926Y14358D01*
X38914Y14377D01*
X38899Y14397D01*
X38882Y14420D01*
X38888Y14431D01*
X38889D01*
X38893Y14429D01*
D02*
G37*
G36*
X37125Y14433D02*
X37128Y14432D01*
X37133Y14430D01*
X37143Y14424D01*
X37156Y14417D01*
X37171Y14408D01*
X37185Y14399D01*
X37199Y14390D01*
X37211Y14380D01*
X37212Y14379D01*
X37216Y14375D01*
X37221Y14370D01*
X37226Y14363D01*
X37232Y14355D01*
X37236Y14346D01*
X37240Y14335D01*
X37241Y14325D01*
Y14324D01*
Y14321D01*
X37240Y14316D01*
X37239Y14310D01*
X37236Y14298D01*
X37233Y14294D01*
X37229Y14290D01*
X37228D01*
X37227Y14289D01*
X37222Y14287D01*
X37217Y14284D01*
X37213Y14284D01*
X37212D01*
X37210Y14284D01*
X37207Y14285D01*
X37203Y14288D01*
X37198Y14293D01*
X37194Y14300D01*
X37189Y14309D01*
X37185Y14322D01*
Y14323D01*
X37184Y14324D01*
X37184Y14327D01*
X37182Y14331D01*
X37177Y14340D01*
X37170Y14352D01*
X37160Y14367D01*
X37148Y14384D01*
X37134Y14403D01*
X37115Y14423D01*
X37123Y14434D01*
X37123D01*
X37125Y14433D01*
D02*
G37*
G36*
X38356Y14420D02*
X38329Y14395D01*
Y14272D01*
X38541D01*
X38577Y14308D01*
X38626Y14259D01*
X38594Y14235D01*
Y14234D01*
Y14232D01*
Y14228D01*
Y14222D01*
Y14216D01*
Y14209D01*
Y14199D01*
Y14190D01*
Y14168D01*
Y14143D01*
Y14115D01*
X38595Y14087D01*
Y14026D01*
Y13998D01*
X38596Y13970D01*
Y13944D01*
X38597Y13921D01*
Y13911D01*
Y13902D01*
X38598Y13893D01*
Y13886D01*
X38545Y13861D01*
Y13903D01*
X38329D01*
Y13745D01*
Y13743D01*
X38330Y13740D01*
X38331Y13733D01*
X38334Y13727D01*
X38339Y13720D01*
X38346Y13714D01*
X38356Y13710D01*
X38363Y13708D01*
X38613D01*
X38616Y13709D01*
X38622Y13711D01*
X38627Y13714D01*
X38634Y13718D01*
X38640Y13725D01*
X38644Y13733D01*
X38646Y13744D01*
Y13746D01*
Y13748D01*
X38647Y13751D01*
Y13755D01*
X38648Y13760D01*
Y13766D01*
X38649Y13773D01*
Y13781D01*
X38650Y13791D01*
Y13803D01*
X38651Y13815D01*
X38652Y13828D01*
X38652Y13843D01*
Y13860D01*
X38653Y13878D01*
X38671D01*
Y13877D01*
Y13875D01*
Y13870D01*
Y13865D01*
Y13857D01*
X38672Y13850D01*
X38673Y13831D01*
X38674Y13812D01*
X38677Y13793D01*
X38677Y13784D01*
X38679Y13776D01*
X38681Y13769D01*
X38683Y13763D01*
X38684Y13762D01*
X38685Y13758D01*
X38689Y13754D01*
X38692Y13747D01*
X38698Y13740D01*
X38703Y13732D01*
X38712Y13725D01*
X38720Y13718D01*
X38719Y13717D01*
X38717Y13714D01*
X38714Y13709D01*
X38711Y13703D01*
X38705Y13696D01*
X38700Y13690D01*
X38692Y13684D01*
X38685Y13679D01*
X38684Y13678D01*
X38681Y13677D01*
X38677Y13675D01*
X38669Y13672D01*
X38661Y13669D01*
X38651Y13667D01*
X38640Y13667D01*
X38626Y13666D01*
X38350D01*
X38346Y13667D01*
X38342D01*
X38330Y13669D01*
X38317Y13674D01*
X38309Y13678D01*
X38303Y13682D01*
X38296Y13688D01*
X38291Y13695D01*
X38286Y13703D01*
X38282Y13712D01*
X38281Y13723D01*
X38280Y13735D01*
Y13903D01*
X38070D01*
Y13854D01*
X38018Y13829D01*
Y13831D01*
Y13835D01*
Y13841D01*
X38019Y13850D01*
Y13861D01*
Y13874D01*
Y13889D01*
X38020Y13904D01*
Y13923D01*
Y13941D01*
Y13962D01*
X38021Y13983D01*
Y14027D01*
Y14074D01*
Y14075D01*
Y14079D01*
Y14086D01*
Y14095D01*
Y14106D01*
Y14119D01*
Y14134D01*
Y14149D01*
X38020Y14167D01*
Y14185D01*
Y14223D01*
X38019Y14264D01*
X38018Y14304D01*
X38073Y14272D01*
X38280D01*
Y14273D01*
Y14277D01*
Y14283D01*
Y14290D01*
Y14298D01*
Y14309D01*
Y14321D01*
Y14333D01*
X38279Y14347D01*
Y14362D01*
X38278Y14394D01*
X38277Y14426D01*
X38276Y14458D01*
X38356Y14420D01*
D02*
G37*
G36*
X36583Y14193D02*
X36555Y14168D01*
Y14018D01*
Y14017D01*
Y14015D01*
Y14013D01*
Y14008D01*
Y14002D01*
Y13995D01*
Y13988D01*
Y13978D01*
X36556Y13969D01*
Y13958D01*
Y13934D01*
X36557Y13907D01*
X36558Y13878D01*
X36506Y13858D01*
Y13921D01*
X36307D01*
Y13840D01*
X36255Y13823D01*
Y13825D01*
Y13828D01*
Y13835D01*
X36256Y13843D01*
Y13854D01*
Y13866D01*
X36257Y13880D01*
Y13896D01*
Y13912D01*
X36258Y13929D01*
Y13965D01*
X36259Y14001D01*
Y14037D01*
Y14038D01*
Y14042D01*
Y14047D01*
Y14053D01*
Y14062D01*
Y14072D01*
Y14084D01*
Y14097D01*
X36258Y14111D01*
Y14125D01*
Y14141D01*
X36257Y14158D01*
X36256Y14194D01*
X36255Y14231D01*
X36310Y14203D01*
X36503D01*
X36524Y14238D01*
X36583Y14193D01*
D02*
G37*
G36*
X38813Y14226D02*
X38817Y14224D01*
X38823Y14222D01*
X38831Y14218D01*
X38840Y14213D01*
X38850Y14208D01*
X38873Y14195D01*
X38895Y14181D01*
X38905Y14173D01*
X38914Y14165D01*
X38923Y14158D01*
X38928Y14150D01*
X38933Y14143D01*
X38934Y14136D01*
Y14135D01*
Y14131D01*
X38933Y14124D01*
X38932Y14117D01*
X38930Y14109D01*
X38928Y14100D01*
X38924Y14092D01*
X38920Y14086D01*
X38919Y14085D01*
X38918Y14083D01*
X38912Y14078D01*
X38905Y14073D01*
X38901Y14071D01*
X38899Y14070D01*
X38897Y14071D01*
X38895Y14072D01*
X38892Y14074D01*
X38889Y14078D01*
X38886Y14085D01*
X38882Y14093D01*
X38878Y14105D01*
Y14106D01*
X38877Y14107D01*
X38876Y14110D01*
X38874Y14113D01*
X38870Y14123D01*
X38862Y14136D01*
X38852Y14152D01*
X38840Y14172D01*
X38825Y14193D01*
X38805Y14217D01*
X38812Y14227D01*
X38813Y14226D01*
D02*
G37*
G36*
X39073Y14321D02*
Y14321D01*
X39072Y14317D01*
X39071Y14312D01*
X39069Y14305D01*
X39066Y14296D01*
X39063Y14286D01*
X39060Y14274D01*
X39057Y14261D01*
X39052Y14247D01*
X39048Y14232D01*
X39038Y14198D01*
X39029Y14163D01*
X39018Y14125D01*
X39008Y14087D01*
X38997Y14050D01*
X38987Y14014D01*
X38978Y13982D01*
X38974Y13966D01*
X38970Y13952D01*
X38967Y13939D01*
X38963Y13927D01*
X38960Y13917D01*
X38959Y13908D01*
X38957Y13902D01*
X38956Y13896D01*
Y13895D01*
Y13894D01*
X38955Y13891D01*
Y13888D01*
X38953Y13878D01*
X38951Y13865D01*
X38949Y13850D01*
X38948Y13831D01*
X38947Y13811D01*
X38946Y13788D01*
Y13787D01*
Y13785D01*
Y13782D01*
Y13778D01*
Y13766D01*
Y13754D01*
Y13740D01*
Y13725D01*
X38947Y13712D01*
X38948Y13701D01*
Y13700D01*
Y13699D01*
X38946Y13694D01*
X38944Y13692D01*
X38942Y13689D01*
X38938Y13688D01*
X38934Y13687D01*
X38932D01*
X38929Y13688D01*
X38925D01*
X38921Y13689D01*
X38915Y13691D01*
X38909Y13693D01*
X38900Y13696D01*
X38899D01*
X38897Y13698D01*
X38893Y13700D01*
X38889Y13704D01*
X38886Y13708D01*
X38882Y13715D01*
X38879Y13722D01*
X38878Y13731D01*
Y13732D01*
Y13736D01*
Y13741D01*
X38879Y13747D01*
X38880Y13754D01*
X38881Y13763D01*
X38885Y13780D01*
X38886Y13782D01*
X38886Y13786D01*
X38888Y13792D01*
X38890Y13801D01*
X38892Y13810D01*
X38894Y13819D01*
X38896Y13828D01*
Y13837D01*
Y13838D01*
Y13840D01*
X38895Y13844D01*
X38894Y13849D01*
X38892Y13854D01*
X38889Y13860D01*
X38886Y13865D01*
X38880Y13871D01*
X38879Y13872D01*
X38876Y13874D01*
X38873Y13877D01*
X38865Y13880D01*
X38856Y13884D01*
X38845Y13889D01*
X38830Y13894D01*
X38812Y13900D01*
Y13914D01*
X38814D01*
X38817Y13913D01*
X38822D01*
X38832Y13912D01*
X38845Y13910D01*
X38859Y13909D01*
X38872Y13908D01*
X38891D01*
X38893Y13909D01*
X38897Y13910D01*
X38900Y13913D01*
X38906Y13916D01*
X38911Y13922D01*
X38918Y13929D01*
X38925Y13939D01*
X38926Y13941D01*
X38928Y13945D01*
X38930Y13950D01*
X38934Y13957D01*
X38937Y13967D01*
X38940Y13974D01*
X38943Y13981D01*
X38946Y13989D01*
X38949Y13999D01*
X38953Y14009D01*
X38958Y14021D01*
X38961Y14033D01*
X38967Y14047D01*
X38972Y14062D01*
X38977Y14078D01*
X38984Y14096D01*
X38990Y14114D01*
X38997Y14136D01*
X39005Y14158D01*
X39012Y14181D01*
X39021Y14207D01*
X39030Y14234D01*
X39039Y14262D01*
X39049Y14293D01*
X39059Y14325D01*
X39073Y14321D01*
D02*
G37*
G36*
X37503Y14022D02*
X37608D01*
X37636Y14050D01*
X37678Y14008D01*
X37653Y13987D01*
Y13986D01*
Y13981D01*
Y13976D01*
Y13967D01*
Y13958D01*
Y13947D01*
Y13935D01*
X37654Y13921D01*
Y13894D01*
X37655Y13866D01*
Y13852D01*
X37656Y13840D01*
Y13829D01*
X37657Y13819D01*
X37611Y13798D01*
Y13844D01*
X37503D01*
Y13798D01*
X37457Y13778D01*
Y13778D01*
Y13780D01*
Y13784D01*
X37458Y13789D01*
Y13795D01*
Y13803D01*
X37459Y13811D01*
Y13819D01*
X37460Y13840D01*
Y13863D01*
X37461Y13888D01*
Y13914D01*
Y13914D01*
Y13916D01*
Y13921D01*
Y13926D01*
Y13932D01*
Y13939D01*
Y13948D01*
Y13957D01*
X37460Y13978D01*
X37459Y14002D01*
X37458Y14027D01*
X37457Y14053D01*
X37503Y14022D01*
D02*
G37*
G36*
X36943Y14347D02*
X36776D01*
Y13778D01*
Y13777D01*
Y13774D01*
Y13769D01*
X36775Y13763D01*
X36774Y13755D01*
X36772Y13747D01*
X36770Y13738D01*
X36767Y13729D01*
X36764Y13718D01*
X36758Y13708D01*
X36752Y13698D01*
X36744Y13688D01*
X36736Y13679D01*
X36725Y13669D01*
X36713Y13662D01*
X36699Y13655D01*
Y13656D01*
X36698Y13657D01*
X36697Y13660D01*
X36696Y13664D01*
X36693Y13667D01*
X36691Y13673D01*
X36687Y13678D01*
X36681Y13684D01*
X36675Y13690D01*
X36666Y13696D01*
X36657Y13703D01*
X36645Y13710D01*
X36632Y13717D01*
X36617Y13723D01*
X36599Y13729D01*
X36580Y13735D01*
Y13753D01*
X36582D01*
X36585Y13752D01*
X36589D01*
X36599Y13751D01*
X36612Y13749D01*
X36628Y13747D01*
X36645Y13745D01*
X36664Y13744D01*
X36682Y13742D01*
X36691D01*
X36698Y13744D01*
X36707Y13747D01*
X36716Y13753D01*
X36719Y13756D01*
X36722Y13762D01*
X36725Y13767D01*
X36727Y13774D01*
X36728Y13782D01*
X36727Y13791D01*
Y14347D01*
X36236D01*
X36227Y14346D01*
X36216D01*
X36204Y14345D01*
X36189Y14343D01*
X36175Y14340D01*
X36161Y14336D01*
X36129Y14368D01*
X36817D01*
X36870Y14420D01*
X36943Y14347D01*
D02*
G37*
G36*
X37237Y14158D02*
X37202Y14134D01*
Y13822D01*
X37311Y13920D01*
X37321Y13910D01*
X37320Y13908D01*
X37317Y13903D01*
X37311Y13897D01*
X37304Y13888D01*
X37295Y13877D01*
X37285Y13864D01*
X37275Y13850D01*
X37264Y13835D01*
X37241Y13803D01*
X37219Y13773D01*
X37209Y13759D01*
X37199Y13746D01*
X37192Y13735D01*
X37185Y13726D01*
X37143Y13774D01*
X37144Y13775D01*
X37145Y13778D01*
X37147Y13782D01*
X37150Y13788D01*
X37152Y13794D01*
X37155Y13803D01*
X37156Y13812D01*
X37157Y13822D01*
Y14151D01*
X37132D01*
X37123Y14150D01*
X37111D01*
X37099Y14148D01*
X37085Y14147D01*
X37071Y14144D01*
X37056Y14140D01*
X37024Y14172D01*
X37154D01*
X37188Y14207D01*
X37237Y14158D01*
D02*
G37*
G36*
X39452Y13898D02*
X39455Y13896D01*
X39462Y13892D01*
X39469Y13887D01*
X39478Y13881D01*
X39489Y13875D01*
X39511Y13859D01*
X39535Y13842D01*
X39546Y13835D01*
X39556Y13827D01*
X39566Y13819D01*
X39575Y13812D01*
X39581Y13806D01*
X39586Y13801D01*
X39587Y13800D01*
X39589Y13797D01*
X39592Y13792D01*
X39596Y13786D01*
X39599Y13779D01*
X39602Y13772D01*
X39604Y13764D01*
X39605Y13756D01*
Y13755D01*
Y13754D01*
X39604Y13750D01*
Y13745D01*
X39602Y13739D01*
X39601Y13732D01*
X39598Y13725D01*
X39594Y13717D01*
Y13716D01*
X39592Y13713D01*
X39590Y13709D01*
X39589Y13705D01*
X39586Y13702D01*
X39582Y13698D01*
X39579Y13695D01*
X39577Y13694D01*
X39575Y13695D01*
X39573Y13696D01*
X39569Y13700D01*
X39565Y13704D01*
X39561Y13712D01*
X39555Y13722D01*
X39552Y13728D01*
X39549Y13735D01*
Y13736D01*
X39548Y13738D01*
X39546Y13741D01*
X39544Y13746D01*
X39540Y13752D01*
X39537Y13759D01*
X39532Y13767D01*
X39527Y13777D01*
X39520Y13787D01*
X39513Y13799D01*
X39504Y13811D01*
X39494Y13825D01*
X39484Y13840D01*
X39472Y13855D01*
X39459Y13871D01*
X39444Y13889D01*
X39451Y13899D01*
X39452Y13898D01*
D02*
G37*
G36*
X39307Y13865D02*
X39306Y13864D01*
X39301Y13861D01*
X39293Y13856D01*
X39283Y13850D01*
X39271Y13840D01*
X39257Y13829D01*
X39244Y13815D01*
X39228Y13798D01*
X39227Y13797D01*
X39226Y13796D01*
X39223Y13793D01*
X39219Y13790D01*
X39214Y13785D01*
X39208Y13779D01*
X39201Y13773D01*
X39194Y13766D01*
X39184Y13757D01*
X39174Y13748D01*
X39163Y13739D01*
X39151Y13729D01*
X39137Y13718D01*
X39123Y13707D01*
X39108Y13695D01*
X39091Y13683D01*
X39084Y13694D01*
X39086Y13696D01*
X39090Y13700D01*
X39096Y13706D01*
X39105Y13715D01*
X39115Y13726D01*
X39126Y13738D01*
X39138Y13752D01*
X39152Y13767D01*
X39165Y13783D01*
X39179Y13801D01*
X39205Y13838D01*
X39217Y13856D01*
X39228Y13876D01*
X39237Y13894D01*
X39244Y13913D01*
X39307Y13865D01*
D02*
G37*
G36*
X33338Y36717D02*
X33344Y36716D01*
X33352Y36715D01*
X33361Y36714D01*
X33370Y36712D01*
X33390Y36708D01*
X33412Y36701D01*
X33423Y36697D01*
X33434Y36691D01*
X33444Y36685D01*
X33455Y36678D01*
X33455Y36677D01*
X33457Y36677D01*
X33460Y36674D01*
X33463Y36671D01*
X33467Y36667D01*
X33472Y36662D01*
X33477Y36656D01*
X33483Y36650D01*
X33489Y36643D01*
X33495Y36634D01*
X33502Y36625D01*
X33508Y36615D01*
X33513Y36604D01*
X33519Y36593D01*
X33523Y36581D01*
X33528Y36568D01*
X33461Y36552D01*
Y36553D01*
X33460Y36554D01*
X33459Y36557D01*
X33458Y36561D01*
X33456Y36566D01*
X33454Y36572D01*
X33448Y36583D01*
X33440Y36597D01*
X33432Y36610D01*
X33421Y36623D01*
X33409Y36634D01*
X33407Y36635D01*
X33403Y36638D01*
X33395Y36642D01*
X33386Y36647D01*
X33373Y36651D01*
X33359Y36656D01*
X33342Y36659D01*
X33324Y36660D01*
X33318D01*
X33314Y36659D01*
X33309D01*
X33303Y36658D01*
X33289Y36656D01*
X33273Y36653D01*
X33257Y36648D01*
X33240Y36640D01*
X33224Y36631D01*
X33224D01*
X33223Y36629D01*
X33218Y36626D01*
X33211Y36620D01*
X33203Y36611D01*
X33193Y36600D01*
X33184Y36587D01*
X33176Y36572D01*
X33169Y36554D01*
Y36554D01*
X33168Y36552D01*
X33167Y36550D01*
X33167Y36546D01*
X33165Y36542D01*
X33164Y36537D01*
X33162Y36524D01*
X33159Y36509D01*
X33156Y36493D01*
X33154Y36475D01*
X33153Y36456D01*
Y36455D01*
Y36453D01*
Y36449D01*
Y36445D01*
X33154Y36440D01*
Y36433D01*
X33155Y36426D01*
X33156Y36418D01*
X33158Y36400D01*
X33162Y36381D01*
X33166Y36361D01*
X33172Y36342D01*
Y36341D01*
X33173Y36340D01*
X33174Y36338D01*
X33176Y36334D01*
X33180Y36325D01*
X33187Y36315D01*
X33195Y36303D01*
X33205Y36290D01*
X33217Y36279D01*
X33231Y36269D01*
X33232D01*
X33233Y36268D01*
X33235Y36267D01*
X33238Y36265D01*
X33242Y36264D01*
X33247Y36261D01*
X33257Y36257D01*
X33270Y36253D01*
X33285Y36249D01*
X33301Y36246D01*
X33318Y36245D01*
X33324D01*
X33328Y36246D01*
X33333D01*
X33338Y36247D01*
X33352Y36250D01*
X33367Y36253D01*
X33383Y36259D01*
X33399Y36267D01*
X33407Y36272D01*
X33415Y36278D01*
X33415Y36278D01*
X33416Y36279D01*
X33418Y36281D01*
X33421Y36284D01*
X33424Y36287D01*
X33428Y36292D01*
X33432Y36296D01*
X33436Y36302D01*
X33440Y36309D01*
X33446Y36316D01*
X33450Y36324D01*
X33455Y36332D01*
X33458Y36342D01*
X33462Y36352D01*
X33466Y36364D01*
X33469Y36375D01*
X33537Y36358D01*
Y36358D01*
X33536Y36355D01*
X33534Y36350D01*
X33532Y36344D01*
X33530Y36338D01*
X33527Y36330D01*
X33523Y36321D01*
X33519Y36311D01*
X33509Y36290D01*
X33495Y36270D01*
X33487Y36259D01*
X33479Y36249D01*
X33470Y36240D01*
X33460Y36231D01*
X33459Y36230D01*
X33458Y36229D01*
X33454Y36227D01*
X33450Y36224D01*
X33444Y36221D01*
X33438Y36217D01*
X33430Y36213D01*
X33422Y36210D01*
X33412Y36205D01*
X33402Y36202D01*
X33391Y36198D01*
X33379Y36194D01*
X33366Y36191D01*
X33353Y36190D01*
X33339Y36188D01*
X33324Y36187D01*
X33316D01*
X33310Y36188D01*
X33304D01*
X33295Y36189D01*
X33287Y36190D01*
X33276Y36192D01*
X33255Y36196D01*
X33233Y36202D01*
X33210Y36210D01*
X33200Y36215D01*
X33190Y36221D01*
X33189Y36221D01*
X33187Y36222D01*
X33184Y36224D01*
X33181Y36227D01*
X33177Y36230D01*
X33172Y36235D01*
X33166Y36240D01*
X33160Y36246D01*
X33154Y36253D01*
X33147Y36259D01*
X33134Y36276D01*
X33122Y36296D01*
X33110Y36318D01*
Y36319D01*
X33109Y36321D01*
X33108Y36325D01*
X33106Y36330D01*
X33105Y36335D01*
X33102Y36343D01*
X33099Y36351D01*
X33097Y36360D01*
X33095Y36369D01*
X33092Y36381D01*
X33088Y36404D01*
X33085Y36429D01*
X33084Y36456D01*
Y36457D01*
Y36460D01*
Y36464D01*
X33085Y36469D01*
Y36477D01*
X33085Y36484D01*
X33086Y36494D01*
X33088Y36503D01*
X33091Y36525D01*
X33096Y36549D01*
X33104Y36572D01*
X33114Y36595D01*
X33115Y36596D01*
X33116Y36598D01*
X33117Y36601D01*
X33120Y36605D01*
X33123Y36610D01*
X33127Y36616D01*
X33136Y36629D01*
X33149Y36644D01*
X33164Y36659D01*
X33181Y36674D01*
X33201Y36686D01*
X33201Y36687D01*
X33204Y36688D01*
X33207Y36689D01*
X33210Y36691D01*
X33216Y36694D01*
X33222Y36696D01*
X33230Y36699D01*
X33238Y36702D01*
X33247Y36705D01*
X33256Y36708D01*
X33277Y36712D01*
X33301Y36716D01*
X33325Y36717D01*
X33332D01*
X33338Y36717D01*
D02*
G37*
G36*
X31403Y36196D02*
X31337D01*
Y36625D01*
X31188Y36196D01*
X31127D01*
X30979Y36632D01*
Y36196D01*
X30914D01*
Y36708D01*
X31016D01*
X31137Y36345D01*
Y36344D01*
X31138Y36343D01*
X31138Y36341D01*
X31140Y36337D01*
X31143Y36328D01*
X31146Y36317D01*
X31150Y36304D01*
X31155Y36292D01*
X31158Y36280D01*
X31161Y36270D01*
X31162Y36271D01*
X31163Y36275D01*
X31165Y36281D01*
X31168Y36290D01*
X31172Y36302D01*
X31177Y36316D01*
X31182Y36332D01*
X31189Y36352D01*
X31312Y36708D01*
X31403D01*
Y36196D01*
D02*
G37*
G36*
X30712D02*
X30645D01*
X30538Y36586D01*
Y36587D01*
X30537Y36589D01*
X30537Y36591D01*
X30536Y36594D01*
X30534Y36603D01*
X30532Y36612D01*
X30529Y36623D01*
X30526Y36632D01*
X30523Y36640D01*
X30523Y36644D01*
X30522Y36646D01*
Y36646D01*
X30521Y36645D01*
X30520Y36640D01*
X30519Y36634D01*
X30517Y36626D01*
X30515Y36617D01*
X30512Y36606D01*
X30509Y36596D01*
X30506Y36586D01*
X30398Y36196D01*
X30327D01*
X30193Y36708D01*
X30264D01*
X30340Y36372D01*
Y36372D01*
X30341Y36370D01*
X30341Y36367D01*
X30342Y36364D01*
X30343Y36358D01*
X30344Y36353D01*
X30346Y36347D01*
X30347Y36339D01*
X30351Y36324D01*
X30355Y36306D01*
X30358Y36287D01*
X30362Y36267D01*
Y36268D01*
X30363Y36271D01*
X30364Y36275D01*
X30365Y36281D01*
X30367Y36287D01*
X30369Y36294D01*
X30372Y36310D01*
X30377Y36327D01*
X30378Y36335D01*
X30381Y36342D01*
X30382Y36349D01*
X30384Y36355D01*
X30385Y36359D01*
X30386Y36362D01*
X30483Y36708D01*
X30565D01*
X30637Y36449D01*
Y36448D01*
X30639Y36444D01*
X30640Y36439D01*
X30642Y36432D01*
X30644Y36423D01*
X30647Y36414D01*
X30650Y36403D01*
X30653Y36390D01*
X30657Y36376D01*
X30660Y36362D01*
X30666Y36332D01*
X30673Y36300D01*
X30678Y36267D01*
Y36268D01*
X30679Y36270D01*
Y36273D01*
X30680Y36276D01*
X30681Y36281D01*
X30683Y36286D01*
X30683Y36293D01*
X30685Y36300D01*
X30689Y36316D01*
X30694Y36335D01*
X30698Y36356D01*
X30704Y36379D01*
X30784Y36708D01*
X30853D01*
X30712Y36196D01*
D02*
G37*
G36*
X33049Y36196D02*
X32972D01*
X32912Y36352D01*
X32698D01*
X32642Y36196D01*
X32570Y36196D01*
X32766Y36708D01*
X32840D01*
X33049Y36196D01*
D02*
G37*
G36*
X32320Y36708D02*
X32335Y36707D01*
X32350Y36705D01*
X32365Y36703D01*
X32377Y36701D01*
X32378D01*
X32379Y36700D01*
X32382D01*
X32385Y36699D01*
X32393Y36697D01*
X32403Y36693D01*
X32415Y36688D01*
X32427Y36681D01*
X32440Y36674D01*
X32452Y36664D01*
X32453Y36663D01*
X32453Y36663D01*
X32456Y36660D01*
X32459Y36658D01*
X32466Y36651D01*
X32475Y36640D01*
X32484Y36628D01*
X32495Y36613D01*
X32504Y36596D01*
X32513Y36577D01*
Y36576D01*
X32513Y36574D01*
X32515Y36572D01*
X32515Y36567D01*
X32518Y36562D01*
X32519Y36556D01*
X32521Y36549D01*
X32523Y36541D01*
X32525Y36533D01*
X32527Y36523D01*
X32530Y36503D01*
X32533Y36480D01*
X32533Y36455D01*
Y36454D01*
Y36452D01*
Y36449D01*
Y36445D01*
X32533Y36440D01*
Y36434D01*
X32532Y36420D01*
X32530Y36404D01*
X32527Y36386D01*
X32524Y36369D01*
X32519Y36351D01*
Y36350D01*
X32518Y36349D01*
X32518Y36347D01*
X32517Y36344D01*
X32514Y36335D01*
X32510Y36325D01*
X32505Y36313D01*
X32499Y36301D01*
X32492Y36289D01*
X32484Y36277D01*
X32484Y36275D01*
X32481Y36272D01*
X32476Y36267D01*
X32470Y36260D01*
X32464Y36253D01*
X32456Y36245D01*
X32447Y36237D01*
X32438Y36230D01*
X32436Y36230D01*
X32433Y36227D01*
X32428Y36224D01*
X32421Y36221D01*
X32412Y36216D01*
X32402Y36213D01*
X32390Y36208D01*
X32376Y36204D01*
X32375D01*
X32373Y36204D01*
X32370Y36203D01*
X32363Y36202D01*
X32353Y36201D01*
X32341Y36199D01*
X32327Y36198D01*
X32311Y36197D01*
X32294Y36196D01*
X32110D01*
Y36708D01*
X32307D01*
X32320Y36708D01*
D02*
G37*
G36*
X29985D02*
X29997Y36707D01*
X30011Y36706D01*
X30023Y36705D01*
X30034Y36703D01*
X30036D01*
X30041Y36702D01*
X30048Y36700D01*
X30056Y36698D01*
X30066Y36694D01*
X30076Y36690D01*
X30088Y36685D01*
X30097Y36679D01*
X30099Y36678D01*
X30102Y36676D01*
X30106Y36671D01*
X30112Y36666D01*
X30119Y36660D01*
X30125Y36651D01*
X30133Y36641D01*
X30139Y36630D01*
X30139Y36628D01*
X30141Y36625D01*
X30144Y36618D01*
X30147Y36609D01*
X30149Y36599D01*
X30152Y36587D01*
X30153Y36574D01*
X30154Y36560D01*
Y36559D01*
Y36557D01*
Y36554D01*
X30153Y36549D01*
X30153Y36543D01*
X30152Y36537D01*
X30150Y36529D01*
X30149Y36521D01*
X30144Y36504D01*
X30141Y36495D01*
X30136Y36486D01*
X30131Y36476D01*
X30126Y36467D01*
X30119Y36458D01*
X30112Y36449D01*
X30111Y36449D01*
X30110Y36447D01*
X30108Y36445D01*
X30104Y36443D01*
X30099Y36439D01*
X30093Y36435D01*
X30086Y36431D01*
X30078Y36427D01*
X30068Y36423D01*
X30057Y36418D01*
X30045Y36415D01*
X30031Y36412D01*
X30017Y36409D01*
X30000Y36406D01*
X29982Y36405D01*
X29962Y36404D01*
X29832D01*
Y36196D01*
X29763D01*
Y36708D01*
X29974D01*
X29985Y36708D01*
D02*
G37*
G36*
X31707Y36187D02*
X31656D01*
X31805Y36717D01*
X31855D01*
X31707Y36187D01*
D02*
G37*
G36*
X25024Y14392D02*
X24997Y14367D01*
Y14245D01*
X25210D01*
X25245Y14280D01*
X25294Y14231D01*
X25262Y14207D01*
Y14206D01*
Y14204D01*
Y14201D01*
Y14195D01*
Y14189D01*
Y14181D01*
Y14172D01*
Y14163D01*
Y14141D01*
Y14116D01*
Y14088D01*
X25263Y14059D01*
Y13999D01*
Y13970D01*
X25264Y13943D01*
Y13917D01*
X25265Y13894D01*
Y13884D01*
Y13874D01*
X25266Y13866D01*
Y13859D01*
X25213Y13834D01*
Y13876D01*
X24997D01*
Y13718D01*
Y13716D01*
X24998Y13712D01*
X24999Y13706D01*
X25002Y13699D01*
X25007Y13693D01*
X25014Y13686D01*
X25024Y13683D01*
X25031Y13681D01*
X25281D01*
X25284Y13682D01*
X25290Y13684D01*
X25296Y13686D01*
X25302Y13691D01*
X25308Y13698D01*
X25312Y13706D01*
X25314Y13717D01*
Y13719D01*
Y13721D01*
X25315Y13723D01*
Y13728D01*
X25316Y13733D01*
Y13738D01*
X25317Y13746D01*
Y13754D01*
X25318Y13764D01*
Y13775D01*
X25319Y13787D01*
X25320Y13801D01*
X25320Y13816D01*
Y13833D01*
X25321Y13851D01*
X25339D01*
Y13850D01*
Y13847D01*
Y13843D01*
Y13837D01*
Y13830D01*
X25340Y13822D01*
X25341Y13804D01*
X25342Y13785D01*
X25345Y13766D01*
X25345Y13757D01*
X25347Y13748D01*
X25349Y13742D01*
X25351Y13736D01*
X25352Y13735D01*
X25353Y13731D01*
X25357Y13726D01*
X25360Y13720D01*
X25366Y13712D01*
X25371Y13705D01*
X25380Y13698D01*
X25388Y13691D01*
X25387Y13690D01*
X25385Y13686D01*
X25382Y13682D01*
X25379Y13675D01*
X25373Y13669D01*
X25368Y13662D01*
X25360Y13657D01*
X25353Y13651D01*
X25352Y13650D01*
X25349Y13649D01*
X25345Y13648D01*
X25337Y13645D01*
X25329Y13642D01*
X25319Y13640D01*
X25308Y13639D01*
X25294Y13638D01*
X25018D01*
X25014Y13639D01*
X25010D01*
X24998Y13642D01*
X24985Y13647D01*
X24977Y13650D01*
X24971Y13655D01*
X24964Y13661D01*
X24959Y13668D01*
X24954Y13675D01*
X24950Y13685D01*
X24949Y13696D01*
X24948Y13708D01*
Y13876D01*
X24738D01*
Y13827D01*
X24686Y13802D01*
Y13804D01*
Y13808D01*
Y13814D01*
X24687Y13822D01*
Y13834D01*
Y13847D01*
Y13861D01*
X24688Y13877D01*
Y13896D01*
Y13914D01*
Y13934D01*
X24689Y13956D01*
Y14000D01*
Y14046D01*
Y14048D01*
Y14052D01*
Y14058D01*
Y14068D01*
Y14079D01*
Y14092D01*
Y14106D01*
Y14122D01*
X24688Y14140D01*
Y14158D01*
Y14196D01*
X24687Y14237D01*
X24686Y14277D01*
X24741Y14245D01*
X24948D01*
Y14246D01*
Y14250D01*
Y14255D01*
Y14263D01*
Y14271D01*
Y14282D01*
Y14293D01*
Y14306D01*
X24947Y14320D01*
Y14335D01*
X24946Y14366D01*
X24945Y14399D01*
X24944Y14431D01*
X25024Y14392D01*
D02*
G37*
G36*
X26976D02*
X26948Y14368D01*
Y14217D01*
X27046D01*
X27091Y14266D01*
X27154Y14197D01*
X26948D01*
Y14196D01*
Y14192D01*
Y14187D01*
X26948Y14180D01*
Y14171D01*
X26947Y14160D01*
Y14148D01*
X26946Y14135D01*
X26945Y14121D01*
X26944Y14106D01*
X26942Y14074D01*
X26940Y14041D01*
X26937Y14007D01*
X27077D01*
X27122Y14057D01*
X27185Y13987D01*
X26962D01*
Y13986D01*
X26963Y13984D01*
X26964Y13981D01*
X26966Y13976D01*
X26968Y13970D01*
X26970Y13963D01*
X26973Y13956D01*
X26976Y13946D01*
X26985Y13926D01*
X26994Y13904D01*
X27006Y13879D01*
X27019Y13853D01*
X27035Y13826D01*
X27052Y13799D01*
X27071Y13773D01*
X27092Y13748D01*
X27115Y13726D01*
X27140Y13706D01*
X27154Y13698D01*
X27168Y13690D01*
X27182Y13683D01*
X27196Y13677D01*
Y13663D01*
X27188D01*
X27179Y13662D01*
X27167Y13660D01*
X27155Y13656D01*
X27142Y13649D01*
X27130Y13640D01*
X27124Y13635D01*
X27120Y13628D01*
X27118Y13630D01*
X27114Y13634D01*
X27107Y13641D01*
X27098Y13651D01*
X27087Y13664D01*
X27075Y13680D01*
X27062Y13699D01*
X27047Y13720D01*
X27034Y13744D01*
X27019Y13771D01*
X27004Y13800D01*
X26990Y13833D01*
X26976Y13867D01*
X26964Y13905D01*
X26954Y13945D01*
X26945Y13987D01*
X26934D01*
Y13986D01*
X26933Y13984D01*
X26932Y13981D01*
X26931Y13975D01*
X26929Y13970D01*
X26926Y13962D01*
X26924Y13954D01*
X26921Y13944D01*
X26916Y13933D01*
X26912Y13922D01*
X26901Y13897D01*
X26887Y13871D01*
X26872Y13841D01*
X26852Y13811D01*
X26829Y13780D01*
X26817Y13765D01*
X26803Y13749D01*
X26788Y13734D01*
X26774Y13719D01*
X26757Y13704D01*
X26739Y13690D01*
X26721Y13676D01*
X26702Y13663D01*
X26681Y13650D01*
X26660Y13638D01*
X26637Y13627D01*
X26613Y13617D01*
X26605Y13628D01*
X26606D01*
X26608Y13630D01*
X26611Y13632D01*
X26616Y13635D01*
X26620Y13637D01*
X26627Y13642D01*
X26641Y13652D01*
X26660Y13665D01*
X26680Y13682D01*
X26702Y13700D01*
X26726Y13723D01*
X26750Y13747D01*
X26774Y13773D01*
X26797Y13803D01*
X26820Y13835D01*
X26840Y13870D01*
X26859Y13907D01*
X26874Y13945D01*
X26880Y13966D01*
X26886Y13987D01*
X26800D01*
X26791Y13986D01*
X26780D01*
X26768Y13984D01*
X26753Y13982D01*
X26739Y13980D01*
X26725Y13976D01*
X26693Y14007D01*
X26888D01*
Y14008D01*
Y14011D01*
X26889Y14017D01*
Y14023D01*
X26890Y14032D01*
X26891Y14042D01*
X26892Y14053D01*
X26893Y14066D01*
Y14080D01*
X26894Y14094D01*
X26896Y14126D01*
X26898Y14161D01*
X26899Y14197D01*
X26788D01*
Y14196D01*
X26786Y14193D01*
X26783Y14188D01*
X26780Y14181D01*
X26776Y14174D01*
X26772Y14165D01*
X26767Y14154D01*
X26761Y14143D01*
X26749Y14118D01*
X26734Y14094D01*
X26719Y14069D01*
X26703Y14046D01*
X26693Y14054D01*
X26694Y14055D01*
X26695Y14058D01*
X26698Y14065D01*
X26702Y14074D01*
X26706Y14085D01*
X26711Y14099D01*
X26716Y14115D01*
X26723Y14133D01*
X26729Y14154D01*
X26736Y14177D01*
X26742Y14203D01*
X26749Y14230D01*
X26755Y14261D01*
X26762Y14293D01*
X26768Y14328D01*
X26774Y14365D01*
X26850Y14322D01*
X26823Y14308D01*
X26822Y14307D01*
X26821Y14303D01*
X26818Y14296D01*
X26815Y14287D01*
X26811Y14274D01*
X26806Y14258D01*
X26800Y14240D01*
X26794Y14217D01*
X26899D01*
Y14218D01*
Y14223D01*
Y14229D01*
Y14237D01*
Y14247D01*
Y14259D01*
Y14273D01*
Y14288D01*
X26899Y14304D01*
Y14321D01*
X26898Y14358D01*
X26897Y14396D01*
X26896Y14435D01*
X26976Y14392D01*
D02*
G37*
G36*
X25556Y14200D02*
X25557Y14198D01*
Y14194D01*
X25558Y14191D01*
X25559Y14185D01*
X25560Y14179D01*
X25562Y14164D01*
X25564Y14148D01*
X25565Y14131D01*
X25567Y14113D01*
Y14096D01*
Y14095D01*
Y14093D01*
Y14089D01*
X25566Y14083D01*
X25565Y14071D01*
X25561Y14059D01*
Y14058D01*
X25560Y14057D01*
X25556Y14051D01*
X25553Y14046D01*
X25549Y14043D01*
X25543Y14039D01*
X25537Y14036D01*
X25536D01*
X25534Y14035D01*
X25530Y14034D01*
X25526Y14033D01*
X25516Y14032D01*
X25505Y14031D01*
X25504D01*
X25500Y14032D01*
X25495Y14035D01*
X25494Y14037D01*
X25493Y14040D01*
Y14041D01*
Y14042D01*
X25494Y14044D01*
X25495Y14048D01*
X25498Y14054D01*
X25501Y14060D01*
X25505Y14069D01*
X25511Y14079D01*
Y14080D01*
X25512Y14081D01*
X25513Y14083D01*
X25515Y14086D01*
X25517Y14091D01*
X25519Y14096D01*
X25521Y14103D01*
X25524Y14109D01*
X25527Y14118D01*
X25530Y14127D01*
X25532Y14137D01*
X25534Y14148D01*
X25537Y14160D01*
X25539Y14172D01*
X25543Y14201D01*
X25556D01*
Y14200D01*
D02*
G37*
G36*
X25993Y14392D02*
X25965Y14378D01*
Y14377D01*
X25963Y14377D01*
X25962Y14374D01*
X25960Y14370D01*
X25954Y14361D01*
X25947Y14350D01*
X25939Y14338D01*
X25933Y14326D01*
X25927Y14315D01*
X25924Y14305D01*
X26116D01*
X26144Y14340D01*
X26196Y14288D01*
X26164Y14270D01*
X26163Y14269D01*
X26161Y14266D01*
X26159Y14261D01*
X26154Y14254D01*
X26148Y14245D01*
X26143Y14236D01*
X26135Y14225D01*
X26128Y14214D01*
X26110Y14188D01*
X26091Y14160D01*
X26071Y14132D01*
X26049Y14106D01*
X26050Y14106D01*
X26055Y14102D01*
X26061Y14097D01*
X26070Y14090D01*
X26080Y14082D01*
X26093Y14073D01*
X26108Y14064D01*
X26124Y14054D01*
X26142Y14044D01*
X26161Y14034D01*
X26182Y14025D01*
X26204Y14017D01*
X26227Y14009D01*
X26251Y14004D01*
X26276Y14000D01*
X26301Y13998D01*
Y13984D01*
X26298D01*
X26295Y13983D01*
X26292Y13982D01*
X26282Y13980D01*
X26271Y13976D01*
X26260Y13970D01*
X26249Y13963D01*
X26240Y13954D01*
X26237Y13948D01*
X26234Y13942D01*
X26233Y13943D01*
X26229Y13944D01*
X26223Y13946D01*
X26215Y13950D01*
X26205Y13955D01*
X26193Y13960D01*
X26180Y13968D01*
X26165Y13975D01*
X26149Y13984D01*
X26133Y13995D01*
X26115Y14006D01*
X26098Y14019D01*
X26079Y14032D01*
X26061Y14047D01*
X26042Y14064D01*
X26024Y14081D01*
X26023Y14081D01*
X26021Y14078D01*
X26017Y14074D01*
X26011Y14069D01*
X26004Y14062D01*
X25996Y14055D01*
X25986Y14046D01*
X25975Y14037D01*
X25964Y14027D01*
X25951Y14017D01*
X25925Y13996D01*
X25895Y13975D01*
X25864Y13956D01*
X25906Y13928D01*
X26130D01*
X26154Y13959D01*
X26213Y13914D01*
X26185Y13893D01*
Y13892D01*
Y13891D01*
Y13888D01*
Y13884D01*
Y13874D01*
Y13861D01*
Y13847D01*
Y13829D01*
Y13810D01*
X26186Y13789D01*
Y13748D01*
Y13727D01*
X26187Y13708D01*
Y13690D01*
X26188Y13674D01*
Y13661D01*
X26189Y13649D01*
X26136Y13628D01*
Y13694D01*
X25902D01*
Y13635D01*
X25850Y13617D01*
Y13618D01*
Y13620D01*
Y13625D01*
X25851Y13631D01*
Y13639D01*
Y13650D01*
X25851Y13664D01*
Y13681D01*
Y13701D01*
X25852Y13724D01*
Y13737D01*
Y13751D01*
Y13766D01*
Y13782D01*
X25853Y13799D01*
Y13817D01*
Y13836D01*
Y13857D01*
Y13878D01*
Y13900D01*
Y13923D01*
Y13948D01*
X25852D01*
X25851Y13946D01*
X25847Y13945D01*
X25842Y13943D01*
X25836Y13940D01*
X25829Y13936D01*
X25821Y13933D01*
X25813Y13929D01*
X25792Y13921D01*
X25771Y13912D01*
X25748Y13904D01*
X25724Y13896D01*
X25721Y13907D01*
X25723Y13908D01*
X25728Y13910D01*
X25737Y13914D01*
X25748Y13921D01*
X25761Y13928D01*
X25777Y13936D01*
X25795Y13947D01*
X25814Y13959D01*
X25836Y13973D01*
X25857Y13988D01*
X25880Y14005D01*
X25903Y14023D01*
X25927Y14043D01*
X25950Y14063D01*
X25974Y14086D01*
X25997Y14109D01*
X25996Y14110D01*
X25995Y14112D01*
X25992Y14116D01*
X25989Y14121D01*
X25985Y14128D01*
X25980Y14136D01*
X25974Y14145D01*
X25969Y14155D01*
X25962Y14167D01*
X25956Y14180D01*
X25949Y14193D01*
X25941Y14208D01*
X25933Y14224D01*
X25925Y14241D01*
X25910Y14278D01*
X25909Y14277D01*
X25907Y14273D01*
X25904Y14267D01*
X25900Y14260D01*
X25895Y14251D01*
X25888Y14241D01*
X25881Y14229D01*
X25874Y14216D01*
X25855Y14187D01*
X25834Y14156D01*
X25811Y14125D01*
X25787Y14095D01*
X25777Y14103D01*
X25777Y14104D01*
X25778Y14106D01*
X25781Y14110D01*
X25785Y14116D01*
X25789Y14123D01*
X25794Y14131D01*
X25801Y14142D01*
X25806Y14153D01*
X25814Y14165D01*
X25821Y14179D01*
X25828Y14193D01*
X25837Y14209D01*
X25844Y14226D01*
X25852Y14244D01*
X25869Y14282D01*
X25870Y14283D01*
X25871Y14287D01*
X25873Y14292D01*
X25875Y14300D01*
X25879Y14308D01*
X25883Y14318D01*
X25887Y14329D01*
X25891Y14341D01*
X25900Y14366D01*
X25907Y14391D01*
X25913Y14415D01*
X25915Y14426D01*
X25916Y14435D01*
X25993Y14392D01*
D02*
G37*
G36*
X25700Y14386D02*
X25676Y14361D01*
Y14134D01*
X25677Y14135D01*
X25678Y14138D01*
X25681Y14143D01*
X25686Y14148D01*
X25691Y14155D01*
X25697Y14164D01*
X25703Y14173D01*
X25710Y14183D01*
X25724Y14204D01*
X25738Y14229D01*
X25750Y14252D01*
X25754Y14263D01*
X25759Y14274D01*
X25808Y14221D01*
X25807D01*
X25804Y14220D01*
X25800Y14218D01*
X25793Y14216D01*
X25786Y14211D01*
X25777Y14204D01*
X25766Y14196D01*
X25755Y14186D01*
X25753Y14184D01*
X25750Y14180D01*
X25743Y14174D01*
X25734Y14165D01*
X25722Y14154D01*
X25708Y14141D01*
X25693Y14126D01*
X25676Y14109D01*
Y14108D01*
Y14106D01*
Y14101D01*
Y14095D01*
Y14088D01*
X25675Y14079D01*
Y14068D01*
Y14056D01*
X25674Y14042D01*
X25673Y14026D01*
X25672Y14009D01*
X25671Y13992D01*
X25670Y13972D01*
X25668Y13951D01*
X25666Y13930D01*
X25665Y13907D01*
X25666D01*
X25668Y13905D01*
X25672Y13903D01*
X25678Y13901D01*
X25684Y13897D01*
X25691Y13895D01*
X25708Y13886D01*
X25726Y13876D01*
X25743Y13866D01*
X25759Y13856D01*
X25765Y13850D01*
X25771Y13846D01*
X25772Y13845D01*
X25776Y13841D01*
X25779Y13836D01*
X25785Y13830D01*
X25789Y13822D01*
X25794Y13813D01*
X25797Y13804D01*
X25798Y13795D01*
Y13793D01*
Y13790D01*
X25797Y13787D01*
X25796Y13778D01*
X25792Y13765D01*
Y13764D01*
X25791Y13762D01*
X25788Y13756D01*
X25782Y13748D01*
X25779Y13747D01*
X25775Y13746D01*
X25774D01*
X25773Y13747D01*
X25770Y13748D01*
X25766Y13751D01*
X25763Y13757D01*
X25757Y13765D01*
X25754Y13770D01*
X25752Y13776D01*
X25749Y13783D01*
X25745Y13791D01*
Y13792D01*
X25744Y13793D01*
X25740Y13798D01*
X25735Y13808D01*
X25727Y13820D01*
X25715Y13835D01*
X25701Y13852D01*
X25682Y13872D01*
X25672Y13882D01*
X25661Y13893D01*
Y13892D01*
X25660Y13889D01*
X25659Y13885D01*
X25658Y13879D01*
X25656Y13872D01*
X25654Y13864D01*
X25651Y13855D01*
X25648Y13845D01*
X25640Y13822D01*
X25630Y13798D01*
X25619Y13773D01*
X25605Y13748D01*
Y13747D01*
X25604Y13745D01*
X25602Y13741D01*
X25598Y13736D01*
X25594Y13731D01*
X25589Y13723D01*
X25583Y13716D01*
X25576Y13708D01*
X25568Y13698D01*
X25559Y13687D01*
X25550Y13677D01*
X25539Y13665D01*
X25528Y13654D01*
X25515Y13642D01*
X25502Y13629D01*
X25487Y13617D01*
X25480Y13628D01*
X25481Y13629D01*
X25483Y13633D01*
X25488Y13637D01*
X25493Y13645D01*
X25501Y13654D01*
X25508Y13664D01*
X25518Y13676D01*
X25527Y13689D01*
X25536Y13703D01*
X25546Y13719D01*
X25566Y13752D01*
X25582Y13787D01*
X25590Y13806D01*
X25596Y13824D01*
Y13825D01*
X25597Y13829D01*
X25599Y13835D01*
X25601Y13842D01*
X25604Y13852D01*
X25606Y13864D01*
X25609Y13878D01*
X25612Y13894D01*
X25615Y13910D01*
X25617Y13930D01*
X25620Y13950D01*
X25622Y13972D01*
X25625Y13996D01*
X25626Y14021D01*
X25627Y14048D01*
X25628Y14076D01*
Y14078D01*
Y14083D01*
Y14092D01*
Y14103D01*
Y14118D01*
Y14134D01*
Y14155D01*
Y14177D01*
Y14201D01*
Y14228D01*
X25627Y14256D01*
Y14287D01*
X25626Y14319D01*
X25625Y14353D01*
X25624Y14388D01*
X25623Y14424D01*
X25700Y14386D01*
D02*
G37*
G36*
X26591D02*
X26564Y14372D01*
Y14371D01*
X26563Y14369D01*
X26561Y14366D01*
X26559Y14362D01*
X26557Y14356D01*
X26554Y14351D01*
X26548Y14336D01*
X26542Y14320D01*
X26534Y14304D01*
X26528Y14288D01*
X26522Y14274D01*
X26623D01*
X26665Y14319D01*
X26725Y14254D01*
X26515D01*
Y14253D01*
X26513Y14251D01*
X26511Y14247D01*
X26509Y14241D01*
X26505Y14236D01*
X26502Y14229D01*
X26493Y14213D01*
X26484Y14194D01*
X26473Y14175D01*
X26463Y14155D01*
X26452Y14137D01*
X26603D01*
X26644Y14180D01*
X26700Y14117D01*
X26560D01*
Y13976D01*
X26623D01*
X26665Y14015D01*
X26717Y13956D01*
X26560D01*
Y13760D01*
X26703Y13844D01*
X26714Y13833D01*
X26712Y13832D01*
X26707Y13827D01*
X26700Y13822D01*
X26690Y13813D01*
X26677Y13804D01*
X26664Y13793D01*
X26650Y13780D01*
X26634Y13767D01*
X26603Y13739D01*
X26589Y13725D01*
X26576Y13711D01*
X26564Y13698D01*
X26553Y13686D01*
X26545Y13674D01*
X26540Y13663D01*
X26491Y13714D01*
X26492Y13715D01*
X26493Y13718D01*
X26497Y13722D01*
X26501Y13727D01*
X26504Y13735D01*
X26508Y13744D01*
X26510Y13755D01*
X26511Y13767D01*
Y13956D01*
X26483D01*
X26474Y13955D01*
X26463D01*
X26450Y13953D01*
X26436Y13951D01*
X26421Y13948D01*
X26406Y13945D01*
X26375Y13976D01*
X26511D01*
Y14117D01*
X26442D01*
X26441Y14115D01*
X26436Y14110D01*
X26430Y14103D01*
X26422Y14093D01*
X26412Y14081D01*
X26402Y14069D01*
X26379Y14043D01*
X26369Y14050D01*
X26369Y14052D01*
X26372Y14056D01*
X26377Y14063D01*
X26382Y14074D01*
X26390Y14087D01*
X26398Y14103D01*
X26407Y14122D01*
X26418Y14144D01*
X26429Y14169D01*
X26440Y14197D01*
X26452Y14229D01*
X26464Y14263D01*
X26476Y14299D01*
X26488Y14339D01*
X26500Y14382D01*
X26511Y14427D01*
X26591Y14386D01*
D02*
G37*
G36*
X41342Y36638D02*
X41279D01*
Y36710D01*
X41342D01*
Y36638D01*
D02*
G37*
G36*
X42292Y36576D02*
X42303Y36576D01*
X42315Y36574D01*
X42327Y36571D01*
X42340Y36568D01*
X42353Y36564D01*
X42354D01*
X42354Y36563D01*
X42358Y36562D01*
X42364Y36559D01*
X42372Y36555D01*
X42380Y36550D01*
X42388Y36544D01*
X42395Y36537D01*
X42402Y36530D01*
X42403Y36529D01*
X42404Y36526D01*
X42407Y36521D01*
X42411Y36515D01*
X42414Y36506D01*
X42418Y36496D01*
X42421Y36485D01*
X42424Y36473D01*
X42363Y36465D01*
Y36466D01*
X42362Y36469D01*
X42360Y36474D01*
X42358Y36481D01*
X42354Y36488D01*
X42350Y36495D01*
X42345Y36502D01*
X42337Y36509D01*
X42337Y36510D01*
X42334Y36511D01*
X42329Y36514D01*
X42323Y36517D01*
X42315Y36520D01*
X42306Y36523D01*
X42294Y36525D01*
X42281Y36525D01*
X42274D01*
X42266Y36525D01*
X42257Y36524D01*
X42247Y36522D01*
X42237Y36519D01*
X42227Y36516D01*
X42219Y36510D01*
X42218Y36510D01*
X42216Y36508D01*
X42213Y36505D01*
X42210Y36501D01*
X42207Y36496D01*
X42204Y36490D01*
X42201Y36484D01*
X42201Y36477D01*
Y36476D01*
Y36475D01*
X42201Y36473D01*
Y36470D01*
X42204Y36462D01*
X42208Y36455D01*
X42209Y36454D01*
X42209Y36453D01*
X42211Y36451D01*
X42214Y36449D01*
X42217Y36447D01*
X42221Y36444D01*
X42226Y36442D01*
X42232Y36439D01*
X42233D01*
X42235Y36438D01*
X42238Y36437D01*
X42243Y36435D01*
X42250Y36433D01*
X42260Y36431D01*
X42266Y36428D01*
X42272Y36427D01*
X42280Y36425D01*
X42288Y36422D01*
X42289D01*
X42291Y36422D01*
X42295Y36421D01*
X42299Y36419D01*
X42304Y36418D01*
X42311Y36416D01*
X42325Y36412D01*
X42340Y36408D01*
X42356Y36402D01*
X42370Y36397D01*
X42376Y36395D01*
X42381Y36393D01*
X42383Y36392D01*
X42386Y36391D01*
X42390Y36388D01*
X42397Y36385D01*
X42403Y36380D01*
X42410Y36374D01*
X42417Y36368D01*
X42423Y36360D01*
X42423Y36360D01*
X42425Y36357D01*
X42428Y36352D01*
X42431Y36345D01*
X42433Y36337D01*
X42436Y36328D01*
X42437Y36318D01*
X42438Y36306D01*
Y36305D01*
Y36301D01*
X42437Y36295D01*
X42436Y36287D01*
X42434Y36278D01*
X42430Y36268D01*
X42426Y36257D01*
X42420Y36247D01*
X42419Y36246D01*
X42416Y36243D01*
X42412Y36237D01*
X42406Y36232D01*
X42398Y36225D01*
X42389Y36217D01*
X42379Y36211D01*
X42366Y36204D01*
X42366D01*
X42365Y36203D01*
X42360Y36202D01*
X42353Y36200D01*
X42343Y36197D01*
X42332Y36194D01*
X42318Y36192D01*
X42304Y36190D01*
X42288Y36189D01*
X42281D01*
X42276Y36190D01*
X42270D01*
X42263Y36191D01*
X42255Y36192D01*
X42247Y36193D01*
X42229Y36197D01*
X42211Y36202D01*
X42193Y36209D01*
X42185Y36214D01*
X42178Y36219D01*
X42177Y36220D01*
X42176Y36220D01*
X42172Y36225D01*
X42165Y36232D01*
X42158Y36242D01*
X42150Y36254D01*
X42141Y36269D01*
X42135Y36288D01*
X42130Y36308D01*
X42192Y36318D01*
Y36317D01*
Y36317D01*
X42193Y36312D01*
X42195Y36305D01*
X42198Y36297D01*
X42201Y36288D01*
X42206Y36278D01*
X42212Y36268D01*
X42221Y36260D01*
X42222Y36260D01*
X42225Y36257D01*
X42231Y36254D01*
X42238Y36251D01*
X42248Y36247D01*
X42259Y36244D01*
X42272Y36242D01*
X42288Y36241D01*
X42295D01*
X42303Y36242D01*
X42312Y36243D01*
X42323Y36246D01*
X42334Y36249D01*
X42343Y36252D01*
X42352Y36258D01*
X42353Y36259D01*
X42356Y36261D01*
X42359Y36265D01*
X42363Y36270D01*
X42367Y36276D01*
X42371Y36283D01*
X42373Y36291D01*
X42374Y36300D01*
Y36300D01*
Y36303D01*
X42373Y36307D01*
X42372Y36312D01*
X42369Y36317D01*
X42366Y36323D01*
X42361Y36328D01*
X42354Y36333D01*
X42354Y36334D01*
X42352Y36334D01*
X42348Y36337D01*
X42342Y36339D01*
X42333Y36342D01*
X42328Y36344D01*
X42322Y36345D01*
X42315Y36348D01*
X42308Y36350D01*
X42300Y36352D01*
X42290Y36354D01*
X42289D01*
X42287Y36355D01*
X42283Y36356D01*
X42279Y36357D01*
X42273Y36359D01*
X42266Y36361D01*
X42252Y36365D01*
X42236Y36370D01*
X42221Y36374D01*
X42206Y36379D01*
X42199Y36382D01*
X42194Y36385D01*
X42192Y36385D01*
X42189Y36387D01*
X42185Y36390D01*
X42179Y36394D01*
X42172Y36399D01*
X42166Y36405D01*
X42159Y36411D01*
X42153Y36419D01*
X42152Y36420D01*
X42151Y36423D01*
X42149Y36428D01*
X42147Y36434D01*
X42144Y36442D01*
X42142Y36451D01*
X42141Y36459D01*
X42140Y36470D01*
Y36471D01*
Y36474D01*
X42141Y36479D01*
X42141Y36485D01*
X42143Y36492D01*
X42144Y36500D01*
X42147Y36508D01*
X42151Y36516D01*
X42152Y36516D01*
X42153Y36519D01*
X42155Y36523D01*
X42159Y36528D01*
X42164Y36533D01*
X42169Y36540D01*
X42175Y36546D01*
X42182Y36551D01*
X42183Y36552D01*
X42185Y36553D01*
X42188Y36555D01*
X42192Y36557D01*
X42198Y36560D01*
X42205Y36563D01*
X42213Y36566D01*
X42222Y36569D01*
X42224Y36570D01*
X42226Y36570D01*
X42232Y36572D01*
X42238Y36573D01*
X42246Y36575D01*
X42255Y36576D01*
X42266Y36577D01*
X42283D01*
X42292Y36576D01*
D02*
G37*
G36*
X40700D02*
X40711Y36576D01*
X40723Y36574D01*
X40735Y36571D01*
X40749Y36568D01*
X40761Y36564D01*
X40762D01*
X40763Y36563D01*
X40766Y36562D01*
X40772Y36559D01*
X40780Y36555D01*
X40788Y36550D01*
X40796Y36544D01*
X40803Y36537D01*
X40810Y36530D01*
X40811Y36529D01*
X40812Y36526D01*
X40815Y36521D01*
X40819Y36515D01*
X40823Y36506D01*
X40826Y36496D01*
X40829Y36485D01*
X40832Y36473D01*
X40771Y36465D01*
Y36466D01*
X40770Y36469D01*
X40769Y36474D01*
X40766Y36481D01*
X40763Y36488D01*
X40758Y36495D01*
X40753Y36502D01*
X40746Y36509D01*
X40745Y36510D01*
X40742Y36511D01*
X40738Y36514D01*
X40731Y36517D01*
X40724Y36520D01*
X40714Y36523D01*
X40702Y36525D01*
X40690Y36525D01*
X40682D01*
X40675Y36525D01*
X40665Y36524D01*
X40655Y36522D01*
X40645Y36519D01*
X40635Y36516D01*
X40627Y36510D01*
X40627Y36510D01*
X40624Y36508D01*
X40621Y36505D01*
X40618Y36501D01*
X40615Y36496D01*
X40612Y36490D01*
X40610Y36484D01*
X40609Y36477D01*
Y36476D01*
Y36475D01*
X40610Y36473D01*
Y36470D01*
X40612Y36462D01*
X40616Y36455D01*
X40617Y36454D01*
X40618Y36453D01*
X40619Y36451D01*
X40622Y36449D01*
X40625Y36447D01*
X40630Y36444D01*
X40635Y36442D01*
X40641Y36439D01*
X40641D01*
X40643Y36438D01*
X40646Y36437D01*
X40651Y36435D01*
X40658Y36433D01*
X40668Y36431D01*
X40674Y36428D01*
X40681Y36427D01*
X40688Y36425D01*
X40696Y36422D01*
X40697D01*
X40699Y36422D01*
X40703Y36421D01*
X40707Y36419D01*
X40712Y36418D01*
X40719Y36416D01*
X40733Y36412D01*
X40749Y36408D01*
X40764Y36402D01*
X40778Y36397D01*
X40784Y36395D01*
X40789Y36393D01*
X40791Y36392D01*
X40794Y36391D01*
X40798Y36388D01*
X40805Y36385D01*
X40812Y36380D01*
X40818Y36374D01*
X40825Y36368D01*
X40831Y36360D01*
X40832Y36360D01*
X40833Y36357D01*
X40836Y36352D01*
X40839Y36345D01*
X40841Y36337D01*
X40844Y36328D01*
X40846Y36318D01*
X40846Y36306D01*
Y36305D01*
Y36301D01*
X40846Y36295D01*
X40844Y36287D01*
X40842Y36278D01*
X40838Y36268D01*
X40834Y36257D01*
X40828Y36247D01*
X40827Y36246D01*
X40824Y36243D01*
X40820Y36237D01*
X40815Y36232D01*
X40806Y36225D01*
X40798Y36217D01*
X40787Y36211D01*
X40775Y36204D01*
X40774D01*
X40773Y36203D01*
X40769Y36202D01*
X40761Y36200D01*
X40752Y36197D01*
X40740Y36194D01*
X40726Y36192D01*
X40712Y36190D01*
X40696Y36189D01*
X40690D01*
X40684Y36190D01*
X40678D01*
X40671Y36191D01*
X40664Y36192D01*
X40655Y36193D01*
X40638Y36197D01*
X40619Y36202D01*
X40601Y36209D01*
X40593Y36214D01*
X40586Y36219D01*
X40585Y36220D01*
X40584Y36220D01*
X40580Y36225D01*
X40573Y36232D01*
X40566Y36242D01*
X40558Y36254D01*
X40550Y36269D01*
X40543Y36288D01*
X40538Y36308D01*
X40600Y36318D01*
Y36317D01*
Y36317D01*
X40601Y36312D01*
X40603Y36305D01*
X40606Y36297D01*
X40610Y36288D01*
X40614Y36278D01*
X40621Y36268D01*
X40629Y36260D01*
X40630Y36260D01*
X40633Y36257D01*
X40639Y36254D01*
X40647Y36251D01*
X40656Y36247D01*
X40667Y36244D01*
X40681Y36242D01*
X40696Y36241D01*
X40704D01*
X40711Y36242D01*
X40721Y36243D01*
X40731Y36246D01*
X40742Y36249D01*
X40752Y36252D01*
X40761Y36258D01*
X40761Y36259D01*
X40764Y36261D01*
X40767Y36265D01*
X40772Y36270D01*
X40775Y36276D01*
X40779Y36283D01*
X40781Y36291D01*
X40782Y36300D01*
Y36300D01*
Y36303D01*
X40781Y36307D01*
X40780Y36312D01*
X40778Y36317D01*
X40774Y36323D01*
X40769Y36328D01*
X40763Y36333D01*
X40762Y36334D01*
X40760Y36334D01*
X40756Y36337D01*
X40750Y36339D01*
X40741Y36342D01*
X40736Y36344D01*
X40730Y36345D01*
X40724Y36348D01*
X40716Y36350D01*
X40708Y36352D01*
X40698Y36354D01*
X40698D01*
X40695Y36355D01*
X40692Y36356D01*
X40687Y36357D01*
X40681Y36359D01*
X40675Y36361D01*
X40661Y36365D01*
X40644Y36370D01*
X40629Y36374D01*
X40614Y36379D01*
X40607Y36382D01*
X40602Y36385D01*
X40601Y36385D01*
X40598Y36387D01*
X40593Y36390D01*
X40587Y36394D01*
X40581Y36399D01*
X40574Y36405D01*
X40567Y36411D01*
X40561Y36419D01*
X40561Y36420D01*
X40559Y36423D01*
X40557Y36428D01*
X40555Y36434D01*
X40553Y36442D01*
X40550Y36451D01*
X40549Y36459D01*
X40548Y36470D01*
Y36471D01*
Y36474D01*
X40549Y36479D01*
X40550Y36485D01*
X40551Y36492D01*
X40553Y36500D01*
X40556Y36508D01*
X40559Y36516D01*
X40560Y36516D01*
X40561Y36519D01*
X40564Y36523D01*
X40567Y36528D01*
X40572Y36533D01*
X40577Y36540D01*
X40583Y36546D01*
X40590Y36551D01*
X40591Y36552D01*
X40593Y36553D01*
X40596Y36555D01*
X40601Y36557D01*
X40607Y36560D01*
X40613Y36563D01*
X40621Y36566D01*
X40630Y36569D01*
X40632Y36570D01*
X40635Y36570D01*
X40640Y36572D01*
X40647Y36573D01*
X40655Y36575D01*
X40664Y36576D01*
X40674Y36577D01*
X40692D01*
X40700Y36576D01*
D02*
G37*
G36*
X41082D02*
X41086D01*
X41092Y36576D01*
X41106Y36573D01*
X41122Y36570D01*
X41138Y36564D01*
X41154Y36556D01*
X41170Y36546D01*
X41171D01*
X41171Y36545D01*
X41176Y36540D01*
X41182Y36533D01*
X41190Y36524D01*
X41199Y36512D01*
X41207Y36497D01*
X41214Y36480D01*
X41219Y36460D01*
X41158Y36451D01*
Y36451D01*
X41157Y36452D01*
X41156Y36456D01*
X41154Y36463D01*
X41151Y36471D01*
X41147Y36480D01*
X41141Y36490D01*
X41134Y36499D01*
X41127Y36506D01*
X41126Y36507D01*
X41123Y36509D01*
X41118Y36512D01*
X41112Y36516D01*
X41104Y36519D01*
X41095Y36522D01*
X41085Y36525D01*
X41074Y36525D01*
X41069D01*
X41065Y36525D01*
X41057Y36524D01*
X41046Y36521D01*
X41034Y36517D01*
X41021Y36511D01*
X41008Y36502D01*
X41003Y36497D01*
X40997Y36491D01*
Y36490D01*
X40995Y36490D01*
X40994Y36488D01*
X40992Y36485D01*
X40990Y36481D01*
X40987Y36476D01*
X40985Y36471D01*
X40982Y36465D01*
X40979Y36458D01*
X40977Y36450D01*
X40974Y36441D01*
X40971Y36431D01*
X40970Y36421D01*
X40968Y36409D01*
X40967Y36397D01*
Y36383D01*
Y36382D01*
Y36380D01*
Y36376D01*
X40968Y36371D01*
Y36365D01*
X40968Y36358D01*
X40971Y36342D01*
X40974Y36324D01*
X40979Y36305D01*
X40985Y36289D01*
X40990Y36281D01*
X40995Y36274D01*
X40997Y36273D01*
X41000Y36269D01*
X41007Y36264D01*
X41015Y36258D01*
X41026Y36251D01*
X41039Y36246D01*
X41054Y36243D01*
X41062Y36242D01*
X41070Y36241D01*
X41071D01*
X41076Y36242D01*
X41083Y36243D01*
X41091Y36244D01*
X41101Y36246D01*
X41111Y36251D01*
X41122Y36256D01*
X41131Y36263D01*
X41133Y36264D01*
X41135Y36268D01*
X41139Y36273D01*
X41145Y36281D01*
X41150Y36291D01*
X41156Y36303D01*
X41160Y36317D01*
X41163Y36334D01*
X41225Y36325D01*
Y36325D01*
X41225Y36323D01*
X41224Y36320D01*
X41223Y36315D01*
X41222Y36309D01*
X41220Y36303D01*
X41215Y36288D01*
X41208Y36273D01*
X41199Y36256D01*
X41187Y36240D01*
X41180Y36232D01*
X41173Y36225D01*
X41172Y36224D01*
X41171Y36223D01*
X41168Y36222D01*
X41165Y36220D01*
X41162Y36217D01*
X41156Y36214D01*
X41151Y36211D01*
X41145Y36207D01*
X41130Y36200D01*
X41112Y36195D01*
X41093Y36191D01*
X41082Y36190D01*
X41071Y36189D01*
X41063D01*
X41058Y36190D01*
X41051Y36191D01*
X41044Y36192D01*
X41036Y36194D01*
X41027Y36195D01*
X41007Y36201D01*
X40997Y36206D01*
X40987Y36210D01*
X40977Y36216D01*
X40967Y36223D01*
X40957Y36230D01*
X40949Y36239D01*
X40948Y36240D01*
X40946Y36241D01*
X40944Y36244D01*
X40941Y36248D01*
X40938Y36253D01*
X40934Y36260D01*
X40930Y36267D01*
X40926Y36275D01*
X40921Y36285D01*
X40917Y36296D01*
X40913Y36307D01*
X40910Y36320D01*
X40907Y36334D01*
X40905Y36349D01*
X40903Y36365D01*
X40903Y36382D01*
Y36382D01*
Y36385D01*
Y36388D01*
Y36392D01*
X40903Y36397D01*
Y36403D01*
X40904Y36410D01*
X40905Y36417D01*
X40907Y36434D01*
X40911Y36451D01*
X40915Y36469D01*
X40922Y36487D01*
Y36488D01*
X40923Y36489D01*
X40924Y36491D01*
X40926Y36494D01*
X40930Y36502D01*
X40937Y36512D01*
X40946Y36523D01*
X40956Y36534D01*
X40968Y36545D01*
X40983Y36554D01*
X40983D01*
X40985Y36555D01*
X40987Y36556D01*
X40990Y36558D01*
X40994Y36559D01*
X40998Y36562D01*
X41009Y36566D01*
X41022Y36570D01*
X41037Y36573D01*
X41054Y36576D01*
X41071Y36577D01*
X41077D01*
X41082Y36576D01*
D02*
G37*
G36*
X41659Y36197D02*
X41596D01*
Y36710D01*
X41659D01*
Y36197D01*
D02*
G37*
G36*
X41500D02*
X41437D01*
Y36710D01*
X41500D01*
Y36197D01*
D02*
G37*
G36*
X41342D02*
X41279D01*
Y36569D01*
X41342D01*
Y36197D01*
D02*
G37*
G36*
X41919Y36576D02*
X41926Y36576D01*
X41933Y36574D01*
X41942Y36573D01*
X41951Y36571D01*
X41971Y36565D01*
X41982Y36561D01*
X41992Y36556D01*
X42002Y36550D01*
X42013Y36543D01*
X42022Y36536D01*
X42032Y36527D01*
X42033Y36526D01*
X42034Y36525D01*
X42036Y36522D01*
X42039Y36518D01*
X42043Y36513D01*
X42047Y36506D01*
X42052Y36499D01*
X42056Y36490D01*
X42061Y36482D01*
X42065Y36471D01*
X42070Y36459D01*
X42073Y36447D01*
X42076Y36434D01*
X42078Y36419D01*
X42080Y36405D01*
X42081Y36388D01*
Y36388D01*
Y36385D01*
Y36382D01*
Y36377D01*
X42080Y36371D01*
X42079Y36363D01*
Y36356D01*
X42078Y36348D01*
X42076Y36329D01*
X42071Y36311D01*
X42066Y36292D01*
X42059Y36275D01*
Y36274D01*
X42058Y36274D01*
X42056Y36271D01*
X42055Y36268D01*
X42050Y36261D01*
X42043Y36252D01*
X42034Y36242D01*
X42023Y36232D01*
X42010Y36221D01*
X41996Y36212D01*
X41995D01*
X41994Y36211D01*
X41992Y36209D01*
X41988Y36208D01*
X41985Y36206D01*
X41980Y36205D01*
X41969Y36200D01*
X41956Y36197D01*
X41941Y36193D01*
X41925Y36190D01*
X41907Y36189D01*
X41899D01*
X41893Y36190D01*
X41887Y36191D01*
X41879Y36192D01*
X41871Y36194D01*
X41862Y36195D01*
X41842Y36201D01*
X41831Y36206D01*
X41820Y36210D01*
X41810Y36216D01*
X41800Y36223D01*
X41790Y36230D01*
X41780Y36239D01*
X41780Y36240D01*
X41778Y36241D01*
X41776Y36244D01*
X41773Y36249D01*
X41769Y36254D01*
X41765Y36260D01*
X41761Y36267D01*
X41757Y36276D01*
X41752Y36286D01*
X41748Y36297D01*
X41744Y36308D01*
X41740Y36321D01*
X41737Y36335D01*
X41735Y36350D01*
X41734Y36366D01*
X41733Y36383D01*
Y36385D01*
Y36388D01*
X41734Y36393D01*
Y36400D01*
X41734Y36408D01*
X41736Y36419D01*
X41737Y36429D01*
X41740Y36441D01*
X41743Y36453D01*
X41747Y36465D01*
X41751Y36479D01*
X41757Y36491D01*
X41763Y36503D01*
X41771Y36515D01*
X41780Y36526D01*
X41790Y36536D01*
X41791Y36536D01*
X41792Y36537D01*
X41795Y36539D01*
X41799Y36542D01*
X41803Y36545D01*
X41809Y36549D01*
X41815Y36553D01*
X41822Y36556D01*
X41831Y36560D01*
X41839Y36564D01*
X41859Y36570D01*
X41882Y36576D01*
X41894Y36576D01*
X41907Y36577D01*
X41914D01*
X41919Y36576D01*
D02*
G37*
G36*
X40251Y36718D02*
X40257D01*
X40264Y36717D01*
X40273Y36715D01*
X40282Y36714D01*
X40301Y36710D01*
X40323Y36704D01*
X40345Y36695D01*
X40356Y36690D01*
X40367Y36684D01*
X40368Y36684D01*
X40369Y36683D01*
X40372Y36681D01*
X40376Y36678D01*
X40381Y36675D01*
X40387Y36670D01*
X40399Y36660D01*
X40413Y36647D01*
X40428Y36630D01*
X40442Y36611D01*
X40453Y36590D01*
Y36589D01*
X40455Y36587D01*
X40456Y36584D01*
X40458Y36579D01*
X40461Y36573D01*
X40463Y36567D01*
X40466Y36559D01*
X40469Y36550D01*
X40471Y36540D01*
X40474Y36530D01*
X40477Y36518D01*
X40479Y36506D01*
X40482Y36480D01*
X40484Y36452D01*
Y36451D01*
Y36448D01*
Y36445D01*
X40483Y36439D01*
Y36432D01*
X40482Y36424D01*
X40481Y36415D01*
X40480Y36405D01*
X40476Y36384D01*
X40470Y36360D01*
X40462Y36337D01*
X40458Y36325D01*
X40452Y36313D01*
Y36312D01*
X40450Y36310D01*
X40449Y36307D01*
X40446Y36303D01*
X40443Y36297D01*
X40439Y36292D01*
X40429Y36278D01*
X40416Y36263D01*
X40402Y36248D01*
X40384Y36233D01*
X40363Y36220D01*
X40362D01*
X40361Y36218D01*
X40357Y36217D01*
X40353Y36214D01*
X40348Y36212D01*
X40342Y36210D01*
X40334Y36207D01*
X40326Y36204D01*
X40317Y36201D01*
X40308Y36198D01*
X40286Y36194D01*
X40263Y36190D01*
X40239Y36189D01*
X40231D01*
X40227Y36189D01*
X40220D01*
X40213Y36191D01*
X40205Y36192D01*
X40195Y36193D01*
X40175Y36197D01*
X40154Y36203D01*
X40132Y36212D01*
X40120Y36217D01*
X40109Y36223D01*
X40109Y36224D01*
X40107Y36225D01*
X40104Y36227D01*
X40100Y36230D01*
X40095Y36233D01*
X40090Y36237D01*
X40078Y36249D01*
X40063Y36262D01*
X40049Y36278D01*
X40035Y36297D01*
X40023Y36318D01*
Y36319D01*
X40021Y36321D01*
X40020Y36324D01*
X40018Y36328D01*
X40016Y36334D01*
X40014Y36341D01*
X40011Y36348D01*
X40009Y36357D01*
X40006Y36366D01*
X40003Y36376D01*
X39998Y36398D01*
X39995Y36421D01*
X39994Y36446D01*
Y36447D01*
Y36448D01*
Y36452D01*
X39995Y36459D01*
Y36468D01*
X39996Y36478D01*
X39998Y36490D01*
X40000Y36505D01*
X40003Y36519D01*
X40006Y36535D01*
X40010Y36551D01*
X40016Y36567D01*
X40023Y36584D01*
X40030Y36601D01*
X40040Y36617D01*
X40050Y36632D01*
X40062Y36646D01*
X40063Y36647D01*
X40065Y36649D01*
X40069Y36653D01*
X40075Y36657D01*
X40081Y36663D01*
X40089Y36669D01*
X40099Y36676D01*
X40110Y36682D01*
X40122Y36689D01*
X40135Y36695D01*
X40150Y36701D01*
X40166Y36707D01*
X40183Y36712D01*
X40200Y36715D01*
X40219Y36718D01*
X40239Y36718D01*
X40245D01*
X40251Y36718D01*
D02*
G37*
%LPC*%
G36*
X44162Y35055D02*
X44100Y35043D01*
X44047Y35007D01*
X44011Y34954D01*
X43999Y34892D01*
X44011Y34830D01*
X44047Y34777D01*
X44100Y34741D01*
X44162Y34729D01*
X44224Y34741D01*
X44277Y34777D01*
X44313Y34830D01*
X44325Y34892D01*
X44313Y34954D01*
X44277Y35007D01*
X44224Y35043D01*
X44162Y35055D01*
D02*
G37*
G36*
X45169Y35036D02*
X45107Y35024D01*
X45054Y34989D01*
X45019Y34936D01*
X45006Y34873D01*
X45019Y34811D01*
X45054Y34758D01*
X45107Y34722D01*
X45169Y34710D01*
X45232Y34722D01*
X45285Y34758D01*
X45320Y34811D01*
X45332Y34873D01*
X45320Y34936D01*
X45285Y34989D01*
X45232Y35024D01*
X45169Y35036D01*
D02*
G37*
G36*
X44678Y35034D02*
X44616Y35022D01*
X44563Y34986D01*
X44527Y34933D01*
X44515Y34871D01*
X44527Y34809D01*
X44563Y34756D01*
X44616Y34720D01*
X44678Y34708D01*
X44740Y34720D01*
X44793Y34756D01*
X44829Y34809D01*
X44841Y34871D01*
X44829Y34933D01*
X44793Y34986D01*
X44740Y35022D01*
X44678Y35034D01*
D02*
G37*
G36*
X45156Y34169D02*
X45094Y34156D01*
X45041Y34121D01*
X45006Y34068D01*
X44993Y34006D01*
X45006Y33943D01*
X45041Y33890D01*
X45094Y33855D01*
X45156Y33842D01*
X45219Y33855D01*
X45272Y33890D01*
X45307Y33943D01*
X45319Y34006D01*
X45307Y34068D01*
X45272Y34121D01*
X45219Y34156D01*
X45156Y34169D01*
D02*
G37*
G36*
X44675Y34166D02*
X44613Y34154D01*
X44560Y34118D01*
X44525Y34065D01*
X44512Y34003D01*
X44525Y33941D01*
X44560Y33888D01*
X44613Y33852D01*
X44675Y33840D01*
X44738Y33852D01*
X44791Y33888D01*
X44826Y33941D01*
X44839Y34003D01*
X44826Y34065D01*
X44791Y34118D01*
X44738Y34154D01*
X44675Y34166D01*
D02*
G37*
G36*
X44180Y34158D02*
X44118Y34146D01*
X44065Y34110D01*
X44030Y34057D01*
X44017Y33995D01*
X44030Y33933D01*
X44065Y33880D01*
X44118Y33844D01*
X44180Y33832D01*
X44243Y33844D01*
X44296Y33880D01*
X44331Y33933D01*
X44344Y33995D01*
X44331Y34057D01*
X44296Y34110D01*
X44243Y34146D01*
X44180Y34158D01*
D02*
G37*
G36*
X43672Y34148D02*
X43609Y34135D01*
X43556Y34100D01*
X43521Y34047D01*
X43509Y33984D01*
X43521Y33922D01*
X43556Y33869D01*
X43609Y33834D01*
X43672Y33821D01*
X43734Y33834D01*
X43787Y33869D01*
X43822Y33922D01*
X43835Y33984D01*
X43822Y34047D01*
X43787Y34100D01*
X43734Y34135D01*
X43672Y34148D01*
D02*
G37*
G36*
X37330Y33908D02*
X37268Y33895D01*
X37215Y33860D01*
X37179Y33807D01*
X37167Y33745D01*
X37179Y33682D01*
X37210Y33637D01*
X37213Y33629D01*
X37216Y33625D01*
X37218Y33623D01*
X37219Y33621D01*
X37221Y33618D01*
X37222Y33616D01*
X37223Y33612D01*
X37224Y33609D01*
X37224Y33604D01*
X37225Y33599D01*
X37225Y33591D01*
X37228Y33585D01*
Y32865D01*
X37225Y32858D01*
X37225Y32850D01*
X37224Y32845D01*
X37224Y32841D01*
X37223Y32837D01*
X37222Y32834D01*
X37221Y32831D01*
X37219Y32829D01*
X37218Y32826D01*
X37216Y32824D01*
X37213Y32820D01*
X37210Y32812D01*
X37179Y32767D01*
X37167Y32705D01*
X37179Y32642D01*
X37215Y32589D01*
X37268Y32554D01*
X37330Y32542D01*
X37392Y32554D01*
X37445Y32589D01*
X37481Y32642D01*
X37493Y32705D01*
X37481Y32767D01*
X37450Y32812D01*
X37447Y32820D01*
X37444Y32824D01*
X37442Y32826D01*
X37441Y32829D01*
X37440Y32831D01*
X37438Y32834D01*
X37437Y32837D01*
X37436Y32841D01*
X37436Y32845D01*
X37435Y32850D01*
X37435Y32858D01*
X37432Y32865D01*
Y33585D01*
X37435Y33591D01*
X37435Y33599D01*
X37436Y33604D01*
X37436Y33609D01*
X37437Y33612D01*
X37438Y33616D01*
X37440Y33618D01*
X37441Y33621D01*
X37442Y33623D01*
X37444Y33625D01*
X37447Y33629D01*
X37450Y33637D01*
X37481Y33682D01*
X37493Y33745D01*
X37481Y33807D01*
X37445Y33860D01*
X37392Y33895D01*
X37330Y33908D01*
D02*
G37*
G36*
X31724Y32655D02*
X31632Y32643D01*
X31545Y32607D01*
X31471Y32550D01*
X31414Y32476D01*
X31378Y32389D01*
X31366Y32297D01*
X31378Y32204D01*
X31414Y32117D01*
X31471Y32043D01*
X31545Y31986D01*
X31632Y31950D01*
X31724Y31938D01*
X31817Y31950D01*
X31904Y31986D01*
X31978Y32043D01*
X32035Y32117D01*
X32071Y32204D01*
X32083Y32297D01*
X32071Y32389D01*
X32035Y32476D01*
X31978Y32550D01*
X31904Y32607D01*
X31817Y32643D01*
X31724Y32655D01*
D02*
G37*
G36*
X41194Y32641D02*
X41102Y32629D01*
X41015Y32593D01*
X40941Y32536D01*
X40884Y32462D01*
X40848Y32375D01*
X40836Y32282D01*
X40848Y32190D01*
X40884Y32103D01*
X40941Y32029D01*
X41015Y31972D01*
X41102Y31936D01*
X41194Y31924D01*
X41287Y31936D01*
X41374Y31972D01*
X41448Y32029D01*
X41505Y32103D01*
X41541Y32190D01*
X41553Y32282D01*
X41541Y32375D01*
X41505Y32462D01*
X41448Y32536D01*
X41374Y32593D01*
X41287Y32629D01*
X41194Y32641D01*
D02*
G37*
G36*
X22532Y32160D02*
X22099D01*
X22032Y32151D01*
X21970Y32125D01*
X21916Y32084D01*
X21875Y32030D01*
X21849Y31968D01*
X21840Y31901D01*
X21849Y31834D01*
X21875Y31771D01*
X21916Y31718D01*
X21970Y31676D01*
X22032Y31651D01*
X22099Y31642D01*
X22532D01*
X22599Y31651D01*
X22662Y31676D01*
X22715Y31718D01*
X22757Y31771D01*
X22782Y31834D01*
X22791Y31901D01*
X22782Y31968D01*
X22757Y32030D01*
X22715Y32084D01*
X22662Y32125D01*
X22599Y32151D01*
X22532Y32160D01*
D02*
G37*
G36*
X22107Y31529D02*
X22034Y31515D01*
X21971Y31473D01*
X21930Y31411D01*
X21915Y31338D01*
X21930Y31264D01*
X21971Y31202D01*
X22034Y31161D01*
X22107Y31146D01*
X22180Y31161D01*
X22242Y31202D01*
X22284Y31264D01*
X22299Y31338D01*
X22284Y31411D01*
X22242Y31473D01*
X22180Y31515D01*
X22107Y31529D01*
D02*
G37*
G36*
X50000Y32958D02*
X49771Y32940D01*
X49548Y32887D01*
X49336Y32799D01*
X49141Y32679D01*
X48966Y32530D01*
X48817Y32355D01*
X48697Y32160D01*
X48609Y31948D01*
X48556Y31725D01*
X48538Y31496D01*
X48556Y31267D01*
X48609Y31044D01*
X48697Y30832D01*
X48817Y30637D01*
X48966Y30462D01*
X49141Y30313D01*
X49336Y30193D01*
X49548Y30105D01*
X49771Y30052D01*
X50000Y30034D01*
X50229Y30052D01*
X50452Y30105D01*
X50664Y30193D01*
X50859Y30313D01*
X51034Y30462D01*
X51183Y30637D01*
X51303Y30832D01*
X51391Y31044D01*
X51444Y31267D01*
X51462Y31496D01*
X51444Y31725D01*
X51391Y31948D01*
X51303Y32160D01*
X51183Y32355D01*
X51034Y32530D01*
X50859Y32679D01*
X50664Y32799D01*
X50452Y32887D01*
X50229Y32940D01*
X50000Y32958D01*
D02*
G37*
G36*
X23220Y30673D02*
X23158Y30661D01*
X23105Y30625D01*
X23069Y30572D01*
X23057Y30510D01*
X23069Y30448D01*
X23099Y30403D01*
X23102Y30395D01*
X23108Y30388D01*
X23112Y30383D01*
X23116Y30379D01*
X23118Y30374D01*
X23120Y30371D01*
X23122Y30367D01*
X23123Y30364D01*
X23124Y30361D01*
X23124Y30358D01*
X23124Y30352D01*
X23127Y30345D01*
Y30339D01*
X23124Y30332D01*
X23124Y30326D01*
X23124Y30323D01*
X23123Y30320D01*
X23122Y30317D01*
X23120Y30314D01*
X23118Y30310D01*
X23116Y30306D01*
X23112Y30301D01*
X23108Y30296D01*
X23102Y30290D01*
X23099Y30281D01*
X23069Y30237D01*
X23057Y30174D01*
X23069Y30112D01*
X23105Y30059D01*
X23158Y30024D01*
X23220Y30011D01*
X23282Y30024D01*
X23335Y30059D01*
X23371Y30112D01*
X23383Y30174D01*
X23371Y30237D01*
X23338Y30285D01*
X23336Y30292D01*
X23330Y30298D01*
X23325Y30303D01*
X23322Y30307D01*
X23320Y30311D01*
X23318Y30315D01*
X23316Y30318D01*
X23315Y30321D01*
X23315Y30324D01*
X23314Y30327D01*
X23314Y30333D01*
X23311Y30340D01*
Y30345D01*
X23314Y30351D01*
X23314Y30357D01*
X23315Y30360D01*
X23315Y30363D01*
X23316Y30366D01*
X23318Y30369D01*
X23320Y30373D01*
X23322Y30377D01*
X23325Y30381D01*
X23330Y30386D01*
X23336Y30392D01*
X23338Y30399D01*
X23371Y30448D01*
X23383Y30510D01*
X23371Y30572D01*
X23335Y30625D01*
X23282Y30661D01*
X23220Y30673D01*
D02*
G37*
G36*
X23190Y29853D02*
X23128Y29841D01*
X23075Y29805D01*
X23039Y29752D01*
X23027Y29690D01*
X23039Y29628D01*
X23075Y29575D01*
X23128Y29539D01*
X23190Y29527D01*
X23252Y29539D01*
X23256Y29542D01*
X23263Y29542D01*
X23272Y29546D01*
X23289Y29554D01*
X23295Y29556D01*
X23310Y29560D01*
X23315Y29561D01*
X23320Y29562D01*
X23324Y29562D01*
X23330Y29563D01*
X23337Y29566D01*
X26434D01*
X26441Y29563D01*
X26447Y29562D01*
X26450Y29562D01*
X26453Y29561D01*
X26456Y29560D01*
X26459Y29559D01*
X26463Y29557D01*
X26467Y29554D01*
X26472Y29551D01*
X26476Y29547D01*
X26483Y29541D01*
X26491Y29538D01*
X26537Y29507D01*
X26599Y29494D01*
X26662Y29507D01*
X26715Y29542D01*
X26750Y29595D01*
X26763Y29657D01*
X26750Y29720D01*
X26715Y29773D01*
X26662Y29808D01*
X26599Y29821D01*
X26537Y29808D01*
X26491Y29777D01*
X26483Y29774D01*
X26476Y29768D01*
X26472Y29764D01*
X26467Y29761D01*
X26463Y29758D01*
X26459Y29756D01*
X26456Y29755D01*
X26453Y29754D01*
X26450Y29753D01*
X26447Y29753D01*
X26441Y29752D01*
X26434Y29749D01*
X23360D01*
X23353Y29752D01*
X23347Y29753D01*
X23345Y29753D01*
X23345Y29753D01*
X23344Y29753D01*
X23344Y29753D01*
X23344Y29754D01*
X23343Y29754D01*
X23342Y29755D01*
X23341Y29758D01*
X23338Y29763D01*
X23328Y29771D01*
X23305Y29805D01*
X23252Y29841D01*
X23190Y29853D01*
D02*
G37*
G36*
X52511Y33473D02*
X52466Y33454D01*
X52465Y33454D01*
X52447Y33409D01*
X52447Y29474D01*
X52466Y29428D01*
X52466Y29428D01*
X52512Y29409D01*
X53185D01*
X53231Y29428D01*
X53785Y29981D01*
X53804Y30027D01*
Y32848D01*
X53785Y32894D01*
X53224Y33454D01*
X53178Y33473D01*
X52511D01*
X52511Y33473D01*
D02*
G37*
G36*
X47482Y33450D02*
X46799D01*
X46753Y33431D01*
X46223Y32902D01*
X46204Y32856D01*
Y30017D01*
X46223Y29971D01*
X46790Y29404D01*
X46836Y29385D01*
X47482D01*
X47482Y29385D01*
X47528Y29404D01*
X47528Y29405D01*
X47547Y29450D01*
X47547Y33385D01*
X47528Y33431D01*
X47528Y33431D01*
X47509Y33439D01*
X47482Y33450D01*
D02*
G37*
G36*
X22107Y29254D02*
X22034Y29239D01*
X21971Y29198D01*
X21930Y29135D01*
X21915Y29062D01*
X21930Y28989D01*
X21971Y28927D01*
X22034Y28885D01*
X22107Y28871D01*
X22180Y28885D01*
X22242Y28927D01*
X22284Y28989D01*
X22299Y29062D01*
X22284Y29135D01*
X22242Y29198D01*
X22180Y29239D01*
X22107Y29254D01*
D02*
G37*
G36*
X39349Y31181D02*
X37851D01*
Y30916D01*
X37851Y30904D01*
Y30866D01*
X37851Y30854D01*
Y30601D01*
X37851Y30589D01*
Y30551D01*
X37851Y30539D01*
Y30286D01*
X37851Y30274D01*
Y30236D01*
X37851Y30224D01*
Y29971D01*
X37851Y29959D01*
Y29921D01*
X37851Y29909D01*
Y29656D01*
X37851Y29644D01*
Y29606D01*
X37851Y29594D01*
Y29341D01*
X37851Y29329D01*
Y29291D01*
X37851Y29279D01*
Y29026D01*
X37851Y29014D01*
Y28976D01*
X37851Y28964D01*
Y28714D01*
X37851Y28699D01*
X37816Y28663D01*
X37761Y28663D01*
X37756Y28660D01*
X37359D01*
X37307Y28650D01*
X37262Y28620D01*
X37112Y28469D01*
X37088Y28465D01*
X37065Y28449D01*
X35257D01*
X35195Y28436D01*
X35142Y28401D01*
X34789Y28048D01*
X34754Y27995D01*
X34741Y27933D01*
Y26902D01*
X34754Y26840D01*
X34789Y26787D01*
X39605Y21971D01*
X39658Y21936D01*
X39720Y21923D01*
X41720D01*
X43439Y20204D01*
X43492Y20169D01*
X43555Y20156D01*
X45179D01*
X45242Y20169D01*
X45295Y20204D01*
X45330Y20257D01*
X45342Y20320D01*
X45330Y20382D01*
X45295Y20435D01*
X45242Y20470D01*
X45179Y20483D01*
X43622D01*
X41903Y22202D01*
X41850Y22237D01*
X41788Y22249D01*
X39788D01*
X35067Y26970D01*
Y27865D01*
X35325Y28123D01*
X37123D01*
X37139Y28126D01*
X37161Y28106D01*
X37172Y28102D01*
X37205Y28080D01*
X37257Y28070D01*
X37257Y28070D01*
X37756D01*
X37762Y28068D01*
X37887Y28067D01*
X37902Y28066D01*
X37904Y28066D01*
X37908Y28067D01*
X37912Y28065D01*
X37921Y28069D01*
X39349D01*
Y28346D01*
X39349D01*
Y28384D01*
X39349D01*
Y28649D01*
X39349Y28661D01*
Y28699D01*
X39349Y28708D01*
X39365Y28755D01*
X39651D01*
X39658Y28751D01*
X39664Y28751D01*
X39667Y28751D01*
X39671Y28750D01*
X39675Y28749D01*
X39679Y28747D01*
X39684Y28745D01*
X39689Y28742D01*
X39694Y28739D01*
X39700Y28735D01*
X39707Y28729D01*
X39720Y28725D01*
X39751Y28704D01*
X39813Y28692D01*
X39875Y28704D01*
X39928Y28740D01*
X39964Y28793D01*
X39976Y28855D01*
X39964Y28918D01*
X39928Y28971D01*
X39875Y29006D01*
X39813Y29018D01*
X39751Y29006D01*
X39698Y28971D01*
X39694Y28965D01*
X39687Y28961D01*
X39681Y28955D01*
X39678Y28951D01*
X39674Y28948D01*
X39671Y28946D01*
X39668Y28944D01*
X39666Y28943D01*
X39663Y28942D01*
X39661Y28942D01*
X39658Y28942D01*
X39652Y28941D01*
X39651Y28941D01*
X39649Y28941D01*
X39644Y28938D01*
X39398D01*
X39349Y28976D01*
Y29014D01*
X39349Y29026D01*
Y29279D01*
X39349Y29291D01*
Y29329D01*
X39349Y29341D01*
Y29594D01*
X39349Y29606D01*
Y29644D01*
X39349Y29656D01*
Y29909D01*
X39349Y29921D01*
Y29959D01*
X39349Y29971D01*
Y30224D01*
X39349Y30236D01*
Y30274D01*
X39349Y30286D01*
Y30539D01*
X39349Y30551D01*
Y30589D01*
X39349Y30601D01*
Y30854D01*
X39349Y30866D01*
Y30904D01*
X39349Y30916D01*
Y31181D01*
D02*
G37*
G36*
X22532Y28758D02*
X22099D01*
X22032Y28749D01*
X21970Y28724D01*
X21916Y28682D01*
X21875Y28629D01*
X21849Y28566D01*
X21840Y28499D01*
X21849Y28432D01*
X21875Y28370D01*
X21916Y28316D01*
X21970Y28275D01*
X22032Y28249D01*
X22099Y28240D01*
X22532D01*
X22599Y28249D01*
X22662Y28275D01*
X22715Y28316D01*
X22757Y28370D01*
X22782Y28432D01*
X22791Y28499D01*
X22782Y28566D01*
X22757Y28629D01*
X22715Y28682D01*
X22662Y28724D01*
X22599Y28749D01*
X22532Y28758D01*
D02*
G37*
G36*
X46995Y27550D02*
X46933Y27537D01*
X46880Y27502D01*
X46844Y27449D01*
X46832Y27387D01*
X46844Y27324D01*
X46880Y27271D01*
X46933Y27236D01*
X46995Y27224D01*
X47057Y27236D01*
X47110Y27271D01*
X47146Y27324D01*
X47158Y27387D01*
X47146Y27449D01*
X47110Y27502D01*
X47057Y27537D01*
X46995Y27550D01*
D02*
G37*
G36*
X39349Y27716D02*
X37851D01*
Y27451D01*
X37851Y27439D01*
Y27401D01*
X37851Y27389D01*
Y27137D01*
X37851Y27124D01*
Y27087D01*
X37851Y27074D01*
Y26822D01*
X37851Y26809D01*
Y26772D01*
X37851Y26762D01*
X37835Y26716D01*
X36485D01*
X36478Y26719D01*
X36472Y26719D01*
X36469Y26719D01*
X36465Y26720D01*
X36461Y26721D01*
X36457Y26723D01*
X36452Y26725D01*
X36447Y26728D01*
X36442Y26731D01*
X36436Y26736D01*
X36429Y26742D01*
X36416Y26745D01*
X36386Y26766D01*
X36323Y26778D01*
X36261Y26766D01*
X36208Y26730D01*
X36172Y26677D01*
X36160Y26615D01*
X36172Y26553D01*
X36208Y26500D01*
X36261Y26464D01*
X36323Y26452D01*
X36386Y26464D01*
X36438Y26500D01*
X36442Y26505D01*
X36449Y26509D01*
X36455Y26515D01*
X36459Y26519D01*
X36462Y26522D01*
X36465Y26524D01*
X36468Y26526D01*
X36471Y26527D01*
X36473Y26528D01*
X36475Y26528D01*
X36478Y26529D01*
X36484Y26529D01*
X36485Y26530D01*
X36487Y26529D01*
X36492Y26532D01*
X37802D01*
X37851Y26494D01*
Y26457D01*
X37851Y26444D01*
Y26393D01*
X37850Y26393D01*
X37843Y26390D01*
X36837D01*
X36830Y26393D01*
X36824Y26394D01*
X36820Y26394D01*
X36816Y26395D01*
X36811Y26396D01*
X36806Y26398D01*
X36801Y26400D01*
X36795Y26403D01*
X36781Y26411D01*
X36773Y26416D01*
X36760Y26418D01*
X36743Y26430D01*
X36681Y26442D01*
X36618Y26430D01*
X36565Y26395D01*
X36530Y26342D01*
X36517Y26279D01*
X36530Y26217D01*
X36565Y26164D01*
X36618Y26129D01*
X36681Y26116D01*
X36743Y26129D01*
X36796Y26164D01*
X36807Y26180D01*
X36817Y26187D01*
X36822Y26193D01*
X36824Y26196D01*
X36827Y26199D01*
X36829Y26200D01*
X36830Y26201D01*
X36832Y26202D01*
X36833Y26203D01*
X36835Y26203D01*
X36837Y26203D01*
X36843Y26204D01*
X36848Y26206D01*
X36853Y26205D01*
X36856Y26207D01*
X37065D01*
X37075Y26157D01*
X37032Y26128D01*
X36997Y26075D01*
X36984Y26013D01*
X36997Y25951D01*
X37032Y25898D01*
X37085Y25862D01*
X37148Y25850D01*
X37210Y25862D01*
X37246Y25887D01*
X37258Y25891D01*
X37265Y25897D01*
X37270Y25901D01*
X37275Y25904D01*
X37280Y25907D01*
X37284Y25909D01*
X37288Y25911D01*
X37292Y25912D01*
X37295Y25912D01*
X37298Y25913D01*
X37304Y25913D01*
X37311Y25916D01*
X37843D01*
X37851Y25913D01*
X37851Y25913D01*
Y25864D01*
X39349D01*
Y26129D01*
X39349Y26142D01*
Y26179D01*
X39349Y26192D01*
Y26444D01*
X39349Y26457D01*
Y26494D01*
X39349Y26507D01*
Y26759D01*
X39349Y26772D01*
Y26809D01*
X39389Y26845D01*
X40508D01*
X40513Y26843D01*
X40515Y26843D01*
X40517Y26842D01*
X40523Y26842D01*
X40526Y26842D01*
X40528Y26841D01*
X40530Y26840D01*
X40532Y26839D01*
X40535Y26838D01*
X40538Y26835D01*
X40541Y26833D01*
X40545Y26829D01*
X40550Y26822D01*
X40558Y26819D01*
X40563Y26811D01*
X40616Y26776D01*
X40678Y26763D01*
X40741Y26776D01*
X40794Y26811D01*
X40829Y26864D01*
X40841Y26926D01*
X40829Y26989D01*
X40794Y27042D01*
X40741Y27077D01*
X40678Y27090D01*
X40616Y27077D01*
X40588Y27058D01*
X40575Y27055D01*
X40567Y27049D01*
X40561Y27045D01*
X40556Y27041D01*
X40550Y27038D01*
X40546Y27036D01*
X40541Y27035D01*
X40537Y27033D01*
X40534Y27033D01*
X40530Y27032D01*
X40524Y27032D01*
X40517Y27029D01*
X39398D01*
X39350Y27073D01*
X39349Y27076D01*
X39349Y27087D01*
X39349Y27130D01*
X39371Y27177D01*
X39812D01*
X39819Y27174D01*
X39825Y27174D01*
X39828Y27173D01*
X39831Y27173D01*
X39835Y27172D01*
X39839Y27170D01*
X39843Y27168D01*
X39848Y27165D01*
X39853Y27162D01*
X39859Y27158D01*
X39866Y27152D01*
X39878Y27148D01*
X39912Y27125D01*
X39975Y27112D01*
X40037Y27125D01*
X40090Y27160D01*
X40125Y27213D01*
X40138Y27275D01*
X40125Y27338D01*
X40090Y27391D01*
X40037Y27426D01*
X39975Y27438D01*
X39912Y27426D01*
X39859Y27391D01*
X39857Y27387D01*
X39851Y27385D01*
X39845Y27378D01*
X39841Y27375D01*
X39838Y27371D01*
X39834Y27369D01*
X39831Y27367D01*
X39828Y27366D01*
X39826Y27365D01*
X39823Y27365D01*
X39820Y27364D01*
X39815Y27364D01*
X39814Y27364D01*
X39813Y27364D01*
X39807Y27361D01*
X39398D01*
X39349Y27401D01*
Y27439D01*
X39349Y27451D01*
Y27716D01*
D02*
G37*
G36*
X46408Y27303D02*
X46346Y27291D01*
X46293Y27256D01*
X46258Y27203D01*
X46245Y27140D01*
X46258Y27078D01*
X46293Y27025D01*
X46346Y26989D01*
X46408Y26977D01*
X46471Y26989D01*
X46524Y27025D01*
X46559Y27078D01*
X46572Y27140D01*
X46559Y27203D01*
X46524Y27256D01*
X46471Y27291D01*
X46408Y27303D01*
D02*
G37*
G36*
X47593Y27295D02*
X47531Y27283D01*
X47478Y27247D01*
X47442Y27195D01*
X47430Y27132D01*
X47442Y27070D01*
X47478Y27017D01*
X47531Y26981D01*
X47593Y26969D01*
X47655Y26981D01*
X47708Y27017D01*
X47744Y27070D01*
X47756Y27132D01*
X47744Y27195D01*
X47708Y27247D01*
X47655Y27283D01*
X47593Y27295D01*
D02*
G37*
G36*
X47822Y26723D02*
X47759Y26711D01*
X47706Y26675D01*
X47671Y26622D01*
X47659Y26560D01*
X47671Y26498D01*
X47706Y26445D01*
X47759Y26409D01*
X47822Y26397D01*
X47884Y26409D01*
X47937Y26445D01*
X47972Y26498D01*
X47985Y26560D01*
X47972Y26622D01*
X47937Y26675D01*
X47884Y26711D01*
X47822Y26723D01*
D02*
G37*
G36*
X46168D02*
X46106Y26711D01*
X46053Y26675D01*
X46018Y26622D01*
X46005Y26560D01*
X46018Y26498D01*
X46053Y26445D01*
X46106Y26409D01*
X46168Y26397D01*
X46231Y26409D01*
X46284Y26445D01*
X46319Y26498D01*
X46331Y26560D01*
X46319Y26622D01*
X46284Y26675D01*
X46231Y26711D01*
X46168Y26723D01*
D02*
G37*
G36*
X46995Y26839D02*
X46923Y26829D01*
X46856Y26802D01*
X46798Y26757D01*
X46753Y26699D01*
X46726Y26632D01*
X46716Y26560D01*
X46726Y26488D01*
X46753Y26421D01*
X46798Y26363D01*
X46856Y26318D01*
X46923Y26291D01*
X46995Y26281D01*
X47067Y26291D01*
X47134Y26318D01*
X47192Y26363D01*
X47237Y26421D01*
X47264Y26488D01*
X47274Y26560D01*
X47264Y26632D01*
X47237Y26699D01*
X47192Y26757D01*
X47134Y26802D01*
X47067Y26829D01*
X46995Y26839D01*
D02*
G37*
G36*
X46389Y26167D02*
X46327Y26155D01*
X46274Y26119D01*
X46239Y26067D01*
X46226Y26004D01*
X46239Y25942D01*
X46274Y25889D01*
X46327Y25853D01*
X46389Y25841D01*
X46452Y25853D01*
X46505Y25889D01*
X46540Y25942D01*
X46553Y26004D01*
X46540Y26067D01*
X46505Y26119D01*
X46452Y26155D01*
X46389Y26167D01*
D02*
G37*
G36*
X47558Y26129D02*
X47496Y26117D01*
X47443Y26082D01*
X47407Y26029D01*
X47395Y25966D01*
X47407Y25904D01*
X47443Y25851D01*
X47496Y25816D01*
X47558Y25803D01*
X47620Y25816D01*
X47673Y25851D01*
X47709Y25904D01*
X47721Y25966D01*
X47709Y26029D01*
X47673Y26082D01*
X47620Y26117D01*
X47558Y26129D01*
D02*
G37*
G36*
X46995Y25896D02*
X46933Y25884D01*
X46880Y25849D01*
X46844Y25796D01*
X46832Y25733D01*
X46844Y25671D01*
X46880Y25618D01*
X46933Y25583D01*
X46995Y25570D01*
X47057Y25583D01*
X47110Y25618D01*
X47146Y25671D01*
X47158Y25733D01*
X47146Y25796D01*
X47110Y25849D01*
X47057Y25884D01*
X46995Y25896D01*
D02*
G37*
G36*
X30285Y22471D02*
X30223Y22459D01*
X30170Y22423D01*
X30134Y22370D01*
X30122Y22308D01*
X30134Y22246D01*
X30170Y22193D01*
X30223Y22157D01*
X30285Y22145D01*
X30347Y22157D01*
X30400Y22193D01*
X30436Y22246D01*
X30448Y22308D01*
X30436Y22370D01*
X30400Y22423D01*
X30347Y22459D01*
X30285Y22471D01*
D02*
G37*
G36*
X44166Y22460D02*
X44103Y22448D01*
X44051Y22413D01*
X44015Y22360D01*
X44003Y22297D01*
X44015Y22235D01*
X44051Y22182D01*
X44103Y22147D01*
X44166Y22134D01*
X44228Y22147D01*
X44281Y22182D01*
X44317Y22235D01*
X44329Y22297D01*
X44317Y22360D01*
X44281Y22413D01*
X44228Y22448D01*
X44166Y22460D01*
D02*
G37*
G36*
X43673Y22457D02*
X43611Y22445D01*
X43558Y22409D01*
X43522Y22356D01*
X43510Y22294D01*
X43522Y22232D01*
X43558Y22179D01*
X43611Y22143D01*
X43673Y22131D01*
X43735Y22143D01*
X43788Y22179D01*
X43824Y22232D01*
X43836Y22294D01*
X43824Y22356D01*
X43788Y22409D01*
X43735Y22445D01*
X43673Y22457D01*
D02*
G37*
G36*
X44682Y22455D02*
X44620Y22443D01*
X44567Y22408D01*
X44531Y22355D01*
X44519Y22292D01*
X44531Y22230D01*
X44567Y22177D01*
X44620Y22141D01*
X44682Y22129D01*
X44744Y22141D01*
X44797Y22177D01*
X44833Y22230D01*
X44845Y22292D01*
X44833Y22355D01*
X44797Y22408D01*
X44744Y22443D01*
X44682Y22455D01*
D02*
G37*
G36*
X33624Y22203D02*
X33562Y22191D01*
X33509Y22155D01*
X33496Y22135D01*
X33494Y22135D01*
X33493Y22134D01*
X33492Y22134D01*
X33491Y22133D01*
X33490Y22133D01*
X33488Y22132D01*
X33474Y22131D01*
X33466Y22131D01*
X33460Y22128D01*
X33452D01*
X33450Y22128D01*
X33449Y22128D01*
X32273D01*
X32267Y22131D01*
X32249Y22132D01*
X32243Y22132D01*
X32239Y22133D01*
X32235Y22134D01*
X32233Y22134D01*
X32233Y22135D01*
X32232Y22135D01*
X32230Y22136D01*
X32229Y22136D01*
X32229Y22136D01*
X32228Y22136D01*
X32227Y22137D01*
X32224Y22137D01*
X32181Y22167D01*
X32118Y22179D01*
X32056Y22167D01*
X32003Y22131D01*
X31968Y22078D01*
X31955Y22016D01*
X31968Y21954D01*
X32003Y21901D01*
X32056Y21865D01*
X32118Y21853D01*
X32181Y21865D01*
X32224Y21895D01*
X32227Y21895D01*
X32228Y21896D01*
X32229Y21896D01*
X32229Y21896D01*
X32230Y21896D01*
X32232Y21897D01*
X32233Y21897D01*
X32233Y21898D01*
X32235Y21898D01*
X32239Y21899D01*
X32243Y21900D01*
X32257Y21901D01*
X32266Y21901D01*
X32272Y21904D01*
X33490D01*
X33496Y21901D01*
X33506Y21901D01*
X33523Y21900D01*
X33535Y21899D01*
X33538Y21898D01*
X33541Y21898D01*
X33541Y21898D01*
X33541Y21897D01*
X33542Y21897D01*
X33544Y21897D01*
X33549Y21897D01*
X33551Y21897D01*
X33562Y21889D01*
X33624Y21877D01*
X33687Y21889D01*
X33740Y21924D01*
X33775Y21977D01*
X33788Y22040D01*
X33775Y22102D01*
X33740Y22155D01*
X33687Y22191D01*
X33624Y22203D01*
D02*
G37*
G36*
X30791Y22447D02*
X30729Y22434D01*
X30676Y22399D01*
X30641Y22346D01*
X30628Y22283D01*
X30641Y22221D01*
X30676Y22168D01*
X30729Y22133D01*
X30791Y22120D01*
X30854Y22133D01*
X30907Y22168D01*
X30942Y22221D01*
X30954Y22283D01*
X30942Y22346D01*
X30907Y22399D01*
X30854Y22434D01*
X30791Y22447D01*
D02*
G37*
G36*
X29785Y22431D02*
X29723Y22418D01*
X29670Y22383D01*
X29635Y22330D01*
X29622Y22267D01*
X29635Y22205D01*
X29670Y22152D01*
X29723Y22117D01*
X29785Y22104D01*
X29848Y22117D01*
X29901Y22152D01*
X29936Y22205D01*
X29948Y22267D01*
X29936Y22330D01*
X29901Y22383D01*
X29848Y22418D01*
X29785Y22431D01*
D02*
G37*
G36*
X29280Y22414D02*
X29218Y22401D01*
X29165Y22366D01*
X29130Y22313D01*
X29117Y22250D01*
X29130Y22188D01*
X29165Y22135D01*
X29218Y22100D01*
X29280Y22087D01*
X29343Y22100D01*
X29396Y22135D01*
X29431Y22188D01*
X29443Y22250D01*
X29431Y22313D01*
X29396Y22366D01*
X29343Y22401D01*
X29280Y22414D01*
D02*
G37*
G36*
X43680Y21542D02*
X43617Y21530D01*
X43564Y21494D01*
X43529Y21441D01*
X43517Y21379D01*
X43529Y21316D01*
X43564Y21264D01*
X43617Y21228D01*
X43680Y21216D01*
X43742Y21228D01*
X43795Y21264D01*
X43830Y21316D01*
X43843Y21379D01*
X43830Y21441D01*
X43795Y21494D01*
X43742Y21530D01*
X43680Y21542D01*
D02*
G37*
G36*
X44681Y21541D02*
X44618Y21529D01*
X44565Y21493D01*
X44530Y21440D01*
X44518Y21378D01*
X44530Y21316D01*
X44565Y21263D01*
X44618Y21227D01*
X44681Y21215D01*
X44743Y21227D01*
X44796Y21263D01*
X44831Y21316D01*
X44844Y21378D01*
X44831Y21440D01*
X44796Y21493D01*
X44743Y21529D01*
X44681Y21541D01*
D02*
G37*
G36*
X30290D02*
X30227Y21529D01*
X30174Y21493D01*
X30139Y21440D01*
X30127Y21378D01*
X30139Y21316D01*
X30174Y21263D01*
X30227Y21227D01*
X30290Y21215D01*
X30352Y21227D01*
X30405Y21263D01*
X30440Y21316D01*
X30453Y21378D01*
X30440Y21440D01*
X30405Y21493D01*
X30352Y21529D01*
X30290Y21541D01*
D02*
G37*
G36*
X44181Y21537D02*
X44119Y21525D01*
X44066Y21490D01*
X44030Y21437D01*
X44018Y21374D01*
X44030Y21312D01*
X44066Y21259D01*
X44119Y21224D01*
X44181Y21211D01*
X44244Y21224D01*
X44297Y21259D01*
X44332Y21312D01*
X44344Y21374D01*
X44332Y21437D01*
X44297Y21490D01*
X44244Y21525D01*
X44181Y21537D01*
D02*
G37*
G36*
X45177Y21536D02*
X45114Y21524D01*
X45061Y21488D01*
X45026Y21435D01*
X45014Y21373D01*
X45026Y21311D01*
X45061Y21258D01*
X45114Y21222D01*
X45177Y21210D01*
X45239Y21222D01*
X45292Y21258D01*
X45327Y21311D01*
X45340Y21373D01*
X45327Y21435D01*
X45292Y21488D01*
X45239Y21524D01*
X45177Y21536D01*
D02*
G37*
G36*
X30797Y21532D02*
X30734Y21520D01*
X30681Y21484D01*
X30646Y21431D01*
X30634Y21369D01*
X30646Y21307D01*
X30681Y21254D01*
X30734Y21218D01*
X30797Y21206D01*
X30859Y21218D01*
X30912Y21254D01*
X30947Y21307D01*
X30960Y21369D01*
X30947Y21431D01*
X30912Y21484D01*
X30859Y21520D01*
X30797Y21532D01*
D02*
G37*
G36*
X29293Y21516D02*
X29230Y21504D01*
X29177Y21468D01*
X29142Y21415D01*
X29130Y21353D01*
X29142Y21291D01*
X29177Y21238D01*
X29230Y21202D01*
X29293Y21190D01*
X29355Y21202D01*
X29408Y21238D01*
X29443Y21291D01*
X29456Y21353D01*
X29443Y21415D01*
X29408Y21468D01*
X29355Y21504D01*
X29293Y21516D01*
D02*
G37*
%LPD*%
G36*
X37394Y33667D02*
X37389Y33661D01*
X37385Y33654D01*
X37381Y33646D01*
X37378Y33639D01*
X37375Y33630D01*
X37373Y33622D01*
X37371Y33613D01*
X37370Y33603D01*
X37370Y33593D01*
X37290D01*
X37290Y33603D01*
X37289Y33613D01*
X37287Y33622D01*
X37285Y33630D01*
X37283Y33639D01*
X37279Y33646D01*
X37275Y33654D01*
X37271Y33661D01*
X37266Y33667D01*
X37260Y33673D01*
X37400D01*
X37394Y33667D01*
D02*
G37*
G36*
X37370Y32846D02*
X37371Y32837D01*
X37373Y32828D01*
X37375Y32819D01*
X37378Y32811D01*
X37381Y32803D01*
X37385Y32796D01*
X37389Y32789D01*
X37394Y32782D01*
X37400Y32776D01*
X37260D01*
X37266Y32782D01*
X37271Y32789D01*
X37275Y32796D01*
X37279Y32803D01*
X37283Y32811D01*
X37285Y32819D01*
X37287Y32828D01*
X37289Y32837D01*
X37290Y32846D01*
X37290Y32856D01*
X37370D01*
X37370Y32846D01*
D02*
G37*
G36*
X23289Y30438D02*
X23282Y30430D01*
X23275Y30422D01*
X23269Y30414D01*
X23264Y30406D01*
X23259Y30398D01*
X23256Y30389D01*
X23253Y30381D01*
X23251Y30372D01*
X23249Y30363D01*
X23249Y30354D01*
X23189Y30355D01*
X23189Y30364D01*
X23187Y30373D01*
X23185Y30381D01*
X23183Y30390D01*
X23179Y30398D01*
X23175Y30407D01*
X23170Y30415D01*
X23164Y30423D01*
X23157Y30431D01*
X23149Y30439D01*
X23289Y30438D01*
D02*
G37*
G36*
X23249Y30321D02*
X23251Y30312D01*
X23253Y30304D01*
X23256Y30295D01*
X23259Y30287D01*
X23264Y30278D01*
X23269Y30270D01*
X23275Y30262D01*
X23282Y30254D01*
X23289Y30246D01*
X23149Y30245D01*
X23157Y30253D01*
X23164Y30261D01*
X23170Y30269D01*
X23175Y30278D01*
X23179Y30286D01*
X23183Y30294D01*
X23185Y30303D01*
X23187Y30312D01*
X23189Y30320D01*
X23189Y30329D01*
X23249Y30330D01*
X23249Y30321D01*
D02*
G37*
G36*
X23285Y29724D02*
X23290Y29717D01*
X23296Y29710D01*
X23302Y29704D01*
X23309Y29699D01*
X23316Y29695D01*
X23324Y29692D01*
X23332Y29689D01*
X23341Y29688D01*
X23350Y29687D01*
X23328Y29627D01*
X23320Y29627D01*
X23312Y29626D01*
X23303Y29625D01*
X23294Y29623D01*
X23275Y29618D01*
X23266Y29614D01*
X23245Y29606D01*
X23235Y29601D01*
X23280Y29733D01*
X23285Y29724D01*
D02*
G37*
G36*
X26528Y29587D02*
X26520Y29595D01*
X26512Y29602D01*
X26504Y29608D01*
X26496Y29613D01*
X26487Y29617D01*
X26479Y29621D01*
X26470Y29624D01*
X26462Y29626D01*
X26453Y29627D01*
X26444Y29627D01*
Y29687D01*
X26453Y29688D01*
X26462Y29689D01*
X26470Y29691D01*
X26479Y29694D01*
X26487Y29697D01*
X26496Y29702D01*
X26504Y29707D01*
X26512Y29713D01*
X26520Y29720D01*
X26528Y29727D01*
Y29587D01*
D02*
G37*
G36*
X39288Y28901D02*
X39290Y28896D01*
X39293Y28891D01*
X39297Y28887D01*
X39303Y28884D01*
X39309Y28881D01*
X39317Y28879D01*
X39326Y28878D01*
X39336Y28877D01*
X39348Y28876D01*
Y28816D01*
X39336Y28816D01*
X39326Y28815D01*
X39317Y28814D01*
X39309Y28812D01*
X39303Y28809D01*
X39297Y28806D01*
X39293Y28802D01*
X39290Y28797D01*
X39288Y28792D01*
X39288Y28786D01*
Y28906D01*
X39288Y28901D01*
D02*
G37*
G36*
X39748Y28779D02*
X39739Y28786D01*
X39731Y28793D01*
X39722Y28798D01*
X39713Y28803D01*
X39704Y28807D01*
X39696Y28810D01*
X39687Y28813D01*
X39678Y28815D01*
X39670Y28816D01*
X39661Y28816D01*
X39655Y28876D01*
X39664Y28877D01*
X39673Y28878D01*
X39682Y28880D01*
X39690Y28883D01*
X39698Y28887D01*
X39706Y28892D01*
X39714Y28897D01*
X39721Y28903D01*
X39729Y28911D01*
X39736Y28919D01*
X39748Y28779D01*
D02*
G37*
G36*
X37912Y28445D02*
X37911Y28446D01*
X37906Y28446D01*
X37888Y28447D01*
X37762Y28448D01*
Y28598D01*
X37912Y28600D01*
Y28445D01*
D02*
G37*
G36*
X37343Y28399D02*
X37327Y28380D01*
X37314Y28361D01*
X37304Y28344D01*
X37297Y28327D01*
X37293Y28312D01*
X37293Y28297D01*
X37295Y28284D01*
X37301Y28272D01*
X37310Y28261D01*
X37204Y28155D01*
X37137Y28215D01*
X37215Y28293D01*
X37151Y28314D01*
X37363Y28420D01*
X37343Y28399D01*
D02*
G37*
G36*
X37912Y28130D02*
X37911Y28131D01*
X37906Y28131D01*
X37888Y28132D01*
X37762Y28133D01*
Y28283D01*
X37912Y28285D01*
Y28130D01*
D02*
G37*
G36*
X39288Y27323D02*
X39290Y27318D01*
X39293Y27314D01*
X39297Y27310D01*
X39303Y27307D01*
X39309Y27304D01*
X39317Y27302D01*
X39326Y27300D01*
X39336Y27299D01*
X39348Y27299D01*
Y27239D01*
X39336Y27239D01*
X39326Y27238D01*
X39317Y27236D01*
X39309Y27234D01*
X39303Y27232D01*
X39297Y27228D01*
X39293Y27224D01*
X39290Y27220D01*
X39288Y27215D01*
X39288Y27209D01*
Y27329D01*
X39288Y27323D01*
D02*
G37*
G36*
X39908Y27201D02*
X39899Y27208D01*
X39891Y27215D01*
X39882Y27220D01*
X39874Y27225D01*
X39865Y27230D01*
X39856Y27233D01*
X39848Y27236D01*
X39839Y27238D01*
X39830Y27239D01*
X39821Y27239D01*
X39818Y27299D01*
X39827Y27299D01*
X39835Y27301D01*
X39844Y27303D01*
X39852Y27306D01*
X39861Y27309D01*
X39869Y27314D01*
X39877Y27319D01*
X39884Y27326D01*
X39892Y27333D01*
X39899Y27341D01*
X39908Y27201D01*
D02*
G37*
G36*
X39288Y26991D02*
X39290Y26986D01*
X39293Y26982D01*
X39297Y26978D01*
X39303Y26975D01*
X39309Y26972D01*
X39317Y26970D01*
X39326Y26968D01*
X39336Y26967D01*
X39348Y26967D01*
Y26907D01*
X39336Y26907D01*
X39326Y26906D01*
X39317Y26904D01*
X39309Y26902D01*
X39303Y26900D01*
X39297Y26896D01*
X39293Y26892D01*
X39290Y26888D01*
X39288Y26883D01*
X39288Y26877D01*
Y26997D01*
X39288Y26991D01*
D02*
G37*
G36*
X40600Y26864D02*
X40593Y26873D01*
X40586Y26880D01*
X40579Y26886D01*
X40571Y26892D01*
X40563Y26896D01*
X40555Y26900D01*
X40547Y26903D01*
X40538Y26905D01*
X40529Y26907D01*
X40520Y26907D01*
X40527Y26967D01*
X40536Y26967D01*
X40544Y26969D01*
X40553Y26970D01*
X40562Y26973D01*
X40571Y26976D01*
X40579Y26980D01*
X40588Y26985D01*
X40597Y26990D01*
X40606Y26997D01*
X40615Y27004D01*
X40600Y26864D01*
D02*
G37*
G36*
X37913Y26564D02*
X37913Y26570D01*
X37911Y26575D01*
X37908Y26579D01*
X37904Y26583D01*
X37898Y26586D01*
X37891Y26589D01*
X37883Y26591D01*
X37874Y26593D01*
X37864Y26594D01*
X37852Y26594D01*
Y26654D01*
X37864Y26654D01*
X37874Y26655D01*
X37883Y26657D01*
X37891Y26659D01*
X37898Y26661D01*
X37904Y26665D01*
X37908Y26669D01*
X37911Y26673D01*
X37913Y26678D01*
X37913Y26684D01*
Y26564D01*
D02*
G37*
G36*
X36397Y26684D02*
X36405Y26678D01*
X36414Y26672D01*
X36423Y26667D01*
X36432Y26663D01*
X36440Y26660D01*
X36449Y26657D01*
X36458Y26655D01*
X36466Y26654D01*
X36475Y26654D01*
X36481Y26594D01*
X36472Y26593D01*
X36463Y26592D01*
X36454Y26590D01*
X36446Y26587D01*
X36438Y26583D01*
X36430Y26579D01*
X36422Y26573D01*
X36415Y26567D01*
X36408Y26560D01*
X36400Y26552D01*
X36388Y26691D01*
X36397Y26684D01*
D02*
G37*
G36*
X37912Y26240D02*
X37912Y26246D01*
X37910Y26250D01*
X37907Y26255D01*
X37903Y26258D01*
X37897Y26261D01*
X37891Y26264D01*
X37883Y26266D01*
X37874Y26267D01*
X37864Y26268D01*
X37852Y26269D01*
Y26329D01*
X37864Y26329D01*
X37874Y26330D01*
X37883Y26331D01*
X37891Y26333D01*
X37898Y26336D01*
X37903Y26339D01*
X37908Y26343D01*
X37911Y26348D01*
X37913Y26353D01*
X37913Y26359D01*
X37912Y26240D01*
D02*
G37*
G36*
X36747Y26355D02*
X36766Y26345D01*
X36775Y26341D01*
X36784Y26337D01*
X36793Y26334D01*
X36802Y26332D01*
X36811Y26330D01*
X36819Y26329D01*
X36828Y26329D01*
X36840Y26269D01*
X36831Y26268D01*
X36822Y26267D01*
X36814Y26265D01*
X36805Y26261D01*
X36798Y26258D01*
X36790Y26253D01*
X36783Y26247D01*
X36777Y26240D01*
X36770Y26233D01*
X36764Y26224D01*
X36737Y26362D01*
X36747Y26355D01*
D02*
G37*
G36*
X37913Y25948D02*
X37913Y25954D01*
X37911Y25959D01*
X37908Y25963D01*
X37904Y25967D01*
X37898Y25970D01*
X37891Y25973D01*
X37883Y25975D01*
X37874Y25977D01*
X37864Y25978D01*
X37852Y25978D01*
Y26038D01*
X37864Y26038D01*
X37874Y26039D01*
X37883Y26041D01*
X37891Y26043D01*
X37898Y26045D01*
X37904Y26049D01*
X37908Y26053D01*
X37911Y26057D01*
X37913Y26062D01*
X37913Y26068D01*
Y25948D01*
D02*
G37*
G36*
X37230Y26071D02*
X37237Y26064D01*
X37245Y26058D01*
X37253Y26053D01*
X37261Y26048D01*
X37270Y26045D01*
X37278Y26042D01*
X37287Y26040D01*
X37295Y26038D01*
X37304Y26038D01*
X37301Y25978D01*
X37292Y25978D01*
X37284Y25976D01*
X37275Y25974D01*
X37266Y25972D01*
X37258Y25968D01*
X37249Y25964D01*
X37241Y25959D01*
X37232Y25953D01*
X37224Y25947D01*
X37215Y25939D01*
X37222Y26079D01*
X37230Y26071D01*
D02*
G37*
G36*
X33572Y21955D02*
X33568Y21957D01*
X33563Y21959D01*
X33557Y21960D01*
X33551Y21962D01*
X33544Y21963D01*
X33528Y21965D01*
X33508Y21966D01*
X33497Y21966D01*
X33468Y22066D01*
X33479Y22066D01*
X33498Y22068D01*
X33506Y22070D01*
X33513Y22072D01*
X33520Y22075D01*
X33526Y22078D01*
X33531Y22082D01*
X33535Y22086D01*
X33538Y22091D01*
X33572Y21955D01*
D02*
G37*
G36*
X32194Y22082D02*
X32199Y22079D01*
X32205Y22076D01*
X32211Y22073D01*
X32218Y22071D01*
X32226Y22069D01*
X32235Y22068D01*
X32244Y22067D01*
X32265Y22066D01*
Y21966D01*
X32254Y21966D01*
X32235Y21964D01*
X32226Y21963D01*
X32218Y21961D01*
X32211Y21959D01*
X32205Y21956D01*
X32199Y21953D01*
X32194Y21950D01*
X32190Y21946D01*
Y22086D01*
X32194Y22082D01*
D02*
G37*
%LPC*%
G36*
X39503Y14222D02*
X39273D01*
Y14119D01*
X39503D01*
Y14222D01*
D02*
G37*
G36*
Y14099D02*
X39273D01*
Y13993D01*
X39503D01*
Y14099D01*
D02*
G37*
G36*
X38545Y14252D02*
X38329D01*
Y14101D01*
X38545D01*
Y14252D01*
D02*
G37*
G36*
X38280D02*
X38070D01*
Y14101D01*
X38280D01*
Y14252D01*
D02*
G37*
G36*
X38545Y14081D02*
X38329D01*
Y13924D01*
X38545D01*
Y14081D01*
D02*
G37*
G36*
X38280D02*
X38070D01*
Y13924D01*
X38280D01*
Y14081D01*
D02*
G37*
G36*
X36506Y14183D02*
X36307D01*
Y13941D01*
X36506D01*
Y14183D01*
D02*
G37*
G36*
X37611Y14001D02*
X37503D01*
Y13865D01*
X37611D01*
Y14001D01*
D02*
G37*
G36*
X32801Y36655D02*
Y36654D01*
X32800Y36653D01*
Y36650D01*
X32799Y36647D01*
X32798Y36642D01*
X32797Y36637D01*
X32794Y36624D01*
X32790Y36609D01*
X32785Y36593D01*
X32780Y36575D01*
X32773Y36557D01*
X32718Y36407D01*
X32891D01*
X32837Y36548D01*
Y36549D01*
X32837Y36551D01*
X32835Y36554D01*
X32834Y36559D01*
X32831Y36564D01*
X32829Y36571D01*
X32827Y36578D01*
X32824Y36586D01*
X32818Y36603D01*
X32812Y36620D01*
X32806Y36638D01*
X32801Y36655D01*
D02*
G37*
G36*
X32296Y36648D02*
X32178D01*
Y36257D01*
X32299D01*
X32305Y36258D01*
X32316Y36258D01*
X32328Y36259D01*
X32342Y36261D01*
X32355Y36263D01*
X32366Y36266D01*
X32367Y36267D01*
X32371Y36267D01*
X32376Y36270D01*
X32383Y36273D01*
X32390Y36277D01*
X32398Y36281D01*
X32405Y36287D01*
X32413Y36293D01*
X32413Y36294D01*
X32416Y36297D01*
X32421Y36302D01*
X32426Y36310D01*
X32432Y36319D01*
X32439Y36330D01*
X32444Y36343D01*
X32450Y36357D01*
Y36358D01*
X32450Y36359D01*
X32451Y36361D01*
X32452Y36364D01*
X32453Y36368D01*
X32454Y36373D01*
X32456Y36378D01*
X32457Y36384D01*
X32459Y36399D01*
X32461Y36416D01*
X32463Y36435D01*
X32464Y36456D01*
Y36457D01*
Y36460D01*
Y36463D01*
X32463Y36469D01*
Y36476D01*
X32462Y36483D01*
X32461Y36492D01*
X32461Y36501D01*
X32457Y36521D01*
X32453Y36542D01*
X32446Y36561D01*
X32441Y36571D01*
X32437Y36579D01*
Y36580D01*
X32436Y36581D01*
X32434Y36583D01*
X32433Y36586D01*
X32427Y36594D01*
X32419Y36603D01*
X32410Y36612D01*
X32399Y36622D01*
X32386Y36630D01*
X32373Y36637D01*
X32371Y36637D01*
X32367Y36638D01*
X32361Y36640D01*
X32351Y36643D01*
X32339Y36644D01*
X32325Y36646D01*
X32316Y36647D01*
X32306D01*
X32296Y36648D01*
D02*
G37*
G36*
X29978D02*
X29832D01*
Y36465D01*
X29969D01*
X29974Y36466D01*
X29980D01*
X29985Y36466D01*
X29999Y36468D01*
X30015Y36471D01*
X30031Y36475D01*
X30045Y36481D01*
X30051Y36485D01*
X30056Y36489D01*
X30058Y36491D01*
X30061Y36494D01*
X30065Y36500D01*
X30071Y36507D01*
X30076Y36517D01*
X30080Y36529D01*
X30083Y36542D01*
X30085Y36557D01*
Y36558D01*
Y36559D01*
Y36563D01*
X30084Y36569D01*
X30082Y36577D01*
X30081Y36585D01*
X30078Y36594D01*
X30073Y36603D01*
X30068Y36612D01*
X30068Y36613D01*
X30065Y36616D01*
X30062Y36620D01*
X30057Y36625D01*
X30051Y36630D01*
X30043Y36634D01*
X30035Y36639D01*
X30025Y36643D01*
X30025D01*
X30022Y36643D01*
X30017Y36644D01*
X30011Y36646D01*
X30002Y36646D01*
X29991Y36647D01*
X29978Y36648D01*
D02*
G37*
G36*
X25213Y14225D02*
X24997D01*
Y14074D01*
X25213D01*
Y14225D01*
D02*
G37*
G36*
X24948D02*
X24738D01*
Y14074D01*
X24948D01*
Y14225D01*
D02*
G37*
G36*
X25213Y14054D02*
X24997D01*
Y13896D01*
X25213D01*
Y14054D01*
D02*
G37*
G36*
X24948D02*
X24738D01*
Y13896D01*
X24948D01*
Y14054D01*
D02*
G37*
G36*
X26116Y14285D02*
X25924D01*
X25925Y14284D01*
X25925Y14281D01*
X25928Y14276D01*
X25932Y14269D01*
X25936Y14262D01*
X25941Y14253D01*
X25947Y14242D01*
X25953Y14231D01*
X25967Y14207D01*
X25984Y14183D01*
X26002Y14159D01*
X26011Y14148D01*
X26022Y14138D01*
X26023Y14139D01*
X26024Y14142D01*
X26027Y14145D01*
X26032Y14151D01*
X26036Y14157D01*
X26042Y14165D01*
X26048Y14174D01*
X26056Y14184D01*
X26071Y14206D01*
X26086Y14230D01*
X26102Y14257D01*
X26116Y14285D01*
D02*
G37*
G36*
X26136Y13908D02*
X25902D01*
Y13714D01*
X26136D01*
Y13908D01*
D02*
G37*
G36*
X41907Y36525D02*
X41902D01*
X41899Y36525D01*
X41891Y36524D01*
X41879Y36521D01*
X41867Y36516D01*
X41854Y36510D01*
X41841Y36502D01*
X41834Y36496D01*
X41828Y36490D01*
Y36489D01*
X41827Y36488D01*
X41825Y36486D01*
X41823Y36483D01*
X41821Y36479D01*
X41819Y36475D01*
X41816Y36469D01*
X41813Y36463D01*
X41810Y36456D01*
X41807Y36448D01*
X41805Y36439D01*
X41802Y36430D01*
X41800Y36419D01*
X41799Y36408D01*
X41798Y36396D01*
X41797Y36383D01*
Y36382D01*
Y36380D01*
Y36377D01*
X41798Y36371D01*
Y36365D01*
X41799Y36359D01*
X41801Y36343D01*
X41805Y36325D01*
X41811Y36308D01*
X41818Y36291D01*
X41823Y36283D01*
X41828Y36276D01*
X41829D01*
X41830Y36274D01*
X41834Y36271D01*
X41841Y36265D01*
X41850Y36259D01*
X41861Y36252D01*
X41874Y36246D01*
X41890Y36243D01*
X41898Y36242D01*
X41907Y36241D01*
X41911D01*
X41915Y36242D01*
X41923Y36243D01*
X41934Y36246D01*
X41946Y36250D01*
X41959Y36256D01*
X41972Y36265D01*
X41979Y36271D01*
X41985Y36277D01*
X41985Y36277D01*
X41986Y36278D01*
X41987Y36280D01*
X41990Y36283D01*
X41992Y36287D01*
X41995Y36291D01*
X41998Y36297D01*
X42001Y36303D01*
X42004Y36311D01*
X42006Y36319D01*
X42009Y36328D01*
X42011Y36337D01*
X42013Y36348D01*
X42015Y36360D01*
X42016Y36372D01*
Y36385D01*
Y36386D01*
Y36388D01*
Y36392D01*
X42016Y36397D01*
Y36402D01*
X42015Y36409D01*
X42013Y36425D01*
X42009Y36441D01*
X42003Y36459D01*
X41995Y36475D01*
X41990Y36483D01*
X41985Y36490D01*
Y36490D01*
X41983Y36491D01*
X41979Y36496D01*
X41972Y36501D01*
X41963Y36508D01*
X41952Y36514D01*
X41939Y36520D01*
X41924Y36524D01*
X41916Y36525D01*
X41907Y36525D01*
D02*
G37*
G36*
X40239Y36660D02*
X40232D01*
X40227Y36659D01*
X40220Y36658D01*
X40214Y36657D01*
X40206Y36656D01*
X40197Y36654D01*
X40177Y36648D01*
X40167Y36644D01*
X40157Y36639D01*
X40146Y36633D01*
X40135Y36627D01*
X40125Y36619D01*
X40115Y36610D01*
X40115Y36610D01*
X40113Y36608D01*
X40111Y36605D01*
X40107Y36601D01*
X40103Y36596D01*
X40099Y36589D01*
X40095Y36581D01*
X40089Y36571D01*
X40085Y36561D01*
X40080Y36548D01*
X40075Y36535D01*
X40072Y36520D01*
X40068Y36504D01*
X40066Y36485D01*
X40064Y36466D01*
X40063Y36445D01*
Y36445D01*
Y36442D01*
Y36436D01*
X40064Y36430D01*
X40065Y36422D01*
X40066Y36414D01*
X40068Y36403D01*
X40069Y36393D01*
X40075Y36369D01*
X40080Y36357D01*
X40084Y36345D01*
X40090Y36333D01*
X40097Y36321D01*
X40104Y36310D01*
X40113Y36300D01*
X40114Y36299D01*
X40115Y36297D01*
X40118Y36294D01*
X40122Y36291D01*
X40127Y36287D01*
X40133Y36283D01*
X40140Y36278D01*
X40147Y36273D01*
X40156Y36268D01*
X40166Y36263D01*
X40176Y36259D01*
X40187Y36254D01*
X40199Y36251D01*
X40211Y36249D01*
X40224Y36247D01*
X40238Y36246D01*
X40242D01*
X40245Y36247D01*
X40251D01*
X40257Y36248D01*
X40265Y36249D01*
X40274Y36251D01*
X40283Y36253D01*
X40293Y36256D01*
X40302Y36260D01*
X40314Y36263D01*
X40324Y36268D01*
X40334Y36275D01*
X40345Y36282D01*
X40355Y36290D01*
X40365Y36300D01*
X40365Y36300D01*
X40367Y36302D01*
X40369Y36305D01*
X40373Y36310D01*
X40376Y36315D01*
X40380Y36322D01*
X40385Y36330D01*
X40390Y36339D01*
X40394Y36349D01*
X40399Y36361D01*
X40402Y36374D01*
X40407Y36387D01*
X40410Y36402D01*
X40412Y36418D01*
X40413Y36435D01*
X40414Y36453D01*
Y36453D01*
Y36456D01*
Y36459D01*
Y36463D01*
X40413Y36468D01*
Y36475D01*
X40413Y36482D01*
X40411Y36490D01*
X40409Y36507D01*
X40405Y36525D01*
X40400Y36544D01*
X40393Y36562D01*
Y36562D01*
X40392Y36564D01*
X40391Y36566D01*
X40389Y36569D01*
X40384Y36578D01*
X40377Y36588D01*
X40368Y36600D01*
X40357Y36612D01*
X40345Y36624D01*
X40331Y36634D01*
X40330D01*
X40329Y36636D01*
X40327Y36636D01*
X40323Y36639D01*
X40319Y36640D01*
X40315Y36642D01*
X40304Y36647D01*
X40291Y36652D01*
X40275Y36656D01*
X40257Y36659D01*
X40239Y36660D01*
D02*
G37*
%LPD*%
D10*
X37801Y20031D02*
X38350Y19482D01*
X37310Y20031D02*
X37801D01*
X37020Y19740D02*
X37310Y20031D01*
X32415Y19654D02*
Y21688D01*
X31700Y16060D02*
Y18939D01*
X32415Y19654D01*
X31700Y16060D02*
X32580Y15180D01*
X32338Y14703D02*
Y14709D01*
X32580Y14951D01*
Y15180D01*
X31865Y15176D02*
Y15176D01*
X36209Y19775D02*
X36513Y19470D01*
X36750D02*
X37020Y19740D01*
X36513Y19470D02*
X36750D01*
X36209Y21688D02*
X41639D01*
X32415D02*
X36209D01*
Y19775D02*
Y21688D01*
X43339Y15148D02*
Y15502D01*
X45628Y17791D02*
Y19863D01*
X43339Y15502D02*
X45628Y17791D01*
X43516Y14925D02*
Y14971D01*
X43339Y15148D02*
X43516Y14971D01*
X50024Y35318D02*
Y35346D01*
X50455Y35840D02*
X52778D01*
X43464Y19863D02*
X45628D01*
X41639Y21688D02*
X43464Y19863D01*
X50024Y35409D02*
X50455Y35840D01*
X49734Y35513D02*
Y35576D01*
X50024Y35346D02*
Y35409D01*
X49856Y27431D02*
X52244Y25043D01*
X49856Y27431D02*
Y28380D01*
X32118Y22016D02*
X33624D01*
D13*
X32575Y14466D02*
D03*
X31865Y15176D02*
D03*
X32338Y14703D02*
D03*
X32101Y14940D02*
D03*
X36783Y19977D02*
D03*
X37493Y19267D02*
D03*
X37020Y19740D02*
D03*
X37256Y19504D02*
D03*
D14*
X38113Y19245D02*
D03*
X38823Y19955D02*
D03*
X38350Y19482D02*
D03*
X38587Y19719D02*
D03*
X43753Y15161D02*
D03*
X43043Y14452D02*
D03*
X43516Y14925D02*
D03*
X43280Y14688D02*
D03*
D15*
X38600Y25688D02*
D03*
Y26003D02*
D03*
Y26318D02*
D03*
Y26633D02*
D03*
Y26948D02*
D03*
Y27263D02*
D03*
Y27578D02*
D03*
Y27893D02*
D03*
Y28208D02*
D03*
Y28523D02*
D03*
Y28838D02*
D03*
Y29153D02*
D03*
Y29467D02*
D03*
Y29782D02*
D03*
Y30097D02*
D03*
Y30412D02*
D03*
Y30727D02*
D03*
Y31042D02*
D03*
D16*
X52100Y34628D02*
D03*
X48160D02*
D03*
D17*
X49734Y35513D02*
D03*
X50603Y35011D02*
D03*
X50024Y35346D02*
D03*
X50313Y35178D02*
D03*
D18*
X49517Y28465D02*
D03*
X50521D02*
D03*
X49852D02*
D03*
X50186D02*
D03*
D19*
X20946Y24523D02*
D03*
Y26532D02*
D03*
D35*
X52949Y36030D02*
X53273Y35707D01*
X50188Y36030D02*
X52949D01*
X50557Y35485D02*
X53762D01*
X50313Y35242D02*
X50557Y35485D01*
X53762D02*
X56146Y33101D01*
Y26245D02*
Y33101D01*
X49734Y35576D02*
X50188Y36030D01*
X32670Y19228D02*
Y19228D01*
X31959Y16142D02*
Y18517D01*
X32670Y19228D01*
Y19228D02*
X33442Y20000D01*
X32575Y14466D02*
X32931Y14823D01*
X31959Y16142D02*
X32931Y15170D01*
Y14823D02*
Y15170D01*
X33442Y20000D02*
X35647D01*
X36498Y19149D01*
X36901D02*
X37256Y19504D01*
X36498Y19149D02*
X36901D01*
X43823Y16262D02*
Y18290D01*
X43075Y14923D02*
Y15514D01*
X43823Y16262D01*
X43075Y14923D02*
X43280Y14719D01*
Y14688D02*
Y14719D01*
X41909Y20204D02*
X43823Y18290D01*
X38500Y18978D02*
X39726Y20204D01*
X41909D01*
X38381Y18978D02*
X38500D01*
X38113Y19245D02*
X38381Y18978D01*
X36783Y19977D02*
X37042Y20236D01*
X38069D02*
X38587Y19719D01*
X37042Y20236D02*
X38069D01*
X43753Y15161D02*
X46236Y17644D01*
Y21909D02*
X48432Y24105D01*
X46236Y17644D02*
Y21909D01*
X43753Y15161D02*
Y15161D01*
X48432Y24105D02*
X54006D01*
X56146Y26245D01*
X50313Y35178D02*
Y35242D01*
X38600Y28838D02*
X38609Y28846D01*
X39804D01*
X39813Y28855D01*
X38600Y26948D02*
X38611Y26937D01*
X40668D01*
X40678Y26926D01*
X38600Y27263D02*
X38606Y27269D01*
X39968D01*
X39975Y27275D01*
X38591Y26624D02*
X38600Y26633D01*
X36332Y26624D02*
X38591D01*
X36323Y26615D02*
X36332Y26624D01*
X38581Y26299D02*
X38600Y26318D01*
X36700Y26299D02*
X38581D01*
X36681Y26279D02*
X36700Y26299D01*
X38595Y26008D02*
X38600Y26003D01*
X37153Y26008D02*
X38595D01*
X37148Y26013D02*
X37153Y26008D01*
X50191Y27798D02*
Y28400D01*
Y27798D02*
X53222Y24767D01*
X23219Y30509D02*
X23220Y30510D01*
X23219Y30175D02*
Y30509D01*
Y30175D02*
X23220Y30174D01*
X23223Y29657D02*
X26599D01*
X23190Y29690D02*
X23223Y29657D01*
D36*
X30740Y16301D02*
X31865Y15176D01*
X30740Y16301D02*
Y20980D01*
X35257Y28286D02*
X37123D01*
X37151Y28314D01*
X34904Y27933D02*
X35257Y28286D01*
X34904Y26902D02*
Y27933D01*
X39720Y22086D02*
X41788D01*
X34904Y26902D02*
X39720Y22086D01*
X41788D02*
X43555Y20320D01*
X45179D01*
D37*
X37257Y28208D02*
X38600D01*
X37151Y28314D02*
X37257Y28208D01*
X37359Y28523D02*
X38600D01*
X37151Y28314D02*
X37359Y28523D01*
D38*
X45600Y36024D02*
X45600Y36024D01*
Y32706D02*
Y36024D01*
Y32706D02*
X45603Y32703D01*
X37330Y32705D02*
Y33745D01*
X55649Y31976D02*
X55657Y31984D01*
X55166Y31968D02*
X55174Y31976D01*
X55649D01*
X54807Y31304D02*
X55682D01*
X55712Y31333D01*
D39*
X49517Y28480D02*
Y28963D01*
Y28480D02*
X49527Y28470D01*
X49521Y28465D02*
X49527Y28470D01*
D40*
X20969Y23727D02*
D03*
D41*
X56234Y35439D02*
D03*
Y14770D02*
D03*
X20919D02*
D03*
Y35439D02*
D03*
D42*
X46995Y26560D02*
D03*
D43*
X34665Y17249D02*
D03*
X40965D02*
D03*
D44*
X21629Y21993D02*
D03*
D45*
X31724Y32297D02*
D03*
Y35092D02*
D03*
X41194Y32282D02*
D03*
Y35078D02*
D03*
D46*
X20670Y28499D02*
D03*
Y31901D02*
D03*
D47*
X22316Y28499D02*
D03*
Y31901D02*
D03*
D48*
X46168Y26560D02*
D03*
X47822D02*
D03*
X46995Y25733D02*
D03*
X47593Y27132D02*
D03*
X46408Y27140D02*
D03*
X46389Y26004D02*
D03*
X47558Y25966D02*
D03*
X46995Y27387D02*
D03*
X43673Y22294D02*
D03*
X30285Y22308D02*
D03*
X29293Y21353D02*
D03*
X30290Y21378D02*
D03*
X30797Y21369D02*
D03*
X29280Y22250D02*
D03*
X29785Y22267D02*
D03*
X30791Y22283D02*
D03*
X43688Y34871D02*
D03*
X44678D02*
D03*
X44162Y34892D02*
D03*
X45169Y34873D02*
D03*
X45156Y34006D02*
D03*
X44180Y33995D02*
D03*
X44675Y34003D02*
D03*
X43672Y33984D02*
D03*
X44682Y22292D02*
D03*
X44166Y22297D02*
D03*
X45177Y21373D02*
D03*
X44681Y21378D02*
D03*
X44181Y21374D02*
D03*
X43680Y21379D02*
D03*
X53273Y35707D02*
D03*
X31752Y15289D02*
D03*
X31914Y15424D02*
D03*
X38836Y20155D02*
D03*
X37536Y19106D02*
D03*
X42810Y14470D02*
D03*
X43040Y14250D02*
D03*
X42930Y14364D02*
D03*
X31637Y15013D02*
D03*
X37363Y19025D02*
D03*
X38650Y20137D02*
D03*
X52778Y35840D02*
D03*
X45628Y19863D02*
D03*
X39813Y28855D02*
D03*
X40678Y26926D02*
D03*
X39975Y27275D02*
D03*
X36323Y26615D02*
D03*
X36681Y26279D02*
D03*
X37148Y26013D02*
D03*
X45600Y36024D02*
D03*
X37330Y33745D02*
D03*
Y32705D02*
D03*
X33698Y31692D02*
D03*
X42242Y31611D02*
D03*
X35745Y33729D02*
D03*
X49517Y28963D02*
D03*
X53222Y24767D02*
D03*
X55657Y31984D02*
D03*
X52244Y25043D02*
D03*
X45898Y35111D02*
D03*
X47694Y34441D02*
D03*
X45603Y32703D02*
D03*
X33624Y22040D02*
D03*
X32415Y21688D02*
D03*
X32118Y22016D02*
D03*
X45179Y20320D02*
D03*
X55166Y31968D02*
D03*
X54791Y31962D02*
D03*
X54807Y31304D02*
D03*
X55712Y31333D02*
D03*
X23220Y30510D02*
D03*
Y30174D02*
D03*
X23297Y28594D02*
D03*
Y28265D02*
D03*
X22364Y31483D02*
D03*
X23297Y27936D02*
D03*
X45178Y22878D02*
D03*
X45161Y31034D02*
D03*
X51467Y28205D02*
D03*
X27804Y29530D02*
D03*
X27810Y30512D02*
D03*
X26599Y29657D02*
D03*
X23190Y29690D02*
D03*
M02*
