G04 EasyEDA Pro v1.9.28, 2025-09-15 11:43:01*
G04 Gerber Generator version 0.3*G04*
G04 #@! TF.GenerationSoftware,Altium Limited,Altium Designer,20.0.13 (296)*
G04*
G04 Layer_Physical_Order=2*
G04 Layer_Color=16711680*
%FSLAX24Y24*%
%MOIN*%
G70*
G01*
G75*
%ADD10C,0.0100*%
%ADD35C,0.0060*%
%ADD36C,0.0200*%
%ADD37C,0.0150*%
%ADD38C,0.0080*%
%ADD39C,0.0070*%
%ADD41C,0.1260*%
%ADD42C,0.0433*%
%ADD43C,0.3150*%
%ADD44C,0.1500*%
%ADD45C,0.0591*%
%ADD46O,0.0630X0.0394*%
%ADD47O,0.0827X0.0394*%
%ADD48C,0.0200*%
%ADD49R,0.0315X0.0394*%
G04:AMPARAMS|DCode=50|XSize=39.4mil|YSize=31.5mil|CornerRadius=0mil|HoleSize=0mil|Usage=FLASHONLY|Rotation=90.000|XOffset=0mil|YOffset=0mil|HoleType=Round|Shape=Octagon|*
%AMOCTAGOND50*
4,1,8,0.0079,0.0197,-0.0079,0.0197,-0.0157,0.0118,-0.0157,-0.0118,-0.0079,-0.0197,0.0079,-0.0197,0.0157,-0.0118,0.0157,0.0118,0.0079,0.0197,0.0*
%
%ADD50OCTAGOND50*%

%ADD51R,0.0512X0.0165*%
%ADD52C,0.0906*%
%ADD53C,0.0606*%
%ADD54R,0.0315X0.0591*%
%ADD55R,0.0400X0.0315*%
%ADD56R,0.0906X0.0472*%
%ADD57R,0.0433X0.0591*%
%ADD58R,0.0571X0.0118*%
G36*
X33018Y35559D02*
X33074Y35514D01*
X33102Y35495D01*
X33129Y35480D01*
X33156Y35467D01*
X33184Y35457D01*
X33210Y35450D01*
X33237Y35445D01*
X33264Y35444D01*
X32773Y35445D01*
X32786Y35446D01*
X32797Y35448D01*
X32805Y35451D01*
X32810Y35456D01*
X32813Y35462D01*
X32812Y35469D01*
X32809Y35478D01*
X32802Y35488D01*
X32793Y35499D01*
X32782Y35511D01*
X32989Y35586D01*
X33018Y35559D01*
D02*
G37*
G36*
X30767Y35511D02*
X30755Y35499D01*
X30746Y35488D01*
X30740Y35478D01*
X30737Y35469D01*
X30736Y35462D01*
X30739Y35456D01*
X30744Y35451D01*
X30752Y35448D01*
X30762Y35446D01*
X30776Y35445D01*
X30285Y35444D01*
X30312Y35445D01*
X30338Y35450D01*
X30365Y35457D01*
X30392Y35467D01*
X30420Y35480D01*
X30447Y35495D01*
X30475Y35514D01*
X30503Y35535D01*
X30531Y35559D01*
X30559Y35586D01*
X30767Y35511D01*
D02*
G37*
G36*
X39588Y35545D02*
X39616Y35521D01*
X39645Y35500D01*
X39673Y35481D01*
X39701Y35465D01*
X39730Y35453D01*
X39758Y35443D01*
X39786Y35435D01*
X39814Y35431D01*
X39842Y35430D01*
X39343Y35431D01*
X39356Y35432D01*
X39367Y35434D01*
X39374Y35438D01*
X39378Y35444D01*
X39379Y35451D01*
X39377Y35460D01*
X39372Y35470D01*
X39363Y35482D01*
X39352Y35496D01*
X39337Y35511D01*
X39559Y35572D01*
X39588Y35545D01*
D02*
G37*
G36*
X29874Y35010D02*
X29872Y35029D01*
X29866Y35046D01*
X29856Y35061D01*
X29842Y35074D01*
X29824Y35085D01*
X29802Y35094D01*
X29775Y35101D01*
X29745Y35106D01*
X29711Y35109D01*
X29673Y35110D01*
Y35310D01*
X29711Y35311D01*
X29745Y35314D01*
X29775Y35319D01*
X29802Y35326D01*
X29824Y35335D01*
X29842Y35346D01*
X29856Y35359D01*
X29866Y35374D01*
X29872Y35391D01*
X29874Y35410D01*
Y35010D01*
D02*
G37*
G36*
X33562Y33636D02*
X33554Y33635D01*
X33547Y33633D01*
X33543Y33630D01*
X33540Y33627D01*
X33539Y33622D01*
X33540Y33617D01*
X33543Y33612D01*
X33548Y33605D01*
X33555Y33598D01*
X33459Y33580D01*
X33448Y33591D01*
X33437Y33600D01*
X33425Y33609D01*
X33414Y33616D01*
X33403Y33622D01*
X33392Y33627D01*
X33380Y33631D01*
X33369Y33634D01*
X33358Y33636D01*
X33346Y33636D01*
X33573D01*
X33562Y33636D01*
D02*
G37*
G36*
X30365Y32669D02*
X30366Y32657D01*
X30367Y32646D01*
X30370Y32636D01*
X30373Y32628D01*
X30376Y32621D01*
X30381Y32616D01*
X30386Y32612D01*
X30391Y32610D01*
X30397Y32609D01*
X30251D01*
X30258Y32610D01*
X30263Y32612D01*
X30268Y32616D01*
X30273Y32621D01*
X30276Y32628D01*
X30279Y32636D01*
X30281Y32646D01*
X30283Y32657D01*
X30284Y32669D01*
X30284Y32683D01*
X30364D01*
X30365Y32669D01*
D02*
G37*
G36*
X37329Y32605D02*
X37321Y32604D01*
X37312Y32603D01*
X37304Y32602D01*
X37296Y32599D01*
X37289Y32596D01*
X37281Y32592D01*
X37273Y32587D01*
X37266Y32582D01*
X37258Y32576D01*
X37251Y32569D01*
X37195Y32626D01*
X37201Y32633D01*
X37207Y32640D01*
X37213Y32648D01*
X37217Y32655D01*
X37221Y32663D01*
X37225Y32671D01*
X37227Y32679D01*
X37229Y32687D01*
X37230Y32695D01*
X37230Y32704D01*
X37329Y32605D01*
D02*
G37*
G36*
X39344Y31396D02*
X39344Y31401D01*
X39342Y31407D01*
X39339Y31412D01*
X39334Y31416D01*
X39329Y31421D01*
X39322Y31424D01*
X39315Y31428D01*
X39305Y31431D01*
X39295Y31433D01*
X39284Y31436D01*
X39284Y31498D01*
X39295Y31496D01*
X39306Y31495D01*
X39315Y31495D01*
X39323Y31496D01*
X39329Y31498D01*
X39335Y31500D01*
X39339Y31503D01*
X39342Y31507D01*
X39344Y31512D01*
X39344Y31517D01*
Y31396D01*
D02*
G37*
G36*
X22728Y31517D02*
X22730Y31483D01*
X22731Y31477D01*
X22733Y31473D01*
X22733Y31472D01*
X22738D01*
X22736Y31471D01*
X22734Y31470D01*
X22736Y31468D01*
X22738Y31467D01*
X22733D01*
X22733Y31466D01*
X22731Y31462D01*
X22730Y31457D01*
X22729Y31450D01*
X22728Y31433D01*
X22728Y31411D01*
X22628D01*
X22628Y31422D01*
X22625Y31457D01*
X22624Y31462D01*
X22623Y31466D01*
X22622Y31467D01*
X22618D01*
X22620Y31468D01*
X22621Y31470D01*
X22620Y31471D01*
X22618Y31472D01*
X22622D01*
X22623Y31473D01*
X22624Y31477D01*
X22625Y31483D01*
X22626Y31489D01*
X22627Y31507D01*
X22628Y31529D01*
X22728D01*
X22728Y31517D01*
D02*
G37*
G36*
X22718Y31212D02*
X22720Y31192D01*
X22721Y31184D01*
X22723Y31178D01*
X22725Y31172D01*
X22728Y31168D01*
X22728Y31167D01*
X22738D01*
X22734Y31166D01*
X22731Y31165D01*
X22734Y31163D01*
X22738Y31162D01*
X22728D01*
X22728Y31161D01*
X22725Y31157D01*
X22723Y31152D01*
X22721Y31145D01*
X22720Y31137D01*
X22719Y31128D01*
X22718Y31106D01*
X22638D01*
X22638Y31117D01*
X22636Y31137D01*
X22635Y31145D01*
X22633Y31152D01*
X22631Y31157D01*
X22628Y31161D01*
X22627Y31162D01*
X22618D01*
X22621Y31163D01*
X22625Y31165D01*
X22621Y31166D01*
X22618Y31167D01*
X22627D01*
X22628Y31168D01*
X22631Y31172D01*
X22633Y31178D01*
X22635Y31184D01*
X22636Y31192D01*
X22637Y31202D01*
X22638Y31224D01*
X22718D01*
X22718Y31212D01*
D02*
G37*
G36*
X22394Y31048D02*
X22393Y31049D01*
X22390Y31050D01*
X22386Y31052D01*
X22381Y31053D01*
X22374Y31054D01*
X22354Y31055D01*
X22314Y31056D01*
Y31136D01*
X22329Y31136D01*
X22354Y31138D01*
X22365Y31140D01*
X22374Y31142D01*
X22381Y31146D01*
X22386Y31149D01*
X22390Y31153D01*
X22393Y31158D01*
X22394Y31163D01*
Y31048D01*
D02*
G37*
G36*
X22959Y30941D02*
X22961Y30937D01*
X22964Y30933D01*
X22968Y30929D01*
X22974Y30926D01*
X22980Y30923D01*
X22988Y30921D01*
X22997Y30920D01*
X23007Y30919D01*
X23019Y30919D01*
Y30859D01*
X23007Y30859D01*
X22997Y30858D01*
X22988Y30856D01*
X22980Y30854D01*
X22974Y30852D01*
X22968Y30849D01*
X22964Y30845D01*
X22961Y30841D01*
X22959Y30836D01*
X22959Y30831D01*
Y30947D01*
X22959Y30941D01*
D02*
G37*
G36*
X26651Y30587D02*
X26650Y30592D01*
X26648Y30597D01*
X26645Y30602D01*
X26641Y30606D01*
X26635Y30609D01*
X26629Y30612D01*
X26621Y30614D01*
X26612Y30615D01*
X26601Y30616D01*
X26590Y30617D01*
Y30677D01*
X26601Y30677D01*
X26612Y30678D01*
X26621Y30679D01*
X26629Y30681D01*
X26635Y30684D01*
X26641Y30687D01*
X26645Y30691D01*
X26648Y30696D01*
X26650Y30701D01*
X26651Y30707D01*
Y30587D01*
D02*
G37*
G36*
X22959Y30551D02*
X22961Y30548D01*
X22964Y30546D01*
X22968Y30545D01*
X22974Y30543D01*
X22980Y30542D01*
X22988Y30541D01*
X23007Y30540D01*
X23019Y30540D01*
Y30480D01*
X23007Y30480D01*
X22997Y30479D01*
X22988Y30477D01*
X22980Y30475D01*
X22973Y30473D01*
X22968Y30469D01*
X22963Y30465D01*
X22960Y30461D01*
X22958Y30456D01*
X22958Y30450D01*
X22959Y30553D01*
X22959Y30551D01*
D02*
G37*
G36*
X23149Y30440D02*
X23141Y30448D01*
X23133Y30454D01*
X23125Y30460D01*
X23116Y30466D01*
X23108Y30470D01*
X23100Y30474D01*
X23091Y30476D01*
X23082Y30478D01*
X23074Y30480D01*
X23065Y30480D01*
Y30540D01*
X23074Y30540D01*
X23082Y30542D01*
X23091Y30544D01*
X23100Y30546D01*
X23108Y30550D01*
X23116Y30554D01*
X23125Y30560D01*
X23133Y30566D01*
X23141Y30572D01*
X23149Y30580D01*
Y30440D01*
D02*
G37*
G36*
X22390Y30241D02*
X22390Y30246D01*
X22388Y30251D01*
X22385Y30255D01*
X22381Y30258D01*
X22375Y30261D01*
X22369Y30264D01*
X22361Y30266D01*
X22352Y30267D01*
X22342Y30268D01*
X22330Y30268D01*
Y30328D01*
X22342Y30329D01*
X22352Y30329D01*
X22361Y30331D01*
X22369Y30333D01*
X22375Y30335D01*
X22381Y30338D01*
X22385Y30342D01*
X22388Y30346D01*
X22390Y30351D01*
X22390Y30356D01*
Y30241D01*
D02*
G37*
G36*
X22959Y30154D02*
X22961Y30149D01*
X22964Y30145D01*
X22968Y30142D01*
X22974Y30138D01*
X22980Y30136D01*
X22988Y30134D01*
X22997Y30133D01*
X23007Y30132D01*
X23019Y30132D01*
Y30072D01*
X23007Y30071D01*
X22997Y30070D01*
X22988Y30069D01*
X22980Y30067D01*
X22974Y30065D01*
X22968Y30061D01*
X22964Y30058D01*
X22961Y30054D01*
X22959Y30049D01*
X22959Y30044D01*
Y30159D01*
X22959Y30154D01*
D02*
G37*
G36*
Y29957D02*
X22961Y29952D01*
X22964Y29948D01*
X22968Y29945D01*
X22974Y29942D01*
X22980Y29939D01*
X22988Y29937D01*
X22997Y29936D01*
X23007Y29935D01*
X23019Y29935D01*
Y29875D01*
X23007Y29874D01*
X22997Y29874D01*
X22988Y29872D01*
X22980Y29870D01*
X22974Y29868D01*
X22968Y29865D01*
X22964Y29861D01*
X22961Y29857D01*
X22959Y29852D01*
X22959Y29847D01*
Y29963D01*
X22959Y29957D01*
D02*
G37*
G36*
X22390Y29847D02*
X22390Y29851D01*
X22388Y29855D01*
X22385Y29859D01*
X22381Y29862D01*
X22375Y29864D01*
X22369Y29866D01*
X22361Y29868D01*
X22352Y29869D01*
X22342Y29870D01*
X22330Y29870D01*
Y29930D01*
X22342Y29930D01*
X22352Y29931D01*
X22362Y29933D01*
X22369Y29935D01*
X22376Y29938D01*
X22382Y29941D01*
X22386Y29945D01*
X22389Y29949D01*
X22391Y29954D01*
X22392Y29960D01*
X22390Y29847D01*
D02*
G37*
G36*
X22959Y29753D02*
X22961Y29748D01*
X22964Y29744D01*
X22968Y29740D01*
X22974Y29736D01*
X22980Y29734D01*
X22988Y29732D01*
X22997Y29730D01*
X23007Y29729D01*
X23019Y29729D01*
Y29669D01*
X23007Y29669D01*
X22988Y29667D01*
X22980Y29666D01*
X22974Y29664D01*
X22968Y29662D01*
X22964Y29660D01*
X22961Y29657D01*
X22959Y29654D01*
X22959Y29650D01*
Y29759D01*
X22959Y29753D01*
D02*
G37*
G36*
X23113Y29627D02*
X23106Y29635D01*
X23098Y29642D01*
X23091Y29648D01*
X23083Y29654D01*
X23075Y29658D01*
X23067Y29662D01*
X23059Y29665D01*
X23050Y29667D01*
X23041Y29668D01*
X23032Y29669D01*
X23038Y29729D01*
X23047Y29729D01*
X23055Y29730D01*
X23064Y29732D01*
X23073Y29735D01*
X23082Y29738D01*
X23090Y29742D01*
X23099Y29747D01*
X23108Y29753D01*
X23116Y29759D01*
X23125Y29766D01*
X23113Y29627D01*
D02*
G37*
G36*
X22731Y29237D02*
X22728Y29235D01*
X22725Y29232D01*
X22722Y29228D01*
X22720Y29222D01*
X22718Y29216D01*
X22716Y29208D01*
X22715Y29198D01*
X22715Y29176D01*
X22635D01*
X22634Y29188D01*
X22633Y29208D01*
X22631Y29216D01*
X22630Y29222D01*
X22627Y29228D01*
X22625Y29232D01*
X22622Y29235D01*
X22618Y29237D01*
X22614Y29238D01*
X22735D01*
X22731Y29237D01*
D02*
G37*
G36*
X23065Y29246D02*
X23003Y29166D01*
X22982Y29186D01*
X22945Y29218D01*
X22928Y29230D01*
X22913Y29238D01*
X22900Y29244D01*
X22888Y29246D01*
X22878Y29246D01*
X22869Y29243D01*
X22862Y29237D01*
X22959Y29352D01*
X23065Y29246D01*
D02*
G37*
G36*
X22359Y29273D02*
X22391Y29246D01*
X22404Y29237D01*
X22416Y29230D01*
X22427Y29225D01*
X22436Y29223D01*
X22443Y29224D01*
X22450Y29227D01*
X22454Y29233D01*
X22390Y29118D01*
X22390Y29121D01*
X22387Y29125D01*
X22383Y29131D01*
X22369Y29147D01*
X22322Y29197D01*
X22306Y29213D01*
X22341Y29291D01*
X22359Y29273D01*
D02*
G37*
G36*
X22960Y29038D02*
X22962Y29028D01*
X22965Y29018D01*
X22970Y29007D01*
X22977Y28996D01*
X22984Y28984D01*
X22994Y28972D01*
X23016Y28945D01*
X23030Y28932D01*
X22959Y28861D01*
X22939Y28880D01*
X22903Y28910D01*
X22887Y28921D01*
X22872Y28930D01*
X22859Y28935D01*
X22847Y28939D01*
X22836Y28939D01*
X22826Y28937D01*
X22817Y28932D01*
X22959Y29047D01*
X22960Y29038D01*
D02*
G37*
G36*
X23236Y28725D02*
X23251Y28713D01*
X23258Y28707D01*
X23265Y28703D01*
X23272Y28700D01*
X23278Y28697D01*
X23284Y28695D01*
X23290Y28694D01*
X23296Y28694D01*
X23197Y28595D01*
X23197Y28600D01*
X23195Y28606D01*
X23193Y28612D01*
X23191Y28619D01*
X23187Y28625D01*
X23183Y28632D01*
X23178Y28639D01*
X23172Y28647D01*
X23158Y28662D01*
X23229Y28733D01*
X23236Y28725D01*
D02*
G37*
G36*
X23363Y28518D02*
X23360Y28513D01*
X23357Y28507D01*
X23354Y28501D01*
X23352Y28494D01*
X23350Y28486D01*
X23349Y28477D01*
X23348Y28468D01*
X23347Y28447D01*
X23247D01*
X23247Y28458D01*
X23245Y28477D01*
X23244Y28486D01*
X23242Y28494D01*
X23240Y28501D01*
X23237Y28507D01*
X23234Y28513D01*
X23231Y28518D01*
X23227Y28522D01*
X23367D01*
X23363Y28518D01*
D02*
G37*
G36*
X23347Y28401D02*
X23349Y28381D01*
X23350Y28373D01*
X23352Y28365D01*
X23354Y28358D01*
X23357Y28351D01*
X23360Y28346D01*
X23363Y28341D01*
X23367Y28336D01*
X23227D01*
X23231Y28341D01*
X23234Y28346D01*
X23237Y28351D01*
X23240Y28358D01*
X23242Y28365D01*
X23244Y28373D01*
X23245Y28381D01*
X23246Y28391D01*
X23247Y28411D01*
X23347D01*
X23347Y28401D01*
D02*
G37*
G36*
X23363Y28189D02*
X23360Y28184D01*
X23357Y28178D01*
X23354Y28172D01*
X23352Y28165D01*
X23350Y28157D01*
X23349Y28148D01*
X23347Y28129D01*
X23347Y28118D01*
X23247D01*
X23246Y28139D01*
X23245Y28148D01*
X23244Y28157D01*
X23242Y28165D01*
X23240Y28172D01*
X23237Y28178D01*
X23234Y28184D01*
X23231Y28189D01*
X23227Y28193D01*
X23367D01*
X23363Y28189D01*
D02*
G37*
G36*
X23347Y28072D02*
X23349Y28053D01*
X23350Y28044D01*
X23352Y28036D01*
X23354Y28029D01*
X23357Y28023D01*
X23360Y28017D01*
X23363Y28012D01*
X23367Y28008D01*
X23227D01*
X23231Y28012D01*
X23234Y28017D01*
X23237Y28023D01*
X23240Y28029D01*
X23242Y28036D01*
X23244Y28044D01*
X23245Y28053D01*
X23246Y28062D01*
X23247Y28083D01*
X23347D01*
X23347Y28072D01*
D02*
G37*
G36*
X36322Y26515D02*
X36311Y26515D01*
X36301Y26514D01*
X36291Y26512D01*
X36281Y26510D01*
X36272Y26507D01*
X36264Y26504D01*
X36256Y26500D01*
X36248Y26495D01*
X36241Y26490D01*
X36234Y26484D01*
X36192Y26526D01*
X36198Y26533D01*
X36203Y26540D01*
X36208Y26547D01*
X36212Y26556D01*
X36216Y26564D01*
X36218Y26573D01*
X36221Y26583D01*
X36222Y26593D01*
X36223Y26603D01*
X36223Y26614D01*
X36322Y26515D01*
D02*
G37*
G36*
X36680Y26179D02*
X36669Y26179D01*
X36658Y26178D01*
X36648Y26177D01*
X36639Y26175D01*
X36630Y26172D01*
X36621Y26168D01*
X36613Y26164D01*
X36606Y26160D01*
X36599Y26154D01*
X36592Y26148D01*
X36550Y26191D01*
X36556Y26197D01*
X36561Y26204D01*
X36566Y26212D01*
X36570Y26220D01*
X36573Y26228D01*
X36576Y26237D01*
X36578Y26247D01*
X36580Y26257D01*
X36580Y26267D01*
X36581Y26278D01*
X36680Y26179D01*
D02*
G37*
G36*
X37147Y25913D02*
X37136Y25913D01*
X37125Y25912D01*
X37115Y25910D01*
X37106Y25908D01*
X37097Y25905D01*
X37088Y25902D01*
X37080Y25898D01*
X37073Y25893D01*
X37066Y25888D01*
X37059Y25882D01*
X37017Y25924D01*
X37023Y25931D01*
X37028Y25938D01*
X37033Y25946D01*
X37037Y25954D01*
X37040Y25962D01*
X37043Y25971D01*
X37045Y25981D01*
X37047Y25991D01*
X37047Y26001D01*
X37048Y26012D01*
X37147Y25913D01*
D02*
G37*
G36*
X30798Y22926D02*
X30798Y22915D01*
X30800Y22906D01*
X30802Y22898D01*
X30805Y22891D01*
X30808Y22886D01*
X30812Y22882D01*
X30816Y22879D01*
X30822Y22877D01*
X30827Y22876D01*
X30707D01*
X30713Y22877D01*
X30718Y22879D01*
X30723Y22882D01*
X30726Y22886D01*
X30730Y22891D01*
X30732Y22898D01*
X30735Y22906D01*
X30736Y22915D01*
X30737Y22926D01*
X30737Y22937D01*
X30797D01*
X30798Y22926D01*
D02*
G37*
G36*
X30346D02*
X30347Y22915D01*
X30348Y22906D01*
X30350Y22898D01*
X30353Y22891D01*
X30356Y22886D01*
X30360Y22882D01*
X30365Y22879D01*
X30370Y22877D01*
X30375Y22876D01*
X30255D01*
X30261Y22877D01*
X30266Y22879D01*
X30271Y22882D01*
X30275Y22886D01*
X30278Y22891D01*
X30281Y22898D01*
X30283Y22906D01*
X30284Y22915D01*
X30285Y22926D01*
X30285Y22937D01*
X30345D01*
X30346Y22926D01*
D02*
G37*
G36*
X29342Y22934D02*
X29344Y22911D01*
X29345Y22902D01*
X29347Y22894D01*
X29350Y22888D01*
X29352Y22883D01*
X29355Y22879D01*
X29359Y22877D01*
X29363Y22876D01*
X29221D01*
X29225Y22877D01*
X29229Y22879D01*
X29232Y22883D01*
X29235Y22888D01*
X29237Y22894D01*
X29239Y22902D01*
X29240Y22911D01*
X29241Y22922D01*
X29242Y22948D01*
X29342D01*
X29342Y22934D01*
D02*
G37*
G36*
X30359Y22435D02*
X30359Y22424D01*
X30362Y22388D01*
X30363Y22381D01*
X30364Y22375D01*
X30366Y22369D01*
X30368Y22365D01*
X30370Y22361D01*
X30234Y22394D01*
X30239Y22397D01*
X30243Y22402D01*
X30247Y22407D01*
X30250Y22412D01*
X30253Y22419D01*
X30255Y22427D01*
X30257Y22435D01*
X30258Y22444D01*
X30259Y22454D01*
X30259Y22465D01*
X30359Y22435D01*
D02*
G37*
G36*
X30842Y22419D02*
X30843Y22400D01*
X30845Y22391D01*
X30846Y22383D01*
X30849Y22376D01*
X30851Y22370D01*
X30854Y22364D01*
X30858Y22359D01*
X30861Y22355D01*
X30721D01*
X30725Y22359D01*
X30729Y22364D01*
X30732Y22370D01*
X30734Y22376D01*
X30736Y22383D01*
X30738Y22391D01*
X30740Y22400D01*
X30741Y22409D01*
X30741Y22430D01*
X30841D01*
X30842Y22419D01*
D02*
G37*
G36*
X29842Y22410D02*
X29842Y22399D01*
X29844Y22380D01*
X29845Y22371D01*
X29847Y22363D01*
X29849Y22356D01*
X29851Y22349D01*
X29854Y22343D01*
X29857Y22338D01*
X29860Y22334D01*
X29720Y22343D01*
X29724Y22347D01*
X29728Y22352D01*
X29731Y22358D01*
X29734Y22364D01*
X29737Y22371D01*
X29739Y22379D01*
X29740Y22388D01*
X29741Y22397D01*
X29742Y22418D01*
X29842Y22410D01*
D02*
G37*
G36*
X29342Y22389D02*
X29342Y22378D01*
X29345Y22350D01*
X29346Y22342D01*
X29348Y22335D01*
X29350Y22328D01*
X29352Y22323D01*
X29355Y22317D01*
X29358Y22313D01*
X29219Y22330D01*
X29224Y22333D01*
X29227Y22338D01*
X29231Y22344D01*
X29234Y22350D01*
X29236Y22357D01*
X29238Y22364D01*
X29240Y22373D01*
X29241Y22382D01*
X29242Y22392D01*
X29242Y22403D01*
X29342Y22389D01*
D02*
G37*
G36*
X29383Y22288D02*
X29374Y22285D01*
X29367Y22280D01*
X29360Y22273D01*
X29355Y22264D01*
X29350Y22253D01*
X29347Y22240D01*
X29344Y22225D01*
X29343Y22208D01*
X29342Y22189D01*
X29242D01*
X29242Y22208D01*
X29240Y22225D01*
X29238Y22240D01*
X29234Y22253D01*
X29230Y22264D01*
X29224Y22273D01*
X29218Y22280D01*
X29210Y22285D01*
X29202Y22288D01*
X29192Y22289D01*
X29392D01*
X29383Y22288D01*
D02*
G37*
G36*
X33675Y22176D02*
X33676Y22156D01*
X33678Y22148D01*
X33679Y22140D01*
X33682Y22133D01*
X33684Y22126D01*
X33687Y22120D01*
X33691Y22115D01*
X33694Y22111D01*
X33554D01*
X33558Y22115D01*
X33562Y22120D01*
X33565Y22126D01*
X33567Y22133D01*
X33569Y22140D01*
X33571Y22148D01*
X33573Y22156D01*
X33574Y22166D01*
X33574Y22186D01*
X33674D01*
X33675Y22176D01*
D02*
G37*
G36*
X29355Y22183D02*
X29352Y22178D01*
X29350Y22172D01*
X29348Y22166D01*
X29346Y22159D01*
X29345Y22151D01*
X29342Y22123D01*
X29342Y22112D01*
X29242Y22098D01*
X29242Y22109D01*
X29241Y22119D01*
X29240Y22128D01*
X29238Y22136D01*
X29236Y22144D01*
X29234Y22151D01*
X29231Y22157D01*
X29227Y22163D01*
X29224Y22167D01*
X29219Y22171D01*
X29358Y22188D01*
X29355Y22183D01*
D02*
G37*
G36*
X29883Y22288D02*
X29874Y22285D01*
X29867Y22280D01*
X29860Y22273D01*
X29855Y22264D01*
X29850Y22253D01*
X29847Y22240D01*
X29844Y22225D01*
X29843Y22208D01*
X29843Y22207D01*
X29871Y22215D01*
X29869Y22211D01*
X29868Y22206D01*
X29868Y22201D01*
X29869Y22195D01*
X29871Y22189D01*
X29874Y22183D01*
X29878Y22176D01*
X29884Y22169D01*
X29890Y22161D01*
X29898Y22153D01*
X29817Y22093D01*
X29739Y22179D01*
X29777Y22189D01*
X29742D01*
X29742Y22208D01*
X29740Y22225D01*
X29738Y22240D01*
X29734Y22253D01*
X29730Y22264D01*
X29724Y22273D01*
X29718Y22280D01*
X29710Y22285D01*
X29702Y22288D01*
X29692Y22289D01*
X29892D01*
X29883Y22288D01*
D02*
G37*
G36*
X32047Y21946D02*
X32043Y21950D01*
X32038Y21953D01*
X32032Y21956D01*
X32025Y21959D01*
X32018Y21961D01*
X32010Y21963D01*
X32002Y21964D01*
X31992Y21965D01*
X31972Y21966D01*
Y22066D01*
X31982Y22066D01*
X32002Y22068D01*
X32010Y22069D01*
X32018Y22071D01*
X32025Y22073D01*
X32032Y22076D01*
X32038Y22079D01*
X32043Y22082D01*
X32047Y22086D01*
Y21946D01*
D02*
G37*
G36*
X32344Y21618D02*
X32339Y21622D01*
X32334Y21625D01*
X32329Y21628D01*
X32322Y21631D01*
X32315Y21633D01*
X32307Y21635D01*
X32299Y21636D01*
X32289Y21637D01*
X32269Y21638D01*
Y21738D01*
X32279Y21738D01*
X32299Y21740D01*
X32307Y21741D01*
X32315Y21743D01*
X32322Y21745D01*
X32329Y21748D01*
X32334Y21751D01*
X32339Y21754D01*
X32344Y21758D01*
Y21618D01*
D02*
G37*
G36*
X30354Y21300D02*
X30349Y21294D01*
X30344Y21287D01*
X30340Y21280D01*
X30337Y21272D01*
X30334Y21264D01*
X30332Y21255D01*
X30331Y21246D01*
X30330Y21236D01*
X30330Y21226D01*
X30250D01*
X30249Y21236D01*
X30248Y21246D01*
X30247Y21255D01*
X30245Y21264D01*
X30242Y21272D01*
X30239Y21280D01*
X30235Y21287D01*
X30230Y21294D01*
X30225Y21300D01*
X30220Y21307D01*
X30360D01*
X30354Y21300D01*
D02*
G37*
G36*
X30860Y21292D02*
X30854Y21286D01*
X30849Y21280D01*
X30844Y21274D01*
X30840Y21267D01*
X30836Y21259D01*
X30833Y21251D01*
X30831Y21242D01*
X30829Y21233D01*
X30828Y21224D01*
X30828Y21214D01*
X30748Y21222D01*
X30748Y21231D01*
X30747Y21241D01*
X30746Y21250D01*
X30744Y21259D01*
X30741Y21267D01*
X30738Y21275D01*
X30735Y21283D01*
X30731Y21290D01*
X30726Y21297D01*
X30721Y21304D01*
X30860Y21292D01*
D02*
G37*
G36*
X29357Y21275D02*
X29352Y21269D01*
X29347Y21262D01*
X29343Y21255D01*
X29340Y21247D01*
X29337Y21239D01*
X29335Y21230D01*
X29334Y21221D01*
X29333Y21211D01*
X29333Y21201D01*
X29253D01*
X29252Y21211D01*
X29251Y21221D01*
X29250Y21230D01*
X29248Y21239D01*
X29245Y21247D01*
X29242Y21255D01*
X29238Y21262D01*
X29233Y21269D01*
X29228Y21275D01*
X29223Y21282D01*
X29363D01*
X29357Y21275D01*
D02*
G37*
G36*
X30948Y21156D02*
X30950Y21149D01*
X30954Y21143D01*
X30960Y21138D01*
X30967Y21133D01*
X30976Y21130D01*
X30987Y21127D01*
X30999Y21125D01*
X31013Y21124D01*
X31028Y21123D01*
Y21043D01*
X31013Y21043D01*
X30999Y21042D01*
X30987Y21040D01*
X30976Y21037D01*
X30967Y21033D01*
X30960Y21029D01*
X30954Y21024D01*
X30950Y21018D01*
X30948Y21011D01*
X30947Y21003D01*
Y21163D01*
X30948Y21156D01*
D02*
G37*
G36*
X29137Y20883D02*
X29135Y20902D01*
X29129Y20919D01*
X29119Y20934D01*
X29105Y20947D01*
X29087Y20958D01*
X29065Y20967D01*
X29038Y20974D01*
X29008Y20979D01*
X28974Y20982D01*
X28936Y20983D01*
Y21183D01*
X28974Y21184D01*
X29008Y21187D01*
X29038Y21192D01*
X29065Y21199D01*
X29087Y21208D01*
X29105Y21219D01*
X29119Y21232D01*
X29129Y21247D01*
X29135Y21264D01*
X29137Y21283D01*
Y20883D01*
D02*
G37*
G36*
X30355Y20788D02*
X30349Y20786D01*
X30344Y20783D01*
X30340Y20778D01*
X30336Y20772D01*
X30333Y20764D01*
X30330Y20755D01*
X30328Y20744D01*
X30327Y20732D01*
X30327Y20719D01*
X30257D01*
X30257Y20732D01*
X30256Y20744D01*
X30254Y20755D01*
X30251Y20764D01*
X30248Y20772D01*
X30244Y20778D01*
X30240Y20783D01*
X30235Y20786D01*
X30229Y20788D01*
X30222Y20789D01*
X30362D01*
X30355Y20788D01*
D02*
G37*
G36*
X45678Y36089D02*
X45684Y36084D01*
X45691Y36079D01*
X45699Y36075D01*
X45706Y36072D01*
X45715Y36069D01*
X45723Y36067D01*
X45732Y36066D01*
X45742Y36065D01*
X45752Y36064D01*
Y35984D01*
X45742Y35984D01*
X45732Y35983D01*
X45723Y35982D01*
X45715Y35980D01*
X45706Y35977D01*
X45699Y35974D01*
X45691Y35970D01*
X45684Y35965D01*
X45678Y35960D01*
X45672Y35954D01*
Y36094D01*
X45678Y36089D01*
D02*
G37*
G36*
X52879Y35833D02*
X52880Y35828D01*
X52882Y35821D01*
X52884Y35815D01*
X52888Y35808D01*
X52892Y35802D01*
X52897Y35794D01*
X52903Y35787D01*
X52917Y35772D01*
X52847Y35701D01*
X52839Y35709D01*
X52824Y35721D01*
X52817Y35726D01*
X52810Y35731D01*
X52804Y35734D01*
X52797Y35737D01*
X52791Y35739D01*
X52785Y35740D01*
X52779Y35740D01*
X52878Y35839D01*
X52879Y35833D01*
D02*
G37*
G36*
X53372Y35686D02*
X53372Y35676D01*
X53373Y35666D01*
X53374Y35657D01*
X53377Y35648D01*
X53380Y35640D01*
X53384Y35632D01*
X53388Y35624D01*
X53393Y35617D01*
X53400Y35610D01*
X53353Y35572D01*
X53347Y35578D01*
X53340Y35583D01*
X53332Y35588D01*
X53324Y35592D01*
X53316Y35596D01*
X53307Y35599D01*
X53297Y35602D01*
X53287Y35604D01*
X53276Y35606D01*
X53265Y35607D01*
X53373Y35697D01*
X53372Y35686D01*
D02*
G37*
G36*
X44716Y35544D02*
X44719Y35521D01*
X44721Y35512D01*
X44723Y35504D01*
X44727Y35497D01*
X44731Y35492D01*
X44735Y35489D01*
X44740Y35487D01*
X44746Y35486D01*
X44606D01*
X44612Y35487D01*
X44617Y35489D01*
X44621Y35492D01*
X44625Y35497D01*
X44628Y35504D01*
X44631Y35512D01*
X44633Y35521D01*
X44635Y35532D01*
X44636Y35544D01*
X44636Y35557D01*
X44716D01*
X44716Y35544D01*
D02*
G37*
G36*
X42488Y35545D02*
X42516Y35521D01*
X42545Y35500D01*
X42573Y35481D01*
X42601Y35465D01*
X42630Y35453D01*
X42658Y35443D01*
X42686Y35435D01*
X42714Y35431D01*
X42742Y35430D01*
X42243Y35431D01*
X42256Y35432D01*
X42267Y35434D01*
X42274Y35438D01*
X42278Y35444D01*
X42279Y35451D01*
X42277Y35460D01*
X42272Y35470D01*
X42263Y35482D01*
X42252Y35496D01*
X42237Y35511D01*
X42459Y35572D01*
X42488Y35545D01*
D02*
G37*
G36*
X45328Y35266D02*
X45330Y35259D01*
X45334Y35253D01*
X45340Y35248D01*
X45347Y35243D01*
X45356Y35240D01*
X45367Y35237D01*
X45379Y35235D01*
X45393Y35234D01*
X45408Y35233D01*
Y35153D01*
X45393Y35153D01*
X45379Y35152D01*
X45367Y35150D01*
X45356Y35147D01*
X45347Y35143D01*
X45340Y35139D01*
X45334Y35134D01*
X45330Y35128D01*
X45328Y35121D01*
X45327Y35113D01*
Y35273D01*
X45328Y35266D01*
D02*
G37*
G36*
X46037Y35179D02*
X46029Y35171D01*
X46017Y35157D01*
X46012Y35150D01*
X46007Y35143D01*
X46004Y35136D01*
X46001Y35130D01*
X45999Y35123D01*
X45998Y35118D01*
X45998Y35112D01*
X45899Y35211D01*
X45904Y35211D01*
X45910Y35212D01*
X45916Y35214D01*
X45923Y35217D01*
X45929Y35220D01*
X45936Y35225D01*
X45943Y35230D01*
X45951Y35236D01*
X45966Y35250D01*
X46037Y35179D01*
D02*
G37*
G36*
X44177Y35043D02*
X44207Y35045D01*
X44206Y35040D01*
X44210Y35040D01*
X44210Y35030D01*
X44211Y35020D01*
X44212Y35011D01*
X44214Y35002D01*
X44217Y34994D01*
X44220Y34986D01*
X44223Y34978D01*
X44228Y34971D01*
X44232Y34964D01*
X44237Y34958D01*
X44163Y34964D01*
X44089Y34961D01*
X44095Y34967D01*
X44100Y34974D01*
X44105Y34981D01*
X44109Y34988D01*
X44113Y34996D01*
X44117Y35004D01*
X44120Y35012D01*
X44122Y35021D01*
X44124Y35030D01*
X44125Y35039D01*
X44130Y35039D01*
X44130Y35047D01*
X44177Y35043D01*
D02*
G37*
G36*
X45210Y35015D02*
X45210Y35005D01*
X45212Y34996D01*
X45214Y34988D01*
X45217Y34979D01*
X45220Y34972D01*
X45224Y34964D01*
X45228Y34957D01*
X45234Y34951D01*
X45239Y34945D01*
X45099D01*
X45105Y34951D01*
X45110Y34957D01*
X45115Y34964D01*
X45118Y34972D01*
X45122Y34979D01*
X45124Y34988D01*
X45127Y34996D01*
X45128Y35005D01*
X45129Y35015D01*
X45129Y35025D01*
X45209D01*
X45210Y35015D01*
D02*
G37*
G36*
X44718Y35013D02*
X44719Y35003D01*
X44721Y34994D01*
X44723Y34985D01*
X44725Y34977D01*
X44729Y34969D01*
X44733Y34962D01*
X44737Y34955D01*
X44742Y34949D01*
X44748Y34942D01*
X44608D01*
X44614Y34949D01*
X44619Y34955D01*
X44623Y34962D01*
X44627Y34969D01*
X44630Y34977D01*
X44633Y34985D01*
X44635Y34994D01*
X44637Y35003D01*
X44638Y35013D01*
X44638Y35023D01*
X44718D01*
X44718Y35013D01*
D02*
G37*
G36*
X43728D02*
X43729Y35003D01*
X43731Y34994D01*
X43733Y34985D01*
X43735Y34977D01*
X43739Y34969D01*
X43743Y34962D01*
X43747Y34955D01*
X43752Y34949D01*
X43758Y34942D01*
X43618D01*
X43624Y34949D01*
X43629Y34955D01*
X43633Y34962D01*
X43637Y34969D01*
X43640Y34977D01*
X43643Y34985D01*
X43645Y34994D01*
X43647Y35003D01*
X43648Y35013D01*
X43648Y35023D01*
X43728D01*
X43728Y35013D01*
D02*
G37*
G36*
X51020Y35011D02*
X51021Y34998D01*
X51023Y34986D01*
X51026Y34975D01*
X51029Y34966D01*
X51034Y34957D01*
X51039Y34951D01*
X51045Y34945D01*
X51052Y34941D01*
X51059Y34938D01*
X50899D01*
X50907Y34941D01*
X50914Y34945D01*
X50920Y34951D01*
X50925Y34957D01*
X50929Y34966D01*
X50933Y34975D01*
X50936Y34986D01*
X50938Y34998D01*
X50939Y35011D01*
X50939Y35026D01*
X51019D01*
X51020Y35011D01*
D02*
G37*
G36*
X43517Y34924D02*
X43516Y34934D01*
X43515Y34942D01*
X43512Y34948D01*
X43508Y34951D01*
X43502Y34953D01*
X43496Y34951D01*
X43489Y34948D01*
X43480Y34942D01*
X43470Y34934D01*
X43459Y34924D01*
Y35037D01*
X43470Y35048D01*
X43480Y35060D01*
X43489Y35071D01*
X43496Y35083D01*
X43502Y35094D01*
X43508Y35105D01*
X43512Y35117D01*
X43515Y35128D01*
X43516Y35139D01*
X43517Y35150D01*
Y34924D01*
D02*
G37*
G36*
X44211Y34898D02*
X44203Y34896D01*
X44195Y34892D01*
X44188Y34887D01*
X44181Y34880D01*
X44174Y34872D01*
X44167Y34862D01*
X44160Y34851D01*
X44154Y34838D01*
X44148Y34824D01*
X44132Y34824D01*
X44172Y34792D01*
X44164Y34791D01*
X44157Y34789D01*
X44150Y34786D01*
X44143Y34783D01*
X44136Y34778D01*
X44130Y34773D01*
X44124Y34766D01*
X44118Y34759D01*
X44112Y34751D01*
X44107Y34743D01*
X44045Y34796D01*
X44049Y34804D01*
X44053Y34812D01*
X44056Y34821D01*
X44059Y34829D01*
X44061Y34838D01*
X44062Y34846D01*
X44063Y34855D01*
X44064Y34863D01*
X44063Y34872D01*
X44063Y34880D01*
X44072Y34872D01*
X44072Y34873D01*
X44072Y34881D01*
X44070Y34887D01*
X44066Y34892D01*
X44062Y34896D01*
X44055Y34898D01*
X44048Y34899D01*
X44220D01*
X44211Y34898D01*
D02*
G37*
G36*
X48786Y34933D02*
X48796Y34924D01*
X48806Y34917D01*
X48816Y34911D01*
X48825Y34907D01*
X48834Y34905D01*
X48843Y34904D01*
X48851Y34904D01*
X48858Y34906D01*
X48866Y34909D01*
X48753Y34796D01*
X48756Y34803D01*
X48758Y34811D01*
X48758Y34819D01*
X48757Y34828D01*
X48754Y34837D01*
X48750Y34846D01*
X48745Y34855D01*
X48738Y34865D01*
X48729Y34876D01*
X48719Y34887D01*
X48775Y34943D01*
X48786Y34933D01*
D02*
G37*
G36*
X49767Y34951D02*
X49780Y34940D01*
X49792Y34931D01*
X49804Y34924D01*
X49816Y34918D01*
X49827Y34915D01*
X49838Y34913D01*
X49849Y34913D01*
X49859Y34915D01*
X49869Y34919D01*
X49727Y34777D01*
X49731Y34787D01*
X49733Y34797D01*
X49733Y34808D01*
X49731Y34819D01*
X49728Y34830D01*
X49722Y34842D01*
X49715Y34854D01*
X49706Y34866D01*
X49695Y34879D01*
X49683Y34893D01*
X49753Y34963D01*
X49767Y34951D01*
D02*
G37*
G36*
X47623Y34371D02*
X47616Y34378D01*
X47609Y34384D01*
X47601Y34389D01*
X47593Y34393D01*
X47585Y34397D01*
X47577Y34400D01*
X47568Y34403D01*
X47559Y34405D01*
X47550Y34406D01*
X47541Y34406D01*
Y34476D01*
X47550Y34476D01*
X47559Y34478D01*
X47568Y34479D01*
X47577Y34482D01*
X47585Y34485D01*
X47593Y34489D01*
X47601Y34493D01*
X47609Y34499D01*
X47616Y34504D01*
X47623Y34511D01*
Y34371D01*
D02*
G37*
G36*
X42954Y34138D02*
X42946Y34128D01*
X42941Y34119D01*
X42937Y34112D01*
X42936Y34106D01*
X42937Y34100D01*
X42941Y34096D01*
X42946Y34093D01*
X42954Y34092D01*
X42965Y34091D01*
X42739D01*
X42750Y34092D01*
X42761Y34093D01*
X42772Y34096D01*
X42783Y34100D01*
X42795Y34106D01*
X42806Y34112D01*
X42817Y34119D01*
X42829Y34128D01*
X42840Y34138D01*
X42852Y34149D01*
X42965D01*
X42954Y34138D01*
D02*
G37*
G36*
X45259Y34128D02*
X45252Y34121D01*
X45246Y34113D01*
X45241Y34106D01*
X45237Y34099D01*
X45235Y34092D01*
X45233Y34086D01*
X45233Y34079D01*
X45234Y34073D01*
X45236Y34067D01*
X45240Y34061D01*
X45108Y34093D01*
X45110Y34095D01*
X45113Y34098D01*
X45177Y34159D01*
X45191Y34174D01*
X45259Y34128D01*
D02*
G37*
G36*
X45221Y33928D02*
X45215Y33922D01*
X45211Y33915D01*
X45207Y33907D01*
X45204Y33899D01*
X45201Y33891D01*
X45199Y33883D01*
X45197Y33873D01*
X45197Y33864D01*
X45196Y33854D01*
X45116D01*
X45116Y33864D01*
X45115Y33873D01*
X45114Y33883D01*
X45111Y33891D01*
X45109Y33899D01*
X45105Y33907D01*
X45102Y33915D01*
X45097Y33922D01*
X45092Y33928D01*
X45086Y33934D01*
X45226D01*
X45221Y33928D01*
D02*
G37*
G36*
X44740Y33925D02*
X44735Y33919D01*
X44730Y33912D01*
X44726Y33905D01*
X44723Y33897D01*
X44720Y33889D01*
X44718Y33880D01*
X44717Y33871D01*
X44716Y33861D01*
X44715Y33851D01*
X44635D01*
X44635Y33861D01*
X44634Y33871D01*
X44633Y33880D01*
X44631Y33889D01*
X44628Y33897D01*
X44625Y33905D01*
X44621Y33912D01*
X44616Y33919D01*
X44611Y33925D01*
X44605Y33932D01*
X44745D01*
X44740Y33925D01*
D02*
G37*
G36*
X44245Y33917D02*
X44240Y33911D01*
X44235Y33904D01*
X44231Y33897D01*
X44228Y33889D01*
X44225Y33881D01*
X44223Y33872D01*
X44222Y33863D01*
X44221Y33853D01*
X44220Y33843D01*
X44140D01*
X44140Y33853D01*
X44139Y33863D01*
X44138Y33872D01*
X44136Y33881D01*
X44133Y33889D01*
X44130Y33897D01*
X44126Y33904D01*
X44121Y33911D01*
X44116Y33917D01*
X44110Y33924D01*
X44250D01*
X44245Y33917D01*
D02*
G37*
G36*
X43740Y33911D02*
X43734Y33905D01*
X43729Y33899D01*
X43724Y33892D01*
X43720Y33885D01*
X43717Y33877D01*
X43714Y33869D01*
X43712Y33860D01*
X43710Y33851D01*
X43709Y33842D01*
X43709Y33832D01*
X43629Y33834D01*
X43629Y33844D01*
X43628Y33853D01*
X43626Y33863D01*
X43624Y33871D01*
X43622Y33880D01*
X43618Y33887D01*
X43615Y33895D01*
X43610Y33902D01*
X43605Y33909D01*
X43600Y33915D01*
X43740Y33911D01*
D02*
G37*
G36*
X43517Y33424D02*
X43516Y33434D01*
X43515Y33442D01*
X43512Y33448D01*
X43508Y33451D01*
X43502Y33453D01*
X43496Y33451D01*
X43489Y33448D01*
X43480Y33442D01*
X43470Y33434D01*
X43459Y33424D01*
Y33537D01*
X43470Y33548D01*
X43480Y33560D01*
X43489Y33571D01*
X43496Y33583D01*
X43502Y33594D01*
X43508Y33605D01*
X43512Y33617D01*
X43515Y33628D01*
X43516Y33639D01*
X43517Y33650D01*
Y33424D01*
D02*
G37*
G36*
X44726Y33399D02*
X44721Y33397D01*
X44717Y33394D01*
X44713Y33389D01*
X44710Y33384D01*
X44707Y33378D01*
X44705Y33370D01*
X44703Y33361D01*
X44702Y33351D01*
X44702Y33339D01*
X44642D01*
X44642Y33351D01*
X44641Y33361D01*
X44639Y33370D01*
X44637Y33378D01*
X44635Y33384D01*
X44631Y33389D01*
X44627Y33394D01*
X44623Y33397D01*
X44618Y33399D01*
X44612Y33399D01*
X44732D01*
X44726Y33399D01*
D02*
G37*
G36*
X40110Y32626D02*
X40101Y32620D01*
X40095Y32615D01*
X40090Y32610D01*
X40087Y32606D01*
X40087Y32603D01*
X40088Y32600D01*
X40091Y32598D01*
X40097Y32596D01*
X40104Y32595D01*
X40114Y32595D01*
X39893D01*
X39904Y32595D01*
X39914Y32596D01*
X39925Y32598D01*
X39936Y32601D01*
X39946Y32604D01*
X39957Y32608D01*
X39968Y32613D01*
X39990Y32624D01*
X40001Y32631D01*
X40110Y32626D01*
D02*
G37*
G36*
X45693Y32658D02*
X45692Y32651D01*
X45692Y32644D01*
X45692Y32636D01*
X45694Y32629D01*
X45697Y32622D01*
X45701Y32614D01*
X45706Y32607D01*
X45712Y32600D01*
X45718Y32592D01*
X45636Y32561D01*
X45629Y32568D01*
X45608Y32586D01*
X45601Y32591D01*
X45587Y32600D01*
X45581Y32604D01*
X45567Y32610D01*
X45696Y32665D01*
X45693Y32658D01*
D02*
G37*
G36*
X55697Y32125D02*
X55698Y32116D01*
X55699Y32107D01*
X55701Y32098D01*
X55704Y32090D01*
X55707Y32082D01*
X55711Y32075D01*
X55716Y32068D01*
X55721Y32061D01*
X55727Y32055D01*
X55587D01*
X55592Y32061D01*
X55597Y32068D01*
X55602Y32075D01*
X55606Y32082D01*
X55609Y32090D01*
X55612Y32098D01*
X55614Y32107D01*
X55615Y32116D01*
X55616Y32125D01*
X55617Y32135D01*
X55697D01*
X55697Y32125D01*
D02*
G37*
G36*
X55231Y31891D02*
X55226Y31884D01*
X55221Y31877D01*
X55217Y31870D01*
X55214Y31862D01*
X55211Y31854D01*
X55209Y31845D01*
X55208Y31836D01*
X55207Y31827D01*
X55206Y31817D01*
X55126D01*
X55126Y31827D01*
X55125Y31836D01*
X55124Y31845D01*
X55122Y31854D01*
X55119Y31862D01*
X55116Y31870D01*
X55112Y31877D01*
X55107Y31884D01*
X55102Y31891D01*
X55096Y31897D01*
X55236D01*
X55231Y31891D01*
D02*
G37*
G36*
X54258Y31556D02*
X54258Y31562D01*
X54256Y31568D01*
X54252Y31574D01*
X54247Y31578D01*
X54241Y31582D01*
X54233Y31585D01*
X54223Y31588D01*
X54213Y31589D01*
X54201Y31590D01*
X54187Y31591D01*
Y31661D01*
X54201Y31661D01*
X54213Y31662D01*
X54223Y31664D01*
X54233Y31666D01*
X54241Y31669D01*
X54247Y31673D01*
X54252Y31678D01*
X54256Y31683D01*
X54258Y31689D01*
X54258Y31696D01*
Y31556D01*
D02*
G37*
G36*
X45774Y31448D02*
X45758Y31431D01*
X45733Y31402D01*
X45724Y31389D01*
X45717Y31377D01*
X45712Y31366D01*
X45710Y31357D01*
X45710Y31348D01*
X45712Y31341D01*
X45716Y31335D01*
X45604Y31447D01*
X45610Y31442D01*
X45618Y31440D01*
X45626Y31440D01*
X45636Y31443D01*
X45646Y31447D01*
X45658Y31454D01*
X45671Y31463D01*
X45686Y31475D01*
X45717Y31504D01*
X45774Y31448D01*
D02*
G37*
G36*
X55843Y31421D02*
X55836Y31413D01*
X55824Y31398D01*
X55819Y31391D01*
X55815Y31384D01*
X55812Y31378D01*
X55810Y31371D01*
X55809Y31365D01*
X55809Y31359D01*
X55810Y31353D01*
X55693Y31432D01*
X55698Y31433D01*
X55703Y31435D01*
X55709Y31437D01*
X55715Y31441D01*
X55721Y31445D01*
X55734Y31455D01*
X55741Y31461D01*
X55756Y31476D01*
X55843Y31421D01*
D02*
G37*
G36*
X55776Y31256D02*
X55771Y31249D01*
X55766Y31242D01*
X55762Y31235D01*
X55759Y31227D01*
X55756Y31219D01*
X55754Y31210D01*
X55753Y31201D01*
X55752Y31192D01*
X55752Y31182D01*
X55672D01*
X55671Y31192D01*
X55670Y31201D01*
X55669Y31210D01*
X55667Y31219D01*
X55664Y31227D01*
X55661Y31235D01*
X55657Y31242D01*
X55652Y31249D01*
X55647Y31256D01*
X55642Y31262D01*
X55782D01*
X55776Y31256D01*
D02*
G37*
G36*
X54766Y31026D02*
X54769Y31020D01*
X54772Y31014D01*
X54778Y31010D01*
X54785Y31006D01*
X54793Y31002D01*
X54804Y31000D01*
X54815Y30998D01*
X54829Y30997D01*
X54843Y30996D01*
Y30916D01*
X54829Y30916D01*
X54815Y30915D01*
X54804Y30913D01*
X54793Y30911D01*
X54785Y30907D01*
X54778Y30903D01*
X54772Y30898D01*
X54769Y30893D01*
X54766Y30887D01*
X54765Y30880D01*
Y31033D01*
X54766Y31026D01*
D02*
G37*
G36*
X49595Y29026D02*
X49602Y29020D01*
X49610Y29015D01*
X49618Y29010D01*
X49626Y29006D01*
X49634Y29003D01*
X49643Y29001D01*
X49652Y28999D01*
X49661Y28998D01*
X49670Y28998D01*
Y28928D01*
X49661Y28927D01*
X49652Y28926D01*
X49643Y28924D01*
X49634Y28922D01*
X49626Y28919D01*
X49618Y28915D01*
X49610Y28910D01*
X49602Y28905D01*
X49595Y28899D01*
X49588Y28893D01*
Y29033D01*
X49595Y29026D01*
D02*
G37*
G36*
X39892Y28918D02*
X39900Y28911D01*
X39908Y28905D01*
X39917Y28900D01*
X39925Y28895D01*
X39934Y28892D01*
X39942Y28889D01*
X39951Y28887D01*
X39960Y28886D01*
X39968Y28885D01*
Y28825D01*
X39960Y28825D01*
X39951Y28824D01*
X39942Y28822D01*
X39934Y28819D01*
X39925Y28815D01*
X39917Y28811D01*
X39908Y28806D01*
X39900Y28800D01*
X39892Y28793D01*
X39884Y28785D01*
Y28925D01*
X39892Y28918D01*
D02*
G37*
G36*
X49383Y27931D02*
X49381Y27923D01*
X49380Y27916D01*
X49381Y27907D01*
X49384Y27899D01*
X49388Y27890D01*
X49393Y27880D01*
X49400Y27870D01*
X49409Y27860D01*
X49419Y27849D01*
X49363Y27792D01*
X49352Y27803D01*
X49342Y27811D01*
X49332Y27818D01*
X49322Y27824D01*
X49313Y27828D01*
X49304Y27830D01*
X49296Y27831D01*
X49288Y27831D01*
X49281Y27828D01*
X49274Y27824D01*
X49387Y27938D01*
X49383Y27931D01*
D02*
G37*
G36*
X40075Y27263D02*
X40076Y27253D01*
X40077Y27243D01*
X40079Y27233D01*
X40082Y27224D01*
X40086Y27216D01*
X40090Y27208D01*
X40094Y27200D01*
X40100Y27193D01*
X40106Y27187D01*
X40063Y27144D01*
X40057Y27150D01*
X40050Y27156D01*
X40042Y27160D01*
X40034Y27164D01*
X40026Y27168D01*
X40017Y27171D01*
X40007Y27173D01*
X39997Y27174D01*
X39987Y27175D01*
X39976Y27175D01*
X40075Y27274D01*
X40075Y27263D01*
D02*
G37*
G36*
X40779Y26914D02*
X40779Y26904D01*
X40781Y26894D01*
X40783Y26885D01*
X40786Y26876D01*
X40789Y26867D01*
X40793Y26859D01*
X40798Y26851D01*
X40803Y26844D01*
X40809Y26838D01*
X40767Y26795D01*
X40760Y26801D01*
X40753Y26807D01*
X40746Y26811D01*
X40738Y26816D01*
X40729Y26819D01*
X40720Y26822D01*
X40711Y26824D01*
X40701Y26825D01*
X40690Y26826D01*
X40679Y26826D01*
X40778Y26925D01*
X40779Y26914D01*
D02*
G37*
G36*
X53301Y24829D02*
X53309Y24823D01*
X53317Y24817D01*
X53325Y24811D01*
X53334Y24807D01*
X53342Y24803D01*
X53351Y24801D01*
X53359Y24799D01*
X53368Y24797D01*
X53377Y24797D01*
Y24737D01*
X53368Y24737D01*
X53359Y24735D01*
X53351Y24733D01*
X53342Y24731D01*
X53334Y24727D01*
X53325Y24723D01*
X53317Y24717D01*
X53309Y24711D01*
X53301Y24705D01*
X53293Y24697D01*
Y24837D01*
X53301Y24829D01*
D02*
G37*
G36*
X44699Y22926D02*
X44699Y22916D01*
X44701Y22907D01*
X44703Y22899D01*
X44706Y22892D01*
X44709Y22887D01*
X44713Y22883D01*
X44717Y22880D01*
X44723Y22878D01*
X44728Y22877D01*
X44608D01*
X44614Y22878D01*
X44619Y22880D01*
X44624Y22883D01*
X44627Y22887D01*
X44631Y22892D01*
X44633Y22899D01*
X44636Y22907D01*
X44637Y22916D01*
X44638Y22926D01*
X44638Y22937D01*
X44698D01*
X44699Y22926D01*
D02*
G37*
G36*
X44198D02*
X44199Y22916D01*
X44200Y22907D01*
X44202Y22899D01*
X44205Y22892D01*
X44208Y22887D01*
X44212Y22883D01*
X44217Y22880D01*
X44222Y22878D01*
X44228Y22877D01*
X44108D01*
X44113Y22878D01*
X44118Y22880D01*
X44123Y22883D01*
X44127Y22887D01*
X44130Y22892D01*
X44133Y22899D01*
X44135Y22907D01*
X44136Y22916D01*
X44137Y22926D01*
X44138Y22937D01*
X44198D01*
X44198Y22926D01*
D02*
G37*
G36*
X43713D02*
X43714Y22916D01*
X43715Y22907D01*
X43717Y22899D01*
X43720Y22892D01*
X43723Y22887D01*
X43727Y22883D01*
X43732Y22880D01*
X43737Y22878D01*
X43743Y22877D01*
X43623D01*
X43628Y22878D01*
X43633Y22880D01*
X43638Y22883D01*
X43642Y22887D01*
X43645Y22892D01*
X43648Y22899D01*
X43650Y22907D01*
X43651Y22916D01*
X43652Y22926D01*
X43653Y22937D01*
X43713D01*
X43713Y22926D01*
D02*
G37*
G36*
X44206Y22439D02*
X44207Y22429D01*
X44209Y22420D01*
X44211Y22412D01*
X44213Y22403D01*
X44217Y22396D01*
X44221Y22388D01*
X44225Y22381D01*
X44230Y22375D01*
X44236Y22369D01*
X44096D01*
X44102Y22375D01*
X44107Y22381D01*
X44111Y22388D01*
X44115Y22396D01*
X44118Y22403D01*
X44121Y22412D01*
X44123Y22420D01*
X44125Y22429D01*
X44126Y22439D01*
X44126Y22449D01*
X44206D01*
X44206Y22439D01*
D02*
G37*
G36*
X44722Y22434D02*
X44723Y22424D01*
X44725Y22415D01*
X44727Y22407D01*
X44730Y22398D01*
X44733Y22391D01*
X44737Y22383D01*
X44741Y22376D01*
X44746Y22370D01*
X44752Y22364D01*
X44612D01*
X44618Y22370D01*
X44623Y22376D01*
X44627Y22383D01*
X44631Y22391D01*
X44635Y22398D01*
X44637Y22407D01*
X44639Y22415D01*
X44641Y22424D01*
X44642Y22434D01*
X44642Y22444D01*
X44722D01*
X44722Y22434D01*
D02*
G37*
G36*
X43723Y22441D02*
X43723Y22431D01*
X43724Y22421D01*
X43725Y22412D01*
X43727Y22403D01*
X43730Y22395D01*
X43733Y22387D01*
X43736Y22379D01*
X43740Y22372D01*
X43745Y22365D01*
X43750Y22358D01*
X43610Y22372D01*
X43617Y22378D01*
X43622Y22383D01*
X43627Y22390D01*
X43631Y22397D01*
X43635Y22404D01*
X43638Y22412D01*
X43640Y22421D01*
X43642Y22430D01*
X43643Y22439D01*
X43643Y22449D01*
X43723Y22441D01*
D02*
G37*
G36*
X43517Y21155D02*
X43517Y21163D01*
X43515Y21171D01*
X43513Y21180D01*
X43510Y21188D01*
X43506Y21196D01*
X43501Y21205D01*
X43496Y21214D01*
X43489Y21222D01*
X43482Y21231D01*
X43473Y21239D01*
Y21324D01*
X43482Y21316D01*
X43489Y21310D01*
X43496Y21306D01*
X43501Y21303D01*
X43506Y21303D01*
X43510Y21303D01*
X43513Y21306D01*
X43515Y21310D01*
X43517Y21316D01*
X43517Y21324D01*
Y21155D01*
D02*
G37*
G36*
X43744Y21301D02*
X43739Y21295D01*
X43734Y21288D01*
X43730Y21281D01*
X43727Y21273D01*
X43724Y21265D01*
X43722Y21256D01*
X43721Y21247D01*
X43720Y21237D01*
X43720Y21227D01*
X43640D01*
X43639Y21237D01*
X43638Y21247D01*
X43637Y21256D01*
X43635Y21265D01*
X43632Y21273D01*
X43629Y21281D01*
X43625Y21288D01*
X43620Y21295D01*
X43615Y21301D01*
X43610Y21308D01*
X43750D01*
X43744Y21301D01*
D02*
G37*
G36*
X45245Y21300D02*
X45240Y21294D01*
X45234Y21288D01*
X45230Y21281D01*
X45226Y21274D01*
X45223Y21266D01*
X45220Y21258D01*
X45218Y21249D01*
X45216Y21240D01*
X45215Y21231D01*
X45215Y21221D01*
X45135Y21222D01*
X45135Y21232D01*
X45134Y21242D01*
X45132Y21251D01*
X45130Y21259D01*
X45128Y21268D01*
X45124Y21275D01*
X45121Y21283D01*
X45116Y21290D01*
X45111Y21297D01*
X45105Y21303D01*
X45245Y21300D01*
D02*
G37*
G36*
X44736Y21295D02*
X44730Y21290D01*
X44724Y21284D01*
X44719Y21278D01*
X44714Y21272D01*
X44711Y21265D01*
X44707Y21257D01*
X44705Y21249D01*
X44703Y21240D01*
X44702Y21230D01*
X44702Y21220D01*
X44622Y21237D01*
X44622Y21247D01*
X44620Y21266D01*
X44618Y21274D01*
X44616Y21283D01*
X44614Y21291D01*
X44611Y21299D01*
X44607Y21307D01*
X44603Y21314D01*
X44599Y21321D01*
X44736Y21295D01*
D02*
G37*
G36*
X44243Y21295D02*
X44237Y21290D01*
X44231Y21284D01*
X44226Y21278D01*
X44222Y21271D01*
X44218Y21263D01*
X44215Y21256D01*
X44213Y21247D01*
X44211Y21238D01*
X44210Y21229D01*
X44210Y21219D01*
X44130Y21228D01*
X44130Y21238D01*
X44129Y21248D01*
X44128Y21257D01*
X44126Y21266D01*
X44123Y21274D01*
X44121Y21282D01*
X44117Y21290D01*
X44113Y21297D01*
X44109Y21305D01*
X44104Y21311D01*
X44243Y21295D01*
D02*
G37*
G36*
X44734Y20790D02*
X44728Y20788D01*
X44724Y20785D01*
X44720Y20781D01*
X44717Y20775D01*
X44714Y20768D01*
X44712Y20760D01*
X44710Y20751D01*
X44710Y20741D01*
X44709Y20729D01*
X44649D01*
X44649Y20741D01*
X44648Y20751D01*
X44647Y20760D01*
X44644Y20768D01*
X44642Y20775D01*
X44638Y20781D01*
X44635Y20785D01*
X44630Y20788D01*
X44625Y20790D01*
X44619Y20790D01*
X44739D01*
X44734Y20790D01*
D02*
G37*
G36*
X44226D02*
X44221Y20788D01*
X44217Y20785D01*
X44213Y20781D01*
X44210Y20775D01*
X44207Y20768D01*
X44205Y20760D01*
X44203Y20751D01*
X44202Y20741D01*
X44202Y20729D01*
X44142D01*
X44142Y20741D01*
X44141Y20751D01*
X44139Y20760D01*
X44137Y20768D01*
X44135Y20775D01*
X44131Y20781D01*
X44127Y20785D01*
X44123Y20788D01*
X44118Y20790D01*
X44112Y20790D01*
X44232D01*
X44226Y20790D01*
D02*
G37*
G36*
X45308Y20789D02*
X45295Y20784D01*
X45284Y20777D01*
X45274Y20766D01*
X45266Y20753D01*
X45259Y20736D01*
X45254Y20716D01*
X45250Y20694D01*
X45248Y20668D01*
X45247Y20639D01*
X45097D01*
X45096Y20668D01*
X45094Y20694D01*
X45090Y20716D01*
X45085Y20736D01*
X45078Y20753D01*
X45070Y20766D01*
X45060Y20777D01*
X45049Y20784D01*
X45036Y20789D01*
X45022Y20790D01*
X45322D01*
X45308Y20789D01*
D02*
G37*
G36*
X53437Y26879D02*
X53453Y26878D01*
X53467Y26875D01*
X53481Y26873D01*
X53494Y26869D01*
X53506Y26865D01*
X53517Y26861D01*
X53527Y26856D01*
X53537Y26851D01*
X53544Y26847D01*
X53551Y26843D01*
X53556Y26839D01*
X53561Y26837D01*
X53564Y26834D01*
X53565Y26833D01*
X53566Y26832D01*
X53576Y26823D01*
X53584Y26813D01*
X53592Y26801D01*
X53599Y26790D01*
X53610Y26768D01*
X53617Y26746D01*
X53620Y26736D01*
X53623Y26726D01*
X53625Y26717D01*
X53626Y26710D01*
X53627Y26703D01*
Y26699D01*
X53628Y26696D01*
Y26695D01*
X53548Y26687D01*
X53546Y26708D01*
X53542Y26726D01*
X53537Y26743D01*
X53530Y26756D01*
X53525Y26767D01*
X53519Y26775D01*
X53515Y26779D01*
X53514Y26781D01*
X53500Y26792D01*
X53485Y26800D01*
X53469Y26807D01*
X53455Y26811D01*
X53442Y26813D01*
X53431Y26814D01*
X53428Y26815D01*
X53422D01*
X53403Y26814D01*
X53385Y26811D01*
X53370Y26805D01*
X53357Y26800D01*
X53347Y26793D01*
X53341Y26788D01*
X53336Y26785D01*
X53334Y26783D01*
X53323Y26770D01*
X53315Y26757D01*
X53308Y26744D01*
X53305Y26731D01*
X53302Y26721D01*
X53301Y26712D01*
X53300Y26706D01*
Y26705D01*
Y26704D01*
X53302Y26688D01*
X53305Y26670D01*
X53312Y26654D01*
X53318Y26640D01*
X53326Y26628D01*
X53332Y26617D01*
X53334Y26614D01*
X53336Y26611D01*
X53338Y26610D01*
Y26609D01*
X53345Y26599D01*
X53355Y26589D01*
X53365Y26578D01*
X53376Y26566D01*
X53399Y26544D01*
X53422Y26522D01*
X53434Y26512D01*
X53444Y26503D01*
X53454Y26494D01*
X53463Y26487D01*
X53469Y26481D01*
X53475Y26477D01*
X53478Y26474D01*
X53479Y26473D01*
X53503Y26454D01*
X53524Y26435D01*
X53541Y26418D01*
X53555Y26405D01*
X53567Y26393D01*
X53576Y26384D01*
X53580Y26379D01*
X53582Y26378D01*
Y26377D01*
X53595Y26361D01*
X53605Y26346D01*
X53614Y26332D01*
X53622Y26319D01*
X53627Y26307D01*
X53631Y26299D01*
X53633Y26294D01*
X53634Y26293D01*
Y26292D01*
X53638Y26282D01*
X53639Y26272D01*
X53641Y26263D01*
X53642Y26255D01*
X53643Y26247D01*
Y26242D01*
Y26238D01*
Y26237D01*
X53219D01*
Y26313D01*
X53534D01*
X53523Y26329D01*
X53517Y26335D01*
X53513Y26342D01*
X53508Y26347D01*
X53504Y26351D01*
X53502Y26354D01*
X53501Y26355D01*
X53496Y26359D01*
X53490Y26364D01*
X53478Y26376D01*
X53463Y26390D01*
X53447Y26404D01*
X53432Y26416D01*
X53426Y26421D01*
X53420Y26427D01*
X53416Y26430D01*
X53412Y26433D01*
X53410Y26435D01*
X53409Y26436D01*
X53394Y26449D01*
X53379Y26461D01*
X53367Y26473D01*
X53355Y26483D01*
X53343Y26493D01*
X53334Y26503D01*
X53325Y26511D01*
X53318Y26518D01*
X53310Y26526D01*
X53305Y26531D01*
X53300Y26536D01*
X53295Y26541D01*
X53291Y26546D01*
X53289Y26548D01*
X53276Y26564D01*
X53265Y26578D01*
X53256Y26591D01*
X53248Y26603D01*
X53243Y26613D01*
X53239Y26620D01*
X53237Y26625D01*
X53236Y26627D01*
X53231Y26640D01*
X53227Y26654D01*
X53223Y26667D01*
X53221Y26678D01*
X53220Y26689D01*
X53219Y26696D01*
Y26701D01*
Y26702D01*
X53220Y26716D01*
X53222Y26729D01*
X53224Y26742D01*
X53228Y26753D01*
X53237Y26776D01*
X53246Y26793D01*
X53252Y26801D01*
X53256Y26808D01*
X53261Y26814D01*
X53266Y26819D01*
X53269Y26823D01*
X53271Y26826D01*
X53273Y26827D01*
X53274Y26828D01*
X53284Y26837D01*
X53295Y26846D01*
X53307Y26852D01*
X53319Y26858D01*
X53343Y26867D01*
X53367Y26874D01*
X53378Y26875D01*
X53388Y26877D01*
X53397Y26878D01*
X53404Y26879D01*
X53411Y26880D01*
X53420D01*
X53437Y26879D01*
D02*
G37*
G36*
X51944Y26879D02*
X51960Y26878D01*
X51974Y26875D01*
X51988Y26873D01*
X52001Y26869D01*
X52013Y26865D01*
X52024Y26861D01*
X52035Y26856D01*
X52044Y26851D01*
X52051Y26847D01*
X52058Y26843D01*
X52063Y26839D01*
X52068Y26837D01*
X52071Y26834D01*
X52072Y26833D01*
X52073Y26832D01*
X52083Y26823D01*
X52091Y26813D01*
X52099Y26801D01*
X52106Y26790D01*
X52117Y26768D01*
X52124Y26746D01*
X52127Y26736D01*
X52130Y26726D01*
X52132Y26717D01*
X52134Y26710D01*
X52134Y26703D01*
Y26699D01*
X52135Y26696D01*
Y26695D01*
X52055Y26687D01*
X52053Y26708D01*
X52049Y26726D01*
X52044Y26743D01*
X52037Y26756D01*
X52032Y26767D01*
X52026Y26775D01*
X52023Y26779D01*
X52021Y26781D01*
X52007Y26792D01*
X51992Y26800D01*
X51976Y26807D01*
X51962Y26811D01*
X51949Y26813D01*
X51938Y26814D01*
X51935Y26815D01*
X51929D01*
X51910Y26814D01*
X51892Y26811D01*
X51877Y26805D01*
X51864Y26800D01*
X51854Y26793D01*
X51848Y26788D01*
X51843Y26785D01*
X51841Y26783D01*
X51830Y26770D01*
X51822Y26757D01*
X51815Y26744D01*
X51812Y26731D01*
X51809Y26721D01*
X51808Y26712D01*
X51807Y26706D01*
Y26705D01*
Y26704D01*
X51809Y26688D01*
X51813Y26670D01*
X51819Y26654D01*
X51825Y26640D01*
X51833Y26628D01*
X51839Y26617D01*
X51841Y26614D01*
X51843Y26611D01*
X51845Y26610D01*
Y26609D01*
X51852Y26599D01*
X51862Y26589D01*
X51872Y26578D01*
X51883Y26566D01*
X51906Y26544D01*
X51929Y26522D01*
X51941Y26512D01*
X51951Y26503D01*
X51961Y26494D01*
X51970Y26487D01*
X51976Y26481D01*
X51982Y26477D01*
X51986Y26474D01*
X51986Y26473D01*
X52010Y26454D01*
X52031Y26435D01*
X52048Y26418D01*
X52062Y26405D01*
X52074Y26393D01*
X52083Y26384D01*
X52087Y26379D01*
X52089Y26378D01*
Y26377D01*
X52102Y26361D01*
X52112Y26346D01*
X52121Y26332D01*
X52129Y26319D01*
X52134Y26307D01*
X52138Y26299D01*
X52140Y26294D01*
X52141Y26293D01*
Y26292D01*
X52145Y26282D01*
X52146Y26272D01*
X52148Y26263D01*
X52149Y26255D01*
X52150Y26247D01*
Y26242D01*
Y26238D01*
Y26237D01*
X51726D01*
Y26313D01*
X52041D01*
X52030Y26329D01*
X52024Y26335D01*
X52020Y26342D01*
X52015Y26347D01*
X52011Y26351D01*
X52009Y26354D01*
X52008Y26355D01*
X52003Y26359D01*
X51998Y26364D01*
X51985Y26376D01*
X51970Y26390D01*
X51954Y26404D01*
X51939Y26416D01*
X51933Y26421D01*
X51927Y26427D01*
X51923Y26430D01*
X51919Y26433D01*
X51917Y26435D01*
X51916Y26436D01*
X51901Y26449D01*
X51887Y26461D01*
X51874Y26473D01*
X51862Y26483D01*
X51850Y26493D01*
X51841Y26503D01*
X51832Y26511D01*
X51825Y26518D01*
X51817Y26526D01*
X51812Y26531D01*
X51807Y26536D01*
X51802Y26541D01*
X51798Y26546D01*
X51796Y26548D01*
X51783Y26564D01*
X51772Y26578D01*
X51763Y26591D01*
X51755Y26603D01*
X51750Y26613D01*
X51746Y26620D01*
X51744Y26625D01*
X51743Y26627D01*
X51738Y26640D01*
X51734Y26654D01*
X51730Y26667D01*
X51728Y26678D01*
X51727Y26689D01*
X51727Y26696D01*
Y26701D01*
Y26702D01*
X51727Y26716D01*
X51729Y26729D01*
X51731Y26742D01*
X51735Y26753D01*
X51744Y26776D01*
X51753Y26793D01*
X51759Y26801D01*
X51764Y26808D01*
X51768Y26814D01*
X51773Y26819D01*
X51776Y26823D01*
X51778Y26826D01*
X51780Y26827D01*
X51781Y26828D01*
X51791Y26837D01*
X51802Y26846D01*
X51814Y26852D01*
X51826Y26858D01*
X51850Y26867D01*
X51875Y26874D01*
X51885Y26875D01*
X51895Y26877D01*
X51904Y26878D01*
X51912Y26879D01*
X51918Y26880D01*
X51927D01*
X51944Y26879D01*
D02*
G37*
G36*
X52677Y26879D02*
X52695Y26877D01*
X52712Y26874D01*
X52727Y26869D01*
X52741Y26862D01*
X52755Y26857D01*
X52767Y26850D01*
X52778Y26843D01*
X52787Y26837D01*
X52797Y26829D01*
X52804Y26824D01*
X52810Y26818D01*
X52814Y26813D01*
X52818Y26809D01*
X52820Y26807D01*
X52821Y26806D01*
X52833Y26789D01*
X52843Y26770D01*
X52852Y26750D01*
X52861Y26728D01*
X52867Y26706D01*
X52873Y26684D01*
X52877Y26661D01*
X52881Y26640D01*
X52884Y26618D01*
X52886Y26599D01*
X52887Y26581D01*
X52888Y26566D01*
Y26554D01*
X52889Y26544D01*
Y26541D01*
Y26538D01*
Y26537D01*
Y26536D01*
X52888Y26506D01*
X52886Y26479D01*
X52884Y26453D01*
X52879Y26429D01*
X52874Y26407D01*
X52870Y26388D01*
X52864Y26370D01*
X52858Y26355D01*
X52852Y26342D01*
X52847Y26330D01*
X52842Y26320D01*
X52837Y26312D01*
X52833Y26306D01*
X52830Y26302D01*
X52828Y26299D01*
X52827Y26298D01*
X52815Y26285D01*
X52802Y26274D01*
X52789Y26265D01*
X52776Y26257D01*
X52763Y26249D01*
X52750Y26244D01*
X52737Y26239D01*
X52724Y26235D01*
X52713Y26233D01*
X52701Y26230D01*
X52692Y26228D01*
X52684Y26227D01*
X52676D01*
X52672Y26226D01*
X52667D01*
X52646Y26227D01*
X52627Y26231D01*
X52609Y26234D01*
X52593Y26240D01*
X52581Y26245D01*
X52572Y26249D01*
X52568Y26250D01*
X52565Y26252D01*
X52565Y26253D01*
X52564D01*
X52548Y26264D01*
X52533Y26277D01*
X52521Y26290D01*
X52511Y26303D01*
X52503Y26315D01*
X52497Y26324D01*
X52495Y26328D01*
X52493Y26331D01*
X52492Y26332D01*
Y26332D01*
X52483Y26352D01*
X52477Y26372D01*
X52472Y26391D01*
X52469Y26408D01*
X52467Y26423D01*
Y26429D01*
X52466Y26434D01*
Y26439D01*
Y26442D01*
Y26443D01*
Y26444D01*
X52467Y26461D01*
X52468Y26477D01*
X52471Y26492D01*
X52474Y26506D01*
X52479Y26519D01*
X52483Y26532D01*
X52488Y26543D01*
X52493Y26554D01*
X52499Y26563D01*
X52504Y26571D01*
X52508Y26578D01*
X52513Y26584D01*
X52516Y26589D01*
X52518Y26591D01*
X52520Y26593D01*
X52521Y26594D01*
X52531Y26604D01*
X52542Y26614D01*
X52554Y26621D01*
X52565Y26628D01*
X52577Y26634D01*
X52588Y26639D01*
X52609Y26645D01*
X52618Y26648D01*
X52627Y26650D01*
X52635Y26651D01*
X52642Y26652D01*
X52648Y26652D01*
X52655D01*
X52672Y26652D01*
X52688Y26649D01*
X52702Y26646D01*
X52715Y26642D01*
X52726Y26638D01*
X52735Y26635D01*
X52740Y26632D01*
X52741Y26631D01*
X52742D01*
X52757Y26622D01*
X52770Y26612D01*
X52782Y26602D01*
X52791Y26591D01*
X52800Y26581D01*
X52806Y26574D01*
X52810Y26568D01*
X52811Y26567D01*
Y26584D01*
X52810Y26601D01*
X52809Y26615D01*
X52807Y26630D01*
X52806Y26643D01*
X52804Y26655D01*
X52802Y26666D01*
X52800Y26677D01*
X52798Y26686D01*
X52796Y26693D01*
X52794Y26700D01*
X52793Y26705D01*
X52791Y26709D01*
X52790Y26712D01*
X52789Y26714D01*
Y26714D01*
X52780Y26733D01*
X52771Y26750D01*
X52761Y26763D01*
X52751Y26774D01*
X52743Y26783D01*
X52737Y26789D01*
X52732Y26793D01*
X52730Y26794D01*
X52719Y26801D01*
X52708Y26806D01*
X52697Y26810D01*
X52686Y26813D01*
X52677Y26814D01*
X52670Y26815D01*
X52664D01*
X52647Y26813D01*
X52631Y26810D01*
X52618Y26804D01*
X52606Y26799D01*
X52597Y26792D01*
X52590Y26787D01*
X52587Y26783D01*
X52585Y26781D01*
X52578Y26773D01*
X52572Y26763D01*
X52566Y26751D01*
X52563Y26740D01*
X52559Y26730D01*
X52556Y26722D01*
X52555Y26716D01*
X52554Y26715D01*
Y26714D01*
X52476Y26721D01*
X52481Y26747D01*
X52490Y26770D01*
X52499Y26790D01*
X52509Y26807D01*
X52519Y26820D01*
X52523Y26825D01*
X52528Y26830D01*
X52530Y26833D01*
X52533Y26836D01*
X52534Y26837D01*
X52535Y26837D01*
X52544Y26845D01*
X52554Y26851D01*
X52575Y26862D01*
X52595Y26870D01*
X52615Y26874D01*
X52632Y26878D01*
X52639Y26879D01*
X52646D01*
X52652Y26880D01*
X52659D01*
X52677Y26879D01*
D02*
G37*
G36*
X54810Y26237D02*
X54722D01*
X54472Y26877D01*
X54558D01*
X54732Y26412D01*
X54739Y26393D01*
X54746Y26374D01*
X54751Y26356D01*
X54756Y26341D01*
X54761Y26327D01*
X54763Y26317D01*
X54764Y26313D01*
X54765Y26310D01*
X54766Y26308D01*
Y26307D01*
X54777Y26344D01*
X54783Y26362D01*
X54788Y26378D01*
X54793Y26392D01*
X54795Y26397D01*
X54796Y26403D01*
X54798Y26406D01*
X54798Y26409D01*
X54799Y26411D01*
Y26412D01*
X54966Y26877D01*
X55058D01*
X54810Y26237D01*
D02*
G37*
G36*
X54233Y26711D02*
X54250Y26709D01*
X54266Y26706D01*
X54280Y26702D01*
X54294Y26697D01*
X54307Y26691D01*
X54319Y26686D01*
X54329Y26679D01*
X54340Y26674D01*
X54348Y26667D01*
X54355Y26662D01*
X54361Y26657D01*
X54366Y26652D01*
X54369Y26650D01*
X54371Y26648D01*
X54372Y26647D01*
X54382Y26634D01*
X54391Y26620D01*
X54400Y26606D01*
X54407Y26591D01*
X54413Y26576D01*
X54417Y26561D01*
X54425Y26531D01*
X54428Y26518D01*
X54429Y26505D01*
X54430Y26494D01*
X54431Y26484D01*
X54432Y26476D01*
Y26470D01*
Y26466D01*
Y26465D01*
X54431Y26444D01*
X54429Y26425D01*
X54427Y26406D01*
X54423Y26390D01*
X54418Y26374D01*
X54414Y26359D01*
X54408Y26346D01*
X54403Y26334D01*
X54397Y26324D01*
X54391Y26315D01*
X54387Y26307D01*
X54382Y26301D01*
X54378Y26295D01*
X54376Y26292D01*
X54374Y26290D01*
X54373Y26289D01*
X54361Y26278D01*
X54349Y26269D01*
X54336Y26260D01*
X54322Y26253D01*
X54309Y26247D01*
X54295Y26242D01*
X54269Y26234D01*
X54257Y26233D01*
X54246Y26231D01*
X54236Y26229D01*
X54228Y26228D01*
X54221Y26227D01*
X54211D01*
X54182Y26229D01*
X54156Y26233D01*
X54133Y26239D01*
X54124Y26243D01*
X54115Y26246D01*
X54107Y26250D01*
X54099Y26254D01*
X54094Y26257D01*
X54088Y26259D01*
X54084Y26262D01*
X54082Y26264D01*
X54080Y26266D01*
X54079D01*
X54060Y26282D01*
X54045Y26300D01*
X54033Y26319D01*
X54023Y26336D01*
X54016Y26352D01*
X54013Y26359D01*
X54010Y26365D01*
X54008Y26370D01*
X54008Y26374D01*
X54007Y26376D01*
Y26377D01*
X54088Y26387D01*
X54095Y26369D01*
X54104Y26355D01*
X54112Y26342D01*
X54119Y26332D01*
X54126Y26324D01*
X54132Y26319D01*
X54136Y26315D01*
X54137Y26314D01*
X54149Y26307D01*
X54161Y26301D01*
X54174Y26297D01*
X54185Y26295D01*
X54195Y26293D01*
X54204Y26292D01*
X54211D01*
X54222Y26293D01*
X54232Y26294D01*
X54251Y26298D01*
X54267Y26305D01*
X54282Y26312D01*
X54293Y26319D01*
X54302Y26325D01*
X54307Y26330D01*
X54308Y26332D01*
X54309D01*
X54322Y26348D01*
X54332Y26367D01*
X54340Y26387D01*
X54345Y26406D01*
X54348Y26422D01*
X54350Y26430D01*
X54351Y26436D01*
Y26442D01*
X54352Y26445D01*
Y26448D01*
Y26449D01*
X54005D01*
X54004Y26458D01*
Y26465D01*
Y26468D01*
Y26469D01*
X54005Y26491D01*
X54007Y26510D01*
X54009Y26529D01*
X54013Y26546D01*
X54018Y26562D01*
X54022Y26577D01*
X54028Y26590D01*
X54033Y26602D01*
X54039Y26613D01*
X54045Y26622D01*
X54049Y26629D01*
X54054Y26636D01*
X54058Y26641D01*
X54060Y26645D01*
X54062Y26647D01*
X54063Y26648D01*
X54074Y26659D01*
X54086Y26669D01*
X54099Y26677D01*
X54112Y26685D01*
X54125Y26691D01*
X54137Y26696D01*
X54150Y26701D01*
X54161Y26703D01*
X54173Y26706D01*
X54183Y26708D01*
X54193Y26710D01*
X54200Y26711D01*
X54206Y26712D01*
X54216D01*
X54233Y26711D01*
D02*
G37*
G36*
X53748D02*
X53757Y26709D01*
X53766Y26706D01*
X53774Y26703D01*
X53779Y26701D01*
X53785Y26698D01*
X53787Y26696D01*
X53788Y26695D01*
X53797Y26688D01*
X53805Y26678D01*
X53813Y26667D01*
X53821Y26657D01*
X53828Y26647D01*
X53833Y26639D01*
X53836Y26632D01*
X53837Y26631D01*
Y26702D01*
X53909D01*
Y26237D01*
X53830D01*
Y26480D01*
X53829Y26498D01*
X53828Y26515D01*
X53826Y26530D01*
X53823Y26544D01*
X53821Y26555D01*
X53819Y26564D01*
X53818Y26569D01*
X53817Y26571D01*
X53813Y26581D01*
X53809Y26590D01*
X53804Y26597D01*
X53799Y26603D01*
X53795Y26608D01*
X53792Y26612D01*
X53789Y26614D01*
X53788Y26615D01*
X53781Y26620D01*
X53773Y26624D01*
X53764Y26627D01*
X53758Y26628D01*
X53751Y26629D01*
X53747Y26630D01*
X53742D01*
X53732Y26629D01*
X53722Y26628D01*
X53712Y26625D01*
X53703Y26622D01*
X53696Y26619D01*
X53690Y26616D01*
X53687Y26615D01*
X53686Y26614D01*
X53657Y26686D01*
X53673Y26694D01*
X53688Y26701D01*
X53700Y26705D01*
X53712Y26709D01*
X53723Y26711D01*
X53731Y26712D01*
X53737D01*
X53748Y26711D01*
D02*
G37*
G36*
X53090Y26237D02*
X53000D01*
Y26327D01*
X53090D01*
Y26237D01*
D02*
G37*
G36*
X52343D02*
X52254D01*
Y26327D01*
X52343D01*
Y26237D01*
D02*
G37*
G36*
X51613Y26237D02*
X51369D01*
X51346Y26238D01*
X51327Y26239D01*
X51309Y26241D01*
X51295Y26243D01*
X51283Y26245D01*
X51273Y26245D01*
X51268Y26247D01*
X51266D01*
X51250Y26252D01*
X51237Y26257D01*
X51225Y26262D01*
X51215Y26268D01*
X51207Y26271D01*
X51200Y26275D01*
X51196Y26278D01*
X51196Y26279D01*
X51185Y26287D01*
X51176Y26297D01*
X51169Y26307D01*
X51161Y26317D01*
X51156Y26326D01*
X51152Y26332D01*
X51149Y26337D01*
X51148Y26339D01*
X51142Y26354D01*
X51137Y26369D01*
X51134Y26382D01*
X51132Y26395D01*
X51130Y26406D01*
X51129Y26416D01*
Y26421D01*
Y26422D01*
Y26423D01*
X51130Y26443D01*
X51134Y26462D01*
X51139Y26478D01*
X51145Y26492D01*
X51150Y26504D01*
X51156Y26512D01*
X51159Y26517D01*
X51160Y26519D01*
X51173Y26534D01*
X51187Y26546D01*
X51203Y26556D01*
X51217Y26565D01*
X51230Y26571D01*
X51241Y26575D01*
X51245Y26577D01*
X51247Y26578D01*
X51249Y26578D01*
X51250D01*
X51234Y26588D01*
X51221Y26597D01*
X51209Y26607D01*
X51200Y26616D01*
X51193Y26624D01*
X51187Y26631D01*
X51184Y26635D01*
X51184Y26637D01*
X51176Y26651D01*
X51171Y26664D01*
X51166Y26677D01*
X51163Y26689D01*
X51161Y26699D01*
X51160Y26707D01*
Y26712D01*
Y26714D01*
X51161Y26729D01*
X51164Y26745D01*
X51169Y26759D01*
X51173Y26772D01*
X51178Y26783D01*
X51183Y26790D01*
X51185Y26796D01*
X51186Y26798D01*
X51196Y26812D01*
X51208Y26825D01*
X51220Y26835D01*
X51231Y26843D01*
X51240Y26850D01*
X51248Y26854D01*
X51254Y26857D01*
X51255Y26858D01*
X51256D01*
X51273Y26864D01*
X51293Y26869D01*
X51312Y26873D01*
X51331Y26874D01*
X51347Y26876D01*
X51355D01*
X51361Y26877D01*
X51613D01*
Y26237D01*
D02*
G37*
%LPC*%
G36*
X52676Y26583D02*
X52671D01*
X52652Y26581D01*
X52634Y26577D01*
X52619Y26571D01*
X52606Y26564D01*
X52596Y26556D01*
X52589Y26551D01*
X52584Y26546D01*
X52582Y26544D01*
X52570Y26529D01*
X52561Y26512D01*
X52554Y26494D01*
X52551Y26478D01*
X52548Y26463D01*
X52547Y26456D01*
Y26451D01*
X52546Y26446D01*
Y26443D01*
Y26441D01*
Y26440D01*
X52548Y26415D01*
X52552Y26393D01*
X52557Y26375D01*
X52564Y26359D01*
X52571Y26347D01*
X52577Y26338D01*
X52580Y26332D01*
X52582Y26332D01*
Y26331D01*
X52589Y26323D01*
X52596Y26318D01*
X52611Y26307D01*
X52626Y26301D01*
X52639Y26295D01*
X52651Y26293D01*
X52660Y26292D01*
X52664Y26291D01*
X52668D01*
X52681Y26292D01*
X52693Y26294D01*
X52704Y26297D01*
X52713Y26301D01*
X52722Y26304D01*
X52728Y26307D01*
X52732Y26309D01*
X52734Y26310D01*
X52745Y26319D01*
X52754Y26327D01*
X52763Y26337D01*
X52769Y26345D01*
X52775Y26354D01*
X52778Y26360D01*
X52781Y26365D01*
X52782Y26367D01*
X52787Y26381D01*
X52791Y26394D01*
X52795Y26407D01*
X52797Y26419D01*
X52798Y26430D01*
X52799Y26438D01*
Y26443D01*
Y26444D01*
X52797Y26467D01*
X52793Y26486D01*
X52787Y26504D01*
X52780Y26517D01*
X52774Y26529D01*
X52767Y26538D01*
X52763Y26542D01*
X52762Y26544D01*
X52747Y26557D01*
X52732Y26566D01*
X52716Y26574D01*
X52702Y26578D01*
X52689Y26581D01*
X52680Y26582D01*
X52676Y26583D01*
D02*
G37*
G36*
X54220Y26647D02*
X54215D01*
X54204Y26646D01*
X54193Y26645D01*
X54174Y26640D01*
X54157Y26632D01*
X54144Y26624D01*
X54132Y26615D01*
X54124Y26608D01*
X54119Y26603D01*
X54118Y26602D01*
Y26601D01*
X54109Y26589D01*
X54102Y26575D01*
X54097Y26561D01*
X54093Y26546D01*
X54090Y26534D01*
X54088Y26523D01*
Y26519D01*
X54087Y26517D01*
Y26515D01*
Y26514D01*
X54347D01*
X54344Y26535D01*
X54339Y26554D01*
X54332Y26571D01*
X54325Y26584D01*
X54318Y26595D01*
X54312Y26603D01*
X54308Y26608D01*
X54306Y26610D01*
X54292Y26622D01*
X54277Y26631D01*
X54261Y26638D01*
X54246Y26642D01*
X54234Y26645D01*
X54224Y26646D01*
X54220Y26647D01*
D02*
G37*
G36*
X51528Y26801D02*
X51376D01*
X51356Y26800D01*
X51340Y26799D01*
X51326Y26797D01*
X51316Y26795D01*
X51309Y26794D01*
X51305Y26792D01*
X51304D01*
X51294Y26788D01*
X51284Y26783D01*
X51277Y26777D01*
X51270Y26772D01*
X51266Y26767D01*
X51262Y26763D01*
X51260Y26760D01*
X51259Y26759D01*
X51254Y26750D01*
X51250Y26740D01*
X51247Y26731D01*
X51246Y26722D01*
X51245Y26714D01*
X51244Y26709D01*
Y26705D01*
Y26703D01*
X51245Y26691D01*
X51246Y26680D01*
X51249Y26671D01*
X51252Y26664D01*
X51255Y26657D01*
X51258Y26652D01*
X51259Y26649D01*
X51260Y26648D01*
X51267Y26640D01*
X51275Y26633D01*
X51283Y26628D01*
X51291Y26624D01*
X51298Y26620D01*
X51304Y26617D01*
X51307Y26616D01*
X51309Y26615D01*
X51320Y26614D01*
X51332Y26612D01*
X51345Y26611D01*
X51358Y26610D01*
X51370Y26609D01*
X51528D01*
Y26801D01*
D02*
G37*
G36*
Y26533D02*
X51359D01*
X51340Y26531D01*
X51324Y26529D01*
X51311Y26528D01*
X51301Y26526D01*
X51293Y26524D01*
X51289Y26523D01*
X51287Y26522D01*
X51275Y26517D01*
X51265Y26512D01*
X51256Y26505D01*
X51248Y26499D01*
X51243Y26493D01*
X51239Y26489D01*
X51236Y26485D01*
X51235Y26484D01*
X51229Y26474D01*
X51224Y26464D01*
X51221Y26454D01*
X51219Y26444D01*
X51217Y26436D01*
X51216Y26429D01*
Y26425D01*
Y26423D01*
X51217Y26412D01*
X51218Y26401D01*
X51220Y26392D01*
X51222Y26384D01*
X51225Y26378D01*
X51227Y26372D01*
X51228Y26369D01*
X51229Y26369D01*
X51234Y26360D01*
X51239Y26353D01*
X51246Y26347D01*
X51250Y26342D01*
X51255Y26338D01*
X51258Y26335D01*
X51261Y26333D01*
X51262Y26332D01*
X51278Y26325D01*
X51294Y26319D01*
X51300Y26318D01*
X51306Y26317D01*
X51309Y26316D01*
X51310D01*
X51318Y26315D01*
X51326Y26314D01*
X51345Y26313D01*
X51528D01*
Y26533D01*
D02*
G37*
%LPD*%
D10*
X45628Y19863D02*
Y22197D01*
Y24440D01*
Y22197D02*
X48458Y25026D01*
X43621Y30485D02*
X45174Y32039D01*
X45459D02*
X45463Y32036D01*
X34473Y30485D02*
X43621D01*
X45174Y32039D02*
X45459D01*
X30309Y22332D02*
Y22638D01*
X30285Y22308D02*
X30309Y22332D01*
X30791Y22283D02*
Y22611D01*
X30782Y22620D02*
X30791Y22611D01*
X29792Y22188D02*
X29964Y22016D01*
X29792Y22188D02*
Y22583D01*
X52778Y35840D02*
X55867Y32752D01*
X22675Y29284D02*
X22956D01*
X55867Y31515D02*
Y32752D01*
X55712Y31333D02*
Y31360D01*
X55867Y31515D01*
X49231Y35415D02*
X50000Y34646D01*
X45898Y35111D02*
X46202Y35415D01*
X49231D01*
X33624Y29637D02*
X34473Y30485D01*
X33624Y22040D02*
Y29637D01*
X32415Y21688D02*
X32416Y21689D01*
X29455Y21688D02*
X32415D01*
X29292Y21852D02*
Y22583D01*
Y21852D02*
X29455Y21688D01*
X29964Y22016D02*
X32118D01*
X29292Y22583D02*
Y22948D01*
X22678Y31411D02*
Y31529D01*
X22901Y28989D02*
X23297Y28594D01*
Y27936D02*
Y28594D01*
X22675Y28989D02*
X22901D01*
X22956Y29284D02*
X29292Y22948D01*
D35*
X39143Y31548D02*
G03*
X39366Y31456I223J223D01*
G01*
X38982Y31855D02*
G03*
X39072Y31637I308J0D01*
G01*
Y31637D02*
G03*
X39143Y31548I436J276D01*
G01*
X39140Y32775D02*
G03*
X38982Y32392I383J-383D01*
G01*
X39696Y33028D02*
G03*
X39180Y32814I0J-729D01*
G01*
X43666Y33028D02*
G03*
X44094Y33205I0J605D01*
G01*
D02*
G03*
X44172Y33394I-189J189D01*
G01*
X40571Y32773D02*
G03*
X39864Y32480I0J-1000D01*
G01*
X44062Y32773D02*
G03*
X44526Y32965I0J656D01*
G01*
D02*
G03*
X44672Y33317I-352J352D01*
G01*
X30315Y22638D02*
Y23903D01*
X30767Y22620D02*
Y23677D01*
X44668Y22629D02*
Y25158D01*
X44168Y22645D02*
Y23437D01*
X43683Y22626D02*
Y23567D01*
X44172Y20513D02*
Y21050D01*
X44679Y20444D02*
Y21022D01*
X44672Y33317D02*
Y33655D01*
X44172Y33394D02*
Y33652D01*
X42214Y21660D02*
X42227Y21648D01*
X43108D02*
X43672Y21083D01*
X36898Y21660D02*
X42214D01*
X42227Y21648D02*
X43108D01*
X53273Y35694D02*
Y35707D01*
Y35694D02*
X56007Y32961D01*
Y26707D02*
Y32961D01*
X39813Y28855D02*
X40971D01*
X44668Y25158D01*
X40678Y26926D02*
X44168Y23437D01*
X39975Y27275D02*
X43683Y23567D01*
X36577Y21981D02*
Y25443D01*
Y21981D02*
X36898Y21660D01*
X36577Y25443D02*
X37148Y26013D01*
X43457Y20415D02*
X44074D01*
X36739Y21489D02*
X42382D01*
X43457Y20415D01*
X41928Y21361D02*
X43111Y20178D01*
X36323Y26615D02*
Y26615D01*
X35455Y22442D02*
Y25746D01*
X36323Y26615D01*
X35995Y25594D02*
X36681Y26279D01*
X35995Y22233D02*
Y25594D01*
Y22233D02*
X36739Y21489D01*
X38982Y31855D02*
Y32392D01*
X39366Y31456D02*
X39794D01*
X39696Y33028D02*
X43666D01*
X39140Y32775D02*
X39180Y32814D01*
X39794Y32410D02*
Y32460D01*
Y32410D02*
X39864Y32480D01*
X40571Y32773D02*
X44062D01*
X54067Y24767D02*
X56007Y26707D01*
X53222Y24767D02*
X54067D01*
X35455Y22442D02*
X36536Y21361D01*
X41928D01*
X44414Y20178D02*
X44679Y20444D01*
X43111Y20178D02*
X44414D01*
X44074Y20415D02*
X44172Y20513D01*
X27839Y26379D02*
X30315Y23903D01*
X27905Y26539D02*
X30767Y23677D01*
X23452Y30060D02*
X24384D01*
X23432Y30040D02*
X23452Y30060D01*
X23305Y30040D02*
X23432D01*
X23270Y30075D02*
Y30087D01*
X23220Y30136D02*
X23270Y30087D01*
Y30075D02*
X23305Y30040D01*
X27905Y26539D02*
X27905D01*
X24384Y30060D02*
X27905Y26539D01*
X22689Y30510D02*
X23220D01*
X22675Y30495D02*
X22689Y30510D01*
X23220Y30136D02*
Y30174D01*
X23145Y30102D02*
X23200Y30156D01*
X22675Y30102D02*
X23145D01*
X23518Y29900D02*
X24318D01*
X23498Y29880D02*
X23518Y29900D01*
X27839Y26379D02*
X27839D01*
X23214Y29905D02*
X23238Y29880D01*
X23498D01*
X24318Y29900D02*
X27839Y26379D01*
X22258Y30298D02*
X22675D01*
Y29905D02*
X23214D01*
X22190Y30230D02*
X22258Y30298D01*
X22190Y30000D02*
Y30230D01*
X22670Y29900D02*
X22675Y29905D01*
X22190Y30000D02*
X22290Y29900D01*
X22670D01*
X23181Y29699D02*
X23190Y29690D01*
X22684Y29699D02*
X23181D01*
X22675Y29708D02*
X22684Y29699D01*
X22675Y30889D02*
X24314D01*
X24556Y30647D01*
X26848D01*
D36*
X32852Y35582D02*
G03*
X32145Y35875I-707J-707D01*
G01*
X31404D02*
G03*
X30697Y35582I0J-1000D01*
G01*
X39408D02*
G03*
X38701Y35875I-707J-707D01*
G01*
X42308Y35582D02*
G03*
X41601Y35875I-707J-707D01*
G01*
X23585Y35210D02*
G03*
X22878Y34917I0J-1000D01*
G01*
X21564Y33603D02*
G03*
X21271Y32896I707J-707D01*
G01*
X27788Y21376D02*
G03*
X28495Y21083I707J707D01*
G01*
X21271Y28307D02*
G03*
X21564Y27600I1000J0D01*
G01*
X28495Y21083D02*
X29274D01*
X42215Y20155D02*
X43823Y18547D01*
X38836Y20155D02*
X42215D01*
X38668D02*
X38836D01*
X38650Y20137D02*
X38668Y20155D01*
X37444Y19106D02*
X37536D01*
X37363Y19025D02*
X37444Y19106D01*
X37536D02*
X37619D01*
X38650Y20137D01*
X42930Y14364D02*
Y14366D01*
X43823Y15258D01*
Y18547D01*
X31637Y15013D02*
X31970Y15346D01*
X36198Y20190D02*
X37363Y19025D01*
X33410Y20190D02*
X36198D01*
X31970Y18750D02*
X33410Y20190D01*
X31970Y15346D02*
Y18750D01*
X32852Y35582D02*
X33224Y35210D01*
X32145Y35875D02*
X38701D01*
X31404D02*
X32145D01*
X23585Y35210D02*
X30324D01*
X30697Y35582D01*
X38701Y35875D02*
X41601D01*
X42308Y35582D02*
X42694Y35196D01*
X39408Y35582D02*
X39794Y35196D01*
X21564Y33603D02*
X22878Y34917D01*
X21271Y28307D02*
Y32896D01*
X21564Y27600D02*
X27788Y21376D01*
D37*
X45172Y20296D02*
Y20985D01*
Y20296D02*
X45196Y20320D01*
X45179D02*
X45196D01*
D38*
X43954Y34609D02*
G03*
X44170Y35080I-526J526D01*
G01*
X33526Y33569D02*
G03*
X34234Y33276I707J707D01*
G01*
X30617Y33390D02*
G03*
X30324Y32683I707J-707D01*
G01*
X43140Y34380D02*
G03*
X43139Y34380I153J-153D01*
G01*
X43292Y34443D02*
G03*
X43140Y34380I0J-216D01*
G01*
X43555Y34443D02*
G03*
X43954Y34609I0J565D01*
G01*
X42750Y33990D02*
G03*
X42694Y33857I133J-133D01*
G01*
X38656Y35258D02*
G03*
X37949Y35551I-707J-707D01*
G01*
X35466D02*
G03*
X34759Y35258I0J-1000D01*
G01*
X33873Y34511D02*
G03*
X34109Y34609I0J334D01*
G01*
X32152Y34511D02*
G03*
X31445Y34218I0J-1000D01*
G01*
X48458Y25026D02*
X52244D01*
X53998D01*
X44446Y25622D02*
Y26756D01*
Y25622D02*
X45628Y24440D01*
X45102Y31701D02*
X45463D01*
X44446Y31045D02*
X45102Y31701D01*
X44446Y27858D02*
Y31045D01*
X29293Y21073D02*
Y21353D01*
X29274Y21054D02*
X29293Y21073D01*
X30290Y21034D02*
Y21378D01*
Y21034D02*
X30291Y21033D01*
X30788Y21039D02*
Y21360D01*
X30797Y21369D01*
X44682Y22292D02*
Y22616D01*
X44669Y22629D02*
X44682Y22616D01*
X44166Y22297D02*
Y22637D01*
X44158Y22645D02*
X44166Y22637D01*
X43683Y22304D02*
Y22626D01*
X43673Y22294D02*
X43683Y22304D01*
X43680Y21018D02*
Y21379D01*
Y21018D02*
X43685Y21013D01*
X44170Y21050D02*
Y21363D01*
X44181Y21374D01*
X45175Y20985D02*
Y21371D01*
X45177Y21373D01*
X44662Y21022D02*
Y21359D01*
X44681Y21378D01*
X45156Y33621D02*
Y34006D01*
X45172D02*
Y34098D01*
X45156Y33621D02*
X45159Y33618D01*
X44675Y33658D02*
Y34003D01*
Y33658D02*
X44678Y33655D01*
X44180Y33656D02*
Y33995D01*
Y33656D02*
X44184Y33652D01*
X43255Y33276D02*
X43652Y33674D01*
X43669Y33657D02*
Y33982D01*
X43672Y33984D01*
X45169Y34873D02*
Y35193D01*
X45166Y35196D02*
X45169Y35193D01*
X44676Y35212D02*
Y35557D01*
X44678Y34871D02*
Y35207D01*
X44683Y35212D01*
X44170Y35080D02*
Y35205D01*
Y34900D02*
Y35080D01*
X44162Y34892D02*
X44170Y34900D01*
X43676Y35205D02*
X43688Y35193D01*
Y34871D02*
Y35193D01*
X52160Y36024D02*
X55657Y32528D01*
X45600Y36024D02*
X52160D01*
X35728Y31103D02*
X37330Y32705D01*
X33556Y31103D02*
X35728D01*
X34234Y33276D02*
X43255D01*
X33224Y33871D02*
X33526Y33569D01*
X30324Y32375D02*
Y32683D01*
X30617Y33390D02*
X31445Y34218D01*
X32798Y30345D02*
X33556Y31103D01*
X42750Y33990D02*
X43139Y34380D01*
X43292Y34443D02*
X43555D01*
X39633Y34656D02*
X43030D01*
X39259Y34656D02*
X39633D01*
X43030Y34656D02*
X43030Y34656D01*
X39633D02*
X39633Y34656D01*
X43208Y34730D02*
Y34730D01*
X43030Y34656D02*
X43134D01*
X43208Y34730D01*
X38994Y34921D02*
X39259Y34656D01*
X43208Y34730D02*
X43672Y35193D01*
X38656Y35258D02*
X38994Y34921D01*
X35466Y35551D02*
X37949D01*
X32152Y34511D02*
X33873D01*
X34109Y34609D02*
X34759Y35258D01*
X32798Y21639D02*
Y30345D01*
X32242Y21083D02*
X32798Y21639D01*
X22036Y31096D02*
X22688D01*
X55657Y31984D02*
Y32528D01*
X55449Y29363D02*
Y32472D01*
X44887Y35768D02*
X52153D01*
X55449Y32472D01*
X53998Y25026D02*
X55712Y26739D01*
Y31333D01*
X44676Y35557D02*
X44887Y35768D01*
X48544Y35118D02*
X49016Y34646D01*
X46192Y35118D02*
X48544D01*
X45172Y34098D02*
X46192Y35118D01*
X45931Y35628D02*
X50543D01*
X50979Y35192D01*
X45496Y35193D02*
X45931Y35628D01*
X45603Y32651D02*
Y32703D01*
X30792Y21083D02*
X32242D01*
X45172Y35193D02*
X45496D01*
X54512Y30956D02*
X54843D01*
X55166Y31279D02*
Y31968D01*
X54843Y30956D02*
X55166Y31279D01*
X45463Y31366D02*
X45636D01*
X45979Y31710D01*
Y32275D01*
X45603Y32651D02*
X45979Y32275D01*
X21610Y29965D02*
Y30670D01*
Y29965D02*
X22399Y29176D01*
X21610Y30670D02*
X22036Y31096D01*
X22678Y31106D02*
X22688Y31096D01*
X50979Y34646D02*
Y35192D01*
X53167Y27082D02*
X55449Y29363D01*
X50130Y27082D02*
X53167D01*
X49016Y28196D02*
X50130Y27082D01*
X22399Y29176D02*
X22675D01*
X22678Y31106D02*
Y31224D01*
X22675Y29176D02*
Y29245D01*
D39*
X47443Y34441D02*
G03*
X46736Y34148I0J-1000D01*
G01*
X42895Y30721D02*
G03*
X43602Y31014I0J1000D01*
G01*
X32871Y21084D02*
G03*
X33130Y21708I-624J624D01*
G01*
X31676Y20304D02*
G03*
X32383Y20596I0J1000D01*
G01*
X34208Y30721D02*
G03*
X33500Y30428I0J-1000D01*
G01*
X33342Y30270D02*
G03*
X33130Y29757I513J-513D01*
G01*
X30391Y20376D02*
G03*
X30565Y20304I174J174D01*
G01*
X30292Y20615D02*
G03*
X30391Y20376I338J0D01*
G01*
X43602Y31014D02*
X46736Y34148D01*
X30292Y20615D02*
Y21033D01*
X32383Y20596D02*
X32871Y21084D01*
X47443Y34441D02*
X47694D01*
X34208Y30721D02*
X42895D01*
X53084Y28963D02*
X53965Y29844D01*
X49517Y28963D02*
X53084D01*
X53965Y29844D02*
Y31515D01*
X54076Y31626D01*
X54512D01*
X33342Y30270D02*
X33500Y30428D01*
X30565Y20304D02*
X31676D01*
X33130Y21708D02*
Y29757D01*
D41*
X56234Y35439D02*
D03*
Y14770D02*
D03*
X20919D02*
D03*
Y35439D02*
D03*
D42*
X46995Y26560D02*
D03*
D43*
D03*
X34665Y17249D02*
D03*
X40965D02*
D03*
D44*
X21629Y21993D02*
D03*
D45*
X31724Y32297D02*
D03*
Y35092D02*
D03*
X41194Y32282D02*
D03*
Y35078D02*
D03*
D46*
X20670Y28499D02*
D03*
Y31901D02*
D03*
D47*
X22316Y28499D02*
D03*
Y31901D02*
D03*
D48*
X46168Y26560D02*
D03*
X47822D02*
D03*
X46995Y25733D02*
D03*
X47593Y27132D02*
D03*
X46408Y27140D02*
D03*
X46389Y26004D02*
D03*
X47558Y25966D02*
D03*
X46995Y27387D02*
D03*
X43673Y22294D02*
D03*
X30285Y22308D02*
D03*
X29293Y21353D02*
D03*
X30290Y21378D02*
D03*
X30797Y21369D02*
D03*
X29280Y22250D02*
D03*
X29785Y22267D02*
D03*
X30791Y22283D02*
D03*
X43688Y34871D02*
D03*
X44678D02*
D03*
X44162Y34892D02*
D03*
X45169Y34873D02*
D03*
X45156Y34006D02*
D03*
X44180Y33995D02*
D03*
X44675Y34003D02*
D03*
X43672Y33984D02*
D03*
X44682Y22292D02*
D03*
X44166Y22297D02*
D03*
X45177Y21373D02*
D03*
X44681Y21378D02*
D03*
X44181Y21374D02*
D03*
X43680Y21379D02*
D03*
X53273Y35707D02*
D03*
X31752Y15289D02*
D03*
X31914Y15424D02*
D03*
X38836Y20155D02*
D03*
X37536Y19106D02*
D03*
X42810Y14470D02*
D03*
X43040Y14250D02*
D03*
X42930Y14364D02*
D03*
X31637Y15013D02*
D03*
X37363Y19025D02*
D03*
X38650Y20137D02*
D03*
X52778Y35840D02*
D03*
X45628Y19863D02*
D03*
X39813Y28855D02*
D03*
X40678Y26926D02*
D03*
X39975Y27275D02*
D03*
X36323Y26615D02*
D03*
X36681Y26279D02*
D03*
X37148Y26013D02*
D03*
X45600Y36024D02*
D03*
X37330Y33745D02*
D03*
Y32705D02*
D03*
X33698Y31692D02*
D03*
X42242Y31611D02*
D03*
X35745Y33729D02*
D03*
X49517Y28963D02*
D03*
X53222Y24767D02*
D03*
X55657Y31984D02*
D03*
X52244Y25043D02*
D03*
X45898Y35111D02*
D03*
X47694Y34441D02*
D03*
X45603Y32703D02*
D03*
X33624Y22040D02*
D03*
X32415Y21688D02*
D03*
X32118Y22016D02*
D03*
X45179Y20320D02*
D03*
X55166Y31968D02*
D03*
X54791Y31962D02*
D03*
X54807Y31304D02*
D03*
X55712Y31333D02*
D03*
X23220Y30510D02*
D03*
Y30174D02*
D03*
X23297Y28594D02*
D03*
Y28265D02*
D03*
X22364Y31483D02*
D03*
X23297Y27936D02*
D03*
X45178Y22878D02*
D03*
X45161Y31034D02*
D03*
X51467Y28205D02*
D03*
X27804Y29530D02*
D03*
X27810Y30512D02*
D03*
X26599Y29657D02*
D03*
X23190Y29690D02*
D03*
D49*
X44446Y26756D02*
D03*
D50*
Y27858D02*
D03*
D51*
X54512Y31626D02*
D03*
Y31291D02*
D03*
Y31960D02*
D03*
Y30956D02*
D03*
X45463Y31366D02*
D03*
Y31701D02*
D03*
Y31032D02*
D03*
Y32036D02*
D03*
D52*
X50990Y28196D02*
D03*
X49016D02*
D03*
D53*
X49016Y34646D02*
D03*
X50000D02*
D03*
X50979D02*
D03*
D54*
X43672Y35193D02*
D03*
Y33693D02*
D03*
X44172Y35193D02*
D03*
Y33693D02*
D03*
X44672Y35193D02*
D03*
Y33693D02*
D03*
X45172Y35193D02*
D03*
Y33693D02*
D03*
X45172Y21083D02*
D03*
Y22583D02*
D03*
X44672Y21083D02*
D03*
Y22583D02*
D03*
X44172Y21083D02*
D03*
Y22583D02*
D03*
X43672Y21083D02*
D03*
Y22583D02*
D03*
X29292D02*
D03*
Y21083D02*
D03*
X29792Y22583D02*
D03*
Y21083D02*
D03*
X30292Y22583D02*
D03*
Y21083D02*
D03*
X30792Y22583D02*
D03*
Y21083D02*
D03*
X35662Y34051D02*
D03*
X37316D02*
D03*
D55*
X26837Y29663D02*
D03*
X27567D02*
D03*
X26848Y30647D02*
D03*
X27578D02*
D03*
D56*
X30324Y35210D02*
D03*
X33224D02*
D03*
Y33871D02*
D03*
X30324Y32375D02*
D03*
Y31470D02*
D03*
X33224Y31706D02*
D03*
X39794Y35196D02*
D03*
X42694D02*
D03*
Y33857D02*
D03*
X39794Y32361D02*
D03*
Y31456D02*
D03*
X42694Y31692D02*
D03*
D57*
X35082Y34838D02*
D03*
X37896D02*
D03*
D58*
X22678Y31106D02*
D03*
Y31224D02*
D03*
Y31411D02*
D03*
Y31529D02*
D03*
X22675Y28871D02*
D03*
Y28989D02*
D03*
Y29176D02*
D03*
Y29294D02*
D03*
Y30692D02*
D03*
Y29511D02*
D03*
Y30889D02*
D03*
Y30495D02*
D03*
Y30298D02*
D03*
Y30102D02*
D03*
Y29905D02*
D03*
Y29708D02*
D03*
M02*
