G04*
G04 #@! TF.GenerationSoftware,Altium Limited,Altium Designer,20.0.13 (296)*
G04*
G04 Layer_Color=8388736*
%FSLAX24Y24*%
%MOIN*%
G70*
G01*
G75*
G36*
X31972Y15705D02*
X32149Y15811D01*
X33210Y14751D01*
X33104Y14574D01*
X33068Y14609D01*
X33139Y14751D01*
X32149Y15740D01*
X32008Y15670D01*
X31972Y15705D01*
D01*
D02*
G37*
G36*
X32220Y15823D02*
X32136Y15907D01*
X32053Y15823D01*
X32220Y15823D01*
D01*
D02*
G37*
G36*
X37138Y18620D02*
X37222Y18536D01*
X37305Y18620D01*
X37138D01*
D01*
D02*
G37*
G36*
X37385Y18738D02*
X37209Y18632D01*
X36148Y19693D01*
X36254Y19869D01*
X36289Y19834D01*
X36219Y19693D01*
X37209Y18703D01*
X37350Y18773D01*
X37385Y18738D01*
D01*
D02*
G37*
G36*
X39352Y19848D02*
X39458Y19671D01*
X38398Y18610D01*
X38221Y18716D01*
X38256Y18752D01*
X38398Y18681D01*
X39388Y19671D01*
X39317Y19812D01*
X39352Y19848D01*
D01*
D02*
G37*
G36*
X39470Y19600D02*
X39554Y19684D01*
X39470Y19767D01*
Y19600D01*
D01*
D02*
G37*
G36*
X42396Y14806D02*
X42312Y14723D01*
X42396Y14639D01*
X42396Y14806D01*
D01*
D02*
G37*
G36*
X42514Y14559D02*
X42408Y14736D01*
X43469Y15796D01*
X43645Y15690D01*
X43610Y15655D01*
X43469Y15726D01*
X42479Y14736D01*
X42549Y14594D01*
X42514Y14559D01*
D01*
D02*
G37*
G36*
X49294Y35247D02*
X49262Y35092D01*
X50475Y34392D01*
X50593Y34497D01*
X50636Y34472D01*
X50493Y34324D01*
X49194Y35074D01*
X49251Y35272D01*
X49294Y35247D01*
D02*
G37*
G36*
X50530Y34235D02*
X50428Y34294D01*
X50589Y34337D01*
X50530Y34235D01*
D02*
G37*
G36*
X53803Y32167D02*
X53803Y32285D01*
X53921Y32285D01*
X53803Y32167D01*
D02*
G37*
G36*
X46113Y32284D02*
Y30784D01*
X45913Y30734D01*
Y30784D01*
X46063Y30834D01*
Y32234D01*
X45913Y32284D01*
Y32334D01*
X46113Y32284D01*
D02*
G37*
G36*
X46171Y30707D02*
X46053Y30707D01*
X46171Y30825D01*
X46171Y30707D01*
D02*
G37*
G36*
X54062Y32208D02*
X53912Y32158D01*
Y30758D01*
X54062Y30708D01*
Y30658D01*
X53862Y30708D01*
Y32208D01*
X54062Y32258D01*
Y32208D01*
D02*
G37*
G36*
X50769Y27815D02*
X49269D01*
X49219Y28015D01*
X49269D01*
X49319Y27865D01*
X50719D01*
X50769Y28015D01*
X50819D01*
X50769Y27815D01*
D02*
G37*
G36*
X50846Y27756D02*
X50728Y27756D01*
X50846Y27874D01*
X50846Y27756D01*
D02*
G37*
M02*
