  0
SECTION
  2
HEADER
  9
$ACADVER
  1
AC1032
  9
$ACADMAINTVER
 90
      197
  9
$DWGCODEPAGE
  3
ANSI_936
  9
$LASTSAVEDBY
  1
28211
  9
$REQUIREDVERSIONS
160
                 0
  9
$INSBASE
 10
0.0
 20
0.0
 30
0.0
  9
$EXTMIN
 10
32.40330200660396
 20
124.6050292100585
 30
0.0
  9
$EXTMAX
 10
175.3675770950451
 20
199.3593091186182
 30
0.0
  9
$LIMMIN
 10
0.0
 20
0.0
  9
$LIMMAX
 10
420.0
 20
297.0
  9
$ORTHOMODE
 70
     0
  9
$REGENMODE
 70
     1
  9
$FILLMODE
 70
     1
  9
$QTEXTMODE
 70
     0
  9
$MIRRTEXT
 70
     0
  9
$LTSCALE
 40
1.0
  9
$ATTMODE
 70
     1
  9
$TEXTSIZE
 40
2.5
  9
$TRACEWID
 40
1.0
  9
$TEXTSTYLE
  7
Standard
  9
$CLAYER
  8
0
  9
$CELTYPE
  6
ByLayer
  9
$CECOLOR
 62
   256
  9
$CELTSCALE
 40
1.0
  9
$DISPSILH
 70
     0
  9
$DIMSCALE
 40
1.0
  9
$DIMASZ
 40
2.5
  9
$DIMEXO
 40
0.625
  9
$DIMDLI
 40
3.75
  9
$DIMRND
 40
0.0
  9
$DIMDLE
 40
0.0
  9
$DIMEXE
 40
1.25
  9
$DIMTP
 40
0.0
  9
$DIMTM
 40
0.0
  9
$DIMTXT
 40
2.5
  9
$DIMCEN
 40
2.5
  9
$DIMTSZ
 40
0.0
  9
$DIMTOL
 70
     0
  9
$DIMLIM
 70
     0
  9
$DIMTIH
 70
     0
  9
$DIMTOH
 70
     0
  9
$DIMSE1
 70
     0
  9
$DIMSE2
 70
     0
  9
$DIMTAD
 70
     1
  9
$DIMZIN
 70
     8
  9
$DIMBLK
  1

  9
$DIMASO
 70
     1
  9
$DIMSHO
 70
     1
  9
$DIMPOST
  1

  9
$DIMAPOST
  1

  9
$DIMALT
 70
     0
  9
$DIMALTD
 70
     3
  9
$DIMALTF
 40
0.03937007874016
  9
$DIMLFAC
 40
1.0
  9
$DIMTOFL
 70
     1
  9
$DIMTVP
 40
0.0
  9
$DIMTIX
 70
     0
  9
$DIMSOXD
 70
     0
  9
$DIMSAH
 70
     0
  9
$DIMBLK1
  1

  9
$DIMBLK2
  1

  9
$DIMSTYLE
  2
ISO-25
  9
$DIMCLRD
 70
     0
  9
$DIMCLRE
 70
     0
  9
$DIMCLRT
 70
     0
  9
$DIMTFAC
 40
1.0
  9
$DIMGAP
 40
0.625
  9
$DIMJUST
 70
     0
  9
$DIMSD1
 70
     0
  9
$DIMSD2
 70
     0
  9
$DIMTOLJ
 70
     0
  9
$DIMTZIN
 70
     8
  9
$DIMALTZ
 70
     0
  9
$DIMALTTZ
 70
     0
  9
$DIMUPT
 70
     0
  9
$DIMDEC
 70
     2
  9
$DIMTDEC
 70
     2
  9
$DIMALTU
 70
     2
  9
$DIMALTTD
 70
     3
  9
$DIMTXSTY
  7
Standard
  9
$DIMAUNIT
 70
     0
  9
$DIMADEC
 70
     0
  9
$DIMALTRND
 40
0.0
  9
$DIMAZIN
 70
     0
  9
$DIMDSEP
 70
    44
  9
$DIMATFIT
 70
     3
  9
$DIMFRAC
 70
     0
  9
$DIMLDRBLK
  1

  9
$DIMLUNIT
 70
     2
  9
$DIMLWD
 70
    -2
  9
$DIMLWE
 70
    -2
  9
$DIMTMOVE
 70
     0
  9
$DIMFXL
 40
1.0
  9
$DIMFXLON
 70
     0
  9
$DIMJOGANG
 40
0.7853981633974483
  9
$DIMTFILL
 70
     0
  9
$DIMTFILLCLR
 70
     0
  9
$DIMARCSYM
 70
     0
  9
$DIMLTYPE
  6

  9
$DIMLTEX1
  6

  9
$DIMLTEX2
  6

  9
$DIMTXTDIRECTION
 70
     0
  9
$LUNITS
 70
     2
  9
$LUPREC
 70
     4
  9
$SKETCHINC
 40
1.0
  9
$FILLETRAD
 40
0.0
  9
$AUNITS
 70
     0
  9
$AUPREC
 70
     0
  9
$MENU
  1
.
  9
$ELEVATION
 40
0.0
  9
$PELEVATION
 40
0.0
  9
$THICKNESS
 40
0.0
  9
$LIMCHECK
 70
     0
  9
$CHAMFERA
 40
0.0
  9
$CHAMFERB
 40
0.0
  9
$CHAMFERC
 40
0.0
  9
$CHAMFERD
 40
0.0
  9
$SKPOLY
 70
     0
  9
$TDCREATE
 40
2458590.383113426
  9
$TDUCREATE
 40
2458590.049780092
  9
$TDUPDATE
 40
2460923.733321759
  9
$TDUUPDATE
 40
2460923.399988426
  9
$TDINDWG
 40
0.0014930556
  9
$TDUSRTIMER
 40
0.0014930556
  9
$USRTIMER
 70
     1
  9
$ANGBASE
 50
0.0
  9
$ANGDIR
 70
     0
  9
$PDMODE
 70
     0
  9
$PDSIZE
 40
0.0
  9
$PLINEWID
 40
0.0
  9
$SPLFRAME
 70
     0
  9
$SPLINETYPE
 70
     6
  9
$SPLINESEGS
 70
     8
  9
$HANDSEED
  5
4E3
  9
$SURFTAB1
 70
     6
  9
$SURFTAB2
 70
     6
  9
$SURFTYPE
 70
     6
  9
$SURFU
 70
     6
  9
$SURFV
 70
     6
  9
$UCSBASE
  2

  9
$UCSNAME
  2

  9
$UCSORG
 10
0.0
 20
0.0
 30
0.0
  9
$UCSXDIR
 10
1.0
 20
0.0
 30
0.0
  9
$UCSYDIR
 10
0.0
 20
1.0
 30
0.0
  9
$UCSORTHOREF
  2

  9
$UCSORTHOVIEW
 70
     0
  9
$UCSORGTOP
 10
0.0
 20
0.0
 30
0.0
  9
$UCSORGBOTTOM
 10
0.0
 20
0.0
 30
0.0
  9
$UCSORGLEFT
 10
0.0
 20
0.0
 30
0.0
  9
$UCSORGRIGHT
 10
0.0
 20
0.0
 30
0.0
  9
$UCSORGFRONT
 10
0.0
 20
0.0
 30
0.0
  9
$UCSORGBACK
 10
0.0
 20
0.0
 30
0.0
  9
$PUCSBASE
  2

  9
$PUCSNAME
  2

  9
$PUCSORG
 10
0.0
 20
0.0
 30
0.0
  9
$PUCSXDIR
 10
1.0
 20
0.0
 30
0.0
  9
$PUCSYDIR
 10
0.0
 20
1.0
 30
0.0
  9
$PUCSORTHOREF
  2

  9
$PUCSORTHOVIEW
 70
     0
  9
$PUCSORGTOP
 10
0.0
 20
0.0
 30
0.0
  9
$PUCSORGBOTTOM
 10
0.0
 20
0.0
 30
0.0
  9
$PUCSORGLEFT
 10
0.0
 20
0.0
 30
0.0
  9
$PUCSORGRIGHT
 10
0.0
 20
0.0
 30
0.0
  9
$PUCSORGFRONT
 10
0.0
 20
0.0
 30
0.0
  9
$PUCSORGBACK
 10
0.0
 20
0.0
 30
0.0
  9
$USERI1
 70
     0
  9
$USERI2
 70
     0
  9
$USERI3
 70
     0
  9
$USERI4
 70
     0
  9
$USERI5
 70
     0
  9
$USERR1
 40
0.0
  9
$USERR2
 40
0.0
  9
$USERR3
 40
0.0
  9
$USERR4
 40
0.0
  9
$USERR5
 40
0.0
  9
$WORLDVIEW
 70
     1
  9
$SHADEDGE
 70
     3
  9
$SHADEDIF
 70
    70
  9
$TILEMODE
 70
     1
  9
$MAXACTVP
 70
    64
  9
$PINSBASE
 10
0.0
 20
0.0
 30
0.0
  9
$PLIMCHECK
 70
     0
  9
$PEXTMIN
 10
0.0
 20
0.0
 30
0.0
  9
$PEXTMAX
 10
0.0
 20
0.0
 30
0.0
  9
$PLIMMIN
 10
0.0
 20
0.0
  9
$PLIMMAX
 10
12.0
 20
9.0
  9
$UNITMODE
 70
     0
  9
$VISRETAIN
 70
     1
  9
$PLINEGEN
 70
     0
  9
$PSLTSCALE
 70
     1
  9
$TREEDEPTH
 70
  3020
  9
$CMLSTYLE
  2
Standard
  9
$CMLJUST
 70
     0
  9
$CMLSCALE
 40
20.0
  9
$PROXYGRAPHICS
 70
     1
  9
$MEASUREMENT
 70
     1
  9
$CELWEIGHT
370
    -1
  9
$ENDCAPS
280
     0
  9
$JOINSTYLE
280
     0
  9
$LWDISPLAY
290
     0
  9
$INSUNITS
 70
     4
  9
$HYPERLINKBASE
  1

  9
$STYLESHEET
  1

  9
$XEDIT
290
     1
  9
$CEPSNTYPE
380
     0
  9
$PSTYLEMODE
290
     1
  9
$FINGERPRINTGUID
  2
{96A53CC7-ACDD-234C-B0F9-88300B14E85D}
  9
$VERSIONGUID
  2
{FDA5A254-6150-FA48-A4B8-168CBCE559AD}
  9
$EXTNAMES
290
     1
  9
$PSVPSCALE
 40
0.0
  9
$OLESTARTUP
290
     0
  9
$SORTENTS
280
   127
  9
$INDEXCTL
280
     0
  9
$HIDETEXT
280
     1
  9
$XCLIPFRAME
280
     2
  9
$HALOGAP
280
     0
  9
$OBSCOLOR
 70
   257
  9
$OBSLTYPE
280
     0
  9
$INTERSECTIONDISPLAY
280
     0
  9
$INTERSECTIONCOLOR
 70
   257
  9
$DIMASSOC
280
     2
  9
$PROJECTNAME
  1

  9
$CAMERADISPLAY
290
     0
  9
$LENSLENGTH
 40
50.0
  9
$CAMERAHEIGHT
 40
0.0
  9
$STEPSPERSEC
 40
2.0
  9
$STEPSIZE
 40
6.0
  9
$3DDWFPREC
 40
2.0
  9
$PSOLWIDTH
 40
5.0
  9
$PSOLHEIGHT
 40
80.0
  9
$LOFTANG1
 40
1.570796326794896
  9
$LOFTANG2
 40
1.570796326794896
  9
$LOFTMAG1
 40
0.0
  9
$LOFTMAG2
 40
0.0
  9
$LOFTPARAM
 70
     7
  9
$LOFTNORMALS
280
     1
  9
$LATITUDE
 40
37.795
  9
$LONGITUDE
 40
-122.394
  9
$NORTHDIRECTION
 40
0.0
  9
$TIMEZONE
 70
 -8000
  9
$LIGHTGLYPHDISPLAY
280
     1
  9
$TILEMODELIGHTSYNCH
280
     1
  9
$CMATERIAL
347
EC
  9
$SOLIDHIST
280
     0
  9
$SHOWHIST
280
     1
  9
$DWFFRAME
280
     2
  9
$DGNFRAME
280
     0
  9
$REALWORLDSCALE
290
     1
  9
$INTERFERECOLOR
 62
     1
  9
$INTERFEREOBJVS
345
F9
  9
$INTERFEREVPVS
346
F6
  9
$CSHADOW
280
     0
  9
$SHADOWPLANELOCATION
 40
0.0
  0
ENDSEC
  0
SECTION
  2
CLASSES
  0
CLASS
  1
ACDBDICTIONARYWDFLT
  2
AcDbDictionaryWithDefault
  3
ObjectDBX Classes
 90
        0
 91
        1
280
     0
281
     0
  0
CLASS
  1
DICTIONARYVAR
  2
AcDbDictionaryVar
  3
ObjectDBX Classes
 90
        0
 91
       12
280
     0
281
     0
  0
CLASS
  1
TABLESTYLE
  2
AcDbTableStyle
  3
ObjectDBX Classes
 90
     4095
 91
        1
280
     0
281
     0
  0
CLASS
  1
MATERIAL
  2
AcDbMaterial
  3
ObjectDBX Classes
 90
     1153
 91
        3
280
     0
281
     0
  0
CLASS
  1
VISUALSTYLE
  2
AcDbVisualStyle
  3
ObjectDBX Classes
 90
     4095
 91
       24
280
     0
281
     0
  0
CLASS
  1
SCALE
  2
AcDbScale
  3
ObjectDBX Classes
 90
     1153
 91
       17
280
     0
281
     0
  0
CLASS
  1
MLEADERSTYLE
  2
AcDbMLeaderStyle
  3
ACDB_MLEADERSTYLE_CLASS
 90
     4095
 91
        2
280
     0
281
     0
  0
CLASS
  1
CELLSTYLEMAP
  2
AcDbCellStyleMap
  3
ObjectDBX Classes
 90
     1152
 91
        2
280
     0
281
     0
  0
CLASS
  1
EXACXREFPANELOBJECT
  2
ExAcXREFPanelObject
  3
EXAC_ESW
 90
     1025
 91
        1
280
     0
281
     0
  0
CLASS
  1
NPOCOLLECTION
  2
AcDbImpNonPersistentObjectsCollection
  3
ObjectDBX Classes
 90
     1153
 91
        1
280
     0
281
     0
  0
CLASS
  1
LAYER_INDEX
  2
AcDbLayerIndex
  3
ObjectDBX Classes
 90
        0
 91
        0
280
     0
281
     0
  0
CLASS
  1
SPATIAL_INDEX
  2
AcDbSpatialIndex
  3
ObjectDBX Classes
 90
        0
 91
        0
280
     0
281
     0
  0
CLASS
  1
IDBUFFER
  2
AcDbIdBuffer
  3
ObjectDBX Classes
 90
        0
 91
        0
280
     0
281
     0
  0
CLASS
  1
ACDBSECTIONVIEWSTYLE
  2
AcDbSectionViewStyle
  3
ObjectDBX Classes
 90
     1025
 91
        1
280
     0
281
     0
  0
CLASS
  1
ACDBDETAILVIEWSTYLE
  2
AcDbDetailViewStyle
  3
ObjectDBX Classes
 90
     1025
 91
        1
280
     0
281
     0
  0
ENDSEC
  0
SECTION
  2
TABLES
  0
TABLE
  2
VPORT
  5
8
330
0
100
AcDbSymbolTable
 70
     1
  0
VPORT
  5
EA
330
8
100
AcDbSymbolTableRecord
100
AcDbViewportTableRecord
  2
*Active
 70
     0
 10
0.0
 20
0.0
 11
1.0
 21
1.0
 12
26.13531116233776
 22
26.75323908128959
 13
0.0
 23
0.0
 14
10.0
 24
10.0
 15
10.0
 25
10.0
 16
0.0
 26
0.0
 36
1.0
 17
0.0
 27
0.0
 37
0.0
 40
331.4971264971514
 41
1.831151832460733
 42
50.0
 43
0.0
 44
0.0
 50
0.0
 51
0.0
 71
     0
 72
  1000
 73
     1
 74
     3
 75
     0
 76
     1
 77
     0
 78
     0
281
     0
 65
     1
110
0.0
120
0.0
130
0.0
111
1.0
121
0.0
131
0.0
112
0.0
122
1.0
132
0.0
 79
     0
146
0.0
348
F5
 60
     3
 61
     5
292
     1
282
     1
141
0.0
142
0.0
 63
   250
421
  3355443
1001
ACAD_NAV_VCDISPLAY
1070
     3
  0
ENDTAB
  0
TABLE
  2
LTYPE
  5
5
330
0
100
AcDbSymbolTable
 70
     1
  0
LTYPE
  5
14
330
5
100
AcDbSymbolTableRecord
100
AcDbLinetypeTableRecord
  2
ByBlock
 70
     0
  3

 72
    65
 73
     0
 40
0.0
  0
LTYPE
  5
15
330
5
100
AcDbSymbolTableRecord
100
AcDbLinetypeTableRecord
  2
ByLayer
 70
     0
  3

 72
    65
 73
     0
 40
0.0
  0
LTYPE
  5
16
330
5
100
AcDbSymbolTableRecord
100
AcDbLinetypeTableRecord
  2
Continuous
 70
     0
  3
Solid line
 72
    65
 73
     0
 40
0.0
  0
ENDTAB
  0
TABLE
  2
LAYER
  5
2
102
{ACAD_XDICTIONARY
360
1FF
102
}
330
0
100
AcDbSymbolTable
 70
     7
  0
LAYER
  5
4D9
330
2
100
AcDbSymbolTableRecord
100
AcDbLayerTableRecord
  2
TopSilkLayer
 70
     0
 62
    40
420
 16763904
  6
Continuous
370
    -3
390
F
347
21
348
0
  0
LAYER
  5
4DA
330
2
100
AcDbSymbolTableRecord
100
AcDbLayerTableRecord
  2
TopSolderMaskLayer
 70
     0
 62
   216
420
  8388736
  6
Continuous
370
    -3
390
F
347
21
348
0
  0
LAYER
  5
4DB
330
2
100
AcDbSymbolTableRecord
100
AcDbLayerTableRecord
  2
BottomSolderMaskLayer
 70
     0
 62
   200
420
 11141375
  6
Continuous
370
    -3
390
F
347
21
348
0
  0
LAYER
  5
4DC
330
2
100
AcDbSymbolTableRecord
100
AcDbLayerTableRecord
  2
BoardOutLine
 70
     0
 62
     6
420
 16711935
  6
Continuous
370
    -3
390
F
347
21
348
0
  0
LAYER
  5
4DD
330
2
100
AcDbSymbolTableRecord
100
AcDbLayerTableRecord
  2
Multi-Layer
 70
     0
 62
     9
420
 12632256
  6
Continuous
370
    -3
390
F
347
21
348
0
  0
LAYER
  5
10
102
{ACAD_XDICTIONARY
360
13C
102
}
330
2
100
AcDbSymbolTableRecord
100
AcDbLayerTableRecord
  2
0
 70
     0
 62
     7
  6
Continuous
370
    -3
390
F
347
EE
348
0
  0
LAYER
  5
2BA
330
2
100
AcDbSymbolTableRecord
100
AcDbLayerTableRecord
  2
BottomSilkLayer
 70
     0
 62
     7
  6
Continuous
370
    -3
390
F
347
EE
348
0
  0
ENDTAB
  0
TABLE
  2
STYLE
  5
3
330
0
100
AcDbSymbolTable
 70
     2
  0
STYLE
  5
11
330
3
100
AcDbSymbolTableRecord
100
AcDbTextStyleTableRecord
  2
Standard
 70
     0
 40
0.0
 41
1.0
 50
0.0
 71
     0
 42
2.5
  3
arial.ttf
  4

1001
ACAD
1000
Arial
1071
       34
  0
STYLE
  5
132
330
3
100
AcDbSymbolTableRecord
100
AcDbTextStyleTableRecord
  2
Annotative
 70
     0
 40
0.0
 41
1.0
 50
0.0
 71
     0
 42
2.5
  3
arial.ttf
  4

1001
AcadAnnotative
1000
AnnotativeData
1002
{
1070
     1
1070
     1
1002
}
1001
ACAD
1000
Arial
1071
       34
  0
ENDTAB
  0
TABLE
  2
VIEW
  5
6
330
0
100
AcDbSymbolTable
 70
     0
  0
ENDTAB
  0
TABLE
  2
UCS
  5
7
330
0
100
AcDbSymbolTable
 70
     0
  0
ENDTAB
  0
TABLE
  2
APPID
  5
9
330
0
100
AcDbSymbolTable
 70
     9
  0
APPID
  5
12
330
9
100
AcDbSymbolTableRecord
100
AcDbRegAppTableRecord
  2
ACAD
 70
     0
  0
APPID
  5
9E
330
9
100
AcDbSymbolTableRecord
100
AcDbRegAppTableRecord
  2
ACAD_PSEXT
 70
     0
  0
APPID
  5
133
330
9
100
AcDbSymbolTableRecord
100
AcDbRegAppTableRecord
  2
AcadAnnoPO
 70
     0
  0
APPID
  5
134
330
9
100
AcDbSymbolTableRecord
100
AcDbRegAppTableRecord
  2
AcadAnnotative
 70
     0
  0
APPID
  5
135
330
9
100
AcDbSymbolTableRecord
100
AcDbRegAppTableRecord
  2
ACAD_DSTYLE_DIMJAG
 70
     0
  0
APPID
  5
136
330
9
100
AcDbSymbolTableRecord
100
AcDbRegAppTableRecord
  2
ACAD_DSTYLE_DIMTALN
 70
     0
  0
APPID
  5
165
330
9
100
AcDbSymbolTableRecord
100
AcDbRegAppTableRecord
  2
ACAD_MLEADERVER
 70
     0
  0
APPID
  5
217
330
9
100
AcDbSymbolTableRecord
100
AcDbRegAppTableRecord
  2
ACAD_NAV_VCDISPLAY
 70
     0
  0
APPID
  5
26E
330
9
100
AcDbSymbolTableRecord
100
AcDbRegAppTableRecord
  2
ACAD_EXEMPT_FROM_CAD_STANDARDS
 70
     0
  0
ENDTAB
  0
TABLE
  2
DIMSTYLE
  5
A
330
0
100
AcDbSymbolTable
 70
     3
100
AcDbDimStyleTable
 71
     2
340
27
340
137
  0
DIMSTYLE
105
1B0
330
A
100
AcDbSymbolTableRecord
100
AcDbDimStyleTableRecord
  2
Standard
 70
     0
340
11
  0
DIMSTYLE
105
137
330
A
100
AcDbSymbolTableRecord
100
AcDbDimStyleTableRecord
  2
Annotative
 70
     0
 40
0.0
 41
2.5
 42
0.625
 43
3.75
 44
1.25
 73
     0
 74
     0
 77
     1
 78
     8
140
2.5
141
2.5
143
0.03937007874016
147
0.625
171
     3
172
     1
271
     2
272
     2
274
     3
278
    44
283
     0
284
     8
340
11
1001
AcadAnnotative
1000
AnnotativeData
1002
{
1070
     1
1070
     1
1002
}
1001
ACAD_DSTYLE_DIMJAG
1070
   388
1040
1.5
1001
ACAD_DSTYLE_DIMTALN
1070
   392
1070
     0
  0
DIMSTYLE
105
27
330
A
100
AcDbSymbolTableRecord
100
AcDbDimStyleTableRecord
  2
ISO-25
 70
     0
 41
2.5
 42
0.625
 43
3.75
 44
1.25
 73
     0
 74
     0
 77
     1
 78
     8
140
2.5
141
2.5
143
0.03937007874016
147
0.625
171
     3
172
     1
271
     2
272
     2
274
     3
278
    44
283
     0
284
     8
340
11
  0
ENDTAB
  0
TABLE
  2
BLOCK_RECORD
  5
1
330
0
100
AcDbSymbolTable
 70
     1
  0
BLOCK_RECORD
  5
1F
102
{ACAD_XDICTIONARY
360
1CE
102
}
330
1
100
AcDbSymbolTableRecord
100
AcDbBlockTableRecord
  2
*Model_Space
340
22
 70
     0
280
     1
281
     0
  0
BLOCK_RECORD
  5
D2
330
1
100
AcDbSymbolTableRecord
100
AcDbBlockTableRecord
  2
*Paper_Space
340
D3
 70
     0
280
     1
281
     0
  0
BLOCK_RECORD
  5
D6
330
1
100
AcDbSymbolTableRecord
100
AcDbBlockTableRecord
  2
*Paper_Space0
340
D7
 70
     0
280
     1
281
     0
  0
ENDTAB
  0
ENDSEC
  0
SECTION
  2
BLOCKS
  0
BLOCK
  5
20
330
1F
100
AcDbEntity
  8
0
100
AcDbBlockBegin
  2
*Model_Space
 70
     0
 10
0.0
 20
0.0
 30
0.0
  3
*Model_Space
  1

  0
ENDBLK
  5
21
330
1F
100
AcDbEntity
  8
0
100
AcDbBlockEnd
  0
BLOCK
  5
D4
330
D2
100
AcDbEntity
 67
     1
  8
0
100
AcDbBlockBegin
  2
*Paper_Space
 70
     0
 10
0.0
 20
0.0
 30
0.0
  3
*Paper_Space
  1

  0
ENDBLK
  5
D5
330
D2
100
AcDbEntity
 67
     1
  8
0
100
AcDbBlockEnd
  0
BLOCK
  5
D8
330
D6
100
AcDbEntity
 67
     1
  8
0
100
AcDbBlockBegin
  2
*Paper_Space0
 70
     0
 10
0.0
 20
0.0
 30
0.0
  3
*Paper_Space0
  1

  0
ENDBLK
  5
D9
330
D6
100
AcDbEntity
 67
     1
  8
0
100
AcDbBlockEnd
  0
ENDSEC
  0
SECTION
  2
ENTITIES
  0
LWPOLYLINE
  5
3E8
330
1F
100
AcDbEntity
  8
TopSilkLayer
100
AcDbPolyline
 90
        3
 70
     0
 43
0.254000508001016
 10
73.14917449834911
 20
152.9355092710186
 10
73.14917449834911
 20
152.9355092710186
 10
35.35928371856744
 20
152.9355092710186
  0
LWPOLYLINE
  5
3E9
330
1F
100
AcDbEntity
  8
TopSilkLayer
100
AcDbPolyline
 90
        3
 70
     0
 43
0.254000508001016
 10
74.07912115824252
 20
132.2054864109729
 10
74.07912115824252
 20
132.2054864109729
 10
74.07912115824252
 20
152.0055118110238
  0
LWPOLYLINE
  5
3EA
330
1F
100
AcDbEntity
  8
TopSilkLayer
100
AcDbPolyline
 90
        3
 70
     0
 43
0.254000508001016
 10
34.37912115824224
 20
151.7255270510542
 10
34.37912115824224
 20
151.7255270510542
 10
34.37912115824224
 20
132.2755143510287
  0
LWPOLYLINE
  5
3EB
330
1F
100
AcDbEntity
  8
TopSilkLayer
100
AcDbPolyline
 90
        3
 70
     0
 43
0.254000508001016
 10
35.24927609855217
 20
131.4054864109729
 10
35.24927609855217
 20
131.4054864109729
 10
73.27917195834401
 20
131.4054864109729
  0
LWPOLYLINE
  5
3EC
330
1F
100
AcDbEntity
  8
TopSilkLayer
100
AcDbPolyline
 90
        3
 70
     0
 43
0.254000508001016
 10
34.37912115824224
 20
151.9554737109475
 10
34.37912115824224
 20
151.9554737109475
 10
34.37912115824224
 20
151.3654305308611
  0
LWPOLYLINE
  5
3ED
330
1F
100
AcDbEntity
  8
TopSilkLayer
100
AcDbPolyline
 90
        3
 70
     0
 43
0.254000508001016
 10
67.42026924053857
 20
187.6094742189485
 10
67.42026924053857
 20
187.6094742189485
 10
67.42026924053857
 20
189.8954787909577
  0
LWPOLYLINE
  5
3EE
330
1F
100
AcDbEntity
  8
TopSilkLayer
100
AcDbPolyline
 90
        3
 70
     0
 43
0.254000508001016
 10
67.42026924053857
 20
187.6094742189485
 10
67.42026924053857
 20
187.6094742189485
 10
66.27726695453407
 20
188.752476504953
  0
LWPOLYLINE
  5
3EF
330
1F
100
AcDbEntity
  8
TopSilkLayer
100
AcDbPolyline
 90
        3
 70
     0
 43
0.254000508001016
 10
67.42026924053857
 20
189.8954787909577
 10
67.42026924053857
 20
189.8954787909577
 10
66.27726695453407
 20
188.752476504953
  0
LWPOLYLINE
  5
3F0
330
1F
100
AcDbEntity
  8
TopSilkLayer
100
AcDbPolyline
 90
        3
 70
     0
 43
0.254000508001016
 10
72.11927863855748
 20
187.6094742189485
 10
72.11927863855748
 20
187.6094742189485
 10
72.11927863855748
 20
189.8954787909577
  0
LWPOLYLINE
  5
3F1
330
1F
100
AcDbEntity
  8
TopSilkLayer
100
AcDbPolyline
 90
        3
 70
     0
 43
0.254000508001016
 10
68.05527051054105
 20
190.5304800609602
 10
68.05527051054105
 20
190.5304800609602
 10
68.05527051054105
 20
186.8474726949455
  0
LWPOLYLINE
  5
3F2
330
1F
100
AcDbEntity
  8
TopSilkLayer
100
AcDbPolyline
 90
        3
 70
     0
 43
0.254000508001016
 10
71.48427736855478
 20
190.5304800609602
 10
71.48427736855478
 20
190.5304800609602
 10
71.48427736855478
 20
186.8474726949455
  0
LWPOLYLINE
  5
3F3
330
1F
100
AcDbEntity
  8
TopSilkLayer
100
AcDbPolyline
 90
        3
 70
     0
 43
0.254000508001016
 10
72.50027940055884
 20
190.5304800609602
 10
72.50027940055884
 20
190.5304800609602
 10
73.64328168656355
 20
189.3874777749556
  0
LWPOLYLINE
  5
3F4
330
1F
100
AcDbEntity
  8
TopSilkLayer
100
AcDbPolyline
 90
        3
 70
     0
 43
0.254000508001016
 10
72.50027940055884
 20
186.8474726949455
 10
72.50027940055884
 20
186.8474726949455
 10
73.64328168656355
 20
187.99047498095
  0
LWPOLYLINE
  5
3F5
330
1F
100
AcDbEntity
  8
TopSilkLayer
100
AcDbPolyline
 90
        3
 70
     0
 43
0.254000508001016
 10
65.76926593853205
 20
189.3874777749556
 10
65.76926593853205
 20
189.3874777749556
 10
66.91226822453654
 20
190.5304800609602
  0
LWPOLYLINE
  5
3F6
330
1F
100
AcDbEntity
  8
TopSilkLayer
100
AcDbPolyline
 90
        3
 70
     0
 43
0.254000508001016
 10
65.76926593853205
 20
187.99047498095
 10
65.76926593853205
 20
187.99047498095
 10
66.91226822453654
 20
186.8474726949455
  0
LWPOLYLINE
  5
3F7
330
1F
100
AcDbEntity
  8
TopSilkLayer
100
AcDbPolyline
 90
        3
 70
     0
 43
0.254000508001016
 10
72.11927863855748
 20
189.8954787909577
 10
72.11927863855748
 20
189.8954787909577
 10
73.26228092456199
 20
188.752476504953
  0
LWPOLYLINE
  5
3F8
330
1F
100
AcDbEntity
  8
TopSilkLayer
100
AcDbPolyline
 90
        3
 70
     0
 43
0.254000508001016
 10
72.11927863855748
 20
187.6094742189485
 10
72.11927863855748
 20
187.6094742189485
 10
73.26228092456199
 20
188.752476504953
  0
LWPOLYLINE
  5
3F9
330
1F
100
AcDbEntity
  8
TopSilkLayer
100
AcDbPolyline
 90
        3
 70
     0
 43
0.254000508001016
 10
73.64328168656355
 20
186.8474726949455
 10
73.64328168656355
 20
186.8474726949455
 10
73.64328168656355
 20
187.99047498095
  0
LWPOLYLINE
  5
3FA
330
1F
100
AcDbEntity
  8
TopSilkLayer
100
AcDbPolyline
 90
        3
 70
     0
 43
0.254000508001016
 10
65.76926593853205
 20
190.5304800609602
 10
65.76926593853205
 20
190.5304800609602
 10
65.76926593853205
 20
189.3874777749556
  0
LWPOLYLINE
  5
3FB
330
1F
100
AcDbEntity
  8
TopSilkLayer
100
AcDbPolyline
 90
        3
 70
     0
 43
0.254000508001016
 10
68.05527051054105
 20
186.8474726949455
 10
68.05527051054105
 20
186.8474726949455
 10
71.48427736855478
 20
186.8474726949455
  0
LWPOLYLINE
  5
3FC
330
1F
100
AcDbEntity
  8
TopSilkLayer
100
AcDbPolyline
 90
        3
 70
     0
 43
0.254000508001016
 10
68.05527051054105
 20
190.5304800609602
 10
68.05527051054105
 20
190.5304800609602
 10
71.48427736855478
 20
190.5304800609602
  0
LWPOLYLINE
  5
3FD
330
1F
100
AcDbEntity
  8
TopSilkLayer
100
AcDbPolyline
 90
        3
 70
     0
 43
0.254000508001016
 10
73.64328168656355
 20
190.5304800609602
 10
73.64328168656355
 20
190.5304800609602
 10
72.50027940055884
 20
190.5304800609602
  0
LWPOLYLINE
  5
3FE
330
1F
100
AcDbEntity
  8
TopSilkLayer
100
AcDbPolyline
 90
        3
 70
     0
 43
0.254000508001016
 10
73.64328168656355
 20
190.5304800609602
 10
73.64328168656355
 20
190.5304800609602
 10
73.64328168656355
 20
189.3874777749556
  0
LWPOLYLINE
  5
3FF
330
1F
100
AcDbEntity
  8
TopSilkLayer
100
AcDbPolyline
 90
        3
 70
     0
 43
0.254000508001016
 10
73.64328168656355
 20
186.8474726949455
 10
73.64328168656355
 20
186.8474726949455
 10
72.50027940055884
 20
186.8474726949455
  0
LWPOLYLINE
  5
400
330
1F
100
AcDbEntity
  8
TopSilkLayer
100
AcDbPolyline
 90
        3
 70
     0
 43
0.254000508001016
 10
65.76926593853205
 20
186.8474726949455
 10
65.76926593853205
 20
186.8474726949455
 10
66.91226822453654
 20
186.8474726949455
  0
LWPOLYLINE
  5
401
330
1F
100
AcDbEntity
  8
TopSilkLayer
100
AcDbPolyline
 90
        3
 70
     0
 43
0.254000508001016
 10
65.76926593853205
 20
186.8474726949455
 10
65.76926593853205
 20
186.8474726949455
 10
65.76926593853205
 20
187.99047498095
  0
LWPOLYLINE
  5
402
330
1F
100
AcDbEntity
  8
TopSilkLayer
100
AcDbPolyline
 90
        3
 70
     0
 43
0.254000508001016
 10
65.76926593853205
 20
190.5304800609602
 10
65.76926593853205
 20
190.5304800609602
 10
66.91226822453654
 20
190.5304800609602
  0
LWPOLYLINE
  5
403
330
1F
100
AcDbEntity
  8
TopSilkLayer
100
AcDbPolyline
 90
        3
 70
     0
 43
0.254000508001016
 10
34.89718059436109
 20
184.6843789687581
 10
34.89718059436109
 20
184.6843789687581
 10
40.91729743459495
 20
184.6843789687581
  0
LWPOLYLINE
  5
404
330
1F
100
AcDbEntity
  8
TopSilkLayer
100
AcDbPolyline
 90
        3
 70
     0
 43
0.254000508001016
 10
37.90797561595127
 20
184.6838201676404
 10
38.04762509525018
 20
184.6838201676404
 10
41.40830581661179
 20
188.0441198882398
  0
LWPOLYLINE
  5
405
330
1F
100
AcDbEntity
  8
TopSilkLayer
100
AcDbPolyline
 90
        3
 70
     0
 43
0.254000508001016
 10
34.50701041402067
 20
188.018821437643
 10
34.50701041402067
 20
188.018821437643
 10
37.95882651765305
 20
191.4555753111507
  0
LWPOLYLINE
  5
406
330
1F
100
AcDbEntity
  8
TopSilkLayer
100
AcDbPolyline
 90
        3
 70
     0
 43
0.254000508001016
 10
34.89718059436109
 20
191.4544577089154
 10
34.89718059436109
 20
191.4544577089154
 10
40.91729743459495
 20
191.4544577089154
  0
LWPOLYLINE
  5
407
330
1F
100
AcDbEntity
  8
TopSilkLayer
100
AcDbPolyline
 90
        3
 70
     0
 43
0.254000508001016
 10
37.90698501397014
 20
191.4544577089154
 10
37.90698501397014
 20
191.4544577089154
 10
37.90698501397014
 20
184.6828295656593
  0
LWPOLYLINE
  5
408
330
1F
100
AcDbEntity
  8
TopSilkLayer
100
AcDbPolyline
 90
        3
 70
     0
 43
0.254000508001016
 10
34.50723901447805
 20
188.0443738887478
 10
34.50723901447805
 20
188.0443738887478
 10
41.40830581661179
 20
188.0443738887478
  0
LWPOLYLINE
  5
409
330
1F
100
AcDbEntity
  8
TopSilkLayer
100
AcDbPolyline
 90
        3
 70
     0
 43
0.254000508001016
 10
34.50723901447805
 20
191.0546101092202
 10
34.50723901447805
 20
191.0546101092202
 10
34.50723901447805
 20
185.034442468885
  0
LWPOLYLINE
  5
40A
330
1F
100
AcDbEntity
  8
TopSilkLayer
100
AcDbPolyline
 90
        3
 70
     0
 43
0.254000508001016
 10
41.40706121412245
 20
191.0544831089664
 10
41.40706121412245
 20
191.0544831089664
 10
41.40706121412245
 20
185.034442468885
  0
LWPOLYLINE
  5
40B
330
1F
100
AcDbEntity
  8
TopSilkLayer
100
AcDbPolyline
 90
        3
 70
     0
 43
0.254000508001016
 10
121.611938023876
 20
154.634569469139
 10
132.437592075184
 20
154.634569469139
 10
148.4114808229617
 20
154.634569469139
  0
LWPOLYLINE
  5
40C
330
1F
100
AcDbEntity
  8
TopSilkLayer
100
AcDbPolyline
 90
        4
 70
     0
 43
0.254000508001016
 10
148.412573025146
 20
173.7652781305563
 10
141.9126238252477
 20
173.7652781305563
 10
141.9126238252477
 20
171.5530099060198
 10
150.0635763271527
 20
171.5530099060198
  0
LWPOLYLINE
  5
40D
330
1F
100
AcDbEntity
  8
TopSilkLayer
100
AcDbPolyline
 90
        4
 70
     0
 43
0.254000508001016
 10
121.5027940055879
 20
173.7662179324359
 10
128.0027432054865
 20
173.7662179324359
 10
128.0027432054865
 20
171.5549911099822
 10
119.8529083058165
 20
171.5549911099822
  0
LWPOLYLINE
  5
40E
330
1F
100
AcDbEntity
  8
TopSilkLayer
100
AcDbPolyline
 90
        3
 70
     0
 43
0.254000508001016
 10
150.0625857251716
 20
156.2851917703836
 10
150.0625857251716
 20
156.2851917703836
 10
150.0625857251716
 20
172.1351790703581
  0
LWPOLYLINE
  5
40F
330
1F
100
AcDbEntity
  8
TopSilkLayer
100
AcDbPolyline
 90
        3
 70
     0
 43
0.254000508001016
 10
119.8529083058165
 20
156.3951485902972
 10
119.8529083058165
 20
156.3951485902972
 10
119.8529083058165
 20
172.1160782321566
  0
LWPOLYLINE
  5
410
330
1F
100
AcDbEntity
  8
TopSilkLayer
100
AcDbPolyline
 90
        3
 70
     0
 43
0.254000508001016
 10
121.6026416052832
 20
175.3729997459996
 10
121.6026416052832
 20
175.3729997459996
 10
148.40254000508
 20
175.3729997459996
  0
LWPOLYLINE
  5
411
330
1F
100
AcDbEntity
  8
TopSilkLayer
100
AcDbPolyline
 90
        3
 70
     0
 43
0.254000508001016
 10
128.4379476758954
 20
180.2636271272544
 10
128.4379476758954
 20
180.2636271272544
 10
128.1380492760986
 20
179.5066548133097
  0
LWPOLYLINE
  5
412
330
1F
100
AcDbEntity
  8
TopSilkLayer
100
AcDbPolyline
 90
        3
 70
     0
 43
0.254000508001016
 10
128.4486156972314
 20
180.2646177292355
 10
128.4486156972314
 20
180.2646177292355
 10
128.7468884937771
 20
179.507518415037
  0
LWPOLYLINE
  5
413
330
1F
100
AcDbEntity
  8
TopSilkLayer
100
AcDbPolyline
 90
        3
 70
     0
 43
0.254000508001016
 10
127.21841503683
 20
176.8645161290323
 10
127.21841503683
 20
176.8645161290323
 10
126.939116078232
 20
176.155778511557
  0
LWPOLYLINE
  5
414
330
1F
100
AcDbEntity
  8
TopSilkLayer
100
AcDbPolyline
 90
        3
 70
     0
 43
0.254000508001016
 10
129.9499110998222
 20
176.155905511811
 10
129.9499110998222
 20
176.155905511811
 10
129.2509271018541
 20
176.1562103124207
  0
LWPOLYLINE
  5
415
330
1F
100
AcDbEntity
  8
TopSilkLayer
100
AcDbPolyline
 90
        3
 70
     0
 43
0.254000508001016
 10
126.939116078232
 20
176.155778511557
 10
126.939116078232
 20
176.155778511557
 10
127.6382524765049
 20
176.1554737109475
  0
LWPOLYLINE
  5
416
330
1F
100
AcDbEntity
  8
TopSilkLayer
100
AcDbPolyline
 90
        3
 70
     0
 43
0.254000508001016
 10
129.6704851409704
 20
176.8645161290323
 10
129.6704851409704
 20
176.8645161290323
 10
129.9499110998222
 20
176.155778511557
  0
LWPOLYLINE
  5
417
330
1F
100
AcDbEntity
  8
TopSilkLayer
100
AcDbPolyline
 90
        4
 70
     0
 43
0.254000508001016
 10
148.40254000508
 20
194.5029718059437
 10
141.9025908051817
 20
194.5029718059437
 10
141.9025908051817
 20
192.2907035814072
 10
150.0535433070865
 20
192.2907035814072
  0
LWPOLYLINE
  5
418
330
1F
100
AcDbEntity
  8
TopSilkLayer
100
AcDbPolyline
 90
        4
 70
     0
 43
0.254000508001016
 10
121.4926339852679
 20
194.5039624079249
 10
127.9927101854202
 20
194.5039624079249
 10
127.9927101854202
 20
192.2928117856236
 10
119.8426212852425
 20
192.2928117856236
  0
LWPOLYLINE
  5
419
330
1F
100
AcDbEntity
  8
TopSilkLayer
100
AcDbPolyline
 90
        3
 70
     0
 43
0.254000508001016
 10
150.0525527051054
 20
177.023012446025
 10
150.0525527051054
 20
177.023012446025
 10
150.0525527051054
 20
192.8729743459488
  0
LWPOLYLINE
  5
41A
330
1F
100
AcDbEntity
  8
TopSilkLayer
100
AcDbPolyline
 90
        3
 70
     0
 43
0.254000508001016
 10
119.8426212852425
 20
177.1330200660402
 10
119.8426212852425
 20
177.1330200660402
 10
119.8426212852425
 20
192.8537719075439
  0
LWPOLYLINE
  5
41B
330
1F
100
AcDbEntity
  8
TopSilkLayer
100
AcDbPolyline
 90
        3
 70
     0
 43
0.12500127000254
 10
115.8685293370586
 20
154.6553467106935
 10
115.8685293370586
 20
154.6553467106935
 10
115.8685293370586
 20
194.6654305308612
  0
LWPOLYLINE
  5
41C
330
1F
100
AcDbEntity
  8
TopSilkLayer
100
AcDbPolyline
 90
        4
 70
     0
 43
0.12500127000254
 10
115.8682753365506
 20
154.6552705105412
 10
75.86814833629659
 20
154.6552705105412
 10
75.86814833629659
 20
194.6553975107951
 10
115.8682753365506
 20
194.6553975107951
  0
LWPOLYLINE
  5
41D
330
1F
100
AcDbEntity
  8
TopSilkLayer
100
AcDbPolyline
 90
        3
 70
     0
 43
0.254000508001016
 10
122.8506731013463
 20
145.7423672847346
 10
122.8506731013463
 20
145.7423672847346
 10
122.3846075692152
 20
147.1682245364491
  0
LWPOLYLINE
  5
41E
330
1F
100
AcDbEntity
  8
TopSilkLayer
100
AcDbPolyline
 90
        3
 70
     0
 43
0.254000508001016
 10
122.3805181610364
 20
147.1724409448819
 10
122.3805181610364
 20
147.1724409448819
 10
121.9157988315976
 20
145.7462280924562
  0
LWPOLYLINE
  5
41F
330
1F
100
AcDbEntity
  8
TopSilkLayer
100
AcDbPolyline
 90
        3
 70
     0
 43
0.254000508001016
 10
127.1605029210059
 20
135.1625349250699
 10
127.1605029210059
 20
135.1625349250699
 10
126.6947929895861
 20
136.5884429768861
  0
LWPOLYLINE
  5
420
330
1F
100
AcDbEntity
  8
TopSilkLayer
100
AcDbPolyline
 90
        3
 70
     0
 43
0.254000508001016
 10
127.1595123190248
 20
135.1624079248158
 10
127.1595123190248
 20
135.1624079248158
 10
125.6595631191262
 20
135.1625857251715
  0
LWPOLYLINE
  5
421
330
1F
100
AcDbEntity
  8
TopSilkLayer
100
AcDbPolyline
 90
        3
 70
     0
 43
0.254000508001016
 10
117.7194564389131
 20
135.1526035052071
 10
117.7194564389131
 20
135.1526035052071
 10
118.1852933705868
 20
136.5784607569215
  0
LWPOLYLINE
  5
422
330
1F
100
AcDbEntity
  8
TopSilkLayer
100
AcDbPolyline
 90
        3
 70
     0
 43
0.254000508001016
 10
117.7193294386588
 20
135.1526035052071
 10
117.7193294386588
 20
135.1526035052071
 10
119.2195072390143
 20
135.1526035052071
  0
LWPOLYLINE
  5
423
330
1F
100
AcDbEntity
  8
BoardOutLine
100
AcDbPolyline
 90
        3
 70
     0
 43
0.254000508001016
 10
38.08991617983247
 20
124.732029464059
 10
38.08991617983247
 20
124.732029464059
 10
153.6550673101346
 20
124.732029464059
  0
LWPOLYLINE
  5
424
330
1F
100
AcDbEntity
  8
BoardOutLine
100
AcDbPolyline
 90
        7
 70
     1
 43
0.254000508001016
 10
106.7606045212089
 20
152.9824485648972
 10
106.7606045212089
 20
127.8025400050801
 10
108.3407924815849
 20
127.8025400050801
 10
109.6107950215901
 20
127.8025400050801
 10
109.6107950215901
 20
146.6525273050547
 10
109.6107950215901
 20
152.9824485648972
 10
106.7606045212089
 20
152.9824485648972
  0
LWPOLYLINE
  5
425
330
1F
100
AcDbEntity
  8
BoardOutLine
100
AcDbPolyline
 90
        3
 70
     0
 43
0.254000508001016
 10
124.0131572263146
 20
168.732156464313
 10
146.0122428244856
 20
168.732156464313
 10
146.0122428244856
 20
158.7321310642621
  0
LWPOLYLINE
  5
426
330
1F
100
AcDbEntity
  8
BoardOutLine
100
AcDbPolyline
 90
        3
 70
     0
 43
0.254000508001016
 10
124.0124206248413
 20
168.731648463297
 10
124.0124206248413
 20
168.731648463297
 10
124.0124206248413
 20
158.7316738633477
  0
LWPOLYLINE
  5
427
330
1F
100
AcDbEntity
  8
BoardOutLine
100
AcDbPolyline
 90
        3
 70
     0
 43
0.254000508001016
 10
146.0124714249427
 20
158.7316738633477
 10
146.0124714249427
 20
158.7316738633477
 10
124.0124206248413
 20
158.7316738633477
  0
LWPOLYLINE
  5
428
330
1F
100
AcDbEntity
  8
BoardOutLine
100
AcDbPolyline
 90
        7
 70
     1
 43
0.254000508001016
 10
112.8907035814072
 20
152.9824993649988
 10
112.8907035814072
 20
127.8025908051817
 10
114.4707645415292
 20
127.8025908051817
 10
115.7407670815341
 20
127.8025908051817
 10
115.7407670815341
 20
146.6525781051563
 10
115.7407670815341
 20
152.9824993649988
 10
112.8907035814072
 20
152.9824993649988
  0
LWPOLYLINE
  5
429
330
1F
100
AcDbEntity
  8
BoardOutLine
100
AcDbPolyline
 90
        7
 70
     1
 43
0.254000508001016
 10
100.6306070612142
 20
152.9823215646432
 10
100.6306070612142
 20
127.8024638049277
 10
102.210668021336
 20
127.8024638049277
 10
103.4806705613412
 20
127.8024638049277
 10
103.4806705613412
 20
146.6524003048007
 10
103.4806705613412
 20
152.9823215646432
 10
100.6306070612142
 20
152.9823215646432
  0
LWPOLYLINE
  5
42A
330
1F
100
AcDbEntity
  8
BoardOutLine
100
AcDbPolyline
 90
        7
 70
     1
 43
0.254000508001016
 10
94.50073660147314
 20
152.9823215646432
 10
94.50073660147314
 20
127.8024130048261
 10
96.0806705613411
 20
127.8024130048261
 10
97.35067310134606
 20
127.8024130048261
 10
97.35067310134606
 20
146.6524003048007
 10
97.35067310134606
 20
152.9823215646432
 10
94.50073660147314
 20
152.9823215646432
  0
LWPOLYLINE
  5
42B
330
1F
100
AcDbEntity
  8
BoardOutLine
100
AcDbPolyline
 90
        7
 70
     1
 43
0.254000508001016
 10
88.37048514097023
 20
152.9823215646432
 10
88.37048514097023
 20
127.8024130048261
 10
89.95054610109219
 20
127.8024130048261
 10
91.22054864109735
 20
127.8024130048261
 10
91.22054864109735
 20
146.6524003048007
 10
91.22054864109735
 20
152.9823215646432
 10
88.37048514097023
 20
152.9823215646432
  0
LWPOLYLINE
  5
42C
330
1F
100
AcDbEntity
  8
BoardOutLine
100
AcDbPolyline
 90
        7
 70
     1
 43
0.254000508001016
 10
82.24036068072155
 20
152.9821945643891
 10
82.24036068072155
 20
127.8022860045721
 10
83.82042164084328
 20
127.8022860045721
 10
85.09042418084845
 20
127.8022860045721
 10
85.09042418084845
 20
146.6522733045465
 10
85.09042418084845
 20
152.9821945643891
 10
82.24036068072155
 20
152.9821945643891
  0
LWPOLYLINE
  5
42D
330
1F
100
AcDbEntity
  8
BoardOutLine
100
AcDbPolyline
 90
        7
 70
     1
 43
0.254000508001016
 10
76.11049022098041
 20
152.9821945643891
 10
76.11049022098041
 20
127.8022860045721
 10
77.69055118110236
 20
127.8022860045721
 10
78.96055372110732
 20
127.8022860045721
 10
78.96055372110732
 20
146.6522733045465
 10
78.96055372110732
 20
152.9821945643891
 10
76.11049022098041
 20
152.9821945643891
  0
LWPOLYLINE
  5
42E
330
1F
100
AcDbEntity
  8
BoardOutLine
100
AcDbPolyline
 90
        3
 70
     0
 43
0.254000508001016
 10
34.37912115824224
 20
124.7381508763018
 10
34.37912115824224
 20
124.7381508763018
 10
38.09004318008647
 20
124.7330708661417
  0
LWPOLYLINE
  5
42F
330
1F
100
AcDbEntity
  8
BoardOutLine
100
AcDbPolyline
 90
        3
 70
     0
 43
0.254000508001016
 10
153.6551943103886
 20
124.7330708661417
 10
153.6551943103886
 20
124.7330708661417
 10
157.2315468630936
 20
124.7330708661417
  0
LWPOLYLINE
  5
430
330
1F
100
AcDbEntity
  8
BoardOutLine
100
AcDbPolyline
 90
        3
 70
     0
 43
0.254000508001016
 10
34.53020066040131
 20
199.2323088646177
 10
34.53020066040131
 20
199.2323088646177
 10
157.2305562611125
 20
199.2323088646177
  0
LWPOLYLINE
  5
431
330
1F
100
AcDbEntity
  8
BoardOutLine
100
AcDbPolyline
 90
        3
 70
     0
 43
0.254000508001016
 10
32.53030226060447
 20
126.7319532639066
 10
32.53030226060447
 20
126.7319532639066
 10
32.53030226060447
 20
197.232283464567
  0
LWPOLYLINE
  5
432
330
1F
100
AcDbEntity
  8
BoardOutLine
100
AcDbPolyline
 90
        3
 70
     0
 43
0.254000508001016
 10
159.2306832613665
 20
197.232283464567
 10
159.2306832613665
 20
197.232283464567
 10
159.2306832613665
 20
126.7319532639066
  0
HATCH
  5
434
330
1F
100
AcDbEntity
  8
TopSilkLayer
100
AcDbHatch
 10
0.0
 20
0.0
 30
0.0
210
0.0
220
0.0
230
1.0
  2
SOLID
 70
     1
 71
     0
 91
        1
 92
        7
 72
     0
 73
     1
 93
        5
 10
34.90144780289575
 20
170.0142240284481
 10
49.40233680467372
 20
170.0142240284481
 10
49.40233680467372
 20
169.0635001270003
 10
34.90144780289575
 20
169.0635001270003
 10
34.90144780289575
 20
170.0142240284481
 97
        0
 75
     0
 76
     1
 47
0.4128176842155181
 98
        1
 10
34.90568961886538
 20
22.81183545379326
450
        0
451
        0
460
0.0
461
0.0
452
        1
462
1.0
453
        2
463
0.0
 63
     5
421
      255
463
1.0
 63
     7
421
 16777215
470
LINEAR
1001
ACAD
1010
0.0
1020
0.0
1030
0.0
  0
HATCH
  5
436
330
1F
100
AcDbEntity
  8
TopSilkLayer
100
AcDbHatch
 10
0.0
 20
0.0
 30
0.0
210
0.0
220
0.0
230
1.0
  2
SOLID
 70
     1
 71
     0
 91
        1
 92
        7
 72
     0
 73
     1
 93
        5
 10
34.90043180086377
 20
175.497840995682
 10
49.41148082296172
 20
175.497840995682
 10
49.41148082296172
 20
174.480822961646
 10
34.90043180086377
 20
174.480822961646
 10
34.90043180086377
 20
175.497840995682
 97
        0
 75
     0
 76
     1
 47
0.4128176842155181
 98
        1
 10
34.90568961886538
 20
22.81183545379326
450
        0
451
        0
460
0.0
461
0.0
452
        1
462
1.0
453
        2
463
0.0
 63
     5
421
      255
463
1.0
 63
     7
421
 16777215
470
LINEAR
1001
ACAD
1010
0.0
1020
0.0
1030
0.0
  0
HATCH
  5
438
330
1F
100
AcDbEntity
  8
TopSilkLayer
100
AcDbHatch
 10
0.0
 20
0.0
 30
0.0
210
0.0
220
0.0
230
1.0
  2
SOLID
 70
     1
 71
     0
 91
        1
 92
        7
 72
     0
 73
     1
 93
        5
 10
52.31724663449336
 20
188.1846583693167
 10
58.21717043434092
 20
188.1846583693167
 10
58.21717043434092
 20
187.6146812293624
 10
52.31724663449336
 20
187.6146812293624
 10
52.31724663449336
 20
188.1846583693167
 97
        0
 75
     0
 76
     1
 47
0.4128176842155181
 98
        1
 10
34.90568961886538
 20
22.81183545379326
450
        0
451
        0
460
0.0
461
0.0
452
        1
462
1.0
453
        2
463
0.0
 63
     5
421
      255
463
1.0
 63
     7
421
 16777215
470
LINEAR
1001
ACAD
1010
0.0
1020
0.0
1030
0.0
  0
HATCH
  5
43A
330
1F
100
AcDbEntity
  8
TopSilkLayer
100
AcDbHatch
 10
0.0
 20
0.0
 30
0.0
210
0.0
220
0.0
230
1.0
  2
SOLID
 70
     1
 71
     0
 91
        1
 92
        7
 72
     0
 73
     1
 93
        5
 10
50.86715773431547
 20
188.1846583693167
 10
51.95732791465593
 20
188.1846583693167
 10
51.95732791465593
 20
187.6146812293624
 10
50.86715773431547
 20
187.6146812293624
 10
50.86715773431547
 20
188.1846583693167
 97
        0
 75
     0
 76
     1
 47
0.4128176842155181
 98
        1
 10
34.90568961886538
 20
22.81183545379326
450
        0
451
        0
460
0.0
461
0.0
452
        1
462
1.0
453
        2
463
0.0
 63
     5
421
      255
463
1.0
 63
     7
421
 16777215
470
LINEAR
1001
ACAD
1010
0.0
1020
0.0
1030
0.0
  0
HATCH
  5
43C
330
1F
100
AcDbEntity
  8
TopSilkLayer
100
AcDbHatch
 10
0.0
 20
0.0
 30
0.0
210
0.0
220
0.0
230
1.0
  2
SOLID
 70
     1
 71
     0
 91
        1
 92
        7
 72
     0
 73
     1
 93
        5
 10
46.09728219456428
 20
188.1945643891289
 10
50.55727711455415
 20
188.1945643891289
 10
50.55727711455415
 20
187.6144272288545
 10
46.09728219456428
 20
187.6144272288545
 10
46.09728219456428
 20
188.1945643891289
 97
        0
 75
     0
 76
     1
 47
0.4128176842155181
 98
        1
 10
34.90568961886538
 20
22.81183545379326
450
        0
451
        0
460
0.0
461
0.0
452
        1
462
1.0
453
        2
463
0.0
 63
     5
421
      255
463
1.0
 63
     7
421
 16777215
470
LINEAR
1001
ACAD
1010
0.0
1020
0.0
1030
0.0
  0
HATCH
  5
43E
330
1F
100
AcDbEntity
  8
TopSilkLayer
100
AcDbHatch
 10
0.0
 20
0.0
 30
0.0
210
0.0
220
0.0
230
1.0
  2
SOLID
 70
     1
 71
     0
 91
        1
 92
        7
 72
     0
 73
     1
 93
        5
 10
42.38735077470164
 20
188.2044704089409
 10
44.89738379476739
 20
188.2044704089409
 10
44.89738379476739
 20
187.6144272288545
 10
42.38735077470164
 20
187.6144272288545
 10
42.38735077470164
 20
188.2044704089409
 97
        0
 75
     0
 76
     1
 47
0.4128176842155181
 98
        1
 10
34.90568961886538
 20
22.81183545379326
450
        0
451
        0
460
0.0
461
0.0
452
        1
462
1.0
453
        2
463
0.0
 63
     5
421
      255
463
1.0
 63
     7
421
 16777215
470
LINEAR
1001
ACAD
1010
0.0
1020
0.0
1030
0.0
  0
HATCH
  5
440
330
1F
100
AcDbEntity
  8
TopSilkLayer
100
AcDbHatch
 10
0.0
 20
0.0
 30
0.0
210
0.0
220
0.0
230
1.0
  2
SOLID
 70
     1
 71
     0
 91
        1
 92
        7
 72
     0
 73
     1
 93
        5
 10
68.0553721107442
 20
187.6210312420626
 10
71.48437896875794
 20
187.6210312420626
 10
71.48437896875794
 20
186.8590297180596
 10
68.0553721107442
 20
186.8590297180596
 10
68.0553721107442
 20
187.6210312420626
 97
        0
 75
     0
 76
     1
 47
0.4128176842155181
 98
        1
 10
34.90568961886538
 20
22.81183545379326
450
        0
451
        0
460
0.0
461
0.0
452
        1
462
1.0
453
        2
463
0.0
 63
     5
421
      255
463
1.0
 63
     7
421
 16777215
470
LINEAR
1001
ACAD
1010
0.0
1020
0.0
1030
0.0
  0
HATCH
  5
442
330
1F
100
AcDbEntity
  8
TopSilkLayer
100
AcDbHatch
 10
0.0
 20
0.0
 30
0.0
210
0.0
220
0.0
230
1.0
  2
SOLID
 70
     1
 71
     0
 91
        1
 92
        7
 72
     0
 73
     1
 93
        5
 10
68.0553721107442
 20
190.5303530607061
 10
71.48437896875794
 20
190.5303530607061
 10
71.48437896875794
 20
189.7683515367031
 10
68.0553721107442
 20
189.7683515367031
 10
68.0553721107442
 20
190.5303530607061
 97
        0
 75
     0
 76
     1
 47
0.4128176842155181
 98
        1
 10
34.90568961886538
 20
22.81183545379326
450
        0
451
        0
460
0.0
461
0.0
452
        1
462
1.0
453
        2
463
0.0
 63
     5
421
      255
463
1.0
 63
     7
421
 16777215
470
LINEAR
1001
ACAD
1010
0.0
1020
0.0
1030
0.0
  0
LWPOLYLINE
  5
443
330
1F
100
AcDbEntity
  8
BoardOutLine
100
AcDbPolyline
 90
        3
 70
     0
 43
0.254000508001016
 10
142.8426720853442
 20
189.1435102870206
 10
127.1427228854459
 20
189.1435102870206
 10
127.1427228854459
 20
180.8432816865635
  0
LWPOLYLINE
  5
444
330
1F
100
AcDbEntity
  8
BoardOutLine
100
AcDbPolyline
 90
        3
 70
     0
 43
0.254000508001016
 10
142.8426720853442
 20
180.8434594869191
 10
142.8426720853442
 20
180.8434594869191
 10
142.8426720853442
 20
189.1435102870206
  0
LWPOLYLINE
  5
445
330
1F
100
AcDbEntity
  8
BoardOutLine
100
AcDbPolyline
 90
        3
 70
     0
 43
0.254000508001016
 10
127.1427228854459
 20
180.8432816865635
 10
127.1427228854459
 20
180.8432816865635
 10
142.8426720853442
 20
180.8432816865635
  0
ARC
  5
446
330
1F
100
AcDbEntity
  8
BoardOutLine
100
AcDbCircle
 10
34.53025146034179
 20
197.2323342653137
 30
0.0
 40
2.0
100
AcDbArc
 50
90.0
 51
180.000727676142
  0
ARC
  5
447
330
1F
100
AcDbEntity
  8
BoardOutLine
100
AcDbCircle
 10
34.53025146034179
 20
126.7319278632105
 30
0.0
 40
2.0
100
AcDbArc
 50
179.9992723236624
 51
270.0
  0
ARC
  5
448
330
1F
100
AcDbEntity
  8
BoardOutLine
100
AcDbCircle
 10
157.2306070613758
 20
126.7319278580492
 30
0.0
 40
2.0
100
AcDbArc
 50
270.0
 51
0.000727823881129
  0
ARC
  5
449
330
1F
100
AcDbEntity
  8
BoardOutLine
100
AcDbCircle
 10
157.2306070613758
 20
197.232334270475
 30
0.0
 40
2.0
100
AcDbArc
 50
359.9992721758016
 51
90.0
  0
ARC
  5
44A
330
1F
100
AcDbEntity
  8
TopSilkLayer
100
AcDbCircle
 10
121.6126492252983
 20
156.3951739886984
 30
0.0
 40
1.759994919989839
100
AcDbArc
 50
180.0
 51
270.0
  0
ARC
  5
44B
330
1F
100
AcDbEntity
  8
TopSilkLayer
100
AcDbCircle
 10
148.4127254256464
 20
156.2851663701373
 30
0.0
 40
1.6499872999746
100
AcDbArc
 50
270.0
 51
0.0
  0
ARC
  5
44C
330
1F
100
AcDbEntity
  8
TopSilkLayer
100
AcDbCircle
 10
148.4127254256464
 20
172.1151638305233
 30
0.0
 40
1.6499872999746
100
AcDbArc
 50
0.0008820093354049
 51
90.0
  0
ARC
  5
44D
330
1F
100
AcDbEntity
  8
TopSilkLayer
100
AcDbCircle
 10
121.5026416021551
 20
172.1162052355387
 30
0.0
 40
1.6499872999746
100
AcDbArc
 50
90.0
 51
180.0035281738725
  0
ARC
  5
44E
330
1F
100
AcDbEntity
  8
TopSilkLayer
100
AcDbCircle
 10
121.492710182292
 20
192.8538989109262
 30
0.0
 40
1.6499872999746
100
AcDbArc
 50
90.0
 51
180.0035281738725
  0
ARC
  5
44F
330
1F
100
AcDbEntity
  8
TopSilkLayer
100
AcDbCircle
 10
148.4026924061668
 20
192.8529083089449
 30
0.0
 40
1.6499872999746
100
AcDbArc
 50
0.0017639240407305
 51
90.0
  0
ARC
  5
450
330
1F
100
AcDbEntity
  8
TopSilkLayer
100
AcDbCircle
 10
148.4026924053851
 20
177.0229362458725
 30
0.0
 40
1.6499872999746
100
AcDbArc
 50
270.0
 51
0.0
  0
ARC
  5
451
330
1F
100
AcDbEntity
  8
TopSilkLayer
100
AcDbCircle
 10
121.6027178054357
 20
177.1329438651546
 30
0.0
 40
1.759994919989839
100
AcDbArc
 50
180.0
 51
270.0
  0
ARC
  5
452
330
1F
100
AcDbEntity
  8
TopSilkLayer
100
AcDbCircle
 10
34.39918719837443
 20
151.9554737109475
 30
0.0
 40
0.01998983997968
100
AcDbArc
 50
90.0
 51
180.0000000000191
  0
ARC
  5
453
330
1F
100
AcDbEntity
  8
TopSilkLayer
100
AcDbCircle
 10
35.35918211836429
 20
151.9754635539515
 30
0.0
 40
0.95999491998984
100
AcDbArc
 50
90.0
 51
180.000000180497
  0
ARC
  5
454
330
1F
100
AcDbEntity
  8
TopSilkLayer
100
AcDbCircle
 10
73.14912369824765
 20
152.005461011269
 30
0.0
 40
0.92999745999492
100
AcDbArc
 50
0.0
 51
90.0
  0
ARC
  5
455
330
1F
100
AcDbEntity
  8
TopSilkLayer
100
AcDbCircle
 10
73.27912115824256
 20
132.2054610072929
 30
0.0
 40
0.8
100
AcDbArc
 50
270.0
 51
0.0
  0
ARC
  5
456
330
1F
100
AcDbEntity
  8
TopSilkLayer
100
AcDbCircle
 10
35.24919989839987
 20
132.2754635475902
 30
0.0
 40
0.8700025400050799
100
AcDbArc
 50
180.0
 51
270.0
  0
TEXT
  5
4AC
330
1F
100
AcDbEntity
  8
BottomSilkLayer
100
AcDbText
 10
69.66268732537469
 20
193.9702819405639
 30
0.0
 40
2.5
  1
JLCJLCJLCJLC
 71
     2
100
AcDbText
  0
TEXT
  5
4AD
330
1F
100
AcDbEntity
  8
TopSilkLayer
100
AcDbText
 10
128.8359156718313
 20
138.3522987045975
 30
0.0
 40
2.2
  1
REPLACE ONLY WITH SAME
 71
     1
100
AcDbText
  0
TEXT
  5
4AE
330
1F
100
AcDbEntity
  8
TopSilkLayer
100
AcDbText
 10
128.8907797815595
 20
141.4323088646177
 30
0.0
 40
2.2
  1
AGAINST RISK OF FIRE ,
 71
     1
100
AcDbText
  0
TEXT
  5
4AF
330
1F
100
AcDbEntity
  8
TopSilkLayer
100
AcDbText
 10
128.7548895097791
 20
144.502413004826
 30
0.0
 40
2.2
  1
FOR CONTINUED PROTECTION
 71
     1
100
AcDbText
  0
TEXT
  5
4B0
330
1F
100
AcDbEntity
  8
TopSilkLayer
100
AcDbText
 10
128.8412496824992
 20
135.4122428244857
 30
0.0
 40
2.2
  1
TYPE AND RATING FUSE.
 71
     1
100
AcDbText
  0
TEXT
  5
4B1
330
1F
100
AcDbEntity
  8
TopSilkLayer
100
AcDbText
 10
121.4505969011938
 20
136.0822961645923
 30
0.0
 40
10.0000254000508
  1
!
 71
     1
100
AcDbText
  0
TEXT
  5
4B2
330
1F
100
AcDbEntity
  8
TopSilkLayer
100
AcDbText
 10
129.6103632207264
 20
155.7028194056388
 30
0.0
 40
2.5
  1
25A FUSE
 71
     1
100
AcDbText
  0
TEXT
  5
4B3
330
1F
100
AcDbEntity
  8
TopSilkLayer
100
AcDbText
 10
129.3528067056133
 20
171.4833629667261
 30
0.0
 40
3.0
  1
INPUT FUSE
 71
     1
100
AcDbText
  0
TEXT
  5
4B4
330
1F
100
AcDbEntity
  8
TopSilkLayer
100
AcDbText
 10
130.732791465583
 20
176.0228600457201
 30
0.0
 40
2.5
  1
28A LIMIT
 71
     1
100
AcDbText
  0
TEXT
  5
4B5
330
1F
100
AcDbEntity
  8
TopSilkLayer
100
AcDbText
 10
130.7264414528829
 20
178.3850647701297
 30
0.0
 40
2.5
  1
30V (Max)
 71
     1
100
AcDbText
  0
TEXT
  5
4B6
330
1F
100
AcDbEntity
  8
TopSilkLayer
100
AcDbText
 10
128.1092202184404
 20
176.3030226060452
 30
0.0
 40
3.5
  1
!
 71
     1
100
AcDbText
  0
TEXT
  5
4B7
330
1F
100
AcDbEntity
  8
TopSilkLayer
100
AcDbText
 10
128.6228092456185
 20
192.222758445517
 30
0.0
 40
3.0
  1
POWER INPUT
 71
     1
100
AcDbText
  0
TEXT
  5
4B8
330
1F
100
AcDbEntity
  8
TopSilkLayer
100
AcDbText
 10
35.48920497840982
 20
133.8552197104394
 30
0.0
 40
3.0
  1
OUTPUT POWER LIMIT:250W
 71
     1
100
AcDbText
  0
TEXT
  5
4B9
330
1F
100
AcDbEntity
  8
TopSilkLayer
100
AcDbText
 10
35.48920497840982
 20
137.3954787909577
 30
0.0
 40
3.0
  1
OUTPUT C.C RANGE: 0-10A
 71
     1
100
AcDbText
  0
TEXT
  5
4BA
330
1F
100
AcDbEntity
  8
TopSilkLayer
100
AcDbText
 10
35.48920497840982
 20
140.9154178308357
 30
0.0
 40
3.0
  1
OUTPUT C.V RANGE: 0-50V
 71
     1
100
AcDbText
  0
TEXT
  5
4BB
330
1F
100
AcDbEntity
  8
TopSilkLayer
100
AcDbText
 10
35.28930657861315
 20
144.2954025908052
 30
0.0
 40
3.0
  1
INPUT CURRENT LIMIT:28A
 71
     1
100
AcDbText
  0
TEXT
  5
4BC
330
1F
100
AcDbEntity
  8
TopSilkLayer
100
AcDbText
 10
35.28930657861315
 20
147.985267970536
 30
0.0
 40
3.0
  1
INPUT VOL RANGE: 10-30V
 71
     1
100
AcDbText
  0
TEXT
  5
4BD
330
1F
100
AcDbEntity
  8
TopSilkLayer
100
AcDbText
 10
53.67691135382278
 20
173.0053340106681
 30
0.0
 40
3.0
  1
Ultra FAST ++
 71
     1
100
AcDbText
  0
TEXT
  5
4BE
330
1F
100
AcDbEntity
  8
TopSilkLayer
100
AcDbText
 10
50.93370586741161
 20
169.488442976886
 30
0.0
 40
3.3
  1
<<<< AUTO CAL V3 >>>>
 71
     1
100
AcDbText
  0
TEXT
  5
4BF
330
1F
100
AcDbEntity
  8
TopSilkLayer
100
AcDbText
 10
34.99136398272799
 20
171.0040640081281
 30
0.0
 40
3.3
  1
0-50V   0-10A
 71
     1
100
AcDbText
  0
TEXT
  5
4C0
330
1F
100
AcDbEntity
  8
TopSilkLayer
100
AcDbText
 10
34.40030480060977
 20
178.211328422657
 30
0.0
 40
4.0
  1
AUTO RANGE DC POWER SUPPLY
 71
     1
100
AcDbText
  0
TEXT
  5
4C1
330
1F
100
AcDbEntity
  8
TopSilkLayer
100
AcDbText
 10
59.01727203454402
 20
187.8343916687834
 30
0.0
 40
4.0
  1
3rd
 71
     1
100
AcDbText
  0
TEXT
  5
4C2
330
1F
100
AcDbEntity
  8
TopSilkLayer
100
AcDbText
 10
42.14732029464062
 20
184.5544831089662
 30
0.0
 40
3.2
  1
RT300-MKV-EXTREME
 71
     1
100
AcDbText
  0
TEXT
  5
4C3
330
1F
100
AcDbEntity
  8
TopSilkLayer
100
AcDbText
 10
42.14732029464062
 20
188.8793497586996
 30
0.0
 40
3.2
  1
EEI TECHNOLOGY
 71
     1
100
AcDbText
  0
TEXT
  5
4C4
330
1F
100
AcDbEntity
  8
TopSilkLayer
100
AcDbText
 10
68.30937261874533
 20
188.1173482346966
 30
0.0
 40
1.8
  1
01P
 71
     1
100
AcDbText
  0
TEXT
  5
4C5
330
1F
100
AcDbEntity
  8
TopSilkLayer
100
AcDbText
 10
64.24536449072911
 20
184.5613411226823
 30
0.0
 40
1.8
  1
01P-HEXAGON
 71
     1
100
AcDbText
  0
CIRCLE
  5
457
330
1F
100
AcDbEntity
  8
TopSilkLayer
100
AcDbCircle
 10
35.8892557785116
 20
151.5753111506223
 30
0.0
 40
0.37998475996952
  0
CIRCLE
  5
458
330
1F
100
AcDbEntity
  8
TopSilkLayer
100
AcDbCircle
 10
36.32054864109728
 20
128.3421386842774
 30
0.0
 40
2.0
  0
CIRCLE
  5
459
330
1F
100
AcDbEntity
  8
TopSilkLayer
100
AcDbCircle
 10
36.32054864109728
 20
195.6220472440945
 30
0.0
 40
2.0
  0
CIRCLE
  5
45A
330
1F
100
AcDbEntity
  8
TopSilkLayer
100
AcDbCircle
 10
155.4208788417577
 20
195.6223012446025
 30
0.0
 40
2.0
  0
CIRCLE
  5
45B
330
1F
100
AcDbEntity
  8
TopSilkLayer
100
AcDbCircle
 10
155.4307848615697
 20
128.3423926847854
 30
0.0
 40
2.0
  0
ARC
  5
45E
330
1F
100
AcDbEntity
  8
TopSolderMaskLayer
100
AcDbCircle
 10
111.7907874331879
 20
158.6532893065787
 30
0.0
 40
1.589383101346848
100
AcDbArc
 50
90.0
 51
270.0
  0
ARC
  5
45F
330
1F
100
AcDbEntity
  8
TopSolderMaskLayer
100
AcDbCircle
 10
111.9497153252371
 20
158.6532893065787
 30
0.0
 40
1.589383101346848
100
AcDbArc
 50
270.0
 51
90.0
  0
LWPOLYLINE
  5
460
330
1F
100
AcDbEntity
  8
TopSolderMaskLayer
100
AcDbPolyline
 90
        3
 70
     1
 43
0.0
 10
111.9497153252371
 20
160.2426724079255
 10
111.9497153252371
 20
160.2426724079255
 10
111.7907874331879
 20
160.2426724079255
  0
LWPOLYLINE
  5
461
330
1F
100
AcDbEntity
  8
TopSolderMaskLayer
100
AcDbPolyline
 90
        3
 70
     1
 43
0.0
 10
111.9497153252371
 20
157.0639062052319
 10
111.9497153252371
 20
157.0639062052319
 10
111.7907874331879
 20
157.0639062052319
  0
CIRCLE
  5
45D
330
1F
100
AcDbEntity
  8
TopSolderMaskLayer
100
AcDbCircle
 10
111.8704597409196
 20
158.6532893065787
 30
0.0
 40
2.050800101600203
  0
HATCH
  5
462
330
1F
100
AcDbEntity
  8
TopSolderMaskLayer
100
AcDbHatch
 10
0.0
 20
0.0
 30
0.0
210
0.0
220
0.0
230
1.0
  2
SOLID
 70
     1
 71
     0
 91
        1
 92
        7
 72
     1
 73
     1
 93
        2
 10
109.8196596393194
 20
158.6532893065787
 42
1.0
 10
113.9212598425198
 20
158.6532893065787
 42
1.0
 97
        0
 75
     0
 76
     1
 47
0.8681437583925616
 98
        1
 10
3.629517071192366
 20
33.92795499968543
450
        0
451
        0
460
0.0
461
0.0
452
        1
462
1.0
453
        2
463
0.0
 63
     5
421
      255
463
1.0
 63
     7
421
 16777215
470
LINEAR
1001
ACAD
1010
0.0
1020
0.0
1030
0.0
  0
ARC
  5
465
330
1F
100
AcDbEntity
  8
BottomSolderMaskLayer
100
AcDbCircle
 10
111.7907874331879
 20
158.6532893065787
 30
0.0
 40
1.589383101346848
100
AcDbArc
 50
90.0
 51
270.0
  0
ARC
  5
466
330
1F
100
AcDbEntity
  8
BottomSolderMaskLayer
100
AcDbCircle
 10
111.9497153252371
 20
158.6532893065787
 30
0.0
 40
1.589383101346848
100
AcDbArc
 50
270.0
 51
90.0
  0
LWPOLYLINE
  5
467
330
1F
100
AcDbEntity
  8
BottomSolderMaskLayer
100
AcDbPolyline
 90
        3
 70
     1
 43
0.0
 10
111.9497153252371
 20
160.2426724079255
 10
111.9497153252371
 20
160.2426724079255
 10
111.7907874331879
 20
160.2426724079255
  0
LWPOLYLINE
  5
468
330
1F
100
AcDbEntity
  8
BottomSolderMaskLayer
100
AcDbPolyline
 90
        3
 70
     1
 43
0.0
 10
111.9497153252371
 20
157.0639062052319
 10
111.9497153252371
 20
157.0639062052319
 10
111.7907874331879
 20
157.0639062052319
  0
CIRCLE
  5
464
330
1F
100
AcDbEntity
  8
BottomSolderMaskLayer
100
AcDbCircle
 10
111.8704597409196
 20
158.6532893065787
 30
0.0
 40
2.050800101600203
  0
HATCH
  5
469
330
1F
100
AcDbEntity
  8
BottomSolderMaskLayer
100
AcDbHatch
 10
0.0
 20
0.0
 30
0.0
210
0.0
220
0.0
230
1.0
  2
SOLID
 70
     1
 71
     0
 91
        1
 92
        7
 72
     1
 73
     1
 93
        2
 10
109.8196596393194
 20
158.6532893065787
 42
1.0
 10
113.9212598425198
 20
158.6532893065787
 42
1.0
 97
        0
 75
     0
 76
     1
 47
0.8681437583925616
 98
        1
 10
3.629517071192366
 20
33.92795499968543
450
        0
451
        0
460
0.0
461
0.0
452
        1
462
1.0
453
        2
463
0.0
 63
     5
421
      255
463
1.0
 63
     7
421
 16777215
470
LINEAR
1001
ACAD
1010
0.0
1020
0.0
1030
0.0
  0
ARC
  5
46C
330
1F
100
AcDbEntity
  8
Multi-Layer
100
AcDbCircle
 10
111.7927609855219
 20
158.6532893065787
 30
0.0
 40
1.5500127000254
100
AcDbArc
 50
90.0
 51
270.0
  0
ARC
  5
46D
330
1F
100
AcDbEntity
  8
Multi-Layer
100
AcDbCircle
 10
111.9477520955042
 20
158.6532893065787
 30
0.0
 40
1.5500127000254
100
AcDbArc
 50
270.0
 51
90.0
  0
LWPOLYLINE
  5
46E
330
1F
100
AcDbEntity
  8
Multi-Layer
100
AcDbPolyline
 90
        3
 70
     1
 43
0.0
 10
111.9477520955042
 20
160.2033020066041
 10
111.9477520955042
 20
160.2033020066041
 10
111.7927609855219
 20
160.2033020066041
  0
LWPOLYLINE
  5
46F
330
1F
100
AcDbEntity
  8
Multi-Layer
100
AcDbPolyline
 90
        3
 70
     1
 43
0.0
 10
111.9477520955042
 20
157.1032766065533
 10
111.9477520955042
 20
157.1032766065533
 10
111.7927609855219
 20
157.1032766065533
  0
CIRCLE
  5
46B
330
1F
100
AcDbEntity
  8
Multi-Layer
100
AcDbCircle
 10
111.8704597409196
 20
158.6532893065787
 30
0.0
 40
2.0
  0
ARC
  5
472
330
1F
100
AcDbEntity
  8
TopSolderMaskLayer
100
AcDbCircle
 10
111.7907874331879
 20
190.6573533147066
 30
0.0
 40
1.589383101346848
100
AcDbArc
 50
90.0
 51
270.0
  0
ARC
  5
473
330
1F
100
AcDbEntity
  8
TopSolderMaskLayer
100
AcDbCircle
 10
111.9497153252371
 20
190.6573533147066
 30
0.0
 40
1.589383101346848
100
AcDbArc
 50
270.0
 51
90.0
  0
LWPOLYLINE
  5
474
330
1F
100
AcDbEntity
  8
TopSolderMaskLayer
100
AcDbPolyline
 90
        3
 70
     1
 43
0.0
 10
111.9497153252371
 20
192.2467364160536
 10
111.9497153252371
 20
192.2467364160536
 10
111.7907874331879
 20
192.2467364160536
  0
LWPOLYLINE
  5
475
330
1F
100
AcDbEntity
  8
TopSolderMaskLayer
100
AcDbPolyline
 90
        3
 70
     1
 43
0.0
 10
111.9497153252371
 20
189.0679702133598
 10
111.9497153252371
 20
189.0679702133598
 10
111.7907874331879
 20
189.0679702133598
  0
CIRCLE
  5
471
330
1F
100
AcDbEntity
  8
TopSolderMaskLayer
100
AcDbCircle
 10
111.8704597409196
 20
190.6573533147066
 30
0.0
 40
2.050800101600203
  0
HATCH
  5
476
330
1F
100
AcDbEntity
  8
TopSolderMaskLayer
100
AcDbHatch
 10
0.0
 20
0.0
 30
0.0
210
0.0
220
0.0
230
1.0
  2
SOLID
 70
     1
 71
     0
 91
        1
 92
        7
 72
     1
 73
     1
 93
        2
 10
109.8196596393194
 20
190.6573533147066
 42
1.0
 10
113.9212598425198
 20
190.6573533147066
 42
1.0
 97
        0
 75
     0
 76
     1
 47
0.8681437583925616
 98
        1
 10
3.629517071192366
 20
33.92795499968543
450
        0
451
        0
460
0.0
461
0.0
452
        1
462
1.0
453
        2
463
0.0
 63
     5
421
      255
463
1.0
 63
     7
421
 16777215
470
LINEAR
1001
ACAD
1010
0.0
1020
0.0
1030
0.0
  0
ARC
  5
479
330
1F
100
AcDbEntity
  8
BottomSolderMaskLayer
100
AcDbCircle
 10
111.7907874331879
 20
190.6573533147066
 30
0.0
 40
1.589383101346848
100
AcDbArc
 50
90.0
 51
270.0
  0
ARC
  5
47A
330
1F
100
AcDbEntity
  8
BottomSolderMaskLayer
100
AcDbCircle
 10
111.9497153252371
 20
190.6573533147066
 30
0.0
 40
1.589383101346848
100
AcDbArc
 50
270.0
 51
90.0
  0
LWPOLYLINE
  5
47B
330
1F
100
AcDbEntity
  8
BottomSolderMaskLayer
100
AcDbPolyline
 90
        3
 70
     1
 43
0.0
 10
111.9497153252371
 20
192.2467364160536
 10
111.9497153252371
 20
192.2467364160536
 10
111.7907874331879
 20
192.2467364160536
  0
LWPOLYLINE
  5
47C
330
1F
100
AcDbEntity
  8
BottomSolderMaskLayer
100
AcDbPolyline
 90
        3
 70
     1
 43
0.0
 10
111.9497153252371
 20
189.0679702133598
 10
111.9497153252371
 20
189.0679702133598
 10
111.7907874331879
 20
189.0679702133598
  0
CIRCLE
  5
478
330
1F
100
AcDbEntity
  8
BottomSolderMaskLayer
100
AcDbCircle
 10
111.8704597409196
 20
190.6573533147066
 30
0.0
 40
2.050800101600203
  0
HATCH
  5
47D
330
1F
100
AcDbEntity
  8
BottomSolderMaskLayer
100
AcDbHatch
 10
0.0
 20
0.0
 30
0.0
210
0.0
220
0.0
230
1.0
  2
SOLID
 70
     1
 71
     0
 91
        1
 92
        7
 72
     1
 73
     1
 93
        2
 10
109.8196596393194
 20
190.6573533147066
 42
1.0
 10
113.9212598425198
 20
190.6573533147066
 42
1.0
 97
        0
 75
     0
 76
     1
 47
0.8681437583925616
 98
        1
 10
3.629517071192366
 20
33.92795499968543
450
        0
451
        0
460
0.0
461
0.0
452
        1
462
1.0
453
        2
463
0.0
 63
     5
421
      255
463
1.0
 63
     7
421
 16777215
470
LINEAR
1001
ACAD
1010
0.0
1020
0.0
1030
0.0
  0
ARC
  5
480
330
1F
100
AcDbEntity
  8
Multi-Layer
100
AcDbCircle
 10
111.7927609855219
 20
190.6573533147066
 30
0.0
 40
1.5500127000254
100
AcDbArc
 50
90.0
 51
270.0
  0
ARC
  5
481
330
1F
100
AcDbEntity
  8
Multi-Layer
100
AcDbCircle
 10
111.9477520955042
 20
190.6573533147066
 30
0.0
 40
1.5500127000254
100
AcDbArc
 50
270.0
 51
90.0
  0
LWPOLYLINE
  5
482
330
1F
100
AcDbEntity
  8
Multi-Layer
100
AcDbPolyline
 90
        3
 70
     1
 43
0.0
 10
111.9477520955042
 20
192.2073660147321
 10
111.9477520955042
 20
192.2073660147321
 10
111.7927609855219
 20
192.2073660147321
  0
LWPOLYLINE
  5
483
330
1F
100
AcDbEntity
  8
Multi-Layer
100
AcDbPolyline
 90
        3
 70
     1
 43
0.0
 10
111.9477520955042
 20
189.1073406146813
 10
111.9477520955042
 20
189.1073406146813
 10
111.7927609855219
 20
189.1073406146813
  0
CIRCLE
  5
47F
330
1F
100
AcDbEntity
  8
Multi-Layer
100
AcDbCircle
 10
111.8704597409196
 20
190.6573533147066
 30
0.0
 40
2.0
  0
ARC
  5
486
330
1F
100
AcDbEntity
  8
TopSolderMaskLayer
100
AcDbCircle
 10
79.78672342505979
 20
190.6573533147066
 30
0.0
 40
1.589383101346848
100
AcDbArc
 50
90.0
 51
270.0
  0
ARC
  5
487
330
1F
100
AcDbEntity
  8
TopSolderMaskLayer
100
AcDbCircle
 10
79.94565131710896
 20
190.6573533147066
 30
0.0
 40
1.589383101346848
100
AcDbArc
 50
270.0
 51
90.0
  0
LWPOLYLINE
  5
488
330
1F
100
AcDbEntity
  8
TopSolderMaskLayer
100
AcDbPolyline
 90
        3
 70
     1
 43
0.0
 10
79.94565131710896
 20
192.2467364160536
 10
79.94565131710896
 20
192.2467364160536
 10
79.78672342505979
 20
192.2467364160536
  0
LWPOLYLINE
  5
489
330
1F
100
AcDbEntity
  8
TopSolderMaskLayer
100
AcDbPolyline
 90
        3
 70
     1
 43
0.0
 10
79.94565131710896
 20
189.0679702133598
 10
79.94565131710896
 20
189.0679702133598
 10
79.78672342505979
 20
189.0679702133598
  0
CIRCLE
  5
485
330
1F
100
AcDbEntity
  8
TopSolderMaskLayer
100
AcDbCircle
 10
79.86639573279147
 20
190.6573533147066
 30
0.0
 40
2.050800101600203
  0
HATCH
  5
48A
330
1F
100
AcDbEntity
  8
TopSolderMaskLayer
100
AcDbHatch
 10
0.0
 20
0.0
 30
0.0
210
0.0
220
0.0
230
1.0
  2
SOLID
 70
     1
 71
     0
 91
        1
 92
        7
 72
     1
 73
     1
 93
        2
 10
77.8155956311913
 20
190.6573533147066
 42
1.0
 10
81.91719583439169
 20
190.6573533147066
 42
1.0
 97
        0
 75
     0
 76
     1
 47
0.8681437583925616
 98
        1
 10
3.629517071192366
 20
33.92795499968543
450
        0
451
        0
460
0.0
461
0.0
452
        1
462
1.0
453
        2
463
0.0
 63
     5
421
      255
463
1.0
 63
     7
421
 16777215
470
LINEAR
1001
ACAD
1010
0.0
1020
0.0
1030
0.0
  0
ARC
  5
48D
330
1F
100
AcDbEntity
  8
BottomSolderMaskLayer
100
AcDbCircle
 10
79.78672342505979
 20
190.6573533147066
 30
0.0
 40
1.589383101346848
100
AcDbArc
 50
90.0
 51
270.0
  0
ARC
  5
48E
330
1F
100
AcDbEntity
  8
BottomSolderMaskLayer
100
AcDbCircle
 10
79.94565131710896
 20
190.6573533147066
 30
0.0
 40
1.589383101346848
100
AcDbArc
 50
270.0
 51
90.0
  0
LWPOLYLINE
  5
48F
330
1F
100
AcDbEntity
  8
BottomSolderMaskLayer
100
AcDbPolyline
 90
        3
 70
     1
 43
0.0
 10
79.94565131710896
 20
192.2467364160536
 10
79.94565131710896
 20
192.2467364160536
 10
79.78672342505979
 20
192.2467364160536
  0
LWPOLYLINE
  5
490
330
1F
100
AcDbEntity
  8
BottomSolderMaskLayer
100
AcDbPolyline
 90
        3
 70
     1
 43
0.0
 10
79.94565131710896
 20
189.0679702133598
 10
79.94565131710896
 20
189.0679702133598
 10
79.78672342505979
 20
189.0679702133598
  0
CIRCLE
  5
48C
330
1F
100
AcDbEntity
  8
BottomSolderMaskLayer
100
AcDbCircle
 10
79.86639573279147
 20
190.6573533147066
 30
0.0
 40
2.050800101600203
  0
HATCH
  5
491
330
1F
100
AcDbEntity
  8
BottomSolderMaskLayer
100
AcDbHatch
 10
0.0
 20
0.0
 30
0.0
210
0.0
220
0.0
230
1.0
  2
SOLID
 70
     1
 71
     0
 91
        1
 92
        7
 72
     1
 73
     1
 93
        2
 10
77.8155956311913
 20
190.6573533147066
 42
1.0
 10
81.91719583439169
 20
190.6573533147066
 42
1.0
 97
        0
 75
     0
 76
     1
 47
0.8681437583925616
 98
        1
 10
3.629517071192366
 20
33.92795499968543
450
        0
451
        0
460
0.0
461
0.0
452
        1
462
1.0
453
        2
463
0.0
 63
     5
421
      255
463
1.0
 63
     7
421
 16777215
470
LINEAR
1001
ACAD
1010
0.0
1020
0.0
1030
0.0
  0
ARC
  5
494
330
1F
100
AcDbEntity
  8
Multi-Layer
100
AcDbCircle
 10
79.78869697739402
 20
190.6573533147066
 30
0.0
 40
1.5500127000254
100
AcDbArc
 50
90.0
 51
270.0
  0
ARC
  5
495
330
1F
100
AcDbEntity
  8
Multi-Layer
100
AcDbCircle
 10
79.94368808737613
 20
190.6573533147066
 30
0.0
 40
1.5500127000254
100
AcDbArc
 50
270.0
 51
90.0
  0
LWPOLYLINE
  5
496
330
1F
100
AcDbEntity
  8
Multi-Layer
100
AcDbPolyline
 90
        3
 70
     1
 43
0.0
 10
79.94368808737613
 20
192.2073660147321
 10
79.94368808737613
 20
192.2073660147321
 10
79.78869697739402
 20
192.2073660147321
  0
LWPOLYLINE
  5
497
330
1F
100
AcDbEntity
  8
Multi-Layer
100
AcDbPolyline
 90
        3
 70
     1
 43
0.0
 10
79.94368808737613
 20
189.1073406146813
 10
79.94368808737613
 20
189.1073406146813
 10
79.78869697739402
 20
189.1073406146813
  0
CIRCLE
  5
493
330
1F
100
AcDbEntity
  8
Multi-Layer
100
AcDbCircle
 10
79.86639573279147
 20
190.6573533147066
 30
0.0
 40
2.0
  0
ARC
  5
49A
330
1F
100
AcDbEntity
  8
TopSolderMaskLayer
100
AcDbCircle
 10
79.78672342505979
 20
158.6532893065787
 30
0.0
 40
1.589383101346848
100
AcDbArc
 50
90.0
 51
270.0
  0
ARC
  5
49B
330
1F
100
AcDbEntity
  8
TopSolderMaskLayer
100
AcDbCircle
 10
79.94565131710896
 20
158.6532893065787
 30
0.0
 40
1.589383101346848
100
AcDbArc
 50
270.0
 51
90.0
  0
LWPOLYLINE
  5
49C
330
1F
100
AcDbEntity
  8
TopSolderMaskLayer
100
AcDbPolyline
 90
        3
 70
     1
 43
0.0
 10
79.94565131710896
 20
160.2426724079255
 10
79.94565131710896
 20
160.2426724079255
 10
79.78672342505979
 20
160.2426724079255
  0
LWPOLYLINE
  5
49D
330
1F
100
AcDbEntity
  8
TopSolderMaskLayer
100
AcDbPolyline
 90
        3
 70
     1
 43
0.0
 10
79.94565131710896
 20
157.0639062052319
 10
79.94565131710896
 20
157.0639062052319
 10
79.78672342505979
 20
157.0639062052319
  0
CIRCLE
  5
499
330
1F
100
AcDbEntity
  8
TopSolderMaskLayer
100
AcDbCircle
 10
79.86639573279147
 20
158.6532893065787
 30
0.0
 40
2.050800101600203
  0
HATCH
  5
49E
330
1F
100
AcDbEntity
  8
TopSolderMaskLayer
100
AcDbHatch
 10
0.0
 20
0.0
 30
0.0
210
0.0
220
0.0
230
1.0
  2
SOLID
 70
     1
 71
     0
 91
        1
 92
        7
 72
     1
 73
     1
 93
        2
 10
77.8155956311913
 20
158.6532893065787
 42
1.0
 10
81.91719583439169
 20
158.6532893065787
 42
1.0
 97
        0
 75
     0
 76
     1
 47
0.8681437583925616
 98
        1
 10
3.629517071192366
 20
33.92795499968543
450
        0
451
        0
460
0.0
461
0.0
452
        1
462
1.0
453
        2
463
0.0
 63
     5
421
      255
463
1.0
 63
     7
421
 16777215
470
LINEAR
1001
ACAD
1010
0.0
1020
0.0
1030
0.0
  0
ARC
  5
4A1
330
1F
100
AcDbEntity
  8
BottomSolderMaskLayer
100
AcDbCircle
 10
79.78672342505979
 20
158.6532893065787
 30
0.0
 40
1.589383101346848
100
AcDbArc
 50
90.0
 51
270.0
  0
ARC
  5
4A2
330
1F
100
AcDbEntity
  8
BottomSolderMaskLayer
100
AcDbCircle
 10
79.94565131710896
 20
158.6532893065787
 30
0.0
 40
1.589383101346848
100
AcDbArc
 50
270.0
 51
90.0
  0
LWPOLYLINE
  5
4A3
330
1F
100
AcDbEntity
  8
BottomSolderMaskLayer
100
AcDbPolyline
 90
        3
 70
     1
 43
0.0
 10
79.94565131710896
 20
160.2426724079255
 10
79.94565131710896
 20
160.2426724079255
 10
79.78672342505979
 20
160.2426724079255
  0
LWPOLYLINE
  5
4A4
330
1F
100
AcDbEntity
  8
BottomSolderMaskLayer
100
AcDbPolyline
 90
        3
 70
     1
 43
0.0
 10
79.94565131710896
 20
157.0639062052319
 10
79.94565131710896
 20
157.0639062052319
 10
79.78672342505979
 20
157.0639062052319
  0
CIRCLE
  5
4A0
330
1F
100
AcDbEntity
  8
BottomSolderMaskLayer
100
AcDbCircle
 10
79.86639573279147
 20
158.6532893065787
 30
0.0
 40
2.050800101600203
  0
HATCH
  5
4A5
330
1F
100
AcDbEntity
  8
BottomSolderMaskLayer
100
AcDbHatch
 10
0.0
 20
0.0
 30
0.0
210
0.0
220
0.0
230
1.0
  2
SOLID
 70
     1
 71
     0
 91
        1
 92
        7
 72
     1
 73
     1
 93
        2
 10
77.8155956311913
 20
158.6532893065787
 42
1.0
 10
81.91719583439169
 20
158.6532893065787
 42
1.0
 97
        0
 75
     0
 76
     1
 47
0.8681437583925616
 98
        1
 10
3.629517071192366
 20
33.92795499968543
450
        0
451
        0
460
0.0
461
0.0
452
        1
462
1.0
453
        2
463
0.0
 63
     5
421
      255
463
1.0
 63
     7
421
 16777215
470
LINEAR
1001
ACAD
1010
0.0
1020
0.0
1030
0.0
  0
ARC
  5
4A8
330
1F
100
AcDbEntity
  8
Multi-Layer
100
AcDbCircle
 10
79.78869697739402
 20
158.6532893065787
 30
0.0
 40
1.5500127000254
100
AcDbArc
 50
90.0
 51
270.0
  0
ARC
  5
4A9
330
1F
100
AcDbEntity
  8
Multi-Layer
100
AcDbCircle
 10
79.94368808737613
 20
158.6532893065787
 30
0.0
 40
1.5500127000254
100
AcDbArc
 50
270.0
 51
90.0
  0
LWPOLYLINE
  5
4AA
330
1F
100
AcDbEntity
  8
Multi-Layer
100
AcDbPolyline
 90
        3
 70
     1
 43
0.0
 10
79.94368808737613
 20
160.2033020066041
 10
79.94368808737613
 20
160.2033020066041
 10
79.78869697739402
 20
160.2033020066041
  0
LWPOLYLINE
  5
4AB
330
1F
100
AcDbEntity
  8
Multi-Layer
100
AcDbPolyline
 90
        3
 70
     1
 43
0.0
 10
79.94368808737613
 20
157.1032766065533
 10
79.94368808737613
 20
157.1032766065533
 10
79.78869697739402
 20
157.1032766065533
  0
CIRCLE
  5
4A7
330
1F
100
AcDbEntity
  8
Multi-Layer
100
AcDbCircle
 10
79.86639573279147
 20
158.6532893065787
 30
0.0
 40
2.0
  0
CIRCLE
  5
4C6
330
1F
100
AcDbEntity
  8
Multi-Layer
100
AcDbCircle
 10
148.4328168656339
 20
163.7332994665989
 30
0.0
 40
1.5500127000254
  0
CIRCLE
  5
4C7
330
1F
100
AcDbEntity
  8
Multi-Layer
100
AcDbCircle
 10
121.5224790449581
 20
163.7332994665989
 30
0.0
 40
1.5500127000254
  0
CIRCLE
  5
4C8
330
1F
100
AcDbEntity
  8
Multi-Layer
100
AcDbCircle
 10
155.4208788417577
 20
195.6223012446025
 30
0.0
 40
1.5500127000254
  0
CIRCLE
  5
4C9
330
1F
100
AcDbEntity
  8
Multi-Layer
100
AcDbCircle
 10
155.4307848615697
 20
128.3423926847854
 30
0.0
 40
1.5500127000254
  0
CIRCLE
  5
4CA
330
1F
100
AcDbEntity
  8
Multi-Layer
100
AcDbCircle
 10
36.32054864109728
 20
128.3421386842774
 30
0.0
 40
1.5500127000254
  0
CIRCLE
  5
4CB
330
1F
100
AcDbEntity
  8
Multi-Layer
100
AcDbCircle
 10
36.32054864109728
 20
195.6220472440945
 30
0.0
 40
1.5500127000254
  0
CIRCLE
  5
4CC
330
1F
100
AcDbEntity
  8
Multi-Layer
100
AcDbCircle
 10
144.7528575057149
 20
184.9931419862841
 30
0.0
 40
1.3
  0
CIRCLE
  5
4CD
330
1F
100
AcDbEntity
  8
Multi-Layer
100
AcDbCircle
 10
125.2527305054609
 20
184.9931419862841
 30
0.0
 40
1.3
  0
HATCH
  5
4CF
330
1F
100
AcDbEntity
  8
TopSilkLayer
100
AcDbHatch
 10
0.0
 20
0.0
 30
0.0
210
0.0
220
0.0
230
1.0
  2
SOLID
 70
     1
 71
     0
 91
        1
 92
        7
 72
     0
 73
     1
 93
       50
 10
119.8517399034799
 20
171.5546863093727
 10
128.0024892049784
 20
171.5546863093727
 10
128.0024892049784
 20
173.7671069342138
 10
121.1882143764292
 20
173.7671069342138
 10
121.1780419006568
 20
173.7657732820424
 10
121.1685620640828
 20
173.761850197799
 10
121.1604219606977
 20
173.7556054713574
 10
121.1541772342559
 20
173.7474653679723
 10
121.1502541500126
 20
173.7379855313983
 10
121.1489204978411
 20
173.7278130556261
 10
121.09672482161
 20
173.7267627723157
 10
121.0446137699789
 20
173.7236115804481
 10
120.9926718714819
 20
173.7183645915228
 10
120.9409833802713
 20
173.7110303165999
 10
120.8896321394522
 20
173.7016206524937
 10
120.8387014450804
 20
173.690150862475
 10
120.7882739110503
 20
173.6766395515135
 10
120.7384313350871
 20
173.6611086360986
 10
120.6892545660653
 20
173.6435833086885
 10
120.6408233728634
 20
173.6240919968469
 10
120.5932163149737
 20
173.6026663171299
 10
120.5465106150702
 20
173.5793410238026
 10
120.5007820337493
 20
173.5541539524634
 10
120.4561047466377
 20
173.5271459586726
 10
120.4125512240739
 20
173.4983608516808
 10
120.3701921135553
 20
173.4678453233657
 10
120.329096125142
 20
173.4356488724958
 10
120.2893299200038
 20
173.4018237244376
 10
120.2509580022885
 20
173.3664247464422
 10
120.2140426144928
 20
173.3295093586462
 10
120.1786436364973
 20
173.2911374409309
 10
120.1448184884391
 20
173.2513712357926
 10
120.112622037569
 20
173.2102752473795
 10
120.0821065092541
 20
173.1679161368609
 10
120.0533214022621
 20
173.1243626142971
 10
120.0263134084714
 20
173.0796853271854
 10
120.001126337132
 20
173.0339567458645
 10
119.9778010438049
 20
172.9872510459613
 10
119.956375364088
 20
172.9396439880714
 10
119.9368840522461
 20
172.8912127948696
 10
119.9193587248362
 20
172.8420360258477
 10
119.9038278094213
 20
172.7921934498844
 10
119.8903164984599
 20
172.7417659158543
 10
119.8788467084414
 20
172.6908352214825
 10
119.8694370443347
 20
172.6394839806634
 10
119.8621027694118
 20
172.5877954894529
 10
119.8568557804867
 20
172.5358535909557
 10
119.8537045886191
 20
172.483742539325
 10
119.8526543053087
 20
172.4315468630938
 10
119.8526543053087
 20
172.1161036322073
 97
        0
 75
     0
 76
     1
 47
0.4128176842155181
 98
        1
 10
34.90568961886538
 20
22.81183545379326
450
        0
451
        0
460
0.0
461
0.0
452
        1
462
1.0
453
        2
463
0.0
 63
     5
421
      255
463
1.0
 63
     7
421
 16777215
470
LINEAR
1001
ACAD
1010
0.0
1020
0.0
1030
0.0
  0
HATCH
  5
4D1
330
1F
100
AcDbEntity
  8
TopSilkLayer
100
AcDbHatch
 10
0.0
 20
0.0
 30
0.0
210
0.0
220
0.0
230
1.0
  2
SOLID
 70
     1
 71
     0
 91
        1
 92
        7
 72
     0
 73
     1
 93
       50
 10
150.0426212852426
 20
171.5352298704597
 10
141.8917703835409
 20
171.5352298704597
 10
141.8917703835409
 20
173.7474980949963
 10
148.7061468122938
 20
173.7474980949963
 10
148.7163274797953
 20
173.7461622683361
 10
148.7258138171774
 20
173.7422329138445
 10
148.7339572253
 20
173.735978689049
 10
148.7402009236807
 20
173.7278272073327
 10
148.7441180186479
 20
173.7183358011849
 10
148.7454406908814
 20
173.7081534163069
 10
148.797633113433
 20
173.7071032642011
 10
148.8497409272216
 20
173.7039524653487
 10
148.9016796195076
 20
173.6987061299746
 10
148.9533649518464
 20
173.6913727670172
 10
149.0047130967134
 20
173.6819642703278
 10
149.0556407734623
 20
173.6704958993807
 10
149.1060653833967
 20
173.6569862545231
 10
149.1559051437359
 20
173.6414572468089
 10
149.2050792202551
 20
173.6239340624605
 10
149.2535078583915
 20
173.6044451220199
 10
149.3011125125947
 20
173.5830220342542
 10
149.3478159737203
 20
173.55969954489
 10
149.3935424942517
 20
173.5345154802594
 10
149.438217911156
 20
173.5075106859506
 10
149.481769766166
 20
173.4787289605607
 10
149.5241274233001
 20
173.4482169846602
 10
149.5652221834245
 20
173.4160242450823
 10
149.6049873956763
 20
173.3822029546604
 10
149.6433585655625
 20
173.3468079675465
 10
149.6802734595626
 20
173.3098966902427
 10
149.715672206064
 20
173.2715289884954
 10
149.7494973924672
 20
173.2317670902005
 10
149.7816941583019
 20
173.1906754844758
 10
149.8122102842039
 20
173.1483208170689
 10
149.84099627661
 20
173.1047717822637
 10
149.868005448028
 20
173.0600990114686
 10
149.8931939927629
 20
173.0143749586585
 10
149.9165210579594
 20
172.9676737828645
 10
149.9379488098646
 20
172.9200712278958
 10
149.9574424951865
 20
172.8716444994932
 10
149.9749704974631
 20
172.8224721401086
 10
149.9905043883375
 20
172.7726339015209
 10
150.0040189736678
 20
172.7222106154857
 10
150.0154923343876
 20
172.6712840626372
 10
150.0249058620561
 20
172.619936839849
 10
150.0322442890399
 20
172.5682522262717
 10
150.0374957132744
 20
172.5163140482642
 10
150.0406516175674
 20
172.4642065434368
 10
150.0417068834138
 20
172.4120142240284
 10
150.0417068834138
 20
172.0964947929897
 97
        0
 75
     0
 76
     1
 47
0.4128176842155181
 98
        1
 10
34.90568961886538
 20
22.81183545379326
450
        0
451
        0
460
0.0
461
0.0
452
        1
462
1.0
453
        2
463
0.0
 63
     5
421
      255
463
1.0
 63
     7
421
 16777215
470
LINEAR
1001
ACAD
1010
0.0
1020
0.0
1030
0.0
  0
HATCH
  5
4D3
330
1F
100
AcDbEntity
  8
TopSilkLayer
100
AcDbHatch
 10
0.0
 20
0.0
 30
0.0
210
0.0
220
0.0
230
1.0
  2
SOLID
 70
     1
 71
     0
 91
        1
 92
        7
 72
     0
 73
     1
 93
       50
 10
150.0326898653798
 20
192.272948945898
 10
141.8817119634241
 20
192.272948945898
 10
141.8817119634241
 20
194.485267970536
 10
148.696088392177
 20
194.4852679705361
 10
148.7062567767202
 20
194.4839354102754
 10
148.715733367316
 20
194.4800154623489
 10
148.7238718208668
 20
194.4737754835933
 10
148.7301170608154
 20
194.4656410666473
 10
148.7340431356881
 20
194.4561670127545
 10
148.7353822707643
 20
194.4459994919988
 10
148.7875739600426
 20
194.4449452751332
 10
148.8396808790726
 20
194.4417904705243
 10
148.891618518674
 20
194.4365401947667
 10
148.9433026442114
 20
194.4292029629765
 10
148.9946494322088
 20
194.4197906749838
 10
149.0455756062983
 20
194.4083185960302
 10
149.0959985722814
 20
194.3948053320133
 10
149.1458365520831
 20
194.3792727993097
 10
149.1950087163841
 20
194.3617461892305
 10
149.2434353157118
 20
194.3422539271648
 10
149.2910378097831
 20
194.3208276264782
 10
149.3377389948823
 20
194.2975020372413
 10
149.3834631290744
 20
194.2723149898697
 10
149.4281360550466
 20
194.2453073337704
 10
149.4716853203799
 20
194.2165228710893
 10
149.5140402950546
 20
194.1860082856715
 10
149.5551322860015
 20
194.1538130673476
 10
149.5948946485118
 20
194.1199894316691
 10
149.633262894323
 20
194.0845922352223
 10
149.6701747962097
 20
194.047678886661
 10
149.7055704889062
 20
194.0093092535972
 10
149.7393925661977
 20
193.9695455655062
 10
149.771586174025
 20
193.9284523128001
 10
149.8020990994489
 20
193.8860961422346
 10
149.8308818553312
 20
193.8425457488181
 10
149.8578877605946
 20
193.7978717643997
 10
149.8830730159327
 20
193.7521466431154
 10
149.9063967748455
 20
193.7054445438788
 10
149.927821209885
 20
193.6578412101076
 10
149.947311574007
 20
193.6094138468787
 10
149.964836256924
 20
193.560240995715
 10
149.9803668363722
 20
193.5104024072025
 10
149.9938781242088
 20
193.4599789116482
 10
150.0053482072619
 20
193.4090522879859
 10
150.0147584828712
 20
193.3577051311428
 10
150.0220936890585
 20
193.3060207180853
 10
150.0273419292791
 20
193.2540828727555
 10
150.0304946917183
 20
193.2019758301229
 10
150.0315468630936
 20
193.1497840995681
 10
150.0315468630938
 20
192.8342646685295
 97
        0
 75
     0
 76
     1
 47
0.4128176842155181
 98
        1
 10
34.90568961886538
 20
22.81183545379326
450
        0
451
        0
460
0.0
461
0.0
452
        1
462
1.0
453
        2
463
0.0
 63
     5
421
      255
463
1.0
 63
     7
421
 16777215
470
LINEAR
1001
ACAD
1010
0.0
1020
0.0
1030
0.0
  0
HATCH
  5
4D5
330
1F
100
AcDbEntity
  8
TopSilkLayer
100
AcDbHatch
 10
0.0
 20
0.0
 30
0.0
210
0.0
220
0.0
230
1.0
  2
SOLID
 70
     1
 71
     0
 91
        1
 92
        7
 72
     0
 73
     1
 93
       50
 10
119.8415798831599
 20
192.2924561849124
 10
127.9924307848616
 20
192.2924561849124
 10
127.9924307848616
 20
194.5048006096014
 10
121.1781559563123
 20
194.5048006096015
 10
121.1679875717688
 20
194.5034680493408
 10
121.1585109811731
 20
194.4995481014142
 10
121.1503725276225
 20
194.4933081226586
 10
121.1441272876736
 20
194.4851737057125
 10
121.140201212801
 20
194.4756996518199
 10
121.1388620777243
 20
194.4655321310643
 10
121.0866704090756
 20
194.4644768914825
 10
121.0345635518372
 20
194.4613210658161
 10
120.9826260150887
 20
194.4560697723151
 10
120.9309420332999
 20
194.448731527747
 10
120.8795954297129
 20
194.4393182335836
 10
120.8286694803973
 20
194.427845156699
 10
120.7782467791869
 20
194.4143309046092
 10
120.728409103727
 20
194.3987973952933
 10
120.6792372828442
 20
194.3812698216461
 10
120.6308110654533
 20
194.3617766106198
 10
120.5832089912189
 20
194.3403493771191
 10
120.5365082631758
 20
194.3170228727272
 10
120.4907846225173
 20
194.2918349293445
 10
120.4461122257562
 20
194.264826397831
 10
120.4025635244536
 20
194.2360410817522
 10
120.3602091477141
 20
194.2055256663376
 10
120.3191177876372
 20
194.1733296427641
 10
120.2793560879092
 20
194.139505227889
 10
120.2409885357174
 20
194.1041072795628
 10
120.204077357162
 20
194.0671932076584
 10
120.1686824163364
 20
194.0288228809612
 10
120.1348611182354
 20
193.9890585300716
 10
120.1026683156547
 20
193.9479646464767
 10
120.0721562202279
 20
193.9056078779555
 10
120.043374317747
 20
193.8620569204861
 10
120.0163692879055
 20
193.8173824068329
 10
119.9911849285895
 20
193.7716567919901
 10
119.9678620848465
 20
193.724954235672
 10
119.9464385826395
 20
193.6773504820374
 10
119.9269491675004
 20
193.6289227368447
 10
119.9094254481779
 20
193.5797495422363
 10
119.8938958453725
 20
193.5299106493552
 10
119.8803855456435
 20
193.4794868890022
 10
119.8689164605598
 20
193.4285600405404
 10
119.8595071911636
 20
193.3772126992622
 10
119.852172997801
 20
193.3255281424332
 10
119.8469257753741
 20
193.2735901942285
 10
119.8437740340468
 20
193.2214830897848
 10
119.8427228854459
 20
193.1692913385827
 10
119.8427228854459
 20
192.8537973075947
 97
        0
 75
     0
 76
     1
 47
0.4128176842155181
 98
        1
 10
34.90568961886538
 20
22.81183545379326
450
        0
451
        0
460
0.0
461
0.0
452
        1
462
1.0
453
        2
463
0.0
 63
     5
421
      255
463
1.0
 63
     7
421
 16777215
470
LINEAR
1001
ACAD
1010
0.0
1020
0.0
1030
0.0
  0
HATCH
  5
4D7
330
1F
100
AcDbEntity
  8
TopSilkLayer
100
AcDbHatch
 10
0.0
 20
0.0
 30
0.0
210
0.0
220
0.0
230
1.0
  2
SOLID
 70
     1
 71
     0
 91
        1
 92
        7
 72
     0
 73
     1
 93
       13
 10
34.58704597409202
 20
188.0845313690628
 10
34.7002286004572
 20
188.2113538227077
 10
34.71737363474745
 20
188.210439420879
 10
37.90711201422414
 20
191.2945135890272
 10
37.90711201422414
 20
188.074472948946
 10
37.87706375412768
 20
188.0444754889509
 10
41.34706629413267
 20
188.0444754889509
 10
37.98704597409211
 20
184.6843535687072
 10
37.98704597409211
 20
187.9344932689865
 10
37.87706375412768
 20
188.0444754889509
 10
37.86703073406171
 20
188.0444754889509
 10
34.75712471424959
 20
187.9743713487428
 10
34.58704597409202
 20
188.0845313690628
 97
        0
 75
     0
 76
     1
 47
0.4128176842155181
 98
        1
 10
34.90568961886538
 20
22.81183545379326
450
        0
451
        0
460
0.0
461
0.0
452
        1
462
1.0
453
        2
463
0.0
 63
     5
421
      255
463
1.0
 63
     7
421
 16777215
470
LINEAR
1001
ACAD
1010
0.0
1020
0.0
1030
0.0
  0
LWPOLYLINE
  5
4D8
330
1F
100
AcDbEntity
  8
Multi-Layer
100
AcDbPolyline
 90
      472
 70
     1
 43
0.0
 10
76.8681991363983
 20
174.6553213106426
 10
76.86992633985278
 20
174.402413004826
 10
76.87493014986035
 20
174.1495300990602
 10
76.88328676657374
 20
173.8967487934976
 10
76.89514859029738
 20
173.6440944881891
 10
76.9102362204726
 20
173.3916179832361
 10
76.92872745745512
 20
173.1393700787402
 10
76.95067310134641
 20
172.8874015748032
 10
76.97579375158763
 20
172.6357378714758
 10
77.00434340868695
 20
172.3844297688596
 10
77.03632207264424
 20
172.1335280670562
 10
77.07150114300247
 20
171.8830835661672
 10
77.11010922021866
 20
171.6330962661926
 10
77.15201930403873
 20
171.3836677673356
 10
77.19712979425981
 20
171.134823469647
 10
77.2456692913388
 20
170.8865887731775
 10
77.29751079502171
 20
170.6390398780797
 10
77.35267970535959
 20
170.3922021844045
 10
77.41104902209826
 20
170.1461010922023
 10
77.47272034544085
 20
169.9008128016256
 10
77.5375920751842
 20
169.6563627127254
 10
77.60576581153168
 20
169.4128016256034
 10
77.67713995427993
 20
169.1701549403098
 10
77.75184150368318
 20
168.9284988569977
 10
77.82961645923297
 20
168.6878587757176
 10
77.9106934213869
 20
168.4482600965202
 10
77.99486918973844
 20
168.2097790195581
 10
78.08224536449074
 20
167.9724155448312
 10
78.17282194564405
 20
167.7362458724917
 10
78.26647193294388
 20
167.5013208026416
 10
78.36332232664472
 20
167.2676403352808
 10
78.46311912623832
 20
167.0352806705614
 10
78.56614173228354
 20
166.8042672085345
 10
78.67213614427237
 20
166.5746507493015
 10
78.78120396240797
 20
166.3464566929134
 10
78.89334518669055
 20
166.1197358394717
 10
79.00848361696739
 20
165.894538989078
 10
79.126568453137
 20
165.6708915417831
 10
79.24775209550421
 20
165.4488442976886
 10
79.37178054356127
 20
165.2283972567946
 10
79.49865379730773
 20
165.0096520193041
 10
79.62852425704864
 20
164.7926085852173
 10
79.76123952247917
 20
164.5772923545847
 10
79.89679959359932
 20
164.3637795275591
 10
80.0352044704091
 20
164.152095504191
 10
80.17647955295911
 20
163.9422656845314
 10
80.32039624079265
 20
163.7343408686818
 10
80.46715773431559
 20
163.5283464566929
 10
80.61666243332501
 20
163.3243078486157
 10
80.76888493777003
 20
163.1223012446025
 10
80.92374904749819
 20
162.9223266446533
 10
81.08125476250961
 20
162.7244348488698
 10
81.24137668275354
 20
162.5286512573025
 10
81.40401320802652
 20
162.3350266700533
 10
81.56939293878599
 20
162.143586487173
 10
81.7371602743208
 20
161.9543561087123
 10
81.90744221488444
 20
161.7673609347218
 10
82.08023876047764
 20
161.5826771653543
 10
82.25554991109992
 20
161.4003048006096
 10
82.43314706629417
 20
161.2202692405385
 10
82.61325882651773
 20
161.0426212852427
 10
82.79552959105922
 20
160.8673863347727
 10
82.98021336042689
 20
160.6945897891796
 10
83.16728473456965
 20
160.5242570485142
 10
83.35651511303035
 20
160.3564389128779
 10
83.54792989585984
 20
160.1911607823216
 10
83.74152908305838
 20
160.0284480568962
 10
83.9372872745746
 20
159.8683261366524
 10
84.135204470409
 20
159.7108204216409
 10
84.33517907035819
 20
159.5559563119127
 10
84.5372110744222
 20
159.4037592075184
 10
84.74119888239783
 20
159.2542799085599
 10
84.94721869443742
 20
159.1075438150876
 10
85.15519431038866
 20
158.9635509271019
 10
85.36499872999751
 20
158.8223266446533
 10
85.57663195326403
 20
158.6839217678437
 10
85.79019558039135
 20
158.5483362966727
 10
86.00548641097294
 20
158.4155956311914
 10
86.22260604521216
 20
158.2857505715011
 10
86.44130048260105
 20
158.1588011176023
 10
86.6617221234444
 20
158.0347980695962
 10
86.88374396748804
 20
157.9137160274321
 10
87.10749301498619
 20
157.7956057912116
 10
87.33271526543058
 20
157.6804673609348
 10
87.55941071882148
 20
157.568351536703
 10
87.78760477520973
 20
157.4592583185167
 10
88.01717043434107
 20
157.3532131064263
 10
88.24820929641875
 20
157.2502413004827
 10
88.48049276098574
 20
157.1503683007366
 10
88.7141732283467
 20
157.0535687071375
 10
88.94909829819678
 20
156.9598933197867
 10
89.18529337058679
 20
156.8693675387352
 10
89.42273304546619
 20
156.7819913639828
 10
89.66118872237757
 20
156.6977647955297
 10
89.90081280162575
 20
156.6167386334773
 10
90.14145288290592
 20
156.538887477775
 10
90.38310896621807
 20
156.4642621285243
 10
90.62567945135901
 20
156.3928625857252
 10
90.8692913385828
 20
156.3246888493777
 10
91.11371602743224
 20
156.2597663195326
 10
91.35902971805968
 20
156.1981203962409
 10
91.60513081026172
 20
156.1397256794514
 10
91.85194310388624
 20
156.0846075692152
 10
92.0995427990856
 20
156.032791465583
 10
92.34772669545348
 20
155.9842773685548
 10
92.59659639319284
 20
155.9390906781815
 10
92.84602489204983
 20
155.8971805943612
 10
93.0960375920754
 20
155.8586233172467
 10
93.34638049276122
 20
155.8233680467361
 10
93.59728219456451
 20
155.791490982982
 10
93.84866649733316
 20
155.7629159258319
 10
94.10025400050811
 20
155.7377190754382
 10
94.35232410464823
 20
155.7158496316993
 10
94.60449580899171
 20
155.6973583947168
 10
94.85702311404635
 20
155.68221996444
 10
95.10965201930412
 20
155.6704343408687
 10
95.36238252476506
 20
155.6620269240539
 10
95.6153670307342
 20
155.6569723139447
 10
95.86822453644913
 20
155.6552705105411
 10
96.12108204216429
 20
155.6569723139447
 10
96.37404114808235
 20
155.6620269240539
 10
96.62679705359416
 20
155.6704343408687
 10
96.87942595885216
 20
155.68221996444
 10
97.13192786385572
 20
155.6973583947168
 10
97.38422656845321
 20
155.7158496316993
 10
97.63616967233952
 20
155.7377190754382
 10
97.88778257556533
 20
155.7629159258319
 10
98.13914147828313
 20
155.791490982982
 10
98.39006858013727
 20
155.8233680467361
 10
98.64041148082311
 20
155.8586233172467
 10
98.89042418084841
 20
155.8971805943612
 10
99.13985267970543
 20
155.9390906781815
 10
99.38869697739416
 20
155.9842773685548
 10
99.63700787401579
 20
156.032791465583
 10
99.88448056896118
 20
156.0846075692152
 10
100.1312928625859
 20
156.1397256794514
 10
100.3774193548388
 20
156.1981203962409
 10
100.6227330454662
 20
156.2597663195326
 10
100.8671323342648
 20
156.3246888493777
 10
101.1107442214886
 20
156.3928625857252
 10
101.3534417068836
 20
156.4642621285243
 10
101.5949961899925
 20
156.538887477775
 10
101.8356362712727
 20
156.6167386334773
 10
102.0752349504701
 20
156.6977647955297
 10
102.3137160274323
 20
156.7819913639828
 10
102.5511557023114
 20
156.8693675387352
 10
102.7873253746508
 20
156.9598933197867
 10
103.0222504445009
 20
157.0535687071375
 10
103.2559309118619
 20
157.1503683007366
 10
103.4882397764797
 20
157.2502413004827
 10
103.7192786385574
 20
157.3532131064263
 10
103.9488442976887
 20
157.4592583185167
 10
104.1770383540768
 20
157.568351536703
 10
104.4038354076708
 20
157.6804673609348
 10
104.6289560579123
 20
157.7956057912116
 10
104.8526797053596
 20
157.9137160274321
 10
105.0747015494032
 20
158.0347980695962
 10
105.2951231902464
 20
158.1588011176023
 10
105.5138430276861
 20
158.2857505715011
 10
105.7309626619255
 20
158.4155956311914
 10
105.9462280924563
 20
158.5483362966727
 10
106.1598171196344
 20
158.6839217678437
 10
106.3714249428499
 20
158.8223266446533
 10
106.5812293624587
 20
158.9635509271019
 10
106.78920497841
 20
159.1075438150876
 10
106.9952501905004
 20
159.2542799085599
 10
107.1992125984252
 20
159.4037592075184
 10
107.40127000254
 20
159.5559563119127
 10
107.6012446024892
 20
159.7108204216409
 10
107.7991617983237
 20
159.8683261366524
 10
107.9949199898401
 20
160.0284480568962
 10
108.1884937769876
 20
160.1911607823216
 10
108.3799085598173
 20
160.3564389128779
 10
108.5691643383288
 20
160.5242570485142
 10
108.7562357124716
 20
160.6945897891796
 10
108.9408940817882
 20
160.8673863347727
 10
109.1231902463805
 20
161.0426212852427
 10
109.3033020066041
 20
161.2202692405385
 10
109.4808991617985
 20
161.4003048006096
 10
109.65618491237
 20
161.5826771653543
 10
109.828981457963
 20
161.7673609347218
 10
109.9992887985777
 20
161.9543561087123
 10
110.1670561341125
 20
162.143586487173
 10
110.3324358648719
 20
162.3350266700533
 10
110.4950723901449
 20
162.5286512573025
 10
110.6551943103886
 20
162.7244348488698
 10
110.8126746253495
 20
162.9223266446533
 10
110.9675387350776
 20
163.1223012446025
 10
111.1197866395734
 20
163.3243078486157
 10
111.2692913385828
 20
163.5283464566929
 10
111.4160528321058
 20
163.7343408686818
 10
111.5599441198883
 20
163.9422656845314
 10
111.7012192024385
 20
164.152095504191
 10
111.8396494792991
 20
164.3637795275591
 10
111.9752095504193
 20
164.5772923545847
 10
112.1079248158498
 20
164.7926085852173
 10
112.2377698755399
 20
165.0096520193041
 10
112.3647701295403
 20
165.2283972567946
 10
112.488696977394
 20
165.4488442976886
 10
112.6098552197104
 20
165.6708915417831
 10
112.7279654559311
 20
165.894538989078
 10
112.843078486157
 20
166.1197358394717
 10
112.9552451104903
 20
166.3464566929134
 10
113.0643129286259
 20
166.5746507493015
 10
113.1702819405638
 20
166.8042672085345
 10
113.2733045466091
 20
167.0352806705614
 10
113.3731267462535
 20
167.2676403352808
 10
113.4699771399544
 20
167.5013208026416
 10
113.5636271272544
 20
167.7362458724917
 10
113.6542037084075
 20
167.9724155448312
 10
113.741554483109
 20
168.2097790195581
 10
113.8257302514605
 20
168.4482600965202
 10
113.9068326136653
 20
168.6878587757176
 10
113.9846075692153
 20
168.9284988569977
 10
114.0592837185675
 20
169.1701549403098
 10
114.1306832613665
 20
169.4128016256034
 10
114.1988569977141
 20
169.6563627127254
 10
114.2637287274576
 20
169.9008128016256
 10
114.3254000508002
 20
170.1461010922023
 10
114.3837693675388
 20
170.3922021844045
 10
114.4389128778259
 20
170.6390398780797
 10
114.4907797815597
 20
170.8865887731775
 10
114.5393192786387
 20
171.134823469647
 10
114.5844297688597
 20
171.3836677673356
 10
114.6263398526798
 20
171.6330962661926
 10
114.664947929896
 20
171.8830835661672
 10
114.700127000254
 20
172.1335280670562
 10
114.7321056642115
 20
172.3844297688596
 10
114.7606553213109
 20
172.6357378714758
 10
114.7857759715521
 20
172.8874015748032
 10
114.8076962153925
 20
173.1393700787402
 10
114.8262128524259
 20
173.3916179832361
 10
114.8412750825503
 20
173.6440944881891
 10
114.8531623063247
 20
173.8967487934976
 10
114.861493522987
 20
174.1495300990602
 10
114.8665227330455
 20
174.402413004826
 10
114.8682245364491
 20
174.6553213106426
 10
114.8665227330455
 20
174.9082296164592
 10
114.861493522987
 20
175.1611125222251
 10
114.8531623063247
 20
175.4138938277876
 10
114.8412750825503
 20
175.6665481330964
 10
114.8262128524259
 20
175.9190246380493
 10
114.8076962153925
 20
176.1712471424944
 10
114.7857759715521
 20
176.4232410464822
 10
114.7606553213109
 20
176.6749047498096
 10
114.7321056642115
 20
176.9262128524258
 10
114.700127000254
 20
177.1771145542292
 10
114.664947929896
 20
177.4275590551182
 10
114.6263398526798
 20
177.6775463550927
 10
114.5844297688597
 20
177.9269748539498
 10
114.5393192786387
 20
178.1758191516384
 10
114.4907797815597
 20
178.4240284480569
 10
114.4389128778259
 20
178.6716027432055
 10
114.3837693675388
 20
178.9184404368809
 10
114.3254000508002
 20
179.1645415290832
 10
114.2637287274576
 20
179.4098298196596
 10
114.1988569977141
 20
179.6542799085598
 10
114.1306832613665
 20
179.897840995682
 10
114.0592837185675
 20
180.1404876809754
 10
113.9846075692153
 20
180.3821437642876
 10
113.9068326136653
 20
180.6227838455677
 10
113.8257302514605
 20
180.862382524765
 10
113.741554483109
 20
181.1008636017273
 10
113.6542037084075
 20
181.3382270764542
 10
113.5636271272544
 20
181.5743967487936
 10
113.4699771399544
 20
181.8093218186437
 10
113.3731267462535
 20
182.0430022860047
 10
113.2733045466091
 20
182.275361950724
 10
113.1702819405638
 20
182.5063754127509
 10
113.0643129286259
 20
182.7359918719837
 10
112.9552451104903
 20
182.9641859283718
 10
112.843078486157
 20
183.1908813817628
 10
112.7279654559311
 20
183.4161036322073
 10
112.6098552197104
 20
183.6397510795023
 10
112.488696977394
 20
183.8617983235966
 10
112.3647701295403
 20
184.0822199644399
 10
112.2377698755399
 20
184.3009906019812
 10
112.1079248158498
 20
184.5180340360682
 10
111.9752095504193
 20
184.7333248666498
 10
111.8396494792991
 20
184.9468630937263
 10
111.7012192024385
 20
185.1585471170942
 10
111.5599441198883
 20
185.368376936754
 10
111.4160528321058
 20
185.5763017526035
 10
111.2692913385828
 20
185.7822961645924
 10
111.1197866395734
 20
185.9863347726696
 10
110.9675387350776
 20
186.1883413766827
 10
110.8126746253495
 20
186.388315976632
 10
110.6551943103886
 20
186.5862077724156
 10
110.4950723901449
 20
186.7819913639828
 10
110.3324358648719
 20
186.975615951232
 10
110.1670561341125
 20
187.1670561341123
 10
109.9992887985777
 20
187.3562865125731
 10
109.828981457963
 20
187.5432816865634
 10
109.65618491237
 20
187.7279654559309
 10
109.4808991617985
 20
187.9103378206756
 10
109.3033020066041
 20
188.0903733807469
 10
109.1231902463805
 20
188.2680213360428
 10
108.9408940817882
 20
188.4432562865127
 10
108.7562357124716
 20
188.6160528321057
 10
108.5691643383288
 20
188.7863855727712
 10
108.3799085598173
 20
188.9542037084074
 10
108.1884937769876
 20
189.1194818389638
 10
107.9949199898401
 20
189.2821945643892
 10
107.7991617983237
 20
189.4423164846331
 10
107.6012446024892
 20
189.5998221996444
 10
107.40127000254
 20
189.7546863093727
 10
107.1992125984252
 20
189.9068834137668
 10
106.9952501905004
 20
190.0563627127256
 10
106.78920497841
 20
190.2030988061977
 10
106.5812293624587
 20
190.3470916941834
 10
106.3714249428499
 20
190.4883159766319
 10
106.1598171196344
 20
190.6267208534418
 10
105.9462280924563
 20
190.7623063246127
 10
105.7309626619255
 20
190.8950215900432
 10
105.5138430276861
 20
191.0248920497841
 10
105.2951231902464
 20
191.1518161036322
 10
105.0747015494032
 20
191.2758445516891
 10
104.8526797053596
 20
191.3969265938533
 10
104.6289560579123
 20
191.5150368300737
 10
104.4038354076708
 20
191.6301752603506
 10
104.1770383540768
 20
191.7422910845822
 10
103.9488442976887
 20
191.8513843027687
 10
103.7192786385574
 20
191.957429514859
 10
103.4882397764797
 20
192.0604013208027
 10
103.2559309118619
 20
192.1602743205486
 10
103.0222504445009
 20
192.2570739141479
 10
102.7873253746508
 20
192.3507493014986
 10
102.5511557023114
 20
192.4412750825502
 10
102.3137160274323
 20
192.5286512573025
 10
102.0752349504701
 20
192.6128778257557
 10
101.8356362712727
 20
192.6939039878081
 10
101.5949961899925
 20
192.7717551435103
 10
101.3534417068836
 20
192.846380492761
 10
101.1107442214886
 20
192.9177800355601
 10
100.8671323342648
 20
192.9859537719076
 10
100.6227330454662
 20
193.0508763017526
 10
100.3774193548388
 20
193.1125222250446
 10
100.1312928625859
 20
193.170916941834
 10
99.88448056896118
 20
193.2260096520193
 10
99.63700787401579
 20
193.2778511557025
 10
99.38869697739416
 20
193.3263652527306
 10
99.13985267970543
 20
193.3715519431039
 10
98.89042418084841
 20
193.4134620269242
 10
98.64041148082311
 20
193.4520193040387
 10
98.39006858013727
 20
193.4872491744985
 10
98.13914147828313
 20
193.5191516383034
 10
97.88778257556533
 20
193.5477266954535
 10
97.63616967233952
 20
193.5729235458472
 10
97.38422656845321
 20
193.594792989586
 10
97.13192786385572
 20
193.6132842265685
 10
96.87942595885216
 20
193.6284226568453
 10
96.62679705359416
 20
193.6402082804166
 10
96.37404114808235
 20
193.6486156972314
 10
96.12108204216429
 20
193.6536703073407
 10
95.86822453644913
 20
193.6553721107443
 10
95.6153670307342
 20
193.6536703073407
 10
95.36238252476506
 20
193.6486156972314
 10
95.10965201930412
 20
193.6402082804166
 10
94.85702311404635
 20
193.6284226568453
 10
94.60449580899171
 20
193.6132842265685
 10
94.35232410464823
 20
193.594792989586
 10
94.10025400050811
 20
193.5729235458472
 10
93.84866649733316
 20
193.5477266954535
 10
93.59728219456451
 20
193.5191516383034
 10
93.34638049276122
 20
193.4872491744985
 10
93.0960375920754
 20
193.4520193040387
 10
92.84602489204983
 20
193.4134620269242
 10
92.59659639319284
 20
193.3715519431039
 10
92.34772669545348
 20
193.3263652527306
 10
92.0995427990856
 20
193.2778511557025
 10
91.85194310388624
 20
193.2260096520193
 10
91.60513081026172
 20
193.170916941834
 10
91.35902971805968
 20
193.1125222250446
 10
91.11371602743224
 20
193.0508763017526
 10
90.8692913385828
 20
192.9859537719076
 10
90.62567945135901
 20
192.9177800355601
 10
90.38310896621807
 20
192.846380492761
 10
90.14145288290592
 20
192.7717551435103
 10
89.90081280162575
 20
192.6939039878081
 10
89.66118872237757
 20
192.6128778257557
 10
89.42273304546619
 20
192.5286512573025
 10
89.18529337058679
 20
192.4412750825502
 10
88.94909829819678
 20
192.3507493014986
 10
88.7141732283467
 20
192.2570739141479
 10
88.48049276098574
 20
192.1602743205486
 10
88.24820929641875
 20
192.0604013208027
 10
88.01717043434107
 20
191.957429514859
 10
87.78760477520973
 20
191.8513843027687
 10
87.55941071882148
 20
191.7422910845822
 10
87.33271526543058
 20
191.6301752603506
 10
87.10749301498619
 20
191.5150368300737
 10
86.88374396748804
 20
191.3969265938533
 10
86.6617221234444
 20
191.2758445516891
 10
86.44130048260105
 20
191.1518161036322
 10
86.22260604521216
 20
191.0248920497841
 10
86.00548641097294
 20
190.8950215900432
 10
85.79019558039135
 20
190.7623063246127
 10
85.57663195326403
 20
190.6267208534418
 10
85.36499872999751
 20
190.4883159766319
 10
85.15519431038866
 20
190.3470916941834
 10
84.94721869443742
 20
190.2030988061977
 10
84.74119888239783
 20
190.0563627127256
 10
84.5372110744222
 20
189.9068834137668
 10
84.33517907035819
 20
189.7546863093727
 10
84.135204470409
 20
189.5998221996444
 10
83.9372872745746
 20
189.4423164846331
 10
83.74152908305838
 20
189.2821945643892
 10
83.54792989585984
 20
189.1194818389638
 10
83.35651511303035
 20
188.9542037084074
 10
83.16728473456965
 20
188.7863855727712
 10
82.98021336042689
 20
188.6160528321057
 10
82.79552959105922
 20
188.4432562865127
 10
82.61325882651773
 20
188.2680213360428
 10
82.43314706629417
 20
188.0903733807469
 10
82.25554991109992
 20
187.9103378206756
 10
82.08023876047764
 20
187.7279654559309
 10
81.90744221488444
 20
187.5432816865634
 10
81.7371602743208
 20
187.3562865125731
 10
81.56939293878599
 20
187.1670561341123
 10
81.40401320802652
 20
186.975615951232
 10
81.24137668275354
 20
186.7819913639828
 10
81.08125476250961
 20
186.5862077724156
 10
80.92374904749819
 20
186.388315976632
 10
80.76888493777003
 20
186.1883413766827
 10
80.61666243332501
 20
185.9863347726696
 10
80.46715773431559
 20
185.7822961645924
 10
80.32039624079265
 20
185.5763017526035
 10
80.17647955295911
 20
185.368376936754
 10
80.0352044704091
 20
185.1585471170942
 10
79.89679959359932
 20
184.9468630937263
 10
79.76123952247917
 20
184.7333248666498
 10
79.62852425704864
 20
184.5180340360682
 10
79.49865379730773
 20
184.3009906019812
 10
79.37178054356127
 20
184.0822199644399
 10
79.24775209550421
 20
183.8617983235966
 10
79.126568453137
 20
183.6397510795023
 10
79.00848361696739
 20
183.4161036322073
 10
78.89334518669055
 20
183.1908813817628
 10
78.78120396240797
 20
182.9641859283718
 10
78.67213614427237
 20
182.7359918719837
 10
78.56614173228354
 20
182.5063754127509
 10
78.46311912623832
 20
182.275361950724
 10
78.36332232664472
 20
182.0430022860047
 10
78.26647193294388
 20
181.8093218186437
 10
78.17282194564405
 20
181.5743967487936
 10
78.08224536449074
 20
181.3382270764542
 10
77.99486918973844
 20
181.1008636017273
 10
77.9106934213869
 20
180.862382524765
 10
77.82961645923297
 20
180.6227838455677
 10
77.75184150368318
 20
180.3821437642876
 10
77.67713995427993
 20
180.1404876809754
 10
77.60576581153168
 20
179.897840995682
 10
77.5375920751842
 20
179.6542799085598
 10
77.47272034544085
 20
179.4098298196596
 10
77.41104902209826
 20
179.1645415290832
 10
77.35267970535959
 20
178.9184404368809
 10
77.29751079502171
 20
178.6716027432055
 10
77.2456692913388
 20
178.4240284480569
 10
77.19712979425981
 20
178.1758191516384
 10
77.15201930403873
 20
177.9269748539498
 10
77.11010922021866
 20
177.6775463550927
 10
77.07150114300247
 20
177.4275590551182
 10
77.03632207264424
 20
177.1771145542292
 10
77.00434340868695
 20
176.9262128524258
 10
76.97579375158763
 20
176.6749047498096
 10
76.95067310134641
 20
176.4232410464822
 10
76.92872745745512
 20
176.1712471424944
 10
76.9102362204726
 20
175.9190246380493
 10
76.89514859029738
 20
175.6665481330964
 10
76.88328676657374
 20
175.4138938277876
 10
76.87493014986035
 20
175.1611125222251
 10
76.86992633985278
 20
174.9082296164592
  0
ENDSEC
  0
SECTION
  2
OBJECTS
  0
DICTIONARY
  5
C
330
0
100
AcDbDictionary
281
     1
  3
ACAD_CIP_PREVIOUS_PRODUCT_INFO
350
216
  3
ACAD_COLOR
350
6B
  3
ACAD_DETAILVIEWSTYLE
350
21B
  3
ACAD_GROUP
350
D
  3
ACAD_LAYOUT
350
1A
  3
ACAD_MATERIAL
350
6A
  3
ACAD_MLEADERSTYLE
350
12D
  3
ACAD_MLINESTYLE
350
17
  3
ACAD_PLOTSETTINGS
350
19
  3
ACAD_PLOTSTYLENAME
350
E
  3
ACAD_SCALELIST
350
10C
  3
ACAD_SECTIONVIEWSTYLE
350
219
  3
ACAD_TABLESTYLE
350
7E
  3
ACAD_VISUALSTYLE
350
EF
  3
ACDB_RECOMPOSE_DATA
350
4E2
  3
AcDbVariableDictionary
350
5E
  0
DICTIONARY
  5
1FF
330
2
100
AcDbDictionary
280
     1
281
     1
  3
ACAD_LAYERSTATES
360
200
  0
DICTIONARY
  5
13C
330
10
100
AcDbDictionary
280
     1
281
     1
  0
DICTIONARY
  5
1CE
330
1F
100
AcDbDictionary
280
     1
281
     1
  0
XRECORD
  5
216
102
{ACAD_REACTORS
330
C
102
}
330
C
100
AcDbXrecord
280
     1
300
ACD
300
2022
300

  0
DICTIONARY
  5
6B
102
{ACAD_REACTORS
330
C
102
}
330
C
100
AcDbDictionary
281
     1
  0
DICTIONARY
  5
21B
102
{ACAD_REACTORS
330
C
102
}
330
C
100
AcDbDictionary
281
     1
  3
Metric50
350
21C
  0
DICTIONARY
  5
D
102
{ACAD_REACTORS
330
C
102
}
330
C
100
AcDbDictionary
281
     1
  0
DICTIONARY
  5
1A
102
{ACAD_REACTORS
330
C
102
}
330
C
100
AcDbDictionary
281
     1
  3
Model
350
22
  3
布局1
350
D3
  3
布局2
350
D7
  0
DICTIONARY
  5
6A
102
{ACAD_REACTORS
330
C
102
}
330
C
100
AcDbDictionary
281
     1
  3
ByBlock
350
ED
  3
ByLayer
350
EC
  3
Global
350
EE
  0
DICTIONARY
  5
12D
102
{ACAD_REACTORS
330
C
102
}
330
C
100
AcDbDictionary
281
     1
  3
Annotative
350
13B
  3
Standard
350
12E
  0
DICTIONARY
  5
17
102
{ACAD_REACTORS
330
C
102
}
330
C
100
AcDbDictionary
281
     1
  3
Standard
350
18
  0
DICTIONARY
  5
19
102
{ACAD_REACTORS
330
C
102
}
330
C
100
AcDbDictionary
281
     1
  0
ACDBDICTIONARYWDFLT
  5
E
102
{ACAD_REACTORS
330
C
102
}
330
C
100
AcDbDictionary
281
     1
  3
Normal
350
F
100
AcDbDictionaryWithDefault
340
F
  0
DICTIONARY
  5
10C
102
{ACAD_REACTORS
330
C
102
}
330
C
100
AcDbDictionary
281
     1
  3
A0
350
10D
  3
A1
350
1BE
  3
A2
350
1BF
  3
A3
350
1C0
  3
A4
350
1C1
  3
A5
350
1C2
  3
A6
350
1C3
  3
A7
350
1C4
  3
A8
350
1C5
  3
A9
350
1C6
  3
B0
350
1C7
  3
B1
350
1C8
  3
B2
350
1C9
  3
B3
350
1CA
  3
B4
350
1CB
  3
B5
350
1CC
  3
B6
350
1CD
  0
DICTIONARY
  5
219
102
{ACAD_REACTORS
330
C
102
}
330
C
100
AcDbDictionary
281
     1
  3
Metric50
350
21A
  0
DICTIONARY
  5
7E
102
{ACAD_REACTORS
330
C
102
}
330
C
100
AcDbDictionary
281
     1
  3
Standard
350
7F
  0
DICTIONARY
  5
EF
102
{ACAD_REACTORS
330
C
102
}
330
C
100
AcDbDictionary
281
     1
  3
2dWireframe
350
F5
  3
Basic
350
F4
  3
Brighten
350
FB
  3
ColorChange
350
FF
  3
Conceptual
350
F8
  3
Dim
350
FA
  3
EdgeColorOff
350
1E6
  3
Facepattern
350
FE
  3
Flat
350
F0
  3
FlatWithEdges
350
F1
  3
Gouraud
350
F2
  3
GouraudWithEdges
350
F3
  3
Hidden
350
F7
  3
JitterOff
350
1E4
  3
Linepattern
350
FD
  3
OverhangOff
350
1E5
  3
Realistic
350
F9
  3
Shaded
350
1F3
  3
Shaded with edges
350
1F2
  3
Shades of Gray
350
1EF
  3
Sketchy
350
1F0
  3
Thicken
350
FC
  3
Wireframe
350
F6
  3
X-Ray
350
1F1
  0
XRECORD
  5
4E2
102
{ACAD_REACTORS
330
C
102
}
330
C
100
AcDbXrecord
280
     1
 90
        1
330
7F
  0
DICTIONARY
  5
5E
102
{ACAD_REACTORS
330
C
102
}
330
C
100
AcDbDictionary
281
     1
  3
CANNOSCALE
350
146
  3
CENTEREXE
350
259
  3
CENTERLTYPEFILE
350
25A
  3
CMLEADERSTYLE
350
145
  3
CTABLESTYLE
350
84
  3
CVIEWDETAILSTYLE
350
227
  3
CVIEWSECTIONSTYLE
350
228
  3
DIMASSOC
350
5F
  3
HIDETEXT
350
63
  3
LAYEREVAL
350
1AE
  3
LAYERNOTIFY
350
1AF
  0
DICTIONARY
  5
200
102
{ACAD_REACTORS
330
1FF
102
}
330
1FF
100
AcDbDictionary
281
     1
  0
ACDBDETAILVIEWSTYLE
  5
21C
102
{ACAD_REACTORS
330
21B
102
}
330
21B
100
AcDbModelDocViewStyle
 70
     0
  3
Metric50
290
     0
300
Metric50
 90
        0
100
AcDbDetailViewStyle
 70
     0
 71
     0
 90
        3
 71
     1
340
11
 62
   256
 40
5.0
340
0
 62
   256
 40
5.0
300

 40
0.0
280
     1
 71
     2
340
16
 90
       25
 62
   256
 71
     3
340
11
 62
   256
 40
5.0
 90
        0
 40
15.0
 90
        1
300
%<AcVar ViewDetailId>% (%<AcVar ViewScale ^L "%sn">%)
 71
     4
340
16
 90
       25
 62
   256
340
16
 90
       25
 62
   256
280
     0
  0
LAYOUT
  5
22
102
{ACAD_XDICTIONARY
360
205
102
}
102
{ACAD_REACTORS
330
1A
102
}
330
1A
100
AcDbPlotSettings
  1

  2
none_device
  4
ISO_A4_(210.00_x_297.00_MM)
  6

 40
7.5
 41
20.0
 42
7.5
 43
20.0
 44
210.0
 45
297.0
 46
11.54999923706054
 47
-13.65000009536743
 48
0.0
 49
0.0
140
0.0
141
0.0
142
1.0
143
8.704084754739808
 70
 11952
 72
     1
 73
     0
 74
     0
  7

 75
     0
147
0.1148885871608098
 76
     0
 77
     2
 78
   300
148
0.0
149
0.0
100
AcDbLayout
  1
Model
 70
     1
 71
     0
 10
0.0
 20
0.0
 11
12.0
 21
9.0
 12
0.0
 22
0.0
 32
0.0
 14
0.0
 24
0.0
 34
0.0
 15
0.0
 25
0.0
 35
0.0
146
0.0
 13
0.0
 23
0.0
 33
0.0
 16
1.0
 26
0.0
 36
0.0
 17
0.0
 27
1.0
 37
0.0
 76
     0
330
1F
331
EA
1001
ACAD_PSEXT
1000
None
1000
None
1000
Not applicable
1000
The layout will not be plotted unless a new plotter configuration name is selected.
1070
     0
  0
LAYOUT
  5
D3
102
{ACAD_REACTORS
330
1A
102
}
330
1A
100
AcDbPlotSettings
  1

  2
C:Documents and Settings^HasasApplication DataAutodeskAutoCAD 2005R16.1enuplottersDefault Windows System Printer.pc3
  4

  6

 40
0.0
 41
0.0
 42
0.0
 43
0.0
 44
0.0
 45
0.0
 46
0.0
 47
0.0
 48
0.0
 49
0.0
140
0.0
141
0.0
142
1.0
143
1.0
 70
   688
 72
     0
 73
     0
 74
     5
  7

 75
    16
147
1.0
 76
     0
 77
     2
 78
   300
148
0.0
149
0.0
100
AcDbLayout
  1
布局1
 70
     1
 71
     1
 10
0.0
 20
0.0
 11
12.0
 21
9.0
 12
0.0
 22
0.0
 32
0.0
 14
0.0
 24
0.0
 34
0.0
 15
0.0
 25
0.0
 35
0.0
146
0.0
 13
0.0
 23
0.0
 33
0.0
 16
1.0
 26
0.0
 36
0.0
 17
0.0
 27
1.0
 37
0.0
 76
     0
330
D2
  0
LAYOUT
  5
D7
102
{ACAD_REACTORS
330
1A
102
}
330
1A
100
AcDbPlotSettings
  1

  2
C:Documents and Settings^HasasApplication DataAutodeskAutoCAD 2005R16.1enuplottersDefault Windows System Printer.pc3
  4

  6

 40
0.0
 41
0.0
 42
0.0
 43
0.0
 44
0.0
 45
0.0
 46
0.0
 47
0.0
 48
0.0
 49
0.0
140
0.0
141
0.0
142
1.0
143
1.0
 70
   688
 72
     0
 73
     0
 74
     5
  7

 75
    16
147
1.0
 76
     0
 77
     2
 78
   300
148
0.0
149
0.0
100
AcDbLayout
  1
布局2
 70
     1
 71
     2
 10
0.0
 20
0.0
 11
12.0
 21
9.0
 12
0.0
 22
0.0
 32
0.0
 14
0.0
 24
0.0
 34
0.0
 15
0.0
 25
0.0
 35
0.0
146
0.0
 13
0.0
 23
0.0
 33
0.0
 16
1.0
 26
0.0
 36
0.0
 17
0.0
 27
1.0
 37
0.0
 76
     0
330
D6
  0
MATERIAL
  5
ED
102
{ACAD_XDICTIONARY
360
1F9
102
}
102
{ACAD_REACTORS
330
6A
102
}
330
6A
100
AcDbMaterial
  1
ByBlock
 94
       63
  0
MATERIAL
  5
EC
102
{ACAD_XDICTIONARY
360
1F7
102
}
102
{ACAD_REACTORS
330
6A
102
}
330
6A
100
AcDbMaterial
  1
ByLayer
 94
       63
  0
MATERIAL
  5
EE
102
{ACAD_XDICTIONARY
360
173
102
}
102
{ACAD_REACTORS
330
6A
102
}
330
6A
100
AcDbMaterial
  1
Global
 43
0.0007999999797903
 43
0.0
 43
0.0
 43
0.0
 43
0.0
 43
0.0007999999797903
 43
0.0
 43
0.0
 43
0.0
 43
0.0
 43
1.0
 43
0.0
 43
0.0
 43
0.0
 43
0.0
 43
1.0
 49
0.0007999999797903
 49
0.0
 49
0.0
 49
0.0
 49
0.0
 49
0.0007999999797903
 49
0.0
 49
0.0
 49
0.0
 49
0.0
 49
1.0
 49
0.0
 49
0.0
 49
0.0
 49
0.0
 49
1.0
142
0.0007999999797903
142
0.0
142
0.0
142
0.0
142
0.0
142
0.0007999999797903
142
0.0
142
0.0
142
0.0
142
0.0
142
1.0
142
0.0
142
0.0
142
0.0
142
0.0
142
1.0
144
0.0007999999797903
144
0.0
144
0.0
144
0.0
144
0.0
144
0.0007999999797903
144
0.0
144
0.0
144
0.0
144
0.0
144
1.0
144
0.0
144
0.0
144
0.0
144
0.0
144
1.0
 94
       63
1001
ACAD
1070
    -1
1070
     3
1070
     0
1000

1071
        0
1070
     0
  0
MLEADERSTYLE
  5
13B
102
{ACAD_REACTORS
330
12D
102
}
330
12D
100
AcDbMLeaderStyle
179
     2
170
     2
171
     1
172
     0
 90
        2
 40
0.0
 41
0.0
173
     1
 91
-1056964608
340
14
 92
       -2
290
     1
 42
2.0
291
     1
 43
8.0
  3
Standard
 44
4.0
300

342
11
174
     1
178
     1
175
     1
176
     0
 93
-1056964608
 45
4.0
292
     0
297
     0
 46
4.0
 94
-1056964608
 47
1.0
 49
1.0
140
1.0
293
     1
141
0.0
294
     1
177
     0
142
1.0
295
     0
296
     1
143
3.75
271
     0
272
     9
273
     9
298
     0
1001
ACAD_MLEADERVER
1070
     2
  0
MLEADERSTYLE
  5
12E
102
{ACAD_REACTORS
330
12D
102
}
330
12D
100
AcDbMLeaderStyle
179
     2
170
     2
171
     1
172
     0
 90
        2
 40
0.0
 41
0.0
173
     1
 91
-1056964608
340
14
 92
       -2
290
     1
 42
2.0
291
     1
 43
8.0
  3
Standard
 44
4.0
300

342
11
174
     1
178
     1
175
     1
176
     0
 93
-1056964608
 45
4.0
292
     0
297
     0
 46
4.0
 94
-1056964608
 47
1.0
 49
1.0
140
1.0
293
     1
141
0.0
294
     1
177
     0
142
1.0
295
     0
296
     0
143
3.75
271
     0
272
     9
273
     9
298
     0
1001
ACAD_MLEADERVER
1070
     2
  0
MLINESTYLE
  5
18
102
{ACAD_REACTORS
330
17
102
}
330
17
100
AcDbMlineStyle
  2
STANDARD
 70
     0
  3

 62
   256
 51
90.0
 52
90.0
 71
     2
 49
0.5
 62
   256
  6
BYLAYER
 49
-0.5
 62
   256
  6
BYLAYER
  0
ACDBPLACEHOLDER
  5
F
102
{ACAD_REACTORS
330
E
102
}
330
E
  0
SCALE
  5
10D
102
{ACAD_REACTORS
330
10C
102
}
330
10C
100
AcDbScale
 70
     0
300
1:1
140
1.0
141
1.0
290
     1
  0
SCALE
  5
1BE
102
{ACAD_REACTORS
330
10C
102
}
330
10C
100
AcDbScale
 70
     0
300
1:2
140
1.0
141
2.0
290
     0
  0
SCALE
  5
1BF
102
{ACAD_REACTORS
330
10C
102
}
330
10C
100
AcDbScale
 70
     0
300
1:4
140
1.0
141
4.0
290
     0
  0
SCALE
  5
1C0
102
{ACAD_REACTORS
330
10C
102
}
330
10C
100
AcDbScale
 70
     0
300
1:5
140
1.0
141
5.0
290
     0
  0
SCALE
  5
1C1
102
{ACAD_REACTORS
330
10C
102
}
330
10C
100
AcDbScale
 70
     0
300
1:8
140
1.0
141
8.0
290
     0
  0
SCALE
  5
1C2
102
{ACAD_REACTORS
330
10C
102
}
330
10C
100
AcDbScale
 70
     0
300
1:10
140
1.0
141
10.0
290
     0
  0
SCALE
  5
1C3
102
{ACAD_REACTORS
330
10C
102
}
330
10C
100
AcDbScale
 70
     0
300
1:16
140
1.0
141
16.0
290
     0
  0
SCALE
  5
1C4
102
{ACAD_REACTORS
330
10C
102
}
330
10C
100
AcDbScale
 70
     0
300
1:20
140
1.0
141
20.0
290
     0
  0
SCALE
  5
1C5
102
{ACAD_REACTORS
330
10C
102
}
330
10C
100
AcDbScale
 70
     0
300
1:30
140
1.0
141
30.0
290
     0
  0
SCALE
  5
1C6
102
{ACAD_REACTORS
330
10C
102
}
330
10C
100
AcDbScale
 70
     0
300
1:40
140
1.0
141
40.0
290
     0
  0
SCALE
  5
1C7
102
{ACAD_REACTORS
330
10C
102
}
330
10C
100
AcDbScale
 70
     0
300
1:50
140
1.0
141
50.0
290
     0
  0
SCALE
  5
1C8
102
{ACAD_REACTORS
330
10C
102
}
330
10C
100
AcDbScale
 70
     0
300
1:100
140
1.0
141
100.0
290
     0
  0
SCALE
  5
1C9
102
{ACAD_REACTORS
330
10C
102
}
330
10C
100
AcDbScale
 70
     0
300
2:1
140
2.0
141
1.0
290
     0
  0
SCALE
  5
1CA
102
{ACAD_REACTORS
330
10C
102
}
330
10C
100
AcDbScale
 70
     0
300
4:1
140
4.0
141
1.0
290
     0
  0
SCALE
  5
1CB
102
{ACAD_REACTORS
330
10C
102
}
330
10C
100
AcDbScale
 70
     0
300
8:1
140
8.0
141
1.0
290
     0
  0
SCALE
  5
1CC
102
{ACAD_REACTORS
330
10C
102
}
330
10C
100
AcDbScale
 70
     0
300
10:1
140
10.0
141
1.0
290
     0
  0
SCALE
  5
1CD
102
{ACAD_REACTORS
330
10C
102
}
330
10C
100
AcDbScale
 70
     0
300
100:1
140
100.0
141
1.0
290
     0
  0
ACDBSECTIONVIEWSTYLE
  5
21A
102
{ACAD_REACTORS
330
219
102
}
330
219
100
AcDbModelDocViewStyle
 70
     0
  3
Metric50
290
     0
300
Metric50
 90
        0
100
AcDbSectionViewStyle
 70
     0
 71
     0
 90
      102
 71
     1
340
11
 62
   256
 40
5.0
340
0
340
0
 62
   256
 40
5.0
300
I, O, Q, S, X, Z
 40
10.0
 90
        0
 40
2.5
 90
        0
 71
     2
340
16
 90
       25
 62
   256
340
16
 90
       50
 62
   256
 40
5.0
 40
2.5
 40
5.0
 71
     3
340
11
 62
   256
 40
5.0
 90
        0
 40
15.0
 90
        1
300
%<AcVar ViewSectionStartId>%-%<AcVar ViewSectionEndId>% (%<AcVar ViewScale ^L "%sn">%)
 71
     4
 62
   256
 62
   257
300
ANSI31
 40
1.0
 90
        0
290
     0
290
     0
 90
        6
 40
0.0
 40
1.570796326794896
 40
0.2617993877991494
 40
1.308996938995747
 40
-0.2617993877991494
 40
1.832595714594045
  0
TABLESTYLE
  5
7F
102
{ACAD_XDICTIONARY
360
162
102
}
102
{ACAD_REACTORS
330
7E
102
}
330
7E
100
AcDbTableStyle
280
     0
  3
Standard
 70
     0
 71
     0
 40
1.5
 41
1.5
280
     0
281
     0
  7
Standard
140
4.5
170
     2
 62
     0
 63
     7
283
     0
 90
      512
 91
        0
  1

274
    -2
284
     1
 64
     0
275
    -2
285
     1
 65
     0
276
    -2
286
     1
 66
     0
277
    -2
287
     1
 67
     0
278
    -2
288
     1
 68
     0
279
    -2
289
     1
 69
     0
  7
Standard
140
6.0
170
     5
 62
     0
 63
     7
283
     0
 90
      512
 91
        0
  1

274
    -2
284
     1
 64
     0
275
    -2
285
     1
 65
     0
276
    -2
286
     1
 66
     0
277
    -2
287
     1
 67
     0
278
    -2
288
     1
 68
     0
279
    -2
289
     1
 69
     0
  7
Standard
140
4.5
170
     5
 62
     0
 63
     7
283
     0
 90
      512
 91
        0
  1

274
    -2
284
     1
 64
     0
275
    -2
285
     1
 65
     0
276
    -2
286
     1
 66
     0
277
    -2
287
     1
 67
     0
278
    -2
288
     1
 68
     0
279
    -2
289
     1
 69
     0
  0
VISUALSTYLE
  5
F5
102
{ACAD_REACTORS
330
EF
102
}
330
EF
100
AcDbVisualStyle
  2

 70
     4
177
     3
291
     0
 70
    58
 90
        0
176
     1
 90
        2
176
     1
 90
        1
176
     1
 90
        0
176
     1
 40
0.6
176
     1
 40
30.0
176
     1
 62
     7
420
 16777215
176
     1
 90
        1
176
     1
 90
        4
176
     1
 62
     7
176
     1
 62
   257
176
     1
 90
        1
176
     1
 90
        1
176
     1
 40
1.0
176
     1
 90
        0
176
     1
 62
   257
176
     1
 40
1.0
176
     1
 90
        1
176
     1
 90
        6
176
     1
 90
        2
176
     1
 62
     7
176
     1
 90
        5
176
     1
 90
        0
176
     1
 90
        0
176
     1
290
     0
176
     1
 90
        1
176
     1
 40
0.0
176
     1
 90
        0
176
     1
290
     1
176
     1
290
     1
176
     1
290
     0
176
     1
290
     0
176
     1
290
     0
176
     1
290
     0
176
     1
290
     0
176
     1
290
     0
176
     1
290
     0
176
     1
 90
       50
176
     1
 40
0.0
176
     1
 40
1.0
176
     1
 90
        0
176
     1
 62
    18
420
        0
176
     1
 90
       50
176
     1
 90
        3
176
     1
 62
     5
420
      255
176
     1
290
     0
176
     1
 90
       50
176
     1
 90
       50
176
     1
 90
       50
176
     1
290
     0
176
     1
 90
       50
176
     1
 62
   256
176
     0
 40
1.0
176
     0
 90
        2
176
     1
  1
strokes_ogs.tif
176
     1
290
     0
176
     1
 40
1.0
176
     1
 40
1.0
176
     1
1001
ACAD
1000
AcDbSavedByObjectVersion
1070
     0
  0
VISUALSTYLE
  5
F4
102
{ACAD_REACTORS
330
EF
102
}
330
EF
100
AcDbVisualStyle
  2

 70
     7
177
     3
291
     1
 70
    58
 90
        1
176
     1
 90
        0
176
     1
 90
        1
176
     1
 90
        0
176
     1
 40
0.6
176
     1
 40
30.0
176
     1
 62
     7
420
 16777215
176
     1
 90
        0
176
     1
 90
        4
176
     1
 62
     7
176
     1
 62
   257
176
     1
 90
        1
176
     1
 90
        1
176
     1
 40
1.0
176
     1
 90
        8
176
     1
 62
     7
176
     1
 40
1.0
176
     1
 90
        1
176
     1
 90
        6
176
     1
 90
        2
176
     1
 62
     7
176
     1
 90
        5
176
     1
 90
        0
176
     1
 90
        0
176
     1
290
     0
176
     1
 90
        1
176
     1
 40
0.0
176
     1
 90
        0
176
     1
290
     0
176
     1
290
     1
176
     1
290
     1
176
     1
290
     0
176
     1
290
     0
176
     1
290
     0
176
     1
290
     0
176
     1
290
     0
176
     1
290
     0
176
     1
 90
       50
176
     1
 40
0.0
176
     1
 40
1.0
176
     1
 90
        0
176
     1
 62
    18
420
        0
176
     1
 90
       50
176
     1
 90
        3
176
     1
 62
     5
420
      255
176
     1
290
     0
176
     1
 90
       50
176
     1
 90
       50
176
     1
 90
       50
176
     1
290
     0
176
     1
 90
       50
176
     1
 62
   256
176
     0
 40
1.0
176
     0
 90
        2
176
     1
  1
strokes_ogs.tif
176
     1
290
     0
176
     1
 40
1.0
176
     1
 40
1.0
176
     1
1001
ACAD
1000
AcDbSavedByObjectVersion
1070
     0
  0
VISUALSTYLE
  5
FB
102
{ACAD_REACTORS
330
EF
102
}
330
EF
100
AcDbVisualStyle
  2

 70
    12
177
     3
291
     1
 70
    58
 90
        2
176
     1
 90
        2
176
     1
 90
        1
176
     1
 90
        0
176
     1
 40
0.6
176
     1
 40
30.0
176
     1
 62
     7
420
 16777215
176
     1
 90
        1
176
     1
 90
        4
176
     1
 62
     7
176
     1
 62
   257
176
     1
 90
        1
176
     1
 90
        1
176
     1
 40
1.0
176
     1
 90
        8
176
     1
 62
     7
176
     1
 40
1.0
176
     1
 90
        1
176
     1
 90
        6
176
     1
 90
        2
176
     1
 62
     7
176
     1
 90
        5
176
     1
 90
        0
176
     1
 90
        0
176
     1
290
     0
176
     1
 90
        1
176
     1
 40
50.0
176
     1
 90
        0
176
     1
290
     0
176
     1
290
     1
176
     1
290
     1
176
     1
290
     0
176
     1
290
     0
176
     1
290
     0
176
     1
290
     0
176
     1
290
     0
176
     1
290
     0
176
     1
 90
       50
176
     1
 40
0.0
176
     1
 40
1.0
176
     1
 90
        0
176
     1
 62
    18
420
        0
176
     1
 90
       50
176
     1
 90
        3
176
     1
 62
     5
420
      255
176
     1
290
     0
176
     1
 90
       50
176
     1
 90
       50
176
     1
 90
       50
176
     1
290
     0
176
     1
 90
       50
176
     1
 62
   256
176
     0
 40
1.0
176
     0
 90
        2
176
     1
  1
strokes_ogs.tif
176
     1
290
     0
176
     1
 40
1.0
176
     1
 40
1.0
176
     1
1001
ACAD
1000
AcDbSavedByObjectVersion
1070
     0
  0
VISUALSTYLE
  5
FF
102
{ACAD_REACTORS
330
EF
102
}
330
EF
100
AcDbVisualStyle
  2

 70
    16
177
     3
291
     1
 70
    58
 90
        2
176
     1
 90
        2
176
     1
 90
        3
176
     1
 90
        0
176
     1
 40
0.6
176
     1
 40
30.0
176
     1
 62
     8
420
  8421504
176
     1
 90
        1
176
     1
 90
        4
176
     1
 62
     7
176
     1
 62
   257
176
     1
 90
        1
176
     1
 90
        1
176
     1
 40
1.0
176
     1
 90
        8
176
     1
 62
     8
420
  8421504
176
     1
 40
1.0
176
     1
 90
        1
176
     1
 90
        6
176
     1
 90
        2
176
     1
 62
     7
176
     1
 90
        5
176
     1
 90
        0
176
     1
 90
        0
176
     1
290
     0
176
     1
 90
        1
176
     1
 40
0.0
176
     1
 90
        0
176
     1
290
     0
176
     1
290
     1
176
     1
290
     1
176
     1
290
     0
176
     1
290
     0
176
     1
290
     0
176
     1
290
     0
176
     1
290
     0
176
     1
290
     0
176
     1
 90
       50
176
     1
 40
0.0
176
     1
 40
1.0
176
     1
 90
        0
176
     1
 62
    18
420
        0
176
     1
 90
       50
176
     1
 90
        3
176
     1
 62
     5
420
      255
176
     1
290
     0
176
     1
 90
       50
176
     1
 90
       50
176
     1
 90
       50
176
     1
290
     0
176
     1
 90
       50
176
     1
 62
   256
176
     0
 40
1.0
176
     0
 90
        2
176
     1
  1
strokes_ogs.tif
176
     1
290
     0
176
     1
 40
1.0
176
     1
 40
1.0
176
     1
1001
ACAD
1000
AcDbSavedByObjectVersion
1070
     0
  0
VISUALSTYLE
  5
F8
102
{ACAD_REACTORS
330
EF
102
}
330
EF
100
AcDbVisualStyle
  2

 70
     9
177
     3
291
     0
 70
    58
 90
        3
176
     1
 90
        2
176
     1
 90
        1
176
     1
 90
        0
176
     1
 40
0.6
176
     1
 40
30.0
176
     1
 62
     7
420
 16777215
176
     1
 90
        2
176
     1
 90
        2
176
     1
 62
     7
176
     1
 62
   257
176
     1
 90
        1
176
     1
 90
        1
176
     1
 40
40.0
176
     1
 90
        8
176
     1
 62
     7
176
     1
 40
1.0
176
     1
 90
        1
176
     1
 90
        6
176
     1
 90
        2
176
     1
 62
     7
176
     1
 90
        3
176
     1
 90
        0
176
     1
 90
        0
176
     1
290
     0
176
     1
 90
        1
176
     1
 40
0.0
176
     1
 90
        0
176
     1
290
     0
176
     1
290
     1
176
     1
290
     1
176
     1
290
     0
176
     1
290
     0
176
     1
290
     0
176
     1
290
     0
176
     1
290
     0
176
     1
290
     0
176
     1
 90
       50
176
     1
 40
0.0
176
     1
 40
1.0
176
     1
 90
        0
176
     1
 62
    18
420
        0
176
     1
 90
       50
176
     1
 90
        3
176
     1
 62
     5
420
      255
176
     1
290
     0
176
     1
 90
       50
176
     1
 90
       50
176
     1
 90
       50
176
     1
290
     0
176
     1
 90
       50
176
     1
 62
   256
176
     0
 40
1.0
176
     0
 90
        2
176
     1
  1
strokes_ogs.tif
176
     1
290
     0
176
     1
 40
1.0
176
     1
 40
1.0
176
     1
1001
ACAD
1000
AcDbSavedByObjectVersion
1070
     0
  0
VISUALSTYLE
  5
FA
102
{ACAD_REACTORS
330
EF
102
}
330
EF
100
AcDbVisualStyle
  2

 70
    11
177
     3
291
     1
 70
    58
 90
        2
176
     1
 90
        2
176
     1
 90
        1
176
     1
 90
        0
176
     1
 40
0.6
176
     1
 40
30.0
176
     1
 62
     7
420
 16777215
176
     1
 90
        1
176
     1
 90
        4
176
     1
 62
     7
176
     1
 62
   257
176
     1
 90
        1
176
     1
 90
        1
176
     1
 40
1.0
176
     1
 90
        8
176
     1
 62
     7
176
     1
 40
1.0
176
     1
 90
        1
176
     1
 90
        6
176
     1
 90
        2
176
     1
 62
     7
176
     1
 90
        5
176
     1
 90
        0
176
     1
 90
        0
176
     1
290
     0
176
     1
 90
        1
176
     1
 40
-50.0
176
     1
 90
        0
176
     1
290
     0
176
     1
290
     1
176
     1
290
     1
176
     1
290
     0
176
     1
290
     0
176
     1
290
     0
176
     1
290
     0
176
     1
290
     0
176
     1
290
     0
176
     1
 90
       50
176
     1
 40
0.0
176
     1
 40
1.0
176
     1
 90
        0
176
     1
 62
    18
420
        0
176
     1
 90
       50
176
     1
 90
        3
176
     1
 62
     5
420
      255
176
     1
290
     0
176
     1
 90
       50
176
     1
 90
       50
176
     1
 90
       50
176
     1
290
     0
176
     1
 90
       50
176
     1
 62
   256
176
     0
 40
1.0
176
     0
 90
        2
176
     1
  1
strokes_ogs.tif
176
     1
290
     0
176
     1
 40
1.0
176
     1
 40
1.0
176
     1
1001
ACAD
1000
AcDbSavedByObjectVersion
1070
     0
  0
VISUALSTYLE
  5
1E6
102
{ACAD_REACTORS
330
EF
102
}
330
EF
100
AcDbVisualStyle
  2

 70
    22
177
     3
291
     1
 70
    58
 90
        2
176
     0
 90
        2
176
     0
 90
        0
176
     0
 90
        0
176
     0
 40
0.6
176
     0
 40
30.0
176
     0
 62
     7
420
 16777215
176
     0
 90
        1
176
     0
 90
        4
176
     0
 62
     7
176
     0
 62
   257
176
     0
 90
        1
176
     0
 90
        1
176
     0
 40
1.0
176
     0
 90
        8
176
     2
 62
     7
176
     0
 40
1.0
176
     0
 90
        1
176
     0
 90
        6
176
     0
 90
        2
176
     0
 62
     7
176
     0
 90
        5
176
     0
 90
        0
176
     0
 90
        0
176
     0
290
     0
176
     0
 90
        1
176
     0
 40
0.0
176
     0
 90
        0
176
     0
290
     0
176
     1
290
     1
176
     1
290
     1
176
     1
290
     0
176
     1
290
     0
176
     1
290
     0
176
     1
290
     0
176
     1
290
     0
176
     1
290
     0
176
     1
 90
       50
176
     1
 40
0.0
176
     1
 40
1.0
176
     1
 90
        0
176
     1
 62
    18
420
        0
176
     1
 90
       50
176
     1
 90
        3
176
     1
 62
     5
420
      255
176
     1
290
     0
176
     1
 90
       50
176
     1
 90
       50
176
     1
 90
       50
176
     1
290
     0
176
     1
 90
       50
176
     1
 62
   256
176
     0
 40
1.0
176
     0
 90
        2
176
     1
  1
strokes_ogs.tif
176
     1
290
     0
176
     1
 40
1.0
176
     1
 40
1.0
176
     1
1001
ACAD
1000
AcDbSavedByObjectVersion
1070
     0
  0
VISUALSTYLE
  5
FE
102
{ACAD_REACTORS
330
EF
102
}
330
EF
100
AcDbVisualStyle
  2

 70
    15
177
     3
291
     1
 70
    58
 90
        2
176
     1
 90
        2
176
     1
 90
        1
176
     1
 90
        0
176
     1
 40
0.6
176
     1
 40
30.0
176
     1
 62
     7
420
 16777215
176
     1
 90
        1
176
     1
 90
        4
176
     1
 62
     7
176
     1
 62
   257
176
     1
 90
        1
176
     1
 90
        1
176
     1
 40
1.0
176
     1
 90
        8
176
     1
 62
     7
176
     1
 40
1.0
176
     1
 90
        1
176
     1
 90
        6
176
     1
 90
        2
176
     1
 62
     7
176
     1
 90
        5
176
     1
 90
        0
176
     1
 90
        0
176
     1
290
     0
176
     1
 90
        1
176
     1
 40
0.0
176
     1
 90
        0
176
     1
290
     0
176
     1
290
     1
176
     1
290
     1
176
     1
290
     0
176
     1
290
     0
176
     1
290
     0
176
     1
290
     0
176
     1
290
     0
176
     1
290
     0
176
     1
 90
       50
176
     1
 40
0.0
176
     1
 40
1.0
176
     1
 90
        0
176
     1
 62
    18
420
        0
176
     1
 90
       50
176
     1
 90
        3
176
     1
 62
     5
420
      255
176
     1
290
     0
176
     1
 90
       50
176
     1
 90
       50
176
     1
 90
       50
176
     1
290
     0
176
     1
 90
       50
176
     1
 62
   256
176
     0
 40
1.0
176
     0
 90
        2
176
     1
  1
strokes_ogs.tif
176
     1
290
     0
176
     1
 40
1.0
176
     1
 40
1.0
176
     1
1001
ACAD
1000
AcDbSavedByObjectVersion
1070
     0
  0
VISUALSTYLE
  5
F0
102
{ACAD_REACTORS
330
EF
102
}
330
EF
100
AcDbVisualStyle
  2

 70
     0
177
     3
291
     1
 70
    58
 90
        2
176
     1
 90
        1
176
     1
 90
        1
176
     1
 90
        2
176
     1
 40
0.6
176
     1
 40
30.0
176
     1
 62
     7
420
 16777215
176
     1
 90
        0
176
     1
 90
        0
176
     1
 62
     7
176
     1
 62
   257
176
     1
 90
        1
176
     1
 90
        1
176
     1
 40
1.0
176
     1
 90
        8
176
     1
 62
     7
176
     1
 40
1.0
176
     1
 90
        1
176
     1
 90
        6
176
     1
 90
        2
176
     1
 62
     7
176
     1
 90
        5
176
     1
 90
        0
176
     1
 90
        0
176
     1
290
     0
176
     1
 90
       13
176
     1
 40
0.0
176
     1
 90
        0
176
     1
290
     0
176
     1
290
     1
176
     1
290
     1
176
     1
290
     0
176
     1
290
     0
176
     1
290
     0
176
     1
290
     0
176
     1
290
     0
176
     1
290
     0
176
     1
 90
       50
176
     1
 40
0.0
176
     1
 40
1.0
176
     1
 90
        0
176
     1
 62
    18
420
        0
176
     1
 90
       50
176
     1
 90
        3
176
     1
 62
     5
420
      255
176
     1
290
     0
176
     1
 90
       50
176
     1
 90
       50
176
     1
 90
       50
176
     1
290
     0
176
     1
 90
       50
176
     1
 62
   256
176
     0
 40
1.0
176
     0
 90
        2
176
     1
  1
strokes_ogs.tif
176
     1
290
     0
176
     1
 40
1.0
176
     1
 40
1.0
176
     1
1001
ACAD
1000
AcDbSavedByObjectVersion
1070
     0
  0
VISUALSTYLE
  5
F1
102
{ACAD_REACTORS
330
EF
102
}
330
EF
100
AcDbVisualStyle
  2

 70
     1
177
     3
291
     1
 70
    58
 90
        2
176
     1
 90
        1
176
     1
 90
        1
176
     1
 90
        2
176
     1
 40
0.6
176
     1
 40
30.0
176
     1
 62
     7
420
 16777215
176
     1
 90
        1
176
     1
 90
        0
176
     1
 62
     7
176
     1
 62
   257
176
     1
 90
        1
176
     1
 90
        1
176
     1
 40
1.0
176
     1
 90
        0
176
     1
 62
   257
176
     1
 40
1.0
176
     1
 90
        1
176
     1
 90
        6
176
     1
 90
        2
176
     1
 62
     7
176
     1
 90
        5
176
     1
 90
        0
176
     1
 90
        0
176
     1
290
     0
176
     1
 90
       13
176
     1
 40
0.0
176
     1
 90
        0
176
     1
290
     0
176
     1
290
     1
176
     1
290
     1
176
     1
290
     0
176
     1
290
     0
176
     1
290
     0
176
     1
290
     0
176
     1
290
     0
176
     1
290
     0
176
     1
 90
       50
176
     1
 40
0.0
176
     1
 40
1.0
176
     1
 90
        0
176
     1
 62
    18
420
        0
176
     1
 90
       50
176
     1
 90
        3
176
     1
 62
     5
420
      255
176
     1
290
     0
176
     1
 90
       50
176
     1
 90
       50
176
     1
 90
       50
176
     1
290
     0
176
     1
 90
       50
176
     1
 62
   256
176
     0
 40
1.0
176
     0
 90
        2
176
     1
  1
strokes_ogs.tif
176
     1
290
     0
176
     1
 40
1.0
176
     1
 40
1.0
176
     1
1001
ACAD
1000
AcDbSavedByObjectVersion
1070
     0
  0
VISUALSTYLE
  5
F2
102
{ACAD_REACTORS
330
EF
102
}
330
EF
100
AcDbVisualStyle
  2

 70
     2
177
     3
291
     1
 70
    58
 90
        2
176
     1
 90
        2
176
     1
 90
        1
176
     1
 90
        2
176
     1
 40
0.6
176
     1
 40
30.0
176
     1
 62
     7
420
 16777215
176
     1
 90
        0
176
     1
 90
        0
176
     1
 62
     7
176
     1
 62
   257
176
     1
 90
        1
176
     1
 90
        1
176
     1
 40
1.0
176
     1
 90
        0
176
     1
 62
     7
176
     1
 40
1.0
176
     1
 90
        1
176
     1
 90
        6
176
     1
 90
        2
176
     1
 62
     7
176
     1
 90
        5
176
     1
 90
        0
176
     1
 90
        0
176
     1
290
     0
176
     1
 90
       13
176
     1
 40
0.0
176
     1
 90
        0
176
     1
290
     0
176
     1
290
     1
176
     1
290
     1
176
     1
290
     0
176
     1
290
     0
176
     1
290
     0
176
     1
290
     0
176
     1
290
     0
176
     1
290
     0
176
     1
 90
       50
176
     1
 40
0.0
176
     1
 40
1.0
176
     1
 90
        0
176
     1
 62
    18
420
        0
176
     1
 90
       50
176
     1
 90
        3
176
     1
 62
     5
420
      255
176
     1
290
     0
176
     1
 90
       50
176
     1
 90
       50
176
     1
 90
       50
176
     1
290
     0
176
     1
 90
       50
176
     1
 62
   256
176
     0
 40
1.0
176
     0
 90
        2
176
     1
  1
strokes_ogs.tif
176
     1
290
     0
176
     1
 40
1.0
176
     1
 40
1.0
176
     1
1001
ACAD
1000
AcDbSavedByObjectVersion
1070
     0
  0
VISUALSTYLE
  5
F3
102
{ACAD_REACTORS
330
EF
102
}
330
EF
100
AcDbVisualStyle
  2

 70
     3
177
     3
291
     1
 70
    58
 90
        2
176
     1
 90
        2
176
     1
 90
        1
176
     1
 90
        2
176
     1
 40
0.6
176
     1
 40
30.0
176
     1
 62
     7
420
 16777215
176
     1
 90
        1
176
     1
 90
        0
176
     1
 62
     7
176
     1
 62
   257
176
     1
 90
        1
176
     1
 90
        1
176
     1
 40
1.0
176
     1
 90
        0
176
     1
 62
   257
176
     1
 40
1.0
176
     1
 90
        1
176
     1
 90
        6
176
     1
 90
        2
176
     1
 62
     7
176
     1
 90
        5
176
     1
 90
        0
176
     1
 90
        0
176
     1
290
     0
176
     1
 90
       13
176
     1
 40
0.0
176
     1
 90
        0
176
     1
290
     0
176
     1
290
     1
176
     1
290
     1
176
     1
290
     0
176
     1
290
     0
176
     1
290
     0
176
     1
290
     0
176
     1
290
     0
176
     1
290
     0
176
     1
 90
       50
176
     1
 40
0.0
176
     1
 40
1.0
176
     1
 90
        0
176
     1
 62
    18
420
        0
176
     1
 90
       50
176
     1
 90
        3
176
     1
 62
     5
420
      255
176
     1
290
     0
176
     1
 90
       50
176
     1
 90
       50
176
     1
 90
       50
176
     1
290
     0
176
     1
 90
       50
176
     1
 62
   256
176
     0
 40
1.0
176
     0
 90
        2
176
     1
  1
strokes_ogs.tif
176
     1
290
     0
176
     1
 40
1.0
176
     1
 40
1.0
176
     1
1001
ACAD
1000
AcDbSavedByObjectVersion
1070
     0
  0
VISUALSTYLE
  5
F7
102
{ACAD_REACTORS
330
EF
102
}
330
EF
100
AcDbVisualStyle
  2

 70
     6
177
     3
291
     0
 70
    58
 90
        1
176
     1
 90
        2
176
     1
 90
        2
176
     1
 90
        0
176
     1
 40
0.6
176
     1
 40
30.0
176
     1
 62
     7
420
 16777215
176
     1
 90
        2
176
     1
 90
        2
176
     1
 62
     7
176
     1
 62
   257
176
     1
 90
        2
176
     1
 90
        1
176
     1
 40
40.0
176
     1
 90
        0
176
     1
 62
   257
176
     1
 40
1.0
176
     1
 90
        1
176
     1
 90
        6
176
     1
 90
        2
176
     1
 62
     7
176
     1
 90
        3
176
     1
 90
        0
176
     1
 90
        0
176
     1
290
     0
176
     1
 90
        1
176
     1
 40
0.0
176
     1
 90
        0
176
     1
290
     0
176
     1
290
     1
176
     1
290
     1
176
     1
290
     0
176
     1
290
     0
176
     1
290
     0
176
     1
290
     0
176
     1
290
     0
176
     1
290
     0
176
     1
 90
       50
176
     1
 40
0.0
176
     1
 40
1.0
176
     1
 90
        0
176
     1
 62
    18
420
        0
176
     1
 90
       50
176
     1
 90
        3
176
     1
 62
     5
420
      255
176
     1
290
     0
176
     1
 90
       50
176
     1
 90
       50
176
     1
 90
       50
176
     1
290
     0
176
     1
 90
       50
176
     1
 62
   256
176
     0
 40
1.0
176
     0
 90
        2
176
     1
  1
strokes_ogs.tif
176
     1
290
     0
176
     1
 40
1.0
176
     1
 40
1.0
176
     1
1001
ACAD
1000
AcDbSavedByObjectVersion
1070
     0
  0
VISUALSTYLE
  5
1E4
102
{ACAD_REACTORS
330
EF
102
}
330
EF
100
AcDbVisualStyle
  2

 70
    20
177
     3
291
     1
 70
    58
 90
        2
176
     0
 90
        2
176
     0
 90
        0
176
     0
 90
        0
176
     0
 40
0.6
176
     0
 40
30.0
176
     0
 62
     7
420
 16777215
176
     0
 90
        1
176
     0
 90
        4
176
     0
 62
     7
176
     0
 62
   257
176
     0
 90
        1
176
     0
 90
        1
176
     0
 40
1.0
176
     0
 90
       10
176
     2
 62
     7
176
     0
 40
1.0
176
     0
 90
        1
176
     0
 90
        6
176
     0
 90
        2
176
     0
 62
     7
176
     0
 90
        5
176
     0
 90
        0
176
     0
 90
        0
176
     0
290
     0
176
     0
 90
        1
176
     0
 40
0.0
176
     0
 90
        0
176
     0
290
     0
176
     1
290
     1
176
     1
290
     1
176
     1
290
     0
176
     1
290
     0
176
     1
290
     0
176
     1
290
     0
176
     1
290
     0
176
     1
290
     0
176
     1
 90
       50
176
     1
 40
0.0
176
     1
 40
1.0
176
     1
 90
        0
176
     1
 62
    18
420
        0
176
     1
 90
       50
176
     1
 90
        3
176
     1
 62
     5
420
      255
176
     1
290
     0
176
     1
 90
       50
176
     1
 90
       50
176
     1
 90
       50
176
     1
290
     0
176
     1
 90
       50
176
     1
 62
   256
176
     0
 40
1.0
176
     0
 90
        2
176
     1
  1
strokes_ogs.tif
176
     1
290
     0
176
     1
 40
1.0
176
     1
 40
1.0
176
     1
1001
ACAD
1000
AcDbSavedByObjectVersion
1070
     0
  0
VISUALSTYLE
  5
FD
102
{ACAD_REACTORS
330
EF
102
}
330
EF
100
AcDbVisualStyle
  2

 70
    14
177
     3
291
     1
 70
    58
 90
        2
176
     1
 90
        2
176
     1
 90
        1
176
     1
 90
        0
176
     1
 40
0.6
176
     1
 40
30.0
176
     1
 62
     7
420
 16777215
176
     1
 90
        1
176
     1
 90
        4
176
     1
 62
     7
176
     1
 62
   257
176
     1
 90
        7
176
     1
 90
        7
176
     1
 40
1.0
176
     1
 90
        8
176
     1
 62
     7
176
     1
 40
1.0
176
     1
 90
        1
176
     1
 90
        6
176
     1
 90
        2
176
     1
 62
     7
176
     1
 90
        5
176
     1
 90
        0
176
     1
 90
        0
176
     1
290
     0
176
     1
 90
        1
176
     1
 40
0.0
176
     1
 90
        0
176
     1
290
     0
176
     1
290
     1
176
     1
290
     1
176
     1
290
     0
176
     1
290
     0
176
     1
290
     0
176
     1
290
     0
176
     1
290
     0
176
     1
290
     0
176
     1
 90
       50
176
     1
 40
0.0
176
     1
 40
1.0
176
     1
 90
        0
176
     1
 62
    18
420
        0
176
     1
 90
       50
176
     1
 90
        3
176
     1
 62
     5
420
      255
176
     1
290
     0
176
     1
 90
       50
176
     1
 90
       50
176
     1
 90
       50
176
     1
290
     0
176
     1
 90
       50
176
     1
 62
   256
176
     0
 40
1.0
176
     0
 90
        2
176
     1
  1
strokes_ogs.tif
176
     1
290
     0
176
     1
 40
1.0
176
     1
 40
1.0
176
     1
1001
ACAD
1000
AcDbSavedByObjectVersion
1070
     0
  0
VISUALSTYLE
  5
1E5
102
{ACAD_REACTORS
330
EF
102
}
330
EF
100
AcDbVisualStyle
  2

 70
    21
177
     3
291
     1
 70
    58
 90
        2
176
     0
 90
        2
176
     0
 90
        0
176
     0
 90
        0
176
     0
 40
0.6
176
     0
 40
30.0
176
     0
 62
     7
420
 16777215
176
     0
 90
        1
176
     0
 90
        4
176
     0
 62
     7
176
     0
 62
   257
176
     0
 90
        1
176
     0
 90
        1
176
     0
 40
1.0
176
     0
 90
        9
176
     2
 62
     7
176
     0
 40
1.0
176
     0
 90
        1
176
     0
 90
        6
176
     0
 90
        2
176
     0
 62
     7
176
     0
 90
        5
176
     0
 90
        0
176
     0
 90
        0
176
     0
290
     0
176
     0
 90
        1
176
     0
 40
0.0
176
     0
 90
        0
176
     0
290
     0
176
     1
290
     1
176
     1
290
     1
176
     1
290
     0
176
     1
290
     0
176
     1
290
     0
176
     1
290
     0
176
     1
290
     0
176
     1
290
     0
176
     1
 90
       50
176
     1
 40
0.0
176
     1
 40
1.0
176
     1
 90
        0
176
     1
 62
    18
420
        0
176
     1
 90
       50
176
     1
 90
        3
176
     1
 62
     5
420
      255
176
     1
290
     0
176
     1
 90
       50
176
     1
 90
       50
176
     1
 90
       50
176
     1
290
     0
176
     1
 90
       50
176
     1
 62
   256
176
     0
 40
1.0
176
     0
 90
        2
176
     1
  1
strokes_ogs.tif
176
     1
290
     0
176
     1
 40
1.0
176
     1
 40
1.0
176
     1
1001
ACAD
1000
AcDbSavedByObjectVersion
1070
     0
  0
VISUALSTYLE
  5
F9
102
{ACAD_REACTORS
330
EF
102
}
330
EF
100
AcDbVisualStyle
  2

 70
     8
177
     3
291
     0
 70
    58
 90
        2
176
     1
 90
        3
176
     1
 90
        0
176
     1
 90
        2
176
     1
 40
0.6
176
     1
 40
30.0
176
     1
 62
     7
420
 16777215
176
     1
 90
        0
176
     1
 90
        0
176
     1
 62
     7
176
     1
 62
   257
176
     1
 90
        1
176
     1
 90
        1
176
     1
 40
1.0
176
     1
 90
        8
176
     1
 62
   257
176
     1
 40
1.0
176
     1
 90
        1
176
     1
 90
        6
176
     1
 90
        2
176
     1
 62
     7
176
     1
 90
        3
176
     1
 90
        0
176
     1
 90
        0
176
     1
290
     0
176
     1
 90
       13
176
     1
 40
0.0
176
     1
 90
        0
176
     1
290
     0
176
     1
290
     1
176
     1
290
     1
176
     1
290
     0
176
     1
290
     0
176
     1
290
     0
176
     1
290
     0
176
     1
290
     0
176
     1
290
     0
176
     1
 90
       50
176
     1
 40
0.0
176
     1
 40
1.0
176
     1
 90
        0
176
     1
 62
    18
420
        0
176
     1
 90
       50
176
     1
 90
        3
176
     1
 62
     5
420
      255
176
     1
290
     0
176
     1
 90
       50
176
     1
 90
       50
176
     1
 90
       50
176
     1
290
     0
176
     1
 90
       50
176
     1
 62
   256
176
     0
 40
1.0
176
     0
 90
        2
176
     1
  1
strokes_ogs.tif
176
     1
290
     0
176
     1
 40
1.0
176
     1
 40
1.0
176
     1
1001
ACAD
1000
AcDbSavedByObjectVersion
1070
     0
  0
VISUALSTYLE
  5
1F3
102
{ACAD_REACTORS
330
EF
102
}
330
EF
100
AcDbVisualStyle
  2

 70
    27
177
     3
291
     0
 70
    58
 90
        2
176
     1
 90
        2
176
     1
 90
        1
176
     1
 90
        2
176
     1
 40
0.6
176
     1
 40
30.0
176
     1
 62
     7
420
 16777215
176
     1
 90
        0
176
     1
 90
        4
176
     1
 62
     7
176
     1
 62
   257
176
     1
 90
        1
176
     1
 90
        1
176
     1
 40
1.0
176
     1
 90
        8
176
     1
 62
   257
176
     1
 40
1.0
176
     1
 90
        1
176
     1
 90
        6
176
     1
 90
        2
176
     1
 62
     8
420
  7895160
176
     1
 90
        3
176
     1
 90
        0
176
     1
 90
        0
176
     1
290
     0
176
     1
 90
        5
176
     1
 40
0.0
176
     1
 90
        0
176
     1
290
     0
176
     1
290
     1
176
     1
290
     1
176
     1
290
     0
176
     1
290
     0
176
     1
290
     0
176
     1
290
     0
176
     1
290
     0
176
     1
290
     0
176
     1
 90
       50
176
     1
 40
0.0
176
     1
 40
1.0
176
     1
 90
        0
176
     1
 62
    18
420
        0
176
     1
 90
       50
176
     1
 90
        3
176
     1
 62
     5
420
      255
176
     1
290
     0
176
     1
 90
       50
176
     1
 90
       50
176
     1
 90
       50
176
     1
290
     0
176
     1
 90
       50
176
     1
 62
   256
176
     0
 40
1.0
176
     0
 90
        2
176
     1
  1
strokes_ogs.tif
176
     1
290
     0
176
     1
 40
1.0
176
     1
 40
1.0
176
     1
1001
ACAD
1000
AcDbSavedByObjectVersion
1070
     0
  0
VISUALSTYLE
  5
1F2
102
{ACAD_REACTORS
330
EF
102
}
330
EF
100
AcDbVisualStyle
  2

 70
    26
177
     3
291
     0
 70
    58
 90
        2
176
     1
 90
        2
176
     1
 90
        1
176
     1
 90
        2
176
     1
 40
0.6
176
     1
 40
30.0
176
     1
 62
     7
420
 16777215
176
     1
 90
        1
176
     1
 90
        2
176
     1
 62
     7
176
     1
 62
   257
176
     1
 90
        2
176
     1
 90
        1
176
     1
 40
1.0
176
     1
 90
        8
176
     1
 62
   257
176
     1
 40
1.0
176
     1
 90
        1
176
     1
 90
        6
176
     1
 90
        2
176
     1
 62
     7
176
     1
 90
        3
176
     1
 90
        0
176
     1
 90
        0
176
     1
290
     0
176
     1
 90
        5
176
     1
 40
0.0
176
     1
 90
        0
176
     1
290
     0
176
     1
290
     1
176
     1
290
     1
176
     1
290
     0
176
     1
290
     0
176
     1
290
     0
176
     1
290
     0
176
     1
290
     0
176
     1
290
     0
176
     1
 90
       50
176
     1
 40
0.0
176
     1
 40
1.0
176
     1
 90
        0
176
     1
 62
    18
420
        0
176
     1
 90
       50
176
     1
 90
        3
176
     1
 62
     5
420
      255
176
     1
290
     0
176
     1
 90
       50
176
     1
 90
       50
176
     1
 90
       50
176
     1
290
     0
176
     1
 90
       50
176
     1
 62
   256
176
     0
 40
1.0
176
     0
 90
        2
176
     1
  1
strokes_ogs.tif
176
     1
290
     0
176
     1
 40
1.0
176
     1
 40
1.0
176
     1
1001
ACAD
1000
AcDbSavedByObjectVersion
1070
     0
  0
VISUALSTYLE
  5
1EF
102
{ACAD_REACTORS
330
EF
102
}
330
EF
100
AcDbVisualStyle
  2

 70
    23
177
     3
291
     0
 70
    58
 90
        2
176
     1
 90
        2
176
     1
 90
        3
176
     1
 90
        0
176
     1
 40
0.6
176
     1
 40
30.0
176
     1
 62
     7
420
 16777215
176
     1
 90
        2
176
     1
 90
        2
176
     1
 62
     7
176
     1
 62
     7
176
     1
 90
        1
176
     1
 90
        1
176
     1
 40
40.0
176
     1
 90
        8
176
     1
 62
     7
176
     1
 40
1.0
176
     1
 90
        1
176
     1
 90
        6
176
     1
 90
        2
176
     1
 62
     7
176
     1
 90
        3
176
     1
 90
        0
176
     1
 90
        0
176
     1
290
     0
176
     1
 90
        1
176
     1
 40
0.0
176
     1
 90
        0
176
     1
290
     0
176
     1
290
     1
176
     1
290
     1
176
     1
290
     0
176
     1
290
     0
176
     1
290
     0
176
     1
290
     0
176
     1
290
     0
176
     1
290
     0
176
     1
 90
       50
176
     1
 40
0.0
176
     1
 40
1.0
176
     1
 90
        0
176
     1
 62
    18
420
        0
176
     1
 90
       50
176
     1
 90
        3
176
     1
 62
     5
420
      255
176
     1
290
     0
176
     1
 90
       50
176
     1
 90
       50
176
     1
 90
       50
176
     1
290
     0
176
     1
 90
       50
176
     1
 62
   256
176
     0
 40
1.0
176
     0
 90
        2
176
     1
  1
strokes_ogs.tif
176
     1
290
     0
176
     1
 40
1.0
176
     1
 40
1.0
176
     1
1001
ACAD
1000
AcDbSavedByObjectVersion
1070
     0
  0
VISUALSTYLE
  5
1F0
102
{ACAD_REACTORS
330
EF
102
}
330
EF
100
AcDbVisualStyle
  2

 70
    24
177
     3
291
     0
 70
    58
 90
        1
176
     1
 90
        2
176
     1
 90
        2
176
     1
 90
        0
176
     1
 40
0.6
176
     1
 40
30.0
176
     1
 62
     7
420
 16777215
176
     1
 90
        2
176
     1
 90
        2
176
     1
 62
     7
176
     1
 62
     7
176
     1
 90
        1
176
     1
 90
        1
176
     1
 40
40.0
176
     1
 90
       11
176
     1
 62
     7
176
     1
 40
1.0
176
     1
 90
        1
176
     1
 90
        6
176
     1
 90
        2
176
     1
 62
     7
176
     1
 90
        6
176
     1
 90
        0
176
     1
 90
        0
176
     1
290
     0
176
     1
 90
        1
176
     1
 40
0.0
176
     1
 90
        0
176
     1
290
     0
176
     1
290
     1
176
     1
290
     1
176
     1
290
     0
176
     1
290
     0
176
     1
290
     0
176
     1
290
     0
176
     1
290
     0
176
     1
290
     0
176
     1
 90
       50
176
     1
 40
0.0
176
     1
 40
1.0
176
     1
 90
        0
176
     1
 62
    18
420
        0
176
     1
 90
       50
176
     1
 90
        3
176
     1
 62
     5
420
      255
176
     1
290
     0
176
     1
 90
       50
176
     1
 90
       50
176
     1
 90
       50
176
     1
290
     0
176
     1
 90
       50
176
     1
 62
   256
176
     0
 40
1.0
176
     0
 90
        2
176
     1
  1
strokes_ogs.tif
176
     1
290
     0
176
     1
 40
1.0
176
     1
 40
1.0
176
     1
1001
ACAD
1000
AcDbSavedByObjectVersion
1070
     0
  0
VISUALSTYLE
  5
FC
102
{ACAD_REACTORS
330
EF
102
}
330
EF
100
AcDbVisualStyle
  2

 70
    13
177
     3
291
     1
 70
    58
 90
        2
176
     1
 90
        2
176
     1
 90
        1
176
     1
 90
        0
176
     1
 40
0.6
176
     1
 40
30.0
176
     1
 62
     7
420
 16777215
176
     1
 90
        1
176
     1
 90
        4
176
     1
 62
     7
176
     1
 62
   257
176
     1
 90
        1
176
     1
 90
        1
176
     1
 40
1.0
176
     1
 90
       12
176
     1
 62
     7
176
     1
 40
1.0
176
     1
 90
        1
176
     1
 90
        6
176
     1
 90
        2
176
     1
 62
     7
176
     1
 90
        5
176
     1
 90
        0
176
     1
 90
        0
176
     1
290
     0
176
     1
 90
        1
176
     1
 40
0.0
176
     1
 90
        0
176
     1
290
     0
176
     1
290
     1
176
     1
290
     1
176
     1
290
     0
176
     1
290
     0
176
     1
290
     0
176
     1
290
     0
176
     1
290
     0
176
     1
290
     0
176
     1
 90
       50
176
     1
 40
0.0
176
     1
 40
1.0
176
     1
 90
        0
176
     1
 62
    18
420
        0
176
     1
 90
       50
176
     1
 90
        3
176
     1
 62
     5
420
      255
176
     1
290
     0
176
     1
 90
       50
176
     1
 90
       50
176
     1
 90
       50
176
     1
290
     0
176
     1
 90
       50
176
     1
 62
   256
176
     0
 40
1.0
176
     0
 90
        2
176
     1
  1
strokes_ogs.tif
176
     1
290
     0
176
     1
 40
1.0
176
     1
 40
1.0
176
     1
1001
ACAD
1000
AcDbSavedByObjectVersion
1070
     0
  0
VISUALSTYLE
  5
F6
102
{ACAD_REACTORS
330
EF
102
}
330
EF
100
AcDbVisualStyle
  2

 70
     5
177
     3
291
     0
 70
    58
 90
        0
176
     1
 90
        2
176
     1
 90
        0
176
     1
 90
        0
176
     1
 40
0.6
176
     1
 40
30.0
176
     1
 62
     7
420
 16777215
176
     1
 90
        1
176
     1
 90
        4
176
     1
 62
     7
176
     1
 62
   257
176
     1
 90
        1
176
     1
 90
        1
176
     1
 40
1.0
176
     1
 90
        0
176
     1
 62
   257
176
     1
 40
1.0
176
     1
 90
        1
176
     1
 90
        6
176
     1
 90
        2
176
     1
 62
     7
176
     1
 90
        3
176
     1
 90
        0
176
     1
 90
        0
176
     1
290
     0
176
     1
 90
        1
176
     1
 40
0.0
176
     1
 90
        0
176
     1
290
     0
176
     1
290
     1
176
     1
290
     1
176
     1
290
     0
176
     1
290
     0
176
     1
290
     0
176
     1
290
     0
176
     1
290
     0
176
     1
290
     0
176
     1
 90
       50
176
     1
 40
0.0
176
     1
 40
1.0
176
     1
 90
        0
176
     1
 62
    18
420
        0
176
     1
 90
       50
176
     1
 90
        3
176
     1
 62
     5
420
      255
176
     1
290
     0
176
     1
 90
       50
176
     1
 90
       50
176
     1
 90
       50
176
     1
290
     0
176
     1
 90
       50
176
     1
 62
   256
176
     0
 40
1.0
176
     0
 90
        2
176
     1
  1
strokes_ogs.tif
176
     1
290
     0
176
     1
 40
1.0
176
     1
 40
1.0
176
     1
1001
ACAD
1000
AcDbSavedByObjectVersion
1070
     0
  0
VISUALSTYLE
  5
1F1
102
{ACAD_REACTORS
330
EF
102
}
330
EF
100
AcDbVisualStyle
  2

 70
    25
177
     3
291
     0
 70
    58
 90
        2
176
     1
 90
        2
176
     1
 90
        1
176
     1
 90
        1
176
     1
 40
0.5
176
     1
 40
30.0
176
     1
 62
     7
420
 16777215
176
     1
 90
        1
176
     1
 90
        0
176
     1
 62
     7
176
     1
 62
   257
176
     1
 90
        1
176
     1
 90
        1
176
     1
 40
1.0
176
     1
 90
        8
176
     1
 62
     7
176
     1
 40
1.0
176
     1
 90
        1
176
     1
 90
        6
176
     1
 90
        2
176
     1
 62
     7
176
     1
 90
        3
176
     1
 90
        0
176
     1
 90
        0
176
     1
290
     0
176
     1
 90
       13
176
     1
 40
0.0
176
     1
 90
        0
176
     1
290
     0
176
     1
290
     1
176
     1
290
     1
176
     1
290
     0
176
     1
290
     0
176
     1
290
     0
176
     1
290
     0
176
     1
290
     0
176
     1
290
     0
176
     1
 90
       50
176
     1
 40
0.0
176
     1
 40
1.0
176
     1
 90
        0
176
     1
 62
    18
420
        0
176
     1
 90
       50
176
     1
 90
        3
176
     1
 62
     5
420
      255
176
     1
290
     0
176
     1
 90
       50
176
     1
 90
       50
176
     1
 90
       50
176
     1
290
     0
176
     1
 90
       50
176
     1
 62
   256
176
     0
 40
1.0
176
     0
 90
        2
176
     1
  1
strokes_ogs.tif
176
     1
290
     0
176
     1
 40
1.0
176
     1
 40
1.0
176
     1
1001
ACAD
1000
AcDbSavedByObjectVersion
1070
     0
  0
DICTIONARYVAR
  5
146
102
{ACAD_REACTORS
330
5E
102
}
330
5E
100
DictionaryVariables
280
     0
  1
1:1
  0
DICTIONARYVAR
  5
259
102
{ACAD_REACTORS
330
5E
102
}
330
5E
100
DictionaryVariables
280
     0
  1
3.500000
  0
DICTIONARYVAR
  5
25A
102
{ACAD_REACTORS
330
5E
102
}
330
5E
100
DictionaryVariables
280
     0
  1
acadiso.lin
  0
DICTIONARYVAR
  5
145
102
{ACAD_REACTORS
330
5E
102
}
330
5E
100
DictionaryVariables
280
     0
  1
STANDARD
  0
DICTIONARYVAR
  5
84
102
{ACAD_REACTORS
330
5E
102
}
330
5E
100
DictionaryVariables
280
     0
  1
STANDARD
  0
DICTIONARYVAR
  5
227
102
{ACAD_REACTORS
330
5E
102
}
330
5E
100
DictionaryVariables
280
     0
  1
Metric50
  0
DICTIONARYVAR
  5
228
102
{ACAD_REACTORS
330
5E
102
}
330
5E
100
DictionaryVariables
280
     0
  1
Metric50
  0
DICTIONARYVAR
  5
5F
102
{ACAD_REACTORS
330
5E
102
}
330
5E
100
DictionaryVariables
280
     0
  1
2
  0
DICTIONARYVAR
  5
63
102
{ACAD_REACTORS
330
5E
102
}
330
5E
100
DictionaryVariables
280
     0
  1
1
  0
DICTIONARYVAR
  5
1AE
102
{ACAD_REACTORS
330
5E
102
}
330
5E
100
DictionaryVariables
280
     0
  1
0
  0
DICTIONARYVAR
  5
1AF
102
{ACAD_REACTORS
330
5E
102
}
330
5E
100
DictionaryVariables
280
     0
  1
0
  0
DICTIONARY
  5
205
330
22
100
AcDbDictionary
280
     1
281
     1
  0
DICTIONARY
  5
1F9
330
ED
100
AcDbDictionary
280
     1
281
     1
  3
FBXASSET
360
1FA
  0
DICTIONARY
  5
1F7
330
EC
100
AcDbDictionary
280
     1
281
     1
  3
FBXASSET
360
1F8
  0
DICTIONARY
  5
173
330
EE
100
AcDbDictionary
280
     1
281
     1
  3
BUMPTILE
360
175
  3
DIFFUSETILE
360
174
  3
FBXASSET
360
1FB
  3
OPACITYTILE
360
176
  3
REFLECTIONTILE
360
177
  0
DICTIONARY
  5
162
330
7F
100
AcDbDictionary
280
     1
281
     1
  3
ACAD_ROUNDTRIP_2008_TABLESTYLE_CELLSTYLEMAP
360
4E1
  0
XRECORD
  5
1FA
102
{ACAD_REACTORS
330
1F9
102
}
330
1F9
100
AcDbXrecord
280
     1
 70
     1
 90
429727718
  1
D62C5603-E3A1-4AEA-B7FB-FE5D8D0755AF
310
504B03040A0000080000CC70623B3DEE336E79000000790000001B0000006175746F6465736B2D64657369676E2D7061636B6167652E786D6C3C3F786D6C2076657273696F6E3D22312E302220656E636F64696E673D227574662D3822203F3E3C666F726D6174733E3C666F726D61743E687474703A2F2F736368656D612E
310
6175746F6465736B2E636F6D2F64657369676E2D7061636B6167652F323030393C2F666F726D61743E3C2F666F726D6174733E504B0304140006080800CC70623BD486FD9CA0000000F4000000130000005B436F6E74656E745F54797065735D2E786D6C7D8EC10E82300C865F65E91D8A1E8C310C0EEA1BF002731658846E
310
D98AC1B77784ABF1D8FE5FBFBF75BBCE937A534CCEB38643598122B6FEE978D0B0485F9C41B54DDD7D022595594E1A469170414C76A4D9A4D207E29CF43ECE46F218070CC6BECC4078ACAA135ACF422C856C0E68EA1BF5669944DDD7BCDE7B1F8E415D77AECB980613C2E4AC91FC167A2B244592486606FC29C8FD7F045B9A
310
EF7053A7E60B504B0304140006080800CC70623B853B8169EB0000007C01000008000000636F72652E786D6C8D90416EC3201045AF62CDB6C206821CC7C244919D9CA01740401C94182C03558F5F9C3852BBEB6A467FFE9B197D7EFC9E1EC5975982F5AE035262288C535E5B377690E21535501C055FBC8FBF6C503839990E
310
5619041F179FE64D52DE45E362569DD7661365082642A11EB9E920A89B99642953CC8E702F67A9EE7234257977194EC9EAE275C4EABCCF5EAD5940D4AC6F0E35A568B8F43562CD7046CD199FD07E60174276A7BE677B5EADB0E0D14EEFFB6A31321A0D82627C4084204C3F096B71DD52F6819B16635EADF63F509AF53FA164
310
5DDCD1EDDD17164090FCC8732078B56691CB33A85CD7DCC40F504B0304140006080800CC70623B55019EA25F0000007C00000007000000636E782E786D6C4DCB3B0E80201045D1AD90E915ED2CF8AC45050C11660C8261F98AB1B07AC9C97D42D718D865D3E909258CFD00CCE24AC6E326A164D74DC0B4128928FF32603847
310
2BA13128B1252AC747C6BAB984FC68F0B87FE8960A5C09FE86CFB69FBA01504B0304140006080800CC70623BDBABAAF470010000D40300000C0000006662782F636F72652E786D6CC553D16E823014FD95A6AF4B694182CC941A83FA05FB810A9511A125A5257EFE2E82712ECEB8A7F100CD39F7F69E734AF9FADC366850B6
310
AF8DCE7018308C942E4C59EB2AC3DE1D498AD15A706B8CFB56869196ADCAF00863C12B6B7C374385D14E6907A836A59A41D9F7CA615434B0C8705F7CAA5606D23BA8E84F41278B93AC54100640439DE0BDB320004D43C63716C7C399D30917DCFBBA9CD9BA8469F5B156168B24CED3F7248AC8769F27244EB73B92EED8862C
310
B7F13E0C179B3C8F979C8ECD82BBBABDAA2BAC924E9558448CBD9330242CFA08E3154B5651FCC6D215639C8EE5774DBE2B5F6CF2B5768B68963BB5F5588420E442FC700B1139D4CB01F450C1E918227C2E09DF070D8140C84E1E9AAB8F1340832A9CB13130A5F1376A908D57309505ECF2A0DF179C4E9D30F5B239B87E3823
310
7A79C6F31DE1A8A5AEC08474B03C7837EAE4938639B44E5932B833D2C6B6B279CDC613877FA26EE21F4A2A4C63EC7F29A2F301D1F9F7A0E37D145F504B0304140006080800CC70623B9C113CC27E0000009D0000000B0000006662782F636E782E786D6C4DCCDF0A83201C86E15B91DFB94BFB330DD428C8FB886521330DA7
310
6397BF1A1DECE883878F57749FCDA1B7892F1BBC047A23808C7F84D9FA55424E0BE6803A256208E9EF06C84F9B91703228B1C690F78B66B34CD9A5439DF5CF0BFBF65E35BCA1B8D6A5C6F540381E886698B5741C695F9503EBA150A2F8958E3DC3EA0B504B0304140006080800CC70623B7DF2F77C2A010000120200003100
310
00006662782F41393633353835312D344632462D344230382D423046372D3739314545314133324237412F636F72652E786D6C8D51DB8EC22014FC15C2939B0D2DB4B45643319AE817EC0F6041255A68B86CFCFC856D4D76DF7CE190393373060EDB3DC707F856CE6B6B7A480A0C81328395DA5C7B18C3057510EC3873D686
310
3F34088C18550F330C39BB3A1BA7051AAC09CA84841A2BD5020AEF55806078A44B0FFD7053A328440C89E1EFC52486BBB8AA8214A99D789CF9E05200300FC927E4FB4D5B375D43103D5527440FB843077C5AA3F5861C8F645F5787F59E95B390B318B55CE45AA638FAA2957BD7248B390B7A7CC51F9C124149C82B8C378810
310
84AB2F42B7B8DD56F413775B8C5999E9FF4471926F8AA236A1AE96B8B3CC434E5839373893369E1FAF30EA395917409EB7F26AF8801C171837A4A6AC9C89E9F9C9B1A58BA30FD6A5EF5DDDCF894B9AD9B6A59C957943A9FCAE2FD5BC4DFE03504B0304140006080800CC70623BAD7543B64E01000033030000300000006662
310
782F41393633353835312D344632462D344230382D423046372D3739314545314133324237412F636E782E786D6CD593CD6EC32010845F0571AD6CE3D48AD20813A9873E410FBD12D82434182C7EAAE6EDBB2424CD25871E7B41D6EC30B3FA84F9E67BB2E40B4234DE8DB46F1925E094D7C6ED479AD3AE5951B2113C789FEE
310
6C943839C1488B4C05DF079FE72A69D8C96C13AAD6B8631503449F83828872B949AC57D26200B826A308D316B4064D6E46FCDA41C05550DC9E483A00797BFD207EFB092A45DE9514C1BBD22178396BD39D891265658C238DEA00936C654E5E433CB65A26D9F6EDB5EBC14EBF49A45CB856E66048291F6939A9A81BB5C89177
310
38143CA680F4AA299D66A042CEB3354A2684DC9D8D178FE0D9B8B41CAAD720F880EE7EF93C0C18769E099ECC04D5A102C8049A8A05632F4DDF376CF1DE0F6BB65C2F8627B65A33C6BB62177CEBBDAD973006829F89F22E814B54F4BC2BE347F8AA8F681390B50FA73F804400B5F542E796F19FF974E7F78DB802FE05E20750
310
4B0304140006080800CC70623BE75B7789680500003C100000340000006662782F41393633353835312D344632462D344230382D423046372D3739314545314133324237412F6F626A656374732E786D6CAD575B8F9B3818FD2B887D06C22499CB8AA1CA655245D5B455A356FB305264C061D8018C6C3393D95FBFC7600890
310
A4CD5EF210B0B1BFEBF98E3F7B1FF6596ABC522E1296DF9BAE3D320D9A872C4AF2F8DE2CE5CEBA358D0FBEC719939D65A691938CDE9B6ADAF4BD98B3B2D05311DD91329583D9D5FC0F438434A7A611A644887B5384CF34233629258BA878B12322891DEFF6B66BD70BFB62634E8AE781D082709A4B588AF91C528CDA28B73F
310
1C998EEF39EABBEFA97FBD6A7C7E9553F9D3D79FE442923C3C523610337627CB87ABE99D359D4CC6D6E4FACAB5E6ABF9D2726FC6A3C5F56271377BB88362213924694B38DD99FE47C48627A1E7D49F5A8BB5E1A74C0A599ED3B0F21F1E56366B89112D681E218F0915D0D6F17AD41FBA2A369DCF6335D62ABBD39779D5DDD1
310
11D4D8DE3CBB96B2E04FB8202E41051754A1AA8E8F76B4C6DFE810B580B1547F4B84911149794252234D024EF8BBE963A95AE27B3D310A9D5C215C7960FAEE415ED75694C6AFB17BCACA5D99A60A9AA65F217B0BFC53292ACB92BF283FAD0D3621576592CB5BED907C2FA8E9DF794E35E97BEA31BED21FEB401ABB94C44839
310
DCACBF0E1C5DA8DA5B2F4DFFD32AD86F543D9E565E7056502E157C00AD2671CD534549AB752FCA9CDA00677A313F04E51B22FF19E57B300579E3C97EB29F682D92935CEC18CF901B7B54FD8C51F362B56FC72FE0B3C1EAE335EDCCBF5AEC39ADB17DC238973F804BA5E6F6BFE7AF1FB32E523BE9F3BD571418E3631DCA4D48
310
5250CF639223210A9446CA30052EDF057BD35F8329C1ECD84552BF0DC8D18BE7BCE23BFE6BD960AB4A7DE79923A103BEBD80F911CBAA2C60DB19B01CF164A5583B772EE6D3FFA56666CBCDA74DC97724A48F9A58967497E489C4D979006FD7A05E227A1EBDD0F737C623387A9C844D3709995625106D157315F8B8392CD4E0
310
A0B9A720C4BE9829CEF37EA1E13111214D53925356365ADA634861B52519DD27A00AEB808EAF0628E6F435519D446F45CF2C9CF5214F0A15B2F6D06B79DA3EE3CBF7F56780D2F4E7EF73A0F5E5B02A38D07DC852C6B7C1FBB6664213E0C39E3EBA7FF4E1AD23EA2829407C85E586727488B751B2DB9502BC7B228A3FD68B6E
310
A65A22397E690AA8D158D7E404EC8CDA235CC3B7D1898680131CEC2CDF2638C65196279577750F15884AEE19F94199155B92B13297978469D4F8D358DF0AEF7631E28DC8F0D9F437D5D39A83B2231A1D52D543813A824EF8D44BCFF2FA6A31BD1E8DAD87F1CCB526B3879935BF59CDADD5C37479BB1CDD4CA7B3556B516589
310
EF352754B706114D9C885EC9131DE6EFEB43D99AFE2391C2F958179413D7CFEF6B1B6DB1E7600F00DE6E5C67454A339A4BA2E0FBA85ED26F045D454F463DBFCE484C2F90F2E5E3666003662ED8F755951A7D1BECD5B30B550B2785C8E7320B7292A4838DDA71BBC863ED7613CAF659337A3354231D4FF4A182A54904C2898C
310
98B28C4AD0CE056CCF332A80986E571EE9DBC305BB5FEB7E509220A58D25CF042D712A806AC0AD0C657FDEF80D2D9CEAA2EE4D1C76F60BFE74219A06527D6F82DF6412526107381E55E353090704D085B52408A8913C4ED159D79BDA71BB4BC506F4831350EB6F975CD22D69BF7AC49B91A2C0A9DDA3D5CA36AD20FC478E37
310
E61844E2352865EBCB61A275A65283CAAA9DD27703B4102F5AF51EF5F573B75CBB5AD38BC845F7A49F82A0966A49C2E3EA5EA0ECD326CD965F1DB402C6FA8B51A4658C5C5E2EC9E214602E55810345408596591009A82E7E7FFACA19EEA299B14A0081A705CB3296EBC14CDF658DCD336EA6D1136881AAEB87B81AB9EE53D5
310
F5EB8BC8362082DA24122F98680A4E7930C01A0079749CEA14382A0783E5EBA5A10F8C098456A03D6A4AEB6BB881E2513747552A5DB22C7EDAF83BD5528081A365F7FF06504B0304140006080000CC70623B000000000000000000000000350000006662782F41393633353835312D344632462D344230382D423046372D37
310
39314545314133324237412F76657274696365732E62696E504B0304140006080800CC70623BF270F1330600000004000000360000006662782F41393633353835312D344632462D344230382D423046372D3739314545314133324237412F747269616E676C65732E62696E636660600000504B0304140006080000CC7062
310
3B000000000000000000000000370000006662782F41393633353835312D344632462D344230382D423046372D3739314545314133324237412F617474726962757465732E62696E504B0304140006080800CC70623B08DA0BD19000000041010000360000006662782F41393633353835312D344632462D344230382D4230
310
46372D3739314545314133324237412F6469726563746F72792E786D6C858F410AC3201045AF22B36F53E9A60B35CBEEBAE80D244E44489C6234F4F835464A48035D0DF398FF9F8AF63D0E6CC63039F212F8F9020C7D47C6792B21C5FE7403D62A1188E2E60C98D7234A5830286103A55745067B9D86B8A3CF9C7F90C11DE6
310
07FB144396D7B6A82D282E9A152AD114D5EF2CB866EEE831B8EEA07A7BB5A8D7D61A2BAAEB7FD5F70921FF497D00504B0304140006080800CC70623BEDD1DC58FD000000A00100003B0000006662782F41393633353835312D344632462D344230382D423046372D3739314545314133324237412F7265736F75726365732F
310
636F72652E786D6C8D504B6E833010BD0A9A6D65B00922041947112427E8052C33A156828DFCA97AFC9A40A576D7CDCCE87D344F8F9FBFE667F689CE6B6B3A6039850C8DB2A336530731DC4903D95970676DF82583CCC8193B5861107C72362E3BA4AC096842428D1D7107A5F7182053CF7474E0D507CE32973124857FE48B
310
540F3961CEF244279DE03EB81420DB9EAC1384436FA353E879B1B182C7A8C75DA3C7F453DF353A1075D537A7BA6464B8F535A99AE14A9A2BBD90E350DD183B5CFABE3AF262350B1EF4FC9351399401471025A527C218A1E53BAB5A5AB765F5469B96525EACF23FA6B88CFF34456DC2A1DCE36E360F82A5202F42F062ED2BAD
310
579969AFDD8A6F504B010214000A0000080000CC70623B3DEE336E79000000790000001B00000000000000000000000000000000006175746F6465736B2D64657369676E2D7061636B6167652E786D6C504B01021400140006080800CC70623BD486FD9CA0000000F40000001300000000000000000000000000B20000005B
310
436F6E74656E745F54797065735D2E786D6C504B01021400140006080800CC70623B853B8169EB0000007C010000080000000000000000000000000083010000636F72652E786D6C504B01021400140006080800CC70623B55019EA25F0000007C000000070000000000000000000000000094020000636E782E786D6C504B
310
01021400140006080800CC70623BDBABAAF470010000D40300000C00000000000000000000000000180300006662782F636F72652E786D6C504B01021400140006080800CC70623B9C113CC27E0000009D0000000B00000000000000000000000000B20400006662782F636E782E786D6C504B01021400140006080800CC70
310
623B7DF2F77C2A010000120200003100000000000000000000000000590500006662782F41393633353835312D344632462D344230382D423046372D3739314545314133324237412F636F72652E786D6C504B01021400140006080800CC70623BAD7543B64E010000330300003000000000000000000000000000D2060000
310
6662782F41393633353835312D344632462D344230382D423046372D3739314545314133324237412F636E782E786D6C504B01021400140006080800CC70623BE75B7789680500003C10000034000000000000000000000000006E0800006662782F41393633353835312D344632462D344230382D423046372D3739314545
310
314133324237412F6F626A656374732E786D6C504B01021400140006080000CC70623B0000000000000000000000003500000000000000000000000000280E00006662782F41393633353835312D344632462D344230382D423046372D3739314545314133324237412F76657274696365732E62696E504B01021400140006
310
080800CC70623BF270F133060000000400000036000000000000000000000000007B0E00006662782F41393633353835312D344632462D344230382D423046372D3739314545314133324237412F747269616E676C65732E62696E504B01021400140006080000CC70623B0000000000000000000000003700000000000000
310
000000000000D50E00006662782F41393633353835312D344632462D344230382D423046372D3739314545314133324237412F617474726962757465732E62696E504B01021400140006080800CC70623B08DA0BD1900000004101000036000000000000000000000000002A0F00006662782F41393633353835312D344632
310
462D344230382D423046372D3739314545314133324237412F6469726563746F72792E786D6C504B01021400140006080800CC70623BEDD1DC58FD000000A00100003B000000000000000000000000000E1000006662782F41393633353835312D344632462D344230382D423046372D3739314545314133324237412F7265
310
736F75726365732F636F72652E786D6C504B0506000000000E000E0080040000641100000000
  0
XRECORD
  5
1F8
102
{ACAD_REACTORS
330
1F7
102
}
330
1F7
100
AcDbXrecord
280
     1
 70
     1
 90
429727718
  1
30362254-06B7-45E0-A893-8CFA70E3D6BC
310
504B03040A0000080000CC70623B3DEE336E79000000790000001B0000006175746F6465736B2D64657369676E2D7061636B6167652E786D6C3C3F786D6C2076657273696F6E3D22312E302220656E636F64696E673D227574662D3822203F3E3C666F726D6174733E3C666F726D61743E687474703A2F2F736368656D612E
310
6175746F6465736B2E636F6D2F64657369676E2D7061636B6167652F323030393C2F666F726D61743E3C2F666F726D6174733E504B0304140006080800CC70623BD486FD9CA0000000F4000000130000005B436F6E74656E745F54797065735D2E786D6C7D8EC10E82300C865F65E91D8A1E8C310C0EEA1BF002731658846E
310
D98AC1B77784ABF1D8FE5FBFBF75BBCE937A534CCEB38643598122B6FEE978D0B0485F9C41B54DDD7D022595594E1A469170414C76A4D9A4D207E29CF43ECE46F218070CC6BECC4078ACAA135ACF422C856C0E68EA1BF5669944DDD7BCDE7B1F8E415D77AECB980613C2E4AC91FC167A2B244592486606FC29C8FD7F045B9A
310
EF7053A7E60B504B0304140006080800CC70623B1EC5D7A3EB0000007C01000008000000636F72652E786D6C8D90416EC3201045AF82665B6103C6756C6122AB4D4ED00B204C5C94182C03558F5F9C3852BBEB6A467FFE9B197D71FC9E6FE8CBACC17AD7032D0820E3B41FAD9B7A48F1820F808E52ACDEC75F36404ECDA687
310
4D0629A6D5A76597B477D1B89855E747B38B2A041301E95B6E7A08FAD3CCAA50296647B8168BD2573599823EBB0CA76447F43862C7BCCF5EAC59410E4DDD9C7973C2755553CCCFA4C603E3040F1565ED3B1FDE4E432BCA0D9622DAF9795FAF464533826484B498524CD807E51D79ED187F21878E10516EF63F505AC67F42C9
310
BA58B1FDDD071640D2FCC87D2045B96591CB3DA85CB7DCE40F504B0304140006080800CC70623B55019EA25F0000007C00000007000000636E782E786D6C4DCB3B0E80201045D1AD90E915ED2CF8AC45050C11660C8261F98AB1B07AC9C97D42D718D865D3E909258CFD00CCE24AC6E326A164D74DC0B4128928FF32603847
310
2BA13128B1252AC747C6BAB984FC68F0B87FE8960A5C09FE86CFB69FBA01504B0304140006080800CC70623B8C9102E971010000D40300000C0000006662782F636F72652E786D6CC5535B6E833010BC8AE5DF0A6C08340F1947A84D4ED00B38C6A128602363A31CBFCB234A53A551FA553EC09AD9F5CE8C31DB9E9B1AF5CA
310
7695D1198E428A91D2D214952E33ECDD315861B4E5CC1AE3BE9561A445A3323CC098B3D21ADFCE9034DA29ED00D5A6503328BA4E398C640D8B0C77F253352214DE4145770A5B214FA2546114020D759C75CE8200340D19DE981F0F6746269C33EFAB6266AB02A655C74A59CCF365BADC27CB5D902ED22848F6340DF238A141
310
BE88E2F57B92BFEDF23523433367AE6A2EEAA455C2A902F398D2751045018D3FA264435F3771F242571B4A1919CA6F9A7C5B3CD9E42BED16F12C776AEB308F40C848FC700B1139D4891EF410CEC810227CC6846F8386402064270EF5C5C709A05E49676C024C61FC95EA45ED154CA5211D1FF4FB8291A913A68E9B83EBBB33
310
E2A7673CDE118E5AE8124C0807CB8377834E366998436B950D7A7746DAD846D4CFD978E0F04FD455FC5D49D2D4C6FE9722321F10997F0F32DC47FE05504B0304140006080800CC70623BFFEA85907E0000009D0000000B0000006662782F636E782E786D6C4DCCD10A83201886E15B91FFDC95D95A811AB6F23E625948A6C3
310
E9D8E5AF46073BFAE0E1E365ED67B3E8ADC3CB78C7815C7240DA3DFC64DCC221C519D7805AC182F7F1EF06C88D9BE6703008B6049F9E274D7A1E938DBB5AE3D6131B2589BA0D3D965551E0B2EA732C9B9A624AAEB41E3A557677029960D9AFB4EF11165F504B0304140006080800CC70623B4FEEA4082C0100001202000031
310
0000006662782F39464131463745442D413632322D343644302D413938332D3331353338454246344243312F636F72652E786D6C8D515B6EC32010BC0AE2AB55850DD871ED0813254D72825EC00192A2C460F1A872FC42ED48ED5F7E00CDCECCCEB26C731F6FE05B39AFADE921293004CA082BB5B9F43086336A21D870E6AC
310
0D7F68109861543DCC30E4ECE26C9C164858139409093556AA051CBC570102714B8F1E7AF1A5C6A11862480C7F2DA6415C878B2A4891CA89C7990F2E050073937C42DE1DB7E4F87ED8A36D4329AA9B3D46DBAEAD504556557BD81DEBDD0761E52CE42C462D17B996298E3E6BE59E35C962CE821E1FF18553435012728A7187
310
0841987E927A8D9B35ADDF70BBC6989599FE4F1427F9A4286A132ABAC49D651EF234CD5CE04CDA78BA3DC2A8FB645D00B9DF8B57E215725C60BCA2A463E54C4CE327C7A65E1C7DB02E7DEFCBF594B864C5CA6CDBD49C957943E9FA5D5FBAF336F90F504B0304140006080800CC70623BAD7543B64E01000033030000300000
310
006662782F39464131463745442D413632322D343644302D413938332D3331353338454246344243312F636E782E786D6CD593CD6EC32010845F0571AD6CE3D48AD20813A9873E410FBD12D82434182C7EAAE6EDBB2424CD25871E7B41D6EC30B3FA84F9E67BB2E40B4234DE8DB46F1925E094D7C6ED479AD3AE5951B2113C
310
789FEE6C943839C1488B4C05DF079FE72A69D8C96C13AAD6B8631503449F83828872B949AC57D26200B826A308D316B4064D6E46FCDA41C05550DC9E483A00797BFD207EFB092A45DE9514C1BBD22178396BD39D891265658C238DEA00936C654E5E433CB65A26D9F6EDB5EBC14EBF49A45CB856E66048291F6939A9A81BB5
310
C8917738143CA680F4AA299D66A042CEB3354A2684DC9D8D178FE0D9B8B41CAAD720F880EE7EF93C0C18769E099ECC04D5A102C8049A8A05632F4DDF376CF1DE0F6BB65C2F8627B65A33C6BB62177CEBBDAD973006829F89F22E814B54F4BC2BE347F8AA8F681390B50FA73F804400B5F542E796F19FF974E7F78DB802FE05
310
E207504B0304140006080800CC70623B16AB87BA640500003C100000340000006662782F39464131463745442D413632322D343644302D413938332D3331353338454246344243312F6F626A656374732E786D6CAD575B6FA33818FD2B887DE6924B3BED8A326A92B68A663B534DD4D13E548A0C38942D60649B369D5FBFC7
310
600890A493BDE42160637FD7F31D7FF63E6FB3D478A55C242CBF3247B66B1A340F5994E4F19559CA8D75611A9F7D8F33263BCB4C232719BD32D5B4E97B316765A1A722BA21652A07B3B7B33F0D11D29C9A46981221AE4C113ED38CD8A4942CA2E2C58E882476BCD9DA23BB5ED8171B73523C0F841684D35CC252CCE79062D4
310
468DFA43D7747CCF51DF7D4FFDEB5593E3AB9CCA9FBEFE241792E4E19EB28198C968BAB8199F5D5A67D3E9C49A9E8F47D6EC76B6B0469F26EEFC7C3EBFBCBEB98462213924694B38DD98FE1D62C393D073EA4FADC5DAF04326852CCF6958F90F0F2B9BB5C48816348F90C7840A68EB78EDF68723159BCEE7891A6B95DDE9D3
310
BCEAEEE8086A6C6F9E5D4B59F0175C10A7A0820BAA5055C7473B5AE3CFDD452D602CD5DF12616444529E90D448938013FE6EFA58AA96F85E4F8C42275708571E98FE6827AF6B2B4AE3D7D83D64E5A64C53054DD3AF90BD06FEA9149565C94FCA0F6B834DC85599E4F2423B24DF0B6AFA979E534DFA9E7A4CC6FA631D486393
310
921829879BF5D781A373557BCB85E97FB90DB62B558F8795179C15944B051F40AB495CF35451D26A4727654E6D8033BD98EF82F21D91FF8AF2DD9982BCF1643BDD4EB516C9492E368C67C88DED563FC36D5EACF66DFF057C3658BDBFA69DF9578B3DA735B64F18C7F20770A9D45CFCF7FCF563D6456A277DBEF78A02637CA2
310
43B90A490AEAB94F72244481D24819A6C0E59B606BFA4B3025981DBB48EAB701D97BF19C577CC77F2D1B6C55A9EF3C732474C0B727303F625995056C3B02963D9EAC146BE78EC5FCEC7FA999EBC5EACBAAE41B12D27B4D2C0BBA49F244E2ECDC81B76B502F113D8F5EE8FB1BE3111CDD4FC2AA9B844CAB1288B68AB90A7CDC
310
1C166AB0D3DC5310625FCC14E779BFD0709F8890A629C9292B1B2DED31A4B0DA928CEE135085754027E3018A397D4D5427D15BD1330B677DC8934285AC3DF45A9EB68FF8F2B8FC0A509AFEECFD0FF2DE25CC6047F7214B195F07EFEB9A094D800F7BFAE8FED187B78EA8A3A400F115961BCAD1215E47C966530AF0EE8128FE
310
58CEBB996A8964FFA529A046635D9353B0336A8F700DDF46271A024E70B0B37C9DE01847591E54DED53D54202AB947E4076556AC49C6CA5C9E1226B7F1A7B1BE15DEED62C41B91E1B3E9AFAAA735036547343A925075041DF0A9979E893B391F8FCFA6967B3EFB644DCF6E5CEBFAE272625DCC6FAF3FB93793C5F90CE1EF57
310
407342756B10D1C489E8953CD1617E5CEECAD6F4EF8914CE5D5D504E5C3F1F9736DA62CFC11E00BCDDB8CC8A9466349744C1F75EBDA4DF09BA8A9E8C7A7E9991989E20E5DBDD6A6003664ED8F7A04A8DBE0DF6EAD9B9AA858342E47399053949D2C146EDB85DE4B176BB0965FBAC19BD19AA918E27FA50C1D22402E144464C
310
59462568E704B6E71915404CB72B8FF4EDE184DDAF753F284990D2C6926782963815403548A70C657FDEF80D2D9CEAA2AE4C1C76F60BFE74219A06527D6582DF6412526107381E55E353090704D085B52408D0933C4ED159D79BDA71BB4BC506F4831350EB6F979CD22D69BF7AC49B91A2C0A9DDA3D5CA36AD20FC478E37E6
310
1844E2352865EBCB6EA275A652E3836BE04EFB400BF1A2556F515F1FBB35B2AB35BD889C744FFA1004B5544B121E57F70215746DD2F5E2C1412B602CBF19455AC6C8E5E9922C4E01E65215385004546899059180EAFCF7A707CE7017CD8CDB0410789AB32C63B91E5CEBBBACB17AC6CD347A022D5075FD106377347AAABA7E
310
7D11590744509B44E205134DC1290F06580320F78E537D3D73540E06CB970B431F185308AD40BBD794D6D77003C5A36E8EAA54BA64597CD8F83BD552A080A365F7FF06504B0304140006080000CC70623B000000000000000000000000350000006662782F39464131463745442D413632322D343644302D413938332D3331
310
353338454246344243312F76657274696365732E62696E504B0304140006080800CC70623BF270F1330600000004000000360000006662782F39464131463745442D413632322D343644302D413938332D3331353338454246344243312F747269616E676C65732E62696E636660600000504B0304140006080000CC70623B
310
000000000000000000000000370000006662782F39464131463745442D413632322D343644302D413938332D3331353338454246344243312F617474726962757465732E62696E504B0304140006080800CC70623B08DA0BD19000000041010000360000006662782F39464131463745442D413632322D343644302D413938
310
332D3331353338454246344243312F6469726563746F72792E786D6C858F410AC3201045AF22B36F53E9A60B35CBEEBAE80D244E44489C6234F4F835464A48035D0DF398FF9F8AF63D0E6CC63039F212F8F9020C7D47C6792B21C5FE7403D62A1188E2E60C98D7234A5830286103A55745067B9D86B8A3CF9C7F90C11DE607
310
FB144396D7B6A82D282E9A152AD114D5EF2CB866EEE831B8EEA07A7BB5A8D7D61A2BAAEB7FD5F70921FF497D00504B0304140006080800CC70623B0D6EF93BFE000000A00100003B0000006662782F39464131463745442D413632322D343644302D413938332D3331353338454246344243312F7265736F75726365732F63
310
6F72652E786D6C8D50596E833010BD0A9ADFCA60B334011947A8694ED00B586642AC041B79A97AFC9A40A5F6AF3F33A3B7689E1E3F7DCD8FEC139DD7D6F4C0720A191A65476DA61E62B892236427C19DB5E1970C322367EC618541F0C9D9B8EC90B226A009093576C41D94DE63804C3DD2D18357379C652E63480A7FCF17A9
310
EE72C29CE5894E3AC17D702940B63D59270887DE46A7D0F36263058F518FBB468FE9A7BE6A7420864373B8D4873369AA8691FA421B3294352543C5CAF65C0F6FEF43CB8BD52C78D0F34F46E550061C419494B6843142CB0F5677F4B52BEB177AEC28E5C52AFF638ACBF84F53D42654E51E77B379102C05791282176B5F693D
310
CB4C7BED567C03504B010214000A0000080000CC70623B3DEE336E79000000790000001B00000000000000000000000000000000006175746F6465736B2D64657369676E2D7061636B6167652E786D6C504B01021400140006080800CC70623BD486FD9CA0000000F40000001300000000000000000000000000B20000005B
310
436F6E74656E745F54797065735D2E786D6C504B01021400140006080800CC70623B1EC5D7A3EB0000007C010000080000000000000000000000000083010000636F72652E786D6C504B01021400140006080800CC70623B55019EA25F0000007C000000070000000000000000000000000094020000636E782E786D6C504B
310
01021400140006080800CC70623B8C9102E971010000D40300000C00000000000000000000000000180300006662782F636F72652E786D6C504B01021400140006080800CC70623BFFEA85907E0000009D0000000B00000000000000000000000000B30400006662782F636E782E786D6C504B01021400140006080800CC70
310
623B4FEEA4082C0100001202000031000000000000000000000000005A0500006662782F39464131463745442D413632322D343644302D413938332D3331353338454246344243312F636F72652E786D6C504B01021400140006080800CC70623BAD7543B64E010000330300003000000000000000000000000000D5060000
310
6662782F39464131463745442D413632322D343644302D413938332D3331353338454246344243312F636E782E786D6C504B01021400140006080800CC70623B16AB87BA640500003C1000003400000000000000000000000000710800006662782F39464131463745442D413632322D343644302D413938332D3331353338
310
454246344243312F6F626A656374732E786D6C504B01021400140006080000CC70623B0000000000000000000000003500000000000000000000000000270E00006662782F39464131463745442D413632322D343644302D413938332D3331353338454246344243312F76657274696365732E62696E504B01021400140006
310
080800CC70623BF270F133060000000400000036000000000000000000000000007A0E00006662782F39464131463745442D413632322D343644302D413938332D3331353338454246344243312F747269616E676C65732E62696E504B01021400140006080000CC70623B0000000000000000000000003700000000000000
310
000000000000D40E00006662782F39464131463745442D413632322D343644302D413938332D3331353338454246344243312F617474726962757465732E62696E504B01021400140006080800CC70623B08DA0BD190000000410100003600000000000000000000000000290F00006662782F39464131463745442D413632
310
322D343644302D413938332D3331353338454246344243312F6469726563746F72792E786D6C504B01021400140006080800CC70623B0D6EF93BFE000000A00100003B000000000000000000000000000D1000006662782F39464131463745442D413632322D343644302D413938332D3331353338454246344243312F7265
310
736F75726365732F636F72652E786D6C504B0506000000000E000E0080040000641100000000
  0
XRECORD
  5
175
102
{ACAD_REACTORS
330
173
102
}
330
173
100
AcDbXrecord
280
     1
270
     1
271
     1
  0
XRECORD
  5
174
102
{ACAD_REACTORS
330
173
102
}
330
173
100
AcDbXrecord
280
     1
270
     1
271
     1
  0
XRECORD
  5
1FB
102
{ACAD_REACTORS
330
173
102
}
330
173
100
AcDbXrecord
280
     1
 70
     0
 90
1673772943
  1
ECE7A1D2-D628-4531-984C-D00F80459256
310
504B03040A0000080000CC70623B3DEE336E79000000790000001B0000006175746F6465736B2D64657369676E2D7061636B6167652E786D6C3C3F786D6C2076657273696F6E3D22312E302220656E636F64696E673D227574662D3822203F3E3C666F726D6174733E3C666F726D61743E687474703A2F2F736368656D612E
310
6175746F6465736B2E636F6D2F64657369676E2D7061636B6167652F323030393C2F666F726D61743E3C2F666F726D6174733E504B0304140006080800CC70623BD486FD9CA0000000F4000000130000005B436F6E74656E745F54797065735D2E786D6C7D8EC10E82300C865F65E91D8A1E8C310C0EEA1BF002731658846E
310
D98AC1B77784ABF1D8FE5FBFBF75BBCE937A534CCEB38643598122B6FEE978D0B0485F9C41B54DDD7D022595594E1A469170414C76A4D9A4D207E29CF43ECE46F218070CC6BECC4078ACAA135ACF422C856C0E68EA1BF5669944DDD7BCDE7B1F8E415D77AECB980613C2E4AC91FC167A2B244592486606FC29C8FD7F045B9A
310
EF7053A7E60B504B0304140006080800CC70623BD9DDAED0EC0000007C01000008000000636F72652E786D6C8D90416EC3201045AF82665B61836D9CD8C2444DD39CA01740405C94182C03558F5F9C3852BBEB6A467FFE9B197D7EF89E6EE8CB2CC17A37002D0820E394D7D68D03A478C17B4007C117EFE32F1B20272733C0
310
2A83E0E3E2D3BC49CABB685CCCAAF3DA6CA20CC14440EA969B0182FA34932C648AD911AEC52CD5558EA6A0CF2EC329598D1E47ACCEFBECC59A050463A7EA5833865FEBDD0E37353BE3EE8DBDE3F6786A48D375FBF6CC78B9C282473B3DEFABC5C86834888A900E538A49F5419B9EB47DD5BC907D4F082F57FB1F28CDFA9F50
310
B22ED6D5F6EE030B20687EE43E10BC5CB3C8E51E54AE6B6EE207504B0304140006080800CC70623B55019EA25F0000007C00000007000000636E782E786D6C4DCB3B0E80201045D1AD90E915ED2CF8AC45050C11660C8261F98AB1B07AC9C97D42D718D865D3E909258CFD00CCE24AC6E326A164D74DC0B4128928FF326038
310
472BA13128B1252AC747C6BAB984FC68F0B87FE8960A5C09FE86CFB69FBA01504B0304140006080800CC70623BA24EB22D72010000D40300000C0000006662782F636F72652E786D6CC5535B6E833010BC8AE5DF0A6C5E49888CA3A6694ED00B38E05014B091B1518EDFE511A5A9D228FD2A1F60CDEC7A67C6986DCE4D8D7A
310
69BA4AAB0C073EC548AA5C17952A33ECECD15B61B4E1CC686DBF9561A44423333CC098B3D268D7CE50AE9595CA02AA74216750749DB418E5352C32DCE59FB211BE70162ABA93DF8AFC244AE9073ED050C759670D0840D390E18DF9F1706664C23973AE2A66B62A605A75ACA4C13C4976E1364A12EF355A2EBD384AF65EFA96
310
BC7B8BED2EA6719AAE16FB8491A199335B351775B991C2CA02F390D2D40B028F861F41BCA68B7518BFD0D59A524686F29B26D7164F36B94AD9289CE54E6D1DE6010819891F6E21228B3AD1831EC219194284CF98F06DD01008846CC5A1BEF83801D4CBDC6A1303536877A57A513B0953A94FC707FDBE6064EA84A9E3E6E0FA
310
EE8CF0E9198F7784A316AA0413C2C2F2E0ECA0934D1AE6D05A69BCDE9E91D2A611F573361E38FC1375157F5752AE6B6DFE4B11990F88CCBF0719EE23FF02504B0304140006080800CC70623B408A7D3B7C0000009D0000000B0000006662782F636E782E786D6C4DCCD10A83201886E15B91FFDC552A92A0064DBC8F581632
310
D3703A76F9ABD1C18E3E78F878E5F0D9027ABBFCF2292AE86E2D20171F69F6715550CB827B40839639A5F2770314A7CD293819B45C73AAFB45B35BA61ACAA1C1C7E7855C58C15BC331339661262CC762340413D68D77DA5B42298546CBE6573AF60CEB2F504B0304140006080800CC70623B449FB9BD290100001202000031
310
0000006662782F36394639363044362D344446342D343946362D394244322D3234314243333846323333332F636F72652E786D6C8D515B6EC32010BC0AE22B55850D98B871848994463E412FE002495162B07854397EA176A4F62F3F2C9A9D991D587EB84F37F0AD7D30CEF6905418026DA553C65E7A98E219ED203808EE9D
310
8B7F6810D871D23D2C3014FCE25D9A57483A1BB58D19B54EE9151C43D0110279CB971E06F9A5A7B11A53CC8C70ADE6515EC78BAE4895DB992778883E0700CB907242D17643D7E2538BD869608875438BBAE38922CAC8F1BDD90DB4691A5E2F42C153326A951B95E398B3D1FE599322163C9AE9115F7A3D46ADA0A018778810
310
84E907617BDCEE297BC5BB3DC6BC2EF47FA234AB2745C9D8D8D035EE220B50105E2F0DC1954B9FB747187D9F9D8FA0CCDB042D5FA0C015C65B42DF78BD10F3F3B363CB56C7109DCFDFBBB97E662ED92EB62D13BC2E1BCAE5777DB9966D8A1F504B0304140006080800CC70623BAD7543B64E01000033030000300000006662
310
782F36394639363044362D344446342D343946362D394244322D3234314243333846323333332F636E782E786D6CD593CD6EC32010845F0571AD6CE3D48AD20813A9873E410FBD12D82434182C7EAAE6EDBB2424CD25871E7B41D6EC30B3FA84F9E67BB2E40B4234DE8DB46F1925E094D7C6ED479AD3AE5951B2113C789FEE
310
6C943839C1488B4C05DF079FE72A69D8C96C13AAD6B8631503449F83828872B949AC57D26200B826A308D316B4064D6E46FCDA41C05550DC9E483A00797BFD207EFB092A45DE9514C1BBD22178396BD39D891265658C238DEA00936C654E5E433CB65A26D9F6EDB5EBC14EBF49A45CB856E66048291F6939A9A81BB5C89177
310
38143CA680F4AA299D66A042CEB3354A2684DC9D8D178FE0D9B8B41CAAD720F880EE7EF93C0C18769E099ECC04D5A102C8049A8A05632F4DDF376CF1DE0F6BB65C2F8627B65A33C6BB62177CEBBDAD973006829F89F22E814B54F4BC2BE347F8AA8F681390B50FA73F804400B5F542E796F19FF974E7F78DB802FE05E20750
310
4B0304140006080800CC70623B8D05915C650500003B100000340000006662782F36394639363044362D344446342D343946362D394244322D3234314243333846323333332F6F626A656374732E786D6CAD575B6FA33814FE2B887D06429276DA1565D4266D158D3A339A6846FB502932E050B66023DB74D2FDF5FB190C01
310
9276B2973C046C8ECFF53B17071F77456EBD502133CEAE6CDF9DD81665314F32965ED995DA3A17B6F5310C04E7AA47665B8C14F4CAD6DB7618A48257A5D94AE89654B91AEDDEDDFC61C998326A5B714EA4BCB265FC440BE2924AF184CA6737218AB8E976E7FA6E4338649B0A523E8D98964450A6A029F619B8588D52FE7039
310
B1BD30F0F4F730D0FF866AF6369557DB33949F31A9088B0F848DD8CCFCF9F2767A76E99CCDE733677E3EF59D9BBB9BA5E37F984D16E78BC5E5F5ED25044B25C0C96822E8D60EEFE11B91C581D77CEA34368A1F5329E68CD1B8B61F16D63A1B8E092D294B10C78C4A48EB593D192E7DED9BDEE7995E1B91FDEDD3ACEA9FE831
310
6A756F9F7D4D79F4274C90A7A04248AA51D5F8C718DAE06FB2F75AC4796EBE65D22A88A22223B995679120E2D50E41AA49C260C046A35368846B0BECD0DFF3EBEB8AD4F835768F69B9ADF25C43D30E6B646F807FAA64AD59F61715C7A54127C4AACA98BA3006A9D792DAE165E0D59B61A01FB3A9F9D838D2DAE62445C86166
310
F37564E842E7DE6A69879FEEA2DD5AE7E371E1A5E025154AC307D06A03D73EB5978C58FFA4C8E9033066E0F3BD53BEC1F39F91BE7B55103791EDE6BBB991A2046172CB4581D8B893FA674DDA17A77B3B7C413D1B511FD2743BFF8A38F03A658705E3ADF8015C3A3417FF3D7E439FF591DA0B5F18BC20C1B8981957AE6392A3
310
F43C640C01D1A0B4728E2DD4F26DB4B3C3152A252A3B4E913CEC1C72F012782FF88EFF8637AA552DBEF76408E8A8DE9E50F9E1CB3A2DA0DB1B6039A893B56063DC5B3E3FFB5F72E67AB9FEB4AEC496C4F4C1149625DD662C53E89D7BF0F6151A046260D1337DFDC94502430F83B0EE07A130A224BCAD7DAE1D9FB6CD422FF6
310
920702629C4BB9AE79C12F243C6432A6794E18E5552BA56B431AAB5D91317302B2B071E86C3A42B1A02F999E24061403B5D0EB639195DA655DD3EBEAB4FB862DDF579F014AD0E73C22F99E28DA57FB98E75C6CA2D74D53086D600F4786E0FE3144B771A8A7B900F03594DB8A633CBC49B2EDB69228BB479CF863B5E807AAAB
310
23872F6DFEB4129B949CA33823F58830E86D65621E10047D9DB34D862E8EAC3C2ABC2F7B2C40D67CDFE01F5545B92105AF983AC54D93D69E56FB8E797F88913F898A9FEC705D3F9D1B54EC8426FB500D40A03BD0119B06E1B95DDC7EB8F6975367793EBD70E66733DFB9BC982F9CE564727731999F5D4ECFCE3B8D6A4DC2A0
310
6D50FD148437D110834A64C6CDDF57FBACB5C307A2A477DFE4939736CFEF2B175371E0E10CF0DD1D5C15654E0BCA14D1E87DD02FF93782A162C0A3D95F1524A52770F972BF1EE9809D13CE7DD599467F8ECE9ADD85CE85A34CD45355448C64F9E8A031DC2D596ACC6E5DD93D9B82DE2EF5CAF81363A8E47996A0DE24564A79
310
4115AACE09C55E14540231FDA13C319787134EBF34E3A022514E5B4D9E0826E25C02D5805B15ABE1BEF51B26383D445DD9E875EE33FE4C22DA16427D65A3BCA92CA6D28DD01DF5DC53330704308475351050232CCD31583787BA75774AFB06E5070DD0C8EF484E19968C5D83BA5B90B244D31E54D55A372320FE4786B7EA58
310
44E135AA5467CB7EA333A61683CC6A8C3257034C10CF46F40EF9F5BE59BE5BD30C3C72D235E95D10345C1D45445A5F0BB47E46A5EBE5570F9380B5FA629579952296A773720405982B9DE04011506178964401AA8BDF1FBF0A8EAB6861DD6580C0E38217056766716DAEB2D6FA0917D3E4116581EADB879C4E7CFFB11EFACD
310
3D641311495D92C8676CB409A72D18610D803CE8A626049E8EC1887CB5B44CC39883690DDA8399B4B9855B481E7D71D4A9D22F96E5BB73BF5793020C02137BF837504B0304140006080000CC70623B000000000000000000000000350000006662782F36394639363044362D344446342D343946362D394244322D32343142
310
43333846323333332F76657274696365732E62696E504B0304140006080800CC70623BF270F1330600000004000000360000006662782F36394639363044362D344446342D343946362D394244322D3234314243333846323333332F747269616E676C65732E62696E636660600000504B0304140006080000CC70623B0000
310
00000000000000000000370000006662782F36394639363044362D344446342D343946362D394244322D3234314243333846323333332F617474726962757465732E62696E504B0304140006080800CC70623B08DA0BD19000000041010000360000006662782F36394639363044362D344446342D343946362D394244322D
310
3234314243333846323333332F6469726563746F72792E786D6C858F410AC3201045AF22B36F53E9A60B35CBEEBAE80D244E44489C6234F4F835464A48035D0DF398FF9F8AF63D0E6CC63039F212F8F9020C7D47C6792B21C5FE7403D62A1188E2E60C98D7234A5830286103A55745067B9D86B8A3CF9C7F90C11DE607FB14
310
4396D7B6A82D282E9A152AD114D5EF2CB866EEE831B8EEA07A7BB5A8D7D61A2BAAEB7FD5F70921FF497D00504B0304140006080800CC70623BCA768048FE000000A00100003B0000006662782F36394639363044362D344446342D343946362D394244322D3234314243333846323333332F7265736F75726365732F636F72
310
652E786D6C8D50596E833010BD0A9ADFCA60D600328E9AA639412F609909B1126CE4A5EAF16B0295DABFFECC8CDEA2797AECF8353F924FB44E193D409E5248504B332A3D0D10FC95B4901C39B3C6F85F3248B49871801506CE266BC2B243D2688FDA47549B11775038871E12F988C7004EDE7016A9083E2ADC3D5D84BC8B09
310
D33C8D74D471E6BC8D0192EDC93A815B742658898E651BCB59086ADC356A8C3FD555A1055ED7E7E254D615792D0F075295F585746FF53B694EE78A565DD736979A65AB9933AFE69F8CD2A2F038022F28ED489E135A7CE4554F9BBEA85E68DB53CAB255FEC71496F19FA6A0B42F8B3DEE6673C0F318E4497096AD7DC5F52C33
310
EEB55BFE0D504B010214000A0000080000CC70623B3DEE336E79000000790000001B00000000000000000000000000000000006175746F6465736B2D64657369676E2D7061636B6167652E786D6C504B01021400140006080800CC70623BD486FD9CA0000000F40000001300000000000000000000000000B20000005B436F
310
6E74656E745F54797065735D2E786D6C504B01021400140006080800CC70623BD9DDAED0EC0000007C010000080000000000000000000000000083010000636F72652E786D6C504B01021400140006080800CC70623B55019EA25F0000007C000000070000000000000000000000000095020000636E782E786D6C504B0102
310
1400140006080800CC70623BA24EB22D72010000D40300000C00000000000000000000000000190300006662782F636F72652E786D6C504B01021400140006080800CC70623B408A7D3B7C0000009D0000000B00000000000000000000000000B50400006662782F636E782E786D6C504B01021400140006080800CC70623B
310
449FB9BD290100001202000031000000000000000000000000005A0500006662782F36394639363044362D344446342D343946362D394244322D3234314243333846323333332F636F72652E786D6C504B01021400140006080800CC70623BAD7543B64E010000330300003000000000000000000000000000D20600006662
310
782F36394639363044362D344446342D343946362D394244322D3234314243333846323333332F636E782E786D6C504B01021400140006080800CC70623B8D05915C650500003B10000034000000000000000000000000006E0800006662782F36394639363044362D344446342D343946362D394244322D32343142433338
310
46323333332F6F626A656374732E786D6C504B01021400140006080000CC70623B0000000000000000000000003500000000000000000000000000250E00006662782F36394639363044362D344446342D343946362D394244322D3234314243333846323333332F76657274696365732E62696E504B010214001400060808
310
00CC70623BF270F13306000000040000003600000000000000000000000000780E00006662782F36394639363044362D344446342D343946362D394244322D3234314243333846323333332F747269616E676C65732E62696E504B01021400140006080000CC70623B00000000000000000000000037000000000000000000
310
00000000D20E00006662782F36394639363044362D344446342D343946362D394244322D3234314243333846323333332F617474726962757465732E62696E504B01021400140006080800CC70623B08DA0BD190000000410100003600000000000000000000000000270F00006662782F36394639363044362D344446342D
310
343946362D394244322D3234314243333846323333332F6469726563746F72792E786D6C504B01021400140006080800CC70623BCA768048FE000000A00100003B000000000000000000000000000B1000006662782F36394639363044362D344446342D343946362D394244322D3234314243333846323333332F7265736F
310
75726365732F636F72652E786D6C504B0506000000000E000E0080040000621100000000
  0
XRECORD
  5
176
102
{ACAD_REACTORS
330
173
102
}
330
173
100
AcDbXrecord
280
     1
270
     1
271
     1
  0
XRECORD
  5
177
102
{ACAD_REACTORS
330
173
102
}
330
173
100
AcDbXrecord
280
     1
270
     1
271
     1
  0
CELLSTYLEMAP
  5
4E1
102
{ACAD_REACTORS
330
162
102
}
330
162
100
AcDbCellStyleMap
 90
        3
300
CELLSTYLE
  1
TABLEFORMAT_BEGIN
 90
        5
170
     1
 91
        0
 92
    32768
 62
   257
 93
        1
300
CONTENTFORMAT
  1
CONTENTFORMAT_BEGIN
 90
        0
 91
        0
 92
      512
 93
        0
300

 40
0.0
140
1.0
 94
        5
 62
     0
340
11
144
6.0
309
CONTENTFORMAT_END
171
     1
301
MARGIN
  1
CELLMARGIN_BEGIN
 40
1.5
 40
1.5
 40
1.5
 40
1.5
 40
0.18
 40
0.18
309
CELLMARGIN_END
 94
        6
 95
        1
302
GRIDFORMAT
  1
GRIDFORMAT_BEGIN
 90
        0
 91
        1
 62
     0
 92
       -2
340
14
 93
        0
 40
1.125
309
GRIDFORMAT_END
 95
        2
302
GRIDFORMAT
  1
GRIDFORMAT_BEGIN
 90
        0
 91
        1
 62
     0
 92
       -2
340
14
 93
        0
 40
1.125
309
GRIDFORMAT_END
 95
        4
302
GRIDFORMAT
  1
GRIDFORMAT_BEGIN
 90
        0
 91
        1
 62
     0
 92
       -2
340
14
 93
        0
 40
1.125
309
GRIDFORMAT_END
 95
        8
302
GRIDFORMAT
  1
GRIDFORMAT_BEGIN
 90
        0
 91
        1
 62
     0
 92
       -2
340
14
 93
        0
 40
1.125
309
GRIDFORMAT_END
 95
       16
302
GRIDFORMAT
  1
GRIDFORMAT_BEGIN
 90
        0
 91
        1
 62
     0
 92
       -2
340
14
 93
        0
 40
1.125
309
GRIDFORMAT_END
 95
       32
302
GRIDFORMAT
  1
GRIDFORMAT_BEGIN
 90
        0
 91
        1
 62
     0
 92
       -2
340
14
 93
        0
 40
1.125
309
GRIDFORMAT_END
309
TABLEFORMAT_END
  1
CELLSTYLE_BEGIN
 90
        1
 91
        1
300
_TITLE
309
CELLSTYLE_END
300
CELLSTYLE
  1
TABLEFORMAT_BEGIN
 90
        5
170
     1
 91
        0
 92
        0
 62
   257
 93
        1
300
CONTENTFORMAT
  1
CONTENTFORMAT_BEGIN
 90
        0
 91
        0
 92
      512
 93
        0
300

 40
0.0
140
1.0
 94
        5
 62
     0
340
11
144
4.5
309
CONTENTFORMAT_END
171
     1
301
MARGIN
  1
CELLMARGIN_BEGIN
 40
1.5
 40
1.5
 40
1.5
 40
1.5
 40
0.18
 40
0.18
309
CELLMARGIN_END
 94
        6
 95
        1
302
GRIDFORMAT
  1
GRIDFORMAT_BEGIN
 90
        0
 91
        1
 62
     0
 92
       -2
340
14
 93
        0
 40
1.125
309
GRIDFORMAT_END
 95
        2
302
GRIDFORMAT
  1
GRIDFORMAT_BEGIN
 90
        0
 91
        1
 62
     0
 92
       -2
340
14
 93
        0
 40
1.125
309
GRIDFORMAT_END
 95
        4
302
GRIDFORMAT
  1
GRIDFORMAT_BEGIN
 90
        0
 91
        1
 62
     0
 92
       -2
340
14
 93
        0
 40
1.125
309
GRIDFORMAT_END
 95
        8
302
GRIDFORMAT
  1
GRIDFORMAT_BEGIN
 90
        0
 91
        1
 62
     0
 92
       -2
340
14
 93
        0
 40
1.125
309
GRIDFORMAT_END
 95
       16
302
GRIDFORMAT
  1
GRIDFORMAT_BEGIN
 90
        0
 91
        1
 62
     0
 92
       -2
340
14
 93
        0
 40
1.125
309
GRIDFORMAT_END
 95
       32
302
GRIDFORMAT
  1
GRIDFORMAT_BEGIN
 90
        0
 91
        1
 62
     0
 92
       -2
340
14
 93
        0
 40
1.125
309
GRIDFORMAT_END
309
TABLEFORMAT_END
  1
CELLSTYLE_BEGIN
 90
        2
 91
        1
300
_HEADER
309
CELLSTYLE_END
300
CELLSTYLE
  1
TABLEFORMAT_BEGIN
 90
        5
170
     1
 91
        0
 92
        0
 62
   257
 93
        1
300
CONTENTFORMAT
  1
CONTENTFORMAT_BEGIN
 90
        0
 91
        0
 92
      512
 93
        0
300

 40
0.0
140
1.0
 94
        2
 62
     0
340
11
144
4.5
309
CONTENTFORMAT_END
171
     1
301
MARGIN
  1
CELLMARGIN_BEGIN
 40
1.5
 40
1.5
 40
1.5
 40
1.5
 40
0.18
 40
0.18
309
CELLMARGIN_END
 94
        6
 95
        1
302
GRIDFORMAT
  1
GRIDFORMAT_BEGIN
 90
        0
 91
        1
 62
     0
 92
       -2
340
14
 93
        0
 40
1.125
309
GRIDFORMAT_END
 95
        2
302
GRIDFORMAT
  1
GRIDFORMAT_BEGIN
 90
        0
 91
        1
 62
     0
 92
       -2
340
14
 93
        0
 40
1.125
309
GRIDFORMAT_END
 95
        4
302
GRIDFORMAT
  1
GRIDFORMAT_BEGIN
 90
        0
 91
        1
 62
     0
 92
       -2
340
14
 93
        0
 40
1.125
309
GRIDFORMAT_END
 95
        8
302
GRIDFORMAT
  1
GRIDFORMAT_BEGIN
 90
        0
 91
        1
 62
     0
 92
       -2
340
14
 93
        0
 40
1.125
309
GRIDFORMAT_END
 95
       16
302
GRIDFORMAT
  1
GRIDFORMAT_BEGIN
 90
        0
 91
        1
 62
     0
 92
       -2
340
14
 93
        0
 40
1.125
309
GRIDFORMAT_END
 95
       32
302
GRIDFORMAT
  1
GRIDFORMAT_BEGIN
 90
        0
 91
        1
 62
     0
 92
       -2
340
14
 93
        0
 40
1.125
309
GRIDFORMAT_END
309
TABLEFORMAT_END
  1
CELLSTYLE_BEGIN
 90
        3
 91
        2
300
_DATA
309
CELLSTYLE_END
  0
ENDSEC
  0
EOF
