G04*
G04 #@! TF.GenerationSoftware,Altium Limited,Altium Designer,20.0.13 (296)*
G04*
G04 Layer_Color=255*
%FSLAX24Y24*%
%MOIN*%
G70*
G01*
G75*
%ADD19C,0.0374*%
%ADD20R,0.0374X0.0374*%
%ADD21C,0.0394*%
%ADD22C,0.1575*%
%ADD31R,0.0197X0.0157*%
%ADD32R,0.0866X0.0413*%
%ADD33R,0.0413X0.0394*%
%ADD34R,0.0157X0.0197*%
%ADD35R,0.0350X0.0300*%
%ADD36R,0.0197X0.0472*%
%ADD37R,0.0300X0.0350*%
%ADD38R,0.0709X0.0866*%
%ADD39R,0.0118X0.0512*%
%ADD40R,0.0315X0.0400*%
%ADD41R,0.1969X0.0472*%
%ADD42R,0.1181X0.0630*%
G04:AMPARAMS|DCode=43|XSize=15.7mil|YSize=19.7mil|CornerRadius=0mil|HoleSize=0mil|Usage=FLASHONLY|Rotation=225.000|XOffset=0mil|YOffset=0mil|HoleType=Round|Shape=Rectangle|*
%AMROTATEDRECTD43*
4,1,4,-0.0014,0.0125,0.0125,-0.0014,0.0014,-0.0125,-0.0125,0.0014,-0.0014,0.0125,0.0*
%
%ADD43ROTATEDRECTD43*%

%ADD44R,0.0217X0.0709*%
%ADD45O,0.0217X0.0709*%
%ADD46R,0.0394X0.0177*%
%ADD47R,0.0472X0.0197*%
%ADD48O,0.0638X0.0110*%
G04:AMPARAMS|DCode=49|XSize=24.8mil|YSize=88.6mil|CornerRadius=0mil|HoleSize=0mil|Usage=FLASHONLY|Rotation=45.000|XOffset=0mil|YOffset=0mil|HoleType=Round|Shape=Round|*
%AMOVALD49*
21,1,0.0638,0.0248,0.0000,0.0000,135.0*
1,1,0.0248,0.0226,-0.0226*
1,1,0.0248,-0.0226,0.0226*
%
%ADD49OVALD49*%

%ADD50R,0.0400X0.0315*%
G04:AMPARAMS|DCode=51|XSize=15.7mil|YSize=19.7mil|CornerRadius=0mil|HoleSize=0mil|Usage=FLASHONLY|Rotation=135.000|XOffset=0mil|YOffset=0mil|HoleType=Round|Shape=Rectangle|*
%AMROTATEDRECTD51*
4,1,4,0.0125,0.0014,-0.0014,-0.0125,-0.0125,-0.0014,0.0014,0.0125,0.0125,0.0014,0.0*
%
%ADD51ROTATEDRECTD51*%

G04:AMPARAMS|DCode=52|XSize=31.5mil|YSize=27.6mil|CornerRadius=0mil|HoleSize=0mil|Usage=FLASHONLY|Rotation=90.000|XOffset=0mil|YOffset=0mil|HoleType=Round|Shape=Octagon|*
%AMOCTAGOND52*
4,1,8,0.0069,0.0157,-0.0069,0.0157,-0.0138,0.0089,-0.0138,-0.0089,-0.0069,-0.0157,0.0069,-0.0157,0.0138,-0.0089,0.0138,0.0089,0.0069,0.0157,0.0*
%
%ADD52OCTAGOND52*%

%ADD53R,0.0276X0.0315*%
%ADD54R,0.0300X0.0300*%
G04:AMPARAMS|DCode=55|XSize=51.2mil|YSize=47.2mil|CornerRadius=0mil|HoleSize=0mil|Usage=FLASHONLY|Rotation=135.000|XOffset=0mil|YOffset=0mil|HoleType=Round|Shape=Rectangle|*
%AMROTATEDRECTD55*
4,1,4,0.0348,-0.0014,0.0014,-0.0348,-0.0348,0.0014,-0.0014,0.0348,0.0348,-0.0014,0.0*
%
%ADD55ROTATEDRECTD55*%

G04:AMPARAMS|DCode=56|XSize=31.5mil|YSize=70.9mil|CornerRadius=7.9mil|HoleSize=0mil|Usage=FLASHONLY|Rotation=0.000|XOffset=0mil|YOffset=0mil|HoleType=Round|Shape=RoundedRectangle|*
%AMROUNDEDRECTD56*
21,1,0.0315,0.0551,0,0,0.0*
21,1,0.0157,0.0709,0,0,0.0*
1,1,0.0157,0.0079,-0.0276*
1,1,0.0157,-0.0079,-0.0276*
1,1,0.0157,-0.0079,0.0276*
1,1,0.0157,0.0079,0.0276*
%
%ADD56ROUNDEDRECTD56*%
%ADD57P,0.2227X4X270.0*%
G04:AMPARAMS|DCode=58|XSize=7.9mil|YSize=26.2mil|CornerRadius=0mil|HoleSize=0mil|Usage=FLASHONLY|Rotation=225.000|XOffset=0mil|YOffset=0mil|HoleType=Round|Shape=Rectangle|*
%AMROTATEDRECTD58*
4,1,4,-0.0065,0.0120,0.0120,-0.0065,0.0065,-0.0120,-0.0120,0.0065,-0.0065,0.0120,0.0*
%
%ADD58ROTATEDRECTD58*%

G04:AMPARAMS|DCode=59|XSize=26.2mil|YSize=7.9mil|CornerRadius=0mil|HoleSize=0mil|Usage=FLASHONLY|Rotation=225.000|XOffset=0mil|YOffset=0mil|HoleType=Round|Shape=Rectangle|*
%AMROTATEDRECTD59*
4,1,4,0.0065,0.0120,0.0120,0.0065,-0.0065,-0.0120,-0.0120,-0.0065,0.0065,0.0120,0.0*
%
%ADD59ROTATEDRECTD59*%

G04:AMPARAMS|DCode=60|XSize=39.4mil|YSize=31.5mil|CornerRadius=0mil|HoleSize=0mil|Usage=FLASHONLY|Rotation=90.000|XOffset=0mil|YOffset=0mil|HoleType=Round|Shape=Octagon|*
%AMOCTAGOND60*
4,1,8,0.0079,0.0197,-0.0079,0.0197,-0.0157,0.0118,-0.0157,-0.0118,-0.0079,-0.0197,0.0079,-0.0197,0.0157,-0.0118,0.0157,0.0118,0.0079,0.0197,0.0*
%
%ADD60OCTAGOND60*%

%ADD61R,0.0315X0.0394*%
%ADD62R,0.0350X0.0500*%
%ADD63R,0.0500X0.0350*%
D19*
X31400Y23440D02*
D03*
Y23940D02*
D03*
X32900Y23940D02*
D03*
X32400Y23940D02*
D03*
Y23440D02*
D03*
X31900Y23940D02*
D03*
Y23440D02*
D03*
X47280Y23940D02*
D03*
Y23440D02*
D03*
X45780Y23440D02*
D03*
X46280Y23440D02*
D03*
Y23940D02*
D03*
X46780Y23440D02*
D03*
Y23940D02*
D03*
X45780Y36050D02*
D03*
Y36550D02*
D03*
X47280Y36550D02*
D03*
X46780Y36550D02*
D03*
Y36050D02*
D03*
X46280Y36550D02*
D03*
Y36050D02*
D03*
D20*
X32900Y23440D02*
D03*
X45780Y23940D02*
D03*
X47280Y36050D02*
D03*
D21*
X44909Y24501D02*
D03*
X44041Y24485D02*
D03*
D22*
X49100Y28419D02*
D03*
D31*
X39690Y35019D02*
D03*
X39690Y35373D02*
D03*
X39265Y35363D02*
D03*
X39265Y35009D02*
D03*
X32990Y30723D02*
D03*
X32990Y30369D02*
D03*
X42320Y30146D02*
D03*
X42320Y29792D02*
D03*
X42750Y30146D02*
D03*
X42750Y29792D02*
D03*
X41890Y30146D02*
D03*
X41890Y29792D02*
D03*
X45371Y32066D02*
D03*
X45371Y32420D02*
D03*
X41060Y23563D02*
D03*
X41060Y23917D02*
D03*
X41970Y35087D02*
D03*
X41970Y34733D02*
D03*
X40328Y35007D02*
D03*
X40328Y34653D02*
D03*
D32*
X40076Y37065D02*
D03*
Y35904D02*
D03*
D33*
X39485Y36485D02*
D03*
X40666D02*
D03*
D34*
X38510Y34990D02*
D03*
X38864Y34990D02*
D03*
X40430Y35423D02*
D03*
X40076Y35423D02*
D03*
X32446Y28981D02*
D03*
X32092Y28981D02*
D03*
X37047Y33290D02*
D03*
X36693Y33290D02*
D03*
X37055Y34131D02*
D03*
X36701Y34131D02*
D03*
X29327Y33360D02*
D03*
X28973Y33360D02*
D03*
X31857Y33110D02*
D03*
X31503Y33110D02*
D03*
X31857Y32690D02*
D03*
X31503Y32690D02*
D03*
X28326Y32692D02*
D03*
X27972Y32692D02*
D03*
X37057Y33712D02*
D03*
X36703Y33712D02*
D03*
X41067Y34610D02*
D03*
X40713Y34610D02*
D03*
D35*
X30157Y31513D02*
D03*
X29467D02*
D03*
D36*
X32470Y29636D02*
D03*
X32096D02*
D03*
X31722D02*
D03*
Y30738D02*
D03*
X32096D02*
D03*
X32470D02*
D03*
D37*
X36950Y24074D02*
D03*
Y23384D02*
D03*
X42490Y34310D02*
D03*
Y35000D02*
D03*
X42038Y32238D02*
D03*
Y32928D02*
D03*
X39210Y23390D02*
D03*
Y24080D02*
D03*
X40560Y24070D02*
D03*
Y23380D02*
D03*
X43400Y23320D02*
D03*
Y24010D02*
D03*
D38*
X35940Y27750D02*
D03*
X32475Y27750D02*
D03*
X39878D02*
D03*
X43342Y27750D02*
D03*
D39*
X33716Y28733D02*
D03*
X33912D02*
D03*
X35290D02*
D03*
X35094D02*
D03*
X34897D02*
D03*
X34700D02*
D03*
X34503D02*
D03*
X34306D02*
D03*
X34109D02*
D03*
X33519D02*
D03*
X33322D02*
D03*
X33125D02*
D03*
X40527D02*
D03*
X40724D02*
D03*
X40921D02*
D03*
X41512D02*
D03*
X41708D02*
D03*
X41905D02*
D03*
X42102D02*
D03*
X42299D02*
D03*
X42496D02*
D03*
X42693D02*
D03*
X41315D02*
D03*
X41118D02*
D03*
D40*
X37529Y27364D02*
D03*
Y28094D02*
D03*
X42653Y32216D02*
D03*
Y32946D02*
D03*
X45260Y25965D02*
D03*
Y26695D02*
D03*
X43112Y34162D02*
D03*
Y34892D02*
D03*
X47350Y26715D02*
D03*
Y25985D02*
D03*
X48000Y33335D02*
D03*
Y32605D02*
D03*
X47320D02*
D03*
Y33335D02*
D03*
X45970Y33315D02*
D03*
Y32585D02*
D03*
X46650D02*
D03*
Y33315D02*
D03*
X28770Y30625D02*
D03*
Y31355D02*
D03*
X28110Y30625D02*
D03*
Y31355D02*
D03*
D41*
X30292Y27112D02*
D03*
Y26128D02*
D03*
D42*
X28560Y28520D02*
D03*
Y24720D02*
D03*
D43*
X38521Y28557D02*
D03*
X38271Y28307D02*
D03*
X37735Y36295D02*
D03*
X37485Y36045D02*
D03*
X37485Y35345D02*
D03*
X37235Y35095D02*
D03*
X41492Y34419D02*
D03*
X41242Y34169D02*
D03*
X41787Y34121D02*
D03*
X41537Y33871D02*
D03*
X42083Y33825D02*
D03*
X41833Y33575D02*
D03*
D44*
X44815Y31251D02*
D03*
D45*
X44315D02*
D03*
X43815D02*
D03*
X43315D02*
D03*
X44815Y33317D02*
D03*
X44315D02*
D03*
X43815D02*
D03*
X43315D02*
D03*
D46*
X46750Y26724D02*
D03*
Y25976D02*
D03*
X45857Y26350D02*
D03*
D47*
X41669Y24054D02*
D03*
Y23306D02*
D03*
Y23680D02*
D03*
X42771Y23306D02*
D03*
Y24054D02*
D03*
X37499Y24114D02*
D03*
Y23366D02*
D03*
Y23740D02*
D03*
X38601Y23366D02*
D03*
Y24114D02*
D03*
D48*
X28977Y32103D02*
D03*
Y32300D02*
D03*
Y32497D02*
D03*
Y32694D02*
D03*
Y32890D02*
D03*
X30639Y32103D02*
D03*
Y32300D02*
D03*
Y32497D02*
D03*
Y32694D02*
D03*
Y32890D02*
D03*
D49*
X38512Y30094D02*
D03*
X38158Y29741D02*
D03*
X37805Y29387D02*
D03*
X37451Y29034D02*
D03*
X36546Y32060D02*
D03*
X36193Y31706D02*
D03*
X35839Y31353D02*
D03*
X35486Y30999D02*
D03*
D50*
X43885Y36483D02*
D03*
X44615D02*
D03*
X43879Y35861D02*
D03*
X44609Y35861D02*
D03*
X47305Y27980D02*
D03*
X46575D02*
D03*
Y27360D02*
D03*
X47305D02*
D03*
X44107Y23323D02*
D03*
X44837D02*
D03*
X45348Y30407D02*
D03*
X44618D02*
D03*
X44619Y29762D02*
D03*
X45349D02*
D03*
X44516Y34093D02*
D03*
X43786D02*
D03*
X43796Y34713D02*
D03*
X44526D02*
D03*
X32395Y31550D02*
D03*
X31665D02*
D03*
X32395Y32160D02*
D03*
X31665D02*
D03*
X31655Y33640D02*
D03*
X32385D02*
D03*
D51*
X37025Y32485D02*
D03*
X36775Y32735D02*
D03*
X41271Y31139D02*
D03*
X41021Y31389D02*
D03*
D52*
X34537Y24040D02*
D03*
X35068Y24055D02*
D03*
X35567Y24057D02*
D03*
X36974Y27341D02*
D03*
D53*
X34537Y23370D02*
D03*
X35068Y23385D02*
D03*
X35567Y23387D02*
D03*
X36974Y28011D02*
D03*
D54*
X40834Y35090D02*
D03*
X41446D02*
D03*
D55*
X36355Y36333D02*
D03*
X36940Y35748D02*
D03*
X36467Y35275D02*
D03*
X35882Y35860D02*
D03*
D56*
X41301Y36744D02*
D03*
X39292D02*
D03*
D57*
X39340Y32640D02*
D03*
D58*
X39115Y34312D02*
D03*
X39004Y34201D02*
D03*
X38893Y34090D02*
D03*
X38781Y33978D02*
D03*
X38670Y33867D02*
D03*
X38558Y33756D02*
D03*
X38447Y33644D02*
D03*
X38336Y33533D02*
D03*
X38224Y33422D02*
D03*
X38113Y33310D02*
D03*
X38002Y33199D02*
D03*
X37890Y33088D02*
D03*
X37779Y32976D02*
D03*
X37668Y32865D02*
D03*
X39565Y30968D02*
D03*
X39676Y31079D02*
D03*
X39788Y31190D02*
D03*
X39899Y31302D02*
D03*
X40010Y31413D02*
D03*
X40122Y31524D02*
D03*
X40233Y31636D02*
D03*
X40344Y31747D02*
D03*
X40456Y31858D02*
D03*
X40567Y31970D02*
D03*
X40678Y32081D02*
D03*
X40790Y32192D02*
D03*
X40901Y32304D02*
D03*
X41012Y32415D02*
D03*
D59*
X37668Y32415D02*
D03*
X37779Y32304D02*
D03*
X37890Y32192D02*
D03*
X38002Y32081D02*
D03*
X38113Y31970D02*
D03*
X38224Y31858D02*
D03*
X38336Y31747D02*
D03*
X38447Y31636D02*
D03*
X38558Y31524D02*
D03*
X38670Y31413D02*
D03*
X38781Y31302D02*
D03*
X38893Y31190D02*
D03*
X39004Y31079D02*
D03*
X39115Y30968D02*
D03*
X41012Y32865D02*
D03*
X40901Y32976D02*
D03*
X40790Y33088D02*
D03*
X40678Y33199D02*
D03*
X40567Y33310D02*
D03*
X40456Y33422D02*
D03*
X40344Y33533D02*
D03*
X40233Y33644D02*
D03*
X40122Y33756D02*
D03*
X40010Y33867D02*
D03*
X39899Y33978D02*
D03*
X39788Y34090D02*
D03*
X39676Y34201D02*
D03*
X39565Y34312D02*
D03*
D60*
X47310Y31911D02*
D03*
X46640Y31901D02*
D03*
X47990Y30799D02*
D03*
X45950D02*
D03*
D61*
X47310Y30809D02*
D03*
X46640Y30799D02*
D03*
X47990Y31901D02*
D03*
X45950D02*
D03*
D62*
X45656Y28674D02*
D03*
X46404D02*
D03*
D63*
X36210Y23376D02*
D03*
Y24124D02*
D03*
X39880Y23346D02*
D03*
Y24094D02*
D03*
M02*
