G04*
G04 #@! TF.GenerationSoftware,Altium Limited,Altium Designer,20.0.13 (296)*
G04*
G04 Layer_Physical_Order=2*
G04 Layer_Color=36540*
%FSLAX24Y24*%
%MOIN*%
G70*
G01*
G75*
%ADD17C,0.0060*%
%ADD19C,0.0374*%
%ADD21C,0.0394*%
%ADD23C,0.0200*%
%ADD24C,0.0280*%
%ADD26C,0.0240*%
%ADD27C,0.0200*%
G36*
X48689Y29510D02*
X48696Y29471D01*
X48718Y29438D01*
X48751Y29416D01*
X48790Y29409D01*
X50139D01*
Y27612D01*
X47788Y25262D01*
X47788Y25262D01*
X47788Y25261D01*
X47777Y25245D01*
X47766Y25229D01*
X47766Y25229D01*
X47766Y25229D01*
X47762Y25209D01*
X47759Y25190D01*
X47759Y25190D01*
X47759Y25190D01*
X47765Y22783D01*
X47730Y22747D01*
X33278Y22775D01*
X33257Y22825D01*
X33574Y23143D01*
X33610Y23196D01*
X33622Y23258D01*
X33622Y23258D01*
Y23575D01*
X34882Y24835D01*
X42646D01*
X42708Y24847D01*
X42761Y24883D01*
X44796Y26918D01*
X44832Y26971D01*
X44844Y27033D01*
Y29368D01*
X46969D01*
X47015Y29322D01*
X47061Y29303D01*
X47107Y29322D01*
X47801Y30016D01*
X47820Y30062D01*
Y30415D01*
X47870Y30431D01*
X47870Y30430D01*
X47923Y30395D01*
X47986Y30382D01*
X48048Y30395D01*
X48101Y30430D01*
X48136Y30483D01*
X48149Y30545D01*
X48136Y30608D01*
X48101Y30661D01*
X48048Y30696D01*
X47986Y30708D01*
X47923Y30696D01*
X47870Y30661D01*
X47870Y30660D01*
X47820Y30675D01*
Y34038D01*
X47819Y34041D01*
X47820Y34044D01*
X47809Y34063D01*
X47801Y34084D01*
X47832Y34117D01*
X47868Y34170D01*
X47880Y34232D01*
X47868Y34294D01*
X47832Y34347D01*
X47801Y34380D01*
X47809Y34401D01*
X47820Y34420D01*
X47819Y34423D01*
X47820Y34426D01*
Y34882D01*
X47801Y34928D01*
X47755Y34947D01*
X43381D01*
X43351Y34977D01*
X43345Y34979D01*
X43341Y34985D01*
X43322Y34989D01*
X43305Y34996D01*
X43299Y34993D01*
X43292Y34994D01*
X43243Y34984D01*
X43237Y34980D01*
X43230Y34980D01*
X43217Y34967D01*
X43202Y34956D01*
X43201Y34950D01*
X43196Y34945D01*
X42945Y34314D01*
X42942Y34315D01*
X42880Y34303D01*
X42827Y34267D01*
X42791Y34214D01*
X42779Y34152D01*
X42791Y34090D01*
X42827Y34037D01*
X42833Y34032D01*
X42828Y34019D01*
X42817Y34003D01*
X42813Y33982D01*
X42648Y33566D01*
X42648Y33554D01*
X42643Y33542D01*
Y32161D01*
X42597Y32152D01*
X42544Y32117D01*
X42509Y32064D01*
X42496Y32001D01*
X42509Y31939D01*
X42544Y31886D01*
X42597Y31851D01*
X42643Y31842D01*
Y31206D01*
X42662Y31160D01*
X44435Y29387D01*
X44481Y29368D01*
X44518D01*
Y27101D01*
X42578Y25161D01*
X34814D01*
X34752Y25149D01*
X34699Y25113D01*
X34005Y24419D01*
X33950Y24436D01*
X33948Y24448D01*
X33912Y24501D01*
X33859Y24537D01*
X33797Y24549D01*
X33735Y24537D01*
X33682Y24501D01*
X33646Y24448D01*
X33634Y24386D01*
X33646Y24324D01*
X33682Y24271D01*
X33735Y24235D01*
X33747Y24233D01*
X33764Y24178D01*
X33344Y23758D01*
X33308Y23705D01*
X33296Y23643D01*
Y23326D01*
X33197Y23226D01*
X33147Y23247D01*
Y23687D01*
X33056D01*
X33040Y23737D01*
X33078Y23762D01*
X33132Y23843D01*
X33151Y23940D01*
X33132Y24036D01*
X33078Y24118D01*
X32996Y24173D01*
X32900Y24192D01*
X32803Y24173D01*
X32721Y24118D01*
X32677Y24052D01*
X32674Y24051D01*
X32626Y24051D01*
X32622Y24052D01*
X32578Y24118D01*
X32496Y24172D01*
X32400Y24192D01*
X32303Y24172D01*
X32221Y24118D01*
X32177Y24052D01*
X32174Y24051D01*
X32125D01*
X32122Y24052D01*
X32078Y24118D01*
X31996Y24172D01*
X31900Y24192D01*
X31803Y24172D01*
X31721Y24118D01*
X31677Y24052D01*
X31674Y24051D01*
X31625D01*
X31622Y24052D01*
X31578Y24118D01*
X31496Y24172D01*
X31400Y24192D01*
X31303Y24172D01*
X31221Y24118D01*
X31167Y24036D01*
X31148Y23940D01*
X31167Y23843D01*
X31221Y23762D01*
X31288Y23718D01*
X31289Y23714D01*
Y23666D01*
X31288Y23662D01*
X31221Y23618D01*
X31167Y23536D01*
X31148Y23440D01*
X31167Y23343D01*
X31213Y23275D01*
X31214Y23269D01*
X31217Y23266D01*
X31217Y23265D01*
X31219Y23262D01*
X31221Y23256D01*
X31223Y23247D01*
X31225Y23238D01*
X31229Y23191D01*
X31229Y23172D01*
X31231Y23168D01*
Y23128D01*
X31243Y23066D01*
X31279Y23013D01*
X31463Y22829D01*
X31442Y22779D01*
X27618Y22786D01*
Y34915D01*
X33386D01*
X33392Y34916D01*
X33392Y34916D01*
X33431Y34923D01*
X33464Y34945D01*
X33486Y34978D01*
X33493Y35017D01*
Y37285D01*
X38570D01*
X38573Y37280D01*
Y35641D01*
X38564Y35624D01*
X38558Y35623D01*
X38515Y35595D01*
X38476Y35604D01*
X38461Y35612D01*
X38458Y35628D01*
X38422Y35681D01*
X38369Y35717D01*
X38307Y35729D01*
X38245Y35717D01*
X38192Y35681D01*
X38156Y35628D01*
X38144Y35566D01*
X38153Y35522D01*
X38126Y35466D01*
X38117Y35464D01*
X38064Y35428D01*
X38028Y35375D01*
X38016Y35313D01*
X38028Y35251D01*
X38064Y35198D01*
X38117Y35162D01*
X38179Y35150D01*
X38241Y35162D01*
X38294Y35198D01*
X38330Y35251D01*
X38342Y35313D01*
X38333Y35357D01*
X38360Y35413D01*
X38369Y35415D01*
X38412Y35443D01*
X38451Y35434D01*
X38466Y35426D01*
X38469Y35410D01*
X38505Y35357D01*
X38558Y35321D01*
X38620Y35309D01*
X38682Y35321D01*
X38735Y35357D01*
X38771Y35410D01*
X38783Y35472D01*
X38772Y35526D01*
X38798Y35576D01*
X41992D01*
X42038Y35595D01*
X42057Y35641D01*
Y37280D01*
X42060Y37285D01*
X48689D01*
Y29510D01*
D02*
G37*
G36*
X43354Y34882D02*
X47755D01*
Y34426D01*
X47717Y34395D01*
X47655Y34383D01*
X47602Y34347D01*
X47566Y34294D01*
X47554Y34232D01*
X47566Y34170D01*
X47602Y34117D01*
X47655Y34081D01*
X47717Y34069D01*
X47755Y34038D01*
Y30062D01*
X47061Y29368D01*
X46996Y29433D01*
X44481D01*
X42708Y31206D01*
Y31848D01*
X42722Y31851D01*
X42764Y31879D01*
X42804Y31869D01*
X42818Y31861D01*
X42820Y31851D01*
X42856Y31798D01*
X42909Y31762D01*
X42971Y31750D01*
X43033Y31762D01*
X43086Y31798D01*
X43122Y31851D01*
X43134Y31913D01*
X43122Y31975D01*
X43086Y32028D01*
X43033Y32064D01*
X42971Y32076D01*
X42909Y32064D01*
X42867Y32036D01*
X42827Y32045D01*
X42812Y32053D01*
X42810Y32064D01*
X42775Y32117D01*
X42722Y32152D01*
X42708Y32155D01*
Y33542D01*
X43256Y34921D01*
X43305Y34931D01*
X43354Y34882D01*
D02*
G37*
G36*
X31526Y23302D02*
X31520Y23296D01*
X31515Y23287D01*
X31510Y23278D01*
X31506Y23266D01*
X31502Y23253D01*
X31499Y23239D01*
X31497Y23223D01*
X31494Y23187D01*
X31494Y23166D01*
X31294Y23173D01*
X31294Y23194D01*
X31289Y23246D01*
X31287Y23261D01*
X31283Y23274D01*
X31280Y23285D01*
X31275Y23295D01*
X31270Y23303D01*
X31265Y23310D01*
X31526Y23302D01*
D02*
G37*
%LPC*%
G36*
X47280Y36802D02*
X47183Y36782D01*
X47102Y36728D01*
X47057Y36662D01*
X47054Y36660D01*
X47006Y36660D01*
X47002Y36662D01*
X46958Y36728D01*
X46876Y36782D01*
X46780Y36802D01*
X46683Y36782D01*
X46601Y36728D01*
X46557Y36662D01*
X46554Y36661D01*
X46506D01*
X46502Y36662D01*
X46458Y36728D01*
X46376Y36782D01*
X46280Y36802D01*
X46183Y36782D01*
X46101Y36728D01*
X46057Y36662D01*
X46054Y36661D01*
X46006D01*
X46002Y36662D01*
X45958Y36728D01*
X45876Y36782D01*
X45780Y36802D01*
X45683Y36782D01*
X45601Y36728D01*
X45547Y36646D01*
X45528Y36550D01*
X45547Y36453D01*
X45601Y36372D01*
X45668Y36328D01*
X45669Y36324D01*
Y36276D01*
X45668Y36272D01*
X45601Y36228D01*
X45547Y36146D01*
X45528Y36050D01*
X45547Y35953D01*
X45601Y35872D01*
X45683Y35817D01*
X45780Y35798D01*
X45876Y35817D01*
X45958Y35872D01*
X46002Y35938D01*
X46006Y35939D01*
X46054D01*
X46057Y35938D01*
X46101Y35872D01*
X46183Y35817D01*
X46280Y35798D01*
X46376Y35817D01*
X46458Y35872D01*
X46502Y35938D01*
X46506Y35939D01*
X46554D01*
X46557Y35938D01*
X46601Y35872D01*
X46683Y35817D01*
X46780Y35798D01*
X46876Y35817D01*
X46958Y35872D01*
X46983Y35909D01*
X47033Y35894D01*
Y35803D01*
X47527D01*
Y36297D01*
X47436D01*
X47420Y36347D01*
X47458Y36372D01*
X47512Y36453D01*
X47531Y36550D01*
X47512Y36646D01*
X47458Y36728D01*
X47376Y36782D01*
X47280Y36802D01*
D02*
G37*
G36*
X44867Y36660D02*
X44805Y36648D01*
X44752Y36612D01*
X44716Y36559D01*
X44704Y36497D01*
X44716Y36435D01*
X44752Y36382D01*
X44805Y36346D01*
X44867Y36334D01*
X44929Y36346D01*
X44982Y36382D01*
X45018Y36435D01*
X45030Y36497D01*
X45018Y36559D01*
X44982Y36612D01*
X44929Y36648D01*
X44867Y36660D01*
D02*
G37*
G36*
X43614Y36704D02*
X43532Y36688D01*
X43463Y36641D01*
X43416Y36572D01*
X43400Y36490D01*
X43416Y36408D01*
X43463Y36339D01*
X43532Y36292D01*
X43614Y36276D01*
X43696Y36292D01*
X43765Y36339D01*
X43812Y36408D01*
X43828Y36490D01*
X43812Y36572D01*
X43765Y36641D01*
X43696Y36688D01*
X43614Y36704D01*
D02*
G37*
G36*
X42573Y36256D02*
X42511Y36244D01*
X42458Y36208D01*
X42422Y36155D01*
X42410Y36093D01*
X42412Y36085D01*
X42369Y36042D01*
X42359Y36044D01*
X42297Y36032D01*
X42244Y35996D01*
X42208Y35943D01*
X42196Y35881D01*
X42208Y35819D01*
X42244Y35766D01*
X42297Y35730D01*
X42359Y35718D01*
X42421Y35730D01*
X42474Y35766D01*
X42510Y35819D01*
X42522Y35881D01*
X42520Y35889D01*
X42563Y35932D01*
X42573Y35930D01*
X42635Y35942D01*
X42688Y35978D01*
X42724Y36031D01*
X42736Y36093D01*
X42724Y36155D01*
X42688Y36208D01*
X42635Y36244D01*
X42573Y36256D01*
D02*
G37*
G36*
X44861Y36028D02*
X44799Y36016D01*
X44746Y35980D01*
X44710Y35927D01*
X44698Y35865D01*
X44710Y35803D01*
X44746Y35750D01*
X44799Y35714D01*
X44861Y35702D01*
X44923Y35714D01*
X44976Y35750D01*
X45012Y35803D01*
X45024Y35865D01*
X45012Y35927D01*
X44976Y35980D01*
X44923Y36016D01*
X44861Y36028D01*
D02*
G37*
G36*
X42907Y35838D02*
X42845Y35826D01*
X42792Y35790D01*
X42756Y35737D01*
X42744Y35675D01*
X42756Y35613D01*
X42792Y35560D01*
X42845Y35524D01*
X42907Y35512D01*
X42969Y35524D01*
X43022Y35560D01*
X43058Y35613D01*
X43070Y35675D01*
X43058Y35737D01*
X43022Y35790D01*
X42969Y35826D01*
X42907Y35838D01*
D02*
G37*
G36*
X43870Y35846D02*
X43788Y35830D01*
X43719Y35783D01*
X43672Y35714D01*
X43656Y35632D01*
X43672Y35550D01*
X43719Y35481D01*
X43788Y35434D01*
X43870Y35418D01*
X43952Y35434D01*
X44021Y35481D01*
X44068Y35550D01*
X44084Y35632D01*
X44068Y35714D01*
X44021Y35783D01*
X43952Y35830D01*
X43870Y35846D01*
D02*
G37*
G36*
X41737Y35389D02*
X41675Y35376D01*
X41622Y35341D01*
X41586Y35288D01*
X41574Y35226D01*
X41586Y35163D01*
X41612Y35125D01*
X41586Y35086D01*
X41574Y35024D01*
X41586Y34961D01*
X41622Y34908D01*
X41675Y34873D01*
X41737Y34860D01*
X41799Y34873D01*
X41852Y34908D01*
X41888Y34961D01*
X41900Y35024D01*
X41888Y35086D01*
X41862Y35125D01*
X41888Y35163D01*
X41900Y35226D01*
X41888Y35288D01*
X41852Y35341D01*
X41799Y35376D01*
X41737Y35389D01*
D02*
G37*
G36*
X35301Y35002D02*
X35239Y34990D01*
X35186Y34954D01*
X35150Y34901D01*
X35138Y34839D01*
X35150Y34777D01*
X35186Y34724D01*
X35239Y34688D01*
X35301Y34676D01*
X35363Y34688D01*
X35416Y34724D01*
X35452Y34777D01*
X35464Y34839D01*
X35452Y34901D01*
X35416Y34954D01*
X35363Y34990D01*
X35301Y35002D01*
D02*
G37*
G36*
X42216Y35375D02*
X42154Y35362D01*
X42101Y35327D01*
X42065Y35274D01*
X42053Y35212D01*
X42065Y35149D01*
X42086Y35118D01*
X42057Y35075D01*
X42045Y35013D01*
X42057Y34950D01*
X42093Y34897D01*
X42146Y34862D01*
X42201Y34851D01*
X42210Y34846D01*
X42238Y34804D01*
X42231Y34767D01*
X42243Y34704D01*
X42279Y34651D01*
X42332Y34616D01*
X42394Y34603D01*
X42456Y34616D01*
X42509Y34651D01*
X42532Y34635D01*
X42533Y34634D01*
X42586Y34599D01*
X42648Y34586D01*
X42710Y34599D01*
X42763Y34634D01*
X42799Y34687D01*
X42811Y34750D01*
X42799Y34812D01*
X42763Y34865D01*
X42710Y34900D01*
X42648Y34913D01*
X42586Y34900D01*
X42533Y34865D01*
X42510Y34881D01*
X42509Y34882D01*
X42456Y34917D01*
X42401Y34928D01*
X42392Y34933D01*
X42364Y34975D01*
X42371Y35013D01*
X42359Y35075D01*
X42338Y35106D01*
X42367Y35149D01*
X42379Y35212D01*
X42367Y35274D01*
X42331Y35327D01*
X42278Y35362D01*
X42216Y35375D01*
D02*
G37*
G36*
X38937Y34916D02*
X38875Y34904D01*
X38822Y34868D01*
X38786Y34815D01*
X38774Y34753D01*
X38786Y34691D01*
X38822Y34638D01*
X38875Y34602D01*
X38937Y34590D01*
X38950Y34592D01*
X38998Y34588D01*
X39010Y34526D01*
X39046Y34473D01*
X39099Y34437D01*
X39161Y34425D01*
X39223Y34437D01*
X39276Y34473D01*
X39312Y34526D01*
X39324Y34588D01*
X39312Y34650D01*
X39276Y34703D01*
X39223Y34739D01*
X39161Y34751D01*
X39148Y34749D01*
X39100Y34753D01*
X39088Y34815D01*
X39052Y34868D01*
X38999Y34904D01*
X38937Y34916D01*
D02*
G37*
G36*
X40213Y34522D02*
X40151Y34510D01*
X40098Y34474D01*
X40062Y34421D01*
X40050Y34359D01*
X40062Y34297D01*
X40098Y34244D01*
X40151Y34208D01*
X40213Y34196D01*
X40275Y34208D01*
X40328Y34244D01*
X40364Y34297D01*
X40376Y34359D01*
X40364Y34421D01*
X40328Y34474D01*
X40275Y34510D01*
X40213Y34522D01*
D02*
G37*
G36*
X41135Y34424D02*
X41073Y34412D01*
X41020Y34376D01*
X40984Y34323D01*
X40972Y34261D01*
X40984Y34199D01*
X41020Y34146D01*
X41073Y34110D01*
X41135Y34098D01*
X41197Y34110D01*
X41250Y34146D01*
X41286Y34199D01*
X41298Y34261D01*
X41286Y34323D01*
X41250Y34376D01*
X41197Y34412D01*
X41135Y34424D01*
D02*
G37*
G36*
X48277Y34396D02*
X48215Y34384D01*
X48162Y34348D01*
X48127Y34296D01*
X48114Y34233D01*
X48127Y34171D01*
X48162Y34118D01*
X48215Y34082D01*
X48277Y34070D01*
X48340Y34082D01*
X48393Y34118D01*
X48428Y34171D01*
X48440Y34233D01*
X48428Y34296D01*
X48393Y34348D01*
X48340Y34384D01*
X48277Y34396D01*
D02*
G37*
G36*
X35956Y34370D02*
X35894Y34358D01*
X35841Y34322D01*
X35805Y34269D01*
X35793Y34207D01*
X35805Y34145D01*
X35841Y34092D01*
X35894Y34056D01*
X35956Y34044D01*
X36018Y34056D01*
X36071Y34092D01*
X36107Y34145D01*
X36119Y34207D01*
X36107Y34269D01*
X36071Y34322D01*
X36018Y34358D01*
X35956Y34370D01*
D02*
G37*
G36*
X37191Y34297D02*
X37129Y34285D01*
X37076Y34250D01*
X37040Y34197D01*
X37028Y34134D01*
X37040Y34072D01*
X37076Y34019D01*
X37129Y33984D01*
X37191Y33971D01*
X37253Y33984D01*
X37306Y34019D01*
X37342Y34072D01*
X37354Y34134D01*
X37342Y34197D01*
X37306Y34250D01*
X37253Y34285D01*
X37191Y34297D01*
D02*
G37*
G36*
X34663Y34244D02*
X34601Y34231D01*
X34548Y34196D01*
X34513Y34143D01*
X34500Y34080D01*
X34513Y34018D01*
X34548Y33965D01*
X34601Y33930D01*
X34663Y33917D01*
X34726Y33930D01*
X34779Y33965D01*
X34814Y34018D01*
X34826Y34080D01*
X34814Y34143D01*
X34779Y34196D01*
X34726Y34231D01*
X34663Y34244D01*
D02*
G37*
G36*
X41437Y33936D02*
X41375Y33924D01*
X41322Y33888D01*
X41286Y33835D01*
X41274Y33773D01*
X41286Y33711D01*
X41322Y33658D01*
X41375Y33622D01*
X41437Y33610D01*
X41499Y33622D01*
X41552Y33658D01*
X41588Y33711D01*
X41600Y33773D01*
X41588Y33835D01*
X41552Y33888D01*
X41499Y33924D01*
X41437Y33936D01*
D02*
G37*
G36*
X37183Y33872D02*
X37121Y33860D01*
X37068Y33825D01*
X37032Y33772D01*
X37020Y33709D01*
X37032Y33647D01*
X37068Y33594D01*
X37121Y33559D01*
X37183Y33546D01*
X37245Y33559D01*
X37298Y33594D01*
X37334Y33647D01*
X37346Y33709D01*
X37334Y33772D01*
X37298Y33825D01*
X37245Y33860D01*
X37183Y33872D01*
D02*
G37*
G36*
X32625Y33801D02*
X32563Y33789D01*
X32510Y33753D01*
X32475Y33701D01*
X32462Y33638D01*
X32475Y33576D01*
X32510Y33523D01*
X32563Y33487D01*
X32625Y33475D01*
X32688Y33487D01*
X32741Y33523D01*
X32776Y33576D01*
X32788Y33638D01*
X32776Y33701D01*
X32741Y33753D01*
X32688Y33789D01*
X32625Y33801D01*
D02*
G37*
G36*
X41730Y33657D02*
X41668Y33644D01*
X41615Y33609D01*
X41580Y33556D01*
X41567Y33493D01*
X41580Y33431D01*
X41615Y33378D01*
X41668Y33343D01*
X41730Y33330D01*
X41793Y33343D01*
X41846Y33378D01*
X41881Y33431D01*
X41893Y33493D01*
X41881Y33556D01*
X41846Y33609D01*
X41793Y33644D01*
X41730Y33657D01*
D02*
G37*
G36*
X37175Y33452D02*
X37113Y33440D01*
X37060Y33405D01*
X37024Y33352D01*
X37012Y33289D01*
X37024Y33227D01*
X37060Y33174D01*
X37113Y33139D01*
X37175Y33126D01*
X37237Y33139D01*
X37290Y33174D01*
X37326Y33227D01*
X37338Y33289D01*
X37326Y33352D01*
X37290Y33405D01*
X37237Y33440D01*
X37175Y33452D01*
D02*
G37*
G36*
X38232Y33115D02*
X38170Y33103D01*
X38117Y33067D01*
X38081Y33014D01*
X38069Y32952D01*
X38081Y32890D01*
X38117Y32837D01*
X38170Y32801D01*
X38232Y32789D01*
X38294Y32801D01*
X38347Y32837D01*
X38383Y32890D01*
X38395Y32952D01*
X38383Y33014D01*
X38347Y33067D01*
X38294Y33103D01*
X38232Y33115D01*
D02*
G37*
G36*
X42037Y32881D02*
X41975Y32869D01*
X41922Y32833D01*
X41886Y32780D01*
X41874Y32718D01*
X41886Y32656D01*
X41922Y32603D01*
X41975Y32567D01*
X42037Y32555D01*
X42099Y32567D01*
X42152Y32603D01*
X42188Y32656D01*
X42200Y32718D01*
X42188Y32780D01*
X42152Y32833D01*
X42099Y32869D01*
X42037Y32881D01*
D02*
G37*
G36*
X40893Y33736D02*
X40831Y33724D01*
X40778Y33688D01*
X40742Y33635D01*
X40730Y33573D01*
X40742Y33511D01*
X40778Y33458D01*
X40831Y33422D01*
X40893Y33410D01*
X40919Y33364D01*
X40916Y33349D01*
X40928Y33287D01*
X40964Y33234D01*
X41017Y33198D01*
X41079Y33186D01*
X41095Y33189D01*
X41114Y33178D01*
X41138Y33147D01*
X41138Y33146D01*
X41138Y33140D01*
X41137Y33135D01*
X41136Y33130D01*
X41135Y33126D01*
X41133Y33123D01*
X41132Y33120D01*
X41130Y33118D01*
X41129Y33115D01*
X41125Y33111D01*
X41122Y33104D01*
X41071Y33053D01*
X41051Y33023D01*
X41044Y32988D01*
Y31637D01*
X40994Y31610D01*
X40982Y31618D01*
X40920Y31630D01*
X40858Y31618D01*
X40805Y31582D01*
X40769Y31529D01*
X40757Y31467D01*
X40769Y31405D01*
X40805Y31352D01*
X40858Y31316D01*
X40920Y31304D01*
X40982Y31316D01*
X40994Y31324D01*
X41044Y31297D01*
Y30874D01*
X40423Y30253D01*
X39763D01*
X39756Y30256D01*
X39750Y30256D01*
X39747Y30257D01*
X39744Y30257D01*
X39741Y30258D01*
X39738Y30260D01*
X39734Y30262D01*
X39730Y30264D01*
X39726Y30268D01*
X39721Y30272D01*
X39714Y30278D01*
X39707Y30281D01*
X39660Y30312D01*
X39598Y30324D01*
X39536Y30312D01*
X39483Y30276D01*
X39447Y30223D01*
X39435Y30161D01*
X39447Y30099D01*
X39483Y30046D01*
X39536Y30010D01*
X39598Y29998D01*
X39660Y30010D01*
X39707Y30041D01*
X39714Y30044D01*
X39721Y30050D01*
X39726Y30054D01*
X39730Y30058D01*
X39734Y30060D01*
X39738Y30062D01*
X39741Y30064D01*
X39744Y30065D01*
X39747Y30065D01*
X39750Y30066D01*
X39756Y30066D01*
X39763Y30069D01*
X40461D01*
X40496Y30076D01*
X40526Y30096D01*
X41201Y30771D01*
X41221Y30801D01*
X41228Y30836D01*
Y32469D01*
X41278Y32497D01*
X41329Y32486D01*
X41392Y32499D01*
X41445Y32534D01*
X41480Y32587D01*
X41492Y32649D01*
X41480Y32712D01*
X41445Y32765D01*
X41392Y32800D01*
X41329Y32813D01*
X41278Y32802D01*
X41228Y32830D01*
Y32950D01*
X41253Y32975D01*
X41259Y32977D01*
X41264Y32981D01*
X41266Y32983D01*
X41269Y32985D01*
X41272Y32986D01*
X41276Y32988D01*
X41280Y32989D01*
X41285Y32990D01*
X41290Y32991D01*
X41297Y32992D01*
X41306Y32992D01*
X41315Y32996D01*
X41365Y33006D01*
X41418Y33042D01*
X41454Y33095D01*
X41466Y33157D01*
X41454Y33219D01*
X41418Y33272D01*
X41365Y33308D01*
X41303Y33320D01*
X41287Y33317D01*
X41242Y33349D01*
X41230Y33411D01*
X41194Y33464D01*
X41141Y33500D01*
X41079Y33512D01*
X41053Y33558D01*
X41056Y33573D01*
X41044Y33635D01*
X41008Y33688D01*
X40955Y33724D01*
X40893Y33736D01*
D02*
G37*
G36*
X30022Y32625D02*
X29960Y32613D01*
X29907Y32577D01*
X29872Y32525D01*
X29859Y32462D01*
X29872Y32400D01*
X29907Y32347D01*
X29960Y32311D01*
X30022Y32299D01*
X30085Y32311D01*
X30138Y32347D01*
X30173Y32400D01*
X30185Y32462D01*
X30173Y32525D01*
X30138Y32577D01*
X30085Y32613D01*
X30022Y32625D01*
D02*
G37*
G36*
X35687Y32545D02*
X35625Y32533D01*
X35572Y32497D01*
X35536Y32444D01*
X35524Y32382D01*
X35535Y32324D01*
X35524Y32305D01*
X35503Y32279D01*
X35478Y32285D01*
X35415Y32272D01*
X35362Y32237D01*
X35327Y32184D01*
X35314Y32121D01*
X35327Y32059D01*
X35362Y32006D01*
X35415Y31971D01*
X35478Y31958D01*
X35540Y31971D01*
X35593Y32006D01*
X35628Y32059D01*
X35641Y32121D01*
X35629Y32179D01*
X35641Y32199D01*
X35662Y32224D01*
X35687Y32219D01*
X35749Y32231D01*
X35802Y32267D01*
X35838Y32320D01*
X35850Y32382D01*
X35838Y32444D01*
X35802Y32497D01*
X35749Y32533D01*
X35687Y32545D01*
D02*
G37*
G36*
X37117Y32563D02*
X37055Y32551D01*
X37002Y32515D01*
X36967Y32463D01*
X36954Y32400D01*
X36967Y32338D01*
X37002Y32285D01*
X37055Y32249D01*
X37117Y32237D01*
X37180Y32249D01*
X37233Y32285D01*
X37268Y32338D01*
X37280Y32400D01*
X37268Y32463D01*
X37233Y32515D01*
X37180Y32551D01*
X37117Y32563D01*
D02*
G37*
G36*
X40492Y32529D02*
X40430Y32517D01*
X40377Y32481D01*
X40341Y32428D01*
X40329Y32366D01*
X40341Y32304D01*
X40377Y32251D01*
X40430Y32215D01*
X40492Y32203D01*
X40554Y32215D01*
X40607Y32251D01*
X40643Y32304D01*
X40655Y32366D01*
X40643Y32428D01*
X40607Y32481D01*
X40554Y32517D01*
X40492Y32529D01*
D02*
G37*
G36*
X38356Y32393D02*
X38294Y32381D01*
X38241Y32345D01*
X38205Y32292D01*
X38193Y32230D01*
X38205Y32168D01*
X38241Y32115D01*
X38294Y32079D01*
X38356Y32067D01*
X38418Y32079D01*
X38471Y32115D01*
X38507Y32168D01*
X38519Y32230D01*
X38507Y32292D01*
X38471Y32345D01*
X38418Y32381D01*
X38356Y32393D01*
D02*
G37*
G36*
X32632Y32336D02*
X32570Y32324D01*
X32517Y32288D01*
X32482Y32236D01*
X32469Y32173D01*
X32482Y32111D01*
X32517Y32058D01*
X32570Y32022D01*
X32632Y32010D01*
X32695Y32022D01*
X32748Y32058D01*
X32783Y32111D01*
X32795Y32173D01*
X32783Y32236D01*
X32748Y32288D01*
X32695Y32324D01*
X32632Y32336D01*
D02*
G37*
G36*
X37701Y31848D02*
X37639Y31836D01*
X37586Y31800D01*
X37550Y31747D01*
X37546Y31725D01*
X37490Y31702D01*
X37478Y31710D01*
X37416Y31722D01*
X37354Y31710D01*
X37301Y31674D01*
X37265Y31621D01*
X37256Y31574D01*
X37219Y31552D01*
X37204Y31549D01*
X37187Y31560D01*
X37125Y31572D01*
X37063Y31560D01*
X37010Y31524D01*
X37004Y31516D01*
X36950Y31508D01*
X36945Y31511D01*
X36897Y31543D01*
X36835Y31556D01*
X36772Y31543D01*
X36719Y31508D01*
X36684Y31455D01*
X36671Y31392D01*
X36684Y31330D01*
X36719Y31277D01*
X36772Y31242D01*
X36835Y31229D01*
X36897Y31242D01*
X36950Y31277D01*
X36955Y31285D01*
X37010Y31294D01*
X37014Y31290D01*
X37063Y31258D01*
X37125Y31246D01*
X37187Y31258D01*
X37240Y31294D01*
X37276Y31347D01*
X37285Y31394D01*
X37322Y31416D01*
X37337Y31419D01*
X37354Y31408D01*
X37416Y31396D01*
X37478Y31408D01*
X37531Y31444D01*
X37567Y31497D01*
X37571Y31519D01*
X37627Y31542D01*
X37639Y31534D01*
X37701Y31522D01*
X37763Y31534D01*
X37797Y31556D01*
X37833Y31520D01*
X37813Y31491D01*
X37805Y31448D01*
X37784Y31424D01*
X37753Y31414D01*
X37710Y31422D01*
X37648Y31410D01*
X37595Y31374D01*
X37559Y31321D01*
X37547Y31259D01*
X37559Y31197D01*
X37595Y31144D01*
X37648Y31108D01*
X37710Y31096D01*
X37772Y31108D01*
X37825Y31144D01*
X37861Y31197D01*
X37869Y31240D01*
X37890Y31264D01*
X37921Y31274D01*
X37964Y31266D01*
X38026Y31278D01*
X38079Y31314D01*
X38115Y31367D01*
X38127Y31429D01*
X38115Y31491D01*
X38079Y31544D01*
X38026Y31580D01*
X37964Y31592D01*
X37902Y31580D01*
X37868Y31558D01*
X37832Y31594D01*
X37852Y31623D01*
X37864Y31685D01*
X37852Y31747D01*
X37816Y31800D01*
X37763Y31836D01*
X37701Y31848D01*
D02*
G37*
G36*
X34320Y31967D02*
X34258Y31954D01*
X34205Y31919D01*
X34170Y31866D01*
X34157Y31804D01*
X34170Y31741D01*
X34205Y31688D01*
X34258Y31653D01*
X34320Y31641D01*
X34383Y31653D01*
X34436Y31688D01*
X34471Y31741D01*
X34484Y31804D01*
X34471Y31866D01*
X34436Y31919D01*
X34383Y31954D01*
X34320Y31967D01*
D02*
G37*
G36*
X32643Y31709D02*
X32581Y31697D01*
X32528Y31661D01*
X32493Y31609D01*
X32480Y31546D01*
X32493Y31484D01*
X32528Y31431D01*
X32581Y31395D01*
X32643Y31383D01*
X32706Y31395D01*
X32759Y31431D01*
X32794Y31484D01*
X32806Y31546D01*
X32794Y31609D01*
X32759Y31661D01*
X32706Y31697D01*
X32643Y31709D01*
D02*
G37*
G36*
X39429Y31504D02*
X39367Y31492D01*
X39314Y31456D01*
X39278Y31403D01*
X39266Y31341D01*
X39278Y31279D01*
X39314Y31226D01*
X39367Y31190D01*
X39429Y31178D01*
X39491Y31190D01*
X39544Y31226D01*
X39580Y31279D01*
X39592Y31341D01*
X39580Y31403D01*
X39544Y31456D01*
X39491Y31492D01*
X39429Y31504D01*
D02*
G37*
G36*
X31725Y31182D02*
X31663Y31170D01*
X31610Y31134D01*
X31574Y31081D01*
X31562Y31019D01*
X31574Y30957D01*
X31610Y30904D01*
X31663Y30868D01*
X31725Y30856D01*
X31787Y30868D01*
X31840Y30904D01*
X31876Y30957D01*
X31888Y31019D01*
X31876Y31081D01*
X31840Y31134D01*
X31787Y31170D01*
X31725Y31182D01*
D02*
G37*
G36*
X38050Y31070D02*
X37988Y31058D01*
X37935Y31022D01*
X37899Y30969D01*
X37887Y30907D01*
X37899Y30845D01*
X37935Y30792D01*
X37988Y30756D01*
X38050Y30744D01*
X38112Y30756D01*
X38165Y30792D01*
X38201Y30845D01*
X38213Y30907D01*
X38201Y30969D01*
X38165Y31022D01*
X38112Y31058D01*
X38050Y31070D01*
D02*
G37*
G36*
X33401Y30901D02*
X33339Y30889D01*
X33286Y30853D01*
X33250Y30800D01*
X33238Y30738D01*
X33250Y30676D01*
X33286Y30623D01*
X33339Y30587D01*
X33401Y30575D01*
X33463Y30587D01*
X33516Y30623D01*
X33552Y30676D01*
X33564Y30738D01*
X33552Y30800D01*
X33516Y30853D01*
X33463Y30889D01*
X33401Y30901D01*
D02*
G37*
G36*
X38476Y31109D02*
X38414Y31097D01*
X38361Y31061D01*
X38325Y31008D01*
X38313Y30946D01*
X38325Y30884D01*
X38361Y30831D01*
X38414Y30795D01*
X38443Y30790D01*
X38467Y30736D01*
X38455Y30674D01*
X38467Y30612D01*
X38503Y30559D01*
X38556Y30523D01*
X38618Y30511D01*
X38680Y30523D01*
X38733Y30559D01*
X38769Y30612D01*
X38781Y30674D01*
X38769Y30736D01*
X38733Y30789D01*
X38680Y30825D01*
X38651Y30830D01*
X38627Y30884D01*
X38639Y30946D01*
X38627Y31008D01*
X38591Y31061D01*
X38538Y31097D01*
X38476Y31109D01*
D02*
G37*
G36*
X42021Y30744D02*
X41959Y30732D01*
X41906Y30696D01*
X41870Y30643D01*
X41858Y30581D01*
X41870Y30519D01*
X41906Y30466D01*
X41959Y30430D01*
X42021Y30418D01*
X42083Y30430D01*
X42136Y30466D01*
X42172Y30519D01*
X42184Y30581D01*
X42172Y30643D01*
X42136Y30696D01*
X42083Y30732D01*
X42021Y30744D01*
D02*
G37*
G36*
X39424Y30703D02*
X39362Y30691D01*
X39309Y30655D01*
X39273Y30602D01*
X39261Y30540D01*
X39273Y30478D01*
X39309Y30425D01*
X39362Y30389D01*
X39424Y30377D01*
X39486Y30389D01*
X39539Y30425D01*
X39575Y30478D01*
X39587Y30540D01*
X39575Y30602D01*
X39539Y30655D01*
X39486Y30691D01*
X39424Y30703D01*
D02*
G37*
G36*
X40258Y31012D02*
X40196Y31000D01*
X40143Y30964D01*
X40108Y30912D01*
X40095Y30849D01*
X40108Y30787D01*
X40143Y30734D01*
X40156Y30725D01*
Y30665D01*
X40138Y30653D01*
X40103Y30601D01*
X40090Y30538D01*
X40103Y30476D01*
X40138Y30423D01*
X40191Y30387D01*
X40253Y30375D01*
X40316Y30387D01*
X40369Y30423D01*
X40404Y30476D01*
X40416Y30538D01*
X40404Y30601D01*
X40369Y30653D01*
X40356Y30662D01*
Y30722D01*
X40374Y30734D01*
X40409Y30787D01*
X40421Y30849D01*
X40409Y30912D01*
X40374Y30964D01*
X40321Y31000D01*
X40258Y31012D01*
D02*
G37*
G36*
X37848Y30543D02*
X37786Y30531D01*
X37733Y30495D01*
X37698Y30443D01*
X37685Y30380D01*
X37698Y30318D01*
X37733Y30265D01*
X37786Y30229D01*
X37848Y30217D01*
X37911Y30229D01*
X37964Y30265D01*
X37999Y30318D01*
X38011Y30380D01*
X37999Y30443D01*
X37964Y30495D01*
X37911Y30531D01*
X37848Y30543D01*
D02*
G37*
G36*
X33497Y30366D02*
X33435Y30354D01*
X33382Y30318D01*
X33346Y30265D01*
X33334Y30203D01*
X33346Y30141D01*
X33382Y30088D01*
X33435Y30052D01*
X33497Y30040D01*
X33559Y30052D01*
X33612Y30088D01*
X33648Y30141D01*
X33660Y30203D01*
X33648Y30265D01*
X33612Y30318D01*
X33559Y30354D01*
X33497Y30366D01*
D02*
G37*
G36*
X34346Y30358D02*
X34284Y30346D01*
X34231Y30310D01*
X34195Y30257D01*
X34183Y30195D01*
X34195Y30133D01*
X34231Y30080D01*
X34284Y30044D01*
X34346Y30032D01*
X34408Y30044D01*
X34461Y30080D01*
X34497Y30133D01*
X34509Y30195D01*
X34497Y30257D01*
X34461Y30310D01*
X34408Y30346D01*
X34346Y30358D01*
D02*
G37*
G36*
X31731Y30081D02*
X31669Y30069D01*
X31616Y30033D01*
X31580Y29980D01*
X31568Y29918D01*
X31580Y29856D01*
X31616Y29803D01*
X31669Y29767D01*
X31731Y29755D01*
X31793Y29767D01*
X31846Y29803D01*
X31882Y29856D01*
X31894Y29918D01*
X31882Y29980D01*
X31846Y30033D01*
X31793Y30069D01*
X31731Y30081D01*
D02*
G37*
G36*
X42741Y29841D02*
X42678Y29828D01*
X42625Y29793D01*
X42590Y29740D01*
X42577Y29677D01*
X42590Y29615D01*
X42625Y29562D01*
X42678Y29527D01*
X42741Y29514D01*
X42803Y29527D01*
X42856Y29562D01*
X42891Y29615D01*
X42904Y29677D01*
X42891Y29740D01*
X42856Y29793D01*
X42803Y29828D01*
X42741Y29841D01*
D02*
G37*
G36*
X42322D02*
X42259Y29828D01*
X42206Y29793D01*
X42171Y29740D01*
X42158Y29677D01*
X42171Y29615D01*
X42206Y29562D01*
X42259Y29527D01*
X42322Y29514D01*
X42384Y29527D01*
X42437Y29562D01*
X42472Y29615D01*
X42485Y29677D01*
X42472Y29740D01*
X42437Y29793D01*
X42384Y29828D01*
X42322Y29841D01*
D02*
G37*
G36*
X41534Y30038D02*
X41472Y30026D01*
X41419Y29990D01*
X41383Y29937D01*
X41371Y29875D01*
X41383Y29813D01*
X41419Y29760D01*
X41426Y29755D01*
Y29705D01*
X41411Y29696D01*
X41376Y29643D01*
X41364Y29580D01*
X41376Y29518D01*
X41411Y29465D01*
X41464Y29430D01*
X41527Y29417D01*
X41537Y29419D01*
X41543Y29416D01*
X41575Y29376D01*
X41567Y29333D01*
X41579Y29271D01*
X41615Y29218D01*
X41668Y29182D01*
X41730Y29170D01*
X41792Y29182D01*
X41845Y29218D01*
X41881Y29271D01*
X41893Y29333D01*
X41881Y29395D01*
X41845Y29448D01*
X41826Y29461D01*
X41845Y29509D01*
X41889Y29500D01*
X41951Y29512D01*
X42004Y29548D01*
X42040Y29601D01*
X42052Y29663D01*
X42040Y29725D01*
X42004Y29778D01*
X41951Y29814D01*
X41889Y29826D01*
X41827Y29814D01*
X41774Y29778D01*
X41738Y29725D01*
X41726Y29663D01*
X41738Y29601D01*
X41774Y29548D01*
X41793Y29535D01*
X41774Y29487D01*
X41730Y29496D01*
X41720Y29494D01*
X41713Y29498D01*
X41681Y29537D01*
X41690Y29580D01*
X41677Y29643D01*
X41643Y29695D01*
X41635Y29707D01*
Y29750D01*
X41649Y29760D01*
X41685Y29813D01*
X41697Y29875D01*
X41685Y29937D01*
X41649Y29990D01*
X41596Y30026D01*
X41534Y30038D01*
D02*
G37*
G36*
X40907Y30042D02*
X40845Y30030D01*
X40792Y29994D01*
X40756Y29941D01*
X40744Y29879D01*
X40756Y29817D01*
X40792Y29764D01*
X40845Y29728D01*
X40907Y29716D01*
X40946Y29724D01*
X40976Y29679D01*
X40955Y29647D01*
X40943Y29585D01*
X40955Y29523D01*
X40991Y29470D01*
X41044Y29434D01*
X41106Y29422D01*
X41168Y29434D01*
X41221Y29470D01*
X41257Y29523D01*
X41269Y29585D01*
X41257Y29647D01*
X41221Y29700D01*
X41168Y29736D01*
X41106Y29748D01*
X41067Y29740D01*
X41037Y29785D01*
X41058Y29817D01*
X41070Y29879D01*
X41058Y29941D01*
X41022Y29994D01*
X40969Y30030D01*
X40907Y30042D01*
D02*
G37*
G36*
X39696Y29503D02*
X39634Y29491D01*
X39581Y29455D01*
X39545Y29402D01*
X39533Y29340D01*
X39545Y29278D01*
X39581Y29225D01*
X39634Y29189D01*
X39696Y29177D01*
X39758Y29189D01*
X39811Y29225D01*
X39847Y29278D01*
X39859Y29340D01*
X39847Y29402D01*
X39811Y29455D01*
X39758Y29491D01*
X39696Y29503D01*
D02*
G37*
G36*
X46612Y29028D02*
X46550Y29016D01*
X46497Y28980D01*
X46461Y28927D01*
X46449Y28865D01*
X46461Y28803D01*
X46484Y28769D01*
X46463Y28738D01*
X46451Y28675D01*
X46463Y28613D01*
X46484Y28582D01*
X46463Y28552D01*
X46451Y28489D01*
X46463Y28427D01*
X46499Y28374D01*
X46552Y28339D01*
X46614Y28326D01*
X46677Y28339D01*
X46729Y28374D01*
X46765Y28427D01*
X46777Y28489D01*
X46765Y28552D01*
X46744Y28582D01*
X46765Y28613D01*
X46777Y28675D01*
X46765Y28738D01*
X46742Y28772D01*
X46763Y28803D01*
X46775Y28865D01*
X46763Y28927D01*
X46727Y28980D01*
X46674Y29016D01*
X46612Y29028D01*
D02*
G37*
G36*
X46206Y28123D02*
X46144Y28110D01*
X46091Y28075D01*
X46056Y28022D01*
X46043Y27959D01*
X46056Y27897D01*
X46091Y27844D01*
X46144Y27809D01*
X46206Y27796D01*
X46269Y27809D01*
X46322Y27844D01*
X46357Y27897D01*
X46369Y27959D01*
X46357Y28022D01*
X46322Y28075D01*
X46269Y28110D01*
X46206Y28123D01*
D02*
G37*
G36*
X33835Y28089D02*
X33773Y28077D01*
X33720Y28041D01*
X33684Y27988D01*
X33672Y27926D01*
X33684Y27864D01*
X33720Y27811D01*
X33773Y27775D01*
X33835Y27763D01*
X33897Y27775D01*
X33950Y27811D01*
X33986Y27864D01*
X33998Y27926D01*
X33986Y27988D01*
X33950Y28041D01*
X33897Y28077D01*
X33835Y28089D01*
D02*
G37*
G36*
X41807Y28204D02*
X41745Y28192D01*
X41692Y28156D01*
X41656Y28103D01*
X41644Y28041D01*
X41656Y27979D01*
X41692Y27926D01*
X41745Y27890D01*
X41807Y27878D01*
X41869Y27890D01*
X41880Y27898D01*
X41887Y27897D01*
X41932Y27872D01*
X41941Y27830D01*
X41976Y27777D01*
X42029Y27742D01*
X42092Y27729D01*
X42154Y27742D01*
X42207Y27777D01*
X42242Y27830D01*
X42255Y27892D01*
X42242Y27955D01*
X42207Y28008D01*
X42154Y28043D01*
X42092Y28056D01*
X42029Y28043D01*
X42018Y28036D01*
X42012Y28037D01*
X41966Y28061D01*
X41958Y28103D01*
X41922Y28156D01*
X41869Y28192D01*
X41807Y28204D01*
D02*
G37*
G36*
X49100Y29271D02*
X48934Y29254D01*
X48774Y29206D01*
X48627Y29127D01*
X48498Y29021D01*
X48392Y28892D01*
X48313Y28745D01*
X48265Y28585D01*
X48249Y28419D01*
X48265Y28253D01*
X48313Y28093D01*
X48392Y27946D01*
X48498Y27817D01*
X48627Y27711D01*
X48774Y27633D01*
X48934Y27584D01*
X49100Y27568D01*
X49266Y27584D01*
X49426Y27633D01*
X49573Y27711D01*
X49702Y27817D01*
X49808Y27946D01*
X49887Y28093D01*
X49935Y28253D01*
X49952Y28419D01*
X49935Y28585D01*
X49887Y28745D01*
X49808Y28892D01*
X49702Y29021D01*
X49573Y29127D01*
X49426Y29206D01*
X49266Y29254D01*
X49100Y29271D01*
D02*
G37*
G36*
X33325Y27666D02*
X33263Y27654D01*
X33210Y27618D01*
X33174Y27565D01*
X33162Y27503D01*
X33174Y27441D01*
X33210Y27388D01*
X33263Y27352D01*
X33325Y27340D01*
X33373Y27349D01*
X33389Y27329D01*
X33398Y27304D01*
X33367Y27257D01*
X33355Y27195D01*
X33367Y27133D01*
X33403Y27080D01*
X33456Y27044D01*
X33518Y27032D01*
X33580Y27044D01*
X33633Y27080D01*
X33669Y27133D01*
X33681Y27195D01*
X33669Y27257D01*
X33633Y27310D01*
X33580Y27346D01*
X33518Y27358D01*
X33470Y27349D01*
X33454Y27369D01*
X33445Y27394D01*
X33476Y27441D01*
X33488Y27503D01*
X33476Y27565D01*
X33440Y27618D01*
X33387Y27654D01*
X33325Y27666D01*
D02*
G37*
G36*
X32397Y27249D02*
X32335Y27237D01*
X32282Y27201D01*
X32246Y27148D01*
X32234Y27086D01*
X32246Y27024D01*
X32282Y26971D01*
X32335Y26935D01*
X32397Y26923D01*
X32459Y26935D01*
X32512Y26971D01*
X32548Y27024D01*
X32560Y27086D01*
X32548Y27148D01*
X32512Y27201D01*
X32459Y27237D01*
X32397Y27249D01*
D02*
G37*
G36*
X33120Y27228D02*
X33058Y27216D01*
X33005Y27180D01*
X32969Y27127D01*
X32957Y27065D01*
X32969Y27003D01*
X33005Y26950D01*
X33058Y26914D01*
X33120Y26902D01*
X33182Y26914D01*
X33235Y26950D01*
X33271Y27003D01*
X33283Y27065D01*
X33271Y27127D01*
X33235Y27180D01*
X33182Y27216D01*
X33120Y27228D01*
D02*
G37*
G36*
X34696Y27566D02*
X34614Y27550D01*
X34545Y27503D01*
X34498Y27434D01*
X34482Y27352D01*
X34498Y27270D01*
X34545Y27201D01*
X34614Y27154D01*
X34696Y27138D01*
X34708Y27140D01*
X34719Y27085D01*
X34766Y27016D01*
X34835Y26969D01*
X34915Y26953D01*
X34927Y26893D01*
X34974Y26824D01*
X35043Y26777D01*
X35106Y26765D01*
X35103Y26750D01*
X35119Y26669D01*
X35166Y26599D01*
X35235Y26553D01*
X35317Y26536D01*
X35399Y26553D01*
X35469Y26599D01*
X35515Y26669D01*
X35531Y26750D01*
X35515Y26832D01*
X35469Y26902D01*
X35399Y26948D01*
X35336Y26961D01*
X35339Y26975D01*
X35323Y27057D01*
X35276Y27126D01*
X35207Y27173D01*
X35127Y27189D01*
X35115Y27249D01*
X35068Y27318D01*
X34999Y27365D01*
X34917Y27381D01*
X34905Y27379D01*
X34894Y27434D01*
X34847Y27503D01*
X34778Y27550D01*
X34696Y27566D01*
D02*
G37*
G36*
X44770Y26469D02*
X44708Y26457D01*
X44655Y26421D01*
X44619Y26368D01*
X44607Y26306D01*
X44619Y26244D01*
X44655Y26191D01*
X44708Y26155D01*
X44770Y26143D01*
X44832Y26155D01*
X44885Y26191D01*
X44921Y26244D01*
X44933Y26306D01*
X44921Y26368D01*
X44885Y26421D01*
X44832Y26457D01*
X44770Y26469D01*
D02*
G37*
G36*
X42457Y26094D02*
X42375Y26078D01*
X42340Y26055D01*
X42298Y26028D01*
X42228Y26075D01*
X42147Y26091D01*
X42065Y26075D01*
X41995Y26028D01*
X41947Y26047D01*
X41908Y26073D01*
X41826Y26089D01*
X41744Y26073D01*
X41675Y26026D01*
X41630Y26050D01*
X41594Y26075D01*
X41512Y26091D01*
X41430Y26075D01*
X41361Y26028D01*
X41314Y25959D01*
X41298Y25877D01*
X41314Y25795D01*
X41361Y25726D01*
X41430Y25679D01*
X41512Y25663D01*
X41594Y25679D01*
X41663Y25726D01*
X41708Y25702D01*
X41744Y25677D01*
X41826Y25661D01*
X41908Y25677D01*
X41977Y25724D01*
X42025Y25705D01*
X42065Y25679D01*
X42147Y25663D01*
X42228Y25679D01*
X42263Y25702D01*
X42305Y25728D01*
X42375Y25682D01*
X42457Y25666D01*
X42538Y25682D01*
X42608Y25728D01*
X42654Y25798D01*
X42671Y25880D01*
X42654Y25962D01*
X42608Y26031D01*
X42538Y26078D01*
X42457Y26094D01*
D02*
G37*
G36*
X39077Y26110D02*
X38995Y26094D01*
X38926Y26047D01*
X38879Y25978D01*
X38863Y25896D01*
X38879Y25814D01*
X38926Y25745D01*
X38995Y25698D01*
X39077Y25682D01*
X39159Y25698D01*
X39224Y25742D01*
X39292Y25697D01*
X39374Y25681D01*
X39455Y25697D01*
X39520Y25740D01*
X39524Y25733D01*
X39594Y25687D01*
X39676Y25671D01*
X39757Y25687D01*
X39827Y25733D01*
X39829Y25736D01*
X39896Y25692D01*
X39978Y25676D01*
X40059Y25692D01*
X40129Y25738D01*
X40175Y25808D01*
X40192Y25890D01*
X40175Y25972D01*
X40129Y26041D01*
X40059Y26088D01*
X39978Y26104D01*
X39896Y26088D01*
X39826Y26041D01*
X39824Y26038D01*
X39757Y26083D01*
X39676Y26099D01*
X39594Y26083D01*
X39529Y26040D01*
X39525Y26046D01*
X39455Y26093D01*
X39374Y26109D01*
X39292Y26093D01*
X39226Y26049D01*
X39159Y26094D01*
X39077Y26110D01*
D02*
G37*
G36*
X30131Y26396D02*
X30049Y26380D01*
X29980Y26333D01*
X29933Y26264D01*
X29917Y26182D01*
X29933Y26100D01*
X29976Y26036D01*
X29950Y26018D01*
X29903Y25949D01*
X29887Y25867D01*
X29903Y25785D01*
X29926Y25750D01*
X29941Y25702D01*
X29923Y25673D01*
X29895Y25631D01*
X29879Y25549D01*
X29895Y25467D01*
X29942Y25398D01*
X30011Y25351D01*
X30093Y25335D01*
X30175Y25351D01*
X30244Y25398D01*
X30254Y25412D01*
X30304D01*
X30310Y25404D01*
X30379Y25357D01*
X30461Y25341D01*
X30543Y25357D01*
X30612Y25404D01*
X30659Y25473D01*
X30675Y25555D01*
X30659Y25637D01*
X30612Y25706D01*
X30597Y25717D01*
X30641Y25783D01*
X30657Y25865D01*
X30641Y25947D01*
X30621Y25977D01*
X30598Y26022D01*
X30622Y26058D01*
X30645Y26092D01*
X30661Y26174D01*
X30645Y26256D01*
X30598Y26325D01*
X30529Y26372D01*
X30447Y26388D01*
X30365Y26372D01*
X30296Y26325D01*
X30254Y26353D01*
X30213Y26380D01*
X30131Y26396D01*
D02*
G37*
G36*
X44795Y25505D02*
X44733Y25493D01*
X44680Y25457D01*
X44644Y25404D01*
X44632Y25342D01*
X44644Y25280D01*
X44680Y25227D01*
X44733Y25191D01*
X44795Y25179D01*
X44857Y25191D01*
X44910Y25227D01*
X44946Y25280D01*
X44958Y25342D01*
X44946Y25404D01*
X44910Y25457D01*
X44857Y25493D01*
X44795Y25505D01*
D02*
G37*
G36*
X33403Y25187D02*
X33341Y25175D01*
X33288Y25139D01*
X33253Y25086D01*
X33240Y25024D01*
X33253Y24961D01*
X33288Y24909D01*
X33341Y24873D01*
X33403Y24861D01*
X33466Y24873D01*
X33519Y24909D01*
X33554Y24961D01*
X33566Y25024D01*
X33554Y25086D01*
X33519Y25139D01*
X33466Y25175D01*
X33403Y25187D01*
D02*
G37*
G36*
X47329Y24842D02*
X47267Y24830D01*
X47235Y24808D01*
X47210Y24825D01*
X47148Y24837D01*
X47086Y24825D01*
X47042Y24796D01*
X46995Y24827D01*
X46933Y24839D01*
X46871Y24827D01*
X46818Y24791D01*
X46782Y24738D01*
X46770Y24676D01*
X46782Y24614D01*
X46818Y24561D01*
X46871Y24525D01*
X46933Y24513D01*
X46995Y24525D01*
X47039Y24554D01*
X47086Y24523D01*
X47148Y24511D01*
X47210Y24523D01*
X47242Y24545D01*
X47267Y24528D01*
X47329Y24516D01*
X47391Y24528D01*
X47411Y24542D01*
X47439Y24523D01*
X47501Y24511D01*
X47563Y24523D01*
X47616Y24559D01*
X47652Y24612D01*
X47664Y24674D01*
X47652Y24736D01*
X47616Y24789D01*
X47563Y24825D01*
X47501Y24837D01*
X47439Y24825D01*
X47419Y24811D01*
X47391Y24830D01*
X47329Y24842D01*
D02*
G37*
G36*
X35878Y24578D02*
X35816Y24566D01*
X35781Y24543D01*
X35748Y24565D01*
X35686Y24577D01*
X35624Y24565D01*
X35571Y24529D01*
X35535Y24476D01*
X35523Y24414D01*
X35535Y24352D01*
X35571Y24299D01*
X35624Y24263D01*
X35638Y24260D01*
X35650Y24201D01*
X35686Y24148D01*
X35739Y24112D01*
X35801Y24100D01*
X35863Y24112D01*
X35916Y24148D01*
X35952Y24201D01*
X35964Y24263D01*
X35961Y24278D01*
X35993Y24300D01*
X36029Y24353D01*
X36041Y24415D01*
X36029Y24477D01*
X35993Y24530D01*
X35940Y24566D01*
X35878Y24578D01*
D02*
G37*
G36*
X40556Y24506D02*
X40493Y24494D01*
X40440Y24458D01*
X40412Y24416D01*
X40378Y24440D01*
X40315Y24452D01*
X40253Y24440D01*
X40204Y24407D01*
X40200Y24413D01*
X40148Y24449D01*
X40085Y24461D01*
X40023Y24449D01*
X39977Y24418D01*
X39925Y24454D01*
X39862Y24466D01*
X39800Y24454D01*
X39747Y24418D01*
X39696Y24453D01*
X39633Y24465D01*
X39571Y24453D01*
X39518Y24417D01*
X39482Y24364D01*
X39470Y24302D01*
X39482Y24239D01*
X39518Y24187D01*
X39571Y24151D01*
X39633Y24139D01*
X39696Y24151D01*
X39748Y24186D01*
X39800Y24152D01*
X39862Y24140D01*
X39925Y24152D01*
X39970Y24182D01*
X40023Y24147D01*
X40085Y24135D01*
X40098Y24137D01*
X40142Y24102D01*
X40142Y24099D01*
X40154Y24040D01*
X40175Y24009D01*
X40154Y23978D01*
X40142Y23915D01*
X40154Y23853D01*
X40189Y23800D01*
X40242Y23764D01*
X40305Y23752D01*
X40367Y23764D01*
X40420Y23800D01*
X40456Y23853D01*
X40468Y23915D01*
X40456Y23978D01*
X40435Y24009D01*
X40456Y24040D01*
X40468Y24102D01*
X40457Y24156D01*
X40479Y24180D01*
X40497Y24192D01*
X40556Y24180D01*
X40618Y24192D01*
X40671Y24228D01*
X40707Y24281D01*
X40719Y24343D01*
X40707Y24406D01*
X40671Y24458D01*
X40618Y24494D01*
X40556Y24506D01*
D02*
G37*
G36*
X44909Y24760D02*
X44842Y24751D01*
X44779Y24725D01*
X44726Y24684D01*
X44684Y24630D01*
X44659Y24568D01*
X44650Y24501D01*
X44659Y24434D01*
X44684Y24371D01*
X44726Y24317D01*
X44779Y24276D01*
X44842Y24250D01*
X44909Y24242D01*
X44976Y24250D01*
X45038Y24276D01*
X45092Y24317D01*
X45133Y24371D01*
X45159Y24434D01*
X45168Y24501D01*
X45159Y24568D01*
X45133Y24630D01*
X45092Y24684D01*
X45038Y24725D01*
X44976Y24751D01*
X44909Y24760D01*
D02*
G37*
G36*
X33403Y24526D02*
X33341Y24514D01*
X33288Y24478D01*
X33252Y24425D01*
X33240Y24363D01*
X33252Y24301D01*
X33288Y24248D01*
X33341Y24212D01*
X33403Y24200D01*
X33465Y24212D01*
X33518Y24248D01*
X33554Y24301D01*
X33566Y24363D01*
X33554Y24425D01*
X33518Y24478D01*
X33465Y24514D01*
X33403Y24526D01*
D02*
G37*
G36*
X41073Y24244D02*
X41010Y24232D01*
X40957Y24196D01*
X40955Y24192D01*
X40925Y24212D01*
X40863Y24224D01*
X40800Y24212D01*
X40747Y24176D01*
X40712Y24124D01*
X40700Y24061D01*
X40712Y23999D01*
X40747Y23946D01*
X40800Y23910D01*
X40863Y23898D01*
X40925Y23910D01*
X40978Y23946D01*
X40981Y23950D01*
X41010Y23930D01*
X41073Y23918D01*
X41135Y23930D01*
X41188Y23966D01*
X41224Y24019D01*
X41236Y24081D01*
X41224Y24144D01*
X41188Y24196D01*
X41135Y24232D01*
X41073Y24244D01*
D02*
G37*
G36*
X46780Y24192D02*
X46683Y24172D01*
X46601Y24118D01*
X46557Y24052D01*
X46554Y24050D01*
X46505D01*
X46502Y24052D01*
X46458Y24118D01*
X46376Y24172D01*
X46280Y24192D01*
X46183Y24172D01*
X46101Y24118D01*
X46077Y24080D01*
X46027Y24096D01*
Y24187D01*
X45532D01*
Y23693D01*
X45624D01*
X45639Y23643D01*
X45601Y23618D01*
X45547Y23536D01*
X45528Y23440D01*
X45547Y23343D01*
X45601Y23262D01*
X45683Y23207D01*
X45780Y23188D01*
X45876Y23207D01*
X45958Y23262D01*
X46002Y23328D01*
X46005Y23329D01*
X46054Y23329D01*
X46057Y23328D01*
X46101Y23262D01*
X46183Y23207D01*
X46280Y23188D01*
X46376Y23207D01*
X46458Y23262D01*
X46502Y23328D01*
X46505Y23329D01*
X46554D01*
X46557Y23328D01*
X46601Y23262D01*
X46683Y23207D01*
X46780Y23188D01*
X46876Y23207D01*
X46958Y23262D01*
X47002Y23328D01*
X47005Y23329D01*
X47054D01*
X47057Y23328D01*
X47101Y23262D01*
X47183Y23207D01*
X47280Y23188D01*
X47376Y23207D01*
X47458Y23262D01*
X47512Y23343D01*
X47531Y23440D01*
X47512Y23536D01*
X47458Y23618D01*
X47376Y23672D01*
X47280Y23692D01*
X47183Y23672D01*
X47101Y23618D01*
X47057Y23552D01*
X47054Y23550D01*
X47005D01*
X47002Y23552D01*
X46958Y23618D01*
X46892Y23662D01*
X46890Y23666D01*
Y23714D01*
X46892Y23718D01*
X46958Y23762D01*
X47012Y23843D01*
X47031Y23940D01*
X47012Y24036D01*
X46958Y24118D01*
X46876Y24172D01*
X46780Y24192D01*
D02*
G37*
G36*
X35070Y24022D02*
X35008Y24010D01*
X34955Y23974D01*
X34920Y23921D01*
X34907Y23859D01*
X34920Y23796D01*
X34955Y23744D01*
X35008Y23708D01*
X35070Y23696D01*
X35133Y23708D01*
X35186Y23744D01*
X35221Y23796D01*
X35233Y23859D01*
X35221Y23921D01*
X35186Y23974D01*
X35133Y24010D01*
X35070Y24022D01*
D02*
G37*
G36*
X34548Y24014D02*
X34486Y24002D01*
X34433Y23966D01*
X34398Y23913D01*
X34385Y23851D01*
X34398Y23788D01*
X34433Y23736D01*
X34486Y23700D01*
X34548Y23688D01*
X34611Y23700D01*
X34664Y23736D01*
X34699Y23788D01*
X34711Y23851D01*
X34699Y23913D01*
X34664Y23966D01*
X34611Y24002D01*
X34548Y24014D01*
D02*
G37*
G36*
X35913Y23675D02*
X35850Y23663D01*
X35797Y23627D01*
X35762Y23574D01*
X35749Y23512D01*
X35762Y23449D01*
X35778Y23425D01*
X35766Y23406D01*
X35753Y23344D01*
X35766Y23281D01*
X35801Y23228D01*
X35844Y23200D01*
X35834Y23155D01*
X35847Y23092D01*
X35882Y23039D01*
X35935Y23004D01*
X35998Y22992D01*
X36060Y23004D01*
X36094Y23027D01*
X36131Y23002D01*
X36194Y22990D01*
X36256Y23002D01*
X36284Y23021D01*
X36325Y22993D01*
X36388Y22981D01*
X36450Y22993D01*
X36503Y23028D01*
X36538Y23081D01*
X36551Y23144D01*
X36546Y23167D01*
X36565Y23171D01*
X36618Y23206D01*
X36653Y23259D01*
X36666Y23322D01*
X36653Y23384D01*
X36644Y23398D01*
X36662Y23425D01*
X36675Y23488D01*
X36662Y23550D01*
X36627Y23603D01*
X36574Y23639D01*
X36512Y23651D01*
X36449Y23639D01*
X36396Y23603D01*
X36361Y23550D01*
X36348Y23488D01*
X36361Y23425D01*
X36370Y23412D01*
X36352Y23384D01*
X36339Y23322D01*
X36344Y23298D01*
X36325Y23295D01*
X36297Y23276D01*
X36256Y23304D01*
X36194Y23316D01*
X36131Y23304D01*
X36121Y23297D01*
X36076Y23327D01*
X36080Y23344D01*
X36067Y23406D01*
X36051Y23431D01*
X36063Y23449D01*
X36076Y23512D01*
X36063Y23574D01*
X36028Y23627D01*
X35975Y23663D01*
X35913Y23675D01*
D02*
G37*
G36*
X44886Y23300D02*
X44824Y23288D01*
X44771Y23252D01*
X44736Y23200D01*
X44723Y23137D01*
X44736Y23075D01*
X44771Y23022D01*
X44824Y22986D01*
X44886Y22974D01*
X44949Y22986D01*
X45002Y23022D01*
X45037Y23075D01*
X45049Y23137D01*
X45037Y23200D01*
X45002Y23252D01*
X44949Y23288D01*
X44886Y23300D01*
D02*
G37*
G36*
X43705Y23637D02*
X43643Y23625D01*
X43590Y23589D01*
X43555Y23537D01*
X43542Y23474D01*
X43555Y23412D01*
X43570Y23389D01*
X43549Y23358D01*
X43536Y23295D01*
X43549Y23233D01*
X43570Y23201D01*
X43555Y23178D01*
X43542Y23115D01*
X43555Y23053D01*
X43590Y23000D01*
X43643Y22964D01*
X43705Y22952D01*
X43768Y22964D01*
X43821Y23000D01*
X43856Y23053D01*
X43868Y23115D01*
X43856Y23178D01*
X43835Y23210D01*
X43850Y23233D01*
X43862Y23295D01*
X43850Y23358D01*
X43835Y23380D01*
X43856Y23412D01*
X43868Y23474D01*
X43856Y23537D01*
X43821Y23589D01*
X43768Y23625D01*
X43705Y23637D01*
D02*
G37*
%LPD*%
G36*
X41303Y33057D02*
X41292Y33057D01*
X41282Y33056D01*
X41272Y33054D01*
X41262Y33052D01*
X41253Y33049D01*
X41245Y33045D01*
X41237Y33041D01*
X41229Y33037D01*
X41222Y33031D01*
X41216Y33025D01*
X41173Y33067D01*
X41179Y33074D01*
X41184Y33081D01*
X41189Y33088D01*
X41193Y33096D01*
X41196Y33105D01*
X41199Y33114D01*
X41201Y33123D01*
X41202Y33133D01*
X41203Y33144D01*
X41203Y33155D01*
X41303Y33057D01*
D02*
G37*
G36*
X39677Y30223D02*
X39685Y30217D01*
X39693Y30211D01*
X39702Y30205D01*
X39710Y30201D01*
X39718Y30197D01*
X39727Y30195D01*
X39736Y30193D01*
X39745Y30191D01*
X39753Y30191D01*
Y30131D01*
X39745Y30131D01*
X39736Y30129D01*
X39727Y30127D01*
X39718Y30125D01*
X39710Y30121D01*
X39702Y30117D01*
X39693Y30111D01*
X39685Y30105D01*
X39677Y30099D01*
X39669Y30091D01*
Y30231D01*
X39677Y30223D01*
D02*
G37*
%LPC*%
G36*
X44312Y33883D02*
X44250Y33870D01*
X44197Y33835D01*
X44161Y33782D01*
X44149Y33719D01*
X44161Y33657D01*
X44197Y33604D01*
X44250Y33569D01*
X44312Y33556D01*
X44374Y33569D01*
X44427Y33604D01*
X44463Y33657D01*
X44475Y33719D01*
X44463Y33782D01*
X44427Y33835D01*
X44374Y33870D01*
X44312Y33883D01*
D02*
G37*
G36*
X44973Y33770D02*
X44911Y33758D01*
X44858Y33723D01*
X44822Y33670D01*
X44810Y33607D01*
X44822Y33545D01*
X44832Y33530D01*
X44820Y33511D01*
X44808Y33449D01*
X44820Y33387D01*
X44844Y33351D01*
X44822Y33317D01*
X44810Y33255D01*
X44822Y33193D01*
X44848Y33154D01*
X44826Y33121D01*
X44814Y33059D01*
X44826Y32997D01*
X44862Y32944D01*
X44915Y32908D01*
X44977Y32896D01*
X45039Y32908D01*
X45092Y32944D01*
X45128Y32997D01*
X45140Y33059D01*
X45128Y33121D01*
X45102Y33160D01*
X45124Y33193D01*
X45136Y33255D01*
X45124Y33317D01*
X45100Y33354D01*
X45122Y33387D01*
X45134Y33449D01*
X45122Y33511D01*
X45112Y33527D01*
X45124Y33545D01*
X45136Y33607D01*
X45124Y33670D01*
X45088Y33723D01*
X45036Y33758D01*
X44973Y33770D01*
D02*
G37*
G36*
X45378Y32704D02*
X45316Y32692D01*
X45263Y32656D01*
X45227Y32603D01*
X45215Y32541D01*
X45227Y32479D01*
X45263Y32426D01*
X45316Y32390D01*
X45378Y32378D01*
X45440Y32390D01*
X45493Y32426D01*
X45529Y32479D01*
X45541Y32541D01*
X45529Y32603D01*
X45493Y32656D01*
X45440Y32692D01*
X45378Y32704D01*
D02*
G37*
G36*
X44314Y32548D02*
X44252Y32535D01*
X44199Y32500D01*
X44164Y32447D01*
X44151Y32384D01*
X44164Y32322D01*
X44199Y32269D01*
X44252Y32234D01*
X44314Y32221D01*
X44377Y32234D01*
X44430Y32269D01*
X44465Y32322D01*
X44477Y32384D01*
X44465Y32447D01*
X44430Y32500D01*
X44377Y32535D01*
X44314Y32548D01*
D02*
G37*
G36*
X45815Y30789D02*
X45753Y30777D01*
X45700Y30741D01*
X45664Y30688D01*
X45652Y30626D01*
X45664Y30564D01*
X45700Y30511D01*
X45753Y30475D01*
X45815Y30463D01*
X45877Y30475D01*
X45930Y30511D01*
X45966Y30564D01*
X45978Y30626D01*
X45966Y30688D01*
X45930Y30741D01*
X45877Y30777D01*
X45815Y30789D01*
D02*
G37*
%LPD*%
D17*
X39598Y30161D02*
X40461D01*
X41136Y30836D02*
Y32988D01*
X41297Y33149D01*
X40461Y30161D02*
X41136Y30836D01*
D19*
X31400Y23440D02*
D03*
X47280Y23940D02*
D03*
D21*
X44041Y24485D02*
D03*
D23*
X47942Y31207D02*
D03*
X48149Y31220D02*
D03*
X47924Y32969D02*
D03*
X48124D02*
D03*
X49840Y29120D02*
D03*
X49980Y28840D02*
D03*
Y27720D02*
D03*
X49560Y27440D02*
D03*
X49280D02*
D03*
X49420Y27160D02*
D03*
X49000Y27440D02*
D03*
X49140Y27160D02*
D03*
X49000Y26880D02*
D03*
X48720Y27440D02*
D03*
X48860Y27160D02*
D03*
X48720Y26880D02*
D03*
X48860Y26600D02*
D03*
X48440Y29680D02*
D03*
X48580Y29400D02*
D03*
X48440Y29120D02*
D03*
Y27440D02*
D03*
X48580Y27160D02*
D03*
X48440Y26880D02*
D03*
X48580Y26600D02*
D03*
X48440Y26320D02*
D03*
X48300Y29400D02*
D03*
X48160Y29120D02*
D03*
Y28000D02*
D03*
X48300Y27720D02*
D03*
X48160Y27440D02*
D03*
X48300Y27160D02*
D03*
X48160Y26880D02*
D03*
X48300Y26600D02*
D03*
X48160Y26320D02*
D03*
X48300Y26040D02*
D03*
X48020Y29400D02*
D03*
Y28840D02*
D03*
Y28280D02*
D03*
Y27720D02*
D03*
Y27160D02*
D03*
Y26600D02*
D03*
Y26040D02*
D03*
X30940Y26600D02*
D03*
X30800Y25200D02*
D03*
X30940Y24920D02*
D03*
X30800Y24640D02*
D03*
X30940Y24360D02*
D03*
X30800Y24080D02*
D03*
X30940Y23800D02*
D03*
X30800Y23520D02*
D03*
X30940Y23240D02*
D03*
X30660Y26600D02*
D03*
Y24920D02*
D03*
Y24360D02*
D03*
Y23800D02*
D03*
X30380Y26600D02*
D03*
X30100D02*
D03*
X29960Y22960D02*
D03*
X29820Y26600D02*
D03*
X29680Y25200D02*
D03*
X29820Y24920D02*
D03*
X29680Y24640D02*
D03*
X29820Y24360D02*
D03*
X29680Y24080D02*
D03*
X29820Y23800D02*
D03*
X29680Y23520D02*
D03*
X29820Y23240D02*
D03*
X29680Y22960D02*
D03*
X29540Y26600D02*
D03*
X29400Y25200D02*
D03*
X29540Y24920D02*
D03*
X29400Y24640D02*
D03*
X29540Y24360D02*
D03*
X29400Y24080D02*
D03*
X29540Y23800D02*
D03*
X29400Y23520D02*
D03*
X29540Y23240D02*
D03*
X29400Y22960D02*
D03*
X29120Y26880D02*
D03*
X29260Y26600D02*
D03*
X29120Y26320D02*
D03*
Y25760D02*
D03*
Y25200D02*
D03*
Y24080D02*
D03*
X29260Y23800D02*
D03*
X29120Y23520D02*
D03*
X29260Y23240D02*
D03*
X29120Y22960D02*
D03*
X28980Y27160D02*
D03*
X28840Y26880D02*
D03*
X28980Y26600D02*
D03*
X28840Y26320D02*
D03*
X28980Y26040D02*
D03*
X28840Y25760D02*
D03*
X28980Y25480D02*
D03*
X28840Y25200D02*
D03*
Y24080D02*
D03*
X28980Y23800D02*
D03*
X28840Y23520D02*
D03*
X28980Y23240D02*
D03*
X28840Y22960D02*
D03*
X28700Y27160D02*
D03*
X28560Y26880D02*
D03*
X28700Y26600D02*
D03*
X28560Y26320D02*
D03*
X28700Y26040D02*
D03*
X28560Y25760D02*
D03*
X28700Y25480D02*
D03*
X28560Y25200D02*
D03*
Y24080D02*
D03*
X28700Y23800D02*
D03*
X28560Y23520D02*
D03*
X28700Y23240D02*
D03*
X28560Y22960D02*
D03*
X28420Y27160D02*
D03*
X28280Y26880D02*
D03*
X28420Y26600D02*
D03*
X28280Y26320D02*
D03*
X28420Y26040D02*
D03*
X28280Y25760D02*
D03*
X28420Y25480D02*
D03*
X28280Y25200D02*
D03*
Y24080D02*
D03*
X28420Y23800D02*
D03*
X28280Y23520D02*
D03*
X28420Y23240D02*
D03*
X28280Y22960D02*
D03*
X28140Y27160D02*
D03*
X28000Y26880D02*
D03*
X28140Y26600D02*
D03*
X28000Y26320D02*
D03*
X28140Y26040D02*
D03*
X28000Y25760D02*
D03*
X28140Y25480D02*
D03*
X28000Y25200D02*
D03*
Y24080D02*
D03*
X28140Y23800D02*
D03*
X28000Y23520D02*
D03*
X28140Y23240D02*
D03*
X28000Y22960D02*
D03*
X27860Y27160D02*
D03*
Y26600D02*
D03*
Y26040D02*
D03*
Y25480D02*
D03*
Y23800D02*
D03*
Y23240D02*
D03*
X47954Y25651D02*
D03*
X38271Y34983D02*
D03*
X40181Y34655D02*
D03*
X29616Y31680D02*
D03*
X32083Y28828D02*
D03*
X43195Y35134D02*
D03*
X47324Y31027D02*
D03*
X32409Y30256D02*
D03*
X32647Y30253D02*
D03*
X31044Y27410D02*
D03*
X42523Y36869D02*
D03*
X42193Y36336D02*
D03*
X42195Y36587D02*
D03*
X42188Y36876D02*
D03*
X42789Y37158D02*
D03*
X42489D02*
D03*
X42183D02*
D03*
X38234Y36939D02*
D03*
X38465Y36693D02*
D03*
Y36939D02*
D03*
X38467Y37163D02*
D03*
X38237Y37159D02*
D03*
X37990Y37168D02*
D03*
X37072Y23185D02*
D03*
X36873D02*
D03*
X37039Y23586D02*
D03*
X36866Y23582D02*
D03*
X35616Y35740D02*
D03*
X35780Y35550D02*
D03*
X36781Y35991D02*
D03*
X36696Y34010D02*
D03*
X36863Y31998D02*
D03*
X43134Y33941D02*
D03*
X42968D02*
D03*
X42038Y32013D02*
D03*
X42218Y32076D02*
D03*
X42942Y34152D02*
D03*
X42292Y34437D02*
D03*
X42306Y34232D02*
D03*
X42180Y33926D02*
D03*
X41881Y34224D02*
D03*
X43173Y31465D02*
D03*
X42460Y30261D02*
D03*
X42288Y30258D02*
D03*
X42650Y30264D02*
D03*
X34940Y28003D02*
D03*
X34937Y28202D02*
D03*
X34941Y28409D02*
D03*
X35134Y28007D02*
D03*
X35320Y28003D02*
D03*
X36690Y33449D02*
D03*
X37841Y36187D02*
D03*
X35163Y28211D02*
D03*
X35364Y28205D02*
D03*
X35154Y28414D02*
D03*
X35353D02*
D03*
X36675Y32826D02*
D03*
X37216Y23741D02*
D03*
X42476Y34095D02*
D03*
X41970Y34597D02*
D03*
X31774Y33117D02*
D03*
Y32696D02*
D03*
X39598Y30161D02*
D03*
X30840Y27415D02*
D03*
X30604D02*
D03*
X30378Y27412D02*
D03*
X30147Y27410D02*
D03*
X29457D02*
D03*
X29686Y27411D02*
D03*
X29909Y27406D02*
D03*
X43027Y35131D02*
D03*
X46640Y30553D02*
D03*
X45374Y31937D02*
D03*
X45588Y29757D02*
D03*
X41303Y33157D02*
D03*
X41360Y31055D02*
D03*
X38190Y28223D02*
D03*
X36799Y28026D02*
D03*
X36979Y28216D02*
D03*
X36624Y35819D02*
D03*
X36987Y36041D02*
D03*
X37627Y36407D02*
D03*
X37583Y35437D02*
D03*
X47090Y25982D02*
D03*
X47354Y25759D02*
D03*
X43139Y31055D02*
D03*
X43143Y31273D02*
D03*
X36666Y32171D02*
D03*
X36492Y32373D02*
D03*
X29457Y33355D02*
D03*
X27978Y32848D02*
D03*
X36571Y33726D02*
D03*
X39218Y24297D02*
D03*
X41932Y23682D02*
D03*
X43395Y24232D02*
D03*
X41056Y23437D02*
D03*
X40562Y23167D02*
D03*
X37782Y23729D02*
D03*
X35235Y23282D02*
D03*
X35373Y23492D02*
D03*
X34702Y23421D02*
D03*
X44774Y34721D02*
D03*
X47333Y33577D02*
D03*
X46651Y33557D02*
D03*
X41208Y34617D02*
D03*
X41593Y34527D02*
D03*
D24*
X45640Y27160D02*
D03*
D26*
X39062Y32918D02*
D03*
X39618Y32362D02*
D03*
X39340Y32640D02*
D03*
X39897Y32640D02*
D03*
X39340Y32083D02*
D03*
X39340Y33197D02*
D03*
X39618Y32918D02*
D03*
X38783Y32640D02*
D03*
X39062Y32362D02*
D03*
D27*
X33459Y23643D02*
X34814Y24998D01*
X33459Y23258D02*
Y23643D01*
X34814Y24998D02*
X42646D01*
X33110Y22909D02*
X33459Y23258D01*
X31394Y23128D02*
Y23432D01*
Y23128D02*
X31613Y22909D01*
X33110D01*
X44681Y27033D02*
Y29716D01*
X42646Y24998D02*
X44681Y27033D01*
M02*
