G04*
G04 #@! TF.GenerationSoftware,Altium Limited,Altium Designer,20.0.13 (296)*
G04*
G04 Layer_Color=16777215*
%FSLAX24Y24*%
%MOIN*%
G70*
G01*
G75*
%ADD174C,0.0039*%
%ADD176C,0.0020*%
%ADD178C,0.0050*%
%ADD179C,0.0020*%
%ADD180C,0.0040*%
G36*
X19959Y16383D02*
Y16393D01*
X19945Y16407D01*
X19926D01*
X19912Y16393D01*
Y16383D01*
Y16374D01*
X19926Y16360D01*
X19945D01*
X19959Y16374D01*
Y16383D01*
D01*
D02*
G37*
G36*
X19935Y17866D02*
X21447D01*
Y16881D01*
X19935D01*
Y17866D01*
D01*
D02*
G37*
G36*
X23803Y16881D02*
X22291D01*
Y17866D01*
X23803D01*
Y16881D01*
D01*
D02*
G37*
G36*
X30401Y23936D02*
X30873D01*
Y22755D01*
X30401D01*
Y23936D01*
D01*
D02*
G37*
G36*
X35196Y26414D02*
Y26404D01*
X36196D01*
Y25775D01*
X35172D01*
Y26380D01*
X35162D01*
X35148Y26394D01*
Y26414D01*
X35162Y26428D01*
X35182D01*
X35196Y26414D01*
D02*
G37*
G36*
X36196Y24082D02*
X35172D01*
Y24712D01*
X36196D01*
Y24082D01*
D02*
G37*
G36*
X31791Y23934D02*
Y23925D01*
Y23915D01*
X31779Y23903D01*
Y22755D01*
X31306D01*
Y23936D01*
X31745D01*
X31757Y23948D01*
X31777D01*
X31791Y23934D01*
D02*
G37*
D174*
X23205Y18800D02*
Y20985D01*
Y18800D02*
X25805D01*
Y20985D01*
X23205D02*
X25805D01*
X23455Y18624D02*
Y18800D01*
Y18624D02*
X23849Y18268D01*
X25161D01*
X25555Y18624D01*
Y18800D01*
X37891Y12265D02*
Y13525D01*
X39290Y12265D02*
Y13525D01*
X37891D02*
X39290D01*
X37891Y12265D02*
X39290D01*
X50487Y36578D02*
X52279D01*
X50487Y33247D02*
X52279D01*
Y36578D01*
X50487Y33247D02*
Y36578D01*
X47180Y29637D02*
Y32437D01*
X45133Y29637D02*
Y32437D01*
X47180D01*
X45133Y29637D02*
X47180D01*
X26553Y26657D02*
X29884D01*
X26553Y24865D02*
X29884D01*
X26553D02*
Y26657D01*
X29884Y24865D02*
Y26657D01*
X26676Y16584D02*
Y18684D01*
X29629Y16584D02*
Y18684D01*
X26676D02*
X29629D01*
X26676Y16584D02*
X29629D01*
X50601Y24710D02*
X52701D01*
X50601Y27663D02*
X52701D01*
X50601Y24710D02*
Y27663D01*
X52701Y24710D02*
Y27663D01*
X28271Y22424D02*
Y23684D01*
X29671Y22424D02*
Y23684D01*
X28271D02*
X29671D01*
X28271Y22424D02*
X29671D01*
X29472Y26935D02*
Y28727D01*
X26141Y26935D02*
Y28727D01*
Y26935D02*
X29472D01*
X26141Y28727D02*
X29472D01*
X19856Y32471D02*
Y35802D01*
X21648Y32471D02*
Y35802D01*
X19856Y32471D02*
X21648D01*
X19856Y35802D02*
X21648D01*
X19906Y37789D02*
Y41120D01*
X21698Y37789D02*
Y41120D01*
X19906Y37789D02*
X21698D01*
X19906Y41120D02*
X21698D01*
X30570Y11983D02*
X33523D01*
X30570Y14082D02*
X33523D01*
Y11983D02*
Y14082D01*
X30570Y11983D02*
Y14082D01*
X22532Y11489D02*
X25485D01*
X22532Y13589D02*
X25485D01*
Y11489D02*
Y13589D01*
X22532Y11489D02*
Y13589D01*
X52648Y16550D02*
Y19503D01*
X50548Y16550D02*
Y19503D01*
X52648D01*
X50548Y16550D02*
X52648D01*
X45459Y10698D02*
Y13651D01*
X43359Y10698D02*
Y13651D01*
X45459D01*
X43359Y10698D02*
X45459D01*
X39840Y35448D02*
Y35841D01*
X39643Y35645D02*
X40037D01*
X44932Y35510D02*
Y35903D01*
X44735Y35707D02*
X45128D01*
X21897Y37512D02*
Y38912D01*
X23157Y37512D02*
Y38912D01*
X21897Y37512D02*
X23157D01*
X21897Y38912D02*
X23157D01*
X21870Y32247D02*
Y33647D01*
X23130Y32247D02*
Y33647D01*
X21870Y32247D02*
X23130D01*
X21870Y33647D02*
X23130D01*
D176*
X38728Y12895D02*
G03*
X38728Y12895I-138J0D01*
G01*
X38625Y11895D02*
G03*
X38625Y11895I-138J0D01*
G01*
X40143Y13971D02*
G03*
X40143Y13971I-138J0D01*
G01*
D02*
G03*
X40143Y13971I-138J0D01*
G01*
X38312Y11231D02*
G03*
X38312Y11231I-138J0D01*
G01*
X37150Y25618D02*
G03*
X37150Y25618I-138J0D01*
G01*
X24924Y16546D02*
G03*
X24924Y16546I-138J0D01*
G01*
X36334Y7519D02*
G03*
X36334Y7519I-138J0D01*
G01*
X26893Y7818D02*
G03*
X26893Y7818I-138J0D01*
G01*
X34101Y26310D02*
G03*
X34101Y26310I-138J0D01*
G01*
X48202Y16725D02*
G03*
X48202Y16725I-138J0D01*
G01*
X25857Y17243D02*
G03*
X25857Y17243I-138J0D01*
G01*
X31570Y25099D02*
G03*
X31570Y25099I-138J0D01*
G01*
X30457Y21518D02*
G03*
X30457Y21518I-138J0D01*
G01*
X51916Y37450D02*
G03*
X51916Y37450I-138J0D01*
G01*
X53280Y37192D02*
G03*
X53280Y37192I-138J0D01*
G01*
X47544Y37367D02*
G03*
X47544Y37367I-138J0D01*
G01*
X43187Y36810D02*
G03*
X43187Y36810I-138J0D01*
G01*
X42169Y38417D02*
G03*
X42169Y38417I-138J0D01*
G01*
X37283Y36942D02*
G03*
X37283Y36942I-138J0D01*
G01*
X34088Y28952D02*
G03*
X34088Y28952I-138J0D01*
G01*
X34090Y29335D02*
G03*
X34090Y29335I-138J0D01*
G01*
X42485Y32041D02*
G03*
X42485Y32041I-138J0D01*
G01*
X36648Y30576D02*
G03*
X36648Y30576I-138J0D01*
G01*
X52616Y33563D02*
G03*
X52616Y33563I-138J0D01*
G01*
X52480Y39961D02*
G03*
X52480Y39961I-138J0D01*
G01*
X51524Y34897D02*
G03*
X51524Y34897I-138J0D01*
G01*
X34768Y11232D02*
G03*
X34768Y11232I-138J0D01*
G01*
X30551Y27809D02*
G03*
X30551Y27809I-138J0D01*
G01*
X29388Y42075D02*
G03*
X29388Y42075I-138J0D01*
G01*
X46294Y31037D02*
G03*
X46294Y31037I-138J0D01*
G01*
X36802Y28047D02*
G03*
X36802Y28047I-138J0D01*
G01*
X38288Y29923D02*
G03*
X38288Y29923I-138J0D01*
G01*
X39692Y29908D02*
G03*
X39692Y29908I-138J0D01*
G01*
X28341Y25757D02*
G03*
X28341Y25757I-138J0D01*
G01*
X21978Y16003D02*
G03*
X21978Y16003I-138J0D01*
G01*
X24895Y17572D02*
G03*
X24895Y17572I-138J0D01*
G01*
X28290Y17634D02*
G03*
X28290Y17634I-138J0D01*
G01*
X49712Y39988D02*
G03*
X49712Y39988I-138J0D01*
G01*
X32916Y40121D02*
G03*
X32916Y40121I-138J0D01*
G01*
X45535Y40011D02*
G03*
X45535Y40011I-138J0D01*
G01*
X49133Y37273D02*
G03*
X49133Y37273I-138J0D01*
G01*
X39224Y41926D02*
G03*
X39224Y41926I-138J0D01*
G01*
X52756Y31520D02*
G03*
X52756Y31520I-138J0D01*
G01*
X44106Y30255D02*
G03*
X44106Y30255I-138J0D01*
G01*
X34262Y32744D02*
G03*
X34262Y32744I-138J0D01*
G01*
X50265Y17919D02*
G03*
X50265Y17919I-138J0D01*
G01*
X44931Y32125D02*
G03*
X44931Y32125I-138J0D01*
G01*
X46036Y29266D02*
G03*
X46036Y29266I-138J0D01*
G01*
X44144Y26505D02*
G03*
X44144Y26505I-138J0D01*
G01*
X38026Y22285D02*
G03*
X38026Y22285I-138J0D01*
G01*
X41126Y29915D02*
G03*
X41126Y29915I-138J0D01*
G01*
X42538Y29930D02*
G03*
X42538Y29930I-138J0D01*
G01*
X37268Y26590D02*
G03*
X37268Y26590I-138J0D01*
G01*
X49362Y30143D02*
G03*
X49362Y30143I-138J0D01*
G01*
X50494Y15730D02*
G03*
X50494Y15730I-138J0D01*
G01*
X49907Y26190D02*
G03*
X49907Y26190I-138J0D01*
G01*
X49903Y25590D02*
G03*
X49903Y25590I-138J0D01*
G01*
X49921Y27871D02*
G03*
X49921Y27871I-138J0D01*
G01*
X51541Y28657D02*
G03*
X51541Y28657I-138J0D01*
G01*
X51789Y26186D02*
G03*
X51789Y26186I-138J0D01*
G01*
X53137Y27073D02*
G03*
X53137Y27073I-138J0D01*
G01*
X33229Y18496D02*
G03*
X33229Y18496I-138J0D01*
G01*
X29109Y23054D02*
G03*
X29109Y23054I-138J0D01*
G01*
X28708Y21377D02*
G03*
X28708Y21377I-138J0D01*
G01*
X27696Y21368D02*
G03*
X27696Y21368I-138J0D01*
G01*
X27357Y22943D02*
G03*
X27357Y22943I-138J0D01*
G01*
X27308Y24351D02*
G03*
X27308Y24351I-138J0D01*
G01*
X26465Y21372D02*
G03*
X26465Y21372I-138J0D01*
G01*
X48535Y32267D02*
G03*
X48535Y32267I-138J0D01*
G01*
X48762Y16726D02*
G03*
X48762Y16726I-138J0D01*
G01*
X37504Y24526D02*
G03*
X37504Y24526I-138J0D01*
G01*
X41675Y21186D02*
G03*
X41675Y21186I-138J0D01*
G01*
X27929Y27827D02*
G03*
X27929Y27827I-138J0D01*
G01*
X21611Y21008D02*
G03*
X21611Y21008I-138J0D01*
G01*
X26511Y25990D02*
G03*
X26511Y25990I-138J0D01*
G01*
X29578Y9701D02*
G03*
X29578Y9701I-138J0D01*
G01*
X28968D02*
G03*
X28968Y9701I-138J0D01*
G01*
X28381Y12282D02*
G03*
X28381Y12282I-138J0D01*
G01*
X28411Y13905D02*
G03*
X28411Y13905I-138J0D01*
G01*
X38194Y17037D02*
G03*
X38194Y17037I-138J0D01*
G01*
X20894Y34121D02*
G03*
X20894Y34121I-138J0D01*
G01*
X20944Y39439D02*
G03*
X20944Y39439I-138J0D01*
G01*
X24129Y13945D02*
G03*
X24129Y13945I-138J0D01*
G01*
X32184Y13032D02*
G03*
X32184Y13032I-138J0D01*
G01*
X23160Y14849D02*
G03*
X23160Y14849I-138J0D01*
G01*
X24146Y12539D02*
G03*
X24146Y12539I-138J0D01*
G01*
X33614Y15183D02*
G03*
X33614Y15183I-138J0D01*
G01*
X24622Y14819D02*
G03*
X24622Y14819I-138J0D01*
G01*
D02*
G03*
X24622Y14819I-138J0D01*
G01*
X38970Y9001D02*
G03*
X38970Y9001I-138J0D01*
G01*
X51303Y19879D02*
G03*
X51303Y19879I-138J0D01*
G01*
X51736Y18026D02*
G03*
X51736Y18026I-138J0D01*
G01*
X33541Y11637D02*
G03*
X33541Y11637I-138J0D01*
G01*
X34718Y15580D02*
G03*
X34718Y15580I-138J0D01*
G01*
D02*
G03*
X34718Y15580I-138J0D01*
G01*
X33874Y20416D02*
G03*
X33874Y20416I-138J0D01*
G01*
X40521Y12820D02*
G03*
X40521Y12820I-138J0D01*
G01*
X47600Y30155D02*
G03*
X47600Y30155I-138J0D01*
G01*
X42605Y14220D02*
G03*
X42605Y14220I-138J0D01*
G01*
X42574Y12472D02*
G03*
X42574Y12472I-138J0D01*
G01*
X42583Y11818D02*
G03*
X42583Y11818I-138J0D01*
G01*
X44522Y10112D02*
G03*
X44522Y10112I-138J0D01*
G01*
X42642Y10548D02*
G03*
X42642Y10548I-138J0D01*
G01*
X45157Y15462D02*
G03*
X45157Y15462I-138J0D01*
G01*
X45125Y14205D02*
G03*
X45125Y14205I-138J0D01*
G01*
X42631Y9179D02*
G03*
X42631Y9179I-138J0D01*
G01*
X44547Y12175D02*
G03*
X44547Y12175I-138J0D01*
G01*
X51107Y24392D02*
G03*
X51107Y24392I-138J0D01*
G01*
X53145Y25173D02*
G03*
X53145Y25173I-138J0D01*
G01*
X52685Y23124D02*
G03*
X52685Y23124I-138J0D01*
G01*
X23249Y8296D02*
G03*
X23249Y8296I-138J0D01*
G01*
X26835Y11497D02*
G03*
X26835Y11497I-138J0D01*
G01*
X26107Y11650D02*
G03*
X26107Y11650I-138J0D01*
G01*
X30374Y12327D02*
G03*
X30374Y12327I-138J0D01*
G01*
X29700Y12134D02*
G03*
X29700Y12134I-138J0D01*
G01*
X33496Y8955D02*
G03*
X33496Y8955I-138J0D01*
G01*
X35537Y8525D02*
G03*
X35537Y8525I-138J0D01*
G01*
X31473Y8708D02*
G03*
X31473Y8708I-138J0D01*
G01*
X25119Y8644D02*
G03*
X25119Y8644I-138J0D01*
G01*
X21591Y11496D02*
G03*
X21591Y11496I-138J0D01*
G01*
X30206Y32037D02*
G03*
X30206Y32037I-138J0D01*
G01*
X23076Y36762D02*
G03*
X23076Y36762I-138J0D01*
G01*
X21666Y31267D02*
G03*
X21666Y31267I-138J0D01*
G01*
X25833Y33680D02*
G03*
X25833Y33680I-138J0D01*
G01*
X25895Y39083D02*
G03*
X25895Y39083I-138J0D01*
G01*
X29778Y39345D02*
G03*
X29778Y39345I-138J0D01*
G01*
X32053Y14532D02*
G03*
X32053Y14532I-138J0D01*
G01*
X22665Y38212D02*
G03*
X22665Y38212I-138J0D01*
G01*
X22638Y32947D02*
G03*
X22638Y32947I-138J0D01*
G01*
X22270Y11666D02*
G03*
X22270Y11666I-138J0D01*
G01*
X38591Y12698D02*
Y13092D01*
X38394Y12895D02*
X38787D01*
X38290Y11895D02*
X38684D01*
X38487Y11698D02*
Y12092D01*
X40005Y13774D02*
Y14168D01*
X39808Y13971D02*
X40202D01*
X39808D02*
X40202D01*
X40005Y13774D02*
Y14168D01*
X38174Y11034D02*
Y11428D01*
X37977Y11231D02*
X38371D01*
X36815Y25618D02*
X37209D01*
X37012Y25421D02*
Y25815D01*
X24589Y16546D02*
X24983D01*
X24786Y16349D02*
Y16743D01*
X36000Y7519D02*
X36393D01*
X36196Y7322D02*
Y7716D01*
X26558Y7818D02*
X26952D01*
X26755Y7621D02*
Y8015D01*
X33767Y26310D02*
X34160D01*
X33964Y26113D02*
Y26507D01*
X47868Y16725D02*
X48261D01*
X48064Y16528D02*
Y16922D01*
X25523Y17243D02*
X25916D01*
X25720Y17046D02*
Y17440D01*
X31236Y25099D02*
X31629D01*
X31432Y24902D02*
Y25295D01*
X30319Y21322D02*
Y21715D01*
X30122Y21518D02*
X30516D01*
X51761Y37646D02*
X51796Y37253D01*
X51582Y37432D02*
X51975Y37467D01*
X53142Y36995D02*
Y37389D01*
X52945Y37192D02*
X53339D01*
X47235Y37269D02*
X47576Y37466D01*
X47307Y37538D02*
X47504Y37197D01*
X43049Y36613D02*
Y37007D01*
X42852Y36810D02*
X43246D01*
X41932Y38247D02*
X42129Y38588D01*
X41860Y38516D02*
X42201Y38319D01*
X37146Y36745D02*
Y37139D01*
X36949Y36942D02*
X37342D01*
X33953Y28748D02*
Y29142D01*
X33754Y28952D02*
X34147D01*
X33755Y29335D02*
X34149D01*
X42348Y31844D02*
Y32238D01*
X42151Y32041D02*
X42545D01*
X36313Y30576D02*
X36707D01*
X36510Y30379D02*
Y30773D01*
X52478Y33366D02*
Y33759D01*
X52281Y33563D02*
X52675D01*
X52146Y39961D02*
X52539D01*
X52342Y39764D02*
Y40158D01*
X51387Y34700D02*
Y35094D01*
X51190Y34897D02*
X51584D01*
X34630Y11035D02*
Y11429D01*
X34434Y11232D02*
X34827D01*
X30414Y27612D02*
Y28006D01*
X30217Y27809D02*
X30610D01*
X29054Y42075D02*
X29448D01*
X29251Y41878D02*
Y42272D01*
X46157Y30840D02*
Y31234D01*
X45960Y31037D02*
X46353D01*
X36468Y28047D02*
X36862D01*
X36665Y27850D02*
Y28243D01*
X37954Y29923D02*
X38347D01*
X38150Y29726D02*
Y30119D01*
X39358Y29908D02*
X39751D01*
X39555Y29711D02*
Y30105D01*
X28203Y25560D02*
Y25954D01*
X28006Y25757D02*
X28400D01*
X21643Y16003D02*
X22037D01*
X21840Y15806D02*
Y16200D01*
X24560Y17572D02*
X24954D01*
X24757Y17375D02*
Y17769D01*
X27956Y17634D02*
X28349D01*
X28152Y17437D02*
Y17831D01*
X49574Y39791D02*
Y40185D01*
X49377Y39988D02*
X49771D01*
X32778Y39924D02*
Y40318D01*
X32581Y40121D02*
X32975D01*
X45397Y39814D02*
Y40208D01*
X45201Y40011D02*
X45594D01*
X48897Y37443D02*
X49094Y37102D01*
X48825Y37174D02*
X49166Y37371D01*
X38890Y41926D02*
X39283D01*
X39086Y41729D02*
Y42123D01*
X52618Y31323D02*
Y31716D01*
X52421Y31520D02*
X52815D01*
X43968Y30058D02*
Y30452D01*
X43771Y30255D02*
X44165D01*
X33928Y32744D02*
X34321D01*
X34124Y32547D02*
Y32941D01*
X50127Y17722D02*
Y18116D01*
X49930Y17919D02*
X50324D01*
X44793Y31929D02*
Y32322D01*
X44596Y32125D02*
X44990D01*
X45701Y29266D02*
X46095D01*
X45898Y29069D02*
Y29463D01*
X43810Y26505D02*
X44203D01*
X44006Y26308D02*
Y26702D01*
X37692Y22285D02*
X38085D01*
X37889Y22088D02*
Y22482D01*
X40989Y29718D02*
Y30112D01*
X40792Y29915D02*
X41185D01*
X42400Y29733D02*
Y30127D01*
X42203Y29930D02*
X42597D01*
X37130Y26393D02*
Y26787D01*
X36933Y26590D02*
X37327D01*
X49225Y29946D02*
X49225Y30339D01*
X49028Y30143D02*
X49421Y30143D01*
X50356Y15533D02*
Y15926D01*
X50159Y15730D02*
X50553D01*
X49572Y26190D02*
X49966D01*
X49769Y25993D02*
Y26386D01*
X49569Y25590D02*
X49963D01*
X49766Y25393D02*
Y25787D01*
X49587Y27871D02*
X49980D01*
X49784Y27674D02*
Y28068D01*
X51207Y28657D02*
X51600D01*
X51403Y28460D02*
Y28854D01*
X51651Y25989D02*
Y26383D01*
X51454Y26186D02*
X51848D01*
X53000Y26876D02*
Y27270D01*
X52803Y27073D02*
X53196D01*
X32895Y18496D02*
X33288D01*
X33092Y18299D02*
Y18693D01*
X28971Y22857D02*
Y23251D01*
X28775Y23054D02*
X29168D01*
X28373Y21377D02*
X28767D01*
X28570Y21180D02*
Y21574D01*
X27361Y21368D02*
X27755D01*
X27558Y21171D02*
Y21565D01*
X27219Y22746D02*
Y23140D01*
X27022Y22943D02*
X27416D01*
X27170Y24154D02*
Y24547D01*
X26974Y24351D02*
X27367D01*
X26130Y21372D02*
X26524D01*
X26327Y21176D02*
Y21569D01*
X48201Y32267D02*
X48595D01*
X48398Y32070D02*
Y32463D01*
X48427Y16726D02*
X48821D01*
X48624Y16529D02*
Y16923D01*
X37366Y24329D02*
Y24723D01*
X37169Y24526D02*
X37563D01*
X41537Y20989D02*
Y21382D01*
X41341Y21186D02*
X41734D01*
X27594Y27827D02*
X27988D01*
X27791Y27630D02*
Y28024D01*
X21473Y20811D02*
Y21205D01*
X21277Y21008D02*
X21670D01*
X26373Y25793D02*
Y26186D01*
X26176Y25990D02*
X26570D01*
X29440Y9504D02*
Y9898D01*
X29244Y9701D02*
X29637D01*
X28830Y9504D02*
Y9898D01*
X28633Y9701D02*
X29027D01*
X28046Y12282D02*
X28440D01*
X28243Y12086D02*
Y12479D01*
X28076Y13905D02*
X28470D01*
X28273Y13708D02*
Y14102D01*
X38056Y16840D02*
Y17234D01*
X37860Y17037D02*
X38253D01*
X20559Y34121D02*
X20953D01*
X20756Y33924D02*
Y34318D01*
X20609Y39439D02*
X21003D01*
X20806Y39242D02*
Y39635D01*
X23794Y13945D02*
X24188D01*
X23991Y13748D02*
Y14142D01*
X32046Y12836D02*
Y13229D01*
X31850Y13032D02*
X32243D01*
X22825Y14849D02*
X23219D01*
X23022Y14652D02*
Y15045D01*
X24008Y12342D02*
Y12736D01*
X23811Y12539D02*
X24205D01*
X33280Y15183D02*
X33673D01*
X33476Y14986D02*
Y15380D01*
X24484Y14622D02*
Y15016D01*
X24287Y14819D02*
X24681D01*
X24287D02*
X24681D01*
X24484Y14622D02*
Y15016D01*
X38635Y9001D02*
X39029D01*
X38832Y8804D02*
Y9198D01*
X51165Y19682D02*
Y20076D01*
X50969Y19879D02*
X51362D01*
X51401Y18026D02*
X51795D01*
X51598Y17830D02*
Y18223D01*
X33403Y11440D02*
Y11834D01*
X33206Y11637D02*
X33600D01*
X34383Y15580D02*
X34777D01*
X34580Y15383D02*
Y15777D01*
Y15383D02*
Y15777D01*
X34383Y15580D02*
X34777D01*
X33737Y20220D02*
Y20613D01*
X33540Y20416D02*
X33933D01*
X40186Y12820D02*
X40580D01*
X40383Y12623D02*
Y13017D01*
X47266Y30155D02*
X47659D01*
X47463Y29959D02*
Y30352D01*
X42467Y14023D02*
Y14417D01*
X42270Y14220D02*
X42664D01*
X42436Y12275D02*
Y12669D01*
X42239Y12472D02*
X42633D01*
X42445Y11621D02*
Y12014D01*
X42248Y11818D02*
X42642D01*
X44385Y9915D02*
Y10309D01*
X44188Y10112D02*
X44582D01*
X42504Y10351D02*
Y10745D01*
X42307Y10548D02*
X42701D01*
X45020Y15265D02*
Y15659D01*
X44823Y15462D02*
X45216D01*
X44987Y14008D02*
Y14401D01*
X44790Y14205D02*
X45184D01*
X42494Y8982D02*
Y9376D01*
X42297Y9179D02*
X42690D01*
X44213Y12175D02*
X44606D01*
X44409Y11978D02*
Y12371D01*
X50969Y24195D02*
Y24589D01*
X50772Y24392D02*
X51166D01*
X52810Y25173D02*
X53204D01*
X53007Y24976D02*
Y25369D01*
X52547Y22928D02*
Y23321D01*
X52351Y23124D02*
X52744D01*
X23111Y8099D02*
Y8493D01*
X22914Y8296D02*
X23308D01*
X26697Y11300D02*
Y11694D01*
X26500Y11497D02*
X26894D01*
X25772Y11650D02*
X26166D01*
X25969Y11453D02*
Y11847D01*
X30039Y12327D02*
X30433D01*
X30236Y12130D02*
Y12524D01*
X29562Y11937D02*
Y12331D01*
X29365Y12134D02*
X29759D01*
X33359Y8758D02*
Y9152D01*
X33162Y8955D02*
X33555D01*
X35399Y8328D02*
Y8722D01*
X35202Y8525D02*
X35596D01*
X31335Y8511D02*
Y8905D01*
X31139Y8708D02*
X31532D01*
X24981Y8447D02*
Y8841D01*
X24784Y8644D02*
X25178D01*
X21256Y11496D02*
X21650D01*
X21453Y11299D02*
Y11693D01*
X30068Y31840D02*
Y32234D01*
X29871Y32037D02*
X30265D01*
X22939Y36565D02*
Y36958D01*
X22742Y36762D02*
X23136D01*
X21528Y31071D02*
Y31464D01*
X21332Y31267D02*
X21725D01*
X25695Y33483D02*
Y33877D01*
X25498Y33680D02*
X25892D01*
X25757Y38886D02*
Y39279D01*
X25560Y39083D02*
X25954D01*
X29641Y39148D02*
Y39542D01*
X29444Y39345D02*
X29837D01*
X38285Y33351D02*
X41395D01*
X38285Y37938D02*
X41395D01*
X38285Y33351D02*
Y37938D01*
X41395Y33351D02*
Y37938D01*
X43376Y33413D02*
X46487D01*
X43376Y38000D02*
X46487D01*
X43376Y33413D02*
Y38000D01*
X46487Y33413D02*
Y38000D01*
X31915Y14335D02*
Y14729D01*
X31718Y14532D02*
X32112D01*
X22527Y38015D02*
Y38409D01*
X22330Y38212D02*
X22724D01*
X22500Y32750D02*
Y33144D01*
X22303Y32947D02*
X22697D01*
X21935Y11666D02*
X22329D01*
X22132Y11469D02*
Y11863D01*
D178*
X31948Y28797D02*
X32148D01*
X32048Y28697D02*
Y28897D01*
X27623Y16226D02*
Y16426D01*
X27523Y16326D02*
X27723D01*
X38703Y24463D02*
X38903D01*
X38803Y24363D02*
Y24563D01*
X53548Y33447D02*
Y33647D01*
X53449Y33547D02*
X53649D01*
X26215Y18769D02*
X26415D01*
X26315Y18669D02*
Y18869D01*
X46693Y34389D02*
X46893D01*
X46793Y34289D02*
Y34489D01*
X38838Y25561D02*
X39038D01*
X38938Y25461D02*
Y25661D01*
X38219Y25549D02*
X38419D01*
X38319Y25449D02*
Y25649D01*
X26147Y16220D02*
Y16420D01*
X26047Y16320D02*
X26247D01*
X28150Y18931D02*
Y19131D01*
X28050Y19031D02*
X28250D01*
X26217Y17306D02*
X26417D01*
X26317Y17206D02*
Y17406D01*
X50034Y31255D02*
X50234D01*
X50134Y31155D02*
Y31355D01*
X47954Y30511D02*
X48154D01*
X48054Y30411D02*
Y30611D01*
X47764Y33698D02*
X47964D01*
X47863Y33598D02*
Y33798D01*
X47860Y34215D02*
Y34415D01*
X47760Y34315D02*
X47960D01*
X52814Y20306D02*
X53014D01*
X52913Y20206D02*
Y20406D01*
X48461Y31543D02*
Y31743D01*
X48361Y31643D02*
X48561D01*
X43650Y22154D02*
X43850D01*
X43750Y22054D02*
Y22254D01*
X43641Y20602D02*
X43841D01*
X43741Y20502D02*
Y20702D01*
X49781Y27122D02*
Y27322D01*
X49681Y27222D02*
X49881D01*
X49783Y28428D02*
Y28628D01*
X49682Y28528D02*
X49882D01*
X51420Y27929D02*
Y28129D01*
X51320Y28029D02*
X51520D01*
X51480Y15310D02*
Y15510D01*
X51380Y15410D02*
X51580D01*
X51465Y15978D02*
Y16178D01*
X51365Y16078D02*
X51565D01*
X30289Y25420D02*
Y25620D01*
X30189Y25520D02*
X30389D01*
X28877Y24033D02*
X29076D01*
X28977Y23933D02*
Y24133D01*
X29770Y27717D02*
Y27917D01*
X29670Y27817D02*
X29870D01*
X52242Y20201D02*
Y20401D01*
X52143Y20301D02*
X52343D01*
X48978Y30804D02*
X49178D01*
X49078Y30704D02*
Y30904D01*
X49259Y29438D02*
X49459D01*
X49359Y29338D02*
Y29538D01*
X49517Y31753D02*
Y31953D01*
X49417Y31853D02*
X49617D01*
X49267Y16663D02*
Y16863D01*
X49167Y16763D02*
X49367D01*
X51060Y20527D02*
X51260D01*
X51160Y20427D02*
Y20627D01*
X29949Y9711D02*
X30149D01*
X30049Y9611D02*
Y9811D01*
X28132Y9682D02*
X28332D01*
X28232Y9582D02*
Y9782D01*
X30645Y8773D02*
Y8973D01*
X30545Y8873D02*
X30745D01*
X52675Y32342D02*
X52875D01*
X52775Y32242D02*
Y32442D01*
X20682Y11643D02*
X20882D01*
X20782Y11543D02*
Y11743D01*
X22352Y8446D02*
X22552D01*
X22452Y8346D02*
Y8546D01*
X27110Y9110D02*
Y9310D01*
X27010Y9210D02*
X27210D01*
X27361Y11655D02*
X27561D01*
X27461Y11555D02*
Y11755D01*
X35812Y9779D02*
Y9979D01*
X35712Y9879D02*
X35912D01*
X30169Y14729D02*
X30370D01*
X30269Y14629D02*
Y14829D01*
X26608Y14554D02*
X26808D01*
X26708Y14454D02*
Y14654D01*
X21497Y14734D02*
Y14934D01*
X21397Y14834D02*
X21597D01*
X31913Y15052D02*
Y15252D01*
X31813Y15152D02*
X32013D01*
X50041Y19396D02*
X50241D01*
X50141Y19296D02*
Y19496D01*
X33523Y10898D02*
Y11098D01*
X33423Y10998D02*
X33623D01*
X26085Y15224D02*
Y15424D01*
X25985Y15324D02*
X26185D01*
X39683Y12734D02*
Y12934D01*
X39583Y12834D02*
X39783D01*
X22429Y39323D02*
X22629D01*
X22529Y39223D02*
Y39423D01*
X22397Y34067D02*
X22596D01*
X22497Y33967D02*
Y34167D01*
X42346Y13598D02*
X42546D01*
X42446Y13498D02*
Y13698D01*
X44337Y9348D02*
X44537D01*
X44437Y9248D02*
Y9448D01*
X42388Y9886D02*
X42588D01*
X42488Y9786D02*
Y9986D01*
X42406Y8487D02*
X42606D01*
X42506Y8387D02*
Y8587D01*
X50945Y23720D02*
X51145D01*
X51045Y23620D02*
Y23820D01*
X52429Y23720D02*
X52629D01*
X52529Y23620D02*
Y23820D01*
X52403Y22500D02*
X52603D01*
X52503Y22400D02*
Y22600D01*
X23120Y9836D02*
Y10036D01*
X23020Y9936D02*
X23220D01*
X25995Y13012D02*
Y13212D01*
X25895Y13112D02*
X26095D01*
X26704Y13013D02*
Y13213D01*
X26604Y13113D02*
X26804D01*
X29584Y13731D02*
Y13931D01*
X29484Y13831D02*
X29684D01*
X28925Y13731D02*
Y13931D01*
X28825Y13831D02*
X29025D01*
X34632Y13993D02*
Y14193D01*
X34532Y14093D02*
X34732D01*
X33876Y12727D02*
Y12927D01*
X33776Y12827D02*
X33976D01*
X30991Y9930D02*
X31191D01*
X31091Y9830D02*
Y10030D01*
X36201Y8749D02*
Y8949D01*
X36101Y8849D02*
X36301D01*
X34630Y12542D02*
Y12742D01*
X34530Y12642D02*
X34731D01*
X44928Y14823D02*
X45128D01*
X45028Y14723D02*
Y14923D01*
X42452Y15352D02*
Y15552D01*
X42352Y15452D02*
X42552D01*
X42400Y33924D02*
X42541Y34066D01*
X42400D02*
X42541Y33924D01*
X37957Y34504D02*
X38157D01*
X38057Y34404D02*
Y34604D01*
X28780Y12290D02*
X28980D01*
X28880Y12190D02*
Y12390D01*
X37374Y12796D02*
X37574D01*
X37474Y12696D02*
Y12896D01*
X22464Y35409D02*
Y35609D01*
X22364Y35509D02*
X22564D01*
X22487Y34614D02*
Y34814D01*
X22387Y34714D02*
X22587D01*
X22515Y40655D02*
Y40855D01*
X22415Y40755D02*
X22615D01*
X22523Y39892D02*
Y40092D01*
X22423Y39992D02*
X22623D01*
X20032Y11627D02*
X20232D01*
X20132Y11527D02*
Y11727D01*
X21943Y13240D02*
X22143D01*
X22043Y13140D02*
Y13340D01*
X21229Y13256D02*
X21429D01*
X21329Y13156D02*
Y13356D01*
D179*
X31779Y22755D02*
Y23936D01*
X30401Y22755D02*
X31779D01*
X30401D02*
Y23936D01*
X31779D01*
X19948Y16383D02*
Y18364D01*
X23779D01*
Y16383D02*
Y18364D01*
X19948Y16383D02*
X23779D01*
X35172Y26404D02*
X36196D01*
Y24082D02*
Y26404D01*
X35172Y24082D02*
X36196D01*
X35172D02*
Y26404D01*
D180*
X51292Y40827D02*
X53442Y40827D01*
X51292Y39095D02*
Y40827D01*
Y39095D02*
X53442Y39095D01*
Y40827D01*
M02*
