G04 EasyEDA Pro v1.9.28, 2025-09-15 11:43:01*
G04 Gerber Generator version 0.3*G04*
G04 #@! TF.GenerationSoftware,Altium Limited,Altium Designer,20.0.13 (296)*
G04*
G04 Layer_Color=16711935*
%FSLAX24Y24*%
%MOIN*%
G70*
G01*
G75*
%ADD79C,0.0400*%
%ADD133C,0.0480*%
%ADD134C,0.0867*%
%ADD135R,0.0867X0.0867*%
%ADD136C,0.1080*%
%ADD137C,0.2080*%
%ADD138C,0.1261*%
%ADD139O,0.1143X0.1537*%
%ADD140R,0.1143X0.1537*%
%ADD141C,0.1064*%
%ADD142R,0.1064X0.1064*%
%ADD143C,0.0789*%
%ADD144R,0.0789X0.0789*%
%ADD145R,0.1064X0.1064*%
%ADD146R,0.0789X0.0789*%
%ADD150C,0.1200*%
D79*
X44921Y29469D02*
X46421D01*
X44921Y30058D02*
X46421D01*
X41552Y32854D02*
X42552D01*
X41648Y32333D02*
X42170D01*
X41658Y31802D02*
X42507Y31799D01*
X41642Y31273D02*
X42155D01*
X41660Y30665D02*
X42507Y30669D01*
X43283Y32851D02*
X44783D01*
X42961Y32322D02*
X44461D01*
X43298Y31788D02*
X44798D01*
X42945Y31262D02*
X44445D01*
X43298Y30658D02*
X44798D01*
X45582Y30664D02*
X47082D01*
X45230Y31268D02*
X46730D01*
X45582Y31794D02*
X47082D01*
X45245Y32327D02*
X46745D01*
X45568Y32857D02*
X47068D01*
X28168Y30657D02*
X29968D01*
X25903Y31182D02*
X27703D01*
X25347Y30652D02*
X27347D01*
X25906Y30132D02*
X27906D01*
X23139Y30115D02*
X24939D01*
X22580Y30636D02*
X24380D01*
X23136Y31165D02*
X24936D01*
D133*
X40199Y6727D02*
D03*
X51895Y44379D02*
D03*
X51477Y44703D02*
D03*
X50973Y44723D02*
D03*
X50490D02*
D03*
X49967Y44722D02*
D03*
X39683Y6735D02*
D03*
X21353Y36113D02*
D03*
X20961Y37111D02*
D03*
X28547Y7886D02*
D03*
D134*
X25231Y44560D02*
D03*
X44964Y42743D02*
D03*
X46273Y42732D02*
D03*
X32762Y42727D02*
D03*
X34070Y42716D02*
D03*
D135*
X43704Y42736D02*
D03*
X31501Y42720D02*
D03*
D136*
X33942Y24181D02*
D03*
X35155Y30555D02*
D03*
D137*
X52765Y8114D02*
D03*
X20866Y43524D02*
D03*
X20548Y8114D02*
D03*
X52765Y43455D02*
D03*
D138*
X22898Y23529D02*
D03*
X20536Y24316D02*
D03*
X25260D02*
D03*
X20536Y29119D02*
D03*
X25260D02*
D03*
D139*
X31219Y40121D02*
D03*
X32778D02*
D03*
X46956Y40011D02*
D03*
X45397D02*
D03*
D140*
X34338Y40121D02*
D03*
X43837Y40011D02*
D03*
D141*
X37649Y40426D02*
D03*
X42226Y21186D02*
D03*
X22162Y21008D02*
D03*
X30068Y32037D02*
D03*
X31446Y32037D02*
D03*
D142*
X37649Y43426D02*
D03*
D143*
X34124Y32055D02*
D03*
X37889Y21596D02*
D03*
X38832Y9985D02*
D03*
D144*
X34124Y33433D02*
D03*
X37889Y22974D02*
D03*
D145*
X40848Y21186D02*
D03*
X20784Y21008D02*
D03*
X28690Y32037D02*
D03*
D146*
X38832Y8047D02*
D03*
D150*
X30056Y32013D02*
X30066Y33379D01*
M02*
