G04 EasyEDA Pro v1.9.28, 2025-09-15 11:43:01*
G04 Gerber Generator version 0.3*G04*
G04 #@! TF.GenerationSoftware,Altium Limited,Altium Designer,20.0.13 (296)*
G04*
G04 Layer_Color=32896*
%FSLAX24Y24*%
%MOIN*%
G70*
G01*
G75*
%ADD13C,0.0100*%
%ADD149C,0.1500*%
G36*
X35115Y24537D02*
X35426D01*
X35395Y24506D01*
X35380Y24510D01*
X35366Y24512D01*
X35351Y24514D01*
X35339Y24516D01*
X35328D01*
X35319Y24517D01*
X35112D01*
X35203Y24390D01*
X35235Y24411D01*
X35234Y24399D01*
Y24385D01*
X35233Y24370D01*
Y24354D01*
X35232Y24322D01*
X35231Y24290D01*
Y24276D01*
Y24262D01*
Y24249D01*
Y24238D01*
Y24229D01*
Y24222D01*
Y24218D01*
Y24216D01*
X35258Y24205D01*
X35284Y24195D01*
X35307Y24185D01*
X35328Y24177D01*
X35348Y24169D01*
X35365Y24162D01*
X35381Y24156D01*
X35396Y24151D01*
X35408Y24146D01*
X35419Y24142D01*
X35427Y24139D01*
X35435Y24137D01*
X35440Y24135D01*
X35445Y24133D01*
X35447Y24132D01*
X35447D01*
X35402Y24066D01*
X35398Y24072D01*
X35391Y24079D01*
X35381Y24088D01*
X35370Y24096D01*
X35356Y24105D01*
X35342Y24115D01*
X35312Y24133D01*
X35296Y24142D01*
X35282Y24151D01*
X35268Y24158D01*
X35256Y24165D01*
X35246Y24170D01*
X35238Y24174D01*
X35233Y24177D01*
X35231Y24177D01*
Y23912D01*
X35232Y23900D01*
X35236Y23892D01*
X35239Y23885D01*
X35245Y23881D01*
X35250Y23879D01*
X35254Y23878D01*
X35258Y23877D01*
X35271D01*
X35287Y23878D01*
X35304Y23880D01*
X35322Y23881D01*
X35337Y23882D01*
X35345D01*
X35351Y23883D01*
X35356D01*
X35360Y23884D01*
X35363D01*
Y23870D01*
X35348Y23865D01*
X35333Y23859D01*
X35321Y23853D01*
X35310Y23846D01*
X35300Y23840D01*
X35293Y23832D01*
X35287Y23826D01*
X35281Y23819D01*
X35276Y23814D01*
X35273Y23808D01*
X35269Y23798D01*
X35267Y23795D01*
X35266Y23793D01*
Y23791D01*
Y23790D01*
X35251Y23796D01*
X35238Y23804D01*
X35227Y23811D01*
X35217Y23819D01*
X35210Y23829D01*
X35202Y23837D01*
X35197Y23846D01*
X35192Y23855D01*
X35189Y23862D01*
X35187Y23870D01*
X35185Y23877D01*
X35183Y23882D01*
Y23888D01*
X35182Y23892D01*
Y23893D01*
Y23894D01*
Y24202D01*
X35147Y24222D01*
X35115Y24241D01*
X35084Y24259D01*
X35070Y24266D01*
X35057Y24274D01*
X35046Y24280D01*
X35035Y24286D01*
X35026Y24291D01*
X35018Y24295D01*
X35012Y24299D01*
X35007Y24301D01*
X35004Y24302D01*
X35003Y24303D01*
X35011Y24317D01*
X35031Y24308D01*
X35051Y24299D01*
X35068Y24290D01*
X35085Y24282D01*
X35100Y24276D01*
X35115Y24268D01*
X35127Y24263D01*
X35139Y24257D01*
X35149Y24252D01*
X35157Y24249D01*
X35164Y24245D01*
X35171Y24242D01*
X35176Y24239D01*
X35179Y24238D01*
X35181Y24237D01*
X35182D01*
Y24335D01*
X35151Y24356D01*
X35189Y24380D01*
X35175Y24395D01*
X35162Y24409D01*
X35151Y24421D01*
X35139Y24432D01*
X35130Y24441D01*
X35121Y24449D01*
X35114Y24457D01*
X35106Y24463D01*
X35101Y24468D01*
X35095Y24473D01*
X35088Y24478D01*
X35084Y24482D01*
X35082Y24483D01*
X35071Y24489D01*
X35061Y24495D01*
X35051Y24498D01*
X35042Y24501D01*
X35035Y24504D01*
X35029Y24505D01*
X35026Y24506D01*
X35025D01*
X35088Y24569D01*
X35115Y24537D01*
D02*
G37*
G36*
X36721Y24583D02*
X36722Y24563D01*
Y24545D01*
X36723Y24528D01*
X36724Y24514D01*
Y24509D01*
Y24504D01*
X36725Y24500D01*
Y24497D01*
Y24496D01*
Y24495D01*
X36941D01*
X36910Y24463D01*
X36895Y24467D01*
X36880Y24470D01*
X36866Y24472D01*
X36853Y24473D01*
X36842D01*
X36833Y24474D01*
X36728D01*
X36735Y24384D01*
X36819D01*
X36868Y24411D01*
X36867Y24391D01*
X36866Y24373D01*
X36866Y24356D01*
X36865Y24342D01*
Y24330D01*
Y24322D01*
Y24316D01*
Y24315D01*
Y24314D01*
Y24010D01*
X36979D01*
X36948Y23979D01*
X36933Y23982D01*
X36919Y23985D01*
X36904Y23987D01*
X36892Y23989D01*
X36881D01*
X36872Y23990D01*
X36424D01*
X36487Y24052D01*
X36529Y24010D01*
X36533D01*
Y24356D01*
X36508Y24377D01*
X36560Y24415D01*
X36585Y24384D01*
X36690D01*
X36682Y24474D01*
X36445D01*
X36508Y24537D01*
X36550Y24495D01*
X36680D01*
X36672Y24555D01*
X36648Y24575D01*
X36721Y24604D01*
Y24583D01*
D02*
G37*
G36*
X36213Y24558D02*
X36225Y24517D01*
X36237Y24478D01*
X36249Y24442D01*
X36261Y24409D01*
X36273Y24377D01*
X36285Y24349D01*
X36296Y24324D01*
X36307Y24300D01*
X36317Y24280D01*
X36326Y24263D01*
X36334Y24250D01*
X36340Y24239D01*
X36346Y24230D01*
X36348Y24226D01*
X36349Y24224D01*
X36339Y24216D01*
X36325Y24232D01*
X36313Y24246D01*
X36302Y24259D01*
X36294Y24269D01*
X36286Y24278D01*
X36281Y24285D01*
X36277Y24288D01*
X36276Y24290D01*
X36203D01*
Y24150D01*
X36335D01*
X36304Y24118D01*
X36289Y24122D01*
X36275Y24125D01*
X36261Y24127D01*
X36249Y24128D01*
X36237D01*
X36228Y24129D01*
X36203D01*
Y23933D01*
Y23922D01*
X36204Y23912D01*
X36207Y23904D01*
X36211Y23897D01*
X36214Y23892D01*
X36217Y23888D01*
X36220Y23885D01*
X36221Y23884D01*
X36178Y23832D01*
X36175Y23841D01*
X36168Y23851D01*
X36160Y23862D01*
X36151Y23874D01*
X36139Y23888D01*
X36128Y23901D01*
X36103Y23929D01*
X36091Y23942D01*
X36079Y23955D01*
X36068Y23966D01*
X36058Y23976D01*
X36051Y23984D01*
X36044Y23991D01*
X36040Y23995D01*
X36039Y23996D01*
X36050Y24006D01*
X36158Y23930D01*
Y24129D01*
X36015D01*
X36067Y24191D01*
X36105Y24150D01*
X36158D01*
Y24290D01*
X36025D01*
X36081Y24353D01*
X36126Y24311D01*
X36266D01*
X36255Y24330D01*
X36245Y24350D01*
X36234Y24369D01*
X36225Y24386D01*
X36216Y24402D01*
X36212Y24410D01*
X36209Y24415D01*
X36207Y24420D01*
X36205Y24423D01*
X36203Y24425D01*
Y24426D01*
X36004D01*
X36056Y24499D01*
X36105Y24447D01*
X36196D01*
X36190Y24460D01*
X36186Y24474D01*
X36181Y24486D01*
X36176Y24497D01*
X36174Y24505D01*
X36171Y24511D01*
X36169Y24515D01*
X36168Y24517D01*
X36163Y24528D01*
X36156Y24536D01*
X36150Y24544D01*
X36144Y24549D01*
X36138Y24554D01*
X36134Y24557D01*
X36131Y24558D01*
X36130Y24559D01*
X36203Y24601D01*
X36213Y24558D01*
D02*
G37*
G36*
X37094Y24571D02*
X37093Y24554D01*
X37092Y24538D01*
X37091Y24525D01*
Y24515D01*
Y24508D01*
Y24504D01*
Y24502D01*
Y24362D01*
X37228D01*
X37197Y24331D01*
X37182Y24335D01*
X37167Y24337D01*
X37153Y24339D01*
X37140Y24341D01*
X37129D01*
X37120Y24342D01*
X37091D01*
Y24048D01*
X37117Y24041D01*
X37143Y24033D01*
X37167Y24027D01*
X37189Y24021D01*
X37199Y24019D01*
X37208Y24016D01*
X37215Y24015D01*
X37222Y24013D01*
X37227Y24012D01*
X37231Y24011D01*
X37234Y24010D01*
X37235D01*
X37193Y23940D01*
X37190Y23943D01*
X37186Y23948D01*
X37180Y23953D01*
X37174Y23958D01*
X37166Y23964D01*
X37157Y23969D01*
X37137Y23980D01*
X37115Y23993D01*
X37091Y24005D01*
X37066Y24018D01*
X37040Y24030D01*
X37014Y24042D01*
X36990Y24053D01*
X36967Y24064D01*
X36948Y24073D01*
X36939Y24077D01*
X36930Y24080D01*
X36924Y24083D01*
X36917Y24086D01*
X36913Y24088D01*
X36909Y24090D01*
X36907Y24090D01*
X36906D01*
X36910Y24104D01*
X37046Y24062D01*
Y24342D01*
X36906D01*
X36965Y24401D01*
X37004Y24362D01*
X37046D01*
Y24530D01*
X37018Y24555D01*
X37095Y24593D01*
X37094Y24571D01*
D02*
G37*
G36*
X35679Y24555D02*
X35899D01*
X35952Y24586D01*
X35951Y24556D01*
X35950Y24527D01*
X35949Y24499D01*
Y24486D01*
X35948Y24474D01*
Y24464D01*
Y24454D01*
Y24445D01*
Y24437D01*
Y24432D01*
Y24427D01*
Y24424D01*
Y24423D01*
Y24393D01*
X35949Y24362D01*
Y24334D01*
X35950Y24321D01*
Y24309D01*
Y24297D01*
X35951Y24287D01*
Y24277D01*
Y24269D01*
X35952Y24263D01*
Y24258D01*
Y24255D01*
Y24254D01*
X35899Y24276D01*
Y24300D01*
X35675D01*
Y24262D01*
X35623Y24283D01*
X35624Y24296D01*
Y24312D01*
X35625Y24328D01*
Y24347D01*
X35626Y24366D01*
Y24386D01*
Y24425D01*
X35627Y24444D01*
Y24462D01*
Y24478D01*
Y24492D01*
Y24504D01*
Y24513D01*
Y24519D01*
Y24520D01*
Y24521D01*
X35596Y24545D01*
X35655Y24590D01*
X35679Y24555D01*
D02*
G37*
G36*
X35887Y24272D02*
X35901Y24248D01*
X35915Y24225D01*
X35929Y24203D01*
X35945Y24182D01*
X35960Y24162D01*
X35975Y24143D01*
X35989Y24127D01*
X36003Y24111D01*
X36015Y24097D01*
X36027Y24085D01*
X36037Y24075D01*
X36045Y24066D01*
X36051Y24060D01*
X36055Y24056D01*
X36056Y24055D01*
X36050Y24045D01*
X36021Y24066D01*
X35993Y24089D01*
X35967Y24111D01*
X35943Y24131D01*
X35933Y24141D01*
X35924Y24150D01*
X35916Y24158D01*
X35908Y24165D01*
X35903Y24171D01*
X35899Y24175D01*
X35896Y24177D01*
X35895Y24178D01*
X35832D01*
X35845Y24152D01*
X35860Y24128D01*
X35877Y24105D01*
X35893Y24083D01*
X35911Y24063D01*
X35928Y24043D01*
X35945Y24026D01*
X35962Y24010D01*
X35978Y23996D01*
X35993Y23983D01*
X36007Y23972D01*
X36019Y23964D01*
X36028Y23956D01*
X36036Y23952D01*
X36040Y23948D01*
X36042Y23947D01*
X36036Y23937D01*
X36003Y23953D01*
X35974Y23969D01*
X35946Y23988D01*
X35920Y24007D01*
X35897Y24027D01*
X35877Y24047D01*
X35858Y24067D01*
X35842Y24087D01*
X35827Y24105D01*
X35814Y24122D01*
X35804Y24138D01*
X35795Y24152D01*
X35789Y24163D01*
X35784Y24171D01*
X35781Y24177D01*
X35780Y24178D01*
X35718D01*
X35725Y24156D01*
X35733Y24135D01*
X35752Y24095D01*
X35774Y24057D01*
X35797Y24022D01*
X35823Y23990D01*
X35849Y23960D01*
X35876Y23933D01*
X35903Y23909D01*
X35928Y23888D01*
X35952Y23869D01*
X35974Y23854D01*
X35993Y23842D01*
X36002Y23836D01*
X36009Y23832D01*
X36016Y23828D01*
X36022Y23824D01*
X36026Y23822D01*
X36029Y23820D01*
X36031Y23819D01*
X36032D01*
X36025Y23808D01*
X36000Y23818D01*
X35976Y23829D01*
X35953Y23840D01*
X35931Y23852D01*
X35911Y23865D01*
X35891Y23879D01*
X35872Y23893D01*
X35854Y23907D01*
X35838Y23922D01*
X35821Y23937D01*
X35793Y23968D01*
X35767Y23999D01*
X35744Y24029D01*
X35726Y24059D01*
X35709Y24087D01*
X35696Y24112D01*
X35691Y24124D01*
X35686Y24134D01*
X35682Y24144D01*
X35678Y24152D01*
X35675Y24160D01*
X35672Y24166D01*
X35670Y24172D01*
X35670Y24176D01*
X35669Y24177D01*
Y24178D01*
X35623D01*
X35625Y24150D01*
X35627Y24124D01*
X35629Y24100D01*
X35631Y24078D01*
X35633Y24057D01*
X35634Y24039D01*
X35636Y24023D01*
X35638Y24008D01*
X35639Y23996D01*
X35641Y23985D01*
X35642Y23976D01*
X35643Y23969D01*
X35644Y23964D01*
Y23959D01*
X35645Y23957D01*
Y23956D01*
X35646Y23945D01*
X35649Y23934D01*
X35652Y23926D01*
X35655Y23918D01*
X35657Y23910D01*
X35660Y23905D01*
X35666Y23894D01*
X35671Y23888D01*
X35676Y23884D01*
X35679Y23882D01*
X35680Y23881D01*
X35685Y23880D01*
X35692D01*
X35699Y23879D01*
X35708Y23880D01*
X35728Y23881D01*
X35748Y23884D01*
X35767Y23888D01*
X35776Y23890D01*
X35783Y23892D01*
X35789Y23893D01*
X35794Y23894D01*
X35797Y23895D01*
X35798D01*
X35801Y23881D01*
X35785Y23874D01*
X35772Y23868D01*
X35761Y23861D01*
X35751Y23854D01*
X35743Y23847D01*
X35736Y23841D01*
X35731Y23834D01*
X35727Y23829D01*
X35723Y23822D01*
X35721Y23818D01*
X35719Y23808D01*
X35718Y23803D01*
Y23802D01*
Y23801D01*
X35706Y23804D01*
X35694Y23807D01*
X35684Y23811D01*
X35675Y23815D01*
X35659Y23822D01*
X35647Y23831D01*
X35638Y23837D01*
X35632Y23843D01*
X35628Y23846D01*
X35627Y23848D01*
X35622Y23855D01*
X35619Y23862D01*
X35611Y23879D01*
X35606Y23896D01*
X35601Y23914D01*
X35597Y23930D01*
X35596Y23937D01*
X35596Y23943D01*
X35595Y23948D01*
X35594Y23952D01*
Y23955D01*
Y23955D01*
X35592Y23970D01*
X35590Y23986D01*
X35586Y24020D01*
X35583Y24054D01*
X35581Y24088D01*
X35579Y24103D01*
X35578Y24117D01*
X35577Y24130D01*
X35576Y24141D01*
X35575Y24151D01*
X35574Y24158D01*
Y24162D01*
Y24164D01*
X35543Y24189D01*
X35598Y24234D01*
X35623Y24199D01*
X35881D01*
X35867Y24214D01*
X35860Y24222D01*
X35854Y24228D01*
X35850Y24234D01*
X35846Y24238D01*
X35844Y24240D01*
X35843Y24241D01*
X35812Y24251D01*
X35875Y24297D01*
X35887Y24272D01*
D02*
G37*
G36*
X34961Y24559D02*
X34960Y24528D01*
X34959Y24498D01*
Y24485D01*
X34958Y24473D01*
Y24460D01*
Y24450D01*
Y24441D01*
Y24433D01*
Y24426D01*
Y24422D01*
Y24419D01*
Y24418D01*
Y23898D01*
Y23885D01*
X34955Y23873D01*
X34952Y23863D01*
X34946Y23855D01*
X34940Y23847D01*
X34932Y23842D01*
X34924Y23837D01*
X34916Y23833D01*
X34900Y23828D01*
X34892Y23827D01*
X34885Y23826D01*
X34880Y23825D01*
X34732D01*
X34718Y23826D01*
X34705Y23828D01*
X34694Y23831D01*
X34683Y23833D01*
X34673Y23838D01*
X34665Y23843D01*
X34658Y23847D01*
X34651Y23853D01*
X34642Y23863D01*
X34634Y23872D01*
X34633Y23875D01*
X34631Y23878D01*
X34630Y23880D01*
Y23881D01*
X34641Y23887D01*
X34649Y23894D01*
X34656Y23904D01*
X34661Y23913D01*
X34665Y23921D01*
X34667Y23928D01*
X34669Y23932D01*
Y23934D01*
X34671Y23950D01*
X34672Y23967D01*
X34673Y23985D01*
X34674Y24002D01*
X34675Y24016D01*
Y24022D01*
Y24028D01*
Y24031D01*
Y24035D01*
Y24037D01*
Y24038D01*
X34693D01*
Y24012D01*
X34694Y23989D01*
X34695Y23968D01*
X34696Y23952D01*
X34697Y23938D01*
X34698Y23933D01*
X34699Y23929D01*
Y23925D01*
X34700Y23922D01*
Y23921D01*
Y23920D01*
X34704Y23905D01*
X34708Y23894D01*
X34715Y23886D01*
X34721Y23880D01*
X34728Y23875D01*
X34733Y23873D01*
X34736Y23871D01*
X34843D01*
X34855Y23870D01*
X34867Y23871D01*
X34876Y23874D01*
X34884Y23878D01*
X34891Y23881D01*
X34896Y23886D01*
X34900Y23892D01*
X34904Y23898D01*
X34907Y23909D01*
X34909Y23919D01*
Y23924D01*
Y23927D01*
Y23929D01*
Y23930D01*
Y24516D01*
X34871Y24544D01*
X34962Y24590D01*
X34961Y24559D01*
D02*
G37*
G36*
X36810Y23958D02*
X36824Y23942D01*
X36839Y23925D01*
X36854Y23909D01*
X36887Y23881D01*
X36903Y23867D01*
X36919Y23855D01*
X36935Y23843D01*
X36950Y23832D01*
X36963Y23824D01*
X36974Y23816D01*
X36984Y23810D01*
X36990Y23806D01*
X36995Y23803D01*
X36997Y23802D01*
X36990Y23791D01*
X36972Y23799D01*
X36954Y23807D01*
X36938Y23816D01*
X36922Y23823D01*
X36908Y23831D01*
X36895Y23837D01*
X36883Y23844D01*
X36872Y23849D01*
X36862Y23855D01*
X36853Y23859D01*
X36846Y23864D01*
X36841Y23868D01*
X36836Y23870D01*
X36832Y23872D01*
X36830Y23874D01*
X36829D01*
X36810Y23887D01*
X36792Y23896D01*
X36778Y23904D01*
X36765Y23909D01*
X36755Y23913D01*
X36748Y23915D01*
X36744Y23916D01*
X36742D01*
X36798Y23975D01*
X36810Y23958D01*
D02*
G37*
G36*
X36651Y23955D02*
X36629Y23939D01*
X36609Y23924D01*
X36592Y23910D01*
X36575Y23896D01*
X36561Y23884D01*
X36548Y23873D01*
X36538Y23863D01*
X36528Y23854D01*
X36521Y23845D01*
X36514Y23839D01*
X36508Y23832D01*
X36504Y23828D01*
X36501Y23824D01*
X36499Y23820D01*
X36497Y23819D01*
Y23819D01*
X36490Y23808D01*
X36484Y23800D01*
X36479Y23795D01*
X36475Y23791D01*
X36472Y23789D01*
X36471Y23788D01*
X36470Y23787D01*
X36467Y23788D01*
X36465Y23791D01*
X36462Y23794D01*
X36460Y23798D01*
X36459Y23802D01*
X36459Y23805D01*
X36458Y23807D01*
Y23808D01*
X36456Y23816D01*
X36454Y23822D01*
X36453Y23828D01*
Y23832D01*
X36452Y23835D01*
Y23838D01*
Y23840D01*
X36453Y23847D01*
X36454Y23855D01*
X36459Y23868D01*
X36468Y23879D01*
X36476Y23888D01*
X36485Y23895D01*
X36494Y23901D01*
X36499Y23905D01*
X36500Y23905D01*
X36501D01*
X36510Y23910D01*
X36521Y23915D01*
X36545Y23925D01*
X36568Y23935D01*
X36591Y23944D01*
X36602Y23948D01*
X36612Y23953D01*
X36621Y23955D01*
X36629Y23959D01*
X36635Y23961D01*
X36640Y23963D01*
X36644Y23965D01*
X36644D01*
X36651Y23955D01*
D02*
G37*
G36*
X36331Y30885D02*
X36642D01*
X36610Y30854D01*
X36595Y30857D01*
X36581Y30860D01*
X36567Y30862D01*
X36555Y30864D01*
X36544D01*
X36534Y30865D01*
X36327D01*
X36419Y30738D01*
X36450Y30759D01*
X36449Y30746D01*
Y30732D01*
X36448Y30718D01*
Y30702D01*
X36447Y30670D01*
X36446Y30638D01*
Y30623D01*
Y30609D01*
Y30596D01*
Y30585D01*
Y30577D01*
Y30570D01*
Y30566D01*
Y30564D01*
X36473Y30553D01*
X36499Y30543D01*
X36522Y30533D01*
X36544Y30524D01*
X36563Y30517D01*
X36581Y30510D01*
X36596Y30504D01*
X36611Y30498D01*
X36623Y30494D01*
X36634Y30490D01*
X36643Y30486D01*
X36650Y30485D01*
X36655Y30483D01*
X36660Y30481D01*
X36662Y30480D01*
X36663D01*
X36618Y30413D01*
X36613Y30420D01*
X36606Y30427D01*
X36596Y30436D01*
X36585Y30444D01*
X36571Y30453D01*
X36557Y30462D01*
X36527Y30481D01*
X36511Y30490D01*
X36497Y30498D01*
X36483Y30506D01*
X36471Y30512D01*
X36461Y30518D01*
X36453Y30522D01*
X36448Y30524D01*
X36446Y30525D01*
Y30260D01*
X36447Y30248D01*
X36451Y30239D01*
X36455Y30233D01*
X36460Y30229D01*
X36465Y30226D01*
X36470Y30226D01*
X36473Y30225D01*
X36486D01*
X36502Y30226D01*
X36520Y30227D01*
X36537Y30228D01*
X36553Y30230D01*
X36560D01*
X36567Y30231D01*
X36571D01*
X36575Y30232D01*
X36579D01*
Y30218D01*
X36563Y30213D01*
X36548Y30207D01*
X36536Y30201D01*
X36525Y30194D01*
X36516Y30188D01*
X36508Y30180D01*
X36502Y30174D01*
X36496Y30167D01*
X36492Y30162D01*
X36488Y30156D01*
X36484Y30146D01*
X36483Y30142D01*
X36482Y30140D01*
Y30139D01*
Y30138D01*
X36467Y30144D01*
X36454Y30152D01*
X36443Y30159D01*
X36433Y30167D01*
X36425Y30177D01*
X36418Y30185D01*
X36412Y30194D01*
X36408Y30202D01*
X36405Y30210D01*
X36402Y30218D01*
X36400Y30225D01*
X36398Y30230D01*
Y30236D01*
X36397Y30239D01*
Y30241D01*
Y30242D01*
Y30549D01*
X36362Y30570D01*
X36330Y30589D01*
X36299Y30607D01*
X36286Y30614D01*
X36273Y30621D01*
X36261Y30628D01*
X36250Y30633D01*
X36241Y30639D01*
X36234Y30643D01*
X36227Y30646D01*
X36223Y30649D01*
X36220Y30650D01*
X36219Y30651D01*
X36226Y30665D01*
X36247Y30656D01*
X36266Y30646D01*
X36284Y30638D01*
X36300Y30630D01*
X36315Y30623D01*
X36330Y30616D01*
X36342Y30610D01*
X36354Y30605D01*
X36364Y30600D01*
X36372Y30596D01*
X36380Y30593D01*
X36386Y30590D01*
X36391Y30587D01*
X36395Y30585D01*
X36397Y30584D01*
X36397D01*
Y30682D01*
X36366Y30704D01*
X36404Y30728D01*
X36390Y30743D01*
X36377Y30756D01*
X36366Y30769D01*
X36355Y30780D01*
X36346Y30789D01*
X36336Y30797D01*
X36329Y30805D01*
X36322Y30811D01*
X36316Y30816D01*
X36310Y30820D01*
X36303Y30826D01*
X36299Y30830D01*
X36298Y30831D01*
X36286Y30837D01*
X36276Y30843D01*
X36266Y30846D01*
X36258Y30849D01*
X36250Y30852D01*
X36245Y30853D01*
X36241Y30854D01*
X36240D01*
X36303Y30917D01*
X36331Y30885D01*
D02*
G37*
G36*
X37937Y30930D02*
X37938Y30911D01*
Y30892D01*
X37938Y30876D01*
X37939Y30862D01*
Y30856D01*
Y30852D01*
X37940Y30848D01*
Y30845D01*
Y30843D01*
Y30843D01*
X38157D01*
X38125Y30811D01*
X38111Y30815D01*
X38096Y30818D01*
X38082Y30819D01*
X38069Y30821D01*
X38058D01*
X38049Y30822D01*
X37943D01*
X37950Y30732D01*
X38035D01*
X38084Y30759D01*
X38083Y30739D01*
X38082Y30720D01*
X38081Y30704D01*
X38080Y30690D01*
Y30678D01*
Y30670D01*
Y30664D01*
Y30663D01*
Y30662D01*
Y30358D01*
X38195D01*
X38163Y30326D01*
X38148Y30330D01*
X38135Y30333D01*
X38120Y30335D01*
X38108Y30337D01*
X38097D01*
X38087Y30337D01*
X37640D01*
X37703Y30399D01*
X37744Y30358D01*
X37748D01*
Y30704D01*
X37723Y30725D01*
X37776Y30763D01*
X37801Y30732D01*
X37905D01*
X37898Y30822D01*
X37660D01*
X37723Y30885D01*
X37766Y30843D01*
X37895D01*
X37888Y30903D01*
X37864Y30923D01*
X37937Y30952D01*
Y30930D01*
D02*
G37*
G36*
X37429Y30905D02*
X37440Y30865D01*
X37452Y30826D01*
X37464Y30790D01*
X37476Y30756D01*
X37488Y30725D01*
X37500Y30696D01*
X37511Y30671D01*
X37522Y30648D01*
X37532Y30628D01*
X37542Y30611D01*
X37549Y30597D01*
X37556Y30586D01*
X37561Y30578D01*
X37564Y30573D01*
X37565Y30571D01*
X37555Y30564D01*
X37541Y30580D01*
X37529Y30594D01*
X37518Y30607D01*
X37509Y30617D01*
X37502Y30626D01*
X37496Y30633D01*
X37493Y30636D01*
X37492Y30638D01*
X37419D01*
Y30498D01*
X37551D01*
X37519Y30466D01*
X37505Y30470D01*
X37491Y30473D01*
X37476Y30474D01*
X37464Y30476D01*
X37453D01*
X37444Y30477D01*
X37419D01*
Y30281D01*
Y30270D01*
X37420Y30260D01*
X37422Y30251D01*
X37426Y30245D01*
X37430Y30239D01*
X37432Y30236D01*
X37435Y30233D01*
X37436Y30232D01*
X37394Y30180D01*
X37390Y30189D01*
X37383Y30199D01*
X37375Y30210D01*
X37366Y30222D01*
X37355Y30236D01*
X37344Y30249D01*
X37319Y30276D01*
X37307Y30290D01*
X37295Y30302D01*
X37284Y30313D01*
X37273Y30324D01*
X37266Y30332D01*
X37260Y30338D01*
X37255Y30343D01*
X37254Y30344D01*
X37265Y30354D01*
X37373Y30277D01*
Y30477D01*
X37230D01*
X37283Y30539D01*
X37321Y30498D01*
X37373D01*
Y30638D01*
X37240D01*
X37297Y30701D01*
X37342Y30658D01*
X37482D01*
X37470Y30678D01*
X37460Y30697D01*
X37449Y30717D01*
X37440Y30734D01*
X37432Y30750D01*
X37428Y30757D01*
X37424Y30763D01*
X37422Y30768D01*
X37420Y30771D01*
X37419Y30773D01*
Y30774D01*
X37220D01*
X37272Y30847D01*
X37321Y30794D01*
X37411D01*
X37406Y30808D01*
X37401Y30822D01*
X37396Y30834D01*
X37392Y30844D01*
X37389Y30853D01*
X37386Y30859D01*
X37384Y30863D01*
X37383Y30865D01*
X37378Y30876D01*
X37371Y30884D01*
X37365Y30892D01*
X37359Y30897D01*
X37354Y30902D01*
X37349Y30905D01*
X37346Y30905D01*
X37346Y30906D01*
X37419Y30949D01*
X37429Y30905D01*
D02*
G37*
G36*
X38309Y30919D02*
X38308Y30902D01*
X38308Y30886D01*
X38307Y30873D01*
Y30863D01*
Y30855D01*
Y30852D01*
Y30850D01*
Y30710D01*
X38444D01*
X38412Y30679D01*
X38397Y30682D01*
X38382Y30685D01*
X38369Y30687D01*
X38356Y30689D01*
X38345D01*
X38335Y30690D01*
X38307D01*
Y30396D01*
X38333Y30388D01*
X38358Y30381D01*
X38382Y30374D01*
X38405Y30369D01*
X38414Y30367D01*
X38423Y30364D01*
X38431Y30362D01*
X38437Y30361D01*
X38443Y30360D01*
X38446Y30359D01*
X38449Y30358D01*
X38450D01*
X38408Y30288D01*
X38406Y30291D01*
X38401Y30296D01*
X38395Y30300D01*
X38389Y30306D01*
X38382Y30312D01*
X38372Y30317D01*
X38353Y30328D01*
X38331Y30341D01*
X38307Y30353D01*
X38282Y30366D01*
X38256Y30378D01*
X38230Y30390D01*
X38206Y30401D01*
X38183Y30411D01*
X38163Y30421D01*
X38154Y30424D01*
X38146Y30428D01*
X38139Y30431D01*
X38133Y30434D01*
X38128Y30436D01*
X38124Y30437D01*
X38123Y30438D01*
X38122D01*
X38125Y30452D01*
X38261Y30410D01*
Y30690D01*
X38122D01*
X38181Y30749D01*
X38220Y30710D01*
X38261D01*
Y30878D01*
X38234Y30903D01*
X38310Y30941D01*
X38309Y30919D01*
D02*
G37*
G36*
X36894Y30903D02*
X37114D01*
X37167Y30934D01*
X37166Y30904D01*
X37165Y30875D01*
X37164Y30847D01*
Y30834D01*
X37163Y30822D01*
Y30812D01*
Y30802D01*
Y30793D01*
Y30785D01*
Y30780D01*
Y30775D01*
Y30772D01*
Y30771D01*
Y30741D01*
X37164Y30710D01*
Y30682D01*
X37165Y30669D01*
Y30657D01*
Y30645D01*
X37166Y30634D01*
Y30625D01*
Y30617D01*
X37167Y30610D01*
Y30606D01*
Y30603D01*
Y30602D01*
X37114Y30623D01*
Y30648D01*
X36890D01*
Y30609D01*
X36839Y30631D01*
X36840Y30644D01*
Y30659D01*
X36841Y30676D01*
Y30695D01*
X36841Y30714D01*
Y30733D01*
Y30773D01*
X36842Y30792D01*
Y30810D01*
Y30826D01*
Y30840D01*
Y30852D01*
Y30861D01*
Y30867D01*
Y30868D01*
Y30868D01*
X36811Y30892D01*
X36870Y30938D01*
X36894Y30903D01*
D02*
G37*
G36*
X37102Y30620D02*
X37116Y30596D01*
X37130Y30572D01*
X37145Y30551D01*
X37161Y30530D01*
X37175Y30510D01*
X37190Y30491D01*
X37204Y30474D01*
X37218Y30459D01*
X37231Y30445D01*
X37242Y30433D01*
X37252Y30423D01*
X37260Y30414D01*
X37266Y30408D01*
X37271Y30404D01*
X37272Y30403D01*
X37265Y30393D01*
X37236Y30414D01*
X37209Y30436D01*
X37183Y30459D01*
X37159Y30479D01*
X37149Y30489D01*
X37139Y30498D01*
X37131Y30506D01*
X37124Y30513D01*
X37118Y30519D01*
X37114Y30522D01*
X37112Y30525D01*
X37111Y30526D01*
X37048D01*
X37061Y30500D01*
X37075Y30476D01*
X37092Y30453D01*
X37109Y30431D01*
X37126Y30411D01*
X37143Y30391D01*
X37161Y30374D01*
X37177Y30358D01*
X37194Y30344D01*
X37209Y30331D01*
X37223Y30320D01*
X37235Y30312D01*
X37244Y30304D01*
X37251Y30300D01*
X37256Y30296D01*
X37258Y30295D01*
X37251Y30285D01*
X37219Y30300D01*
X37189Y30317D01*
X37161Y30336D01*
X37136Y30355D01*
X37112Y30374D01*
X37092Y30395D01*
X37074Y30415D01*
X37057Y30435D01*
X37042Y30453D01*
X37029Y30470D01*
X37019Y30485D01*
X37011Y30499D01*
X37004Y30510D01*
X37000Y30519D01*
X36997Y30524D01*
X36996Y30526D01*
X36933D01*
X36940Y30504D01*
X36949Y30483D01*
X36967Y30443D01*
X36989Y30405D01*
X37013Y30370D01*
X37038Y30337D01*
X37064Y30308D01*
X37091Y30281D01*
X37118Y30257D01*
X37143Y30236D01*
X37167Y30217D01*
X37189Y30201D01*
X37209Y30189D01*
X37217Y30184D01*
X37224Y30179D01*
X37232Y30176D01*
X37237Y30172D01*
X37241Y30170D01*
X37245Y30168D01*
X37247Y30166D01*
X37248D01*
X37240Y30156D01*
X37215Y30165D01*
X37191Y30177D01*
X37169Y30188D01*
X37147Y30200D01*
X37126Y30213D01*
X37106Y30226D01*
X37087Y30240D01*
X37070Y30255D01*
X37053Y30270D01*
X37037Y30285D01*
X37008Y30316D01*
X36982Y30347D01*
X36960Y30377D01*
X36941Y30407D01*
X36925Y30435D01*
X36912Y30460D01*
X36906Y30472D01*
X36902Y30482D01*
X36897Y30492D01*
X36893Y30500D01*
X36890Y30508D01*
X36888Y30514D01*
X36886Y30520D01*
X36885Y30523D01*
X36884Y30525D01*
Y30526D01*
X36839D01*
X36841Y30498D01*
X36842Y30472D01*
X36844Y30448D01*
X36846Y30425D01*
X36848Y30405D01*
X36850Y30387D01*
X36852Y30371D01*
X36853Y30356D01*
X36854Y30344D01*
X36856Y30333D01*
X36857Y30324D01*
X36858Y30317D01*
X36859Y30312D01*
Y30307D01*
X36860Y30305D01*
Y30304D01*
X36862Y30293D01*
X36865Y30282D01*
X36867Y30274D01*
X36870Y30265D01*
X36873Y30258D01*
X36876Y30252D01*
X36881Y30242D01*
X36887Y30236D01*
X36891Y30232D01*
X36894Y30230D01*
X36895Y30229D01*
X36901Y30227D01*
X36907D01*
X36915Y30226D01*
X36924Y30227D01*
X36943Y30229D01*
X36964Y30232D01*
X36982Y30236D01*
X36991Y30238D01*
X36999Y30239D01*
X37004Y30241D01*
X37010Y30242D01*
X37013Y30243D01*
X37013D01*
X37016Y30228D01*
X37001Y30222D01*
X36988Y30215D01*
X36976Y30209D01*
X36966Y30201D01*
X36958Y30195D01*
X36951Y30189D01*
X36946Y30182D01*
X36942Y30177D01*
X36939Y30170D01*
X36937Y30165D01*
X36934Y30156D01*
X36933Y30151D01*
Y30150D01*
Y30149D01*
X36921Y30152D01*
X36910Y30155D01*
X36900Y30159D01*
X36890Y30163D01*
X36875Y30170D01*
X36863Y30178D01*
X36853Y30185D01*
X36847Y30190D01*
X36843Y30194D01*
X36842Y30196D01*
X36838Y30202D01*
X36834Y30210D01*
X36827Y30226D01*
X36821Y30244D01*
X36816Y30262D01*
X36813Y30278D01*
X36812Y30285D01*
X36811Y30291D01*
X36810Y30296D01*
X36809Y30300D01*
Y30302D01*
Y30303D01*
X36807Y30318D01*
X36805Y30334D01*
X36802Y30368D01*
X36799Y30402D01*
X36796Y30436D01*
X36794Y30451D01*
X36793Y30465D01*
X36792Y30478D01*
X36791Y30489D01*
X36791Y30498D01*
X36790Y30506D01*
Y30510D01*
Y30511D01*
X36758Y30536D01*
X36814Y30582D01*
X36839Y30547D01*
X37097D01*
X37082Y30562D01*
X37075Y30570D01*
X37070Y30576D01*
X37065Y30582D01*
X37062Y30585D01*
X37060Y30588D01*
X37059Y30589D01*
X37027Y30599D01*
X37090Y30645D01*
X37102Y30620D01*
D02*
G37*
G36*
X36176Y30906D02*
X36175Y30876D01*
X36174Y30846D01*
Y30833D01*
X36174Y30820D01*
Y30808D01*
Y30798D01*
Y30789D01*
Y30781D01*
Y30774D01*
Y30769D01*
Y30767D01*
Y30766D01*
Y30246D01*
Y30233D01*
X36171Y30221D01*
X36167Y30211D01*
X36162Y30202D01*
X36155Y30195D01*
X36148Y30189D01*
X36139Y30185D01*
X36131Y30181D01*
X36115Y30176D01*
X36108Y30175D01*
X36100Y30174D01*
X36095Y30173D01*
X35947D01*
X35933Y30174D01*
X35920Y30176D01*
X35909Y30178D01*
X35898Y30181D01*
X35889Y30186D01*
X35880Y30190D01*
X35873Y30195D01*
X35866Y30201D01*
X35857Y30211D01*
X35850Y30220D01*
X35848Y30223D01*
X35846Y30226D01*
X35845Y30227D01*
Y30228D01*
X35856Y30235D01*
X35865Y30242D01*
X35871Y30251D01*
X35877Y30261D01*
X35880Y30269D01*
X35882Y30275D01*
X35884Y30280D01*
Y30282D01*
X35886Y30298D01*
X35888Y30315D01*
X35889Y30333D01*
X35890Y30350D01*
X35891Y30363D01*
Y30370D01*
Y30375D01*
Y30379D01*
Y30383D01*
Y30385D01*
Y30386D01*
X35908D01*
Y30360D01*
X35909Y30337D01*
X35910Y30316D01*
X35912Y30300D01*
X35913Y30286D01*
X35914Y30281D01*
X35915Y30276D01*
Y30273D01*
X35916Y30270D01*
Y30269D01*
Y30268D01*
X35919Y30253D01*
X35924Y30242D01*
X35930Y30234D01*
X35937Y30227D01*
X35943Y30223D01*
X35949Y30221D01*
X35952Y30219D01*
X36058D01*
X36071Y30218D01*
X36082Y30219D01*
X36091Y30222D01*
X36100Y30226D01*
X36106Y30229D01*
X36112Y30234D01*
X36115Y30239D01*
X36119Y30246D01*
X36123Y30257D01*
X36125Y30267D01*
Y30272D01*
Y30275D01*
Y30276D01*
Y30277D01*
Y30864D01*
X36087Y30892D01*
X36177Y30938D01*
X36176Y30906D01*
D02*
G37*
G36*
X38025Y30306D02*
X38039Y30289D01*
X38054Y30273D01*
X38070Y30257D01*
X38102Y30228D01*
X38119Y30214D01*
X38135Y30202D01*
X38150Y30190D01*
X38165Y30180D01*
X38178Y30172D01*
X38189Y30164D01*
X38199Y30158D01*
X38206Y30153D01*
X38210Y30151D01*
X38212Y30150D01*
X38206Y30139D01*
X38187Y30147D01*
X38170Y30155D01*
X38153Y30164D01*
X38137Y30171D01*
X38123Y30178D01*
X38111Y30185D01*
X38098Y30191D01*
X38087Y30197D01*
X38077Y30202D01*
X38069Y30207D01*
X38061Y30212D01*
X38056Y30215D01*
X38051Y30218D01*
X38048Y30220D01*
X38046Y30222D01*
X38045D01*
X38025Y30235D01*
X38008Y30244D01*
X37993Y30251D01*
X37980Y30257D01*
X37971Y30261D01*
X37963Y30263D01*
X37960Y30263D01*
X37958D01*
X38013Y30323D01*
X38025Y30306D01*
D02*
G37*
G36*
X37866Y30302D02*
X37844Y30287D01*
X37825Y30272D01*
X37807Y30258D01*
X37790Y30244D01*
X37777Y30232D01*
X37764Y30221D01*
X37753Y30211D01*
X37743Y30201D01*
X37736Y30193D01*
X37729Y30187D01*
X37724Y30180D01*
X37719Y30176D01*
X37716Y30172D01*
X37715Y30168D01*
X37713Y30167D01*
Y30166D01*
X37705Y30156D01*
X37700Y30148D01*
X37694Y30142D01*
X37691Y30139D01*
X37688Y30137D01*
X37686Y30136D01*
X37685Y30135D01*
X37682Y30136D01*
X37680Y30139D01*
X37678Y30141D01*
X37676Y30146D01*
X37675Y30150D01*
X37674Y30152D01*
X37673Y30155D01*
Y30156D01*
X37671Y30164D01*
X37669Y30170D01*
X37668Y30176D01*
Y30180D01*
X37667Y30183D01*
Y30186D01*
Y30188D01*
X37668Y30195D01*
X37669Y30202D01*
X37675Y30215D01*
X37683Y30226D01*
X37692Y30236D01*
X37701Y30243D01*
X37709Y30249D01*
X37715Y30252D01*
X37716Y30253D01*
X37716D01*
X37726Y30258D01*
X37737Y30263D01*
X37760Y30273D01*
X37783Y30283D01*
X37806Y30292D01*
X37817Y30296D01*
X37827Y30300D01*
X37837Y30303D01*
X37844Y30307D01*
X37851Y30309D01*
X37855Y30311D01*
X37859Y30312D01*
X37860D01*
X37866Y30302D01*
D02*
G37*
%LPC*%
G36*
X36819Y24363D02*
X36578D01*
Y24296D01*
X36819D01*
Y24363D01*
D02*
G37*
G36*
Y24276D02*
X36578D01*
Y24202D01*
X36819D01*
Y24276D01*
D02*
G37*
G36*
Y24181D02*
X36578D01*
Y24108D01*
X36819D01*
Y24181D01*
D02*
G37*
G36*
Y24088D02*
X36578D01*
Y24010D01*
X36819D01*
Y24088D01*
D02*
G37*
G36*
X35899Y24534D02*
X35675D01*
Y24436D01*
X35899D01*
Y24534D01*
D02*
G37*
G36*
Y24416D02*
X35675D01*
Y24321D01*
X35899D01*
Y24416D01*
D02*
G37*
G36*
X38035Y30711D02*
X37793D01*
Y30644D01*
X38035D01*
Y30711D01*
D02*
G37*
G36*
Y30623D02*
X37793D01*
Y30549D01*
X38035D01*
Y30623D01*
D02*
G37*
G36*
Y30529D02*
X37793D01*
Y30456D01*
X38035D01*
Y30529D01*
D02*
G37*
G36*
Y30436D02*
X37793D01*
Y30358D01*
X38035D01*
Y30436D01*
D02*
G37*
G36*
X37114Y30882D02*
X36890D01*
Y30784D01*
X37114D01*
Y30882D01*
D02*
G37*
G36*
Y30764D02*
X36890D01*
Y30669D01*
X37114D01*
Y30764D01*
D02*
G37*
%LPD*%
D13*
X40656Y9051D02*
G03*
X40656Y9051I-1811J0D01*
G01*
X39482Y8001D02*
X39982D01*
X39732Y7751D02*
Y8251D01*
D149*
X29925Y44437D02*
X48183D01*
M02*
