G04 EasyEDA Pro v1.9.28, 2025-09-15 11:43:01*
G04 Gerber Generator version 0.3*G04*
G04 #@! TF.GenerationSoftware,Altium Limited,Altium Designer,20.0.13 (296)*
G04*
G04 Layer_Color=16711935*
%FSLAX24Y24*%
%MOIN*%
G70*
G01*
G75*
%ADD13C,0.0100*%
%ADD80C,0.1000*%
%ADD153C,0.0300*%
%ADD156C,0.0600*%
D13*
X18780Y6215D02*
X55012D01*
X55012Y45326D02*
X55012Y6215D01*
X18780D02*
Y45326D01*
X55012D01*
D80*
X36238Y42087D02*
X41480Y42107D01*
D153*
X42092Y37157D02*
X42795Y38356D01*
X53413Y42016D02*
X53758Y41657D01*
X52497Y36007D02*
Y37743D01*
X53898Y36038D02*
Y41186D01*
X36569Y39665D02*
X42379D01*
X28152Y38635D02*
Y41635D01*
X29091Y37621D02*
X35670D01*
X36615Y44267D02*
X41537Y44236D01*
X48014Y43919D02*
X49209Y42716D01*
X34066Y39108D02*
X34866D01*
X30757Y39108D02*
X31557D01*
X44953Y38956D02*
X45753D01*
X46173Y39481D02*
Y41225D01*
X44620Y39018D02*
Y40762D01*
X33562Y39258D02*
Y41002D01*
X32009Y39310D02*
Y41054D01*
X45625Y41754D02*
Y43498D01*
X44322Y41744D02*
Y43488D01*
X33445Y41656D02*
Y43400D01*
X32122Y41695D02*
Y43439D01*
D156*
X49643Y34999D02*
X53652Y35017D01*
X49058Y35578D02*
X49643Y34999D01*
X36697Y35521D02*
X49058Y35578D01*
M02*
