G04*
G04 #@! TF.GenerationSoftware,Altium Limited,Altium Designer,20.0.13 (296)*
G04*
G04 Layer_Color=128*
%FSLAX24Y24*%
%MOIN*%
G70*
G01*
G75*
%ADD59C,0.0020*%
D59*
X39390Y17844D02*
X42539D01*
X40965Y16269D02*
Y19418D01*
X33091Y17844D02*
X36240D01*
X34665Y16269D02*
Y19418D01*
X62905Y19550D02*
X63355D01*
X63130Y19325D02*
Y19775D01*
X55815Y16780D02*
X56265D01*
X56040Y16555D02*
Y17005D01*
X60775Y23620D02*
X61405D01*
X61090Y23305D02*
Y23935D01*
X62335Y23620D02*
X62965D01*
X62650Y23305D02*
Y23935D01*
X59216Y23620D02*
X59846D01*
X59531Y23305D02*
Y23935D01*
X58920Y19273D02*
X60101D01*
X59511Y18682D02*
Y19864D01*
X60766Y19555D02*
X61553D01*
X61159Y19161D02*
Y19948D01*
X60442Y18190D02*
X61229D01*
X60835Y17797D02*
Y18584D01*
X59146Y17600D02*
X59934D01*
X59540Y17206D02*
Y17994D01*
X57899Y18184D02*
X58686D01*
X58293Y17790D02*
Y18578D01*
X57476Y19549D02*
X58264D01*
X57870Y19155D02*
Y19943D01*
X59939Y20683D02*
X60727D01*
X60333Y20289D02*
Y21077D01*
X58285Y20679D02*
X59073D01*
X58679Y20285D02*
Y21073D01*
X49524Y19293D02*
X50705D01*
X50115Y18703D02*
Y19884D01*
X51369Y19575D02*
X52157D01*
X51763Y19181D02*
Y19969D01*
X51045Y18211D02*
X51833D01*
X51439Y17817D02*
Y18604D01*
X49750Y17620D02*
X50537D01*
X50144Y17227D02*
Y18014D01*
X48503Y18204D02*
X49290D01*
X48896Y17811D02*
Y18598D01*
X48080Y19569D02*
X48867D01*
X48474Y19176D02*
Y19963D01*
X50543Y20703D02*
X51330D01*
X50937Y20310D02*
Y21097D01*
X48889Y20699D02*
X49676D01*
X49283Y20305D02*
Y21093D01*
X26118Y18645D02*
X26826D01*
X26472Y18291D02*
Y18999D01*
X26343Y17526D02*
X27366D01*
X26855Y17015D02*
Y18038D01*
X25538Y16830D02*
X26247D01*
X25892Y16476D02*
Y17185D01*
X24413Y17531D02*
X25437D01*
X24925Y17019D02*
Y18043D01*
X24959Y18653D02*
X25667D01*
X25313Y18298D02*
Y19007D01*
X47640Y23175D02*
X48269D01*
X47954Y22860D02*
Y23489D01*
X49845Y25380D02*
X50475D01*
X50160Y25065D02*
Y25695D01*
X48742Y24277D02*
X49372D01*
X49057Y23962D02*
Y24592D01*
X55943Y23480D02*
X56297D01*
X56120Y23303D02*
Y23657D01*
X55943Y22480D02*
X56297D01*
X56120Y22303D02*
Y22657D01*
X53263Y26190D02*
X53617D01*
X53440Y26013D02*
Y26367D01*
X53263Y25190D02*
X53617D01*
X53440Y25013D02*
Y25367D01*
X37455Y16000D02*
X37575D01*
X37515Y15940D02*
Y16060D01*
X46970Y22100D02*
X47570D01*
X47270Y21800D02*
Y22400D01*
X57800Y24010D02*
X58400D01*
X58100Y23710D02*
Y24310D01*
X59200Y16810D02*
X59320D01*
X59260Y16750D02*
Y16870D01*
X58730Y16740D02*
X58850D01*
X58790Y16680D02*
Y16800D01*
X43810Y15440D02*
X43930D01*
X43870Y15380D02*
Y15500D01*
M02*
