G04*
G04 #@! TF.GenerationSoftware,Altium Limited,Altium Designer,20.0.13 (296)*
G04*
G04 Layer_Color=255*
%FSLAX24Y24*%
%MOIN*%
G70*
G01*
G75*
%ADD32C,0.3150*%
%ADD33C,0.0700*%
%ADD34C,0.0800*%
%ADD35O,0.1063X0.1457*%
%ADD36R,0.1063X0.1457*%
%ADD37C,0.1181*%
%ADD38C,0.0984*%
%ADD39C,0.1024*%
G04:AMPARAMS|DCode=40|XSize=106.3mil|YSize=145.7mil|CornerRadius=0mil|HoleSize=0mil|Usage=FLASHONLY|Rotation=225.000|XOffset=0mil|YOffset=0mil|HoleType=Round|Shape=Round|*
%AMOVALD40*
21,1,0.0394,0.1063,0.0000,0.0000,315.0*
1,1,0.1063,-0.0139,0.0139*
1,1,0.1063,0.0139,-0.0139*
%
%ADD40OVALD40*%

G04:AMPARAMS|DCode=41|XSize=106.3mil|YSize=145.7mil|CornerRadius=0mil|HoleSize=0mil|Usage=FLASHONLY|Rotation=225.000|XOffset=0mil|YOffset=0mil|HoleType=Round|Shape=Rectangle|*
%AMROTATEDRECTD41*
4,1,4,-0.0139,0.0891,0.0891,-0.0139,0.0139,-0.0891,-0.0891,0.0139,-0.0139,0.0891,0.0*
%
%ADD41ROTATEDRECTD41*%

%ADD42C,0.0669*%
%ADD43R,0.0669X0.0669*%
%ADD45R,0.0118X0.0512*%
%ADD46R,0.0709X0.0866*%
%ADD47R,0.0512X0.0118*%
%ADD48R,0.0866X0.0709*%
D32*
X40965Y17844D02*
D03*
X34665D02*
D03*
D33*
X63130Y19550D02*
D03*
D34*
X56040Y16780D02*
D03*
D35*
X61090Y23620D02*
D03*
X59531D02*
D03*
D36*
X62650D02*
D03*
D37*
X59511Y19273D02*
D03*
X50115Y19293D02*
D03*
D38*
X61159Y19555D02*
D03*
X60835Y18190D02*
D03*
X59540Y17600D02*
D03*
X58293Y18184D02*
D03*
X57870Y19549D02*
D03*
X60333Y20683D02*
D03*
X58679Y20679D02*
D03*
X51763Y19575D02*
D03*
X51439Y18211D02*
D03*
X50144Y17620D02*
D03*
X48896Y18204D02*
D03*
X48474Y19569D02*
D03*
X50937Y20703D02*
D03*
X49283Y20699D02*
D03*
D39*
X26472Y18645D02*
D03*
X26855Y17526D02*
D03*
X25892Y16830D02*
D03*
X24925Y17531D02*
D03*
X25313Y18653D02*
D03*
D40*
X47954Y23175D02*
D03*
X49057Y24277D02*
D03*
D41*
X50160Y25380D02*
D03*
D42*
X56120Y23480D02*
D03*
X53440Y26190D02*
D03*
D43*
X56120Y22480D02*
D03*
X53440Y25190D02*
D03*
D45*
X37318Y19623D02*
D03*
X37515D02*
D03*
X37712D02*
D03*
X37908D02*
D03*
X38105D02*
D03*
X38302D02*
D03*
D46*
X36668Y18640D02*
D03*
X38952Y18640D02*
D03*
D47*
X60787Y16655D02*
D03*
Y16458D02*
D03*
Y16262D02*
D03*
Y16065D02*
D03*
D48*
X61770Y17305D02*
D03*
X61770Y15415D02*
D03*
M02*
