G04*
G04 #@! TF.GenerationSoftware,Altium Limited,Altium Designer,20.0.13 (296)*
G04*
G04 Layer_Color=8388736*
%FSLAX24Y24*%
%MOIN*%
G70*
G01*
G75*
%ADD17C,0.3230*%
%ADD18C,0.0780*%
%ADD19C,0.0880*%
%ADD20O,0.1143X0.1537*%
%ADD21R,0.1143X0.1537*%
%ADD22C,0.1261*%
%ADD23C,0.1064*%
%ADD24C,0.1104*%
G04:AMPARAMS|DCode=25|XSize=114.3mil|YSize=153.7mil|CornerRadius=0mil|HoleSize=0mil|Usage=FLASHONLY|Rotation=225.000|XOffset=0mil|YOffset=0mil|HoleType=Round|Shape=Round|*
%AMOVALD25*
21,1,0.0394,0.1143,0.0000,0.0000,315.0*
1,1,0.1143,-0.0139,0.0139*
1,1,0.1143,0.0139,-0.0139*
%
%ADD25OVALD25*%

G04:AMPARAMS|DCode=26|XSize=114.3mil|YSize=153.7mil|CornerRadius=0mil|HoleSize=0mil|Usage=FLASHONLY|Rotation=225.000|XOffset=0mil|YOffset=0mil|HoleType=Round|Shape=Rectangle|*
%AMROTATEDRECTD26*
4,1,4,-0.0139,0.0947,0.0947,-0.0139,0.0139,-0.0947,-0.0947,0.0139,-0.0139,0.0947,0.0*
%
%ADD26ROTATEDRECTD26*%

%ADD27C,0.0749*%
%ADD28R,0.0749X0.0749*%
D17*
X40965Y17844D02*
D03*
X34665D02*
D03*
D18*
X63130Y19550D02*
D03*
D19*
X56040Y16780D02*
D03*
X47270Y22100D02*
D03*
X58100Y24010D02*
D03*
D20*
X61090Y23620D02*
D03*
X59531D02*
D03*
D21*
X62650D02*
D03*
D22*
X59511Y19273D02*
D03*
X50115Y19293D02*
D03*
D23*
X61159Y19555D02*
D03*
X60835Y18190D02*
D03*
X59540Y17600D02*
D03*
X58293Y18184D02*
D03*
X57870Y19549D02*
D03*
X60333Y20683D02*
D03*
X58679Y20679D02*
D03*
X51763Y19575D02*
D03*
X51439Y18211D02*
D03*
X50144Y17620D02*
D03*
X48896Y18204D02*
D03*
X48474Y19569D02*
D03*
X50937Y20703D02*
D03*
X49283Y20699D02*
D03*
D24*
X26472Y18645D02*
D03*
X26855Y17526D02*
D03*
X25892Y16830D02*
D03*
X24925Y17531D02*
D03*
X25313Y18653D02*
D03*
D25*
X47954Y23175D02*
D03*
X49057Y24277D02*
D03*
D26*
X50160Y25380D02*
D03*
D27*
X56120Y23480D02*
D03*
X53440Y26190D02*
D03*
D28*
X56120Y22480D02*
D03*
X53440Y25190D02*
D03*
M02*
