G04*
G04 #@! TF.GenerationSoftware,Altium Limited,Altium Designer,20.0.13 (296)*
G04*
G04 Layer_Color=2752767*
%FSLAX24Y24*%
%MOIN*%
G70*
G01*
G75*
%ADD59C,0.0020*%
%ADD60C,0.0027*%
%ADD61C,0.0013*%
D59*
X40885Y17764D02*
Y17924D01*
X41045D01*
Y17764D01*
X40885D01*
X34585D02*
Y17924D01*
X34745D01*
Y17764D01*
X34585D01*
X61090Y23540D02*
X61010Y23700D01*
X61170D01*
X61090Y23540D01*
X62650D02*
X62570Y23700D01*
X62730D01*
X62650Y23540D01*
X59531D02*
X59451Y23700D01*
X59611D01*
X59531Y23540D01*
X59511Y19193D02*
X59551Y19233D01*
X59591D01*
X59551Y19273D01*
X59591Y19313D01*
X59551D01*
X59511Y19353D01*
X59471Y19313D01*
X59431D01*
X59471Y19273D01*
X59431Y19233D01*
X59471D01*
X59511Y19193D01*
X61079Y19475D02*
X61119Y19555D01*
X61079Y19635D01*
X61159Y19595D01*
X61239Y19635D01*
X61199Y19555D01*
X61239Y19475D01*
X61159Y19515D01*
X61079Y19475D01*
X60755Y18110D02*
X60795Y18190D01*
X60755Y18270D01*
X60835Y18230D01*
X60915Y18270D01*
X60875Y18190D01*
X60915Y18110D01*
X60835Y18150D01*
X60755Y18110D01*
X59460Y17520D02*
X59500Y17600D01*
X59460Y17680D01*
X59540Y17640D01*
X59620Y17680D01*
X59580Y17600D01*
X59620Y17520D01*
X59540Y17560D01*
X59460Y17520D01*
X58213Y18104D02*
X58253Y18184D01*
X58213Y18264D01*
X58293Y18224D01*
X58373Y18264D01*
X58333Y18184D01*
X58373Y18104D01*
X58293Y18144D01*
X58213Y18104D01*
X57790Y19469D02*
X57830Y19549D01*
X57790Y19629D01*
X57870Y19589D01*
X57950Y19629D01*
X57910Y19549D01*
X57950Y19469D01*
X57870Y19509D01*
X57790Y19469D01*
X60253Y20603D02*
X60293Y20683D01*
X60253Y20763D01*
X60333Y20723D01*
X60413Y20763D01*
X60373Y20683D01*
X60413Y20603D01*
X60333Y20643D01*
X60253Y20603D01*
X58599Y20599D02*
X58639Y20679D01*
X58599Y20759D01*
X58679Y20719D01*
X58759Y20759D01*
X58719Y20679D01*
X58759Y20599D01*
X58679Y20639D01*
X58599Y20599D01*
X50115Y19213D02*
X50155Y19253D01*
X50195D01*
X50155Y19293D01*
X50195Y19333D01*
X50155D01*
X50115Y19373D01*
X50075Y19333D01*
X50035D01*
X50075Y19293D01*
X50035Y19253D01*
X50075D01*
X50115Y19213D01*
X51683Y19495D02*
X51723Y19575D01*
X51683Y19655D01*
X51763Y19615D01*
X51843Y19655D01*
X51803Y19575D01*
X51843Y19495D01*
X51763Y19535D01*
X51683Y19495D01*
X51359Y18131D02*
X51399Y18211D01*
X51359Y18291D01*
X51439Y18251D01*
X51519Y18291D01*
X51479Y18211D01*
X51519Y18131D01*
X51439Y18171D01*
X51359Y18131D01*
X50064Y17540D02*
X50104Y17620D01*
X50064Y17700D01*
X50144Y17660D01*
X50224Y17700D01*
X50184Y17620D01*
X50224Y17540D01*
X50144Y17580D01*
X50064Y17540D01*
X48816Y18124D02*
X48856Y18204D01*
X48816Y18284D01*
X48896Y18244D01*
X48976Y18284D01*
X48936Y18204D01*
X48976Y18124D01*
X48896Y18164D01*
X48816Y18124D01*
X48394Y19489D02*
X48434Y19569D01*
X48394Y19649D01*
X48474Y19609D01*
X48554Y19649D01*
X48514Y19569D01*
X48554Y19489D01*
X48474Y19529D01*
X48394Y19489D01*
X50857Y20623D02*
X50897Y20703D01*
X50857Y20783D01*
X50937Y20743D01*
X51017Y20783D01*
X50977Y20703D01*
X51017Y20623D01*
X50937Y20663D01*
X50857Y20623D01*
X49203Y20619D02*
X49243Y20699D01*
X49203Y20779D01*
X49283Y20739D01*
X49363Y20779D01*
X49323Y20699D01*
X49363Y20619D01*
X49283Y20659D01*
X49203Y20619D01*
X26432Y18605D02*
Y18565D01*
X26512D01*
Y18605D01*
X26552D01*
Y18685D01*
X26512D01*
Y18725D01*
X26432D01*
Y18685D01*
X26392D01*
Y18605D01*
X26432D01*
X26774Y17446D02*
X26814D01*
X26855Y17486D01*
X26895Y17446D01*
X26934D01*
Y17486D01*
X26895Y17526D01*
X26934Y17566D01*
Y17606D01*
X26895D01*
X26855Y17566D01*
X26814Y17606D01*
X26774D01*
Y17566D01*
X26814Y17526D01*
X26774Y17486D01*
Y17446D01*
X25852Y16790D02*
Y16750D01*
X25932D01*
Y16790D01*
X25972D01*
Y16870D01*
X25932D01*
Y16910D01*
X25852D01*
Y16870D01*
X25812D01*
Y16790D01*
X25852D01*
X24845Y17451D02*
X24885D01*
X24925Y17491D01*
X24965Y17451D01*
X25005D01*
Y17491D01*
X24965Y17531D01*
X25005Y17571D01*
Y17611D01*
X24965D01*
X24925Y17571D01*
X24885Y17611D01*
X24845D01*
Y17571D01*
X24885Y17531D01*
X24845Y17491D01*
Y17451D01*
X25273Y18613D02*
Y18573D01*
X25353D01*
Y18613D01*
X25393D01*
Y18693D01*
X25353D01*
Y18733D01*
X25273D01*
Y18693D01*
X25233D01*
Y18613D01*
X25273D01*
X47954Y23094D02*
X47874Y23254D01*
X48034D01*
X47954Y23094D01*
X50160Y25300D02*
X50080Y25460D01*
X50240D01*
X50160Y25300D01*
X49057Y24197D02*
X48977Y24357D01*
X49137D01*
X49057Y24197D01*
X56040Y23480D02*
X56120Y23560D01*
X56200Y23480D01*
X56120Y23400D01*
X56040Y23480D01*
Y22480D02*
X56120Y22560D01*
X56200Y22480D01*
X56120Y22400D01*
X56040Y22480D01*
X53360Y26190D02*
X53440Y26270D01*
X53520Y26190D01*
X53440Y26110D01*
X53360Y26190D01*
Y25190D02*
X53440Y25270D01*
X53520Y25190D01*
X53440Y25110D01*
X53360Y25190D01*
X37435Y15920D02*
Y16080D01*
X37595D01*
Y15920D01*
X37435D01*
X37475Y15960D02*
Y16040D01*
X37555D01*
Y15960D01*
X37475D01*
X59180Y16730D02*
Y16890D01*
X59340D01*
Y16730D01*
X59180D01*
X59220Y16770D02*
Y16850D01*
X59300D01*
Y16770D01*
X59220D01*
X58710Y16660D02*
Y16820D01*
X58870D01*
Y16660D01*
X58710D01*
X58750Y16700D02*
Y16780D01*
X58830D01*
Y16700D01*
X58750D01*
X43790Y15360D02*
Y15520D01*
X43950D01*
Y15360D01*
X43790D01*
X43830Y15400D02*
Y15480D01*
X43910D01*
Y15400D01*
X43830D01*
D60*
X63210Y19550D02*
G03*
X63210Y19550I-80J0D01*
G01*
X56120Y16780D02*
G03*
X56120Y16780I-80J0D01*
G01*
X47350Y22100D02*
G03*
X47350Y22100I-80J0D01*
G01*
X58180Y24010D02*
G03*
X58180Y24010I-80J0D01*
G01*
D61*
X47310Y22100D02*
G03*
X47310Y22100I-40J0D01*
G01*
X58140Y24010D02*
G03*
X58140Y24010I-40J0D01*
G01*
M02*
