G04*
G04 #@! TF.GenerationSoftware,Altium Limited,Altium Designer,20.0.13 (296)*
G04*
G04 Layer_Color=65535*
%FSLAX24Y24*%
%MOIN*%
G70*
G01*
G75*
%ADD10C,0.0080*%
%ADD11C,0.1000*%
%ADD12C,0.0100*%
%ADD13C,0.0197*%
%ADD14C,0.0010*%
%ADD15C,0.0021*%
%ADD16R,0.2510X0.2600*%
G36*
X27339Y18603D02*
X27311Y18599D01*
X27275Y18588D01*
X27232Y18570D01*
X27182Y18544D01*
X27060Y18470D01*
X26908Y18367D01*
X26727Y18234D01*
Y19052D01*
X26821Y18981D01*
X27182Y18742D01*
X27232Y18716D01*
X27275Y18698D01*
X27311Y18686D01*
X27339Y18683D01*
Y18603D01*
D02*
G37*
G36*
X39215Y15520D02*
X39219Y15520D01*
X39224Y15519D01*
X39229Y15519D01*
X39235Y15518D01*
X39248Y15515D01*
X39261Y15511D01*
X39268Y15508D01*
X39275Y15505D01*
X39281Y15500D01*
X39288Y15496D01*
X39288Y15496D01*
X39289Y15495D01*
X39291Y15494D01*
X39293Y15492D01*
X39296Y15489D01*
X39299Y15486D01*
X39302Y15482D01*
X39306Y15479D01*
X39309Y15474D01*
X39313Y15469D01*
X39317Y15463D01*
X39321Y15457D01*
X39324Y15450D01*
X39328Y15443D01*
X39331Y15436D01*
X39333Y15427D01*
X39292Y15418D01*
Y15418D01*
X39291Y15419D01*
X39290Y15421D01*
X39290Y15423D01*
X39289Y15426D01*
X39287Y15430D01*
X39284Y15437D01*
X39279Y15445D01*
X39273Y15454D01*
X39266Y15462D01*
X39259Y15469D01*
X39258Y15470D01*
X39255Y15471D01*
X39251Y15474D01*
X39245Y15477D01*
X39237Y15480D01*
X39228Y15482D01*
X39217Y15484D01*
X39206Y15485D01*
X39202D01*
X39200Y15484D01*
X39197D01*
X39193Y15484D01*
X39184Y15482D01*
X39175Y15481D01*
X39164Y15477D01*
X39154Y15473D01*
X39144Y15467D01*
X39144D01*
X39143Y15466D01*
X39140Y15464D01*
X39136Y15460D01*
X39131Y15454D01*
X39125Y15447D01*
X39119Y15439D01*
X39114Y15430D01*
X39109Y15419D01*
Y15419D01*
X39109Y15418D01*
X39108Y15416D01*
X39108Y15414D01*
X39107Y15411D01*
X39106Y15408D01*
X39105Y15400D01*
X39103Y15391D01*
X39101Y15381D01*
X39100Y15370D01*
X39100Y15358D01*
Y15357D01*
Y15356D01*
Y15354D01*
Y15351D01*
X39100Y15348D01*
Y15343D01*
X39101Y15339D01*
X39101Y15334D01*
X39102Y15323D01*
X39105Y15311D01*
X39108Y15299D01*
X39111Y15287D01*
Y15286D01*
X39112Y15285D01*
X39113Y15284D01*
X39114Y15281D01*
X39116Y15276D01*
X39120Y15269D01*
X39126Y15262D01*
X39132Y15254D01*
X39139Y15247D01*
X39148Y15241D01*
X39149D01*
X39150Y15240D01*
X39151Y15239D01*
X39153Y15239D01*
X39155Y15238D01*
X39158Y15236D01*
X39164Y15233D01*
X39173Y15231D01*
X39182Y15228D01*
X39192Y15227D01*
X39203Y15226D01*
X39206D01*
X39209Y15227D01*
X39212D01*
X39215Y15227D01*
X39223Y15229D01*
X39233Y15231D01*
X39243Y15235D01*
X39253Y15240D01*
X39258Y15243D01*
X39263Y15246D01*
X39263Y15247D01*
X39264Y15247D01*
X39265Y15249D01*
X39267Y15250D01*
X39269Y15252D01*
X39271Y15255D01*
X39274Y15258D01*
X39276Y15262D01*
X39279Y15266D01*
X39282Y15270D01*
X39285Y15275D01*
X39288Y15281D01*
X39290Y15287D01*
X39292Y15293D01*
X39295Y15300D01*
X39296Y15307D01*
X39339Y15297D01*
Y15296D01*
X39339Y15294D01*
X39338Y15292D01*
X39336Y15288D01*
X39335Y15284D01*
X39333Y15279D01*
X39331Y15273D01*
X39328Y15267D01*
X39321Y15254D01*
X39313Y15241D01*
X39308Y15235D01*
X39303Y15228D01*
X39297Y15223D01*
X39291Y15217D01*
X39290Y15217D01*
X39290Y15216D01*
X39287Y15215D01*
X39285Y15213D01*
X39281Y15211D01*
X39278Y15208D01*
X39272Y15206D01*
X39267Y15204D01*
X39261Y15201D01*
X39255Y15199D01*
X39248Y15196D01*
X39241Y15194D01*
X39233Y15192D01*
X39224Y15191D01*
X39216Y15190D01*
X39206Y15190D01*
X39201D01*
X39198Y15190D01*
X39193D01*
X39188Y15191D01*
X39183Y15192D01*
X39176Y15193D01*
X39163Y15195D01*
X39149Y15199D01*
X39135Y15204D01*
X39129Y15207D01*
X39122Y15211D01*
X39122Y15211D01*
X39121Y15212D01*
X39119Y15213D01*
X39117Y15215D01*
X39114Y15217D01*
X39111Y15220D01*
X39108Y15223D01*
X39104Y15227D01*
X39100Y15231D01*
X39096Y15235D01*
X39088Y15245D01*
X39080Y15258D01*
X39073Y15272D01*
Y15272D01*
X39072Y15274D01*
X39071Y15276D01*
X39070Y15279D01*
X39069Y15282D01*
X39068Y15287D01*
X39066Y15292D01*
X39065Y15298D01*
X39063Y15304D01*
X39061Y15311D01*
X39059Y15325D01*
X39057Y15341D01*
X39056Y15358D01*
Y15358D01*
Y15360D01*
Y15363D01*
X39057Y15366D01*
Y15371D01*
X39057Y15375D01*
X39058Y15381D01*
X39059Y15387D01*
X39061Y15401D01*
X39064Y15415D01*
X39069Y15430D01*
X39075Y15445D01*
X39076Y15445D01*
X39076Y15446D01*
X39077Y15448D01*
X39079Y15451D01*
X39081Y15454D01*
X39083Y15458D01*
X39089Y15466D01*
X39097Y15475D01*
X39106Y15484D01*
X39117Y15494D01*
X39129Y15501D01*
X39130Y15502D01*
X39131Y15502D01*
X39133Y15503D01*
X39135Y15505D01*
X39139Y15506D01*
X39143Y15507D01*
X39147Y15509D01*
X39152Y15511D01*
X39158Y15513D01*
X39164Y15515D01*
X39177Y15518D01*
X39192Y15520D01*
X39207Y15521D01*
X39211D01*
X39215Y15520D01*
D02*
G37*
G36*
X38172Y15520D02*
X38176Y15520D01*
X38181Y15519D01*
X38186Y15519D01*
X38192Y15518D01*
X38204Y15515D01*
X38218Y15511D01*
X38225Y15508D01*
X38232Y15505D01*
X38238Y15500D01*
X38245Y15496D01*
X38245Y15496D01*
X38246Y15495D01*
X38248Y15494D01*
X38250Y15492D01*
X38252Y15489D01*
X38256Y15486D01*
X38259Y15482D01*
X38263Y15479D01*
X38266Y15474D01*
X38270Y15469D01*
X38274Y15463D01*
X38278Y15457D01*
X38281Y15450D01*
X38285Y15443D01*
X38287Y15436D01*
X38290Y15427D01*
X38249Y15418D01*
Y15418D01*
X38248Y15419D01*
X38247Y15421D01*
X38246Y15423D01*
X38245Y15426D01*
X38244Y15430D01*
X38240Y15437D01*
X38236Y15445D01*
X38230Y15454D01*
X38223Y15462D01*
X38216Y15469D01*
X38215Y15470D01*
X38212Y15471D01*
X38208Y15474D01*
X38202Y15477D01*
X38194Y15480D01*
X38185Y15482D01*
X38174Y15484D01*
X38163Y15485D01*
X38159D01*
X38157Y15484D01*
X38154D01*
X38150Y15484D01*
X38141Y15482D01*
X38131Y15481D01*
X38121Y15477D01*
X38111Y15473D01*
X38101Y15467D01*
X38100D01*
X38100Y15466D01*
X38097Y15464D01*
X38093Y15460D01*
X38087Y15454D01*
X38081Y15447D01*
X38076Y15439D01*
X38071Y15430D01*
X38066Y15419D01*
Y15419D01*
X38066Y15418D01*
X38065Y15416D01*
X38065Y15414D01*
X38064Y15411D01*
X38063Y15408D01*
X38062Y15400D01*
X38060Y15391D01*
X38058Y15381D01*
X38057Y15370D01*
X38056Y15358D01*
Y15357D01*
Y15356D01*
Y15354D01*
Y15351D01*
X38057Y15348D01*
Y15343D01*
X38057Y15339D01*
X38058Y15334D01*
X38059Y15323D01*
X38062Y15311D01*
X38064Y15299D01*
X38068Y15287D01*
Y15286D01*
X38068Y15285D01*
X38069Y15284D01*
X38070Y15281D01*
X38073Y15276D01*
X38077Y15269D01*
X38082Y15262D01*
X38089Y15254D01*
X38096Y15247D01*
X38105Y15241D01*
X38105D01*
X38106Y15240D01*
X38108Y15239D01*
X38110Y15239D01*
X38112Y15238D01*
X38115Y15236D01*
X38121Y15233D01*
X38129Y15231D01*
X38139Y15228D01*
X38149Y15227D01*
X38160Y15226D01*
X38163D01*
X38166Y15227D01*
X38169D01*
X38172Y15227D01*
X38180Y15229D01*
X38190Y15231D01*
X38200Y15235D01*
X38210Y15240D01*
X38215Y15243D01*
X38220Y15246D01*
X38220Y15247D01*
X38220Y15247D01*
X38222Y15249D01*
X38224Y15250D01*
X38226Y15252D01*
X38228Y15255D01*
X38231Y15258D01*
X38233Y15262D01*
X38236Y15266D01*
X38239Y15270D01*
X38242Y15275D01*
X38245Y15281D01*
X38247Y15287D01*
X38249Y15293D01*
X38251Y15300D01*
X38253Y15307D01*
X38296Y15297D01*
Y15296D01*
X38295Y15294D01*
X38294Y15292D01*
X38293Y15288D01*
X38292Y15284D01*
X38290Y15279D01*
X38287Y15273D01*
X38285Y15267D01*
X38278Y15254D01*
X38270Y15241D01*
X38265Y15235D01*
X38260Y15228D01*
X38254Y15223D01*
X38248Y15217D01*
X38247Y15217D01*
X38246Y15216D01*
X38244Y15215D01*
X38242Y15213D01*
X38238Y15211D01*
X38234Y15208D01*
X38229Y15206D01*
X38224Y15204D01*
X38218Y15201D01*
X38212Y15199D01*
X38205Y15196D01*
X38197Y15194D01*
X38190Y15192D01*
X38181Y15191D01*
X38172Y15190D01*
X38163Y15190D01*
X38158D01*
X38154Y15190D01*
X38150D01*
X38145Y15191D01*
X38140Y15192D01*
X38133Y15193D01*
X38120Y15195D01*
X38106Y15199D01*
X38092Y15204D01*
X38086Y15207D01*
X38079Y15211D01*
X38079Y15211D01*
X38078Y15212D01*
X38076Y15213D01*
X38074Y15215D01*
X38071Y15217D01*
X38068Y15220D01*
X38064Y15223D01*
X38061Y15227D01*
X38057Y15231D01*
X38053Y15235D01*
X38044Y15245D01*
X38037Y15258D01*
X38030Y15272D01*
Y15272D01*
X38029Y15274D01*
X38028Y15276D01*
X38027Y15279D01*
X38026Y15282D01*
X38025Y15287D01*
X38023Y15292D01*
X38021Y15298D01*
X38020Y15304D01*
X38018Y15311D01*
X38016Y15325D01*
X38014Y15341D01*
X38013Y15358D01*
Y15358D01*
Y15360D01*
Y15363D01*
X38014Y15366D01*
Y15371D01*
X38014Y15375D01*
X38014Y15381D01*
X38015Y15387D01*
X38018Y15401D01*
X38021Y15415D01*
X38026Y15430D01*
X38032Y15445D01*
X38032Y15445D01*
X38033Y15446D01*
X38034Y15448D01*
X38036Y15451D01*
X38038Y15454D01*
X38040Y15458D01*
X38046Y15466D01*
X38054Y15475D01*
X38063Y15484D01*
X38074Y15494D01*
X38086Y15501D01*
X38087Y15502D01*
X38088Y15502D01*
X38090Y15503D01*
X38092Y15505D01*
X38096Y15506D01*
X38099Y15507D01*
X38104Y15509D01*
X38109Y15511D01*
X38115Y15513D01*
X38121Y15515D01*
X38134Y15518D01*
X38148Y15520D01*
X38164Y15521D01*
X38168D01*
X38172Y15520D01*
D02*
G37*
G36*
X37625D02*
X37630Y15520D01*
X37635Y15519D01*
X37640Y15519D01*
X37646Y15518D01*
X37658Y15515D01*
X37672Y15511D01*
X37679Y15508D01*
X37685Y15505D01*
X37692Y15500D01*
X37698Y15496D01*
X37699Y15496D01*
X37700Y15495D01*
X37702Y15494D01*
X37704Y15492D01*
X37706Y15489D01*
X37710Y15486D01*
X37713Y15482D01*
X37716Y15479D01*
X37720Y15474D01*
X37724Y15469D01*
X37728Y15463D01*
X37732Y15457D01*
X37735Y15450D01*
X37739Y15443D01*
X37741Y15436D01*
X37744Y15427D01*
X37703Y15418D01*
Y15418D01*
X37702Y15419D01*
X37701Y15421D01*
X37700Y15423D01*
X37699Y15426D01*
X37698Y15430D01*
X37694Y15437D01*
X37690Y15445D01*
X37684Y15454D01*
X37677Y15462D01*
X37670Y15469D01*
X37669Y15470D01*
X37666Y15471D01*
X37661Y15474D01*
X37655Y15477D01*
X37648Y15480D01*
X37639Y15482D01*
X37628Y15484D01*
X37617Y15485D01*
X37613D01*
X37611Y15484D01*
X37607D01*
X37604Y15484D01*
X37595Y15482D01*
X37585Y15481D01*
X37575Y15477D01*
X37564Y15473D01*
X37555Y15467D01*
X37554D01*
X37554Y15466D01*
X37551Y15464D01*
X37546Y15460D01*
X37541Y15454D01*
X37535Y15447D01*
X37530Y15439D01*
X37525Y15430D01*
X37520Y15419D01*
Y15419D01*
X37520Y15418D01*
X37519Y15416D01*
X37519Y15414D01*
X37518Y15411D01*
X37517Y15408D01*
X37515Y15400D01*
X37514Y15391D01*
X37512Y15381D01*
X37511Y15370D01*
X37510Y15358D01*
Y15357D01*
Y15356D01*
Y15354D01*
Y15351D01*
X37511Y15348D01*
Y15343D01*
X37511Y15339D01*
X37512Y15334D01*
X37513Y15323D01*
X37515Y15311D01*
X37518Y15299D01*
X37522Y15287D01*
Y15286D01*
X37522Y15285D01*
X37523Y15284D01*
X37524Y15281D01*
X37527Y15276D01*
X37531Y15269D01*
X37536Y15262D01*
X37543Y15254D01*
X37550Y15247D01*
X37559Y15241D01*
X37559D01*
X37560Y15240D01*
X37562Y15239D01*
X37564Y15239D01*
X37566Y15238D01*
X37569Y15236D01*
X37575Y15233D01*
X37583Y15231D01*
X37593Y15228D01*
X37603Y15227D01*
X37613Y15226D01*
X37617D01*
X37619Y15227D01*
X37623D01*
X37626Y15227D01*
X37634Y15229D01*
X37644Y15231D01*
X37654Y15235D01*
X37664Y15240D01*
X37669Y15243D01*
X37673Y15246D01*
X37674Y15247D01*
X37674Y15247D01*
X37676Y15249D01*
X37678Y15250D01*
X37679Y15252D01*
X37682Y15255D01*
X37685Y15258D01*
X37687Y15262D01*
X37690Y15266D01*
X37693Y15270D01*
X37696Y15275D01*
X37698Y15281D01*
X37701Y15287D01*
X37703Y15293D01*
X37705Y15300D01*
X37707Y15307D01*
X37750Y15297D01*
Y15296D01*
X37749Y15294D01*
X37748Y15292D01*
X37747Y15288D01*
X37746Y15284D01*
X37744Y15279D01*
X37741Y15273D01*
X37739Y15267D01*
X37732Y15254D01*
X37724Y15241D01*
X37719Y15235D01*
X37714Y15228D01*
X37708Y15223D01*
X37702Y15217D01*
X37701Y15217D01*
X37700Y15216D01*
X37698Y15215D01*
X37696Y15213D01*
X37692Y15211D01*
X37688Y15208D01*
X37683Y15206D01*
X37678Y15204D01*
X37672Y15201D01*
X37666Y15199D01*
X37659Y15196D01*
X37651Y15194D01*
X37643Y15192D01*
X37635Y15191D01*
X37626Y15190D01*
X37617Y15190D01*
X37612D01*
X37608Y15190D01*
X37604D01*
X37599Y15191D01*
X37594Y15192D01*
X37587Y15193D01*
X37574Y15195D01*
X37560Y15199D01*
X37546Y15204D01*
X37540Y15207D01*
X37533Y15211D01*
X37533Y15211D01*
X37532Y15212D01*
X37530Y15213D01*
X37528Y15215D01*
X37525Y15217D01*
X37522Y15220D01*
X37518Y15223D01*
X37515Y15227D01*
X37511Y15231D01*
X37507Y15235D01*
X37498Y15245D01*
X37491Y15258D01*
X37484Y15272D01*
Y15272D01*
X37483Y15274D01*
X37482Y15276D01*
X37481Y15279D01*
X37480Y15282D01*
X37479Y15287D01*
X37477Y15292D01*
X37475Y15298D01*
X37474Y15304D01*
X37472Y15311D01*
X37470Y15325D01*
X37468Y15341D01*
X37467Y15358D01*
Y15358D01*
Y15360D01*
Y15363D01*
X37467Y15366D01*
Y15371D01*
X37468Y15375D01*
X37468Y15381D01*
X37469Y15387D01*
X37472Y15401D01*
X37475Y15415D01*
X37479Y15430D01*
X37486Y15445D01*
X37486Y15445D01*
X37487Y15446D01*
X37488Y15448D01*
X37490Y15451D01*
X37491Y15454D01*
X37494Y15458D01*
X37500Y15466D01*
X37508Y15475D01*
X37517Y15484D01*
X37527Y15494D01*
X37540Y15501D01*
X37540Y15502D01*
X37542Y15502D01*
X37544Y15503D01*
X37546Y15505D01*
X37550Y15506D01*
X37553Y15507D01*
X37558Y15509D01*
X37563Y15511D01*
X37569Y15513D01*
X37575Y15515D01*
X37588Y15518D01*
X37602Y15520D01*
X37618Y15521D01*
X37622D01*
X37625Y15520D01*
D02*
G37*
G36*
X36831D02*
X36835Y15520D01*
X36840Y15519D01*
X36845Y15519D01*
X36851Y15518D01*
X36864Y15515D01*
X36877Y15511D01*
X36884Y15508D01*
X36891Y15505D01*
X36897Y15500D01*
X36904Y15496D01*
X36904Y15496D01*
X36905Y15495D01*
X36907Y15494D01*
X36909Y15492D01*
X36912Y15489D01*
X36915Y15486D01*
X36918Y15482D01*
X36922Y15479D01*
X36925Y15474D01*
X36929Y15469D01*
X36933Y15463D01*
X36937Y15457D01*
X36940Y15450D01*
X36944Y15443D01*
X36947Y15436D01*
X36950Y15427D01*
X36908Y15418D01*
Y15418D01*
X36907Y15419D01*
X36907Y15421D01*
X36906Y15423D01*
X36905Y15426D01*
X36903Y15430D01*
X36900Y15437D01*
X36895Y15445D01*
X36889Y15454D01*
X36883Y15462D01*
X36875Y15469D01*
X36874Y15470D01*
X36871Y15471D01*
X36867Y15474D01*
X36861Y15477D01*
X36853Y15480D01*
X36844Y15482D01*
X36834Y15484D01*
X36822Y15485D01*
X36818D01*
X36816Y15484D01*
X36813D01*
X36809Y15484D01*
X36800Y15482D01*
X36791Y15481D01*
X36780Y15477D01*
X36770Y15473D01*
X36760Y15467D01*
X36760D01*
X36759Y15466D01*
X36756Y15464D01*
X36752Y15460D01*
X36747Y15454D01*
X36741Y15447D01*
X36735Y15439D01*
X36730Y15430D01*
X36725Y15419D01*
Y15419D01*
X36725Y15418D01*
X36725Y15416D01*
X36724Y15414D01*
X36723Y15411D01*
X36722Y15408D01*
X36721Y15400D01*
X36719Y15391D01*
X36717Y15381D01*
X36716Y15370D01*
X36716Y15358D01*
Y15357D01*
Y15356D01*
Y15354D01*
Y15351D01*
X36716Y15348D01*
Y15343D01*
X36717Y15339D01*
X36717Y15334D01*
X36719Y15323D01*
X36721Y15311D01*
X36724Y15299D01*
X36727Y15287D01*
Y15286D01*
X36728Y15285D01*
X36729Y15284D01*
X36730Y15281D01*
X36732Y15276D01*
X36737Y15269D01*
X36742Y15262D01*
X36748Y15254D01*
X36755Y15247D01*
X36764Y15241D01*
X36765D01*
X36766Y15240D01*
X36767Y15239D01*
X36769Y15239D01*
X36771Y15238D01*
X36774Y15236D01*
X36780Y15233D01*
X36789Y15231D01*
X36798Y15228D01*
X36808Y15227D01*
X36819Y15226D01*
X36822D01*
X36825Y15227D01*
X36828D01*
X36831Y15227D01*
X36840Y15229D01*
X36849Y15231D01*
X36859Y15235D01*
X36869Y15240D01*
X36874Y15243D01*
X36879Y15246D01*
X36879Y15247D01*
X36880Y15247D01*
X36881Y15249D01*
X36883Y15250D01*
X36885Y15252D01*
X36887Y15255D01*
X36890Y15258D01*
X36892Y15262D01*
X36895Y15266D01*
X36898Y15270D01*
X36901Y15275D01*
X36904Y15281D01*
X36906Y15287D01*
X36908Y15293D01*
X36911Y15300D01*
X36913Y15307D01*
X36955Y15297D01*
Y15296D01*
X36955Y15294D01*
X36954Y15292D01*
X36952Y15288D01*
X36951Y15284D01*
X36949Y15279D01*
X36947Y15273D01*
X36944Y15267D01*
X36938Y15254D01*
X36929Y15241D01*
X36924Y15235D01*
X36919Y15228D01*
X36913Y15223D01*
X36907Y15217D01*
X36907Y15217D01*
X36906Y15216D01*
X36903Y15215D01*
X36901Y15213D01*
X36897Y15211D01*
X36894Y15208D01*
X36889Y15206D01*
X36883Y15204D01*
X36877Y15201D01*
X36871Y15199D01*
X36864Y15196D01*
X36857Y15194D01*
X36849Y15192D01*
X36841Y15191D01*
X36832Y15190D01*
X36822Y15190D01*
X36817D01*
X36814Y15190D01*
X36810D01*
X36804Y15191D01*
X36799Y15192D01*
X36792Y15193D01*
X36779Y15195D01*
X36765Y15199D01*
X36751Y15204D01*
X36745Y15207D01*
X36738Y15211D01*
X36738Y15211D01*
X36737Y15212D01*
X36735Y15213D01*
X36733Y15215D01*
X36731Y15217D01*
X36727Y15220D01*
X36724Y15223D01*
X36720Y15227D01*
X36716Y15231D01*
X36712Y15235D01*
X36704Y15245D01*
X36696Y15258D01*
X36689Y15272D01*
Y15272D01*
X36688Y15274D01*
X36688Y15276D01*
X36686Y15279D01*
X36685Y15282D01*
X36684Y15287D01*
X36682Y15292D01*
X36681Y15298D01*
X36679Y15304D01*
X36677Y15311D01*
X36675Y15325D01*
X36673Y15341D01*
X36672Y15358D01*
Y15358D01*
Y15360D01*
Y15363D01*
X36673Y15366D01*
Y15371D01*
X36673Y15375D01*
X36674Y15381D01*
X36675Y15387D01*
X36677Y15401D01*
X36680Y15415D01*
X36685Y15430D01*
X36691Y15445D01*
X36692Y15445D01*
X36692Y15446D01*
X36693Y15448D01*
X36695Y15451D01*
X36697Y15454D01*
X36699Y15458D01*
X36705Y15466D01*
X36713Y15475D01*
X36722Y15484D01*
X36733Y15494D01*
X36745Y15501D01*
X36746Y15502D01*
X36747Y15502D01*
X36749Y15503D01*
X36751Y15505D01*
X36755Y15506D01*
X36759Y15507D01*
X36763Y15509D01*
X36768Y15511D01*
X36774Y15513D01*
X36780Y15515D01*
X36793Y15518D01*
X36808Y15520D01*
X36823Y15521D01*
X36828D01*
X36831Y15520D01*
D02*
G37*
G36*
X38751Y15297D02*
Y15297D01*
Y15295D01*
Y15293D01*
Y15291D01*
X38750Y15287D01*
Y15283D01*
X38749Y15275D01*
X38749Y15264D01*
X38747Y15254D01*
X38744Y15244D01*
X38741Y15235D01*
Y15234D01*
X38740Y15234D01*
X38739Y15231D01*
X38737Y15227D01*
X38733Y15222D01*
X38729Y15217D01*
X38724Y15212D01*
X38717Y15206D01*
X38710Y15202D01*
X38709Y15201D01*
X38706Y15200D01*
X38702Y15198D01*
X38696Y15196D01*
X38688Y15194D01*
X38680Y15192D01*
X38671Y15190D01*
X38661Y15190D01*
X38657D01*
X38654Y15190D01*
X38650Y15191D01*
X38646Y15191D01*
X38637Y15193D01*
X38627Y15196D01*
X38616Y15200D01*
X38610Y15203D01*
X38605Y15206D01*
X38601Y15210D01*
X38596Y15214D01*
X38596Y15214D01*
X38595Y15215D01*
X38594Y15217D01*
X38593Y15219D01*
X38591Y15221D01*
X38589Y15224D01*
X38587Y15228D01*
X38585Y15232D01*
X38583Y15237D01*
X38581Y15242D01*
X38579Y15248D01*
X38578Y15254D01*
X38577Y15261D01*
X38575Y15269D01*
X38575Y15277D01*
Y15286D01*
X38613Y15291D01*
Y15291D01*
Y15290D01*
Y15288D01*
X38614Y15285D01*
X38614Y15282D01*
Y15279D01*
X38616Y15271D01*
X38617Y15263D01*
X38620Y15255D01*
X38622Y15247D01*
X38624Y15244D01*
X38627Y15241D01*
X38627Y15241D01*
X38629Y15239D01*
X38632Y15237D01*
X38635Y15235D01*
X38640Y15232D01*
X38646Y15230D01*
X38653Y15228D01*
X38660Y15228D01*
X38663D01*
X38666Y15228D01*
X38670Y15229D01*
X38674Y15230D01*
X38679Y15231D01*
X38683Y15232D01*
X38688Y15235D01*
X38688Y15235D01*
X38690Y15236D01*
X38692Y15238D01*
X38695Y15240D01*
X38697Y15243D01*
X38700Y15246D01*
X38702Y15250D01*
X38704Y15255D01*
Y15255D01*
X38705Y15257D01*
X38705Y15260D01*
X38706Y15264D01*
X38707Y15270D01*
X38707Y15277D01*
X38708Y15285D01*
Y15295D01*
Y15515D01*
X38751D01*
Y15297D01*
D02*
G37*
G36*
X37956D02*
Y15297D01*
Y15295D01*
Y15293D01*
Y15291D01*
X37956Y15287D01*
Y15283D01*
X37955Y15275D01*
X37954Y15264D01*
X37952Y15254D01*
X37949Y15244D01*
X37946Y15235D01*
Y15234D01*
X37946Y15234D01*
X37944Y15231D01*
X37942Y15227D01*
X37939Y15222D01*
X37934Y15217D01*
X37929Y15212D01*
X37922Y15206D01*
X37915Y15202D01*
X37914Y15201D01*
X37911Y15200D01*
X37907Y15198D01*
X37901Y15196D01*
X37894Y15194D01*
X37886Y15192D01*
X37876Y15190D01*
X37866Y15190D01*
X37862D01*
X37859Y15190D01*
X37856Y15191D01*
X37852Y15191D01*
X37842Y15193D01*
X37832Y15196D01*
X37821Y15200D01*
X37816Y15203D01*
X37811Y15206D01*
X37806Y15210D01*
X37801Y15214D01*
X37801Y15214D01*
X37801Y15215D01*
X37800Y15217D01*
X37798Y15219D01*
X37796Y15221D01*
X37795Y15224D01*
X37793Y15228D01*
X37790Y15232D01*
X37789Y15237D01*
X37787Y15242D01*
X37785Y15248D01*
X37783Y15254D01*
X37782Y15261D01*
X37781Y15269D01*
X37780Y15277D01*
Y15286D01*
X37819Y15291D01*
Y15291D01*
Y15290D01*
Y15288D01*
X37819Y15285D01*
X37819Y15282D01*
Y15279D01*
X37821Y15271D01*
X37822Y15263D01*
X37825Y15255D01*
X37828Y15247D01*
X37830Y15244D01*
X37832Y15241D01*
X37832Y15241D01*
X37834Y15239D01*
X37837Y15237D01*
X37841Y15235D01*
X37846Y15232D01*
X37851Y15230D01*
X37858Y15228D01*
X37866Y15228D01*
X37868D01*
X37871Y15228D01*
X37875Y15229D01*
X37880Y15230D01*
X37884Y15231D01*
X37889Y15232D01*
X37893Y15235D01*
X37894Y15235D01*
X37895Y15236D01*
X37897Y15238D01*
X37900Y15240D01*
X37902Y15243D01*
X37905Y15246D01*
X37907Y15250D01*
X37909Y15255D01*
Y15255D01*
X37910Y15257D01*
X37910Y15260D01*
X37911Y15264D01*
X37912Y15270D01*
X37913Y15277D01*
X37914Y15285D01*
Y15295D01*
Y15515D01*
X37956D01*
Y15297D01*
D02*
G37*
G36*
X37162D02*
Y15297D01*
Y15295D01*
Y15293D01*
Y15291D01*
X37161Y15287D01*
Y15283D01*
X37160Y15275D01*
X37159Y15264D01*
X37157Y15254D01*
X37155Y15244D01*
X37151Y15235D01*
Y15234D01*
X37151Y15234D01*
X37150Y15231D01*
X37147Y15227D01*
X37144Y15222D01*
X37139Y15217D01*
X37134Y15212D01*
X37128Y15206D01*
X37120Y15202D01*
X37120Y15201D01*
X37117Y15200D01*
X37113Y15198D01*
X37107Y15196D01*
X37099Y15194D01*
X37091Y15192D01*
X37082Y15190D01*
X37071Y15190D01*
X37067D01*
X37065Y15190D01*
X37061Y15191D01*
X37057Y15191D01*
X37047Y15193D01*
X37037Y15196D01*
X37027Y15200D01*
X37021Y15203D01*
X37016Y15206D01*
X37011Y15210D01*
X37007Y15214D01*
X37006Y15214D01*
X37006Y15215D01*
X37005Y15217D01*
X37004Y15219D01*
X37002Y15221D01*
X37000Y15224D01*
X36998Y15228D01*
X36996Y15232D01*
X36994Y15237D01*
X36992Y15242D01*
X36990Y15248D01*
X36988Y15254D01*
X36987Y15261D01*
X36986Y15269D01*
X36986Y15277D01*
Y15286D01*
X37024Y15291D01*
Y15291D01*
Y15290D01*
Y15288D01*
X37024Y15285D01*
X37025Y15282D01*
Y15279D01*
X37026Y15271D01*
X37028Y15263D01*
X37030Y15255D01*
X37033Y15247D01*
X37035Y15244D01*
X37037Y15241D01*
X37038Y15241D01*
X37040Y15239D01*
X37042Y15237D01*
X37046Y15235D01*
X37051Y15232D01*
X37057Y15230D01*
X37064Y15228D01*
X37071Y15228D01*
X37074D01*
X37077Y15228D01*
X37081Y15229D01*
X37085Y15230D01*
X37090Y15231D01*
X37094Y15232D01*
X37099Y15235D01*
X37099Y15235D01*
X37101Y15236D01*
X37102Y15238D01*
X37105Y15240D01*
X37108Y15243D01*
X37110Y15246D01*
X37113Y15250D01*
X37114Y15255D01*
Y15255D01*
X37115Y15257D01*
X37116Y15260D01*
X37117Y15264D01*
X37118Y15270D01*
X37118Y15277D01*
X37119Y15285D01*
Y15295D01*
Y15515D01*
X37162D01*
Y15297D01*
D02*
G37*
G36*
X36367D02*
Y15297D01*
Y15295D01*
Y15293D01*
Y15291D01*
X36366Y15287D01*
Y15283D01*
X36366Y15275D01*
X36365Y15264D01*
X36363Y15254D01*
X36360Y15244D01*
X36357Y15235D01*
Y15234D01*
X36356Y15234D01*
X36355Y15231D01*
X36353Y15227D01*
X36349Y15222D01*
X36345Y15217D01*
X36340Y15212D01*
X36333Y15206D01*
X36326Y15202D01*
X36325Y15201D01*
X36322Y15200D01*
X36318Y15198D01*
X36312Y15196D01*
X36305Y15194D01*
X36296Y15192D01*
X36287Y15190D01*
X36277Y15190D01*
X36273D01*
X36270Y15190D01*
X36266Y15191D01*
X36263Y15191D01*
X36253Y15193D01*
X36243Y15196D01*
X36232Y15200D01*
X36226Y15203D01*
X36221Y15206D01*
X36217Y15210D01*
X36212Y15214D01*
X36212Y15214D01*
X36211Y15215D01*
X36210Y15217D01*
X36209Y15219D01*
X36207Y15221D01*
X36205Y15224D01*
X36203Y15228D01*
X36201Y15232D01*
X36199Y15237D01*
X36197Y15242D01*
X36196Y15248D01*
X36194Y15254D01*
X36193Y15261D01*
X36191Y15269D01*
X36191Y15277D01*
Y15286D01*
X36229Y15291D01*
Y15291D01*
Y15290D01*
Y15288D01*
X36230Y15285D01*
X36230Y15282D01*
Y15279D01*
X36232Y15271D01*
X36233Y15263D01*
X36236Y15255D01*
X36239Y15247D01*
X36240Y15244D01*
X36243Y15241D01*
X36243Y15241D01*
X36245Y15239D01*
X36248Y15237D01*
X36251Y15235D01*
X36257Y15232D01*
X36262Y15230D01*
X36269Y15228D01*
X36276Y15228D01*
X36279D01*
X36282Y15228D01*
X36286Y15229D01*
X36290Y15230D01*
X36295Y15231D01*
X36299Y15232D01*
X36304Y15235D01*
X36305Y15235D01*
X36306Y15236D01*
X36308Y15238D01*
X36311Y15240D01*
X36313Y15243D01*
X36316Y15246D01*
X36318Y15250D01*
X36320Y15255D01*
Y15255D01*
X36321Y15257D01*
X36321Y15260D01*
X36322Y15264D01*
X36323Y15270D01*
X36324Y15277D01*
X36324Y15285D01*
Y15295D01*
Y15515D01*
X36367D01*
Y15297D01*
D02*
G37*
G36*
X38861Y15233D02*
X39018D01*
Y15196D01*
X38818D01*
Y15515D01*
X38861D01*
Y15233D01*
D02*
G37*
G36*
X38389D02*
X38546D01*
Y15196D01*
X38346D01*
Y15515D01*
X38389D01*
Y15233D01*
D02*
G37*
G36*
X37272D02*
X37429D01*
Y15196D01*
X37229D01*
Y15515D01*
X37272D01*
Y15233D01*
D02*
G37*
G36*
X36477D02*
X36634D01*
Y15196D01*
X36434D01*
Y15515D01*
X36477D01*
Y15233D01*
D02*
G37*
G36*
X59514Y20094D02*
X59518Y20093D01*
X59521Y20093D01*
X59526Y20093D01*
X59530Y20091D01*
X59541Y20089D01*
X59551Y20085D01*
X59556Y20082D01*
X59562Y20079D01*
X59566Y20075D01*
X59571Y20071D01*
X59572Y20071D01*
X59572Y20070D01*
X59573Y20069D01*
X59575Y20067D01*
X59577Y20065D01*
X59579Y20062D01*
X59584Y20055D01*
X59588Y20047D01*
X59592Y20037D01*
X59595Y20027D01*
X59595Y20021D01*
X59596Y20015D01*
Y20014D01*
Y20014D01*
Y20011D01*
X59595Y20007D01*
X59594Y20003D01*
X59593Y19996D01*
X59591Y19990D01*
X59588Y19984D01*
X59584Y19978D01*
X59584Y19977D01*
X59582Y19975D01*
X59580Y19973D01*
X59576Y19969D01*
X59571Y19965D01*
X59566Y19961D01*
X59559Y19957D01*
X59551Y19954D01*
X59552D01*
X59552Y19954D01*
X59554Y19953D01*
X59556Y19952D01*
X59561Y19950D01*
X59567Y19947D01*
X59573Y19943D01*
X59580Y19938D01*
X59587Y19932D01*
X59593Y19925D01*
Y19924D01*
X59594Y19924D01*
X59595Y19921D01*
X59598Y19917D01*
X59601Y19911D01*
X59603Y19904D01*
X59606Y19896D01*
X59608Y19887D01*
X59608Y19877D01*
Y19876D01*
Y19875D01*
Y19873D01*
X59608Y19870D01*
X59607Y19867D01*
X59607Y19863D01*
X59606Y19859D01*
X59604Y19854D01*
X59601Y19844D01*
X59599Y19838D01*
X59596Y19833D01*
X59593Y19827D01*
X59590Y19822D01*
X59585Y19817D01*
X59580Y19812D01*
X59580Y19811D01*
X59579Y19810D01*
X59578Y19809D01*
X59576Y19808D01*
X59573Y19805D01*
X59570Y19803D01*
X59566Y19801D01*
X59561Y19798D01*
X59556Y19796D01*
X59551Y19794D01*
X59545Y19791D01*
X59538Y19789D01*
X59532Y19788D01*
X59524Y19787D01*
X59517Y19786D01*
X59508Y19785D01*
X59504D01*
X59501Y19786D01*
X59497Y19786D01*
X59493Y19787D01*
X59488Y19788D01*
X59483Y19789D01*
X59471Y19792D01*
X59465Y19794D01*
X59459Y19796D01*
X59453Y19799D01*
X59447Y19803D01*
X59441Y19807D01*
X59436Y19812D01*
X59435Y19812D01*
X59434Y19813D01*
X59433Y19814D01*
X59431Y19816D01*
X59430Y19819D01*
X59427Y19822D01*
X59425Y19826D01*
X59422Y19830D01*
X59420Y19834D01*
X59417Y19840D01*
X59413Y19850D01*
X59411Y19857D01*
X59410Y19864D01*
X59409Y19871D01*
X59409Y19878D01*
Y19878D01*
Y19879D01*
Y19881D01*
X59409Y19882D01*
Y19885D01*
X59410Y19888D01*
X59410Y19895D01*
X59412Y19903D01*
X59415Y19911D01*
X59419Y19919D01*
X59424Y19927D01*
Y19927D01*
X59424Y19928D01*
X59426Y19930D01*
X59430Y19933D01*
X59434Y19938D01*
X59441Y19942D01*
X59448Y19947D01*
X59456Y19951D01*
X59466Y19954D01*
X59466D01*
X59466Y19954D01*
X59464Y19955D01*
X59462Y19956D01*
X59459Y19957D01*
X59453Y19960D01*
X59448Y19964D01*
X59442Y19968D01*
X59437Y19973D01*
X59432Y19978D01*
X59431Y19979D01*
X59430Y19981D01*
X59428Y19984D01*
X59427Y19989D01*
X59424Y19994D01*
X59423Y20001D01*
X59421Y20008D01*
X59421Y20016D01*
Y20017D01*
Y20017D01*
Y20019D01*
X59421Y20022D01*
X59422Y20024D01*
X59422Y20028D01*
X59424Y20035D01*
X59427Y20044D01*
X59431Y20053D01*
X59434Y20058D01*
X59437Y20063D01*
X59441Y20067D01*
X59445Y20072D01*
X59445Y20072D01*
X59446Y20072D01*
X59447Y20074D01*
X59449Y20075D01*
X59451Y20077D01*
X59454Y20079D01*
X59458Y20081D01*
X59461Y20083D01*
X59466Y20085D01*
X59470Y20087D01*
X59476Y20089D01*
X59481Y20091D01*
X59493Y20093D01*
X59500Y20094D01*
X59507Y20094D01*
X59511D01*
X59514Y20094D01*
D02*
G37*
G36*
X58188Y21205D02*
X58151D01*
Y21441D01*
X58151Y21441D01*
X58148Y21439D01*
X58146Y21437D01*
X58141Y21433D01*
X58137Y21430D01*
X58130Y21425D01*
X58123Y21420D01*
X58116Y21416D01*
X58115D01*
X58115Y21415D01*
X58112Y21413D01*
X58108Y21411D01*
X58102Y21409D01*
X58096Y21406D01*
X58090Y21402D01*
X58083Y21399D01*
X58077Y21397D01*
Y21433D01*
X58077D01*
X58078Y21433D01*
X58080Y21434D01*
X58082Y21435D01*
X58085Y21437D01*
X58088Y21438D01*
X58095Y21443D01*
X58104Y21447D01*
X58113Y21454D01*
X58122Y21461D01*
X58131Y21468D01*
X58131Y21468D01*
X58132Y21469D01*
X58133Y21470D01*
X58135Y21472D01*
X58139Y21476D01*
X58144Y21481D01*
X58149Y21487D01*
X58155Y21494D01*
X58160Y21501D01*
X58164Y21509D01*
X58188D01*
Y21205D01*
D02*
G37*
G36*
X59612Y16761D02*
X59653D01*
Y16727D01*
X59612D01*
Y16654D01*
X59575D01*
Y16727D01*
X59443D01*
Y16761D01*
X59582Y16957D01*
X59612D01*
Y16761D01*
D02*
G37*
G36*
X57024Y19944D02*
X57027Y19944D01*
X57031Y19943D01*
X57036Y19942D01*
X57041Y19942D01*
X57052Y19938D01*
X57064Y19934D01*
X57069Y19931D01*
X57075Y19928D01*
X57080Y19924D01*
X57085Y19920D01*
X57086Y19920D01*
X57086Y19919D01*
X57087Y19917D01*
X57089Y19916D01*
X57091Y19914D01*
X57093Y19910D01*
X57096Y19907D01*
X57098Y19903D01*
X57103Y19895D01*
X57107Y19885D01*
X57109Y19879D01*
X57110Y19873D01*
X57111Y19867D01*
X57111Y19861D01*
Y19860D01*
Y19858D01*
X57111Y19854D01*
X57110Y19849D01*
X57109Y19844D01*
X57107Y19838D01*
X57106Y19831D01*
X57103Y19825D01*
X57103Y19824D01*
X57102Y19822D01*
X57100Y19818D01*
X57097Y19813D01*
X57094Y19808D01*
X57090Y19802D01*
X57084Y19795D01*
X57078Y19788D01*
X57077Y19787D01*
X57075Y19784D01*
X57073Y19782D01*
X57071Y19780D01*
X57068Y19777D01*
X57065Y19774D01*
X57061Y19770D01*
X57057Y19766D01*
X57052Y19762D01*
X57047Y19757D01*
X57041Y19752D01*
X57035Y19747D01*
X57028Y19741D01*
X57021Y19735D01*
X57021Y19734D01*
X57020Y19733D01*
X57018Y19732D01*
X57016Y19730D01*
X57014Y19728D01*
X57010Y19725D01*
X57003Y19720D01*
X56996Y19713D01*
X56989Y19706D01*
X56983Y19701D01*
X56980Y19699D01*
X56978Y19696D01*
X56978Y19696D01*
X56976Y19695D01*
X56975Y19693D01*
X56972Y19690D01*
X56970Y19687D01*
X56968Y19684D01*
X56962Y19677D01*
X57111D01*
Y19641D01*
X56911D01*
Y19641D01*
Y19643D01*
Y19646D01*
X56911Y19649D01*
X56912Y19653D01*
X56913Y19657D01*
X56913Y19662D01*
X56915Y19667D01*
Y19667D01*
X56916Y19668D01*
X56916Y19670D01*
X56918Y19674D01*
X56921Y19679D01*
X56924Y19685D01*
X56929Y19692D01*
X56934Y19699D01*
X56940Y19707D01*
Y19707D01*
X56941Y19708D01*
X56943Y19710D01*
X56947Y19714D01*
X56952Y19720D01*
X56959Y19726D01*
X56967Y19734D01*
X56977Y19743D01*
X56988Y19752D01*
X56989Y19753D01*
X56990Y19754D01*
X56993Y19756D01*
X56996Y19759D01*
X57000Y19762D01*
X57005Y19766D01*
X57010Y19771D01*
X57015Y19775D01*
X57026Y19786D01*
X57037Y19796D01*
X57042Y19802D01*
X57047Y19807D01*
X57052Y19812D01*
X57055Y19817D01*
Y19817D01*
X57056Y19817D01*
X57057Y19819D01*
X57058Y19820D01*
X57061Y19825D01*
X57064Y19831D01*
X57067Y19838D01*
X57070Y19845D01*
X57072Y19854D01*
X57073Y19862D01*
Y19862D01*
Y19862D01*
X57073Y19865D01*
X57072Y19869D01*
X57071Y19874D01*
X57069Y19880D01*
X57066Y19886D01*
X57062Y19893D01*
X57057Y19899D01*
X57056Y19900D01*
X57054Y19901D01*
X57051Y19903D01*
X57046Y19907D01*
X57040Y19909D01*
X57033Y19912D01*
X57024Y19914D01*
X57015Y19914D01*
X57013D01*
X57011Y19914D01*
X57006Y19913D01*
X57000Y19912D01*
X56993Y19910D01*
X56986Y19907D01*
X56979Y19903D01*
X56972Y19898D01*
X56971Y19897D01*
X56969Y19895D01*
X56967Y19891D01*
X56964Y19886D01*
X56961Y19880D01*
X56958Y19872D01*
X56957Y19863D01*
X56956Y19853D01*
X56918Y19857D01*
Y19858D01*
X56918Y19859D01*
Y19861D01*
X56919Y19864D01*
X56920Y19868D01*
X56920Y19872D01*
X56922Y19876D01*
X56923Y19881D01*
X56927Y19892D01*
X56932Y19902D01*
X56935Y19907D01*
X56939Y19913D01*
X56943Y19917D01*
X56947Y19922D01*
X56948Y19922D01*
X56948Y19923D01*
X56950Y19924D01*
X56952Y19925D01*
X56955Y19927D01*
X56958Y19929D01*
X56961Y19931D01*
X56965Y19933D01*
X56970Y19935D01*
X56975Y19938D01*
X56981Y19939D01*
X56987Y19941D01*
X56994Y19942D01*
X57001Y19944D01*
X57008Y19944D01*
X57016Y19945D01*
X57021D01*
X57024Y19944D01*
D02*
G37*
G36*
X57622Y17829D02*
X57627Y17828D01*
X57634Y17827D01*
X57642Y17825D01*
X57650Y17822D01*
X57658Y17819D01*
X57659D01*
X57659Y17818D01*
X57662Y17817D01*
X57666Y17814D01*
X57670Y17811D01*
X57675Y17807D01*
X57680Y17802D01*
X57686Y17796D01*
X57690Y17790D01*
X57690Y17789D01*
X57692Y17787D01*
X57693Y17783D01*
X57696Y17778D01*
X57698Y17772D01*
X57700Y17766D01*
X57701Y17758D01*
X57701Y17751D01*
Y17750D01*
Y17747D01*
X57701Y17744D01*
X57700Y17739D01*
X57699Y17733D01*
X57697Y17727D01*
X57694Y17721D01*
X57690Y17715D01*
X57690Y17714D01*
X57689Y17712D01*
X57686Y17709D01*
X57683Y17706D01*
X57678Y17702D01*
X57673Y17697D01*
X57667Y17694D01*
X57659Y17690D01*
X57660D01*
X57661Y17689D01*
X57662Y17689D01*
X57664Y17688D01*
X57669Y17687D01*
X57675Y17684D01*
X57682Y17680D01*
X57689Y17676D01*
X57695Y17670D01*
X57701Y17664D01*
X57702Y17663D01*
X57704Y17660D01*
X57706Y17656D01*
X57709Y17650D01*
X57711Y17643D01*
X57714Y17635D01*
X57716Y17625D01*
X57716Y17615D01*
Y17614D01*
Y17613D01*
Y17611D01*
X57716Y17608D01*
X57715Y17605D01*
X57714Y17601D01*
X57714Y17597D01*
X57713Y17592D01*
X57709Y17581D01*
X57707Y17576D01*
X57704Y17570D01*
X57700Y17565D01*
X57697Y17559D01*
X57692Y17553D01*
X57687Y17548D01*
X57686Y17548D01*
X57686Y17547D01*
X57684Y17545D01*
X57682Y17544D01*
X57679Y17541D01*
X57676Y17539D01*
X57672Y17537D01*
X57667Y17535D01*
X57662Y17532D01*
X57656Y17529D01*
X57651Y17527D01*
X57644Y17525D01*
X57637Y17523D01*
X57630Y17522D01*
X57622Y17521D01*
X57614Y17521D01*
X57610D01*
X57607Y17521D01*
X57604Y17521D01*
X57600Y17522D01*
X57596Y17523D01*
X57591Y17524D01*
X57580Y17526D01*
X57569Y17531D01*
X57564Y17533D01*
X57558Y17536D01*
X57553Y17540D01*
X57548Y17544D01*
X57548Y17545D01*
X57547Y17545D01*
X57545Y17547D01*
X57544Y17548D01*
X57542Y17551D01*
X57540Y17554D01*
X57537Y17557D01*
X57534Y17561D01*
X57532Y17565D01*
X57529Y17569D01*
X57524Y17580D01*
X57520Y17592D01*
X57519Y17599D01*
X57518Y17606D01*
X57555Y17611D01*
Y17610D01*
X57556Y17609D01*
X57556Y17607D01*
X57557Y17605D01*
X57557Y17603D01*
X57558Y17600D01*
X57560Y17593D01*
X57563Y17585D01*
X57567Y17578D01*
X57572Y17571D01*
X57577Y17565D01*
X57578Y17564D01*
X57579Y17562D01*
X57583Y17560D01*
X57587Y17558D01*
X57593Y17555D01*
X57599Y17553D01*
X57607Y17552D01*
X57614Y17551D01*
X57617D01*
X57619Y17552D01*
X57624Y17552D01*
X57630Y17553D01*
X57637Y17555D01*
X57644Y17559D01*
X57652Y17563D01*
X57659Y17569D01*
X57659Y17570D01*
X57662Y17573D01*
X57664Y17576D01*
X57668Y17582D01*
X57671Y17588D01*
X57674Y17596D01*
X57676Y17604D01*
X57677Y17614D01*
Y17614D01*
Y17615D01*
Y17617D01*
X57676Y17618D01*
X57676Y17623D01*
X57675Y17629D01*
X57673Y17636D01*
X57670Y17643D01*
X57666Y17650D01*
X57660Y17656D01*
X57659Y17657D01*
X57657Y17659D01*
X57653Y17662D01*
X57648Y17665D01*
X57642Y17668D01*
X57635Y17670D01*
X57627Y17672D01*
X57617Y17673D01*
X57614D01*
X57610Y17673D01*
X57607Y17672D01*
X57602Y17671D01*
X57597Y17670D01*
X57591Y17669D01*
X57596Y17702D01*
X57598D01*
X57600Y17701D01*
X57605D01*
X57610Y17702D01*
X57616Y17703D01*
X57622Y17704D01*
X57630Y17707D01*
X57637Y17710D01*
X57644Y17714D01*
X57645D01*
X57645Y17714D01*
X57647Y17716D01*
X57650Y17719D01*
X57654Y17723D01*
X57657Y17729D01*
X57660Y17735D01*
X57662Y17743D01*
X57663Y17747D01*
Y17752D01*
Y17752D01*
Y17753D01*
Y17755D01*
X57662Y17759D01*
X57662Y17763D01*
X57660Y17769D01*
X57658Y17774D01*
X57654Y17780D01*
X57649Y17785D01*
X57649Y17786D01*
X57647Y17788D01*
X57644Y17790D01*
X57640Y17792D01*
X57634Y17795D01*
X57628Y17797D01*
X57621Y17798D01*
X57614Y17799D01*
X57610D01*
X57606Y17798D01*
X57601Y17797D01*
X57595Y17795D01*
X57589Y17793D01*
X57583Y17790D01*
X57578Y17785D01*
X57577Y17785D01*
X57575Y17783D01*
X57573Y17780D01*
X57570Y17775D01*
X57567Y17770D01*
X57564Y17763D01*
X57561Y17754D01*
X57559Y17745D01*
X57522Y17751D01*
Y17752D01*
X57523Y17753D01*
X57523Y17755D01*
X57523Y17757D01*
X57524Y17760D01*
X57526Y17764D01*
X57528Y17772D01*
X57533Y17782D01*
X57538Y17791D01*
X57544Y17801D01*
X57553Y17809D01*
X57553Y17809D01*
X57554Y17810D01*
X57555Y17811D01*
X57557Y17812D01*
X57559Y17814D01*
X57562Y17815D01*
X57565Y17817D01*
X57569Y17819D01*
X57578Y17823D01*
X57588Y17826D01*
X57600Y17829D01*
X57606Y17829D01*
X57617D01*
X57622Y17829D01*
D02*
G37*
G36*
X61468Y17865D02*
X61347D01*
X61331Y17784D01*
X61332Y17784D01*
X61332Y17785D01*
X61334Y17785D01*
X61336Y17787D01*
X61339Y17788D01*
X61342Y17790D01*
X61349Y17793D01*
X61357Y17797D01*
X61367Y17800D01*
X61377Y17802D01*
X61383Y17803D01*
X61392D01*
X61395Y17802D01*
X61398Y17802D01*
X61402Y17802D01*
X61407Y17801D01*
X61411Y17799D01*
X61422Y17796D01*
X61428Y17794D01*
X61433Y17791D01*
X61439Y17788D01*
X61445Y17785D01*
X61450Y17780D01*
X61455Y17775D01*
X61456Y17775D01*
X61457Y17774D01*
X61458Y17773D01*
X61460Y17771D01*
X61462Y17768D01*
X61464Y17764D01*
X61467Y17761D01*
X61469Y17756D01*
X61471Y17751D01*
X61474Y17746D01*
X61476Y17740D01*
X61478Y17734D01*
X61480Y17727D01*
X61481Y17720D01*
X61482Y17712D01*
X61483Y17705D01*
Y17704D01*
Y17703D01*
Y17701D01*
X61482Y17698D01*
X61482Y17694D01*
X61481Y17690D01*
X61481Y17685D01*
X61480Y17681D01*
X61477Y17669D01*
X61473Y17657D01*
X61470Y17651D01*
X61467Y17646D01*
X61463Y17639D01*
X61459Y17634D01*
X61458Y17633D01*
X61457Y17632D01*
X61456Y17630D01*
X61453Y17628D01*
X61450Y17625D01*
X61447Y17622D01*
X61443Y17619D01*
X61438Y17615D01*
X61432Y17612D01*
X61426Y17609D01*
X61420Y17606D01*
X61413Y17603D01*
X61405Y17601D01*
X61397Y17599D01*
X61388Y17598D01*
X61379Y17597D01*
X61375D01*
X61372Y17598D01*
X61369Y17598D01*
X61365Y17598D01*
X61360Y17599D01*
X61355Y17600D01*
X61344Y17603D01*
X61333Y17607D01*
X61328Y17609D01*
X61322Y17612D01*
X61317Y17616D01*
X61311Y17620D01*
X61311Y17620D01*
X61310Y17621D01*
X61309Y17622D01*
X61308Y17624D01*
X61305Y17626D01*
X61303Y17629D01*
X61301Y17632D01*
X61298Y17636D01*
X61296Y17640D01*
X61293Y17645D01*
X61288Y17656D01*
X61284Y17668D01*
X61283Y17674D01*
X61282Y17681D01*
X61321Y17685D01*
Y17684D01*
Y17683D01*
X61321Y17682D01*
X61322Y17680D01*
X61323Y17675D01*
X61325Y17668D01*
X61328Y17662D01*
X61331Y17654D01*
X61335Y17648D01*
X61341Y17642D01*
X61342Y17641D01*
X61343Y17639D01*
X61347Y17637D01*
X61352Y17635D01*
X61357Y17632D01*
X61363Y17630D01*
X61371Y17628D01*
X61379Y17628D01*
X61382D01*
X61384Y17628D01*
X61389Y17629D01*
X61395Y17630D01*
X61402Y17632D01*
X61410Y17636D01*
X61418Y17641D01*
X61421Y17644D01*
X61425Y17648D01*
X61425Y17648D01*
X61425Y17649D01*
X61426Y17650D01*
X61428Y17651D01*
X61431Y17656D01*
X61434Y17662D01*
X61437Y17670D01*
X61440Y17679D01*
X61443Y17690D01*
X61443Y17695D01*
Y17702D01*
Y17702D01*
Y17703D01*
Y17705D01*
X61443Y17707D01*
Y17709D01*
X61443Y17712D01*
X61441Y17719D01*
X61439Y17728D01*
X61436Y17736D01*
X61432Y17744D01*
X61425Y17751D01*
Y17752D01*
X61425Y17752D01*
X61422Y17754D01*
X61418Y17757D01*
X61413Y17761D01*
X61406Y17764D01*
X61398Y17767D01*
X61389Y17769D01*
X61384Y17770D01*
X61376D01*
X61372Y17770D01*
X61368Y17769D01*
X61363Y17768D01*
X61357Y17767D01*
X61352Y17764D01*
X61346Y17762D01*
X61346Y17761D01*
X61344Y17761D01*
X61341Y17758D01*
X61338Y17756D01*
X61334Y17753D01*
X61331Y17749D01*
X61327Y17745D01*
X61324Y17740D01*
X61289Y17745D01*
X61318Y17901D01*
X61468D01*
Y17865D01*
D02*
G37*
G36*
X61989Y19682D02*
X61997Y19681D01*
X62007Y19679D01*
X62017Y19676D01*
X62027Y19672D01*
X62032Y19669D01*
X62036Y19666D01*
X62037Y19666D01*
X62037Y19666D01*
X62039Y19664D01*
X62040Y19663D01*
X62042Y19661D01*
X62044Y19659D01*
X62050Y19653D01*
X62055Y19646D01*
X62060Y19636D01*
X62065Y19626D01*
X62069Y19614D01*
X62032Y19608D01*
X62032Y19608D01*
X62032Y19609D01*
X62031Y19611D01*
X62029Y19615D01*
X62027Y19620D01*
X62025Y19625D01*
X62022Y19630D01*
X62018Y19634D01*
X62015Y19638D01*
X62014Y19639D01*
X62012Y19640D01*
X62009Y19642D01*
X62004Y19645D01*
X61998Y19647D01*
X61992Y19649D01*
X61985Y19650D01*
X61977Y19651D01*
X61974Y19650D01*
X61970Y19650D01*
X61966Y19648D01*
X61961Y19647D01*
X61956Y19644D01*
X61951Y19642D01*
X61946Y19638D01*
X61945Y19637D01*
X61943Y19635D01*
X61941Y19632D01*
X61937Y19627D01*
X61933Y19622D01*
X61929Y19615D01*
X61925Y19607D01*
X61922Y19598D01*
X61922Y19598D01*
X61921Y19597D01*
X61921Y19595D01*
X61920Y19593D01*
X61920Y19591D01*
X61919Y19588D01*
X61919Y19584D01*
X61918Y19580D01*
X61918Y19575D01*
X61917Y19570D01*
X61917Y19564D01*
X61917Y19558D01*
X61917Y19551D01*
X61917Y19544D01*
X61917Y19536D01*
X61918Y19528D01*
X61918Y19528D01*
X61920Y19531D01*
X61922Y19535D01*
X61926Y19540D01*
X61930Y19545D01*
X61935Y19550D01*
X61941Y19556D01*
X61947Y19561D01*
X61948Y19561D01*
X61948Y19561D01*
X61951Y19563D01*
X61954Y19564D01*
X61959Y19567D01*
X61965Y19569D01*
X61972Y19571D01*
X61980Y19573D01*
X61987Y19574D01*
X61991Y19575D01*
X61993Y19574D01*
X61997Y19574D01*
X62000Y19574D01*
X62005Y19574D01*
X62009Y19573D01*
X62020Y19571D01*
X62025Y19569D01*
X62031Y19566D01*
X62036Y19564D01*
X62042Y19561D01*
X62048Y19557D01*
X62053Y19552D01*
X62053Y19552D01*
X62054Y19551D01*
X62056Y19550D01*
X62057Y19548D01*
X62060Y19545D01*
X62062Y19542D01*
X62065Y19539D01*
X62068Y19534D01*
X62071Y19530D01*
X62073Y19525D01*
X62076Y19519D01*
X62079Y19513D01*
X62081Y19507D01*
X62082Y19499D01*
X62084Y19492D01*
X62085Y19484D01*
X62085Y19484D01*
X62085Y19483D01*
X62085Y19482D01*
X62086Y19479D01*
X62085Y19477D01*
X62086Y19474D01*
X62085Y19467D01*
X62084Y19459D01*
X62083Y19450D01*
X62081Y19440D01*
X62077Y19430D01*
X62077Y19430D01*
X62077Y19430D01*
X62076Y19428D01*
X62075Y19426D01*
X62073Y19422D01*
X62070Y19416D01*
X62065Y19409D01*
X62060Y19403D01*
X62054Y19396D01*
X62047Y19390D01*
X62046Y19390D01*
X62046Y19390D01*
X62045Y19389D01*
X62043Y19388D01*
X62039Y19385D01*
X62033Y19383D01*
X62026Y19379D01*
X62018Y19377D01*
X62009Y19374D01*
X61999Y19373D01*
X61997Y19373D01*
X61995Y19373D01*
X61991Y19373D01*
X61987Y19373D01*
X61983Y19374D01*
X61978Y19374D01*
X61972Y19375D01*
X61966Y19376D01*
X61960Y19378D01*
X61953Y19380D01*
X61947Y19383D01*
X61940Y19386D01*
X61934Y19390D01*
X61927Y19395D01*
X61921Y19401D01*
X61920Y19401D01*
X61919Y19402D01*
X61918Y19404D01*
X61916Y19407D01*
X61913Y19410D01*
X61911Y19415D01*
X61907Y19420D01*
X61904Y19426D01*
X61901Y19433D01*
X61897Y19441D01*
X61894Y19450D01*
X61891Y19460D01*
X61888Y19471D01*
X61886Y19483D01*
X61884Y19496D01*
X61882Y19510D01*
X61882Y19510D01*
X61882Y19511D01*
X61882Y19512D01*
X61882Y19514D01*
X61882Y19518D01*
X61881Y19524D01*
X61881Y19531D01*
X61881Y19540D01*
X61881Y19549D01*
X61882Y19559D01*
X61883Y19569D01*
X61884Y19580D01*
X61885Y19591D01*
X61888Y19602D01*
X61891Y19612D01*
X61894Y19622D01*
X61898Y19631D01*
X61903Y19640D01*
X61903Y19640D01*
X61904Y19641D01*
X61906Y19643D01*
X61908Y19646D01*
X61910Y19649D01*
X61913Y19652D01*
X61917Y19656D01*
X61922Y19659D01*
X61927Y19662D01*
X61932Y19666D01*
X61938Y19670D01*
X61944Y19673D01*
X61952Y19676D01*
X61959Y19678D01*
X61968Y19680D01*
X61976Y19681D01*
X61980Y19682D01*
X61982Y19681D01*
X61985Y19682D01*
X61989Y19682D01*
D02*
G37*
G36*
X61012Y21456D02*
X61012Y21456D01*
X61011Y21455D01*
X61009Y21453D01*
X61007Y21451D01*
X61005Y21448D01*
X61001Y21444D01*
X60998Y21440D01*
X60994Y21434D01*
X60990Y21429D01*
X60985Y21423D01*
X60980Y21416D01*
X60975Y21409D01*
X60970Y21401D01*
X60965Y21393D01*
X60960Y21384D01*
X60954Y21375D01*
X60954Y21374D01*
X60953Y21372D01*
X60952Y21370D01*
X60950Y21366D01*
X60947Y21361D01*
X60945Y21356D01*
X60942Y21350D01*
X60939Y21343D01*
X60935Y21335D01*
X60931Y21327D01*
X60928Y21318D01*
X60924Y21309D01*
X60917Y21290D01*
X60911Y21270D01*
Y21270D01*
X60910Y21268D01*
X60910Y21266D01*
X60909Y21264D01*
X60908Y21260D01*
X60907Y21256D01*
X60906Y21251D01*
X60905Y21246D01*
X60904Y21240D01*
X60902Y21233D01*
X60900Y21219D01*
X60898Y21204D01*
X60897Y21187D01*
X60859D01*
Y21188D01*
Y21189D01*
Y21191D01*
X60859Y21193D01*
Y21197D01*
X60859Y21201D01*
X60860Y21206D01*
X60860Y21211D01*
X60861Y21217D01*
X60862Y21223D01*
X60863Y21231D01*
X60865Y21238D01*
X60866Y21246D01*
X60868Y21255D01*
X60872Y21273D01*
Y21273D01*
X60873Y21275D01*
X60873Y21278D01*
X60875Y21282D01*
X60876Y21286D01*
X60878Y21291D01*
X60880Y21297D01*
X60882Y21304D01*
X60885Y21311D01*
X60887Y21319D01*
X60894Y21335D01*
X60902Y21353D01*
X60911Y21370D01*
X60911Y21371D01*
X60912Y21372D01*
X60913Y21375D01*
X60915Y21378D01*
X60917Y21382D01*
X60920Y21387D01*
X60923Y21392D01*
X60927Y21398D01*
X60935Y21410D01*
X60944Y21424D01*
X60954Y21437D01*
X60964Y21450D01*
X60816D01*
Y21486D01*
X61012D01*
Y21456D01*
D02*
G37*
G36*
X50118Y20114D02*
X50121Y20114D01*
X50125Y20113D01*
X50130Y20113D01*
X50134Y20111D01*
X50144Y20109D01*
X50155Y20105D01*
X50160Y20102D01*
X50165Y20099D01*
X50170Y20095D01*
X50175Y20091D01*
X50175Y20091D01*
X50176Y20090D01*
X50177Y20089D01*
X50179Y20087D01*
X50181Y20085D01*
X50183Y20082D01*
X50187Y20076D01*
X50192Y20067D01*
X50196Y20058D01*
X50199Y20047D01*
X50199Y20041D01*
X50199Y20035D01*
Y20035D01*
Y20034D01*
Y20031D01*
X50199Y20028D01*
X50198Y20023D01*
X50197Y20017D01*
X50195Y20010D01*
X50192Y20004D01*
X50188Y19998D01*
X50188Y19997D01*
X50186Y19996D01*
X50183Y19993D01*
X50180Y19990D01*
X50175Y19986D01*
X50169Y19982D01*
X50163Y19978D01*
X50155Y19974D01*
X50155D01*
X50156Y19974D01*
X50158Y19973D01*
X50159Y19972D01*
X50165Y19970D01*
X50171Y19967D01*
X50177Y19963D01*
X50184Y19958D01*
X50191Y19952D01*
X50197Y19945D01*
Y19944D01*
X50197Y19944D01*
X50199Y19941D01*
X50202Y19937D01*
X50204Y19931D01*
X50207Y19924D01*
X50210Y19916D01*
X50211Y19907D01*
X50212Y19897D01*
Y19896D01*
Y19895D01*
Y19893D01*
X50211Y19890D01*
X50211Y19887D01*
X50210Y19883D01*
X50210Y19879D01*
X50208Y19874D01*
X50205Y19864D01*
X50203Y19858D01*
X50200Y19853D01*
X50197Y19847D01*
X50193Y19842D01*
X50189Y19837D01*
X50184Y19832D01*
X50184Y19831D01*
X50183Y19830D01*
X50182Y19829D01*
X50179Y19828D01*
X50176Y19826D01*
X50173Y19823D01*
X50169Y19821D01*
X50165Y19819D01*
X50160Y19816D01*
X50154Y19814D01*
X50148Y19812D01*
X50142Y19809D01*
X50135Y19808D01*
X50128Y19807D01*
X50120Y19806D01*
X50112Y19806D01*
X50108D01*
X50105Y19806D01*
X50101Y19806D01*
X50096Y19807D01*
X50092Y19808D01*
X50086Y19809D01*
X50075Y19812D01*
X50068Y19814D01*
X50063Y19816D01*
X50057Y19820D01*
X50050Y19823D01*
X50045Y19827D01*
X50040Y19832D01*
X50039Y19832D01*
X50038Y19833D01*
X50037Y19834D01*
X50035Y19837D01*
X50033Y19839D01*
X50031Y19842D01*
X50029Y19846D01*
X50026Y19850D01*
X50023Y19854D01*
X50021Y19860D01*
X50017Y19871D01*
X50015Y19877D01*
X50014Y19884D01*
X50013Y19891D01*
X50012Y19898D01*
Y19898D01*
Y19899D01*
Y19901D01*
X50013Y19903D01*
Y19905D01*
X50013Y19908D01*
X50014Y19915D01*
X50016Y19923D01*
X50019Y19931D01*
X50023Y19939D01*
X50027Y19947D01*
Y19948D01*
X50028Y19948D01*
X50030Y19950D01*
X50033Y19954D01*
X50038Y19958D01*
X50044Y19962D01*
X50052Y19967D01*
X50060Y19971D01*
X50070Y19974D01*
X50070D01*
X50069Y19975D01*
X50068Y19975D01*
X50066Y19976D01*
X50062Y19978D01*
X50057Y19980D01*
X50051Y19984D01*
X50046Y19988D01*
X50040Y19993D01*
X50036Y19998D01*
X50035Y19999D01*
X50034Y20001D01*
X50032Y20004D01*
X50030Y20009D01*
X50028Y20014D01*
X50026Y20021D01*
X50025Y20028D01*
X50025Y20036D01*
Y20037D01*
Y20038D01*
Y20039D01*
X50025Y20042D01*
X50026Y20045D01*
X50026Y20048D01*
X50028Y20055D01*
X50030Y20064D01*
X50035Y20073D01*
X50037Y20078D01*
X50040Y20083D01*
X50044Y20087D01*
X50048Y20092D01*
X50049Y20092D01*
X50050Y20093D01*
X50051Y20094D01*
X50053Y20095D01*
X50055Y20097D01*
X50058Y20099D01*
X50061Y20101D01*
X50065Y20103D01*
X50069Y20105D01*
X50074Y20108D01*
X50079Y20109D01*
X50085Y20111D01*
X50097Y20114D01*
X50104Y20114D01*
X50111Y20114D01*
X50115D01*
X50118Y20114D01*
D02*
G37*
G36*
X48792Y21225D02*
X48755D01*
Y21462D01*
X48754Y21461D01*
X48752Y21459D01*
X48749Y21457D01*
X48745Y21454D01*
X48740Y21450D01*
X48734Y21445D01*
X48727Y21441D01*
X48719Y21436D01*
X48719D01*
X48718Y21435D01*
X48716Y21434D01*
X48711Y21431D01*
X48706Y21429D01*
X48700Y21426D01*
X48694Y21423D01*
X48687Y21420D01*
X48680Y21417D01*
Y21453D01*
X48681D01*
X48682Y21454D01*
X48684Y21454D01*
X48686Y21455D01*
X48688Y21457D01*
X48691Y21458D01*
X48699Y21463D01*
X48708Y21468D01*
X48716Y21474D01*
X48725Y21481D01*
X48735Y21488D01*
X48735Y21489D01*
X48735Y21489D01*
X48737Y21490D01*
X48739Y21492D01*
X48742Y21496D01*
X48748Y21501D01*
X48753Y21507D01*
X48759Y21514D01*
X48763Y21521D01*
X48768Y21529D01*
X48792D01*
Y21225D01*
D02*
G37*
G36*
X50216Y16781D02*
X50257D01*
Y16747D01*
X50216D01*
Y16674D01*
X50178D01*
Y16747D01*
X50047D01*
Y16781D01*
X50185Y16977D01*
X50216D01*
Y16781D01*
D02*
G37*
G36*
X47627Y19964D02*
X47631Y19964D01*
X47635Y19963D01*
X47640Y19963D01*
X47645Y19962D01*
X47656Y19959D01*
X47668Y19954D01*
X47673Y19952D01*
X47679Y19949D01*
X47684Y19945D01*
X47689Y19940D01*
X47689Y19940D01*
X47690Y19939D01*
X47691Y19938D01*
X47693Y19936D01*
X47695Y19934D01*
X47697Y19931D01*
X47699Y19928D01*
X47702Y19924D01*
X47706Y19915D01*
X47711Y19905D01*
X47713Y19900D01*
X47713Y19894D01*
X47714Y19887D01*
X47715Y19881D01*
Y19880D01*
Y19878D01*
X47714Y19874D01*
X47714Y19869D01*
X47713Y19864D01*
X47711Y19858D01*
X47709Y19852D01*
X47707Y19845D01*
X47706Y19844D01*
X47706Y19842D01*
X47704Y19838D01*
X47701Y19834D01*
X47698Y19828D01*
X47693Y19822D01*
X47688Y19815D01*
X47682Y19808D01*
X47681Y19807D01*
X47679Y19804D01*
X47677Y19802D01*
X47675Y19800D01*
X47672Y19797D01*
X47668Y19794D01*
X47665Y19790D01*
X47661Y19786D01*
X47656Y19782D01*
X47651Y19777D01*
X47645Y19772D01*
X47639Y19767D01*
X47632Y19761D01*
X47625Y19755D01*
X47625Y19755D01*
X47624Y19754D01*
X47622Y19752D01*
X47620Y19751D01*
X47617Y19748D01*
X47614Y19745D01*
X47607Y19740D01*
X47600Y19733D01*
X47593Y19727D01*
X47587Y19721D01*
X47584Y19719D01*
X47582Y19717D01*
X47581Y19716D01*
X47580Y19715D01*
X47578Y19713D01*
X47576Y19710D01*
X47574Y19707D01*
X47571Y19704D01*
X47566Y19697D01*
X47715D01*
Y19661D01*
X47515D01*
Y19661D01*
Y19663D01*
Y19666D01*
X47515Y19669D01*
X47515Y19673D01*
X47516Y19678D01*
X47517Y19682D01*
X47519Y19687D01*
Y19687D01*
X47519Y19688D01*
X47520Y19690D01*
X47522Y19694D01*
X47525Y19699D01*
X47528Y19706D01*
X47532Y19713D01*
X47537Y19720D01*
X47543Y19727D01*
Y19727D01*
X47544Y19728D01*
X47546Y19731D01*
X47550Y19734D01*
X47556Y19740D01*
X47563Y19747D01*
X47571Y19755D01*
X47581Y19763D01*
X47592Y19772D01*
X47592Y19773D01*
X47594Y19774D01*
X47597Y19776D01*
X47600Y19779D01*
X47604Y19783D01*
X47609Y19786D01*
X47613Y19791D01*
X47619Y19796D01*
X47630Y19806D01*
X47641Y19817D01*
X47646Y19822D01*
X47651Y19827D01*
X47655Y19832D01*
X47659Y19837D01*
Y19837D01*
X47660Y19838D01*
X47661Y19839D01*
X47661Y19841D01*
X47664Y19845D01*
X47668Y19851D01*
X47671Y19858D01*
X47674Y19866D01*
X47676Y19874D01*
X47677Y19882D01*
Y19882D01*
Y19883D01*
X47676Y19885D01*
X47676Y19890D01*
X47675Y19894D01*
X47673Y19901D01*
X47670Y19907D01*
X47666Y19913D01*
X47661Y19919D01*
X47660Y19920D01*
X47657Y19921D01*
X47654Y19924D01*
X47650Y19927D01*
X47643Y19929D01*
X47636Y19932D01*
X47628Y19934D01*
X47619Y19934D01*
X47616D01*
X47615Y19934D01*
X47609Y19933D01*
X47603Y19932D01*
X47597Y19930D01*
X47589Y19927D01*
X47582Y19923D01*
X47576Y19918D01*
X47575Y19917D01*
X47573Y19915D01*
X47571Y19911D01*
X47568Y19906D01*
X47565Y19900D01*
X47562Y19892D01*
X47560Y19883D01*
X47560Y19873D01*
X47522Y19877D01*
Y19878D01*
X47522Y19879D01*
Y19881D01*
X47522Y19884D01*
X47523Y19888D01*
X47524Y19892D01*
X47526Y19897D01*
X47527Y19901D01*
X47530Y19912D01*
X47536Y19922D01*
X47539Y19928D01*
X47543Y19933D01*
X47546Y19938D01*
X47551Y19942D01*
X47551Y19942D01*
X47552Y19943D01*
X47553Y19944D01*
X47556Y19946D01*
X47558Y19947D01*
X47561Y19949D01*
X47565Y19951D01*
X47569Y19953D01*
X47574Y19956D01*
X47579Y19958D01*
X47585Y19960D01*
X47591Y19961D01*
X47598Y19963D01*
X47605Y19964D01*
X47612Y19964D01*
X47620Y19965D01*
X47624D01*
X47627Y19964D01*
D02*
G37*
G36*
X48226Y17849D02*
X48231Y17848D01*
X48238Y17847D01*
X48246Y17845D01*
X48254Y17842D01*
X48262Y17839D01*
X48262D01*
X48263Y17838D01*
X48265Y17837D01*
X48269Y17834D01*
X48274Y17831D01*
X48279Y17827D01*
X48284Y17822D01*
X48289Y17816D01*
X48294Y17810D01*
X48294Y17809D01*
X48295Y17807D01*
X48297Y17803D01*
X48299Y17798D01*
X48302Y17792D01*
X48303Y17786D01*
X48305Y17778D01*
X48305Y17771D01*
Y17770D01*
Y17768D01*
X48305Y17764D01*
X48304Y17759D01*
X48302Y17754D01*
X48300Y17747D01*
X48298Y17741D01*
X48294Y17735D01*
X48294Y17734D01*
X48292Y17733D01*
X48290Y17730D01*
X48286Y17726D01*
X48282Y17722D01*
X48277Y17718D01*
X48271Y17714D01*
X48263Y17710D01*
X48264D01*
X48264Y17709D01*
X48266Y17709D01*
X48268Y17709D01*
X48272Y17707D01*
X48278Y17704D01*
X48285Y17701D01*
X48292Y17696D01*
X48299Y17691D01*
X48305Y17684D01*
X48306Y17683D01*
X48307Y17681D01*
X48310Y17676D01*
X48313Y17671D01*
X48315Y17664D01*
X48318Y17655D01*
X48320Y17646D01*
X48320Y17635D01*
Y17635D01*
Y17633D01*
Y17631D01*
X48320Y17629D01*
X48319Y17625D01*
X48318Y17621D01*
X48317Y17617D01*
X48316Y17612D01*
X48313Y17601D01*
X48310Y17596D01*
X48308Y17591D01*
X48304Y17585D01*
X48300Y17579D01*
X48296Y17573D01*
X48291Y17568D01*
X48290Y17568D01*
X48289Y17567D01*
X48288Y17566D01*
X48285Y17564D01*
X48283Y17562D01*
X48279Y17560D01*
X48275Y17557D01*
X48271Y17555D01*
X48266Y17552D01*
X48260Y17549D01*
X48254Y17547D01*
X48248Y17545D01*
X48241Y17543D01*
X48233Y17542D01*
X48226Y17541D01*
X48218Y17541D01*
X48214D01*
X48211Y17541D01*
X48208Y17542D01*
X48204Y17542D01*
X48199Y17543D01*
X48195Y17544D01*
X48184Y17546D01*
X48173Y17551D01*
X48167Y17553D01*
X48162Y17556D01*
X48157Y17560D01*
X48152Y17564D01*
X48151Y17565D01*
X48150Y17566D01*
X48149Y17567D01*
X48148Y17569D01*
X48146Y17571D01*
X48143Y17574D01*
X48141Y17577D01*
X48138Y17581D01*
X48136Y17585D01*
X48133Y17590D01*
X48128Y17600D01*
X48124Y17612D01*
X48123Y17619D01*
X48122Y17626D01*
X48159Y17631D01*
Y17630D01*
X48160Y17629D01*
X48160Y17628D01*
X48160Y17625D01*
X48161Y17623D01*
X48162Y17620D01*
X48164Y17613D01*
X48167Y17605D01*
X48171Y17598D01*
X48175Y17591D01*
X48181Y17585D01*
X48181Y17584D01*
X48183Y17583D01*
X48187Y17580D01*
X48191Y17578D01*
X48196Y17576D01*
X48203Y17573D01*
X48210Y17572D01*
X48218Y17571D01*
X48221D01*
X48223Y17572D01*
X48227Y17572D01*
X48233Y17573D01*
X48240Y17576D01*
X48248Y17579D01*
X48255Y17583D01*
X48262Y17589D01*
X48263Y17590D01*
X48265Y17593D01*
X48268Y17597D01*
X48271Y17602D01*
X48275Y17608D01*
X48278Y17616D01*
X48280Y17625D01*
X48281Y17634D01*
Y17635D01*
Y17636D01*
Y17637D01*
X48280Y17639D01*
X48280Y17643D01*
X48278Y17649D01*
X48277Y17656D01*
X48274Y17663D01*
X48269Y17670D01*
X48264Y17677D01*
X48263Y17678D01*
X48261Y17679D01*
X48257Y17682D01*
X48252Y17685D01*
X48246Y17688D01*
X48239Y17691D01*
X48230Y17692D01*
X48221Y17693D01*
X48217D01*
X48214Y17693D01*
X48210Y17692D01*
X48206Y17691D01*
X48201Y17691D01*
X48195Y17689D01*
X48199Y17722D01*
X48202D01*
X48203Y17722D01*
X48209D01*
X48214Y17723D01*
X48219Y17723D01*
X48226Y17725D01*
X48233Y17727D01*
X48240Y17730D01*
X48248Y17734D01*
X48248D01*
X48249Y17734D01*
X48251Y17736D01*
X48254Y17739D01*
X48257Y17743D01*
X48261Y17749D01*
X48264Y17755D01*
X48266Y17763D01*
X48267Y17767D01*
Y17772D01*
Y17772D01*
Y17773D01*
Y17775D01*
X48266Y17779D01*
X48265Y17784D01*
X48264Y17789D01*
X48261Y17795D01*
X48258Y17800D01*
X48253Y17806D01*
X48253Y17806D01*
X48250Y17808D01*
X48247Y17810D01*
X48243Y17813D01*
X48238Y17815D01*
X48232Y17817D01*
X48225Y17819D01*
X48217Y17819D01*
X48214D01*
X48210Y17818D01*
X48205Y17817D01*
X48199Y17816D01*
X48193Y17813D01*
X48187Y17810D01*
X48181Y17806D01*
X48181Y17805D01*
X48179Y17803D01*
X48177Y17800D01*
X48174Y17795D01*
X48171Y17790D01*
X48167Y17783D01*
X48165Y17775D01*
X48163Y17765D01*
X48126Y17771D01*
Y17772D01*
X48126Y17773D01*
X48127Y17775D01*
X48127Y17778D01*
X48128Y17781D01*
X48129Y17784D01*
X48132Y17792D01*
X48136Y17802D01*
X48142Y17812D01*
X48148Y17821D01*
X48157Y17829D01*
X48157Y17830D01*
X48158Y17830D01*
X48159Y17831D01*
X48161Y17832D01*
X48163Y17834D01*
X48166Y17836D01*
X48169Y17837D01*
X48173Y17840D01*
X48182Y17843D01*
X48192Y17847D01*
X48204Y17849D01*
X48210Y17850D01*
X48221D01*
X48226Y17849D01*
D02*
G37*
G36*
X52072Y17886D02*
X51951D01*
X51935Y17804D01*
X51935Y17804D01*
X51936Y17805D01*
X51937Y17806D01*
X51940Y17807D01*
X51942Y17808D01*
X51945Y17810D01*
X51952Y17814D01*
X51961Y17817D01*
X51971Y17820D01*
X51981Y17822D01*
X51986Y17823D01*
X51996D01*
X51999Y17823D01*
X52002Y17822D01*
X52006Y17822D01*
X52010Y17821D01*
X52015Y17820D01*
X52026Y17817D01*
X52031Y17814D01*
X52037Y17811D01*
X52043Y17808D01*
X52048Y17805D01*
X52054Y17800D01*
X52059Y17796D01*
X52059Y17795D01*
X52060Y17794D01*
X52062Y17793D01*
X52063Y17791D01*
X52066Y17788D01*
X52068Y17785D01*
X52070Y17781D01*
X52073Y17776D01*
X52075Y17772D01*
X52078Y17766D01*
X52080Y17760D01*
X52082Y17754D01*
X52084Y17748D01*
X52085Y17740D01*
X52086Y17733D01*
X52086Y17725D01*
Y17724D01*
Y17723D01*
Y17721D01*
X52086Y17718D01*
X52086Y17714D01*
X52085Y17710D01*
X52084Y17706D01*
X52083Y17701D01*
X52081Y17689D01*
X52076Y17678D01*
X52074Y17671D01*
X52070Y17666D01*
X52067Y17660D01*
X52062Y17654D01*
X52062Y17654D01*
X52061Y17652D01*
X52059Y17651D01*
X52057Y17648D01*
X52054Y17646D01*
X52051Y17642D01*
X52046Y17639D01*
X52041Y17636D01*
X52036Y17632D01*
X52030Y17629D01*
X52024Y17626D01*
X52017Y17623D01*
X52009Y17621D01*
X52001Y17619D01*
X51992Y17618D01*
X51983Y17617D01*
X51979D01*
X51976Y17618D01*
X51972Y17618D01*
X51968Y17619D01*
X51964Y17619D01*
X51959Y17620D01*
X51948Y17623D01*
X51937Y17627D01*
X51931Y17630D01*
X51926Y17633D01*
X51920Y17636D01*
X51915Y17640D01*
X51915Y17640D01*
X51914Y17641D01*
X51913Y17643D01*
X51911Y17644D01*
X51909Y17647D01*
X51907Y17649D01*
X51904Y17653D01*
X51902Y17657D01*
X51899Y17661D01*
X51897Y17665D01*
X51892Y17676D01*
X51888Y17688D01*
X51887Y17695D01*
X51886Y17702D01*
X51925Y17705D01*
Y17704D01*
Y17703D01*
X51925Y17702D01*
X51926Y17700D01*
X51927Y17695D01*
X51929Y17689D01*
X51931Y17682D01*
X51935Y17675D01*
X51939Y17668D01*
X51944Y17662D01*
X51945Y17661D01*
X51947Y17660D01*
X51951Y17658D01*
X51955Y17655D01*
X51961Y17652D01*
X51967Y17650D01*
X51975Y17648D01*
X51983Y17648D01*
X51986D01*
X51987Y17648D01*
X51993Y17649D01*
X51999Y17651D01*
X52006Y17653D01*
X52014Y17656D01*
X52021Y17661D01*
X52025Y17664D01*
X52028Y17668D01*
X52029Y17668D01*
X52029Y17669D01*
X52030Y17670D01*
X52031Y17671D01*
X52034Y17676D01*
X52038Y17682D01*
X52041Y17690D01*
X52044Y17699D01*
X52046Y17710D01*
X52047Y17716D01*
Y17722D01*
Y17722D01*
Y17723D01*
Y17725D01*
X52047Y17727D01*
Y17730D01*
X52046Y17733D01*
X52045Y17740D01*
X52043Y17748D01*
X52040Y17756D01*
X52035Y17764D01*
X52029Y17772D01*
Y17772D01*
X52028Y17772D01*
X52026Y17775D01*
X52022Y17778D01*
X52017Y17781D01*
X52010Y17784D01*
X52002Y17787D01*
X51993Y17789D01*
X51988Y17790D01*
X51979D01*
X51976Y17790D01*
X51972Y17789D01*
X51966Y17788D01*
X51961Y17787D01*
X51955Y17785D01*
X51950Y17782D01*
X51949Y17782D01*
X51948Y17781D01*
X51945Y17779D01*
X51941Y17776D01*
X51938Y17773D01*
X51934Y17769D01*
X51930Y17765D01*
X51927Y17761D01*
X51892Y17765D01*
X51922Y17921D01*
X52072D01*
Y17886D01*
D02*
G37*
G36*
X52593Y19702D02*
X52601Y19701D01*
X52610Y19699D01*
X52620Y19697D01*
X52630Y19692D01*
X52635Y19690D01*
X52640Y19687D01*
X52641Y19686D01*
X52641Y19686D01*
X52642Y19685D01*
X52644Y19683D01*
X52646Y19681D01*
X52648Y19679D01*
X52653Y19673D01*
X52659Y19666D01*
X52664Y19657D01*
X52669Y19646D01*
X52673Y19634D01*
X52636Y19628D01*
X52636Y19628D01*
X52635Y19629D01*
X52635Y19631D01*
X52633Y19635D01*
X52631Y19640D01*
X52629Y19645D01*
X52626Y19650D01*
X52622Y19654D01*
X52619Y19658D01*
X52618Y19659D01*
X52616Y19660D01*
X52613Y19663D01*
X52608Y19665D01*
X52602Y19667D01*
X52596Y19670D01*
X52588Y19671D01*
X52580Y19671D01*
X52577Y19671D01*
X52574Y19670D01*
X52570Y19669D01*
X52565Y19667D01*
X52560Y19665D01*
X52555Y19662D01*
X52550Y19658D01*
X52549Y19658D01*
X52547Y19656D01*
X52544Y19652D01*
X52541Y19648D01*
X52537Y19642D01*
X52533Y19636D01*
X52529Y19627D01*
X52525Y19618D01*
X52525Y19618D01*
X52525Y19617D01*
X52525Y19616D01*
X52524Y19614D01*
X52524Y19611D01*
X52523Y19608D01*
X52523Y19604D01*
X52522Y19600D01*
X52521Y19595D01*
X52521Y19590D01*
X52520Y19584D01*
X52521Y19578D01*
X52520Y19571D01*
X52521Y19564D01*
X52521Y19556D01*
X52521Y19548D01*
X52522Y19549D01*
X52523Y19551D01*
X52526Y19555D01*
X52530Y19560D01*
X52534Y19565D01*
X52539Y19571D01*
X52544Y19576D01*
X52551Y19581D01*
X52551Y19581D01*
X52552Y19581D01*
X52554Y19583D01*
X52558Y19585D01*
X52563Y19587D01*
X52569Y19590D01*
X52576Y19591D01*
X52583Y19593D01*
X52591Y19595D01*
X52595Y19595D01*
X52597Y19595D01*
X52601Y19595D01*
X52604Y19594D01*
X52609Y19594D01*
X52613Y19593D01*
X52623Y19591D01*
X52629Y19589D01*
X52634Y19586D01*
X52640Y19584D01*
X52646Y19581D01*
X52651Y19577D01*
X52657Y19573D01*
X52657Y19572D01*
X52658Y19571D01*
X52659Y19570D01*
X52661Y19568D01*
X52663Y19565D01*
X52666Y19562D01*
X52668Y19559D01*
X52671Y19555D01*
X52674Y19550D01*
X52677Y19545D01*
X52680Y19539D01*
X52682Y19533D01*
X52684Y19527D01*
X52686Y19520D01*
X52688Y19512D01*
X52689Y19504D01*
X52689Y19504D01*
X52689Y19503D01*
X52689Y19502D01*
X52689Y19500D01*
X52689Y19497D01*
X52689Y19494D01*
X52689Y19487D01*
X52688Y19479D01*
X52687Y19470D01*
X52684Y19460D01*
X52681Y19451D01*
X52681Y19450D01*
X52681Y19450D01*
X52680Y19448D01*
X52679Y19447D01*
X52677Y19442D01*
X52673Y19436D01*
X52669Y19429D01*
X52664Y19423D01*
X52658Y19416D01*
X52651Y19410D01*
X52650Y19410D01*
X52650Y19410D01*
X52649Y19409D01*
X52647Y19408D01*
X52643Y19406D01*
X52637Y19403D01*
X52630Y19400D01*
X52622Y19397D01*
X52613Y19395D01*
X52603Y19393D01*
X52601Y19393D01*
X52599Y19393D01*
X52595Y19393D01*
X52591Y19393D01*
X52587Y19394D01*
X52581Y19395D01*
X52576Y19395D01*
X52570Y19397D01*
X52564Y19398D01*
X52557Y19400D01*
X52550Y19403D01*
X52544Y19407D01*
X52537Y19410D01*
X52531Y19415D01*
X52525Y19421D01*
X52524Y19421D01*
X52523Y19422D01*
X52522Y19424D01*
X52520Y19427D01*
X52517Y19431D01*
X52514Y19435D01*
X52511Y19440D01*
X52508Y19446D01*
X52504Y19453D01*
X52501Y19461D01*
X52498Y19470D01*
X52495Y19480D01*
X52492Y19491D01*
X52489Y19503D01*
X52487Y19516D01*
X52486Y19530D01*
X52486Y19531D01*
X52486Y19531D01*
X52486Y19532D01*
X52485Y19534D01*
X52485Y19538D01*
X52485Y19544D01*
X52485Y19551D01*
X52485Y19560D01*
X52485Y19569D01*
X52485Y19579D01*
X52486Y19589D01*
X52487Y19600D01*
X52489Y19611D01*
X52491Y19622D01*
X52494Y19632D01*
X52498Y19642D01*
X52502Y19652D01*
X52507Y19660D01*
X52507Y19660D01*
X52508Y19661D01*
X52510Y19663D01*
X52512Y19666D01*
X52514Y19669D01*
X52517Y19672D01*
X52521Y19676D01*
X52525Y19679D01*
X52530Y19683D01*
X52536Y19687D01*
X52542Y19690D01*
X52548Y19693D01*
X52555Y19696D01*
X52563Y19699D01*
X52571Y19700D01*
X52580Y19701D01*
X52583Y19702D01*
X52586Y19702D01*
X52589Y19702D01*
X52593Y19702D01*
D02*
G37*
G36*
X51616Y21477D02*
X51615Y21476D01*
X51614Y21475D01*
X51613Y21473D01*
X51611Y21471D01*
X51608Y21468D01*
X51605Y21464D01*
X51601Y21460D01*
X51597Y21455D01*
X51593Y21449D01*
X51589Y21443D01*
X51584Y21436D01*
X51579Y21429D01*
X51574Y21421D01*
X51569Y21413D01*
X51563Y21404D01*
X51558Y21395D01*
X51558Y21394D01*
X51557Y21393D01*
X51555Y21390D01*
X51553Y21386D01*
X51551Y21381D01*
X51548Y21376D01*
X51545Y21370D01*
X51542Y21363D01*
X51539Y21355D01*
X51535Y21347D01*
X51531Y21338D01*
X51528Y21329D01*
X51521Y21310D01*
X51514Y21290D01*
Y21290D01*
X51514Y21289D01*
X51514Y21286D01*
X51513Y21284D01*
X51512Y21280D01*
X51511Y21276D01*
X51510Y21271D01*
X51509Y21266D01*
X51507Y21260D01*
X51506Y21253D01*
X51504Y21239D01*
X51502Y21224D01*
X51500Y21207D01*
X51462D01*
Y21208D01*
Y21209D01*
Y21211D01*
X51463Y21213D01*
Y21217D01*
X51463Y21221D01*
X51464Y21226D01*
X51464Y21231D01*
X51465Y21237D01*
X51466Y21244D01*
X51467Y21251D01*
X51469Y21258D01*
X51470Y21266D01*
X51472Y21275D01*
X51476Y21293D01*
Y21293D01*
X51476Y21295D01*
X51477Y21298D01*
X51479Y21302D01*
X51480Y21306D01*
X51482Y21311D01*
X51483Y21317D01*
X51486Y21324D01*
X51489Y21331D01*
X51491Y21339D01*
X51498Y21355D01*
X51506Y21373D01*
X51514Y21390D01*
X51515Y21391D01*
X51516Y21393D01*
X51517Y21395D01*
X51519Y21398D01*
X51521Y21402D01*
X51524Y21407D01*
X51527Y21412D01*
X51531Y21418D01*
X51539Y21431D01*
X51548Y21444D01*
X51558Y21457D01*
X51568Y21470D01*
X51420D01*
Y21506D01*
X51616D01*
Y21477D01*
D02*
G37*
G36*
X24758Y19349D02*
X24637D01*
X24620Y19267D01*
X24621Y19268D01*
X24622Y19268D01*
X24623Y19269D01*
X24625Y19270D01*
X24628Y19272D01*
X24631Y19273D01*
X24638Y19277D01*
X24647Y19280D01*
X24656Y19284D01*
X24667Y19286D01*
X24672Y19287D01*
X24682D01*
X24684Y19286D01*
X24688Y19286D01*
X24692Y19285D01*
X24696Y19284D01*
X24701Y19283D01*
X24711Y19280D01*
X24717Y19278D01*
X24723Y19275D01*
X24728Y19272D01*
X24734Y19268D01*
X24739Y19264D01*
X24745Y19259D01*
X24745Y19259D01*
X24746Y19258D01*
X24747Y19256D01*
X24749Y19254D01*
X24751Y19251D01*
X24753Y19248D01*
X24756Y19244D01*
X24759Y19240D01*
X24761Y19235D01*
X24763Y19230D01*
X24766Y19224D01*
X24768Y19218D01*
X24769Y19211D01*
X24771Y19204D01*
X24772Y19196D01*
X24772Y19188D01*
Y19188D01*
Y19187D01*
Y19184D01*
X24772Y19181D01*
X24771Y19178D01*
X24771Y19174D01*
X24770Y19169D01*
X24769Y19164D01*
X24766Y19153D01*
X24762Y19141D01*
X24759Y19135D01*
X24756Y19129D01*
X24752Y19123D01*
X24748Y19117D01*
X24748Y19117D01*
X24747Y19116D01*
X24745Y19114D01*
X24743Y19112D01*
X24740Y19109D01*
X24736Y19106D01*
X24732Y19103D01*
X24727Y19099D01*
X24722Y19096D01*
X24716Y19093D01*
X24709Y19090D01*
X24702Y19086D01*
X24695Y19084D01*
X24686Y19083D01*
X24678Y19081D01*
X24669Y19081D01*
X24665D01*
X24662Y19081D01*
X24658Y19082D01*
X24654Y19082D01*
X24649Y19083D01*
X24644Y19084D01*
X24634Y19086D01*
X24623Y19090D01*
X24617Y19093D01*
X24611Y19096D01*
X24606Y19100D01*
X24601Y19103D01*
X24600Y19104D01*
X24599Y19104D01*
X24599Y19106D01*
X24597Y19108D01*
X24595Y19110D01*
X24592Y19113D01*
X24590Y19116D01*
X24588Y19120D01*
X24585Y19124D01*
X24582Y19129D01*
X24578Y19139D01*
X24574Y19152D01*
X24572Y19158D01*
X24572Y19165D01*
X24610Y19168D01*
Y19168D01*
Y19167D01*
X24611Y19166D01*
X24611Y19163D01*
X24613Y19159D01*
X24614Y19152D01*
X24617Y19145D01*
X24620Y19138D01*
X24625Y19131D01*
X24630Y19125D01*
X24631Y19125D01*
X24633Y19123D01*
X24636Y19121D01*
X24641Y19118D01*
X24646Y19116D01*
X24653Y19114D01*
X24660Y19112D01*
X24669Y19111D01*
X24671D01*
X24673Y19112D01*
X24678Y19112D01*
X24684Y19114D01*
X24692Y19116D01*
X24699Y19120D01*
X24707Y19125D01*
X24710Y19128D01*
X24714Y19131D01*
X24714Y19132D01*
X24715Y19132D01*
X24716Y19134D01*
X24717Y19135D01*
X24720Y19140D01*
X24724Y19146D01*
X24727Y19153D01*
X24730Y19162D01*
X24732Y19173D01*
X24733Y19179D01*
Y19185D01*
Y19186D01*
Y19187D01*
Y19188D01*
X24732Y19190D01*
Y19193D01*
X24732Y19196D01*
X24731Y19203D01*
X24728Y19211D01*
X24725Y19220D01*
X24721Y19228D01*
X24715Y19235D01*
Y19235D01*
X24714Y19236D01*
X24712Y19238D01*
X24708Y19241D01*
X24703Y19245D01*
X24696Y19248D01*
X24688Y19251D01*
X24679Y19253D01*
X24673Y19254D01*
X24665D01*
X24662Y19253D01*
X24657Y19253D01*
X24652Y19252D01*
X24647Y19250D01*
X24641Y19248D01*
X24635Y19246D01*
X24635Y19245D01*
X24633Y19244D01*
X24631Y19242D01*
X24627Y19240D01*
X24624Y19237D01*
X24620Y19233D01*
X24616Y19229D01*
X24613Y19224D01*
X24578Y19229D01*
X24607Y19384D01*
X24758D01*
Y19349D01*
D02*
G37*
G36*
X25916Y16134D02*
X25922Y16133D01*
X25929Y16132D01*
X25937Y16130D01*
X25945Y16127D01*
X25953Y16124D01*
X25953D01*
X25954Y16123D01*
X25956Y16122D01*
X25960Y16119D01*
X25965Y16116D01*
X25970Y16112D01*
X25975Y16107D01*
X25980Y16101D01*
X25985Y16095D01*
X25985Y16094D01*
X25986Y16092D01*
X25988Y16088D01*
X25990Y16083D01*
X25993Y16077D01*
X25994Y16071D01*
X25996Y16063D01*
X25996Y16056D01*
Y16055D01*
Y16052D01*
X25996Y16049D01*
X25995Y16044D01*
X25993Y16038D01*
X25991Y16032D01*
X25989Y16026D01*
X25985Y16020D01*
X25985Y16019D01*
X25983Y16017D01*
X25981Y16014D01*
X25977Y16011D01*
X25973Y16007D01*
X25968Y16003D01*
X25962Y15999D01*
X25954Y15995D01*
X25955D01*
X25955Y15994D01*
X25957Y15994D01*
X25958Y15993D01*
X25963Y15992D01*
X25969Y15989D01*
X25976Y15985D01*
X25983Y15981D01*
X25990Y15975D01*
X25996Y15969D01*
X25996Y15968D01*
X25998Y15965D01*
X26001Y15961D01*
X26003Y15955D01*
X26006Y15948D01*
X26009Y15940D01*
X26010Y15930D01*
X26011Y15920D01*
Y15919D01*
Y15918D01*
Y15916D01*
X26010Y15913D01*
X26010Y15910D01*
X26009Y15906D01*
X26008Y15902D01*
X26007Y15897D01*
X26004Y15886D01*
X26001Y15881D01*
X25999Y15875D01*
X25995Y15870D01*
X25991Y15864D01*
X25987Y15858D01*
X25982Y15853D01*
X25981Y15853D01*
X25980Y15852D01*
X25979Y15850D01*
X25976Y15849D01*
X25974Y15847D01*
X25970Y15844D01*
X25966Y15842D01*
X25962Y15840D01*
X25957Y15837D01*
X25951Y15834D01*
X25945Y15832D01*
X25939Y15830D01*
X25932Y15828D01*
X25924Y15827D01*
X25917Y15826D01*
X25909Y15826D01*
X25905D01*
X25902Y15826D01*
X25899Y15826D01*
X25895Y15827D01*
X25890Y15828D01*
X25885Y15829D01*
X25875Y15831D01*
X25864Y15836D01*
X25858Y15838D01*
X25853Y15841D01*
X25848Y15845D01*
X25843Y15849D01*
X25842Y15850D01*
X25841Y15850D01*
X25840Y15852D01*
X25839Y15854D01*
X25837Y15856D01*
X25834Y15859D01*
X25832Y15862D01*
X25829Y15866D01*
X25826Y15870D01*
X25824Y15874D01*
X25819Y15885D01*
X25815Y15897D01*
X25814Y15904D01*
X25813Y15911D01*
X25850Y15916D01*
Y15915D01*
X25851Y15914D01*
X25851Y15912D01*
X25851Y15910D01*
X25852Y15908D01*
X25853Y15905D01*
X25855Y15898D01*
X25858Y15890D01*
X25862Y15883D01*
X25866Y15876D01*
X25871Y15870D01*
X25872Y15869D01*
X25874Y15867D01*
X25878Y15865D01*
X25882Y15863D01*
X25887Y15860D01*
X25894Y15858D01*
X25901Y15857D01*
X25909Y15856D01*
X25912D01*
X25913Y15857D01*
X25918Y15857D01*
X25924Y15858D01*
X25931Y15860D01*
X25939Y15864D01*
X25946Y15868D01*
X25953Y15874D01*
X25954Y15875D01*
X25956Y15878D01*
X25959Y15881D01*
X25962Y15887D01*
X25966Y15893D01*
X25968Y15901D01*
X25971Y15909D01*
X25972Y15919D01*
Y15919D01*
Y15920D01*
Y15922D01*
X25971Y15923D01*
X25971Y15928D01*
X25969Y15934D01*
X25968Y15941D01*
X25965Y15948D01*
X25960Y15955D01*
X25955Y15961D01*
X25954Y15962D01*
X25951Y15964D01*
X25948Y15967D01*
X25943Y15970D01*
X25937Y15973D01*
X25930Y15975D01*
X25921Y15977D01*
X25912Y15978D01*
X25908D01*
X25905Y15978D01*
X25901Y15977D01*
X25897Y15976D01*
X25892Y15975D01*
X25886Y15974D01*
X25890Y16007D01*
X25892D01*
X25894Y16006D01*
X25900D01*
X25905Y16007D01*
X25910Y16008D01*
X25917Y16010D01*
X25924Y16012D01*
X25931Y16015D01*
X25939Y16019D01*
X25939D01*
X25940Y16019D01*
X25942Y16021D01*
X25945Y16024D01*
X25948Y16028D01*
X25952Y16034D01*
X25955Y16040D01*
X25957Y16048D01*
X25958Y16052D01*
Y16057D01*
Y16057D01*
Y16058D01*
Y16060D01*
X25957Y16064D01*
X25956Y16069D01*
X25955Y16074D01*
X25952Y16079D01*
X25949Y16085D01*
X25944Y16090D01*
X25944Y16091D01*
X25941Y16093D01*
X25938Y16095D01*
X25934Y16097D01*
X25929Y16100D01*
X25923Y16102D01*
X25916Y16103D01*
X25908Y16104D01*
X25905D01*
X25901Y16103D01*
X25896Y16102D01*
X25890Y16100D01*
X25884Y16098D01*
X25878Y16095D01*
X25872Y16090D01*
X25872Y16090D01*
X25870Y16088D01*
X25868Y16085D01*
X25864Y16080D01*
X25861Y16075D01*
X25858Y16068D01*
X25856Y16059D01*
X25854Y16050D01*
X25817Y16056D01*
Y16057D01*
X25817Y16058D01*
X25818Y16060D01*
X25818Y16062D01*
X25819Y16065D01*
X25820Y16069D01*
X25823Y16077D01*
X25827Y16087D01*
X25833Y16096D01*
X25839Y16106D01*
X25847Y16114D01*
X25848Y16114D01*
X25849Y16115D01*
X25850Y16116D01*
X25852Y16117D01*
X25854Y16119D01*
X25857Y16121D01*
X25860Y16122D01*
X25864Y16124D01*
X25873Y16128D01*
X25883Y16131D01*
X25895Y16134D01*
X25901Y16134D01*
X25912D01*
X25916Y16134D01*
D02*
G37*
G36*
X27619Y17359D02*
X27623Y17358D01*
X27627Y17358D01*
X27632Y17357D01*
X27637Y17356D01*
X27648Y17353D01*
X27660Y17349D01*
X27665Y17346D01*
X27671Y17343D01*
X27676Y17339D01*
X27681Y17335D01*
X27681Y17334D01*
X27682Y17334D01*
X27683Y17332D01*
X27685Y17330D01*
X27687Y17328D01*
X27689Y17325D01*
X27691Y17322D01*
X27694Y17318D01*
X27698Y17310D01*
X27703Y17299D01*
X27705Y17294D01*
X27705Y17288D01*
X27706Y17282D01*
X27707Y17275D01*
Y17274D01*
Y17272D01*
X27706Y17269D01*
X27706Y17264D01*
X27705Y17259D01*
X27703Y17253D01*
X27702Y17246D01*
X27699Y17239D01*
X27698Y17239D01*
X27698Y17236D01*
X27696Y17233D01*
X27693Y17228D01*
X27690Y17223D01*
X27685Y17216D01*
X27680Y17210D01*
X27674Y17202D01*
X27673Y17201D01*
X27671Y17199D01*
X27669Y17197D01*
X27667Y17194D01*
X27664Y17192D01*
X27660Y17188D01*
X27657Y17185D01*
X27653Y17181D01*
X27648Y17177D01*
X27643Y17172D01*
X27637Y17167D01*
X27631Y17161D01*
X27624Y17156D01*
X27617Y17149D01*
X27617Y17149D01*
X27616Y17148D01*
X27614Y17147D01*
X27612Y17145D01*
X27609Y17142D01*
X27606Y17140D01*
X27599Y17134D01*
X27592Y17128D01*
X27585Y17121D01*
X27579Y17115D01*
X27576Y17113D01*
X27574Y17111D01*
X27573Y17111D01*
X27572Y17109D01*
X27570Y17108D01*
X27568Y17105D01*
X27566Y17102D01*
X27563Y17099D01*
X27558Y17091D01*
X27707D01*
Y17056D01*
X27507D01*
Y17056D01*
Y17058D01*
Y17060D01*
X27507Y17064D01*
X27507Y17068D01*
X27508Y17072D01*
X27509Y17076D01*
X27511Y17081D01*
Y17082D01*
X27511Y17082D01*
X27512Y17085D01*
X27514Y17089D01*
X27517Y17094D01*
X27520Y17100D01*
X27525Y17107D01*
X27529Y17114D01*
X27535Y17121D01*
Y17122D01*
X27536Y17122D01*
X27539Y17125D01*
X27542Y17129D01*
X27548Y17135D01*
X27555Y17141D01*
X27563Y17149D01*
X27573Y17158D01*
X27584Y17167D01*
X27584Y17167D01*
X27586Y17169D01*
X27589Y17171D01*
X27592Y17174D01*
X27596Y17177D01*
X27601Y17181D01*
X27605Y17185D01*
X27611Y17190D01*
X27622Y17201D01*
X27633Y17211D01*
X27638Y17216D01*
X27643Y17222D01*
X27647Y17226D01*
X27651Y17231D01*
Y17232D01*
X27652Y17232D01*
X27653Y17233D01*
X27653Y17235D01*
X27657Y17240D01*
X27660Y17246D01*
X27663Y17253D01*
X27666Y17260D01*
X27668Y17268D01*
X27669Y17276D01*
Y17277D01*
Y17277D01*
X27668Y17280D01*
X27668Y17284D01*
X27667Y17289D01*
X27665Y17295D01*
X27662Y17301D01*
X27658Y17307D01*
X27653Y17313D01*
X27652Y17314D01*
X27650Y17316D01*
X27646Y17318D01*
X27642Y17321D01*
X27636Y17324D01*
X27629Y17326D01*
X27620Y17328D01*
X27611Y17329D01*
X27608D01*
X27607Y17328D01*
X27601Y17328D01*
X27595Y17326D01*
X27589Y17325D01*
X27581Y17322D01*
X27574Y17318D01*
X27568Y17312D01*
X27567Y17312D01*
X27565Y17309D01*
X27563Y17306D01*
X27560Y17301D01*
X27557Y17295D01*
X27554Y17287D01*
X27552Y17278D01*
X27552Y17268D01*
X27514Y17272D01*
Y17272D01*
X27514Y17274D01*
Y17276D01*
X27514Y17279D01*
X27515Y17282D01*
X27516Y17286D01*
X27518Y17291D01*
X27519Y17296D01*
X27522Y17306D01*
X27528Y17317D01*
X27531Y17322D01*
X27535Y17327D01*
X27539Y17332D01*
X27543Y17336D01*
X27543Y17337D01*
X27544Y17337D01*
X27545Y17339D01*
X27548Y17340D01*
X27550Y17342D01*
X27553Y17343D01*
X27557Y17346D01*
X27561Y17348D01*
X27566Y17350D01*
X27571Y17352D01*
X27577Y17354D01*
X27583Y17356D01*
X27590Y17357D01*
X27597Y17358D01*
X27604Y17359D01*
X27612Y17359D01*
X27616D01*
X27619Y17359D01*
D02*
G37*
G36*
X24074Y17277D02*
X24116D01*
Y17243D01*
X24074D01*
Y17171D01*
X24037D01*
Y17243D01*
X23906D01*
Y17277D01*
X24044Y17473D01*
X24074D01*
Y17277D01*
D02*
G37*
G36*
X27098Y19130D02*
X27060D01*
Y19366D01*
X27060Y19366D01*
X27058Y19364D01*
X27055Y19361D01*
X27051Y19358D01*
X27046Y19354D01*
X27040Y19350D01*
X27033Y19345D01*
X27025Y19340D01*
X27025D01*
X27024Y19340D01*
X27022Y19338D01*
X27017Y19336D01*
X27012Y19333D01*
X27006Y19330D01*
X26999Y19327D01*
X26993Y19324D01*
X26986Y19321D01*
Y19357D01*
X26987D01*
X26988Y19358D01*
X26989Y19359D01*
X26991Y19360D01*
X26994Y19361D01*
X26997Y19363D01*
X27005Y19367D01*
X27013Y19372D01*
X27022Y19378D01*
X27031Y19385D01*
X27040Y19393D01*
X27041Y19393D01*
X27041Y19394D01*
X27043Y19395D01*
X27044Y19396D01*
X27048Y19401D01*
X27053Y19406D01*
X27059Y19412D01*
X27064Y19419D01*
X27069Y19426D01*
X27074Y19433D01*
X27098D01*
Y19130D01*
D02*
G37*
G36*
X47723Y15945D02*
X47728D01*
X47738Y15944D01*
X47750Y15943D01*
X47762Y15940D01*
X47775Y15936D01*
X47788Y15932D01*
X47789D01*
X47790Y15932D01*
X47791Y15931D01*
X47794Y15930D01*
X47800Y15927D01*
X47807Y15923D01*
X47816Y15917D01*
X47825Y15910D01*
X47833Y15903D01*
X47841Y15894D01*
X47842Y15893D01*
X47844Y15890D01*
X47847Y15885D01*
X47852Y15878D01*
X47856Y15869D01*
X47861Y15858D01*
X47866Y15845D01*
X47870Y15832D01*
X47824Y15819D01*
Y15820D01*
X47824Y15820D01*
X47823Y15822D01*
X47822Y15824D01*
X47821Y15829D01*
X47819Y15836D01*
X47815Y15844D01*
X47811Y15851D01*
X47807Y15859D01*
X47802Y15865D01*
X47802Y15866D01*
X47800Y15868D01*
X47797Y15871D01*
X47793Y15875D01*
X47788Y15879D01*
X47781Y15884D01*
X47774Y15888D01*
X47766Y15892D01*
X47765Y15893D01*
X47762Y15894D01*
X47757Y15895D01*
X47750Y15898D01*
X47742Y15899D01*
X47734Y15901D01*
X47724Y15902D01*
X47713Y15903D01*
X47707D01*
X47704Y15902D01*
X47701D01*
X47693Y15902D01*
X47683Y15900D01*
X47673Y15898D01*
X47663Y15895D01*
X47653Y15892D01*
X47651Y15891D01*
X47648Y15890D01*
X47644Y15887D01*
X47638Y15884D01*
X47631Y15880D01*
X47624Y15875D01*
X47618Y15870D01*
X47612Y15864D01*
X47611Y15863D01*
X47609Y15861D01*
X47606Y15857D01*
X47603Y15853D01*
X47599Y15847D01*
X47595Y15840D01*
X47591Y15833D01*
X47587Y15826D01*
Y15825D01*
X47587Y15824D01*
X47586Y15822D01*
X47585Y15819D01*
X47584Y15816D01*
X47583Y15812D01*
X47581Y15808D01*
X47580Y15803D01*
X47577Y15791D01*
X47575Y15778D01*
X47573Y15764D01*
X47573Y15748D01*
Y15748D01*
Y15746D01*
Y15743D01*
X47573Y15740D01*
Y15736D01*
X47574Y15730D01*
X47574Y15724D01*
X47575Y15718D01*
X47577Y15705D01*
X47580Y15690D01*
X47584Y15676D01*
X47590Y15662D01*
Y15661D01*
X47591Y15660D01*
X47592Y15658D01*
X47593Y15656D01*
X47597Y15650D01*
X47603Y15642D01*
X47610Y15634D01*
X47619Y15626D01*
X47630Y15618D01*
X47641Y15611D01*
X47642D01*
X47643Y15610D01*
X47645Y15609D01*
X47648Y15608D01*
X47650Y15607D01*
X47654Y15606D01*
X47663Y15602D01*
X47674Y15600D01*
X47686Y15597D01*
X47700Y15595D01*
X47714Y15594D01*
X47719D01*
X47723Y15595D01*
X47726D01*
X47734Y15596D01*
X47744Y15597D01*
X47755Y15599D01*
X47766Y15602D01*
X47778Y15606D01*
X47779D01*
X47780Y15607D01*
X47781Y15607D01*
X47783Y15608D01*
X47789Y15611D01*
X47796Y15615D01*
X47804Y15618D01*
X47812Y15623D01*
X47820Y15628D01*
X47826Y15633D01*
Y15706D01*
X47713D01*
Y15751D01*
X47876D01*
Y15608D01*
X47876Y15608D01*
X47875Y15607D01*
X47872Y15606D01*
X47870Y15603D01*
X47866Y15601D01*
X47862Y15598D01*
X47857Y15595D01*
X47852Y15592D01*
X47841Y15585D01*
X47827Y15577D01*
X47814Y15570D01*
X47799Y15564D01*
X47798D01*
X47797Y15563D01*
X47795Y15562D01*
X47792Y15561D01*
X47788Y15560D01*
X47784Y15559D01*
X47779Y15557D01*
X47774Y15556D01*
X47761Y15554D01*
X47747Y15551D01*
X47733Y15549D01*
X47717Y15549D01*
X47711D01*
X47708Y15549D01*
X47703D01*
X47696Y15550D01*
X47690Y15551D01*
X47683Y15551D01*
X47666Y15555D01*
X47649Y15559D01*
X47631Y15565D01*
X47623Y15568D01*
X47614Y15572D01*
X47613Y15573D01*
X47612Y15574D01*
X47609Y15575D01*
X47606Y15577D01*
X47602Y15580D01*
X47598Y15582D01*
X47588Y15590D01*
X47577Y15600D01*
X47565Y15612D01*
X47554Y15626D01*
X47544Y15642D01*
Y15643D01*
X47543Y15645D01*
X47542Y15647D01*
X47540Y15651D01*
X47538Y15655D01*
X47537Y15660D01*
X47534Y15666D01*
X47532Y15672D01*
X47530Y15680D01*
X47528Y15688D01*
X47526Y15696D01*
X47524Y15705D01*
X47522Y15724D01*
X47520Y15745D01*
Y15746D01*
Y15748D01*
Y15751D01*
X47521Y15754D01*
Y15759D01*
X47522Y15766D01*
X47523Y15772D01*
X47523Y15779D01*
X47525Y15787D01*
X47526Y15795D01*
X47530Y15813D01*
X47536Y15831D01*
X47544Y15849D01*
X47544Y15850D01*
X47545Y15852D01*
X47546Y15854D01*
X47548Y15857D01*
X47550Y15862D01*
X47553Y15866D01*
X47561Y15877D01*
X47570Y15889D01*
X47582Y15900D01*
X47595Y15912D01*
X47603Y15917D01*
X47611Y15922D01*
X47612Y15923D01*
X47613Y15923D01*
X47615Y15924D01*
X47619Y15926D01*
X47623Y15928D01*
X47628Y15930D01*
X47634Y15932D01*
X47640Y15934D01*
X47648Y15936D01*
X47655Y15938D01*
X47664Y15940D01*
X47673Y15942D01*
X47692Y15945D01*
X47702Y15946D01*
X47720D01*
X47723Y15945D01*
D02*
G37*
G36*
X48120Y15757D02*
X48264Y15555D01*
X48201D01*
X48104Y15692D01*
X48103Y15692D01*
X48102Y15694D01*
X48101Y15696D01*
X48099Y15699D01*
X48094Y15707D01*
X48088Y15715D01*
X48088Y15714D01*
X48086Y15712D01*
X48084Y15709D01*
X48081Y15705D01*
X48075Y15696D01*
X48072Y15692D01*
X48070Y15688D01*
X47973Y15555D01*
X47912D01*
X48060Y15754D01*
X47929Y15939D01*
X47989D01*
X48059Y15840D01*
Y15840D01*
X48061Y15839D01*
X48062Y15838D01*
X48063Y15835D01*
X48067Y15830D01*
X48072Y15823D01*
X48077Y15816D01*
X48082Y15808D01*
X48086Y15801D01*
X48090Y15794D01*
X48090Y15795D01*
X48092Y15797D01*
X48095Y15802D01*
X48099Y15807D01*
X48103Y15813D01*
X48109Y15821D01*
X48114Y15829D01*
X48121Y15837D01*
X48198Y15939D01*
X48253D01*
X48120Y15757D01*
D02*
G37*
G36*
X48526Y15889D02*
X48372D01*
X48352Y15786D01*
X48352Y15786D01*
X48354Y15787D01*
X48355Y15788D01*
X48358Y15789D01*
X48361Y15791D01*
X48365Y15793D01*
X48374Y15798D01*
X48385Y15802D01*
X48397Y15806D01*
X48411Y15809D01*
X48417Y15810D01*
X48430D01*
X48433Y15809D01*
X48437Y15809D01*
X48442Y15808D01*
X48448Y15807D01*
X48454Y15806D01*
X48467Y15802D01*
X48475Y15799D01*
X48482Y15795D01*
X48489Y15791D01*
X48496Y15787D01*
X48503Y15781D01*
X48509Y15775D01*
X48510Y15774D01*
X48511Y15773D01*
X48513Y15772D01*
X48515Y15769D01*
X48518Y15765D01*
X48521Y15761D01*
X48524Y15756D01*
X48527Y15751D01*
X48530Y15744D01*
X48533Y15738D01*
X48536Y15730D01*
X48539Y15722D01*
X48541Y15714D01*
X48543Y15705D01*
X48544Y15695D01*
X48544Y15685D01*
Y15685D01*
Y15683D01*
Y15680D01*
X48544Y15676D01*
X48543Y15672D01*
X48543Y15667D01*
X48542Y15661D01*
X48541Y15655D01*
X48537Y15640D01*
X48532Y15625D01*
X48528Y15617D01*
X48524Y15610D01*
X48519Y15602D01*
X48514Y15595D01*
X48513Y15595D01*
X48512Y15593D01*
X48510Y15591D01*
X48507Y15588D01*
X48503Y15585D01*
X48499Y15580D01*
X48493Y15576D01*
X48487Y15572D01*
X48481Y15567D01*
X48473Y15564D01*
X48465Y15560D01*
X48456Y15556D01*
X48446Y15553D01*
X48436Y15551D01*
X48425Y15549D01*
X48413Y15549D01*
X48408D01*
X48404Y15549D01*
X48400Y15550D01*
X48395Y15550D01*
X48389Y15551D01*
X48382Y15552D01*
X48369Y15556D01*
X48355Y15561D01*
X48347Y15564D01*
X48340Y15568D01*
X48334Y15572D01*
X48327Y15577D01*
X48326Y15578D01*
X48325Y15579D01*
X48324Y15581D01*
X48322Y15583D01*
X48319Y15586D01*
X48316Y15589D01*
X48313Y15594D01*
X48310Y15598D01*
X48307Y15603D01*
X48304Y15610D01*
X48297Y15623D01*
X48292Y15638D01*
X48291Y15647D01*
X48290Y15656D01*
X48339Y15660D01*
Y15659D01*
Y15658D01*
X48340Y15656D01*
X48340Y15653D01*
X48342Y15647D01*
X48344Y15639D01*
X48347Y15631D01*
X48352Y15621D01*
X48357Y15613D01*
X48364Y15605D01*
X48365Y15605D01*
X48367Y15602D01*
X48372Y15600D01*
X48378Y15596D01*
X48385Y15593D01*
X48393Y15590D01*
X48402Y15588D01*
X48413Y15587D01*
X48416D01*
X48418Y15588D01*
X48425Y15589D01*
X48433Y15591D01*
X48442Y15594D01*
X48452Y15598D01*
X48462Y15605D01*
X48466Y15608D01*
X48471Y15613D01*
X48471Y15613D01*
X48472Y15614D01*
X48473Y15616D01*
X48475Y15617D01*
X48478Y15623D01*
X48483Y15631D01*
X48487Y15641D01*
X48491Y15652D01*
X48493Y15666D01*
X48495Y15673D01*
Y15681D01*
Y15682D01*
Y15683D01*
Y15685D01*
X48494Y15688D01*
Y15691D01*
X48493Y15695D01*
X48492Y15704D01*
X48489Y15714D01*
X48485Y15725D01*
X48480Y15735D01*
X48472Y15744D01*
Y15745D01*
X48471Y15746D01*
X48468Y15748D01*
X48463Y15752D01*
X48456Y15757D01*
X48447Y15761D01*
X48437Y15764D01*
X48426Y15767D01*
X48419Y15768D01*
X48408D01*
X48404Y15768D01*
X48398Y15767D01*
X48392Y15766D01*
X48385Y15764D01*
X48378Y15761D01*
X48371Y15758D01*
X48370Y15757D01*
X48368Y15756D01*
X48365Y15753D01*
X48360Y15751D01*
X48356Y15747D01*
X48351Y15742D01*
X48346Y15737D01*
X48342Y15731D01*
X48298Y15737D01*
X48335Y15934D01*
X48526D01*
Y15889D01*
D02*
G37*
G36*
X55173Y19478D02*
X55177D01*
X55188Y19477D01*
X55199Y19475D01*
X55212Y19473D01*
X55225Y19469D01*
X55238Y19465D01*
X55238D01*
X55239Y19464D01*
X55241Y19464D01*
X55243Y19463D01*
X55249Y19459D01*
X55257Y19455D01*
X55265Y19450D01*
X55274Y19443D01*
X55283Y19436D01*
X55290Y19427D01*
X55292Y19426D01*
X55294Y19423D01*
X55297Y19418D01*
X55302Y19410D01*
X55306Y19402D01*
X55311Y19390D01*
X55316Y19378D01*
X55320Y19364D01*
X55274Y19352D01*
Y19353D01*
X55273Y19353D01*
X55273Y19355D01*
X55272Y19357D01*
X55270Y19362D01*
X55268Y19369D01*
X55265Y19377D01*
X55261Y19384D01*
X55257Y19392D01*
X55252Y19398D01*
X55252Y19399D01*
X55250Y19401D01*
X55247Y19404D01*
X55243Y19408D01*
X55238Y19412D01*
X55231Y19417D01*
X55224Y19421D01*
X55216Y19425D01*
X55214Y19425D01*
X55212Y19427D01*
X55207Y19428D01*
X55200Y19430D01*
X55192Y19432D01*
X55183Y19434D01*
X55173Y19435D01*
X55163Y19435D01*
X55157D01*
X55154Y19435D01*
X55151D01*
X55142Y19434D01*
X55133Y19433D01*
X55122Y19431D01*
X55112Y19428D01*
X55102Y19424D01*
X55101Y19424D01*
X55098Y19423D01*
X55093Y19420D01*
X55088Y19417D01*
X55081Y19413D01*
X55074Y19408D01*
X55067Y19403D01*
X55061Y19397D01*
X55061Y19396D01*
X55058Y19394D01*
X55056Y19390D01*
X55052Y19385D01*
X55048Y19380D01*
X55045Y19373D01*
X55041Y19366D01*
X55037Y19358D01*
Y19358D01*
X55036Y19357D01*
X55036Y19355D01*
X55035Y19352D01*
X55033Y19349D01*
X55032Y19345D01*
X55031Y19340D01*
X55030Y19336D01*
X55027Y19324D01*
X55025Y19311D01*
X55023Y19297D01*
X55022Y19281D01*
Y19281D01*
Y19279D01*
Y19276D01*
X55023Y19273D01*
Y19268D01*
X55024Y19263D01*
X55024Y19257D01*
X55025Y19251D01*
X55027Y19237D01*
X55030Y19223D01*
X55034Y19208D01*
X55040Y19195D01*
Y19194D01*
X55041Y19193D01*
X55041Y19191D01*
X55043Y19189D01*
X55047Y19183D01*
X55053Y19175D01*
X55060Y19167D01*
X55069Y19158D01*
X55080Y19151D01*
X55091Y19143D01*
X55092D01*
X55093Y19143D01*
X55095Y19142D01*
X55097Y19141D01*
X55100Y19140D01*
X55104Y19138D01*
X55113Y19135D01*
X55124Y19132D01*
X55136Y19130D01*
X55149Y19127D01*
X55163Y19127D01*
X55169D01*
X55172Y19127D01*
X55176D01*
X55184Y19128D01*
X55194Y19130D01*
X55204Y19132D01*
X55216Y19135D01*
X55228Y19139D01*
X55228D01*
X55229Y19140D01*
X55231Y19140D01*
X55233Y19141D01*
X55239Y19144D01*
X55246Y19147D01*
X55253Y19151D01*
X55262Y19156D01*
X55269Y19161D01*
X55276Y19166D01*
Y19238D01*
X55163D01*
Y19284D01*
X55326D01*
Y19141D01*
X55325Y19141D01*
X55324Y19140D01*
X55322Y19138D01*
X55319Y19136D01*
X55316Y19134D01*
X55312Y19131D01*
X55307Y19128D01*
X55302Y19125D01*
X55290Y19117D01*
X55277Y19110D01*
X55263Y19102D01*
X55248Y19096D01*
X55248D01*
X55247Y19096D01*
X55244Y19095D01*
X55242Y19094D01*
X55238Y19093D01*
X55233Y19091D01*
X55228Y19090D01*
X55223Y19089D01*
X55211Y19086D01*
X55197Y19084D01*
X55182Y19082D01*
X55167Y19081D01*
X55161D01*
X55157Y19082D01*
X55152D01*
X55146Y19082D01*
X55140Y19084D01*
X55132Y19084D01*
X55116Y19087D01*
X55099Y19091D01*
X55081Y19097D01*
X55072Y19101D01*
X55063Y19105D01*
X55063Y19106D01*
X55061Y19106D01*
X55059Y19108D01*
X55056Y19110D01*
X55052Y19112D01*
X55048Y19115D01*
X55037Y19123D01*
X55026Y19133D01*
X55015Y19145D01*
X55004Y19159D01*
X54994Y19175D01*
Y19176D01*
X54992Y19177D01*
X54991Y19180D01*
X54990Y19183D01*
X54988Y19187D01*
X54986Y19193D01*
X54984Y19198D01*
X54982Y19205D01*
X54980Y19212D01*
X54977Y19221D01*
X54976Y19229D01*
X54974Y19238D01*
X54971Y19257D01*
X54970Y19278D01*
Y19278D01*
Y19281D01*
Y19283D01*
X54971Y19287D01*
Y19292D01*
X54971Y19298D01*
X54972Y19304D01*
X54973Y19312D01*
X54975Y19319D01*
X54976Y19328D01*
X54980Y19345D01*
X54986Y19364D01*
X54994Y19382D01*
X54994Y19383D01*
X54995Y19384D01*
X54996Y19387D01*
X54998Y19390D01*
X55000Y19394D01*
X55003Y19399D01*
X55011Y19409D01*
X55020Y19422D01*
X55032Y19433D01*
X55045Y19445D01*
X55053Y19450D01*
X55061Y19455D01*
X55061Y19455D01*
X55063Y19456D01*
X55065Y19457D01*
X55068Y19459D01*
X55073Y19460D01*
X55078Y19463D01*
X55083Y19465D01*
X55090Y19467D01*
X55097Y19469D01*
X55105Y19471D01*
X55113Y19473D01*
X55122Y19475D01*
X55142Y19478D01*
X55152Y19479D01*
X55169D01*
X55173Y19478D01*
D02*
G37*
G36*
X55570Y19289D02*
X55713Y19088D01*
X55651D01*
X55554Y19224D01*
X55553Y19225D01*
X55552Y19227D01*
X55551Y19229D01*
X55549Y19232D01*
X55544Y19239D01*
X55538Y19248D01*
X55537Y19247D01*
X55536Y19245D01*
X55534Y19242D01*
X55531Y19237D01*
X55525Y19228D01*
X55522Y19224D01*
X55520Y19221D01*
X55423Y19088D01*
X55362D01*
X55510Y19287D01*
X55379Y19472D01*
X55439D01*
X55509Y19373D01*
Y19373D01*
X55510Y19372D01*
X55511Y19370D01*
X55513Y19368D01*
X55516Y19363D01*
X55521Y19356D01*
X55526Y19348D01*
X55531Y19340D01*
X55536Y19333D01*
X55540Y19327D01*
X55540Y19328D01*
X55542Y19330D01*
X55545Y19334D01*
X55549Y19340D01*
X55553Y19346D01*
X55559Y19354D01*
X55564Y19362D01*
X55571Y19370D01*
X55647Y19472D01*
X55703D01*
X55570Y19289D01*
D02*
G37*
G36*
X55938Y19223D02*
X55990D01*
Y19180D01*
X55938D01*
Y19088D01*
X55890D01*
Y19180D01*
X55723D01*
Y19223D01*
X55899Y19472D01*
X55938D01*
Y19223D01*
D02*
G37*
G36*
X27402Y15638D02*
X27406D01*
X27417Y15637D01*
X27429Y15635D01*
X27441Y15633D01*
X27454Y15629D01*
X27467Y15625D01*
X27467D01*
X27469Y15624D01*
X27470Y15624D01*
X27472Y15623D01*
X27479Y15619D01*
X27486Y15615D01*
X27495Y15610D01*
X27504Y15603D01*
X27512Y15596D01*
X27520Y15587D01*
X27521Y15586D01*
X27523Y15583D01*
X27526Y15578D01*
X27531Y15570D01*
X27535Y15562D01*
X27540Y15550D01*
X27545Y15538D01*
X27549Y15524D01*
X27503Y15512D01*
Y15513D01*
X27502Y15513D01*
X27502Y15515D01*
X27501Y15517D01*
X27500Y15522D01*
X27497Y15529D01*
X27494Y15537D01*
X27490Y15544D01*
X27486Y15552D01*
X27481Y15558D01*
X27481Y15559D01*
X27479Y15561D01*
X27476Y15564D01*
X27472Y15568D01*
X27467Y15572D01*
X27460Y15577D01*
X27453Y15581D01*
X27445Y15585D01*
X27444Y15585D01*
X27441Y15587D01*
X27436Y15588D01*
X27429Y15590D01*
X27421Y15592D01*
X27413Y15594D01*
X27403Y15595D01*
X27392Y15595D01*
X27386D01*
X27383Y15595D01*
X27380D01*
X27371Y15594D01*
X27362Y15593D01*
X27351Y15591D01*
X27341Y15588D01*
X27331Y15584D01*
X27330Y15584D01*
X27327Y15583D01*
X27323Y15580D01*
X27317Y15577D01*
X27310Y15573D01*
X27303Y15568D01*
X27297Y15563D01*
X27290Y15557D01*
X27290Y15556D01*
X27288Y15554D01*
X27285Y15550D01*
X27282Y15545D01*
X27278Y15540D01*
X27274Y15533D01*
X27270Y15526D01*
X27266Y15518D01*
Y15518D01*
X27265Y15517D01*
X27265Y15515D01*
X27264Y15512D01*
X27263Y15509D01*
X27262Y15505D01*
X27260Y15501D01*
X27259Y15496D01*
X27256Y15484D01*
X27254Y15471D01*
X27252Y15457D01*
X27252Y15441D01*
Y15441D01*
Y15439D01*
Y15436D01*
X27252Y15433D01*
Y15428D01*
X27253Y15423D01*
X27253Y15417D01*
X27254Y15411D01*
X27256Y15397D01*
X27259Y15383D01*
X27263Y15368D01*
X27269Y15355D01*
Y15354D01*
X27270Y15353D01*
X27270Y15351D01*
X27272Y15349D01*
X27276Y15343D01*
X27282Y15335D01*
X27289Y15327D01*
X27298Y15318D01*
X27309Y15311D01*
X27320Y15303D01*
X27321D01*
X27322Y15303D01*
X27324Y15302D01*
X27326Y15301D01*
X27329Y15300D01*
X27333Y15298D01*
X27342Y15295D01*
X27353Y15292D01*
X27365Y15290D01*
X27379Y15287D01*
X27393Y15287D01*
X27398D01*
X27401Y15287D01*
X27405D01*
X27413Y15288D01*
X27423Y15290D01*
X27434Y15292D01*
X27445Y15295D01*
X27457Y15299D01*
X27457D01*
X27459Y15300D01*
X27460Y15300D01*
X27462Y15301D01*
X27468Y15304D01*
X27475Y15307D01*
X27482Y15311D01*
X27491Y15316D01*
X27499Y15321D01*
X27505Y15326D01*
Y15398D01*
X27392D01*
Y15444D01*
X27555D01*
Y15301D01*
X27555Y15301D01*
X27553Y15300D01*
X27551Y15298D01*
X27548Y15296D01*
X27545Y15294D01*
X27541Y15291D01*
X27536Y15288D01*
X27531Y15285D01*
X27520Y15277D01*
X27506Y15270D01*
X27492Y15262D01*
X27477Y15256D01*
X27477D01*
X27476Y15256D01*
X27474Y15255D01*
X27471Y15254D01*
X27467Y15253D01*
X27462Y15251D01*
X27457Y15250D01*
X27452Y15249D01*
X27440Y15246D01*
X27426Y15244D01*
X27411Y15242D01*
X27396Y15241D01*
X27390D01*
X27386Y15242D01*
X27381D01*
X27375Y15242D01*
X27369Y15244D01*
X27361Y15244D01*
X27345Y15247D01*
X27328Y15251D01*
X27310Y15257D01*
X27302Y15261D01*
X27293Y15265D01*
X27292Y15266D01*
X27290Y15266D01*
X27288Y15268D01*
X27285Y15270D01*
X27281Y15272D01*
X27277Y15275D01*
X27267Y15283D01*
X27255Y15293D01*
X27244Y15305D01*
X27233Y15319D01*
X27223Y15335D01*
Y15336D01*
X27222Y15337D01*
X27220Y15340D01*
X27219Y15343D01*
X27217Y15347D01*
X27215Y15353D01*
X27213Y15358D01*
X27211Y15365D01*
X27209Y15372D01*
X27207Y15381D01*
X27205Y15389D01*
X27203Y15398D01*
X27201Y15417D01*
X27199Y15438D01*
Y15438D01*
Y15441D01*
Y15443D01*
X27200Y15447D01*
Y15452D01*
X27201Y15458D01*
X27202Y15464D01*
X27202Y15472D01*
X27204Y15479D01*
X27205Y15488D01*
X27209Y15505D01*
X27215Y15524D01*
X27223Y15542D01*
X27223Y15543D01*
X27224Y15544D01*
X27225Y15547D01*
X27227Y15550D01*
X27229Y15554D01*
X27232Y15559D01*
X27240Y15569D01*
X27249Y15582D01*
X27261Y15593D01*
X27274Y15605D01*
X27282Y15610D01*
X27290Y15615D01*
X27290Y15615D01*
X27292Y15616D01*
X27294Y15617D01*
X27298Y15619D01*
X27302Y15620D01*
X27307Y15623D01*
X27313Y15625D01*
X27319Y15627D01*
X27326Y15629D01*
X27334Y15631D01*
X27343Y15633D01*
X27351Y15635D01*
X27371Y15638D01*
X27381Y15639D01*
X27399D01*
X27402Y15638D01*
D02*
G37*
G36*
X27799Y15449D02*
X27943Y15248D01*
X27880D01*
X27783Y15385D01*
X27782Y15385D01*
X27781Y15387D01*
X27780Y15389D01*
X27778Y15392D01*
X27773Y15399D01*
X27767Y15408D01*
X27767Y15407D01*
X27765Y15405D01*
X27763Y15402D01*
X27760Y15397D01*
X27754Y15388D01*
X27751Y15385D01*
X27749Y15381D01*
X27652Y15248D01*
X27591D01*
X27739Y15447D01*
X27608Y15632D01*
X27668D01*
X27738Y15533D01*
Y15533D01*
X27739Y15532D01*
X27741Y15530D01*
X27742Y15528D01*
X27746Y15523D01*
X27751Y15516D01*
X27756Y15508D01*
X27761Y15501D01*
X27765Y15493D01*
X27769Y15487D01*
X27769Y15488D01*
X27771Y15490D01*
X27774Y15494D01*
X27778Y15500D01*
X27782Y15506D01*
X27788Y15514D01*
X27793Y15522D01*
X27800Y15530D01*
X27877Y15632D01*
X27932D01*
X27799Y15449D01*
D02*
G37*
G36*
X28221Y15590D02*
X28220Y15589D01*
X28219Y15588D01*
X28217Y15586D01*
X28214Y15583D01*
X28211Y15579D01*
X28207Y15574D01*
X28202Y15569D01*
X28197Y15562D01*
X28192Y15555D01*
X28186Y15548D01*
X28180Y15539D01*
X28174Y15530D01*
X28167Y15520D01*
X28161Y15509D01*
X28154Y15498D01*
X28147Y15486D01*
X28147Y15486D01*
X28146Y15483D01*
X28144Y15480D01*
X28141Y15475D01*
X28138Y15469D01*
X28135Y15462D01*
X28131Y15454D01*
X28127Y15446D01*
X28123Y15436D01*
X28118Y15426D01*
X28113Y15414D01*
X28109Y15403D01*
X28100Y15379D01*
X28092Y15353D01*
Y15353D01*
X28091Y15351D01*
X28091Y15348D01*
X28090Y15345D01*
X28089Y15341D01*
X28087Y15335D01*
X28086Y15329D01*
X28085Y15322D01*
X28083Y15315D01*
X28081Y15306D01*
X28079Y15288D01*
X28076Y15269D01*
X28074Y15248D01*
X28026D01*
Y15249D01*
Y15250D01*
Y15252D01*
X28026Y15256D01*
Y15260D01*
X28027Y15266D01*
X28027Y15272D01*
X28028Y15279D01*
X28029Y15286D01*
X28030Y15294D01*
X28032Y15303D01*
X28034Y15313D01*
X28035Y15323D01*
X28037Y15334D01*
X28043Y15357D01*
Y15357D01*
X28044Y15360D01*
X28045Y15363D01*
X28046Y15368D01*
X28048Y15373D01*
X28050Y15380D01*
X28052Y15388D01*
X28056Y15396D01*
X28059Y15406D01*
X28062Y15415D01*
X28071Y15436D01*
X28081Y15458D01*
X28092Y15481D01*
X28092Y15481D01*
X28094Y15483D01*
X28095Y15486D01*
X28097Y15491D01*
X28100Y15496D01*
X28104Y15502D01*
X28108Y15508D01*
X28112Y15515D01*
X28123Y15532D01*
X28134Y15548D01*
X28147Y15565D01*
X28160Y15582D01*
X27972D01*
Y15627D01*
X28221D01*
Y15590D01*
D02*
G37*
%LPC*%
G36*
X59508Y20064D02*
X59505D01*
X59501Y20063D01*
X59496Y20062D01*
X59490Y20060D01*
X59484Y20058D01*
X59478Y20055D01*
X59473Y20050D01*
X59472Y20049D01*
X59470Y20048D01*
X59468Y20044D01*
X59466Y20041D01*
X59463Y20036D01*
X59461Y20030D01*
X59459Y20024D01*
X59459Y20017D01*
Y20017D01*
Y20016D01*
X59459Y20013D01*
X59460Y20010D01*
X59461Y20005D01*
X59462Y19999D01*
X59465Y19993D01*
X59468Y19987D01*
X59473Y19982D01*
X59473Y19982D01*
X59475Y19980D01*
X59478Y19978D01*
X59482Y19975D01*
X59487Y19973D01*
X59493Y19971D01*
X59500Y19969D01*
X59508Y19968D01*
X59509D01*
X59512Y19969D01*
X59516Y19969D01*
X59521Y19970D01*
X59527Y19972D01*
X59532Y19974D01*
X59538Y19978D01*
X59544Y19982D01*
X59544Y19982D01*
X59546Y19985D01*
X59548Y19987D01*
X59551Y19991D01*
X59553Y19996D01*
X59556Y20002D01*
X59557Y20008D01*
X59558Y20015D01*
Y20016D01*
Y20016D01*
Y20019D01*
X59557Y20023D01*
X59556Y20027D01*
X59554Y20033D01*
X59552Y20038D01*
X59548Y20044D01*
X59543Y20050D01*
X59543Y20050D01*
X59541Y20052D01*
X59538Y20054D01*
X59534Y20057D01*
X59528Y20059D01*
X59523Y20062D01*
X59516Y20063D01*
X59508Y20064D01*
D02*
G37*
G36*
X59507Y19938D02*
X59504D01*
X59503Y19938D01*
X59498Y19937D01*
X59492Y19936D01*
X59485Y19934D01*
X59478Y19931D01*
X59470Y19926D01*
X59464Y19921D01*
X59463Y19920D01*
X59461Y19918D01*
X59459Y19914D01*
X59455Y19909D01*
X59452Y19902D01*
X59449Y19895D01*
X59448Y19887D01*
X59447Y19878D01*
Y19877D01*
Y19875D01*
X59447Y19872D01*
X59448Y19868D01*
X59448Y19863D01*
X59450Y19858D01*
X59452Y19853D01*
X59454Y19847D01*
X59454Y19847D01*
X59455Y19844D01*
X59457Y19842D01*
X59459Y19839D01*
X59462Y19835D01*
X59466Y19831D01*
X59471Y19827D01*
X59476Y19824D01*
X59477Y19823D01*
X59479Y19822D01*
X59482Y19821D01*
X59486Y19820D01*
X59490Y19819D01*
X59496Y19817D01*
X59502Y19816D01*
X59508Y19816D01*
X59511D01*
X59513Y19816D01*
X59518Y19817D01*
X59524Y19818D01*
X59531Y19820D01*
X59538Y19823D01*
X59545Y19827D01*
X59552Y19833D01*
X59553Y19834D01*
X59555Y19836D01*
X59558Y19840D01*
X59561Y19845D01*
X59564Y19851D01*
X59567Y19858D01*
X59569Y19867D01*
X59570Y19876D01*
Y19877D01*
Y19878D01*
Y19879D01*
X59570Y19881D01*
X59569Y19885D01*
X59568Y19892D01*
X59566Y19899D01*
X59563Y19906D01*
X59558Y19913D01*
X59552Y19920D01*
X59551Y19921D01*
X59549Y19923D01*
X59545Y19926D01*
X59540Y19930D01*
X59533Y19933D01*
X59525Y19936D01*
X59517Y19937D01*
X59507Y19938D01*
D02*
G37*
G36*
X59575Y16896D02*
X59479Y16761D01*
X59575D01*
Y16896D01*
D02*
G37*
G36*
X61983Y19541D02*
X61980Y19541D01*
X61978Y19540D01*
X61974Y19539D01*
X61968Y19538D01*
X61962Y19535D01*
X61955Y19531D01*
X61948Y19526D01*
X61942Y19519D01*
X61941Y19518D01*
X61939Y19516D01*
X61937Y19512D01*
X61934Y19506D01*
X61932Y19499D01*
X61929Y19490D01*
X61928Y19481D01*
X61928Y19470D01*
X61928Y19470D01*
X61929Y19467D01*
X61929Y19464D01*
X61930Y19459D01*
X61932Y19453D01*
X61934Y19447D01*
X61936Y19441D01*
X61939Y19435D01*
X61940Y19434D01*
X61941Y19432D01*
X61943Y19429D01*
X61946Y19425D01*
X61950Y19421D01*
X61954Y19417D01*
X61959Y19413D01*
X61964Y19410D01*
X61965Y19410D01*
X61967Y19409D01*
X61970Y19407D01*
X61974Y19407D01*
X61979Y19405D01*
X61984Y19404D01*
X61990Y19404D01*
X61996Y19404D01*
X61998Y19404D01*
X62000Y19404D01*
X62004Y19405D01*
X62010Y19407D01*
X62016Y19410D01*
X62022Y19414D01*
X62029Y19419D01*
X62032Y19422D01*
X62035Y19426D01*
X62035Y19426D01*
X62036Y19427D01*
X62037Y19430D01*
X62039Y19434D01*
X62042Y19440D01*
X62045Y19448D01*
X62047Y19457D01*
X62048Y19467D01*
X62047Y19479D01*
X62047Y19479D01*
X62047Y19480D01*
X62047Y19482D01*
X62047Y19484D01*
X62046Y19487D01*
X62046Y19490D01*
X62044Y19496D01*
X62041Y19504D01*
X62038Y19512D01*
X62032Y19520D01*
X62026Y19526D01*
X62025Y19527D01*
X62023Y19529D01*
X62019Y19532D01*
X62014Y19535D01*
X62008Y19538D01*
X62000Y19540D01*
X61992Y19541D01*
X61983Y19541D01*
D02*
G37*
G36*
X50112Y20084D02*
X50109D01*
X50105Y20083D01*
X50099Y20082D01*
X50094Y20080D01*
X50088Y20078D01*
X50082Y20075D01*
X50076Y20070D01*
X50076Y20069D01*
X50074Y20068D01*
X50072Y20065D01*
X50070Y20061D01*
X50067Y20056D01*
X50065Y20050D01*
X50063Y20044D01*
X50063Y20037D01*
Y20037D01*
Y20036D01*
X50063Y20034D01*
X50064Y20030D01*
X50064Y20025D01*
X50066Y20019D01*
X50068Y20014D01*
X50072Y20007D01*
X50076Y20002D01*
X50077Y20002D01*
X50079Y20000D01*
X50082Y19998D01*
X50086Y19996D01*
X50091Y19993D01*
X50097Y19991D01*
X50104Y19989D01*
X50112Y19989D01*
X50113D01*
X50116Y19989D01*
X50120Y19990D01*
X50125Y19990D01*
X50130Y19992D01*
X50136Y19994D01*
X50142Y19998D01*
X50148Y20002D01*
X50148Y20003D01*
X50150Y20005D01*
X50152Y20007D01*
X50154Y20011D01*
X50157Y20016D01*
X50159Y20022D01*
X50161Y20028D01*
X50161Y20035D01*
Y20036D01*
Y20036D01*
Y20039D01*
X50161Y20043D01*
X50160Y20048D01*
X50158Y20053D01*
X50155Y20059D01*
X50152Y20064D01*
X50147Y20070D01*
X50147Y20070D01*
X50144Y20072D01*
X50141Y20074D01*
X50137Y20077D01*
X50132Y20080D01*
X50127Y20082D01*
X50120Y20083D01*
X50112Y20084D01*
D02*
G37*
G36*
X50111Y19958D02*
X50108D01*
X50106Y19958D01*
X50102Y19958D01*
X50096Y19956D01*
X50089Y19954D01*
X50082Y19951D01*
X50074Y19947D01*
X50068Y19941D01*
X50067Y19940D01*
X50065Y19938D01*
X50062Y19934D01*
X50059Y19929D01*
X50056Y19923D01*
X50053Y19915D01*
X50051Y19907D01*
X50050Y19898D01*
Y19897D01*
Y19895D01*
X50051Y19892D01*
X50051Y19888D01*
X50052Y19883D01*
X50054Y19878D01*
X50055Y19873D01*
X50057Y19867D01*
X50058Y19867D01*
X50059Y19865D01*
X50061Y19862D01*
X50063Y19859D01*
X50066Y19855D01*
X50070Y19851D01*
X50075Y19847D01*
X50080Y19844D01*
X50081Y19844D01*
X50082Y19843D01*
X50085Y19841D01*
X50089Y19840D01*
X50094Y19839D01*
X50100Y19837D01*
X50106Y19837D01*
X50112Y19836D01*
X50115D01*
X50116Y19837D01*
X50122Y19837D01*
X50128Y19838D01*
X50135Y19840D01*
X50142Y19843D01*
X50149Y19847D01*
X50156Y19853D01*
X50157Y19854D01*
X50159Y19856D01*
X50162Y19860D01*
X50165Y19865D01*
X50168Y19871D01*
X50171Y19879D01*
X50173Y19887D01*
X50174Y19896D01*
Y19897D01*
Y19898D01*
Y19899D01*
X50173Y19901D01*
X50173Y19906D01*
X50172Y19912D01*
X50169Y19919D01*
X50166Y19926D01*
X50162Y19934D01*
X50156Y19941D01*
X50155Y19941D01*
X50153Y19943D01*
X50149Y19946D01*
X50144Y19950D01*
X50137Y19953D01*
X50129Y19956D01*
X50120Y19958D01*
X50111Y19958D01*
D02*
G37*
G36*
X50178Y16917D02*
X50083Y16781D01*
X50178D01*
Y16917D01*
D02*
G37*
G36*
X52587Y19561D02*
X52584Y19561D01*
X52582Y19560D01*
X52578Y19560D01*
X52572Y19558D01*
X52566Y19555D01*
X52558Y19551D01*
X52552Y19546D01*
X52545Y19539D01*
X52545Y19538D01*
X52543Y19536D01*
X52540Y19532D01*
X52538Y19526D01*
X52535Y19519D01*
X52533Y19511D01*
X52532Y19501D01*
X52532Y19491D01*
X52532Y19490D01*
X52532Y19488D01*
X52533Y19484D01*
X52534Y19479D01*
X52535Y19473D01*
X52538Y19468D01*
X52540Y19461D01*
X52543Y19455D01*
X52544Y19454D01*
X52545Y19452D01*
X52547Y19449D01*
X52550Y19445D01*
X52554Y19442D01*
X52558Y19437D01*
X52563Y19434D01*
X52568Y19430D01*
X52569Y19430D01*
X52571Y19429D01*
X52574Y19428D01*
X52578Y19427D01*
X52583Y19425D01*
X52588Y19424D01*
X52594Y19424D01*
X52600Y19424D01*
X52602Y19424D01*
X52604Y19425D01*
X52608Y19425D01*
X52614Y19427D01*
X52619Y19430D01*
X52626Y19434D01*
X52633Y19439D01*
X52636Y19442D01*
X52639Y19446D01*
X52639Y19447D01*
X52640Y19447D01*
X52641Y19450D01*
X52643Y19454D01*
X52646Y19460D01*
X52649Y19468D01*
X52650Y19477D01*
X52651Y19487D01*
X52651Y19499D01*
X52651Y19499D01*
X52651Y19500D01*
X52651Y19502D01*
X52650Y19504D01*
X52650Y19507D01*
X52649Y19510D01*
X52647Y19517D01*
X52645Y19524D01*
X52641Y19532D01*
X52636Y19540D01*
X52630Y19547D01*
X52629Y19547D01*
X52627Y19549D01*
X52623Y19552D01*
X52618Y19555D01*
X52611Y19558D01*
X52604Y19560D01*
X52596Y19561D01*
X52587Y19561D01*
D02*
G37*
G36*
X24037Y17413D02*
X23942Y17277D01*
X24037D01*
Y17413D01*
D02*
G37*
G36*
X55890Y19395D02*
X55769Y19223D01*
X55890D01*
Y19395D01*
D02*
G37*
%LPD*%
D10*
X26371Y16830D02*
G03*
X26371Y16830I-481J0D01*
G01*
X25801Y18650D02*
G03*
X25801Y18650I-481J0D01*
G01*
X26961Y18640D02*
G03*
X26961Y18640I-481J0D01*
G01*
D11*
X60800Y21150D02*
G03*
X61093Y21857I-707J707D01*
G01*
Y23617D01*
X60333Y20683D02*
X60800Y21150D01*
D12*
X61243Y19281D02*
G03*
X61243Y19281I-1735J0D01*
G01*
X62691Y19264D02*
G03*
X62691Y19264I-3178J0D01*
G01*
X51847Y19301D02*
G03*
X51847Y19301I-1735J0D01*
G01*
X53295Y19284D02*
G03*
X53295Y19284I-3178J0D01*
G01*
X28261Y17844D02*
G03*
X28261Y17844I-2362J0D01*
G01*
X27290Y18650D02*
X28360D01*
D13*
X59596Y21624D02*
G03*
X59596Y21624I-98J0D01*
G01*
X50200Y21645D02*
G03*
X50200Y21645I-98J0D01*
G01*
X25942Y19776D02*
G03*
X25942Y19776I-98J0D01*
G01*
D14*
X58822Y18216D02*
G03*
X58822Y18216I-498J0D01*
G01*
X60040Y17634D02*
G03*
X60040Y17634I-498J0D01*
G01*
X61284Y18253D02*
G03*
X61284Y18253I-498J0D01*
G01*
X61616Y19555D02*
G03*
X61616Y19555I-498J0D01*
G01*
X60789Y20682D02*
G03*
X60789Y20682I-498J0D01*
G01*
X59213Y20669D02*
G03*
X59213Y20669I-498J0D01*
G01*
X58420Y19508D02*
G03*
X58420Y19508I-498J0D01*
G01*
X60008Y19275D02*
G03*
X60008Y19275I-498J0D01*
G01*
X49425Y18236D02*
G03*
X49425Y18236I-498J0D01*
G01*
X50643Y17654D02*
G03*
X50643Y17654I-498J0D01*
G01*
X51888Y18273D02*
G03*
X51888Y18273I-498J0D01*
G01*
X52219Y19575D02*
G03*
X52219Y19575I-498J0D01*
G01*
X51393Y20703D02*
G03*
X51393Y20703I-498J0D01*
G01*
X49817Y20689D02*
G03*
X49817Y20689I-498J0D01*
G01*
X49024Y19528D02*
G03*
X49024Y19528I-498J0D01*
G01*
X50612Y19295D02*
G03*
X50612Y19295I-498J0D01*
G01*
D15*
X58184Y18154D02*
X60875Y18154D01*
X48787Y18174D02*
X51479Y18174D01*
D16*
X58825Y23280D02*
D03*
M02*
