G04*
G04 #@! TF.GenerationSoftware,Altium Limited,Altium Designer,20.0.13 (296)*
G04*
G04 Layer_Color=16777215*
%FSLAX24Y24*%
%MOIN*%
G70*
G01*
G75*
%ADD10C,0.0100*%
%ADD70C,0.0020*%
%ADD71C,0.0020*%
%ADD72C,0.0050*%
G36*
X32112Y15301D02*
X31939Y15128D01*
X31822Y15245D01*
X31995Y15418D01*
X32112Y15301D01*
D02*
G37*
G36*
X32340Y15057D02*
X32167Y14885D01*
X32050Y15002D01*
X32223Y15174D01*
X32340Y15057D01*
D02*
G37*
G36*
X33264Y14744D02*
Y14725D01*
X33258Y14718D01*
X33251Y14711D01*
X33231D01*
X33217Y14725D01*
Y14744D01*
X33224Y14751D01*
X33231Y14758D01*
X33251D01*
X33264Y14744D01*
D02*
G37*
G36*
X32578Y14824D02*
X32405Y14652D01*
X32288Y14769D01*
X32461Y14941D01*
X32578Y14824D01*
D02*
G37*
G36*
X32814Y14588D02*
X32641Y14416D01*
X32524Y14533D01*
X32697Y14705D01*
X32814Y14588D01*
D02*
G37*
G36*
X36833Y19910D02*
X36661Y19738D01*
X36544Y19855D01*
X36717Y20027D01*
X36833Y19910D01*
D02*
G37*
G36*
X36140Y19719D02*
Y19699D01*
X36134Y19692D01*
X36127Y19685D01*
X36107D01*
X36093Y19699D01*
Y19719D01*
X36100Y19725D01*
X36107Y19732D01*
X36127D01*
X36140Y19719D01*
D02*
G37*
G36*
X37069Y19675D02*
X36897Y19502D01*
X36780Y19619D01*
X36952Y19792D01*
X37069Y19675D01*
D02*
G37*
G36*
X37308Y19441D02*
X37135Y19269D01*
X37018Y19386D01*
X37191Y19558D01*
X37308Y19441D01*
D02*
G37*
G36*
X37536Y19198D02*
X37363Y19025D01*
X37246Y19142D01*
X37419Y19315D01*
X37536Y19198D01*
D02*
G37*
G36*
X39065Y19825D02*
X38948Y19708D01*
X38775Y19881D01*
X38892Y19998D01*
X39065Y19825D01*
D02*
G37*
G36*
X38821Y19597D02*
X38704Y19480D01*
X38532Y19653D01*
X38649Y19770D01*
X38821Y19597D01*
D02*
G37*
G36*
X38588Y19359D02*
X38471Y19242D01*
X38299Y19415D01*
X38416Y19532D01*
X38588Y19359D01*
D02*
G37*
G36*
X38352Y19123D02*
X38235Y19006D01*
X38063Y19179D01*
X38180Y19296D01*
X38352Y19123D01*
D02*
G37*
G36*
X38398Y18596D02*
X38405Y18589D01*
Y18569D01*
X38391Y18556D01*
X38372D01*
X38365Y18563D01*
X38358Y18569D01*
Y18589D01*
X38372Y18603D01*
X38391D01*
X38398Y18596D01*
D02*
G37*
G36*
X43501Y15844D02*
X43508Y15837D01*
Y15818D01*
X43495Y15804D01*
X43475D01*
X43468Y15811D01*
X43461Y15818D01*
Y15837D01*
X43475Y15851D01*
X43495D01*
X43501Y15844D01*
D02*
G37*
G36*
X43803Y15228D02*
X43686Y15111D01*
X43514Y15284D01*
X43631Y15401D01*
X43803Y15228D01*
D02*
G37*
G36*
X43568Y14992D02*
X43451Y14875D01*
X43278Y15048D01*
X43395Y15165D01*
X43568Y14992D01*
D02*
G37*
G36*
X43334Y14754D02*
X43217Y14637D01*
X43045Y14809D01*
X43162Y14926D01*
X43334Y14754D01*
D02*
G37*
G36*
X43091Y14526D02*
X42974Y14409D01*
X42801Y14582D01*
X42918Y14698D01*
X43091Y14526D01*
D02*
G37*
G36*
X49800Y35462D02*
X49678Y35250D01*
X49534Y35333D01*
X49656Y35545D01*
X49800Y35462D01*
D02*
G37*
G36*
X50088Y35295D02*
X49966Y35084D01*
X49823Y35166D01*
X49945Y35378D01*
X50088Y35295D01*
D02*
G37*
G36*
X49180Y35097D02*
X49185Y35078D01*
X49180Y35070D01*
X49175Y35061D01*
X49156Y35056D01*
X49139Y35066D01*
X49134Y35085D01*
X49139Y35093D01*
X49144Y35102D01*
X49163Y35107D01*
X49180Y35097D01*
D02*
G37*
G36*
X50379Y35132D02*
X50257Y34920D01*
X50114Y35003D01*
X50236Y35214D01*
X50379Y35132D01*
D02*
G37*
G36*
X50662Y34955D02*
X50540Y34744D01*
X50397Y34827D01*
X50519Y35038D01*
X50662Y34955D01*
D02*
G37*
G36*
X46147Y32327D02*
Y32307D01*
X46133Y32294D01*
X46114D01*
X46100Y32307D01*
Y32327D01*
X46114Y32341D01*
X46133D01*
X46147Y32327D01*
D02*
G37*
G36*
X45718Y31953D02*
X45474D01*
Y32118D01*
X45718D01*
Y31953D01*
D02*
G37*
G36*
X54493Y31874D02*
X54249D01*
Y32039D01*
X54493D01*
Y31874D01*
D02*
G37*
G36*
X45718Y31620D02*
X45474D01*
Y31785D01*
X45718D01*
Y31620D01*
D02*
G37*
G36*
X54504Y31541D02*
X54260D01*
Y31706D01*
X54504D01*
Y31541D01*
D02*
G37*
G36*
X45715Y31286D02*
X45470D01*
Y31452D01*
X45715D01*
Y31286D01*
D02*
G37*
G36*
X54501Y31207D02*
X54256D01*
Y31372D01*
X54501D01*
Y31207D01*
D02*
G37*
G36*
X45726Y30953D02*
X45482D01*
Y31118D01*
X45726D01*
Y30953D01*
D02*
G37*
G36*
X54501Y30874D02*
X54256D01*
Y31039D01*
X54501D01*
Y30874D01*
D02*
G37*
G36*
X53875Y30685D02*
Y30665D01*
X53861Y30651D01*
X53841D01*
X53828Y30665D01*
Y30685D01*
X53841Y30699D01*
X53861D01*
X53875Y30685D01*
D02*
G37*
G36*
X50267Y28213D02*
X50101D01*
Y28457D01*
X50267D01*
Y28213D01*
D02*
G37*
G36*
X49933Y28209D02*
X49768D01*
Y28453D01*
X49933D01*
Y28209D01*
D02*
G37*
G36*
X49600D02*
X49434D01*
Y28453D01*
X49600D01*
Y28209D01*
D02*
G37*
G36*
X50600Y28202D02*
X50435D01*
Y28446D01*
X50600D01*
Y28202D01*
D02*
G37*
G36*
X49259Y27814D02*
Y27804D01*
Y27794D01*
X49245Y27780D01*
X49226D01*
X49212Y27794D01*
Y27804D01*
Y27814D01*
X49226Y27828D01*
X49245D01*
X49259Y27814D01*
D02*
G37*
D10*
X51474Y18323D02*
G03*
X51474Y18323I-1378J0D01*
G01*
X39193Y17249D02*
G03*
X39193Y17249I-1378J0D01*
G01*
X27396Y17431D02*
G03*
X27396Y17431I-1378J0D01*
G01*
X51378Y31496D02*
G03*
X51378Y31496I-1378J0D01*
G01*
D70*
X44584Y27307D02*
G03*
X44584Y27307I-138J0D01*
G01*
X50234Y18323D02*
G03*
X50234Y18323I-138J0D01*
G01*
X37953Y17249D02*
G03*
X37953Y17249I-138J0D01*
G01*
X37946Y17276D02*
G03*
X37946Y17276I-138J0D01*
G01*
X26156Y17431D02*
G03*
X26156Y17431I-138J0D01*
G01*
X50138Y31496D02*
G03*
X50138Y31496I-138J0D01*
G01*
X44560Y34443D02*
G03*
X44560Y34443I-138J0D01*
G01*
X44560Y21833D02*
G03*
X44560Y21833I-138J0D01*
G01*
X30180D02*
G03*
X30180Y21833I-138J0D01*
G01*
X20808Y30200D02*
G03*
X20808Y30200I-138J0D01*
G01*
X44249Y27307D02*
X44643D01*
X44446Y27110D02*
Y27504D01*
X49899Y18323D02*
X50293D01*
X50096Y18127D02*
Y18520D01*
X37618Y17249D02*
X38012D01*
X37815Y17052D02*
Y17446D01*
X37808Y17079D02*
Y17473D01*
X37611Y17276D02*
X38005D01*
X26018Y17235D02*
Y17628D01*
X25821Y17431D02*
X26215D01*
X50000Y31299D02*
Y31693D01*
X49803Y31496D02*
X50197D01*
X44225Y34443D02*
X44619D01*
X44422Y34246D02*
Y34640D01*
X44225Y21833D02*
X44619D01*
X44422Y21636D02*
Y22030D01*
X29845Y21833D02*
X30239D01*
X30042Y21636D02*
Y22030D01*
X20473Y30200D02*
X20867D01*
X20670Y30003D02*
Y30397D01*
D71*
X31893Y15602D02*
X32141Y15833D01*
X31703Y15324D02*
X31893Y15602D01*
X31703Y15324D02*
X32725Y14302D01*
X33003Y14497D01*
X33229Y14746D01*
X32141Y15833D02*
X33229Y14746D01*
X37216Y18610D02*
X37465Y18841D01*
X37654Y19119D01*
X36632Y20141D02*
X37654Y19119D01*
X36354Y19946D02*
X36632Y20141D01*
X36129Y19697D02*
X36354Y19946D01*
X36129Y19697D02*
X37216Y18610D01*
X39249Y19927D02*
X39480Y19679D01*
X38971Y20117D02*
X39249Y19927D01*
X37949Y19095D02*
X38971Y20117D01*
X37949Y19095D02*
X38144Y18817D01*
X38393Y18591D01*
X39480Y19679D01*
X42386Y14728D02*
X42617Y14480D01*
X42895Y14290D01*
X43917Y15312D01*
X43722Y15590D02*
X43917Y15312D01*
X43473Y15816D02*
X43722Y15590D01*
X42386Y14728D02*
X43473Y15816D01*
X50506Y34305D02*
X50686Y34592D01*
X50797Y34910D01*
X49546Y35632D02*
X50797Y34910D01*
X49328Y35372D02*
X49546Y35632D01*
X49174Y35073D02*
X49328Y35372D01*
X49174Y35073D02*
X50506Y34305D01*
X50789Y27805D02*
X50802Y28143D01*
X50739Y28475D02*
X50802Y28143D01*
X49295Y28474D02*
X50739Y28475D01*
X49236Y28140D02*
X49295Y28474D01*
X49236Y28140D02*
X49252Y27804D01*
X50789Y27805D01*
X53851Y30692D02*
X53852Y32229D01*
X53851Y30692D02*
X54187Y30675D01*
X54521Y30734D01*
X54522Y32179D01*
X54191Y32242D02*
X54522Y32179D01*
X53852Y32229D02*
X54191Y32242D01*
X46123Y30763D02*
X46123Y32300D01*
X45788Y32317D02*
X46123Y32300D01*
X45453Y32258D02*
X45788Y32317D01*
X45453Y30813D02*
X45453Y32258D01*
X45453Y30813D02*
X45784Y30750D01*
X46123Y30763D01*
D72*
X27202Y29563D02*
Y29763D01*
X27102Y29663D02*
X27302D01*
X27213Y30547D02*
Y30747D01*
X27113Y30647D02*
X27313D01*
M02*
