G04*
G04 #@! TF.GenerationSoftware,Altium Limited,Altium Designer,20.0.13 (296)*
G04*
G04 Layer_Color=65535*
%FSLAX24Y24*%
%MOIN*%
G70*
G01*
G75*
%ADD10C,0.0100*%
%ADD11C,0.0071*%
%ADD12R,0.2632X0.5758*%
G36*
X34186Y20850D02*
X34189Y20849D01*
X34193Y20849D01*
X34197Y20849D01*
X34201Y20848D01*
X34210Y20846D01*
X34220Y20843D01*
X34224Y20841D01*
X34229Y20838D01*
X34234Y20835D01*
X34238Y20832D01*
X34239Y20832D01*
X34239Y20832D01*
X34241Y20831D01*
X34242Y20829D01*
X34244Y20828D01*
X34246Y20825D01*
X34248Y20823D01*
X34251Y20820D01*
X34254Y20817D01*
X34256Y20813D01*
X34259Y20809D01*
X34262Y20805D01*
X34264Y20800D01*
X34267Y20795D01*
X34269Y20789D01*
X34271Y20784D01*
X34241Y20777D01*
Y20777D01*
X34241Y20778D01*
X34240Y20779D01*
X34240Y20781D01*
X34239Y20783D01*
X34238Y20785D01*
X34235Y20790D01*
X34232Y20796D01*
X34228Y20802D01*
X34223Y20808D01*
X34218Y20813D01*
X34217Y20813D01*
X34215Y20815D01*
X34212Y20816D01*
X34208Y20819D01*
X34202Y20821D01*
X34196Y20823D01*
X34188Y20824D01*
X34180Y20824D01*
X34178D01*
X34176Y20824D01*
X34174D01*
X34171Y20824D01*
X34165Y20823D01*
X34158Y20821D01*
X34151Y20819D01*
X34143Y20816D01*
X34136Y20811D01*
X34136D01*
X34136Y20811D01*
X34133Y20809D01*
X34130Y20807D01*
X34127Y20803D01*
X34122Y20798D01*
X34119Y20792D01*
X34115Y20785D01*
X34112Y20778D01*
Y20777D01*
X34111Y20777D01*
X34111Y20776D01*
X34111Y20774D01*
X34110Y20772D01*
X34109Y20770D01*
X34108Y20764D01*
X34107Y20758D01*
X34106Y20750D01*
X34105Y20743D01*
X34105Y20734D01*
Y20734D01*
Y20733D01*
Y20731D01*
Y20729D01*
X34105Y20727D01*
Y20724D01*
X34105Y20721D01*
X34106Y20717D01*
X34107Y20709D01*
X34108Y20701D01*
X34110Y20692D01*
X34113Y20684D01*
Y20683D01*
X34113Y20683D01*
X34114Y20682D01*
X34115Y20680D01*
X34117Y20676D01*
X34120Y20671D01*
X34123Y20666D01*
X34128Y20661D01*
X34133Y20656D01*
X34139Y20651D01*
X34140D01*
X34140Y20651D01*
X34141Y20650D01*
X34142Y20649D01*
X34144Y20649D01*
X34146Y20648D01*
X34151Y20646D01*
X34157Y20644D01*
X34163Y20642D01*
X34170Y20641D01*
X34178Y20641D01*
X34180D01*
X34182Y20641D01*
X34184D01*
X34187Y20641D01*
X34193Y20643D01*
X34200Y20644D01*
X34206Y20647D01*
X34214Y20650D01*
X34217Y20652D01*
X34221Y20655D01*
X34221Y20655D01*
X34221Y20656D01*
X34222Y20657D01*
X34223Y20658D01*
X34225Y20659D01*
X34226Y20661D01*
X34228Y20663D01*
X34230Y20666D01*
X34232Y20669D01*
X34234Y20672D01*
X34236Y20675D01*
X34238Y20679D01*
X34240Y20684D01*
X34242Y20688D01*
X34243Y20693D01*
X34244Y20698D01*
X34275Y20691D01*
Y20690D01*
X34274Y20689D01*
X34274Y20687D01*
X34273Y20685D01*
X34272Y20682D01*
X34270Y20678D01*
X34269Y20674D01*
X34267Y20670D01*
X34262Y20661D01*
X34256Y20651D01*
X34253Y20647D01*
X34249Y20642D01*
X34245Y20638D01*
X34241Y20634D01*
X34240Y20634D01*
X34240Y20633D01*
X34238Y20633D01*
X34236Y20631D01*
X34234Y20630D01*
X34231Y20628D01*
X34227Y20626D01*
X34224Y20625D01*
X34220Y20623D01*
X34215Y20621D01*
X34210Y20620D01*
X34205Y20618D01*
X34199Y20617D01*
X34193Y20616D01*
X34187Y20615D01*
X34181Y20615D01*
X34177D01*
X34174Y20615D01*
X34171D01*
X34168Y20616D01*
X34164Y20616D01*
X34159Y20617D01*
X34150Y20619D01*
X34140Y20621D01*
X34130Y20625D01*
X34125Y20627D01*
X34121Y20630D01*
X34120Y20630D01*
X34120Y20630D01*
X34119Y20631D01*
X34117Y20633D01*
X34115Y20634D01*
X34113Y20636D01*
X34110Y20638D01*
X34108Y20641D01*
X34105Y20644D01*
X34102Y20647D01*
X34096Y20654D01*
X34091Y20663D01*
X34086Y20673D01*
Y20673D01*
X34085Y20674D01*
X34085Y20676D01*
X34084Y20678D01*
X34083Y20681D01*
X34082Y20684D01*
X34081Y20687D01*
X34080Y20691D01*
X34079Y20696D01*
X34078Y20701D01*
X34076Y20711D01*
X34075Y20722D01*
X34074Y20734D01*
Y20734D01*
Y20736D01*
Y20738D01*
X34074Y20740D01*
Y20743D01*
X34075Y20747D01*
X34075Y20751D01*
X34076Y20755D01*
X34077Y20765D01*
X34079Y20775D01*
X34083Y20786D01*
X34087Y20796D01*
X34088Y20796D01*
X34088Y20797D01*
X34089Y20798D01*
X34090Y20800D01*
X34091Y20802D01*
X34093Y20805D01*
X34097Y20811D01*
X34103Y20817D01*
X34109Y20824D01*
X34117Y20831D01*
X34126Y20836D01*
X34126Y20836D01*
X34127Y20837D01*
X34128Y20837D01*
X34130Y20838D01*
X34133Y20839D01*
X34135Y20840D01*
X34139Y20842D01*
X34142Y20843D01*
X34146Y20844D01*
X34150Y20846D01*
X34160Y20848D01*
X34170Y20849D01*
X34181Y20850D01*
X34184D01*
X34186Y20850D01*
D02*
G37*
G36*
X33622D02*
X33625Y20849D01*
X33629Y20849D01*
X33632Y20849D01*
X33637Y20848D01*
X33646Y20846D01*
X33655Y20843D01*
X33660Y20841D01*
X33665Y20838D01*
X33669Y20835D01*
X33674Y20832D01*
X33674Y20832D01*
X33675Y20832D01*
X33676Y20831D01*
X33678Y20829D01*
X33680Y20828D01*
X33682Y20825D01*
X33684Y20823D01*
X33687Y20820D01*
X33689Y20817D01*
X33692Y20813D01*
X33695Y20809D01*
X33698Y20805D01*
X33700Y20800D01*
X33703Y20795D01*
X33705Y20789D01*
X33707Y20784D01*
X33677Y20777D01*
Y20777D01*
X33677Y20778D01*
X33676Y20779D01*
X33675Y20781D01*
X33675Y20783D01*
X33674Y20785D01*
X33671Y20790D01*
X33668Y20796D01*
X33664Y20802D01*
X33659Y20808D01*
X33654Y20813D01*
X33653Y20813D01*
X33651Y20815D01*
X33648Y20816D01*
X33644Y20819D01*
X33638Y20821D01*
X33632Y20823D01*
X33624Y20824D01*
X33616Y20824D01*
X33613D01*
X33612Y20824D01*
X33609D01*
X33607Y20824D01*
X33601Y20823D01*
X33594Y20821D01*
X33586Y20819D01*
X33579Y20816D01*
X33572Y20811D01*
X33572D01*
X33571Y20811D01*
X33569Y20809D01*
X33566Y20807D01*
X33563Y20803D01*
X33558Y20798D01*
X33554Y20792D01*
X33551Y20785D01*
X33547Y20778D01*
Y20777D01*
X33547Y20777D01*
X33547Y20776D01*
X33546Y20774D01*
X33546Y20772D01*
X33545Y20770D01*
X33544Y20764D01*
X33543Y20758D01*
X33542Y20750D01*
X33541Y20743D01*
X33541Y20734D01*
Y20734D01*
Y20733D01*
Y20731D01*
Y20729D01*
X33541Y20727D01*
Y20724D01*
X33541Y20721D01*
X33542Y20717D01*
X33543Y20709D01*
X33544Y20701D01*
X33546Y20692D01*
X33549Y20684D01*
Y20683D01*
X33549Y20683D01*
X33550Y20682D01*
X33550Y20680D01*
X33552Y20676D01*
X33555Y20671D01*
X33559Y20666D01*
X33564Y20661D01*
X33569Y20656D01*
X33575Y20651D01*
X33575D01*
X33576Y20651D01*
X33577Y20650D01*
X33578Y20649D01*
X33580Y20649D01*
X33582Y20648D01*
X33586Y20646D01*
X33592Y20644D01*
X33599Y20642D01*
X33606Y20641D01*
X33614Y20641D01*
X33616D01*
X33618Y20641D01*
X33620D01*
X33623Y20641D01*
X33628Y20643D01*
X33635Y20644D01*
X33642Y20647D01*
X33649Y20650D01*
X33653Y20652D01*
X33656Y20655D01*
X33657Y20655D01*
X33657Y20656D01*
X33658Y20657D01*
X33659Y20658D01*
X33661Y20659D01*
X33662Y20661D01*
X33664Y20663D01*
X33666Y20666D01*
X33668Y20669D01*
X33670Y20672D01*
X33672Y20675D01*
X33674Y20679D01*
X33676Y20684D01*
X33677Y20688D01*
X33679Y20693D01*
X33680Y20698D01*
X33710Y20691D01*
Y20690D01*
X33710Y20689D01*
X33709Y20687D01*
X33709Y20685D01*
X33708Y20682D01*
X33706Y20678D01*
X33705Y20674D01*
X33703Y20670D01*
X33698Y20661D01*
X33692Y20651D01*
X33689Y20647D01*
X33685Y20642D01*
X33681Y20638D01*
X33676Y20634D01*
X33676Y20634D01*
X33675Y20633D01*
X33674Y20633D01*
X33672Y20631D01*
X33669Y20630D01*
X33667Y20628D01*
X33663Y20626D01*
X33660Y20625D01*
X33655Y20623D01*
X33651Y20621D01*
X33646Y20620D01*
X33641Y20618D01*
X33635Y20617D01*
X33629Y20616D01*
X33623Y20615D01*
X33616Y20615D01*
X33613D01*
X33610Y20615D01*
X33607D01*
X33604Y20616D01*
X33600Y20616D01*
X33595Y20617D01*
X33586Y20619D01*
X33576Y20621D01*
X33566Y20625D01*
X33561Y20627D01*
X33557Y20630D01*
X33556Y20630D01*
X33556Y20630D01*
X33554Y20631D01*
X33553Y20633D01*
X33551Y20634D01*
X33549Y20636D01*
X33546Y20638D01*
X33544Y20641D01*
X33541Y20644D01*
X33538Y20647D01*
X33532Y20654D01*
X33526Y20663D01*
X33522Y20673D01*
Y20673D01*
X33521Y20674D01*
X33521Y20676D01*
X33520Y20678D01*
X33519Y20681D01*
X33518Y20684D01*
X33517Y20687D01*
X33516Y20691D01*
X33515Y20696D01*
X33513Y20701D01*
X33512Y20711D01*
X33510Y20722D01*
X33510Y20734D01*
Y20734D01*
Y20736D01*
Y20738D01*
X33510Y20740D01*
Y20743D01*
X33510Y20747D01*
X33511Y20751D01*
X33511Y20755D01*
X33513Y20765D01*
X33515Y20775D01*
X33519Y20786D01*
X33523Y20796D01*
X33524Y20796D01*
X33524Y20797D01*
X33525Y20798D01*
X33526Y20800D01*
X33527Y20802D01*
X33529Y20805D01*
X33533Y20811D01*
X33539Y20817D01*
X33545Y20824D01*
X33553Y20831D01*
X33562Y20836D01*
X33562Y20836D01*
X33563Y20837D01*
X33564Y20837D01*
X33566Y20838D01*
X33568Y20839D01*
X33571Y20840D01*
X33574Y20842D01*
X33578Y20843D01*
X33582Y20844D01*
X33586Y20846D01*
X33595Y20848D01*
X33606Y20849D01*
X33617Y20850D01*
X33620D01*
X33622Y20850D01*
D02*
G37*
G36*
X33058D02*
X33061Y20849D01*
X33065Y20849D01*
X33068Y20849D01*
X33073Y20848D01*
X33081Y20846D01*
X33091Y20843D01*
X33096Y20841D01*
X33101Y20838D01*
X33105Y20835D01*
X33110Y20832D01*
X33110Y20832D01*
X33111Y20832D01*
X33112Y20831D01*
X33114Y20829D01*
X33115Y20828D01*
X33118Y20825D01*
X33120Y20823D01*
X33123Y20820D01*
X33125Y20817D01*
X33128Y20813D01*
X33131Y20809D01*
X33134Y20805D01*
X33136Y20800D01*
X33138Y20795D01*
X33140Y20789D01*
X33142Y20784D01*
X33113Y20777D01*
Y20777D01*
X33113Y20778D01*
X33112Y20779D01*
X33111Y20781D01*
X33111Y20783D01*
X33110Y20785D01*
X33107Y20790D01*
X33104Y20796D01*
X33100Y20802D01*
X33095Y20808D01*
X33090Y20813D01*
X33089Y20813D01*
X33087Y20815D01*
X33084Y20816D01*
X33079Y20819D01*
X33074Y20821D01*
X33068Y20823D01*
X33060Y20824D01*
X33052Y20824D01*
X33049D01*
X33048Y20824D01*
X33045D01*
X33043Y20824D01*
X33036Y20823D01*
X33030Y20821D01*
X33022Y20819D01*
X33015Y20816D01*
X33008Y20811D01*
X33008D01*
X33007Y20811D01*
X33005Y20809D01*
X33002Y20807D01*
X32998Y20803D01*
X32994Y20798D01*
X32990Y20792D01*
X32987Y20785D01*
X32983Y20778D01*
Y20777D01*
X32983Y20777D01*
X32983Y20776D01*
X32982Y20774D01*
X32982Y20772D01*
X32981Y20770D01*
X32980Y20764D01*
X32979Y20758D01*
X32977Y20750D01*
X32977Y20743D01*
X32976Y20734D01*
Y20734D01*
Y20733D01*
Y20731D01*
Y20729D01*
X32977Y20727D01*
Y20724D01*
X32977Y20721D01*
X32977Y20717D01*
X32978Y20709D01*
X32980Y20701D01*
X32982Y20692D01*
X32985Y20684D01*
Y20683D01*
X32985Y20683D01*
X32986Y20682D01*
X32986Y20680D01*
X32988Y20676D01*
X32991Y20671D01*
X32995Y20666D01*
X32999Y20661D01*
X33005Y20656D01*
X33011Y20651D01*
X33011D01*
X33012Y20651D01*
X33013Y20650D01*
X33014Y20649D01*
X33016Y20649D01*
X33018Y20648D01*
X33022Y20646D01*
X33028Y20644D01*
X33035Y20642D01*
X33042Y20641D01*
X33050Y20641D01*
X33052D01*
X33054Y20641D01*
X33056D01*
X33058Y20641D01*
X33064Y20643D01*
X33071Y20644D01*
X33078Y20647D01*
X33085Y20650D01*
X33089Y20652D01*
X33092Y20655D01*
X33093Y20655D01*
X33093Y20656D01*
X33094Y20657D01*
X33095Y20658D01*
X33096Y20659D01*
X33098Y20661D01*
X33100Y20663D01*
X33102Y20666D01*
X33104Y20669D01*
X33106Y20672D01*
X33108Y20675D01*
X33110Y20679D01*
X33112Y20684D01*
X33113Y20688D01*
X33115Y20693D01*
X33116Y20698D01*
X33146Y20691D01*
Y20690D01*
X33146Y20689D01*
X33145Y20687D01*
X33144Y20685D01*
X33143Y20682D01*
X33142Y20678D01*
X33140Y20674D01*
X33138Y20670D01*
X33134Y20661D01*
X33128Y20651D01*
X33124Y20647D01*
X33121Y20642D01*
X33117Y20638D01*
X33112Y20634D01*
X33112Y20634D01*
X33111Y20633D01*
X33110Y20633D01*
X33108Y20631D01*
X33105Y20630D01*
X33103Y20628D01*
X33099Y20626D01*
X33095Y20625D01*
X33091Y20623D01*
X33087Y20621D01*
X33082Y20620D01*
X33076Y20618D01*
X33071Y20617D01*
X33065Y20616D01*
X33059Y20615D01*
X33052Y20615D01*
X33049D01*
X33046Y20615D01*
X33043D01*
X33039Y20616D01*
X33035Y20616D01*
X33031Y20617D01*
X33021Y20619D01*
X33012Y20621D01*
X33002Y20625D01*
X32997Y20627D01*
X32992Y20630D01*
X32992Y20630D01*
X32992Y20630D01*
X32990Y20631D01*
X32989Y20633D01*
X32987Y20634D01*
X32985Y20636D01*
X32982Y20638D01*
X32979Y20641D01*
X32977Y20644D01*
X32974Y20647D01*
X32968Y20654D01*
X32962Y20663D01*
X32957Y20673D01*
Y20673D01*
X32957Y20674D01*
X32956Y20676D01*
X32955Y20678D01*
X32955Y20681D01*
X32954Y20684D01*
X32952Y20687D01*
X32952Y20691D01*
X32951Y20696D01*
X32949Y20701D01*
X32948Y20711D01*
X32946Y20722D01*
X32946Y20734D01*
Y20734D01*
Y20736D01*
Y20738D01*
X32946Y20740D01*
Y20743D01*
X32946Y20747D01*
X32947Y20751D01*
X32947Y20755D01*
X32949Y20765D01*
X32951Y20775D01*
X32954Y20786D01*
X32959Y20796D01*
X32959Y20796D01*
X32960Y20797D01*
X32960Y20798D01*
X32962Y20800D01*
X32963Y20802D01*
X32965Y20805D01*
X32969Y20811D01*
X32974Y20817D01*
X32981Y20824D01*
X32989Y20831D01*
X32997Y20836D01*
X32998Y20836D01*
X32999Y20837D01*
X33000Y20837D01*
X33002Y20838D01*
X33004Y20839D01*
X33007Y20840D01*
X33010Y20842D01*
X33014Y20843D01*
X33018Y20844D01*
X33022Y20846D01*
X33031Y20848D01*
X33042Y20849D01*
X33053Y20850D01*
X33056D01*
X33058Y20850D01*
D02*
G37*
G36*
X32494D02*
X32497Y20849D01*
X32501Y20849D01*
X32504Y20849D01*
X32508Y20848D01*
X32517Y20846D01*
X32527Y20843D01*
X32532Y20841D01*
X32537Y20838D01*
X32541Y20835D01*
X32546Y20832D01*
X32546Y20832D01*
X32547Y20832D01*
X32548Y20831D01*
X32550Y20829D01*
X32551Y20828D01*
X32554Y20825D01*
X32556Y20823D01*
X32559Y20820D01*
X32561Y20817D01*
X32564Y20813D01*
X32567Y20809D01*
X32569Y20805D01*
X32572Y20800D01*
X32574Y20795D01*
X32576Y20789D01*
X32578Y20784D01*
X32549Y20777D01*
Y20777D01*
X32548Y20778D01*
X32548Y20779D01*
X32547Y20781D01*
X32546Y20783D01*
X32545Y20785D01*
X32543Y20790D01*
X32540Y20796D01*
X32536Y20802D01*
X32531Y20808D01*
X32525Y20813D01*
X32525Y20813D01*
X32523Y20815D01*
X32520Y20816D01*
X32515Y20819D01*
X32510Y20821D01*
X32503Y20823D01*
X32496Y20824D01*
X32488Y20824D01*
X32485D01*
X32483Y20824D01*
X32481D01*
X32479Y20824D01*
X32472Y20823D01*
X32465Y20821D01*
X32458Y20819D01*
X32451Y20816D01*
X32444Y20811D01*
X32443D01*
X32443Y20811D01*
X32441Y20809D01*
X32438Y20807D01*
X32434Y20803D01*
X32430Y20798D01*
X32426Y20792D01*
X32422Y20785D01*
X32419Y20778D01*
Y20777D01*
X32419Y20777D01*
X32418Y20776D01*
X32418Y20774D01*
X32418Y20772D01*
X32417Y20770D01*
X32416Y20764D01*
X32415Y20758D01*
X32413Y20750D01*
X32413Y20743D01*
X32412Y20734D01*
Y20734D01*
Y20733D01*
Y20731D01*
Y20729D01*
X32413Y20727D01*
Y20724D01*
X32413Y20721D01*
X32413Y20717D01*
X32414Y20709D01*
X32416Y20701D01*
X32418Y20692D01*
X32420Y20684D01*
Y20683D01*
X32421Y20683D01*
X32421Y20682D01*
X32422Y20680D01*
X32424Y20676D01*
X32427Y20671D01*
X32431Y20666D01*
X32435Y20661D01*
X32440Y20656D01*
X32447Y20651D01*
X32447D01*
X32448Y20651D01*
X32449Y20650D01*
X32450Y20649D01*
X32452Y20649D01*
X32454Y20648D01*
X32458Y20646D01*
X32464Y20644D01*
X32471Y20642D01*
X32478Y20641D01*
X32485Y20641D01*
X32488D01*
X32490Y20641D01*
X32492D01*
X32494Y20641D01*
X32500Y20643D01*
X32507Y20644D01*
X32514Y20647D01*
X32521Y20650D01*
X32525Y20652D01*
X32528Y20655D01*
X32528Y20655D01*
X32529Y20656D01*
X32530Y20657D01*
X32531Y20658D01*
X32532Y20659D01*
X32534Y20661D01*
X32536Y20663D01*
X32538Y20666D01*
X32540Y20669D01*
X32542Y20672D01*
X32544Y20675D01*
X32546Y20679D01*
X32547Y20684D01*
X32549Y20688D01*
X32551Y20693D01*
X32552Y20698D01*
X32582Y20691D01*
Y20690D01*
X32582Y20689D01*
X32581Y20687D01*
X32580Y20685D01*
X32579Y20682D01*
X32578Y20678D01*
X32576Y20674D01*
X32574Y20670D01*
X32570Y20661D01*
X32564Y20651D01*
X32560Y20647D01*
X32557Y20642D01*
X32553Y20638D01*
X32548Y20634D01*
X32548Y20634D01*
X32547Y20633D01*
X32545Y20633D01*
X32544Y20631D01*
X32541Y20630D01*
X32539Y20628D01*
X32535Y20626D01*
X32531Y20625D01*
X32527Y20623D01*
X32522Y20621D01*
X32518Y20620D01*
X32512Y20618D01*
X32507Y20617D01*
X32501Y20616D01*
X32495Y20615D01*
X32488Y20615D01*
X32484D01*
X32482Y20615D01*
X32479D01*
X32475Y20616D01*
X32471Y20616D01*
X32467Y20617D01*
X32457Y20619D01*
X32447Y20621D01*
X32438Y20625D01*
X32433Y20627D01*
X32428Y20630D01*
X32428Y20630D01*
X32427Y20630D01*
X32426Y20631D01*
X32425Y20633D01*
X32423Y20634D01*
X32420Y20636D01*
X32418Y20638D01*
X32415Y20641D01*
X32413Y20644D01*
X32410Y20647D01*
X32404Y20654D01*
X32398Y20663D01*
X32393Y20673D01*
Y20673D01*
X32393Y20674D01*
X32392Y20676D01*
X32391Y20678D01*
X32391Y20681D01*
X32390Y20684D01*
X32388Y20687D01*
X32387Y20691D01*
X32386Y20696D01*
X32385Y20701D01*
X32383Y20711D01*
X32382Y20722D01*
X32381Y20734D01*
Y20734D01*
Y20736D01*
Y20738D01*
X32382Y20740D01*
Y20743D01*
X32382Y20747D01*
X32382Y20751D01*
X32383Y20755D01*
X32385Y20765D01*
X32387Y20775D01*
X32390Y20786D01*
X32395Y20796D01*
X32395Y20796D01*
X32396Y20797D01*
X32396Y20798D01*
X32397Y20800D01*
X32399Y20802D01*
X32400Y20805D01*
X32405Y20811D01*
X32410Y20817D01*
X32417Y20824D01*
X32424Y20831D01*
X32433Y20836D01*
X32434Y20836D01*
X32435Y20837D01*
X32436Y20837D01*
X32438Y20838D01*
X32440Y20839D01*
X32443Y20840D01*
X32446Y20842D01*
X32450Y20843D01*
X32454Y20844D01*
X32458Y20846D01*
X32467Y20848D01*
X32478Y20849D01*
X32488Y20850D01*
X32492D01*
X32494Y20850D01*
D02*
G37*
G36*
X33857Y20691D02*
Y20691D01*
Y20690D01*
Y20688D01*
Y20687D01*
X33857Y20684D01*
Y20681D01*
X33856Y20675D01*
X33855Y20668D01*
X33854Y20660D01*
X33852Y20653D01*
X33850Y20647D01*
Y20646D01*
X33850Y20646D01*
X33849Y20644D01*
X33847Y20642D01*
X33845Y20638D01*
X33841Y20634D01*
X33838Y20630D01*
X33833Y20626D01*
X33828Y20623D01*
X33827Y20623D01*
X33825Y20622D01*
X33822Y20621D01*
X33818Y20619D01*
X33813Y20618D01*
X33807Y20616D01*
X33800Y20615D01*
X33793Y20615D01*
X33790D01*
X33788Y20615D01*
X33786Y20616D01*
X33783Y20616D01*
X33776Y20617D01*
X33769Y20619D01*
X33761Y20622D01*
X33757Y20624D01*
X33754Y20626D01*
X33751Y20629D01*
X33747Y20632D01*
X33747Y20632D01*
X33747Y20633D01*
X33746Y20634D01*
X33745Y20635D01*
X33744Y20637D01*
X33742Y20639D01*
X33741Y20642D01*
X33739Y20645D01*
X33738Y20648D01*
X33737Y20652D01*
X33735Y20656D01*
X33734Y20661D01*
X33733Y20666D01*
X33732Y20671D01*
X33732Y20677D01*
Y20683D01*
X33759Y20687D01*
Y20687D01*
Y20686D01*
Y20685D01*
X33760Y20683D01*
X33760Y20681D01*
Y20678D01*
X33761Y20673D01*
X33762Y20667D01*
X33764Y20661D01*
X33766Y20656D01*
X33767Y20653D01*
X33769Y20651D01*
X33769Y20651D01*
X33771Y20650D01*
X33772Y20648D01*
X33775Y20647D01*
X33779Y20645D01*
X33783Y20644D01*
X33788Y20642D01*
X33793Y20642D01*
X33795D01*
X33797Y20642D01*
X33800Y20643D01*
X33803Y20643D01*
X33806Y20644D01*
X33809Y20645D01*
X33812Y20647D01*
X33813Y20647D01*
X33814Y20648D01*
X33815Y20649D01*
X33817Y20650D01*
X33819Y20653D01*
X33821Y20655D01*
X33822Y20658D01*
X33824Y20661D01*
Y20661D01*
X33824Y20663D01*
X33825Y20665D01*
X33825Y20668D01*
X33826Y20672D01*
X33826Y20677D01*
X33827Y20683D01*
Y20689D01*
Y20846D01*
X33857D01*
Y20691D01*
D02*
G37*
G36*
X33293D02*
Y20691D01*
Y20690D01*
Y20688D01*
Y20687D01*
X33293Y20684D01*
Y20681D01*
X33292Y20675D01*
X33291Y20668D01*
X33290Y20660D01*
X33288Y20653D01*
X33286Y20647D01*
Y20646D01*
X33285Y20646D01*
X33284Y20644D01*
X33283Y20642D01*
X33280Y20638D01*
X33277Y20634D01*
X33274Y20630D01*
X33269Y20626D01*
X33264Y20623D01*
X33263Y20623D01*
X33261Y20622D01*
X33258Y20621D01*
X33254Y20619D01*
X33249Y20618D01*
X33243Y20616D01*
X33236Y20615D01*
X33229Y20615D01*
X33226D01*
X33224Y20615D01*
X33221Y20616D01*
X33219Y20616D01*
X33212Y20617D01*
X33205Y20619D01*
X33197Y20622D01*
X33193Y20624D01*
X33190Y20626D01*
X33186Y20629D01*
X33183Y20632D01*
X33183Y20632D01*
X33182Y20633D01*
X33182Y20634D01*
X33181Y20635D01*
X33179Y20637D01*
X33178Y20639D01*
X33177Y20642D01*
X33175Y20645D01*
X33174Y20648D01*
X33173Y20652D01*
X33171Y20656D01*
X33170Y20661D01*
X33169Y20666D01*
X33168Y20671D01*
X33168Y20677D01*
Y20683D01*
X33195Y20687D01*
Y20687D01*
Y20686D01*
Y20685D01*
X33196Y20683D01*
X33196Y20681D01*
Y20678D01*
X33197Y20673D01*
X33198Y20667D01*
X33200Y20661D01*
X33202Y20656D01*
X33203Y20653D01*
X33205Y20651D01*
X33205Y20651D01*
X33206Y20650D01*
X33208Y20648D01*
X33211Y20647D01*
X33215Y20645D01*
X33218Y20644D01*
X33223Y20642D01*
X33229Y20642D01*
X33231D01*
X33233Y20642D01*
X33236Y20643D01*
X33238Y20643D01*
X33242Y20644D01*
X33245Y20645D01*
X33248Y20647D01*
X33249Y20647D01*
X33250Y20648D01*
X33251Y20649D01*
X33253Y20650D01*
X33255Y20653D01*
X33257Y20655D01*
X33258Y20658D01*
X33259Y20661D01*
Y20661D01*
X33260Y20663D01*
X33260Y20665D01*
X33261Y20668D01*
X33262Y20672D01*
X33262Y20677D01*
X33263Y20683D01*
Y20689D01*
Y20846D01*
X33293D01*
Y20691D01*
D02*
G37*
G36*
X32729D02*
Y20691D01*
Y20690D01*
Y20688D01*
Y20687D01*
X32728Y20684D01*
Y20681D01*
X32728Y20675D01*
X32727Y20668D01*
X32726Y20660D01*
X32724Y20653D01*
X32722Y20647D01*
Y20646D01*
X32721Y20646D01*
X32720Y20644D01*
X32719Y20642D01*
X32716Y20638D01*
X32713Y20634D01*
X32709Y20630D01*
X32705Y20626D01*
X32700Y20623D01*
X32699Y20623D01*
X32697Y20622D01*
X32694Y20621D01*
X32690Y20619D01*
X32685Y20618D01*
X32679Y20616D01*
X32672Y20615D01*
X32665Y20615D01*
X32662D01*
X32660Y20615D01*
X32657Y20616D01*
X32655Y20616D01*
X32648Y20617D01*
X32641Y20619D01*
X32633Y20622D01*
X32629Y20624D01*
X32625Y20626D01*
X32622Y20629D01*
X32619Y20632D01*
X32619Y20632D01*
X32618Y20633D01*
X32618Y20634D01*
X32617Y20635D01*
X32615Y20637D01*
X32614Y20639D01*
X32613Y20642D01*
X32611Y20645D01*
X32610Y20648D01*
X32608Y20652D01*
X32607Y20656D01*
X32606Y20661D01*
X32605Y20666D01*
X32604Y20671D01*
X32604Y20677D01*
Y20683D01*
X32631Y20687D01*
Y20687D01*
Y20686D01*
Y20685D01*
X32631Y20683D01*
X32632Y20681D01*
Y20678D01*
X32633Y20673D01*
X32634Y20667D01*
X32636Y20661D01*
X32638Y20656D01*
X32639Y20653D01*
X32641Y20651D01*
X32641Y20651D01*
X32642Y20650D01*
X32644Y20648D01*
X32647Y20647D01*
X32650Y20645D01*
X32654Y20644D01*
X32659Y20642D01*
X32664Y20642D01*
X32666D01*
X32668Y20642D01*
X32671Y20643D01*
X32674Y20643D01*
X32678Y20644D01*
X32681Y20645D01*
X32684Y20647D01*
X32685Y20647D01*
X32685Y20648D01*
X32687Y20649D01*
X32689Y20650D01*
X32690Y20653D01*
X32692Y20655D01*
X32694Y20658D01*
X32695Y20661D01*
Y20661D01*
X32696Y20663D01*
X32696Y20665D01*
X32697Y20668D01*
X32698Y20672D01*
X32698Y20677D01*
X32699Y20683D01*
Y20689D01*
Y20846D01*
X32729D01*
Y20691D01*
D02*
G37*
G36*
X32165D02*
Y20691D01*
Y20690D01*
Y20688D01*
Y20687D01*
X32164Y20684D01*
Y20681D01*
X32164Y20675D01*
X32163Y20668D01*
X32162Y20660D01*
X32160Y20653D01*
X32157Y20647D01*
Y20646D01*
X32157Y20646D01*
X32156Y20644D01*
X32154Y20642D01*
X32152Y20638D01*
X32149Y20634D01*
X32145Y20630D01*
X32141Y20626D01*
X32135Y20623D01*
X32135Y20623D01*
X32133Y20622D01*
X32130Y20621D01*
X32126Y20619D01*
X32120Y20618D01*
X32114Y20616D01*
X32108Y20615D01*
X32101Y20615D01*
X32098D01*
X32096Y20615D01*
X32093Y20616D01*
X32090Y20616D01*
X32084Y20617D01*
X32076Y20619D01*
X32069Y20622D01*
X32065Y20624D01*
X32061Y20626D01*
X32058Y20629D01*
X32055Y20632D01*
X32054Y20632D01*
X32054Y20633D01*
X32053Y20634D01*
X32052Y20635D01*
X32051Y20637D01*
X32050Y20639D01*
X32049Y20642D01*
X32047Y20645D01*
X32046Y20648D01*
X32044Y20652D01*
X32043Y20656D01*
X32042Y20661D01*
X32041Y20666D01*
X32040Y20671D01*
X32040Y20677D01*
Y20683D01*
X32067Y20687D01*
Y20687D01*
Y20686D01*
Y20685D01*
X32067Y20683D01*
X32068Y20681D01*
Y20678D01*
X32069Y20673D01*
X32069Y20667D01*
X32071Y20661D01*
X32073Y20656D01*
X32075Y20653D01*
X32076Y20651D01*
X32077Y20651D01*
X32078Y20650D01*
X32080Y20648D01*
X32083Y20647D01*
X32086Y20645D01*
X32090Y20644D01*
X32095Y20642D01*
X32100Y20642D01*
X32102D01*
X32104Y20642D01*
X32107Y20643D01*
X32110Y20643D01*
X32113Y20644D01*
X32117Y20645D01*
X32120Y20647D01*
X32120Y20647D01*
X32121Y20648D01*
X32123Y20649D01*
X32125Y20650D01*
X32126Y20653D01*
X32128Y20655D01*
X32130Y20658D01*
X32131Y20661D01*
Y20661D01*
X32132Y20663D01*
X32132Y20665D01*
X32133Y20668D01*
X32133Y20672D01*
X32134Y20677D01*
X32134Y20683D01*
Y20689D01*
Y20846D01*
X32165D01*
Y20691D01*
D02*
G37*
G36*
X33935Y20646D02*
X34047D01*
Y20619D01*
X33905D01*
Y20846D01*
X33935D01*
Y20646D01*
D02*
G37*
G36*
X33371D02*
X33483D01*
Y20619D01*
X33341D01*
Y20846D01*
X33371D01*
Y20646D01*
D02*
G37*
G36*
X32807D02*
X32919D01*
Y20619D01*
X32777D01*
Y20846D01*
X32807D01*
Y20646D01*
D02*
G37*
G36*
X32243D02*
X32355D01*
Y20619D01*
X32213D01*
Y20846D01*
X32243D01*
Y20646D01*
D02*
G37*
G36*
X32321Y26903D02*
Y26902D01*
Y26899D01*
Y26896D01*
X32320Y26886D01*
X32319Y26874D01*
X32317Y26858D01*
X32317Y26839D01*
X32314Y26818D01*
X32311Y26795D01*
X32312D01*
X32313Y26796D01*
X32316Y26797D01*
X32319Y26798D01*
X32329Y26803D01*
X32341Y26809D01*
X32355Y26815D01*
X32373Y26822D01*
X32392Y26830D01*
X32414Y26837D01*
X32434Y26775D01*
X32433D01*
X32431Y26774D01*
X32428Y26773D01*
X32425Y26772D01*
X32419Y26771D01*
X32414Y26769D01*
X32400Y26765D01*
X32383Y26761D01*
X32365Y26757D01*
X32345Y26753D01*
X32325Y26750D01*
X32326Y26749D01*
X32329Y26746D01*
X32336Y26740D01*
X32344Y26732D01*
X32355Y26720D01*
X32367Y26706D01*
X32383Y26688D01*
X32400Y26668D01*
X32348Y26632D01*
X32347Y26634D01*
X32343Y26638D01*
X32338Y26646D01*
X32330Y26656D01*
X32322Y26670D01*
X32312Y26686D01*
X32300Y26704D01*
X32288Y26724D01*
Y26723D01*
X32287Y26722D01*
X32285Y26719D01*
X32282Y26714D01*
X32277Y26703D01*
X32269Y26690D01*
X32260Y26675D01*
X32251Y26660D01*
X32241Y26645D01*
X32231Y26632D01*
X32181Y26668D01*
X32181Y26669D01*
X32182Y26671D01*
X32185Y26673D01*
X32189Y26678D01*
X32197Y26689D01*
X32208Y26702D01*
X32220Y26716D01*
X32232Y26729D01*
X32243Y26741D01*
X32248Y26747D01*
X32253Y26750D01*
X32252D01*
X32250Y26751D01*
X32247D01*
X32243Y26752D01*
X32238Y26753D01*
X32232Y26755D01*
X32218Y26758D01*
X32202Y26761D01*
X32184Y26765D01*
X32146Y26775D01*
X32166Y26837D01*
X32167D01*
X32169Y26836D01*
X32172Y26834D01*
X32177Y26834D01*
X32182Y26831D01*
X32190Y26828D01*
X32205Y26822D01*
X32221Y26816D01*
X32238Y26809D01*
X32254Y26801D01*
X32267Y26795D01*
Y26796D01*
Y26798D01*
X32266Y26802D01*
Y26808D01*
X32265Y26814D01*
X32264Y26821D01*
X32263Y26838D01*
X32261Y26856D01*
X32259Y26874D01*
X32258Y26890D01*
Y26897D01*
Y26904D01*
X32321D01*
Y26903D01*
D02*
G37*
G36*
X27302Y26903D02*
X27309D01*
X27326Y26901D01*
X27346Y26898D01*
X27366Y26894D01*
X27388Y26888D01*
X27408Y26881D01*
X27409D01*
X27411Y26880D01*
X27414Y26878D01*
X27418Y26876D01*
X27427Y26871D01*
X27439Y26863D01*
X27453Y26854D01*
X27467Y26842D01*
X27480Y26828D01*
X27492Y26812D01*
Y26811D01*
X27493Y26810D01*
X27495Y26808D01*
X27496Y26805D01*
X27501Y26796D01*
X27507Y26784D01*
X27513Y26769D01*
X27518Y26751D01*
X27522Y26733D01*
X27524Y26712D01*
X27443Y26706D01*
Y26707D01*
Y26709D01*
X27442Y26711D01*
X27441Y26716D01*
X27438Y26726D01*
X27434Y26740D01*
X27429Y26755D01*
X27421Y26770D01*
X27410Y26784D01*
X27397Y26797D01*
X27396Y26797D01*
X27391Y26801D01*
X27382Y26807D01*
X27370Y26812D01*
X27354Y26818D01*
X27335Y26823D01*
X27312Y26827D01*
X27286Y26828D01*
X27273D01*
X27268Y26827D01*
X27260Y26826D01*
X27244Y26824D01*
X27225Y26821D01*
X27207Y26816D01*
X27189Y26809D01*
X27182Y26804D01*
X27174Y26799D01*
X27173Y26798D01*
X27169Y26795D01*
X27163Y26788D01*
X27158Y26781D01*
X27151Y26771D01*
X27146Y26760D01*
X27142Y26747D01*
X27140Y26732D01*
Y26730D01*
Y26726D01*
X27141Y26720D01*
X27143Y26712D01*
X27146Y26703D01*
X27150Y26694D01*
X27156Y26685D01*
X27164Y26675D01*
X27165Y26674D01*
X27170Y26672D01*
X27174Y26669D01*
X27177Y26667D01*
X27183Y26664D01*
X27189Y26661D01*
X27198Y26658D01*
X27207Y26654D01*
X27217Y26650D01*
X27229Y26646D01*
X27242Y26642D01*
X27257Y26637D01*
X27273Y26634D01*
X27292Y26629D01*
X27293D01*
X27297Y26628D01*
X27302Y26627D01*
X27309Y26625D01*
X27317Y26624D01*
X27327Y26621D01*
X27337Y26618D01*
X27348Y26615D01*
X27372Y26609D01*
X27396Y26602D01*
X27407Y26599D01*
X27417Y26595D01*
X27426Y26592D01*
X27433Y26588D01*
X27434D01*
X27436Y26587D01*
X27439Y26586D01*
X27443Y26584D01*
X27453Y26578D01*
X27465Y26571D01*
X27479Y26561D01*
X27493Y26550D01*
X27506Y26537D01*
X27517Y26523D01*
X27518Y26521D01*
X27521Y26516D01*
X27525Y26508D01*
X27531Y26497D01*
X27535Y26484D01*
X27540Y26468D01*
X27543Y26451D01*
X27544Y26432D01*
Y26431D01*
Y26430D01*
Y26427D01*
Y26424D01*
X27542Y26414D01*
X27540Y26401D01*
X27536Y26386D01*
X27532Y26370D01*
X27524Y26353D01*
X27514Y26336D01*
Y26335D01*
X27513Y26334D01*
X27508Y26328D01*
X27502Y26320D01*
X27493Y26311D01*
X27481Y26300D01*
X27466Y26288D01*
X27449Y26277D01*
X27430Y26266D01*
X27429D01*
X27427Y26266D01*
X27424Y26265D01*
X27421Y26263D01*
X27415Y26261D01*
X27408Y26258D01*
X27394Y26254D01*
X27376Y26250D01*
X27355Y26245D01*
X27332Y26242D01*
X27307Y26242D01*
X27292D01*
X27285Y26242D01*
X27276D01*
X27267Y26243D01*
X27256Y26244D01*
X27233Y26248D01*
X27209Y26252D01*
X27185Y26258D01*
X27162Y26266D01*
X27161D01*
X27159Y26267D01*
X27156Y26269D01*
X27152Y26271D01*
X27141Y26277D01*
X27128Y26285D01*
X27113Y26296D01*
X27098Y26309D01*
X27083Y26325D01*
X27069Y26342D01*
Y26343D01*
X27067Y26345D01*
X27066Y26348D01*
X27063Y26352D01*
X27062Y26356D01*
X27059Y26362D01*
X27052Y26376D01*
X27046Y26393D01*
X27040Y26413D01*
X27037Y26435D01*
X27035Y26458D01*
X27114Y26465D01*
Y26464D01*
Y26463D01*
X27115Y26461D01*
Y26457D01*
X27117Y26449D01*
X27120Y26437D01*
X27124Y26425D01*
X27127Y26411D01*
X27134Y26398D01*
X27140Y26386D01*
X27141Y26385D01*
X27144Y26381D01*
X27149Y26375D01*
X27156Y26368D01*
X27165Y26360D01*
X27175Y26352D01*
X27189Y26343D01*
X27204Y26336D01*
X27205D01*
X27206Y26335D01*
X27209Y26334D01*
X27211Y26333D01*
X27221Y26330D01*
X27233Y26327D01*
X27248Y26323D01*
X27264Y26320D01*
X27283Y26318D01*
X27303Y26317D01*
X27311D01*
X27321Y26318D01*
X27332Y26319D01*
X27345Y26321D01*
X27359Y26323D01*
X27374Y26327D01*
X27388Y26331D01*
X27390Y26332D01*
X27395Y26334D01*
X27401Y26338D01*
X27409Y26341D01*
X27418Y26348D01*
X27427Y26354D01*
X27436Y26362D01*
X27444Y26371D01*
X27445Y26372D01*
X27446Y26376D01*
X27449Y26380D01*
X27453Y26388D01*
X27457Y26395D01*
X27459Y26404D01*
X27461Y26414D01*
X27462Y26426D01*
Y26426D01*
Y26431D01*
X27461Y26437D01*
X27460Y26444D01*
X27458Y26451D01*
X27455Y26461D01*
X27450Y26470D01*
X27444Y26478D01*
X27443Y26479D01*
X27440Y26482D01*
X27436Y26486D01*
X27430Y26491D01*
X27422Y26497D01*
X27412Y26503D01*
X27400Y26510D01*
X27386Y26515D01*
X27385Y26516D01*
X27381Y26517D01*
X27373Y26520D01*
X27369Y26521D01*
X27362Y26523D01*
X27356Y26525D01*
X27347Y26527D01*
X27338Y26530D01*
X27327Y26533D01*
X27316Y26536D01*
X27303Y26539D01*
X27288Y26543D01*
X27273Y26547D01*
X27272D01*
X27269Y26548D01*
X27264Y26549D01*
X27259Y26550D01*
X27251Y26552D01*
X27243Y26554D01*
X27224Y26560D01*
X27204Y26566D01*
X27183Y26573D01*
X27164Y26579D01*
X27156Y26583D01*
X27149Y26587D01*
X27148D01*
X27147Y26587D01*
X27141Y26591D01*
X27133Y26596D01*
X27124Y26603D01*
X27113Y26611D01*
X27101Y26622D01*
X27090Y26634D01*
X27081Y26647D01*
X27080Y26648D01*
X27077Y26653D01*
X27074Y26661D01*
X27070Y26670D01*
X27066Y26682D01*
X27063Y26696D01*
X27060Y26710D01*
X27059Y26726D01*
Y26727D01*
Y26728D01*
Y26731D01*
Y26735D01*
X27061Y26744D01*
X27063Y26756D01*
X27065Y26770D01*
X27070Y26785D01*
X27076Y26801D01*
X27086Y26817D01*
Y26818D01*
X27087Y26819D01*
X27091Y26824D01*
X27098Y26832D01*
X27106Y26841D01*
X27117Y26851D01*
X27131Y26862D01*
X27148Y26872D01*
X27166Y26882D01*
X27167D01*
X27169Y26883D01*
X27172Y26883D01*
X27175Y26885D01*
X27180Y26887D01*
X27187Y26889D01*
X27200Y26893D01*
X27218Y26896D01*
X27238Y26900D01*
X27260Y26903D01*
X27284Y26904D01*
X27296D01*
X27302Y26903D01*
D02*
G37*
G36*
X32724Y26895D02*
X32736Y26893D01*
X32750Y26890D01*
X32767Y26885D01*
X32784Y26880D01*
X32800Y26872D01*
X32801D01*
X32802Y26871D01*
X32808Y26869D01*
X32816Y26863D01*
X32825Y26857D01*
X32836Y26847D01*
X32847Y26837D01*
X32859Y26825D01*
X32868Y26811D01*
X32869Y26809D01*
X32872Y26805D01*
X32875Y26797D01*
X32880Y26786D01*
X32885Y26774D01*
X32888Y26760D01*
X32891Y26745D01*
X32892Y26729D01*
Y26727D01*
Y26722D01*
X32891Y26714D01*
X32889Y26704D01*
X32886Y26692D01*
X32882Y26679D01*
X32876Y26666D01*
X32869Y26653D01*
X32868Y26651D01*
X32865Y26648D01*
X32860Y26641D01*
X32852Y26634D01*
X32843Y26625D01*
X32832Y26616D01*
X32819Y26608D01*
X32803Y26599D01*
X32804D01*
X32806Y26599D01*
X32809Y26598D01*
X32812Y26597D01*
X32823Y26593D01*
X32835Y26587D01*
X32850Y26580D01*
X32865Y26571D01*
X32879Y26559D01*
X32892Y26545D01*
X32893Y26543D01*
X32897Y26537D01*
X32902Y26528D01*
X32908Y26516D01*
X32913Y26501D01*
X32919Y26484D01*
X32922Y26463D01*
X32923Y26441D01*
Y26440D01*
Y26438D01*
Y26433D01*
X32922Y26427D01*
X32922Y26420D01*
X32920Y26412D01*
X32918Y26402D01*
X32916Y26392D01*
X32909Y26370D01*
X32903Y26358D01*
X32897Y26347D01*
X32890Y26335D01*
X32882Y26323D01*
X32872Y26311D01*
X32861Y26300D01*
X32860Y26299D01*
X32859Y26297D01*
X32855Y26294D01*
X32850Y26291D01*
X32845Y26286D01*
X32837Y26281D01*
X32829Y26276D01*
X32819Y26271D01*
X32809Y26266D01*
X32797Y26260D01*
X32785Y26255D01*
X32771Y26251D01*
X32756Y26247D01*
X32740Y26244D01*
X32724Y26242D01*
X32707Y26242D01*
X32699D01*
X32693Y26242D01*
X32686Y26243D01*
X32677Y26244D01*
X32668Y26246D01*
X32658Y26248D01*
X32636Y26254D01*
X32613Y26263D01*
X32601Y26268D01*
X32589Y26275D01*
X32578Y26283D01*
X32567Y26291D01*
X32566Y26292D01*
X32564Y26294D01*
X32562Y26297D01*
X32559Y26301D01*
X32554Y26305D01*
X32550Y26312D01*
X32544Y26318D01*
X32539Y26327D01*
X32533Y26336D01*
X32527Y26345D01*
X32517Y26367D01*
X32509Y26393D01*
X32506Y26407D01*
X32504Y26422D01*
X32583Y26432D01*
Y26431D01*
X32584Y26429D01*
X32585Y26426D01*
X32586Y26421D01*
X32587Y26415D01*
X32589Y26409D01*
X32593Y26395D01*
X32600Y26378D01*
X32608Y26363D01*
X32617Y26348D01*
X32628Y26335D01*
X32630Y26334D01*
X32634Y26330D01*
X32641Y26326D01*
X32650Y26321D01*
X32662Y26316D01*
X32675Y26311D01*
X32691Y26307D01*
X32708Y26306D01*
X32713D01*
X32717Y26307D01*
X32727Y26308D01*
X32740Y26311D01*
X32755Y26316D01*
X32771Y26322D01*
X32786Y26331D01*
X32801Y26344D01*
X32803Y26346D01*
X32808Y26352D01*
X32813Y26360D01*
X32821Y26371D01*
X32828Y26385D01*
X32834Y26401D01*
X32838Y26419D01*
X32840Y26439D01*
Y26440D01*
Y26442D01*
Y26445D01*
X32839Y26449D01*
X32838Y26459D01*
X32835Y26471D01*
X32832Y26486D01*
X32825Y26500D01*
X32816Y26515D01*
X32804Y26529D01*
X32802Y26531D01*
X32798Y26535D01*
X32790Y26540D01*
X32780Y26547D01*
X32767Y26553D01*
X32751Y26559D01*
X32734Y26562D01*
X32714Y26564D01*
X32706D01*
X32699Y26563D01*
X32691Y26562D01*
X32682Y26561D01*
X32671Y26559D01*
X32659Y26556D01*
X32668Y26625D01*
X32673D01*
X32676Y26624D01*
X32688D01*
X32699Y26626D01*
X32711Y26628D01*
X32724Y26631D01*
X32740Y26636D01*
X32755Y26642D01*
X32771Y26650D01*
X32772D01*
X32773Y26651D01*
X32777Y26655D01*
X32784Y26661D01*
X32791Y26670D01*
X32798Y26682D01*
X32805Y26696D01*
X32810Y26711D01*
X32811Y26721D01*
Y26731D01*
Y26732D01*
Y26733D01*
Y26738D01*
X32810Y26746D01*
X32808Y26756D01*
X32804Y26767D01*
X32799Y26779D01*
X32792Y26791D01*
X32782Y26802D01*
X32781Y26803D01*
X32776Y26807D01*
X32770Y26811D01*
X32761Y26817D01*
X32750Y26821D01*
X32737Y26826D01*
X32723Y26830D01*
X32706Y26831D01*
X32699D01*
X32690Y26829D01*
X32679Y26827D01*
X32667Y26823D01*
X32655Y26819D01*
X32642Y26811D01*
X32630Y26802D01*
X32629Y26801D01*
X32626Y26797D01*
X32620Y26790D01*
X32613Y26781D01*
X32607Y26769D01*
X32601Y26754D01*
X32595Y26736D01*
X32591Y26716D01*
X32513Y26730D01*
Y26731D01*
X32514Y26734D01*
X32515Y26737D01*
X32515Y26743D01*
X32517Y26749D01*
X32520Y26757D01*
X32526Y26774D01*
X32535Y26795D01*
X32546Y26815D01*
X32560Y26834D01*
X32577Y26852D01*
X32578Y26853D01*
X32580Y26854D01*
X32583Y26856D01*
X32587Y26858D01*
X32591Y26862D01*
X32598Y26866D01*
X32604Y26870D01*
X32613Y26874D01*
X32631Y26882D01*
X32652Y26889D01*
X32677Y26894D01*
X32690Y26895D01*
X32713D01*
X32724Y26895D01*
D02*
G37*
G36*
X29879Y26895D02*
X29884D01*
X29890Y26894D01*
X29906Y26891D01*
X29924Y26887D01*
X29943Y26881D01*
X29962Y26872D01*
X29982Y26861D01*
X29983D01*
X29984Y26859D01*
X29986Y26858D01*
X29990Y26855D01*
X29999Y26847D01*
X30011Y26837D01*
X30023Y26823D01*
X30037Y26807D01*
X30049Y26787D01*
X30060Y26765D01*
Y26764D01*
X30061Y26762D01*
X30063Y26759D01*
X30065Y26754D01*
X30067Y26747D01*
X30070Y26739D01*
X30072Y26730D01*
X30074Y26720D01*
X30077Y26708D01*
X30080Y26694D01*
X30082Y26679D01*
X30084Y26663D01*
X30085Y26646D01*
X30087Y26627D01*
X30088Y26607D01*
Y26586D01*
Y26585D01*
Y26580D01*
Y26574D01*
Y26565D01*
X30087Y26555D01*
Y26543D01*
X30086Y26529D01*
X30085Y26515D01*
X30082Y26484D01*
X30077Y26451D01*
X30071Y26419D01*
X30066Y26403D01*
X30061Y26390D01*
Y26389D01*
X30060Y26387D01*
X30059Y26383D01*
X30057Y26377D01*
X30054Y26372D01*
X30050Y26365D01*
X30041Y26349D01*
X30030Y26331D01*
X30017Y26313D01*
X30000Y26295D01*
X29982Y26279D01*
X29981D01*
X29979Y26278D01*
X29976Y26276D01*
X29973Y26274D01*
X29967Y26271D01*
X29962Y26267D01*
X29954Y26264D01*
X29947Y26261D01*
X29929Y26254D01*
X29908Y26247D01*
X29885Y26243D01*
X29859Y26242D01*
X29851D01*
X29847Y26242D01*
X29840D01*
X29833Y26243D01*
X29815Y26247D01*
X29796Y26252D01*
X29776Y26259D01*
X29755Y26269D01*
X29745Y26276D01*
X29736Y26283D01*
X29735Y26284D01*
X29734Y26285D01*
X29731Y26288D01*
X29728Y26291D01*
X29725Y26295D01*
X29720Y26301D01*
X29711Y26314D01*
X29702Y26330D01*
X29692Y26351D01*
X29685Y26374D01*
X29679Y26401D01*
X29755Y26407D01*
Y26406D01*
X29756Y26404D01*
Y26402D01*
X29757Y26399D01*
X29760Y26389D01*
X29764Y26377D01*
X29768Y26365D01*
X29775Y26352D01*
X29782Y26340D01*
X29791Y26329D01*
X29792Y26328D01*
X29796Y26326D01*
X29802Y26322D01*
X29810Y26318D01*
X29820Y26314D01*
X29832Y26310D01*
X29846Y26307D01*
X29861Y26306D01*
X29867D01*
X29874Y26307D01*
X29882Y26308D01*
X29892Y26310D01*
X29902Y26313D01*
X29913Y26316D01*
X29924Y26322D01*
X29924Y26323D01*
X29928Y26325D01*
X29934Y26328D01*
X29939Y26334D01*
X29947Y26340D01*
X29954Y26348D01*
X29962Y26356D01*
X29969Y26366D01*
X29970Y26367D01*
X29972Y26372D01*
X29975Y26378D01*
X29979Y26387D01*
X29984Y26398D01*
X29988Y26411D01*
X29993Y26426D01*
X29998Y26442D01*
Y26443D01*
X29999Y26444D01*
Y26447D01*
X29999Y26451D01*
X30001Y26460D01*
X30004Y26472D01*
X30006Y26487D01*
X30008Y26502D01*
X30009Y26520D01*
X30010Y26538D01*
Y26539D01*
Y26542D01*
Y26547D01*
Y26554D01*
X30009Y26552D01*
X30005Y26548D01*
X29999Y26541D01*
X29993Y26532D01*
X29984Y26523D01*
X29973Y26513D01*
X29960Y26502D01*
X29945Y26493D01*
X29943Y26492D01*
X29937Y26489D01*
X29929Y26486D01*
X29919Y26482D01*
X29905Y26477D01*
X29890Y26474D01*
X29874Y26471D01*
X29856Y26470D01*
X29849D01*
X29843Y26471D01*
X29836Y26472D01*
X29828Y26473D01*
X29819Y26475D01*
X29810Y26477D01*
X29789Y26484D01*
X29777Y26488D01*
X29766Y26494D01*
X29754Y26500D01*
X29743Y26509D01*
X29732Y26517D01*
X29722Y26527D01*
X29721Y26528D01*
X29719Y26530D01*
X29717Y26533D01*
X29714Y26537D01*
X29709Y26544D01*
X29704Y26550D01*
X29700Y26559D01*
X29695Y26568D01*
X29690Y26578D01*
X29685Y26589D01*
X29680Y26602D01*
X29676Y26615D01*
X29672Y26630D01*
X29670Y26646D01*
X29668Y26661D01*
X29667Y26679D01*
Y26680D01*
Y26684D01*
Y26688D01*
X29668Y26695D01*
X29669Y26703D01*
X29670Y26713D01*
X29672Y26723D01*
X29675Y26735D01*
X29681Y26760D01*
X29686Y26772D01*
X29691Y26786D01*
X29698Y26799D01*
X29706Y26811D01*
X29715Y26824D01*
X29725Y26835D01*
X29726Y26836D01*
X29727Y26838D01*
X29730Y26841D01*
X29735Y26845D01*
X29740Y26849D01*
X29748Y26855D01*
X29755Y26859D01*
X29764Y26866D01*
X29774Y26871D01*
X29785Y26876D01*
X29810Y26886D01*
X29823Y26890D01*
X29838Y26893D01*
X29852Y26895D01*
X29868Y26895D01*
X29875D01*
X29879Y26895D01*
D02*
G37*
G36*
X35571Y26478D02*
X35658Y26478D01*
Y26406D01*
X35571Y26406D01*
Y26253D01*
X35492D01*
Y26406D01*
X35214D01*
Y26478D01*
X35507Y26893D01*
X35571D01*
Y26478D01*
D02*
G37*
G36*
X35126Y26253D02*
X35036D01*
Y26342D01*
X35126D01*
Y26253D01*
D02*
G37*
G36*
X34722Y26895D02*
X34729Y26894D01*
X34738Y26893D01*
X34748Y26891D01*
X34759Y26889D01*
X34783Y26883D01*
X34807Y26873D01*
X34819Y26868D01*
X34831Y26861D01*
X34842Y26853D01*
X34852Y26844D01*
X34853Y26843D01*
X34855Y26842D01*
X34857Y26838D01*
X34860Y26834D01*
X34865Y26830D01*
X34870Y26823D01*
X34874Y26817D01*
X34880Y26809D01*
X34889Y26791D01*
X34898Y26769D01*
X34902Y26758D01*
X34904Y26745D01*
X34906Y26732D01*
X34907Y26718D01*
Y26716D01*
Y26711D01*
X34906Y26704D01*
X34905Y26694D01*
X34903Y26683D01*
X34899Y26670D01*
X34895Y26656D01*
X34890Y26642D01*
X34889Y26640D01*
X34887Y26636D01*
X34883Y26628D01*
X34878Y26618D01*
X34870Y26607D01*
X34861Y26593D01*
X34850Y26579D01*
X34837Y26563D01*
X34835Y26562D01*
X34831Y26556D01*
X34826Y26551D01*
X34821Y26547D01*
X34816Y26541D01*
X34808Y26534D01*
X34801Y26526D01*
X34792Y26518D01*
X34783Y26509D01*
X34771Y26499D01*
X34759Y26488D01*
X34747Y26476D01*
X34732Y26464D01*
X34717Y26451D01*
X34716Y26451D01*
X34714Y26449D01*
X34710Y26446D01*
X34706Y26442D01*
X34700Y26437D01*
X34694Y26431D01*
X34679Y26419D01*
X34663Y26405D01*
X34648Y26391D01*
X34636Y26379D01*
X34630Y26375D01*
X34625Y26370D01*
X34624Y26369D01*
X34622Y26366D01*
X34618Y26363D01*
X34613Y26357D01*
X34609Y26351D01*
X34603Y26344D01*
X34592Y26328D01*
X34907D01*
Y26253D01*
X34483D01*
Y26254D01*
Y26257D01*
Y26263D01*
X34484Y26270D01*
X34485Y26279D01*
X34487Y26288D01*
X34488Y26297D01*
X34492Y26307D01*
Y26308D01*
X34493Y26309D01*
X34495Y26315D01*
X34499Y26323D01*
X34504Y26334D01*
X34512Y26347D01*
X34521Y26362D01*
X34531Y26377D01*
X34544Y26392D01*
Y26393D01*
X34546Y26394D01*
X34550Y26400D01*
X34559Y26408D01*
X34571Y26420D01*
X34585Y26434D01*
X34602Y26451D01*
X34623Y26469D01*
X34647Y26488D01*
X34648Y26489D01*
X34651Y26492D01*
X34657Y26497D01*
X34663Y26502D01*
X34672Y26510D01*
X34682Y26518D01*
X34692Y26527D01*
X34704Y26537D01*
X34727Y26560D01*
X34750Y26582D01*
X34761Y26593D01*
X34771Y26604D01*
X34781Y26614D01*
X34788Y26624D01*
Y26625D01*
X34790Y26626D01*
X34792Y26629D01*
X34794Y26633D01*
X34800Y26643D01*
X34808Y26655D01*
X34814Y26670D01*
X34821Y26686D01*
X34824Y26703D01*
X34826Y26720D01*
Y26721D01*
Y26722D01*
X34825Y26727D01*
X34824Y26736D01*
X34821Y26747D01*
X34818Y26760D01*
X34811Y26772D01*
X34803Y26785D01*
X34792Y26798D01*
X34790Y26800D01*
X34785Y26804D01*
X34779Y26809D01*
X34769Y26815D01*
X34756Y26821D01*
X34741Y26826D01*
X34723Y26830D01*
X34704Y26831D01*
X34698D01*
X34695Y26830D01*
X34684Y26829D01*
X34671Y26826D01*
X34657Y26822D01*
X34641Y26816D01*
X34626Y26808D01*
X34612Y26797D01*
X34611Y26795D01*
X34607Y26790D01*
X34601Y26783D01*
X34596Y26772D01*
X34589Y26759D01*
X34584Y26742D01*
X34580Y26723D01*
X34578Y26702D01*
X34498Y26710D01*
Y26711D01*
X34499Y26714D01*
Y26719D01*
X34500Y26725D01*
X34501Y26733D01*
X34503Y26741D01*
X34506Y26751D01*
X34509Y26761D01*
X34516Y26784D01*
X34527Y26806D01*
X34534Y26817D01*
X34542Y26828D01*
X34550Y26838D01*
X34560Y26847D01*
X34561Y26848D01*
X34562Y26849D01*
X34565Y26852D01*
X34570Y26855D01*
X34575Y26858D01*
X34582Y26862D01*
X34589Y26867D01*
X34599Y26871D01*
X34609Y26876D01*
X34620Y26881D01*
X34632Y26884D01*
X34645Y26888D01*
X34659Y26891D01*
X34673Y26894D01*
X34689Y26895D01*
X34706Y26895D01*
X34715D01*
X34722Y26895D01*
D02*
G37*
G36*
X33229D02*
X33236Y26894D01*
X33245Y26893D01*
X33255Y26891D01*
X33266Y26889D01*
X33290Y26883D01*
X33314Y26873D01*
X33326Y26868D01*
X33338Y26861D01*
X33349Y26853D01*
X33359Y26844D01*
X33360Y26843D01*
X33362Y26842D01*
X33364Y26838D01*
X33367Y26834D01*
X33372Y26830D01*
X33377Y26823D01*
X33381Y26817D01*
X33387Y26809D01*
X33396Y26791D01*
X33405Y26769D01*
X33409Y26758D01*
X33411Y26745D01*
X33413Y26732D01*
X33414Y26718D01*
Y26716D01*
Y26711D01*
X33413Y26704D01*
X33412Y26694D01*
X33410Y26683D01*
X33406Y26670D01*
X33403Y26656D01*
X33397Y26642D01*
X33396Y26640D01*
X33394Y26636D01*
X33390Y26628D01*
X33385Y26618D01*
X33378Y26607D01*
X33368Y26593D01*
X33357Y26579D01*
X33344Y26563D01*
X33342Y26562D01*
X33338Y26556D01*
X33333Y26551D01*
X33328Y26547D01*
X33323Y26541D01*
X33316Y26534D01*
X33308Y26526D01*
X33299Y26518D01*
X33290Y26509D01*
X33279Y26499D01*
X33267Y26488D01*
X33254Y26476D01*
X33239Y26464D01*
X33224Y26451D01*
X33223Y26451D01*
X33221Y26449D01*
X33217Y26446D01*
X33213Y26442D01*
X33207Y26437D01*
X33201Y26431D01*
X33186Y26419D01*
X33170Y26405D01*
X33156Y26391D01*
X33143Y26379D01*
X33137Y26375D01*
X33132Y26370D01*
X33131Y26369D01*
X33129Y26366D01*
X33125Y26363D01*
X33120Y26357D01*
X33116Y26351D01*
X33110Y26344D01*
X33099Y26328D01*
X33415D01*
Y26253D01*
X32990D01*
Y26254D01*
Y26257D01*
Y26263D01*
X32991Y26270D01*
X32992Y26279D01*
X32994Y26288D01*
X32996Y26297D01*
X32999Y26307D01*
Y26308D01*
X33000Y26309D01*
X33002Y26315D01*
X33006Y26323D01*
X33011Y26334D01*
X33019Y26347D01*
X33028Y26362D01*
X33038Y26377D01*
X33051Y26392D01*
Y26393D01*
X33053Y26394D01*
X33057Y26400D01*
X33066Y26408D01*
X33078Y26420D01*
X33092Y26434D01*
X33109Y26451D01*
X33131Y26469D01*
X33154Y26488D01*
X33155Y26489D01*
X33158Y26492D01*
X33164Y26497D01*
X33170Y26502D01*
X33179Y26510D01*
X33189Y26518D01*
X33199Y26527D01*
X33211Y26537D01*
X33234Y26560D01*
X33257Y26582D01*
X33268Y26593D01*
X33279Y26604D01*
X33288Y26614D01*
X33295Y26624D01*
Y26625D01*
X33297Y26626D01*
X33299Y26629D01*
X33301Y26633D01*
X33307Y26643D01*
X33315Y26655D01*
X33321Y26670D01*
X33328Y26686D01*
X33331Y26703D01*
X33333Y26720D01*
Y26721D01*
Y26722D01*
X33332Y26727D01*
X33331Y26736D01*
X33328Y26747D01*
X33325Y26760D01*
X33318Y26772D01*
X33310Y26785D01*
X33299Y26798D01*
X33297Y26800D01*
X33292Y26804D01*
X33286Y26809D01*
X33276Y26815D01*
X33263Y26821D01*
X33248Y26826D01*
X33230Y26830D01*
X33211Y26831D01*
X33205D01*
X33202Y26830D01*
X33191Y26829D01*
X33178Y26826D01*
X33164Y26822D01*
X33148Y26816D01*
X33133Y26808D01*
X33119Y26797D01*
X33118Y26795D01*
X33114Y26790D01*
X33108Y26783D01*
X33103Y26772D01*
X33096Y26759D01*
X33091Y26742D01*
X33087Y26723D01*
X33085Y26702D01*
X33005Y26710D01*
Y26711D01*
X33006Y26714D01*
Y26719D01*
X33007Y26725D01*
X33008Y26733D01*
X33010Y26741D01*
X33013Y26751D01*
X33016Y26761D01*
X33023Y26784D01*
X33034Y26806D01*
X33041Y26817D01*
X33049Y26828D01*
X33057Y26838D01*
X33067Y26847D01*
X33068Y26848D01*
X33070Y26849D01*
X33072Y26852D01*
X33077Y26855D01*
X33082Y26858D01*
X33089Y26862D01*
X33096Y26867D01*
X33106Y26871D01*
X33116Y26876D01*
X33127Y26881D01*
X33139Y26884D01*
X33152Y26888D01*
X33166Y26891D01*
X33180Y26894D01*
X33196Y26895D01*
X33213Y26895D01*
X33222D01*
X33229Y26895D01*
D02*
G37*
G36*
X31491Y26478D02*
X31577D01*
Y26406D01*
X31491D01*
Y26253D01*
X31412D01*
Y26406D01*
X31133D01*
Y26478D01*
X31427Y26893D01*
X31491D01*
Y26478D01*
D02*
G37*
G36*
X30890Y26895D02*
X30898Y26894D01*
X30907Y26893D01*
X30917Y26891D01*
X30927Y26889D01*
X30951Y26883D01*
X30975Y26873D01*
X30987Y26868D01*
X30999Y26861D01*
X31010Y26853D01*
X31021Y26844D01*
X31022Y26843D01*
X31023Y26842D01*
X31025Y26838D01*
X31029Y26834D01*
X31034Y26830D01*
X31038Y26823D01*
X31043Y26817D01*
X31048Y26809D01*
X31058Y26791D01*
X31067Y26769D01*
X31071Y26758D01*
X31072Y26745D01*
X31074Y26732D01*
X31075Y26718D01*
Y26716D01*
Y26711D01*
X31074Y26704D01*
X31073Y26694D01*
X31072Y26683D01*
X31068Y26670D01*
X31064Y26656D01*
X31059Y26642D01*
X31058Y26640D01*
X31056Y26636D01*
X31052Y26628D01*
X31047Y26618D01*
X31039Y26607D01*
X31030Y26593D01*
X31019Y26579D01*
X31006Y26563D01*
X31004Y26562D01*
X30999Y26556D01*
X30995Y26551D01*
X30990Y26547D01*
X30985Y26541D01*
X30977Y26534D01*
X30970Y26526D01*
X30961Y26518D01*
X30951Y26509D01*
X30940Y26499D01*
X30928Y26488D01*
X30915Y26476D01*
X30900Y26464D01*
X30886Y26451D01*
X30885Y26451D01*
X30883Y26449D01*
X30879Y26446D01*
X30874Y26442D01*
X30869Y26437D01*
X30862Y26431D01*
X30848Y26419D01*
X30832Y26405D01*
X30817Y26391D01*
X30804Y26379D01*
X30799Y26375D01*
X30794Y26370D01*
X30793Y26369D01*
X30790Y26366D01*
X30787Y26363D01*
X30782Y26357D01*
X30777Y26351D01*
X30772Y26344D01*
X30761Y26328D01*
X31076D01*
Y26253D01*
X30652D01*
Y26254D01*
Y26257D01*
Y26263D01*
X30652Y26270D01*
X30653Y26279D01*
X30655Y26288D01*
X30657Y26297D01*
X30661Y26307D01*
Y26308D01*
X30662Y26309D01*
X30664Y26315D01*
X30667Y26323D01*
X30673Y26334D01*
X30680Y26347D01*
X30689Y26362D01*
X30700Y26377D01*
X30713Y26392D01*
Y26393D01*
X30714Y26394D01*
X30719Y26400D01*
X30727Y26408D01*
X30739Y26420D01*
X30753Y26434D01*
X30771Y26451D01*
X30792Y26469D01*
X30815Y26488D01*
X30816Y26489D01*
X30820Y26492D01*
X30825Y26497D01*
X30832Y26502D01*
X30840Y26510D01*
X30850Y26518D01*
X30861Y26527D01*
X30873Y26537D01*
X30896Y26560D01*
X30919Y26582D01*
X30930Y26593D01*
X30940Y26604D01*
X30949Y26614D01*
X30957Y26624D01*
Y26625D01*
X30959Y26626D01*
X30961Y26629D01*
X30962Y26633D01*
X30969Y26643D01*
X30976Y26655D01*
X30983Y26670D01*
X30989Y26686D01*
X30993Y26703D01*
X30995Y26720D01*
Y26721D01*
Y26722D01*
X30994Y26727D01*
X30993Y26736D01*
X30990Y26747D01*
X30986Y26760D01*
X30980Y26772D01*
X30972Y26785D01*
X30961Y26798D01*
X30959Y26800D01*
X30954Y26804D01*
X30948Y26809D01*
X30937Y26815D01*
X30924Y26821D01*
X30910Y26826D01*
X30892Y26830D01*
X30873Y26831D01*
X30867D01*
X30863Y26830D01*
X30852Y26829D01*
X30839Y26826D01*
X30825Y26822D01*
X30810Y26816D01*
X30795Y26808D01*
X30781Y26797D01*
X30779Y26795D01*
X30775Y26790D01*
X30770Y26783D01*
X30764Y26772D01*
X30758Y26759D01*
X30752Y26742D01*
X30749Y26723D01*
X30747Y26702D01*
X30666Y26710D01*
Y26711D01*
X30667Y26714D01*
Y26719D01*
X30668Y26725D01*
X30670Y26733D01*
X30672Y26741D01*
X30675Y26751D01*
X30677Y26761D01*
X30685Y26784D01*
X30696Y26806D01*
X30702Y26817D01*
X30711Y26828D01*
X30719Y26838D01*
X30728Y26847D01*
X30729Y26848D01*
X30731Y26849D01*
X30734Y26852D01*
X30738Y26855D01*
X30744Y26858D01*
X30751Y26862D01*
X30758Y26867D01*
X30767Y26871D01*
X30777Y26876D01*
X30788Y26881D01*
X30800Y26884D01*
X30813Y26888D01*
X30827Y26891D01*
X30842Y26894D01*
X30858Y26895D01*
X30874Y26895D01*
X30884D01*
X30890Y26895D01*
D02*
G37*
G36*
X29092Y26822D02*
X29091Y26821D01*
X29089Y26820D01*
X29086Y26816D01*
X29082Y26810D01*
X29076Y26804D01*
X29069Y26797D01*
X29061Y26787D01*
X29053Y26776D01*
X29045Y26765D01*
X29035Y26752D01*
X29024Y26737D01*
X29014Y26723D01*
X29003Y26706D01*
X28992Y26688D01*
X28981Y26669D01*
X28970Y26649D01*
X28969Y26648D01*
X28967Y26645D01*
X28964Y26639D01*
X28960Y26631D01*
X28955Y26621D01*
X28950Y26610D01*
X28943Y26597D01*
X28937Y26582D01*
X28929Y26565D01*
X28921Y26549D01*
X28913Y26530D01*
X28906Y26511D01*
X28891Y26471D01*
X28877Y26428D01*
Y26427D01*
X28876Y26425D01*
X28876Y26420D01*
X28874Y26414D01*
X28872Y26407D01*
X28870Y26398D01*
X28867Y26388D01*
X28865Y26377D01*
X28863Y26364D01*
X28860Y26350D01*
X28855Y26320D01*
X28851Y26288D01*
X28848Y26253D01*
X28767D01*
Y26254D01*
Y26256D01*
Y26260D01*
X28768Y26266D01*
Y26273D01*
X28769Y26282D01*
X28770Y26292D01*
X28771Y26303D01*
X28773Y26316D01*
X28775Y26329D01*
X28777Y26345D01*
X28780Y26361D01*
X28783Y26377D01*
X28787Y26396D01*
X28796Y26434D01*
Y26435D01*
X28797Y26439D01*
X28799Y26444D01*
X28802Y26452D01*
X28804Y26462D01*
X28808Y26473D01*
X28812Y26486D01*
X28817Y26500D01*
X28823Y26515D01*
X28828Y26531D01*
X28842Y26566D01*
X28859Y26603D01*
X28877Y26640D01*
X28878Y26641D01*
X28880Y26645D01*
X28883Y26649D01*
X28887Y26657D01*
X28891Y26665D01*
X28898Y26675D01*
X28904Y26686D01*
X28912Y26698D01*
X28929Y26725D01*
X28948Y26753D01*
X28969Y26782D01*
X28991Y26809D01*
X28678D01*
Y26884D01*
X29092D01*
Y26822D01*
D02*
G37*
G36*
X28594D02*
X28593Y26821D01*
X28592Y26820D01*
X28588Y26816D01*
X28584Y26810D01*
X28579Y26804D01*
X28571Y26797D01*
X28564Y26787D01*
X28556Y26776D01*
X28547Y26765D01*
X28537Y26752D01*
X28527Y26737D01*
X28517Y26723D01*
X28506Y26706D01*
X28494Y26688D01*
X28483Y26669D01*
X28472Y26649D01*
X28471Y26648D01*
X28469Y26645D01*
X28467Y26639D01*
X28462Y26631D01*
X28457Y26621D01*
X28452Y26610D01*
X28445Y26597D01*
X28439Y26582D01*
X28432Y26565D01*
X28423Y26549D01*
X28416Y26530D01*
X28408Y26511D01*
X28394Y26471D01*
X28380Y26428D01*
Y26427D01*
X28379Y26425D01*
X28378Y26420D01*
X28376Y26414D01*
X28374Y26407D01*
X28372Y26398D01*
X28370Y26388D01*
X28368Y26377D01*
X28365Y26364D01*
X28362Y26350D01*
X28358Y26320D01*
X28353Y26288D01*
X28350Y26253D01*
X28270D01*
Y26254D01*
Y26256D01*
Y26260D01*
X28271Y26266D01*
Y26273D01*
X28272Y26282D01*
X28272Y26292D01*
X28273Y26303D01*
X28275Y26316D01*
X28277Y26329D01*
X28280Y26345D01*
X28283Y26361D01*
X28285Y26377D01*
X28289Y26396D01*
X28298Y26434D01*
Y26435D01*
X28299Y26439D01*
X28301Y26444D01*
X28304Y26452D01*
X28307Y26462D01*
X28310Y26473D01*
X28314Y26486D01*
X28320Y26500D01*
X28325Y26515D01*
X28331Y26531D01*
X28345Y26566D01*
X28361Y26603D01*
X28380Y26640D01*
X28381Y26641D01*
X28383Y26645D01*
X28385Y26649D01*
X28389Y26657D01*
X28394Y26665D01*
X28400Y26675D01*
X28407Y26686D01*
X28414Y26698D01*
X28432Y26725D01*
X28450Y26753D01*
X28471Y26782D01*
X28494Y26809D01*
X28180D01*
Y26884D01*
X28594D01*
Y26822D01*
D02*
G37*
G36*
X28119Y26817D02*
X27908D01*
Y26253D01*
X27823D01*
Y26817D01*
X27612D01*
Y26893D01*
X28119D01*
Y26817D01*
D02*
G37*
G36*
X33726Y26895D02*
X33738Y26893D01*
X33752Y26890D01*
X33767Y26886D01*
X33783Y26882D01*
X33797Y26874D01*
X33798D01*
X33799Y26873D01*
X33804Y26871D01*
X33811Y26866D01*
X33821Y26859D01*
X33831Y26850D01*
X33842Y26840D01*
X33852Y26828D01*
X33862Y26814D01*
X33863Y26812D01*
X33867Y26808D01*
X33871Y26799D01*
X33877Y26787D01*
X33883Y26773D01*
X33890Y26758D01*
X33896Y26739D01*
X33902Y26719D01*
Y26718D01*
X33903Y26716D01*
X33904Y26713D01*
X33905Y26709D01*
X33906Y26703D01*
X33907Y26697D01*
X33908Y26688D01*
X33909Y26679D01*
X33911Y26669D01*
X33912Y26658D01*
X33913Y26645D01*
X33915Y26632D01*
X33916Y26617D01*
Y26602D01*
X33917Y26586D01*
Y26568D01*
Y26567D01*
Y26563D01*
Y26557D01*
Y26550D01*
X33916Y26539D01*
Y26528D01*
X33915Y26516D01*
X33914Y26503D01*
X33911Y26474D01*
X33907Y26443D01*
X33901Y26414D01*
X33897Y26400D01*
X33893Y26386D01*
Y26385D01*
X33892Y26383D01*
X33890Y26379D01*
X33888Y26375D01*
X33886Y26368D01*
X33883Y26362D01*
X33875Y26346D01*
X33866Y26329D01*
X33854Y26311D01*
X33840Y26294D01*
X33823Y26279D01*
X33822D01*
X33822Y26277D01*
X33819Y26275D01*
X33815Y26273D01*
X33810Y26270D01*
X33806Y26266D01*
X33792Y26260D01*
X33775Y26254D01*
X33756Y26247D01*
X33733Y26243D01*
X33708Y26242D01*
X33698D01*
X33692Y26242D01*
X33685Y26243D01*
X33675Y26245D01*
X33665Y26247D01*
X33654Y26250D01*
X33643Y26254D01*
X33631Y26257D01*
X33619Y26263D01*
X33607Y26269D01*
X33595Y26277D01*
X33583Y26286D01*
X33572Y26296D01*
X33562Y26307D01*
X33561Y26308D01*
X33559Y26311D01*
X33556Y26316D01*
X33551Y26323D01*
X33547Y26331D01*
X33542Y26342D01*
X33536Y26355D01*
X33530Y26370D01*
X33525Y26387D01*
X33519Y26406D01*
X33514Y26427D01*
X33509Y26451D01*
X33504Y26477D01*
X33501Y26505D01*
X33500Y26536D01*
X33499Y26568D01*
Y26569D01*
Y26573D01*
Y26579D01*
Y26587D01*
X33500Y26597D01*
Y26608D01*
X33501Y26620D01*
X33501Y26634D01*
X33504Y26662D01*
X33509Y26693D01*
X33514Y26723D01*
X33518Y26737D01*
X33522Y26751D01*
Y26752D01*
X33523Y26754D01*
X33525Y26758D01*
X33526Y26762D01*
X33528Y26769D01*
X33532Y26775D01*
X33539Y26791D01*
X33549Y26808D01*
X33561Y26825D01*
X33575Y26843D01*
X33591Y26858D01*
X33592D01*
X33593Y26859D01*
X33596Y26861D01*
X33600Y26863D01*
X33604Y26867D01*
X33610Y26870D01*
X33624Y26877D01*
X33640Y26883D01*
X33660Y26890D01*
X33683Y26894D01*
X33708Y26895D01*
X33716D01*
X33726Y26895D01*
D02*
G37*
G36*
X31885D02*
X31898Y26893D01*
X31911Y26890D01*
X31926Y26886D01*
X31942Y26882D01*
X31957Y26874D01*
X31958D01*
X31959Y26873D01*
X31963Y26871D01*
X31971Y26866D01*
X31980Y26859D01*
X31990Y26850D01*
X32001Y26840D01*
X32011Y26828D01*
X32021Y26814D01*
X32022Y26812D01*
X32026Y26808D01*
X32030Y26799D01*
X32036Y26787D01*
X32042Y26773D01*
X32049Y26758D01*
X32056Y26739D01*
X32061Y26719D01*
Y26718D01*
X32062Y26716D01*
X32063Y26713D01*
X32064Y26709D01*
X32065Y26703D01*
X32066Y26697D01*
X32068Y26688D01*
X32069Y26679D01*
X32071Y26669D01*
X32071Y26658D01*
X32072Y26645D01*
X32074Y26632D01*
X32075Y26617D01*
Y26602D01*
X32076Y26586D01*
Y26568D01*
Y26567D01*
Y26563D01*
Y26557D01*
Y26550D01*
X32075Y26539D01*
Y26528D01*
X32074Y26516D01*
X32073Y26503D01*
X32071Y26474D01*
X32066Y26443D01*
X32060Y26414D01*
X32057Y26400D01*
X32052Y26386D01*
Y26385D01*
X32051Y26383D01*
X32049Y26379D01*
X32047Y26375D01*
X32046Y26368D01*
X32042Y26362D01*
X32034Y26346D01*
X32025Y26329D01*
X32013Y26311D01*
X31999Y26294D01*
X31983Y26279D01*
X31982D01*
X31981Y26277D01*
X31978Y26275D01*
X31974Y26273D01*
X31970Y26270D01*
X31965Y26266D01*
X31951Y26260D01*
X31935Y26254D01*
X31915Y26247D01*
X31892Y26243D01*
X31867Y26242D01*
X31858D01*
X31851Y26242D01*
X31844Y26243D01*
X31835Y26245D01*
X31824Y26247D01*
X31813Y26250D01*
X31802Y26254D01*
X31790Y26257D01*
X31778Y26263D01*
X31766Y26269D01*
X31754Y26277D01*
X31742Y26286D01*
X31731Y26296D01*
X31721Y26307D01*
X31720Y26308D01*
X31718Y26311D01*
X31715Y26316D01*
X31711Y26323D01*
X31706Y26331D01*
X31701Y26342D01*
X31695Y26355D01*
X31689Y26370D01*
X31684Y26387D01*
X31678Y26406D01*
X31673Y26427D01*
X31668Y26451D01*
X31663Y26477D01*
X31661Y26505D01*
X31659Y26536D01*
X31658Y26568D01*
Y26569D01*
Y26573D01*
Y26579D01*
Y26587D01*
X31659Y26597D01*
Y26608D01*
X31660Y26620D01*
X31661Y26634D01*
X31663Y26662D01*
X31668Y26693D01*
X31674Y26723D01*
X31677Y26737D01*
X31681Y26751D01*
Y26752D01*
X31682Y26754D01*
X31684Y26758D01*
X31686Y26762D01*
X31688Y26769D01*
X31691Y26775D01*
X31699Y26791D01*
X31708Y26808D01*
X31720Y26825D01*
X31734Y26843D01*
X31750Y26858D01*
X31751D01*
X31752Y26859D01*
X31755Y26861D01*
X31759Y26863D01*
X31763Y26867D01*
X31769Y26870D01*
X31783Y26877D01*
X31799Y26883D01*
X31819Y26890D01*
X31842Y26894D01*
X31867Y26895D01*
X31875D01*
X31885Y26895D01*
D02*
G37*
G36*
X29392Y26895D02*
X29399Y26894D01*
X29407Y26893D01*
X29417Y26892D01*
X29426Y26889D01*
X29448Y26883D01*
X29470Y26875D01*
X29481Y26870D01*
X29493Y26863D01*
X29503Y26855D01*
X29513Y26846D01*
X29514Y26846D01*
X29515Y26845D01*
X29518Y26842D01*
X29521Y26838D01*
X29525Y26833D01*
X29530Y26827D01*
X29539Y26813D01*
X29548Y26796D01*
X29556Y26775D01*
X29563Y26752D01*
X29564Y26740D01*
X29565Y26727D01*
Y26726D01*
Y26725D01*
Y26720D01*
X29564Y26711D01*
X29562Y26701D01*
X29559Y26688D01*
X29555Y26675D01*
X29549Y26662D01*
X29541Y26649D01*
X29540Y26648D01*
X29536Y26644D01*
X29530Y26638D01*
X29523Y26631D01*
X29513Y26623D01*
X29501Y26614D01*
X29487Y26606D01*
X29470Y26599D01*
X29471D01*
X29473Y26598D01*
X29476Y26597D01*
X29480Y26595D01*
X29491Y26590D01*
X29504Y26584D01*
X29518Y26574D01*
X29532Y26564D01*
X29546Y26551D01*
X29559Y26537D01*
Y26536D01*
X29560Y26535D01*
X29564Y26529D01*
X29569Y26520D01*
X29575Y26508D01*
X29580Y26493D01*
X29586Y26476D01*
X29590Y26456D01*
X29591Y26435D01*
Y26434D01*
Y26431D01*
Y26426D01*
X29590Y26421D01*
X29589Y26414D01*
X29588Y26406D01*
X29586Y26397D01*
X29583Y26387D01*
X29577Y26365D01*
X29572Y26353D01*
X29566Y26342D01*
X29559Y26330D01*
X29552Y26319D01*
X29542Y26308D01*
X29532Y26297D01*
X29531Y26296D01*
X29530Y26294D01*
X29527Y26291D01*
X29522Y26289D01*
X29516Y26284D01*
X29509Y26279D01*
X29501Y26275D01*
X29492Y26269D01*
X29481Y26264D01*
X29469Y26259D01*
X29456Y26254D01*
X29444Y26250D01*
X29429Y26247D01*
X29413Y26244D01*
X29397Y26242D01*
X29380Y26242D01*
X29370D01*
X29364Y26242D01*
X29356Y26243D01*
X29346Y26244D01*
X29336Y26246D01*
X29325Y26249D01*
X29300Y26255D01*
X29287Y26260D01*
X29275Y26265D01*
X29262Y26271D01*
X29249Y26279D01*
X29237Y26287D01*
X29226Y26297D01*
X29225Y26298D01*
X29223Y26300D01*
X29221Y26303D01*
X29217Y26307D01*
X29213Y26313D01*
X29208Y26319D01*
X29203Y26327D01*
X29197Y26336D01*
X29192Y26345D01*
X29187Y26356D01*
X29178Y26379D01*
X29174Y26393D01*
X29172Y26407D01*
X29170Y26422D01*
X29169Y26437D01*
Y26438D01*
Y26439D01*
Y26443D01*
X29170Y26447D01*
Y26452D01*
X29171Y26459D01*
X29172Y26474D01*
X29176Y26490D01*
X29182Y26507D01*
X29190Y26525D01*
X29200Y26541D01*
Y26542D01*
X29202Y26543D01*
X29206Y26548D01*
X29213Y26555D01*
X29223Y26564D01*
X29236Y26574D01*
X29252Y26584D01*
X29270Y26592D01*
X29291Y26599D01*
X29290D01*
X29289Y26599D01*
X29286Y26600D01*
X29283Y26602D01*
X29274Y26606D01*
X29263Y26611D01*
X29251Y26619D01*
X29239Y26628D01*
X29228Y26638D01*
X29218Y26649D01*
X29217Y26651D01*
X29214Y26655D01*
X29210Y26662D01*
X29207Y26672D01*
X29202Y26684D01*
X29198Y26698D01*
X29196Y26713D01*
X29195Y26730D01*
Y26731D01*
Y26733D01*
Y26736D01*
X29196Y26742D01*
X29197Y26747D01*
X29197Y26755D01*
X29201Y26771D01*
X29207Y26789D01*
X29216Y26809D01*
X29221Y26819D01*
X29228Y26829D01*
X29236Y26838D01*
X29245Y26847D01*
X29246Y26848D01*
X29247Y26849D01*
X29250Y26852D01*
X29254Y26855D01*
X29258Y26858D01*
X29265Y26862D01*
X29272Y26867D01*
X29280Y26871D01*
X29289Y26876D01*
X29299Y26881D01*
X29310Y26884D01*
X29322Y26888D01*
X29348Y26894D01*
X29363Y26895D01*
X29378Y26895D01*
X29386D01*
X29392Y26895D01*
D02*
G37*
G36*
X34466Y26075D02*
X33945D01*
Y26131D01*
X34466D01*
Y26075D01*
D02*
G37*
G36*
X30635D02*
X30114D01*
Y26131D01*
X30635D01*
Y26075D01*
D02*
G37*
G36*
X35922Y20322D02*
X35929Y20321D01*
X35938Y20320D01*
X35948Y20317D01*
X35958Y20314D01*
X35968Y20309D01*
X35968D01*
X35969Y20309D01*
X35972Y20307D01*
X35977Y20304D01*
X35983Y20300D01*
X35989Y20294D01*
X35996Y20288D01*
X36003Y20281D01*
X36008Y20272D01*
X36009Y20271D01*
X36010Y20269D01*
X36013Y20264D01*
X36015Y20257D01*
X36018Y20250D01*
X36020Y20242D01*
X36022Y20232D01*
X36023Y20223D01*
Y20222D01*
Y20219D01*
X36022Y20214D01*
X36021Y20208D01*
X36019Y20201D01*
X36016Y20193D01*
X36013Y20185D01*
X36009Y20178D01*
X36008Y20176D01*
X36006Y20174D01*
X36003Y20170D01*
X35999Y20166D01*
X35993Y20161D01*
X35986Y20155D01*
X35979Y20150D01*
X35969Y20145D01*
X35970D01*
X35971Y20145D01*
X35973Y20144D01*
X35975Y20144D01*
X35981Y20141D01*
X35989Y20138D01*
X35998Y20134D01*
X36006Y20128D01*
X36015Y20121D01*
X36023Y20113D01*
X36023Y20111D01*
X36025Y20108D01*
X36029Y20103D01*
X36032Y20095D01*
X36035Y20087D01*
X36039Y20076D01*
X36041Y20064D01*
X36041Y20050D01*
Y20050D01*
Y20048D01*
Y20045D01*
X36041Y20042D01*
X36040Y20038D01*
X36039Y20033D01*
X36038Y20027D01*
X36037Y20021D01*
X36033Y20008D01*
X36029Y20000D01*
X36026Y19994D01*
X36021Y19987D01*
X36016Y19979D01*
X36011Y19972D01*
X36004Y19966D01*
X36004Y19965D01*
X36003Y19964D01*
X36000Y19962D01*
X35998Y19960D01*
X35994Y19957D01*
X35990Y19954D01*
X35985Y19951D01*
X35979Y19948D01*
X35973Y19945D01*
X35965Y19942D01*
X35958Y19939D01*
X35950Y19936D01*
X35941Y19934D01*
X35932Y19932D01*
X35922Y19931D01*
X35912Y19931D01*
X35907D01*
X35903Y19931D01*
X35899Y19932D01*
X35894Y19932D01*
X35888Y19933D01*
X35882Y19934D01*
X35869Y19938D01*
X35855Y19943D01*
X35848Y19947D01*
X35841Y19951D01*
X35834Y19956D01*
X35828Y19961D01*
X35827Y19961D01*
X35826Y19962D01*
X35824Y19964D01*
X35823Y19966D01*
X35820Y19969D01*
X35817Y19973D01*
X35814Y19977D01*
X35811Y19982D01*
X35807Y19987D01*
X35804Y19993D01*
X35798Y20006D01*
X35793Y20022D01*
X35791Y20030D01*
X35790Y20039D01*
X35837Y20045D01*
Y20044D01*
X35838Y20043D01*
X35838Y20041D01*
X35839Y20038D01*
X35839Y20035D01*
X35841Y20031D01*
X35843Y20023D01*
X35847Y20013D01*
X35852Y20003D01*
X35858Y19994D01*
X35864Y19987D01*
X35866Y19986D01*
X35868Y19984D01*
X35872Y19981D01*
X35878Y19978D01*
X35884Y19975D01*
X35893Y19972D01*
X35902Y19970D01*
X35912Y19969D01*
X35915D01*
X35918Y19970D01*
X35924Y19971D01*
X35932Y19972D01*
X35940Y19975D01*
X35950Y19979D01*
X35959Y19984D01*
X35968Y19992D01*
X35969Y19993D01*
X35972Y19997D01*
X35975Y20002D01*
X35980Y20008D01*
X35984Y20017D01*
X35988Y20026D01*
X35990Y20037D01*
X35991Y20049D01*
Y20050D01*
Y20051D01*
Y20053D01*
X35991Y20055D01*
X35990Y20061D01*
X35989Y20068D01*
X35986Y20077D01*
X35983Y20086D01*
X35977Y20095D01*
X35970Y20103D01*
X35969Y20104D01*
X35966Y20106D01*
X35962Y20110D01*
X35955Y20114D01*
X35948Y20118D01*
X35938Y20121D01*
X35928Y20123D01*
X35916Y20124D01*
X35911D01*
X35907Y20124D01*
X35902Y20123D01*
X35897Y20122D01*
X35890Y20121D01*
X35883Y20119D01*
X35888Y20161D01*
X35891D01*
X35893Y20160D01*
X35900D01*
X35907Y20161D01*
X35914Y20163D01*
X35922Y20164D01*
X35932Y20167D01*
X35940Y20171D01*
X35950Y20176D01*
X35950D01*
X35951Y20176D01*
X35954Y20179D01*
X35958Y20183D01*
X35962Y20188D01*
X35967Y20195D01*
X35970Y20203D01*
X35973Y20213D01*
X35974Y20218D01*
Y20224D01*
Y20225D01*
Y20225D01*
Y20229D01*
X35973Y20233D01*
X35972Y20239D01*
X35970Y20246D01*
X35967Y20253D01*
X35963Y20260D01*
X35957Y20267D01*
X35956Y20267D01*
X35953Y20270D01*
X35949Y20272D01*
X35944Y20276D01*
X35938Y20279D01*
X35930Y20281D01*
X35921Y20284D01*
X35911Y20284D01*
X35907D01*
X35902Y20283D01*
X35895Y20282D01*
X35888Y20280D01*
X35880Y20277D01*
X35873Y20272D01*
X35866Y20267D01*
X35865Y20266D01*
X35863Y20264D01*
X35859Y20260D01*
X35856Y20254D01*
X35852Y20247D01*
X35848Y20238D01*
X35844Y20227D01*
X35842Y20215D01*
X35795Y20224D01*
Y20224D01*
X35796Y20226D01*
X35796Y20228D01*
X35797Y20231D01*
X35798Y20235D01*
X35799Y20240D01*
X35803Y20250D01*
X35808Y20262D01*
X35815Y20275D01*
X35823Y20286D01*
X35834Y20297D01*
X35834Y20297D01*
X35836Y20298D01*
X35837Y20299D01*
X35839Y20301D01*
X35842Y20303D01*
X35846Y20305D01*
X35850Y20307D01*
X35855Y20310D01*
X35866Y20315D01*
X35879Y20319D01*
X35894Y20322D01*
X35902Y20323D01*
X35915D01*
X35922Y20322D01*
D02*
G37*
G36*
X35579Y20321D02*
X35590Y20320D01*
X35601Y20319D01*
X35612Y20317D01*
X35622Y20316D01*
X35622D01*
X35624Y20315D01*
X35625D01*
X35627Y20314D01*
X35634Y20312D01*
X35641Y20310D01*
X35650Y20306D01*
X35660Y20301D01*
X35669Y20295D01*
X35678Y20288D01*
X35678Y20287D01*
X35679Y20287D01*
X35681Y20285D01*
X35683Y20284D01*
X35688Y20278D01*
X35695Y20270D01*
X35702Y20261D01*
X35710Y20250D01*
X35717Y20237D01*
X35723Y20222D01*
Y20222D01*
X35724Y20221D01*
X35725Y20219D01*
X35726Y20215D01*
X35727Y20211D01*
X35728Y20207D01*
X35730Y20202D01*
X35731Y20196D01*
X35733Y20190D01*
X35734Y20183D01*
X35737Y20167D01*
X35738Y20150D01*
X35739Y20131D01*
Y20130D01*
Y20129D01*
Y20126D01*
Y20124D01*
X35738Y20120D01*
Y20115D01*
X35738Y20105D01*
X35736Y20093D01*
X35735Y20080D01*
X35732Y20067D01*
X35728Y20053D01*
Y20053D01*
X35728Y20052D01*
X35727Y20050D01*
X35727Y20048D01*
X35725Y20042D01*
X35721Y20034D01*
X35718Y20025D01*
X35713Y20016D01*
X35708Y20007D01*
X35702Y19998D01*
X35702Y19997D01*
X35700Y19994D01*
X35696Y19990D01*
X35692Y19985D01*
X35687Y19979D01*
X35681Y19974D01*
X35675Y19968D01*
X35667Y19963D01*
X35666Y19962D01*
X35664Y19961D01*
X35660Y19958D01*
X35655Y19956D01*
X35648Y19952D01*
X35640Y19949D01*
X35631Y19946D01*
X35621Y19943D01*
X35620D01*
X35619Y19943D01*
X35617Y19942D01*
X35611Y19942D01*
X35604Y19941D01*
X35595Y19939D01*
X35584Y19938D01*
X35572Y19938D01*
X35560Y19937D01*
X35422D01*
Y20321D01*
X35569D01*
X35579Y20321D01*
D02*
G37*
G36*
X36225Y20322D02*
X36232Y20321D01*
X36240Y20320D01*
X36249Y20317D01*
X36258Y20315D01*
X36267Y20310D01*
X36268D01*
X36268Y20310D01*
X36271Y20308D01*
X36276Y20305D01*
X36281Y20301D01*
X36287Y20296D01*
X36294Y20290D01*
X36300Y20282D01*
X36306Y20274D01*
X36307Y20273D01*
X36309Y20270D01*
X36311Y20265D01*
X36315Y20258D01*
X36318Y20250D01*
X36323Y20240D01*
X36327Y20229D01*
X36330Y20217D01*
Y20216D01*
X36331Y20215D01*
X36331Y20214D01*
X36332Y20211D01*
X36332Y20208D01*
X36333Y20204D01*
X36334Y20199D01*
X36334Y20193D01*
X36336Y20187D01*
X36336Y20180D01*
X36337Y20173D01*
X36338Y20165D01*
X36338Y20156D01*
Y20147D01*
X36339Y20137D01*
Y20126D01*
Y20126D01*
Y20124D01*
Y20120D01*
Y20115D01*
X36338Y20109D01*
Y20103D01*
X36338Y20095D01*
X36337Y20088D01*
X36336Y20070D01*
X36333Y20052D01*
X36329Y20034D01*
X36327Y20025D01*
X36324Y20017D01*
Y20017D01*
X36324Y20015D01*
X36323Y20013D01*
X36322Y20010D01*
X36321Y20007D01*
X36318Y20003D01*
X36314Y19993D01*
X36308Y19983D01*
X36301Y19972D01*
X36293Y19962D01*
X36283Y19953D01*
X36282D01*
X36282Y19952D01*
X36280Y19951D01*
X36278Y19949D01*
X36275Y19948D01*
X36272Y19946D01*
X36264Y19942D01*
X36254Y19938D01*
X36242Y19934D01*
X36228Y19932D01*
X36213Y19931D01*
X36208D01*
X36204Y19931D01*
X36200Y19932D01*
X36194Y19933D01*
X36188Y19934D01*
X36181Y19936D01*
X36175Y19938D01*
X36167Y19940D01*
X36160Y19943D01*
X36153Y19947D01*
X36146Y19952D01*
X36139Y19957D01*
X36132Y19963D01*
X36126Y19970D01*
X36125Y19971D01*
X36124Y19972D01*
X36122Y19975D01*
X36120Y19979D01*
X36117Y19984D01*
X36114Y19991D01*
X36110Y19999D01*
X36107Y20008D01*
X36104Y20018D01*
X36100Y20029D01*
X36097Y20042D01*
X36094Y20057D01*
X36091Y20072D01*
X36090Y20089D01*
X36089Y20107D01*
X36088Y20126D01*
Y20127D01*
Y20129D01*
Y20133D01*
Y20138D01*
X36089Y20144D01*
Y20150D01*
X36089Y20158D01*
X36090Y20166D01*
X36091Y20183D01*
X36094Y20201D01*
X36098Y20220D01*
X36100Y20228D01*
X36102Y20236D01*
Y20237D01*
X36102Y20238D01*
X36104Y20240D01*
X36105Y20243D01*
X36106Y20247D01*
X36108Y20251D01*
X36112Y20260D01*
X36118Y20270D01*
X36125Y20281D01*
X36134Y20291D01*
X36144Y20300D01*
X36144D01*
X36145Y20301D01*
X36146Y20302D01*
X36149Y20304D01*
X36151Y20306D01*
X36155Y20307D01*
X36163Y20312D01*
X36173Y20316D01*
X36185Y20320D01*
X36199Y20322D01*
X36213Y20323D01*
X36218D01*
X36225Y20322D01*
D02*
G37*
G36*
X31638Y15888D02*
X31641D01*
X31645Y15888D01*
X31654Y15886D01*
X31665Y15884D01*
X31677Y15880D01*
X31688Y15875D01*
X31700Y15868D01*
X31700D01*
X31701Y15867D01*
X31703Y15866D01*
X31705Y15864D01*
X31710Y15860D01*
X31718Y15854D01*
X31725Y15846D01*
X31733Y15836D01*
X31740Y15824D01*
X31747Y15811D01*
Y15810D01*
X31748Y15809D01*
X31749Y15807D01*
X31750Y15804D01*
X31751Y15800D01*
X31753Y15795D01*
X31754Y15789D01*
X31755Y15783D01*
X31757Y15776D01*
X31759Y15768D01*
X31760Y15759D01*
X31761Y15750D01*
X31762Y15739D01*
X31763Y15728D01*
X31764Y15716D01*
Y15703D01*
Y15702D01*
Y15700D01*
Y15696D01*
Y15691D01*
X31763Y15685D01*
Y15677D01*
X31763Y15669D01*
X31762Y15661D01*
X31760Y15642D01*
X31757Y15622D01*
X31753Y15603D01*
X31750Y15594D01*
X31748Y15585D01*
Y15585D01*
X31747Y15584D01*
X31746Y15581D01*
X31745Y15578D01*
X31743Y15575D01*
X31741Y15570D01*
X31735Y15561D01*
X31729Y15550D01*
X31721Y15539D01*
X31711Y15529D01*
X31700Y15519D01*
X31699D01*
X31698Y15518D01*
X31697Y15517D01*
X31694Y15516D01*
X31691Y15514D01*
X31688Y15512D01*
X31683Y15510D01*
X31679Y15508D01*
X31668Y15504D01*
X31656Y15500D01*
X31642Y15498D01*
X31626Y15496D01*
X31622D01*
X31619Y15497D01*
X31615D01*
X31611Y15498D01*
X31600Y15500D01*
X31588Y15503D01*
X31576Y15507D01*
X31564Y15513D01*
X31558Y15517D01*
X31552Y15521D01*
X31552Y15522D01*
X31551Y15523D01*
X31550Y15524D01*
X31548Y15526D01*
X31546Y15529D01*
X31543Y15532D01*
X31537Y15540D01*
X31532Y15550D01*
X31526Y15562D01*
X31522Y15576D01*
X31518Y15592D01*
X31564Y15596D01*
Y15595D01*
X31565Y15594D01*
Y15593D01*
X31565Y15591D01*
X31567Y15585D01*
X31569Y15578D01*
X31572Y15570D01*
X31576Y15562D01*
X31580Y15555D01*
X31586Y15549D01*
X31586Y15549D01*
X31588Y15547D01*
X31592Y15545D01*
X31597Y15543D01*
X31603Y15540D01*
X31610Y15538D01*
X31618Y15536D01*
X31627Y15535D01*
X31631D01*
X31635Y15536D01*
X31640Y15536D01*
X31646Y15538D01*
X31652Y15539D01*
X31659Y15541D01*
X31665Y15545D01*
X31666Y15545D01*
X31668Y15546D01*
X31671Y15549D01*
X31674Y15552D01*
X31679Y15556D01*
X31683Y15560D01*
X31688Y15565D01*
X31692Y15571D01*
X31693Y15572D01*
X31694Y15575D01*
X31696Y15579D01*
X31698Y15584D01*
X31701Y15590D01*
X31704Y15598D01*
X31707Y15607D01*
X31709Y15617D01*
Y15617D01*
X31710Y15618D01*
Y15620D01*
X31710Y15622D01*
X31712Y15627D01*
X31713Y15635D01*
X31714Y15644D01*
X31715Y15653D01*
X31716Y15663D01*
X31717Y15675D01*
Y15675D01*
Y15677D01*
Y15680D01*
Y15684D01*
X31716Y15683D01*
X31714Y15680D01*
X31710Y15676D01*
X31707Y15671D01*
X31701Y15665D01*
X31694Y15659D01*
X31687Y15653D01*
X31678Y15647D01*
X31677Y15647D01*
X31673Y15645D01*
X31668Y15643D01*
X31662Y15641D01*
X31654Y15638D01*
X31645Y15636D01*
X31635Y15634D01*
X31624Y15634D01*
X31620D01*
X31617Y15634D01*
X31612Y15635D01*
X31608Y15635D01*
X31602Y15636D01*
X31597Y15638D01*
X31584Y15642D01*
X31577Y15645D01*
X31571Y15648D01*
X31563Y15652D01*
X31557Y15657D01*
X31550Y15662D01*
X31544Y15668D01*
X31543Y15668D01*
X31542Y15670D01*
X31541Y15671D01*
X31539Y15674D01*
X31536Y15678D01*
X31533Y15682D01*
X31531Y15687D01*
X31528Y15692D01*
X31525Y15698D01*
X31522Y15705D01*
X31519Y15713D01*
X31516Y15721D01*
X31514Y15730D01*
X31513Y15739D01*
X31512Y15748D01*
X31511Y15759D01*
Y15760D01*
Y15762D01*
Y15765D01*
X31512Y15768D01*
X31512Y15773D01*
X31513Y15780D01*
X31514Y15786D01*
X31516Y15793D01*
X31520Y15807D01*
X31522Y15815D01*
X31526Y15823D01*
X31530Y15831D01*
X31535Y15838D01*
X31540Y15846D01*
X31546Y15853D01*
X31546Y15853D01*
X31547Y15854D01*
X31549Y15856D01*
X31552Y15858D01*
X31555Y15861D01*
X31560Y15864D01*
X31564Y15867D01*
X31569Y15871D01*
X31575Y15874D01*
X31582Y15877D01*
X31597Y15883D01*
X31604Y15885D01*
X31613Y15887D01*
X31622Y15888D01*
X31632Y15889D01*
X31636D01*
X31638Y15888D01*
D02*
G37*
G36*
X31349D02*
X31354Y15888D01*
X31359Y15887D01*
X31365Y15886D01*
X31371Y15885D01*
X31386Y15881D01*
X31400Y15876D01*
X31407Y15872D01*
X31415Y15868D01*
X31421Y15863D01*
X31427Y15858D01*
X31428Y15857D01*
X31429Y15857D01*
X31430Y15854D01*
X31432Y15852D01*
X31435Y15849D01*
X31438Y15846D01*
X31441Y15842D01*
X31444Y15837D01*
X31450Y15826D01*
X31455Y15813D01*
X31457Y15806D01*
X31458Y15798D01*
X31460Y15791D01*
X31460Y15782D01*
Y15781D01*
Y15778D01*
X31460Y15774D01*
X31459Y15768D01*
X31458Y15761D01*
X31456Y15753D01*
X31454Y15745D01*
X31450Y15737D01*
X31450Y15736D01*
X31449Y15733D01*
X31446Y15728D01*
X31443Y15722D01*
X31439Y15716D01*
X31433Y15707D01*
X31426Y15699D01*
X31419Y15690D01*
X31417Y15688D01*
X31415Y15685D01*
X31412Y15682D01*
X31409Y15680D01*
X31406Y15676D01*
X31401Y15672D01*
X31397Y15667D01*
X31391Y15662D01*
X31386Y15657D01*
X31379Y15651D01*
X31372Y15645D01*
X31364Y15637D01*
X31355Y15630D01*
X31346Y15622D01*
X31346Y15622D01*
X31345Y15621D01*
X31343Y15619D01*
X31340Y15617D01*
X31336Y15614D01*
X31333Y15610D01*
X31324Y15603D01*
X31314Y15595D01*
X31305Y15586D01*
X31298Y15579D01*
X31294Y15576D01*
X31291Y15574D01*
X31291Y15573D01*
X31289Y15571D01*
X31287Y15569D01*
X31284Y15566D01*
X31281Y15562D01*
X31278Y15558D01*
X31271Y15549D01*
X31461D01*
Y15503D01*
X31206D01*
Y15504D01*
Y15506D01*
Y15509D01*
X31207Y15514D01*
X31207Y15519D01*
X31208Y15524D01*
X31209Y15530D01*
X31212Y15536D01*
Y15536D01*
X31212Y15537D01*
X31213Y15540D01*
X31215Y15545D01*
X31219Y15552D01*
X31223Y15560D01*
X31229Y15569D01*
X31235Y15577D01*
X31243Y15587D01*
Y15587D01*
X31244Y15588D01*
X31246Y15591D01*
X31251Y15596D01*
X31259Y15604D01*
X31267Y15612D01*
X31278Y15622D01*
X31290Y15633D01*
X31304Y15645D01*
X31305Y15645D01*
X31307Y15647D01*
X31310Y15650D01*
X31314Y15653D01*
X31319Y15657D01*
X31325Y15662D01*
X31331Y15668D01*
X31339Y15674D01*
X31353Y15687D01*
X31366Y15701D01*
X31373Y15707D01*
X31379Y15714D01*
X31385Y15720D01*
X31389Y15726D01*
Y15727D01*
X31390Y15727D01*
X31391Y15729D01*
X31392Y15731D01*
X31396Y15737D01*
X31401Y15745D01*
X31405Y15753D01*
X31409Y15763D01*
X31411Y15773D01*
X31412Y15783D01*
Y15784D01*
Y15784D01*
X31411Y15788D01*
X31411Y15793D01*
X31409Y15799D01*
X31407Y15807D01*
X31403Y15815D01*
X31398Y15823D01*
X31391Y15831D01*
X31390Y15832D01*
X31387Y15834D01*
X31384Y15837D01*
X31377Y15841D01*
X31370Y15844D01*
X31361Y15847D01*
X31350Y15849D01*
X31339Y15850D01*
X31335D01*
X31333Y15849D01*
X31326Y15849D01*
X31319Y15847D01*
X31310Y15845D01*
X31301Y15841D01*
X31292Y15836D01*
X31284Y15829D01*
X31283Y15828D01*
X31280Y15826D01*
X31277Y15821D01*
X31274Y15814D01*
X31270Y15807D01*
X31266Y15797D01*
X31264Y15786D01*
X31263Y15773D01*
X31215Y15778D01*
Y15778D01*
X31215Y15780D01*
Y15783D01*
X31216Y15787D01*
X31217Y15791D01*
X31218Y15796D01*
X31220Y15802D01*
X31222Y15808D01*
X31226Y15822D01*
X31233Y15835D01*
X31237Y15842D01*
X31242Y15848D01*
X31246Y15854D01*
X31252Y15860D01*
X31253Y15861D01*
X31254Y15861D01*
X31255Y15863D01*
X31258Y15864D01*
X31261Y15867D01*
X31265Y15869D01*
X31270Y15872D01*
X31275Y15874D01*
X31281Y15877D01*
X31288Y15880D01*
X31295Y15882D01*
X31303Y15884D01*
X31311Y15886D01*
X31320Y15888D01*
X31330Y15888D01*
X31340Y15889D01*
X31345D01*
X31349Y15888D01*
D02*
G37*
G36*
X31002Y15887D02*
X31013Y15886D01*
X31024Y15885D01*
X31036Y15883D01*
X31045Y15882D01*
X31046D01*
X31047Y15881D01*
X31048D01*
X31051Y15880D01*
X31057Y15878D01*
X31064Y15876D01*
X31073Y15872D01*
X31083Y15867D01*
X31092Y15861D01*
X31101Y15854D01*
X31102Y15853D01*
X31102Y15853D01*
X31104Y15851D01*
X31106Y15849D01*
X31112Y15844D01*
X31118Y15836D01*
X31126Y15827D01*
X31133Y15816D01*
X31140Y15803D01*
X31147Y15788D01*
Y15788D01*
X31147Y15787D01*
X31148Y15784D01*
X31149Y15781D01*
X31150Y15777D01*
X31152Y15773D01*
X31153Y15768D01*
X31154Y15762D01*
X31156Y15756D01*
X31157Y15748D01*
X31160Y15733D01*
X31162Y15716D01*
X31162Y15697D01*
Y15696D01*
Y15695D01*
Y15692D01*
Y15690D01*
X31162Y15686D01*
Y15681D01*
X31161Y15671D01*
X31159Y15659D01*
X31158Y15646D01*
X31155Y15632D01*
X31152Y15619D01*
Y15619D01*
X31151Y15617D01*
X31150Y15616D01*
X31150Y15614D01*
X31148Y15607D01*
X31144Y15600D01*
X31141Y15591D01*
X31137Y15582D01*
X31131Y15572D01*
X31126Y15564D01*
X31125Y15562D01*
X31123Y15560D01*
X31119Y15556D01*
X31115Y15551D01*
X31110Y15545D01*
X31104Y15540D01*
X31098Y15534D01*
X31091Y15529D01*
X31089Y15528D01*
X31087Y15526D01*
X31083Y15524D01*
X31078Y15521D01*
X31071Y15518D01*
X31063Y15515D01*
X31054Y15512D01*
X31044Y15509D01*
X31043D01*
X31042Y15509D01*
X31040Y15508D01*
X31034Y15508D01*
X31027Y15506D01*
X31018Y15505D01*
X31007Y15504D01*
X30996Y15504D01*
X30983Y15503D01*
X30845D01*
Y15887D01*
X30992D01*
X31002Y15887D01*
D02*
G37*
G36*
X39939Y19879D02*
X39892D01*
Y20180D01*
X39891Y20179D01*
X39889Y20177D01*
X39885Y20173D01*
X39880Y20170D01*
X39874Y20165D01*
X39866Y20159D01*
X39857Y20153D01*
X39847Y20147D01*
X39846D01*
X39846Y20146D01*
X39843Y20144D01*
X39837Y20141D01*
X39830Y20138D01*
X39823Y20134D01*
X39814Y20130D01*
X39806Y20126D01*
X39798Y20123D01*
Y20168D01*
X39798D01*
X39799Y20170D01*
X39801Y20170D01*
X39804Y20172D01*
X39808Y20173D01*
X39811Y20176D01*
X39821Y20181D01*
X39832Y20187D01*
X39843Y20195D01*
X39855Y20204D01*
X39866Y20213D01*
X39867Y20214D01*
X39867Y20214D01*
X39869Y20216D01*
X39871Y20218D01*
X39876Y20223D01*
X39883Y20230D01*
X39890Y20238D01*
X39897Y20247D01*
X39903Y20256D01*
X39909Y20265D01*
X39939D01*
Y19879D01*
D02*
G37*
G36*
X39551Y20263D02*
X39562Y20262D01*
X39573Y20261D01*
X39584Y20259D01*
X39594Y20258D01*
X39594D01*
X39596Y20257D01*
X39597D01*
X39599Y20256D01*
X39606Y20254D01*
X39613Y20252D01*
X39622Y20248D01*
X39632Y20243D01*
X39641Y20237D01*
X39650Y20230D01*
X39650Y20229D01*
X39651Y20229D01*
X39653Y20227D01*
X39655Y20226D01*
X39660Y20220D01*
X39667Y20212D01*
X39674Y20203D01*
X39682Y20192D01*
X39689Y20179D01*
X39695Y20165D01*
Y20164D01*
X39696Y20163D01*
X39697Y20161D01*
X39698Y20157D01*
X39699Y20153D01*
X39700Y20149D01*
X39702Y20144D01*
X39703Y20138D01*
X39705Y20132D01*
X39706Y20125D01*
X39709Y20109D01*
X39710Y20092D01*
X39711Y20073D01*
Y20072D01*
Y20071D01*
Y20069D01*
Y20066D01*
X39710Y20062D01*
Y20057D01*
X39710Y20047D01*
X39708Y20035D01*
X39707Y20022D01*
X39704Y20009D01*
X39700Y19995D01*
Y19995D01*
X39700Y19994D01*
X39699Y19992D01*
X39699Y19990D01*
X39697Y19984D01*
X39693Y19976D01*
X39690Y19967D01*
X39685Y19958D01*
X39680Y19949D01*
X39674Y19940D01*
X39674Y19939D01*
X39672Y19936D01*
X39668Y19932D01*
X39664Y19927D01*
X39659Y19921D01*
X39653Y19916D01*
X39647Y19910D01*
X39639Y19905D01*
X39638Y19904D01*
X39636Y19903D01*
X39632Y19900D01*
X39627Y19898D01*
X39620Y19894D01*
X39612Y19891D01*
X39603Y19888D01*
X39593Y19885D01*
X39592D01*
X39591Y19885D01*
X39589Y19884D01*
X39583Y19884D01*
X39576Y19883D01*
X39567Y19881D01*
X39556Y19880D01*
X39544Y19880D01*
X39532Y19879D01*
X39394D01*
Y20263D01*
X39541D01*
X39551Y20263D01*
D02*
G37*
G36*
X44396Y16036D02*
X44401Y16036D01*
X44406Y16035D01*
X44412Y16034D01*
X44418Y16033D01*
X44433Y16029D01*
X44447Y16023D01*
X44454Y16020D01*
X44462Y16016D01*
X44468Y16011D01*
X44474Y16006D01*
X44475Y16005D01*
X44476Y16005D01*
X44477Y16002D01*
X44479Y16000D01*
X44482Y15997D01*
X44485Y15993D01*
X44488Y15990D01*
X44491Y15985D01*
X44497Y15974D01*
X44502Y15961D01*
X44504Y15954D01*
X44506Y15946D01*
X44507Y15938D01*
X44507Y15930D01*
Y15929D01*
Y15926D01*
X44507Y15922D01*
X44506Y15916D01*
X44505Y15909D01*
X44503Y15901D01*
X44501Y15893D01*
X44497Y15885D01*
X44497Y15884D01*
X44496Y15881D01*
X44493Y15876D01*
X44490Y15870D01*
X44486Y15864D01*
X44480Y15855D01*
X44473Y15847D01*
X44466Y15837D01*
X44464Y15836D01*
X44462Y15833D01*
X44459Y15830D01*
X44456Y15827D01*
X44453Y15824D01*
X44448Y15820D01*
X44444Y15815D01*
X44438Y15810D01*
X44433Y15805D01*
X44426Y15799D01*
X44419Y15793D01*
X44411Y15785D01*
X44402Y15778D01*
X44393Y15770D01*
X44393Y15770D01*
X44392Y15769D01*
X44390Y15767D01*
X44387Y15765D01*
X44383Y15761D01*
X44380Y15758D01*
X44371Y15751D01*
X44361Y15743D01*
X44352Y15734D01*
X44345Y15727D01*
X44341Y15724D01*
X44338Y15721D01*
X44338Y15721D01*
X44336Y15719D01*
X44334Y15717D01*
X44331Y15714D01*
X44328Y15710D01*
X44325Y15706D01*
X44318Y15697D01*
X44508D01*
Y15651D01*
X44253D01*
Y15652D01*
Y15654D01*
Y15657D01*
X44254Y15662D01*
X44254Y15667D01*
X44255Y15672D01*
X44256Y15678D01*
X44259Y15684D01*
Y15684D01*
X44259Y15685D01*
X44260Y15688D01*
X44262Y15693D01*
X44266Y15700D01*
X44270Y15708D01*
X44276Y15716D01*
X44282Y15725D01*
X44290Y15735D01*
Y15735D01*
X44291Y15736D01*
X44294Y15739D01*
X44299Y15744D01*
X44306Y15751D01*
X44314Y15760D01*
X44325Y15770D01*
X44337Y15781D01*
X44351Y15793D01*
X44352Y15793D01*
X44354Y15795D01*
X44357Y15798D01*
X44361Y15801D01*
X44366Y15805D01*
X44372Y15810D01*
X44378Y15816D01*
X44386Y15822D01*
X44400Y15835D01*
X44413Y15849D01*
X44420Y15855D01*
X44426Y15862D01*
X44432Y15868D01*
X44436Y15874D01*
Y15875D01*
X44437Y15875D01*
X44438Y15877D01*
X44439Y15879D01*
X44443Y15885D01*
X44448Y15892D01*
X44452Y15901D01*
X44456Y15911D01*
X44458Y15921D01*
X44459Y15931D01*
Y15932D01*
Y15932D01*
X44458Y15936D01*
X44458Y15941D01*
X44456Y15947D01*
X44454Y15955D01*
X44450Y15963D01*
X44445Y15971D01*
X44438Y15978D01*
X44437Y15980D01*
X44434Y15982D01*
X44431Y15985D01*
X44425Y15988D01*
X44417Y15992D01*
X44408Y15995D01*
X44397Y15997D01*
X44386Y15998D01*
X44382D01*
X44380Y15997D01*
X44373Y15997D01*
X44366Y15995D01*
X44357Y15993D01*
X44348Y15989D01*
X44339Y15984D01*
X44331Y15977D01*
X44330Y15976D01*
X44327Y15973D01*
X44324Y15969D01*
X44321Y15962D01*
X44317Y15955D01*
X44314Y15945D01*
X44311Y15933D01*
X44310Y15921D01*
X44262Y15926D01*
Y15926D01*
X44262Y15928D01*
Y15931D01*
X44263Y15935D01*
X44264Y15939D01*
X44265Y15944D01*
X44267Y15950D01*
X44269Y15956D01*
X44273Y15970D01*
X44280Y15983D01*
X44284Y15990D01*
X44289Y15996D01*
X44294Y16002D01*
X44299Y16008D01*
X44300Y16008D01*
X44301Y16009D01*
X44302Y16011D01*
X44305Y16012D01*
X44309Y16015D01*
X44312Y16017D01*
X44317Y16020D01*
X44322Y16022D01*
X44328Y16025D01*
X44335Y16028D01*
X44342Y16030D01*
X44350Y16032D01*
X44358Y16034D01*
X44367Y16036D01*
X44377Y16036D01*
X44387Y16037D01*
X44392D01*
X44396Y16036D01*
D02*
G37*
G36*
X44049Y16034D02*
X44060Y16034D01*
X44072Y16033D01*
X44083Y16031D01*
X44092Y16030D01*
X44093D01*
X44094Y16029D01*
X44095D01*
X44098Y16028D01*
X44104Y16026D01*
X44111Y16023D01*
X44120Y16020D01*
X44130Y16015D01*
X44139Y16009D01*
X44148Y16002D01*
X44149Y16001D01*
X44149Y16001D01*
X44151Y15999D01*
X44153Y15997D01*
X44159Y15992D01*
X44165Y15984D01*
X44173Y15975D01*
X44180Y15963D01*
X44188Y15951D01*
X44194Y15936D01*
Y15936D01*
X44194Y15935D01*
X44195Y15932D01*
X44196Y15929D01*
X44198Y15925D01*
X44199Y15921D01*
X44200Y15916D01*
X44201Y15910D01*
X44203Y15904D01*
X44204Y15896D01*
X44207Y15881D01*
X44209Y15864D01*
X44209Y15845D01*
Y15844D01*
Y15843D01*
Y15840D01*
Y15837D01*
X44209Y15834D01*
Y15829D01*
X44208Y15819D01*
X44206Y15806D01*
X44205Y15794D01*
X44202Y15780D01*
X44199Y15767D01*
Y15766D01*
X44198Y15765D01*
X44198Y15764D01*
X44197Y15761D01*
X44195Y15755D01*
X44191Y15748D01*
X44188Y15739D01*
X44184Y15730D01*
X44178Y15720D01*
X44173Y15711D01*
X44172Y15710D01*
X44170Y15708D01*
X44166Y15704D01*
X44162Y15699D01*
X44157Y15693D01*
X44151Y15688D01*
X44145Y15682D01*
X44138Y15677D01*
X44136Y15676D01*
X44134Y15674D01*
X44130Y15672D01*
X44125Y15669D01*
X44118Y15666D01*
X44110Y15663D01*
X44101Y15660D01*
X44092Y15657D01*
X44090D01*
X44089Y15657D01*
X44087Y15656D01*
X44082Y15655D01*
X44074Y15654D01*
X44065Y15653D01*
X44054Y15652D01*
X44043Y15652D01*
X44030Y15651D01*
X43892D01*
Y16035D01*
X44039D01*
X44049Y16034D01*
D02*
G37*
G36*
X31229Y30041D02*
X31234Y30041D01*
X31240Y30040D01*
X31246Y30040D01*
X31253Y30038D01*
X31268Y30035D01*
X31285Y30030D01*
X31293Y30026D01*
X31301Y30022D01*
X31309Y30017D01*
X31316Y30013D01*
X31317Y30012D01*
X31318Y30011D01*
X31320Y30010D01*
X31323Y30007D01*
X31326Y30004D01*
X31330Y30000D01*
X31334Y29996D01*
X31338Y29991D01*
X31343Y29986D01*
X31347Y29979D01*
X31352Y29973D01*
X31356Y29965D01*
X31360Y29957D01*
X31365Y29949D01*
X31368Y29940D01*
X31371Y29930D01*
X31321Y29918D01*
Y29919D01*
X31321Y29920D01*
X31320Y29922D01*
X31319Y29925D01*
X31318Y29928D01*
X31316Y29933D01*
X31311Y29941D01*
X31306Y29951D01*
X31299Y29961D01*
X31291Y29971D01*
X31282Y29979D01*
X31281Y29980D01*
X31278Y29983D01*
X31272Y29985D01*
X31265Y29989D01*
X31255Y29993D01*
X31245Y29996D01*
X31232Y29998D01*
X31218Y29999D01*
X31214D01*
X31211Y29998D01*
X31207D01*
X31203Y29998D01*
X31192Y29996D01*
X31180Y29994D01*
X31168Y29990D01*
X31156Y29984D01*
X31144Y29977D01*
X31143D01*
X31143Y29976D01*
X31139Y29973D01*
X31134Y29969D01*
X31128Y29962D01*
X31121Y29954D01*
X31114Y29944D01*
X31108Y29933D01*
X31102Y29920D01*
Y29919D01*
X31102Y29918D01*
X31101Y29916D01*
X31101Y29914D01*
X31099Y29910D01*
X31098Y29906D01*
X31097Y29897D01*
X31094Y29886D01*
X31092Y29874D01*
X31091Y29860D01*
X31091Y29846D01*
Y29845D01*
Y29844D01*
Y29841D01*
Y29838D01*
X31091Y29834D01*
Y29829D01*
X31092Y29823D01*
X31092Y29817D01*
X31094Y29804D01*
X31097Y29789D01*
X31100Y29775D01*
X31104Y29761D01*
Y29760D01*
X31105Y29759D01*
X31106Y29757D01*
X31107Y29754D01*
X31111Y29748D01*
X31116Y29740D01*
X31122Y29731D01*
X31129Y29722D01*
X31138Y29713D01*
X31149Y29706D01*
X31149D01*
X31151Y29705D01*
X31152Y29704D01*
X31154Y29703D01*
X31157Y29702D01*
X31160Y29700D01*
X31168Y29697D01*
X31178Y29693D01*
X31189Y29691D01*
X31202Y29688D01*
X31214Y29688D01*
X31218D01*
X31222Y29688D01*
X31225D01*
X31229Y29689D01*
X31239Y29691D01*
X31251Y29694D01*
X31263Y29698D01*
X31275Y29704D01*
X31281Y29708D01*
X31286Y29712D01*
X31287Y29713D01*
X31288Y29713D01*
X31289Y29715D01*
X31291Y29717D01*
X31294Y29719D01*
X31296Y29723D01*
X31300Y29726D01*
X31303Y29731D01*
X31306Y29736D01*
X31310Y29741D01*
X31313Y29747D01*
X31316Y29753D01*
X31319Y29761D01*
X31322Y29768D01*
X31325Y29777D01*
X31327Y29786D01*
X31378Y29773D01*
Y29772D01*
X31377Y29770D01*
X31376Y29767D01*
X31375Y29762D01*
X31373Y29757D01*
X31371Y29751D01*
X31368Y29744D01*
X31365Y29737D01*
X31357Y29722D01*
X31347Y29706D01*
X31341Y29698D01*
X31335Y29691D01*
X31328Y29684D01*
X31320Y29677D01*
X31320Y29677D01*
X31319Y29676D01*
X31316Y29675D01*
X31313Y29672D01*
X31309Y29670D01*
X31304Y29667D01*
X31298Y29664D01*
X31292Y29661D01*
X31285Y29658D01*
X31277Y29655D01*
X31269Y29652D01*
X31260Y29650D01*
X31250Y29647D01*
X31240Y29646D01*
X31230Y29645D01*
X31219Y29645D01*
X31213D01*
X31208Y29645D01*
X31203D01*
X31197Y29646D01*
X31190Y29647D01*
X31183Y29648D01*
X31167Y29651D01*
X31150Y29655D01*
X31133Y29661D01*
X31126Y29665D01*
X31118Y29670D01*
X31117Y29670D01*
X31116Y29671D01*
X31114Y29672D01*
X31112Y29675D01*
X31108Y29677D01*
X31104Y29680D01*
X31100Y29684D01*
X31096Y29688D01*
X31091Y29693D01*
X31086Y29698D01*
X31076Y29711D01*
X31067Y29726D01*
X31058Y29743D01*
Y29743D01*
X31057Y29745D01*
X31057Y29748D01*
X31055Y29751D01*
X31054Y29756D01*
X31052Y29761D01*
X31050Y29767D01*
X31048Y29774D01*
X31047Y29781D01*
X31044Y29789D01*
X31042Y29807D01*
X31040Y29826D01*
X31038Y29846D01*
Y29847D01*
Y29849D01*
Y29852D01*
X31039Y29856D01*
Y29862D01*
X31040Y29867D01*
X31040Y29874D01*
X31041Y29882D01*
X31044Y29898D01*
X31048Y29915D01*
X31053Y29933D01*
X31061Y29950D01*
X31062Y29951D01*
X31062Y29953D01*
X31063Y29955D01*
X31066Y29958D01*
X31068Y29961D01*
X31071Y29966D01*
X31078Y29976D01*
X31087Y29987D01*
X31098Y29998D01*
X31111Y30009D01*
X31126Y30019D01*
X31127Y30019D01*
X31128Y30020D01*
X31131Y30021D01*
X31133Y30022D01*
X31138Y30024D01*
X31142Y30026D01*
X31148Y30028D01*
X31154Y30030D01*
X31160Y30032D01*
X31168Y30035D01*
X31183Y30038D01*
X31201Y30041D01*
X31219Y30042D01*
X31225D01*
X31229Y30041D01*
D02*
G37*
G36*
X31986Y29651D02*
X31939D01*
Y29951D01*
X31939Y29951D01*
X31936Y29949D01*
X31932Y29945D01*
X31927Y29941D01*
X31921Y29936D01*
X31913Y29931D01*
X31904Y29925D01*
X31894Y29919D01*
X31894D01*
X31893Y29918D01*
X31890Y29916D01*
X31884Y29913D01*
X31878Y29910D01*
X31870Y29906D01*
X31861Y29902D01*
X31853Y29898D01*
X31845Y29895D01*
Y29940D01*
X31845D01*
X31846Y29941D01*
X31849Y29942D01*
X31851Y29944D01*
X31855Y29945D01*
X31859Y29948D01*
X31868Y29953D01*
X31879Y29959D01*
X31890Y29967D01*
X31902Y29976D01*
X31914Y29985D01*
X31914Y29986D01*
X31915Y29986D01*
X31916Y29988D01*
X31919Y29990D01*
X31924Y29995D01*
X31930Y30002D01*
X31937Y30010D01*
X31944Y30019D01*
X31950Y30027D01*
X31956Y30037D01*
X31986D01*
Y29651D01*
D02*
G37*
G36*
X31598Y30035D02*
X31609Y30034D01*
X31621Y30033D01*
X31632Y30031D01*
X31641Y30030D01*
X31642D01*
X31643Y30029D01*
X31644D01*
X31647Y30028D01*
X31653Y30026D01*
X31661Y30024D01*
X31669Y30020D01*
X31679Y30015D01*
X31688Y30009D01*
X31697Y30002D01*
X31698Y30001D01*
X31698Y30001D01*
X31700Y29999D01*
X31702Y29998D01*
X31708Y29992D01*
X31714Y29984D01*
X31722Y29975D01*
X31729Y29964D01*
X31737Y29951D01*
X31743Y29936D01*
Y29936D01*
X31743Y29935D01*
X31744Y29933D01*
X31745Y29929D01*
X31747Y29925D01*
X31748Y29921D01*
X31749Y29916D01*
X31750Y29910D01*
X31752Y29904D01*
X31753Y29897D01*
X31756Y29881D01*
X31758Y29864D01*
X31758Y29845D01*
Y29844D01*
Y29843D01*
Y29840D01*
Y29838D01*
X31758Y29834D01*
Y29829D01*
X31757Y29819D01*
X31755Y29807D01*
X31754Y29794D01*
X31751Y29781D01*
X31748Y29767D01*
Y29767D01*
X31747Y29766D01*
X31747Y29764D01*
X31746Y29762D01*
X31744Y29756D01*
X31740Y29748D01*
X31737Y29739D01*
X31733Y29730D01*
X31727Y29721D01*
X31722Y29712D01*
X31721Y29711D01*
X31719Y29708D01*
X31715Y29704D01*
X31711Y29699D01*
X31706Y29693D01*
X31700Y29688D01*
X31694Y29682D01*
X31687Y29677D01*
X31686Y29676D01*
X31683Y29675D01*
X31679Y29672D01*
X31674Y29670D01*
X31667Y29666D01*
X31659Y29663D01*
X31651Y29660D01*
X31641Y29657D01*
X31639D01*
X31638Y29657D01*
X31636Y29656D01*
X31631Y29656D01*
X31623Y29655D01*
X31614Y29653D01*
X31603Y29652D01*
X31592Y29652D01*
X31579Y29651D01*
X31441D01*
Y30035D01*
X31588D01*
X31598Y30035D01*
D02*
G37*
G36*
X30804Y29697D02*
X30993D01*
Y29651D01*
X30753D01*
Y30035D01*
X30804D01*
Y29697D01*
D02*
G37*
G36*
X48761Y28789D02*
X48813D01*
Y28745D01*
X48761D01*
Y28653D01*
X48713D01*
Y28745D01*
X48546D01*
Y28789D01*
X48722Y29037D01*
X48761D01*
Y28789D01*
D02*
G37*
G36*
X48352Y29037D02*
X48363Y29036D01*
X48374Y29035D01*
X48385Y29034D01*
X48395Y29032D01*
X48395D01*
X48397Y29031D01*
X48398D01*
X48400Y29030D01*
X48407Y29029D01*
X48414Y29026D01*
X48423Y29022D01*
X48433Y29017D01*
X48442Y29011D01*
X48451Y29004D01*
X48451Y29004D01*
X48452Y29003D01*
X48454Y29001D01*
X48456Y29000D01*
X48461Y28994D01*
X48468Y28986D01*
X48475Y28977D01*
X48483Y28966D01*
X48490Y28953D01*
X48496Y28939D01*
Y28938D01*
X48497Y28937D01*
X48498Y28935D01*
X48499Y28931D01*
X48500Y28928D01*
X48501Y28923D01*
X48503Y28918D01*
X48504Y28912D01*
X48506Y28906D01*
X48507Y28899D01*
X48510Y28883D01*
X48511Y28866D01*
X48512Y28847D01*
Y28846D01*
Y28845D01*
Y28843D01*
Y28840D01*
X48511Y28836D01*
Y28832D01*
X48511Y28821D01*
X48509Y28809D01*
X48508Y28796D01*
X48505Y28783D01*
X48501Y28769D01*
Y28769D01*
X48501Y28768D01*
X48500Y28766D01*
X48500Y28764D01*
X48498Y28758D01*
X48494Y28750D01*
X48491Y28741D01*
X48486Y28732D01*
X48481Y28723D01*
X48475Y28714D01*
X48475Y28713D01*
X48473Y28710D01*
X48469Y28706D01*
X48465Y28701D01*
X48460Y28696D01*
X48454Y28690D01*
X48448Y28684D01*
X48440Y28679D01*
X48439Y28678D01*
X48437Y28677D01*
X48433Y28674D01*
X48428Y28672D01*
X48421Y28668D01*
X48413Y28666D01*
X48404Y28662D01*
X48394Y28659D01*
X48393D01*
X48392Y28659D01*
X48390Y28658D01*
X48384Y28658D01*
X48377Y28657D01*
X48368Y28656D01*
X48357Y28654D01*
X48345Y28654D01*
X48333Y28653D01*
X48195D01*
Y29037D01*
X48342D01*
X48352Y29037D01*
D02*
G37*
G36*
X49893Y34394D02*
X49900Y34393D01*
X49909Y34391D01*
X49919Y34388D01*
X49929Y34385D01*
X49939Y34380D01*
X49939D01*
X49940Y34380D01*
X49943Y34378D01*
X49948Y34375D01*
X49954Y34371D01*
X49961Y34365D01*
X49967Y34359D01*
X49974Y34352D01*
X49979Y34344D01*
X49980Y34343D01*
X49982Y34340D01*
X49984Y34335D01*
X49987Y34329D01*
X49989Y34321D01*
X49992Y34313D01*
X49993Y34304D01*
X49994Y34294D01*
Y34293D01*
Y34290D01*
X49993Y34285D01*
X49992Y34279D01*
X49991Y34272D01*
X49988Y34264D01*
X49984Y34257D01*
X49980Y34249D01*
X49979Y34248D01*
X49978Y34245D01*
X49974Y34242D01*
X49970Y34237D01*
X49964Y34232D01*
X49958Y34227D01*
X49950Y34222D01*
X49941Y34217D01*
X49941D01*
X49942Y34216D01*
X49944Y34215D01*
X49946Y34215D01*
X49952Y34213D01*
X49960Y34209D01*
X49969Y34205D01*
X49978Y34199D01*
X49986Y34192D01*
X49994Y34184D01*
X49994Y34183D01*
X49997Y34179D01*
X50000Y34174D01*
X50003Y34167D01*
X50007Y34158D01*
X50010Y34147D01*
X50012Y34135D01*
X50013Y34122D01*
Y34121D01*
Y34119D01*
Y34117D01*
X50012Y34113D01*
X50012Y34109D01*
X50010Y34104D01*
X50009Y34098D01*
X50008Y34092D01*
X50004Y34079D01*
X50001Y34072D01*
X49997Y34065D01*
X49993Y34058D01*
X49988Y34051D01*
X49982Y34043D01*
X49976Y34037D01*
X49975Y34036D01*
X49974Y34035D01*
X49972Y34033D01*
X49969Y34031D01*
X49966Y34028D01*
X49961Y34026D01*
X49956Y34022D01*
X49950Y34020D01*
X49944Y34016D01*
X49937Y34013D01*
X49929Y34010D01*
X49921Y34007D01*
X49912Y34005D01*
X49903Y34003D01*
X49893Y34002D01*
X49883Y34002D01*
X49878D01*
X49875Y34002D01*
X49870Y34003D01*
X49865Y34003D01*
X49860Y34005D01*
X49853Y34006D01*
X49840Y34009D01*
X49826Y34015D01*
X49819Y34018D01*
X49812Y34022D01*
X49806Y34027D01*
X49799Y34032D01*
X49798Y34032D01*
X49797Y34033D01*
X49796Y34035D01*
X49794Y34037D01*
X49791Y34040D01*
X49788Y34044D01*
X49785Y34048D01*
X49782Y34053D01*
X49779Y34058D01*
X49775Y34064D01*
X49769Y34077D01*
X49764Y34093D01*
X49762Y34101D01*
X49761Y34110D01*
X49808Y34116D01*
Y34116D01*
X49809Y34114D01*
X49810Y34112D01*
X49810Y34109D01*
X49811Y34106D01*
X49812Y34102D01*
X49815Y34094D01*
X49818Y34084D01*
X49823Y34074D01*
X49829Y34066D01*
X49836Y34058D01*
X49837Y34057D01*
X49839Y34055D01*
X49843Y34052D01*
X49849Y34050D01*
X49856Y34046D01*
X49864Y34043D01*
X49873Y34041D01*
X49883Y34041D01*
X49887D01*
X49889Y34041D01*
X49895Y34042D01*
X49903Y34043D01*
X49912Y34046D01*
X49921Y34050D01*
X49931Y34056D01*
X49939Y34063D01*
X49941Y34065D01*
X49943Y34068D01*
X49947Y34073D01*
X49951Y34079D01*
X49956Y34088D01*
X49959Y34097D01*
X49962Y34108D01*
X49963Y34121D01*
Y34121D01*
Y34122D01*
Y34124D01*
X49962Y34126D01*
X49962Y34132D01*
X49960Y34139D01*
X49958Y34148D01*
X49954Y34157D01*
X49948Y34166D01*
X49941Y34174D01*
X49940Y34176D01*
X49937Y34178D01*
X49933Y34181D01*
X49927Y34185D01*
X49919Y34189D01*
X49909Y34192D01*
X49899Y34194D01*
X49887Y34195D01*
X49882D01*
X49878Y34195D01*
X49873Y34194D01*
X49868Y34193D01*
X49861Y34192D01*
X49854Y34190D01*
X49860Y34232D01*
X49862D01*
X49865Y34232D01*
X49872D01*
X49878Y34233D01*
X49885Y34234D01*
X49893Y34235D01*
X49903Y34238D01*
X49912Y34242D01*
X49921Y34247D01*
X49922D01*
X49922Y34248D01*
X49925Y34250D01*
X49929Y34254D01*
X49933Y34259D01*
X49938Y34266D01*
X49942Y34274D01*
X49944Y34284D01*
X49946Y34289D01*
Y34295D01*
Y34296D01*
Y34297D01*
Y34300D01*
X49944Y34304D01*
X49943Y34310D01*
X49941Y34317D01*
X49938Y34324D01*
X49934Y34331D01*
X49928Y34338D01*
X49927Y34339D01*
X49924Y34341D01*
X49921Y34344D01*
X49916Y34347D01*
X49909Y34350D01*
X49901Y34353D01*
X49892Y34355D01*
X49882Y34355D01*
X49878D01*
X49873Y34354D01*
X49866Y34353D01*
X49859Y34351D01*
X49852Y34348D01*
X49844Y34344D01*
X49837Y34338D01*
X49836Y34338D01*
X49834Y34335D01*
X49831Y34331D01*
X49827Y34325D01*
X49823Y34318D01*
X49819Y34309D01*
X49816Y34299D01*
X49813Y34287D01*
X49766Y34295D01*
Y34295D01*
X49767Y34297D01*
X49767Y34299D01*
X49768Y34303D01*
X49769Y34306D01*
X49771Y34311D01*
X49774Y34321D01*
X49780Y34334D01*
X49786Y34346D01*
X49795Y34358D01*
X49805Y34368D01*
X49806Y34369D01*
X49807Y34369D01*
X49808Y34370D01*
X49811Y34372D01*
X49813Y34374D01*
X49817Y34376D01*
X49821Y34379D01*
X49826Y34381D01*
X49837Y34386D01*
X49850Y34390D01*
X49865Y34393D01*
X49873Y34394D01*
X49887D01*
X49893Y34394D01*
D02*
G37*
G36*
X49550Y34392D02*
X49562Y34391D01*
X49573Y34390D01*
X49584Y34389D01*
X49593Y34387D01*
X49594D01*
X49595Y34386D01*
X49596D01*
X49599Y34385D01*
X49605Y34384D01*
X49613Y34381D01*
X49621Y34377D01*
X49631Y34372D01*
X49640Y34366D01*
X49649Y34359D01*
X49650Y34359D01*
X49650Y34358D01*
X49652Y34356D01*
X49654Y34355D01*
X49660Y34349D01*
X49666Y34341D01*
X49674Y34332D01*
X49681Y34321D01*
X49689Y34308D01*
X49695Y34294D01*
Y34293D01*
X49695Y34292D01*
X49696Y34290D01*
X49697Y34287D01*
X49699Y34283D01*
X49700Y34278D01*
X49701Y34273D01*
X49702Y34267D01*
X49704Y34261D01*
X49705Y34254D01*
X49708Y34238D01*
X49710Y34221D01*
X49710Y34202D01*
Y34202D01*
Y34200D01*
Y34198D01*
Y34195D01*
X49710Y34191D01*
Y34187D01*
X49709Y34176D01*
X49707Y34164D01*
X49706Y34151D01*
X49703Y34138D01*
X49700Y34124D01*
Y34124D01*
X49699Y34123D01*
X49699Y34121D01*
X49698Y34119D01*
X49696Y34113D01*
X49692Y34105D01*
X49689Y34096D01*
X49685Y34087D01*
X49679Y34078D01*
X49674Y34069D01*
X49673Y34068D01*
X49671Y34065D01*
X49668Y34061D01*
X49663Y34056D01*
X49658Y34051D01*
X49652Y34045D01*
X49646Y34039D01*
X49639Y34034D01*
X49638Y34033D01*
X49635Y34032D01*
X49631Y34030D01*
X49626Y34027D01*
X49619Y34023D01*
X49611Y34021D01*
X49603Y34017D01*
X49593Y34015D01*
X49591D01*
X49590Y34014D01*
X49588Y34013D01*
X49583Y34013D01*
X49575Y34012D01*
X49566Y34011D01*
X49555Y34010D01*
X49544Y34009D01*
X49531Y34008D01*
X49393D01*
Y34393D01*
X49540D01*
X49550Y34392D01*
D02*
G37*
G36*
X21012Y26963D02*
X20959D01*
X20759Y27264D01*
Y26963D01*
X20710D01*
Y27347D01*
X20762D01*
X20963Y27045D01*
Y27347D01*
X21012D01*
Y26963D01*
D02*
G37*
G36*
X21584D02*
X21537D01*
Y27263D01*
X21536Y27262D01*
X21533Y27260D01*
X21530Y27257D01*
X21524Y27253D01*
X21518Y27248D01*
X21511Y27242D01*
X21502Y27236D01*
X21492Y27230D01*
X21491D01*
X21491Y27230D01*
X21487Y27227D01*
X21482Y27225D01*
X21475Y27221D01*
X21467Y27217D01*
X21459Y27214D01*
X21451Y27210D01*
X21442Y27206D01*
Y27252D01*
X21443D01*
X21444Y27253D01*
X21446Y27254D01*
X21449Y27255D01*
X21452Y27257D01*
X21456Y27259D01*
X21466Y27265D01*
X21477Y27271D01*
X21488Y27279D01*
X21500Y27287D01*
X21511Y27297D01*
X21512Y27297D01*
X21512Y27298D01*
X21514Y27300D01*
X21516Y27301D01*
X21521Y27307D01*
X21528Y27313D01*
X21534Y27321D01*
X21542Y27330D01*
X21548Y27339D01*
X21553Y27348D01*
X21584D01*
Y26963D01*
D02*
G37*
G36*
X21373Y27301D02*
X21246D01*
Y26963D01*
X21195D01*
Y27301D01*
X21069D01*
Y27347D01*
X21373D01*
Y27301D01*
D02*
G37*
G36*
X20669Y26963D02*
X20612D01*
X20567Y27079D01*
X20406D01*
X20364Y26963D01*
X20310D01*
X20457Y27347D01*
X20512D01*
X20669Y26963D01*
D02*
G37*
%LPC*%
G36*
X29887Y26831D02*
X29873D01*
X29869Y26830D01*
X29859Y26829D01*
X29847Y26825D01*
X29832Y26821D01*
X29816Y26812D01*
X29801Y26802D01*
X29793Y26795D01*
X29786Y26787D01*
Y26786D01*
X29784Y26785D01*
X29782Y26783D01*
X29780Y26780D01*
X29774Y26771D01*
X29767Y26758D01*
X29760Y26742D01*
X29753Y26723D01*
X29750Y26700D01*
X29748Y26676D01*
Y26675D01*
Y26673D01*
Y26671D01*
X29749Y26666D01*
Y26661D01*
X29750Y26655D01*
X29752Y26641D01*
X29757Y26625D01*
X29763Y26609D01*
X29772Y26592D01*
X29784Y26577D01*
X29786Y26575D01*
X29790Y26572D01*
X29799Y26565D01*
X29809Y26559D01*
X29823Y26551D01*
X29838Y26545D01*
X29856Y26541D01*
X29875Y26539D01*
X29881D01*
X29885Y26540D01*
X29895Y26541D01*
X29907Y26544D01*
X29922Y26549D01*
X29937Y26555D01*
X29951Y26564D01*
X29965Y26577D01*
X29967Y26579D01*
X29971Y26585D01*
X29976Y26593D01*
X29984Y26605D01*
X29990Y26620D01*
X29996Y26637D01*
X29999Y26659D01*
X30001Y26683D01*
Y26684D01*
Y26686D01*
Y26689D01*
X30000Y26694D01*
Y26700D01*
X29999Y26707D01*
X29997Y26722D01*
X29993Y26739D01*
X29986Y26758D01*
X29977Y26775D01*
X29965Y26791D01*
Y26792D01*
X29963Y26793D01*
X29959Y26797D01*
X29951Y26804D01*
X29941Y26811D01*
X29928Y26818D01*
X29913Y26824D01*
X29897Y26829D01*
X29887Y26831D01*
D02*
G37*
G36*
X35492Y26765D02*
X35290Y26478D01*
X35492D01*
Y26765D01*
D02*
G37*
G36*
X31412D02*
X31210Y26478D01*
X31412D01*
Y26765D01*
D02*
G37*
G36*
X33707Y26831D02*
X33701D01*
X33698Y26830D01*
X33687Y26828D01*
X33675Y26825D01*
X33661Y26820D01*
X33647Y26811D01*
X33639Y26806D01*
X33632Y26800D01*
X33625Y26793D01*
X33619Y26784D01*
Y26784D01*
X33617Y26782D01*
X33615Y26778D01*
X33612Y26773D01*
X33610Y26766D01*
X33606Y26758D01*
X33603Y26747D01*
X33600Y26735D01*
X33596Y26722D01*
X33592Y26706D01*
X33588Y26688D01*
X33586Y26669D01*
X33583Y26647D01*
X33581Y26623D01*
X33580Y26597D01*
X33579Y26568D01*
Y26566D01*
Y26562D01*
Y26553D01*
X33580Y26542D01*
Y26530D01*
X33581Y26515D01*
X33582Y26500D01*
X33584Y26483D01*
X33588Y26447D01*
X33591Y26429D01*
X33595Y26413D01*
X33599Y26397D01*
X33604Y26382D01*
X33610Y26369D01*
X33616Y26358D01*
Y26357D01*
X33618Y26356D01*
X33623Y26350D01*
X33631Y26341D01*
X33641Y26332D01*
X33655Y26323D01*
X33671Y26315D01*
X33688Y26308D01*
X33698Y26307D01*
X33708Y26306D01*
X33713D01*
X33717Y26307D01*
X33726Y26309D01*
X33739Y26313D01*
X33753Y26319D01*
X33769Y26328D01*
X33776Y26334D01*
X33784Y26341D01*
X33791Y26349D01*
X33798Y26358D01*
Y26359D01*
X33800Y26361D01*
X33802Y26364D01*
X33804Y26368D01*
X33808Y26375D01*
X33810Y26383D01*
X33814Y26392D01*
X33818Y26403D01*
X33821Y26417D01*
X33824Y26432D01*
X33828Y26450D01*
X33831Y26468D01*
X33833Y26490D01*
X33834Y26513D01*
X33836Y26539D01*
Y26568D01*
Y26569D01*
Y26570D01*
Y26574D01*
Y26583D01*
X33835Y26594D01*
Y26606D01*
X33834Y26621D01*
X33834Y26636D01*
X33832Y26654D01*
X33827Y26689D01*
X33824Y26707D01*
X33821Y26723D01*
X33817Y26739D01*
X33811Y26754D01*
X33806Y26767D01*
X33799Y26778D01*
Y26779D01*
X33797Y26780D01*
X33796Y26783D01*
X33793Y26786D01*
X33785Y26795D01*
X33774Y26805D01*
X33760Y26814D01*
X33745Y26822D01*
X33736Y26826D01*
X33727Y26829D01*
X33717Y26830D01*
X33707Y26831D01*
D02*
G37*
G36*
X31866D02*
X31861D01*
X31857Y26830D01*
X31847Y26828D01*
X31835Y26825D01*
X31821Y26820D01*
X31806Y26811D01*
X31799Y26806D01*
X31791Y26800D01*
X31785Y26793D01*
X31778Y26784D01*
Y26784D01*
X31776Y26782D01*
X31774Y26778D01*
X31772Y26773D01*
X31769Y26766D01*
X31765Y26758D01*
X31762Y26747D01*
X31759Y26735D01*
X31755Y26722D01*
X31751Y26706D01*
X31748Y26688D01*
X31745Y26669D01*
X31742Y26647D01*
X31740Y26623D01*
X31739Y26597D01*
X31738Y26568D01*
Y26566D01*
Y26562D01*
Y26553D01*
X31739Y26542D01*
Y26530D01*
X31740Y26515D01*
X31741Y26500D01*
X31743Y26483D01*
X31748Y26447D01*
X31750Y26429D01*
X31754Y26413D01*
X31758Y26397D01*
X31763Y26382D01*
X31769Y26369D01*
X31775Y26358D01*
Y26357D01*
X31777Y26356D01*
X31782Y26350D01*
X31790Y26341D01*
X31800Y26332D01*
X31814Y26323D01*
X31830Y26315D01*
X31848Y26308D01*
X31857Y26307D01*
X31867Y26306D01*
X31873D01*
X31876Y26307D01*
X31885Y26309D01*
X31898Y26313D01*
X31912Y26319D01*
X31928Y26328D01*
X31935Y26334D01*
X31943Y26341D01*
X31950Y26349D01*
X31958Y26358D01*
Y26359D01*
X31960Y26361D01*
X31961Y26364D01*
X31963Y26368D01*
X31967Y26375D01*
X31970Y26383D01*
X31973Y26392D01*
X31977Y26403D01*
X31980Y26417D01*
X31984Y26432D01*
X31987Y26450D01*
X31990Y26468D01*
X31992Y26490D01*
X31994Y26513D01*
X31996Y26539D01*
Y26568D01*
Y26569D01*
Y26570D01*
Y26574D01*
Y26583D01*
X31995Y26594D01*
Y26606D01*
X31994Y26621D01*
X31993Y26636D01*
X31991Y26654D01*
X31986Y26689D01*
X31984Y26707D01*
X31980Y26723D01*
X31976Y26739D01*
X31971Y26754D01*
X31965Y26767D01*
X31959Y26778D01*
Y26779D01*
X31957Y26780D01*
X31955Y26783D01*
X31952Y26786D01*
X31944Y26795D01*
X31934Y26805D01*
X31920Y26814D01*
X31904Y26822D01*
X31896Y26826D01*
X31886Y26829D01*
X31876Y26830D01*
X31866Y26831D01*
D02*
G37*
G36*
X29380Y26831D02*
X29372D01*
X29364Y26829D01*
X29353Y26827D01*
X29341Y26823D01*
X29328Y26819D01*
X29316Y26811D01*
X29304Y26801D01*
X29303Y26800D01*
X29299Y26797D01*
X29295Y26790D01*
X29290Y26782D01*
X29284Y26772D01*
X29280Y26760D01*
X29276Y26747D01*
X29275Y26732D01*
Y26731D01*
Y26730D01*
X29276Y26724D01*
X29277Y26716D01*
X29279Y26706D01*
X29283Y26694D01*
X29287Y26682D01*
X29295Y26669D01*
X29304Y26658D01*
X29305Y26657D01*
X29309Y26653D01*
X29316Y26648D01*
X29324Y26644D01*
X29335Y26638D01*
X29348Y26634D01*
X29363Y26630D01*
X29380Y26629D01*
X29382D01*
X29387Y26630D01*
X29395Y26631D01*
X29406Y26633D01*
X29419Y26636D01*
X29431Y26641D01*
X29444Y26648D01*
X29455Y26658D01*
X29456Y26659D01*
X29459Y26663D01*
X29464Y26669D01*
X29469Y26677D01*
X29475Y26687D01*
X29480Y26699D01*
X29483Y26713D01*
X29484Y26728D01*
Y26729D01*
Y26730D01*
Y26735D01*
X29482Y26744D01*
X29481Y26754D01*
X29477Y26765D01*
X29471Y26777D01*
X29464Y26789D01*
X29454Y26801D01*
X29453Y26802D01*
X29448Y26806D01*
X29442Y26810D01*
X29433Y26816D01*
X29422Y26821D01*
X29410Y26826D01*
X29395Y26830D01*
X29380Y26831D01*
D02*
G37*
G36*
X29377Y26565D02*
X29371D01*
X29368Y26564D01*
X29357Y26563D01*
X29345Y26561D01*
X29330Y26556D01*
X29315Y26550D01*
X29299Y26540D01*
X29285Y26528D01*
X29283Y26526D01*
X29280Y26522D01*
X29274Y26513D01*
X29268Y26503D01*
X29260Y26489D01*
X29255Y26474D01*
X29251Y26456D01*
X29249Y26437D01*
Y26435D01*
Y26431D01*
X29250Y26425D01*
X29251Y26416D01*
X29253Y26406D01*
X29256Y26395D01*
X29259Y26384D01*
X29264Y26372D01*
X29265Y26371D01*
X29267Y26366D01*
X29271Y26361D01*
X29276Y26354D01*
X29283Y26346D01*
X29291Y26338D01*
X29300Y26330D01*
X29311Y26323D01*
X29313Y26322D01*
X29317Y26320D01*
X29323Y26317D01*
X29332Y26315D01*
X29342Y26312D01*
X29354Y26309D01*
X29367Y26307D01*
X29380Y26306D01*
X29385D01*
X29389Y26307D01*
X29400Y26308D01*
X29413Y26311D01*
X29428Y26316D01*
X29444Y26321D01*
X29458Y26330D01*
X29473Y26342D01*
X29475Y26344D01*
X29479Y26349D01*
X29485Y26357D01*
X29492Y26367D01*
X29498Y26380D01*
X29505Y26396D01*
X29508Y26414D01*
X29510Y26434D01*
Y26435D01*
Y26437D01*
Y26439D01*
X29509Y26443D01*
X29508Y26453D01*
X29505Y26467D01*
X29501Y26481D01*
X29494Y26497D01*
X29485Y26513D01*
X29472Y26527D01*
X29470Y26529D01*
X29466Y26533D01*
X29457Y26539D01*
X29446Y26547D01*
X29432Y26553D01*
X29416Y26560D01*
X29397Y26563D01*
X29377Y26565D01*
D02*
G37*
G36*
X35561Y20276D02*
X35473D01*
Y19983D01*
X35564D01*
X35567Y19983D01*
X35576Y19984D01*
X35585Y19984D01*
X35595Y19986D01*
X35605Y19987D01*
X35614Y19989D01*
X35615Y19990D01*
X35617Y19991D01*
X35621Y19992D01*
X35626Y19994D01*
X35632Y19998D01*
X35637Y20001D01*
X35643Y20005D01*
X35649Y20009D01*
X35649Y20010D01*
X35651Y20013D01*
X35655Y20017D01*
X35658Y20022D01*
X35663Y20029D01*
X35668Y20038D01*
X35672Y20047D01*
X35676Y20058D01*
Y20058D01*
X35677Y20059D01*
X35677Y20061D01*
X35678Y20063D01*
X35678Y20066D01*
X35680Y20070D01*
X35681Y20074D01*
X35682Y20078D01*
X35683Y20089D01*
X35685Y20102D01*
X35686Y20116D01*
X35687Y20132D01*
Y20133D01*
Y20135D01*
Y20138D01*
X35686Y20142D01*
Y20147D01*
X35686Y20153D01*
X35685Y20159D01*
X35685Y20166D01*
X35682Y20181D01*
X35678Y20196D01*
X35673Y20211D01*
X35670Y20218D01*
X35667Y20224D01*
Y20225D01*
X35666Y20226D01*
X35665Y20227D01*
X35663Y20230D01*
X35659Y20235D01*
X35654Y20242D01*
X35646Y20249D01*
X35638Y20256D01*
X35629Y20262D01*
X35619Y20267D01*
X35617Y20268D01*
X35615Y20269D01*
X35610Y20270D01*
X35602Y20272D01*
X35594Y20273D01*
X35582Y20275D01*
X35576Y20275D01*
X35569D01*
X35561Y20276D01*
D02*
G37*
G36*
X36213Y20284D02*
X36210D01*
X36207Y20284D01*
X36201Y20282D01*
X36194Y20281D01*
X36186Y20277D01*
X36177Y20272D01*
X36172Y20269D01*
X36168Y20266D01*
X36164Y20261D01*
X36160Y20256D01*
Y20256D01*
X36159Y20255D01*
X36158Y20252D01*
X36156Y20250D01*
X36155Y20245D01*
X36152Y20240D01*
X36151Y20234D01*
X36149Y20227D01*
X36146Y20219D01*
X36144Y20209D01*
X36142Y20199D01*
X36140Y20187D01*
X36139Y20174D01*
X36137Y20159D01*
X36137Y20144D01*
X36136Y20126D01*
Y20125D01*
Y20123D01*
Y20118D01*
X36137Y20111D01*
Y20104D01*
X36137Y20095D01*
X36138Y20085D01*
X36139Y20075D01*
X36142Y20054D01*
X36144Y20043D01*
X36146Y20033D01*
X36148Y20024D01*
X36151Y20015D01*
X36155Y20007D01*
X36159Y20000D01*
Y20000D01*
X36160Y19999D01*
X36162Y19995D01*
X36167Y19991D01*
X36174Y19985D01*
X36182Y19979D01*
X36191Y19974D01*
X36202Y19971D01*
X36207Y19970D01*
X36213Y19969D01*
X36217D01*
X36219Y19970D01*
X36225Y19971D01*
X36232Y19973D01*
X36241Y19977D01*
X36250Y19983D01*
X36255Y19986D01*
X36259Y19991D01*
X36263Y19995D01*
X36268Y20000D01*
Y20001D01*
X36269Y20002D01*
X36270Y20004D01*
X36271Y20007D01*
X36273Y20010D01*
X36275Y20015D01*
X36277Y20021D01*
X36280Y20028D01*
X36281Y20036D01*
X36283Y20045D01*
X36286Y20055D01*
X36287Y20067D01*
X36288Y20080D01*
X36290Y20094D01*
X36291Y20109D01*
Y20126D01*
Y20127D01*
Y20128D01*
Y20130D01*
Y20135D01*
X36290Y20142D01*
Y20149D01*
X36290Y20158D01*
X36289Y20168D01*
X36288Y20178D01*
X36285Y20199D01*
X36283Y20210D01*
X36281Y20220D01*
X36279Y20229D01*
X36276Y20238D01*
X36272Y20246D01*
X36268Y20252D01*
Y20253D01*
X36267Y20254D01*
X36266Y20255D01*
X36265Y20257D01*
X36260Y20262D01*
X36253Y20269D01*
X36245Y20274D01*
X36236Y20279D01*
X36231Y20281D01*
X36225Y20283D01*
X36219Y20284D01*
X36213Y20284D01*
D02*
G37*
G36*
X31643Y15850D02*
X31634D01*
X31632Y15849D01*
X31626Y15849D01*
X31619Y15847D01*
X31610Y15844D01*
X31601Y15839D01*
X31591Y15833D01*
X31587Y15828D01*
X31582Y15824D01*
Y15823D01*
X31581Y15823D01*
X31580Y15821D01*
X31579Y15819D01*
X31575Y15814D01*
X31571Y15806D01*
X31567Y15797D01*
X31563Y15785D01*
X31561Y15772D01*
X31560Y15757D01*
Y15757D01*
Y15756D01*
Y15754D01*
X31560Y15751D01*
Y15748D01*
X31561Y15745D01*
X31562Y15736D01*
X31565Y15727D01*
X31568Y15717D01*
X31574Y15707D01*
X31581Y15698D01*
X31582Y15697D01*
X31585Y15695D01*
X31590Y15691D01*
X31596Y15687D01*
X31604Y15682D01*
X31614Y15678D01*
X31624Y15676D01*
X31636Y15675D01*
X31639D01*
X31642Y15676D01*
X31648Y15676D01*
X31655Y15678D01*
X31664Y15681D01*
X31673Y15685D01*
X31682Y15690D01*
X31690Y15698D01*
X31691Y15699D01*
X31693Y15702D01*
X31697Y15707D01*
X31701Y15715D01*
X31705Y15723D01*
X31708Y15734D01*
X31710Y15747D01*
X31712Y15761D01*
Y15762D01*
Y15763D01*
Y15765D01*
X31711Y15768D01*
Y15772D01*
X31710Y15776D01*
X31709Y15784D01*
X31707Y15795D01*
X31703Y15806D01*
X31697Y15817D01*
X31690Y15826D01*
Y15827D01*
X31689Y15827D01*
X31686Y15830D01*
X31682Y15834D01*
X31676Y15838D01*
X31668Y15842D01*
X31659Y15846D01*
X31649Y15849D01*
X31643Y15850D01*
D02*
G37*
G36*
X30985Y15842D02*
X30896D01*
Y15549D01*
X30987D01*
X30991Y15549D01*
X30999Y15550D01*
X31008Y15550D01*
X31018Y15551D01*
X31028Y15553D01*
X31037Y15555D01*
X31038Y15556D01*
X31041Y15556D01*
X31044Y15558D01*
X31049Y15560D01*
X31055Y15564D01*
X31061Y15567D01*
X31066Y15571D01*
X31072Y15575D01*
X31072Y15576D01*
X31074Y15579D01*
X31078Y15582D01*
X31082Y15588D01*
X31086Y15595D01*
X31091Y15604D01*
X31096Y15613D01*
X31099Y15624D01*
Y15624D01*
X31100Y15625D01*
X31101Y15627D01*
X31101Y15629D01*
X31102Y15632D01*
X31103Y15636D01*
X31104Y15640D01*
X31105Y15644D01*
X31107Y15655D01*
X31108Y15668D01*
X31109Y15682D01*
X31110Y15698D01*
Y15698D01*
Y15701D01*
Y15703D01*
X31109Y15708D01*
Y15713D01*
X31109Y15718D01*
X31108Y15725D01*
X31108Y15732D01*
X31105Y15747D01*
X31102Y15762D01*
X31097Y15777D01*
X31093Y15784D01*
X31090Y15790D01*
Y15791D01*
X31089Y15792D01*
X31088Y15793D01*
X31087Y15796D01*
X31082Y15801D01*
X31077Y15808D01*
X31069Y15815D01*
X31061Y15822D01*
X31052Y15828D01*
X31042Y15833D01*
X31041Y15834D01*
X31038Y15834D01*
X31033Y15836D01*
X31026Y15838D01*
X31017Y15839D01*
X31006Y15841D01*
X30999Y15841D01*
X30992D01*
X30985Y15842D01*
D02*
G37*
G36*
X39533Y20218D02*
X39445D01*
Y19925D01*
X39536D01*
X39539Y19925D01*
X39548Y19926D01*
X39557Y19926D01*
X39567Y19928D01*
X39577Y19929D01*
X39586Y19931D01*
X39587Y19932D01*
X39589Y19933D01*
X39593Y19934D01*
X39598Y19936D01*
X39604Y19940D01*
X39609Y19943D01*
X39615Y19947D01*
X39621Y19951D01*
X39621Y19953D01*
X39623Y19955D01*
X39627Y19959D01*
X39630Y19964D01*
X39635Y19971D01*
X39640Y19980D01*
X39644Y19989D01*
X39648Y20000D01*
Y20000D01*
X39649Y20001D01*
X39649Y20003D01*
X39650Y20005D01*
X39650Y20008D01*
X39652Y20012D01*
X39653Y20016D01*
X39654Y20020D01*
X39655Y20031D01*
X39657Y20044D01*
X39658Y20059D01*
X39659Y20074D01*
Y20075D01*
Y20077D01*
Y20080D01*
X39658Y20084D01*
Y20089D01*
X39658Y20095D01*
X39657Y20101D01*
X39657Y20108D01*
X39654Y20123D01*
X39650Y20138D01*
X39645Y20153D01*
X39642Y20160D01*
X39639Y20166D01*
Y20167D01*
X39638Y20168D01*
X39637Y20170D01*
X39636Y20172D01*
X39631Y20177D01*
X39626Y20184D01*
X39618Y20191D01*
X39610Y20198D01*
X39601Y20204D01*
X39591Y20209D01*
X39589Y20210D01*
X39587Y20211D01*
X39582Y20212D01*
X39574Y20214D01*
X39566Y20215D01*
X39554Y20217D01*
X39548Y20217D01*
X39541D01*
X39533Y20218D01*
D02*
G37*
G36*
X44032Y15990D02*
X43943D01*
Y15697D01*
X44034D01*
X44038Y15697D01*
X44046Y15698D01*
X44055Y15698D01*
X44065Y15699D01*
X44075Y15701D01*
X44084Y15703D01*
X44085Y15704D01*
X44088Y15704D01*
X44092Y15706D01*
X44096Y15708D01*
X44102Y15711D01*
X44108Y15715D01*
X44113Y15719D01*
X44119Y15723D01*
X44119Y15724D01*
X44121Y15726D01*
X44125Y15730D01*
X44129Y15736D01*
X44133Y15743D01*
X44138Y15751D01*
X44143Y15761D01*
X44146Y15771D01*
Y15772D01*
X44147Y15773D01*
X44148Y15775D01*
X44148Y15777D01*
X44149Y15780D01*
X44150Y15784D01*
X44151Y15788D01*
X44152Y15792D01*
X44154Y15803D01*
X44155Y15816D01*
X44156Y15830D01*
X44157Y15846D01*
Y15846D01*
Y15849D01*
Y15851D01*
X44156Y15856D01*
Y15861D01*
X44156Y15866D01*
X44155Y15873D01*
X44155Y15880D01*
X44152Y15895D01*
X44149Y15910D01*
X44144Y15925D01*
X44140Y15932D01*
X44137Y15938D01*
Y15938D01*
X44136Y15940D01*
X44135Y15941D01*
X44134Y15943D01*
X44129Y15949D01*
X44124Y15956D01*
X44116Y15963D01*
X44108Y15970D01*
X44099Y15976D01*
X44089Y15981D01*
X44088Y15982D01*
X44085Y15982D01*
X44080Y15984D01*
X44073Y15986D01*
X44064Y15987D01*
X44053Y15988D01*
X44046Y15989D01*
X44039D01*
X44032Y15990D01*
D02*
G37*
G36*
X31581Y29990D02*
X31492D01*
Y29697D01*
X31583D01*
X31587Y29697D01*
X31595Y29698D01*
X31604Y29698D01*
X31614Y29699D01*
X31624Y29701D01*
X31633Y29703D01*
X31634Y29704D01*
X31637Y29704D01*
X31641Y29706D01*
X31646Y29708D01*
X31651Y29712D01*
X31657Y29715D01*
X31662Y29719D01*
X31668Y29723D01*
X31668Y29724D01*
X31671Y29727D01*
X31674Y29731D01*
X31678Y29736D01*
X31682Y29743D01*
X31687Y29752D01*
X31692Y29761D01*
X31696Y29772D01*
Y29772D01*
X31696Y29773D01*
X31697Y29775D01*
X31697Y29777D01*
X31698Y29780D01*
X31699Y29784D01*
X31700Y29788D01*
X31701Y29792D01*
X31703Y29803D01*
X31704Y29816D01*
X31706Y29830D01*
X31706Y29846D01*
Y29847D01*
Y29849D01*
Y29852D01*
X31706Y29856D01*
Y29861D01*
X31705Y29867D01*
X31704Y29873D01*
X31704Y29880D01*
X31701Y29895D01*
X31698Y29910D01*
X31693Y29925D01*
X31689Y29932D01*
X31686Y29938D01*
Y29939D01*
X31685Y29940D01*
X31684Y29941D01*
X31683Y29944D01*
X31678Y29949D01*
X31673Y29956D01*
X31666Y29963D01*
X31657Y29970D01*
X31648Y29976D01*
X31638Y29981D01*
X31637Y29982D01*
X31634Y29983D01*
X31629Y29984D01*
X31622Y29986D01*
X31613Y29987D01*
X31602Y29989D01*
X31595Y29989D01*
X31588D01*
X31581Y29990D01*
D02*
G37*
G36*
X48713Y28961D02*
X48592Y28789D01*
X48713D01*
Y28961D01*
D02*
G37*
G36*
X48334Y28992D02*
X48246D01*
Y28699D01*
X48337D01*
X48340Y28699D01*
X48349Y28700D01*
X48358Y28701D01*
X48368Y28702D01*
X48378Y28703D01*
X48387Y28706D01*
X48388Y28706D01*
X48390Y28707D01*
X48394Y28708D01*
X48399Y28711D01*
X48405Y28714D01*
X48410Y28717D01*
X48416Y28721D01*
X48422Y28726D01*
X48422Y28727D01*
X48424Y28729D01*
X48428Y28733D01*
X48432Y28738D01*
X48436Y28745D01*
X48441Y28754D01*
X48445Y28763D01*
X48449Y28774D01*
Y28774D01*
X48450Y28775D01*
X48450Y28777D01*
X48451Y28779D01*
X48451Y28782D01*
X48453Y28786D01*
X48454Y28790D01*
X48455Y28794D01*
X48456Y28805D01*
X48458Y28818D01*
X48459Y28833D01*
X48460Y28848D01*
Y28849D01*
Y28851D01*
Y28854D01*
X48459Y28858D01*
Y28863D01*
X48459Y28869D01*
X48458Y28875D01*
X48458Y28882D01*
X48455Y28897D01*
X48451Y28913D01*
X48446Y28927D01*
X48443Y28934D01*
X48440Y28940D01*
Y28941D01*
X48439Y28942D01*
X48438Y28944D01*
X48437Y28946D01*
X48432Y28951D01*
X48427Y28958D01*
X48419Y28965D01*
X48411Y28972D01*
X48402Y28979D01*
X48392Y28984D01*
X48390Y28984D01*
X48388Y28985D01*
X48383Y28986D01*
X48375Y28988D01*
X48367Y28989D01*
X48355Y28991D01*
X48349Y28991D01*
X48342D01*
X48334Y28992D01*
D02*
G37*
G36*
X49533Y34347D02*
X49444D01*
Y34054D01*
X49535D01*
X49539Y34055D01*
X49547Y34055D01*
X49557Y34056D01*
X49566Y34057D01*
X49576Y34058D01*
X49585Y34061D01*
X49586Y34061D01*
X49589Y34062D01*
X49593Y34063D01*
X49598Y34066D01*
X49603Y34069D01*
X49609Y34072D01*
X49614Y34076D01*
X49620Y34081D01*
X49620Y34082D01*
X49623Y34084D01*
X49626Y34088D01*
X49630Y34093D01*
X49634Y34101D01*
X49639Y34109D01*
X49644Y34118D01*
X49648Y34129D01*
Y34129D01*
X49648Y34131D01*
X49649Y34132D01*
X49649Y34134D01*
X49650Y34137D01*
X49651Y34141D01*
X49652Y34145D01*
X49653Y34149D01*
X49655Y34161D01*
X49656Y34173D01*
X49658Y34188D01*
X49658Y34203D01*
Y34204D01*
Y34206D01*
Y34209D01*
X49658Y34213D01*
Y34218D01*
X49657Y34224D01*
X49656Y34230D01*
X49656Y34237D01*
X49653Y34252D01*
X49650Y34268D01*
X49645Y34282D01*
X49641Y34289D01*
X49638Y34295D01*
Y34296D01*
X49637Y34297D01*
X49636Y34299D01*
X49635Y34301D01*
X49630Y34306D01*
X49625Y34313D01*
X49618Y34320D01*
X49609Y34328D01*
X49600Y34334D01*
X49590Y34339D01*
X49589Y34339D01*
X49586Y34340D01*
X49581Y34341D01*
X49574Y34343D01*
X49565Y34344D01*
X49554Y34346D01*
X49547Y34346D01*
X49540D01*
X49533Y34347D01*
D02*
G37*
G36*
X20483Y27307D02*
Y27306D01*
X20483Y27305D01*
Y27303D01*
X20482Y27301D01*
X20481Y27297D01*
X20480Y27293D01*
X20478Y27284D01*
X20475Y27272D01*
X20471Y27260D01*
X20467Y27247D01*
X20462Y27233D01*
X20421Y27121D01*
X20550D01*
X20510Y27226D01*
Y27227D01*
X20510Y27229D01*
X20509Y27231D01*
X20508Y27235D01*
X20506Y27239D01*
X20504Y27244D01*
X20503Y27249D01*
X20501Y27255D01*
X20496Y27267D01*
X20492Y27281D01*
X20487Y27294D01*
X20483Y27307D01*
D02*
G37*
%LPD*%
D10*
X31544Y15260D02*
G03*
X31544Y15260I-39J0D01*
G01*
X37892Y19183D02*
G03*
X37892Y19183I-39J0D01*
G01*
X38947Y20315D02*
G03*
X38947Y20315I-39J0D01*
G01*
X42998Y14092D02*
G03*
X42998Y14092I-39J0D01*
G01*
X52325Y31496D02*
G03*
X52325Y31496I-2325J0D01*
G01*
X51012Y35023D02*
G03*
X51012Y35023I-39J0D01*
G01*
X50874Y28660D02*
G03*
X50874Y28660I-39J0D01*
G01*
X38305Y31436D02*
X39565D01*
X38305Y25294D02*
X39643D01*
X38305D02*
Y25530D01*
Y31200D02*
Y31436D01*
X22244Y20404D02*
X44685D01*
Y36325D01*
X22897Y21137D02*
X42188D01*
X22899Y21137D02*
Y35594D01*
X42194Y21143D02*
Y35599D01*
X22894Y35602D02*
X42185D01*
X22236Y20404D02*
Y36325D01*
X22236Y36326D02*
X44677D01*
X20636Y24903D02*
X21246D01*
D11*
X31719Y15322D02*
X31752Y15289D01*
X31719Y15322D02*
X31913Y15629D01*
X32136Y15851D01*
X31977Y15064D02*
X31989Y15052D01*
X32214Y14827D02*
X32226Y14815D01*
X32451Y14590D02*
X32462Y14579D01*
X32136Y15851D02*
X33250Y14738D01*
X33027Y14515D02*
X33250Y14738D01*
X32721Y14320D02*
X33027Y14515D01*
X32687Y14354D02*
X32721Y14320D01*
X37605Y19154D02*
X37639Y19121D01*
X37444Y18815D02*
X37639Y19121D01*
X37222Y18592D02*
X37444Y18815D01*
X37369Y19391D02*
X37380Y19379D01*
X37132Y19628D02*
X37144Y19616D01*
X36896Y19864D02*
X36907Y19853D01*
X36108Y19705D02*
X37222Y18592D01*
X36108Y19705D02*
X36331Y19928D01*
X36637Y20123D01*
X36671Y20089D01*
X38936Y20068D02*
X38969Y20101D01*
X39276Y19907D01*
X39498Y19684D01*
X38699Y19831D02*
X38711Y19843D01*
X38462Y19595D02*
X38474Y19606D01*
X38226Y19358D02*
X38237Y19369D01*
X38385Y18570D02*
X39498Y19684D01*
X38162Y18793D02*
X38385Y18570D01*
X37967Y19099D02*
X38162Y18793D01*
X37967Y19099D02*
X38001Y19133D01*
X42897Y14305D02*
X42930Y14339D01*
X42591Y14500D02*
X42897Y14305D01*
X42368Y14723D02*
X42591Y14500D01*
X43155Y14564D02*
X43167Y14576D01*
X43392Y14801D02*
X43404Y14812D01*
X43629Y15037D02*
X43640Y15049D01*
X42368Y14723D02*
X43481Y15837D01*
X43704Y15614D01*
X43899Y15308D01*
X43865Y15274D02*
X43899Y15308D01*
X50741Y34932D02*
X50782Y34908D01*
X50673Y34561D02*
X50782Y34908D01*
X50516Y34289D02*
X50673Y34561D01*
X50451Y35099D02*
X50465Y35091D01*
X50161Y35266D02*
X50176Y35258D01*
X49872Y35433D02*
X49886Y35425D01*
X49152Y35076D02*
X50516Y34289D01*
X49152Y35076D02*
X49309Y35349D01*
X49555Y35616D01*
X49596Y35593D01*
X50680Y28465D02*
X50728D01*
X50806Y28110D01*
Y27795D02*
Y28110D01*
X50345Y28465D02*
X50362D01*
X50011D02*
X50027D01*
X49676D02*
X49693D01*
X49232Y27795D02*
X50806D01*
X49232D02*
Y28110D01*
X49310Y28465D01*
X49358D01*
D12*
X38571Y28356D02*
D03*
M02*
