G04*
G04 #@! TF.GenerationSoftware,Altium Limited,Altium Designer,20.0.13 (296)*
G04*
G04 Layer_Color=128*
%FSLAX24Y24*%
%MOIN*%
G70*
G01*
G75*
%ADD115C,0.0020*%
D115*
X31281Y23440D02*
X31518D01*
X31400Y23322D02*
Y23558D01*
X31281Y23940D02*
X31518D01*
X31400Y23822D02*
Y24058D01*
X32781Y23440D02*
X33018D01*
X32900Y23322D02*
Y23558D01*
X32781Y23940D02*
X33018D01*
X32900Y23822D02*
Y24058D01*
X32281Y23940D02*
X32518D01*
X32400Y23822D02*
Y24058D01*
X32281Y23440D02*
X32518D01*
X32400Y23322D02*
Y23558D01*
X31781Y23940D02*
X32018D01*
X31900Y23822D02*
Y24058D01*
X31781Y23440D02*
X32018D01*
X31900Y23322D02*
Y23558D01*
X47161Y23940D02*
X47398D01*
X47280Y23822D02*
Y24058D01*
X47161Y23440D02*
X47398D01*
X47280Y23322D02*
Y23558D01*
X45661Y23940D02*
X45898D01*
X45780Y23822D02*
Y24058D01*
X45661Y23440D02*
X45898D01*
X45780Y23322D02*
Y23558D01*
X46161Y23440D02*
X46398D01*
X46280Y23322D02*
Y23558D01*
X46161Y23940D02*
X46398D01*
X46280Y23822D02*
Y24058D01*
X46661Y23440D02*
X46898D01*
X46780Y23322D02*
Y23558D01*
X46661Y23940D02*
X46898D01*
X46780Y23822D02*
Y24058D01*
X45661Y36050D02*
X45898D01*
X45780Y35932D02*
Y36168D01*
X45661Y36550D02*
X45898D01*
X45780Y36432D02*
Y36668D01*
X47161Y36050D02*
X47398D01*
X47280Y35932D02*
Y36168D01*
X47161Y36550D02*
X47398D01*
X47280Y36432D02*
Y36668D01*
X46661Y36550D02*
X46898D01*
X46780Y36432D02*
Y36668D01*
X46661Y36050D02*
X46898D01*
X46780Y35932D02*
Y36168D01*
X46161Y36550D02*
X46398D01*
X46280Y36432D02*
Y36668D01*
X46161Y36050D02*
X46398D01*
X46280Y35932D02*
Y36168D01*
X44791Y24501D02*
X45027D01*
X44909Y24383D02*
Y24619D01*
X43923Y24485D02*
X44159D01*
X44041Y24367D02*
Y24603D01*
X48509Y28419D02*
X49691D01*
X49100Y27829D02*
Y29010D01*
X34260Y31804D02*
X34380D01*
X34320Y31744D02*
Y31864D01*
X33150Y33971D02*
X33270D01*
X33210Y33911D02*
Y34031D01*
X32533Y34483D02*
X32653D01*
X32593Y34423D02*
Y34543D01*
X29493Y25725D02*
X29673D01*
X29583Y25635D02*
Y25815D01*
X30375Y25542D02*
X30555D01*
X30465Y25452D02*
Y25632D01*
X30068Y25545D02*
X30248D01*
X30158Y25455D02*
Y25635D01*
X30982Y25736D02*
X31162D01*
X31072Y25646D02*
Y25826D01*
X29744Y25542D02*
X29924D01*
X29834Y25452D02*
Y25632D01*
X30720Y25558D02*
X30900D01*
X30810Y25468D02*
Y25648D01*
X31688Y32897D02*
X31808D01*
X31748Y32837D02*
Y32957D01*
X32320Y33079D02*
X32440D01*
X32380Y33019D02*
Y33139D01*
X34913Y34527D02*
X35033D01*
X34973Y34467D02*
Y34587D01*
X34917Y33073D02*
X35037D01*
X34977Y33013D02*
Y33133D01*
X35207Y33075D02*
X35327D01*
X35267Y33015D02*
Y33135D01*
X35204Y33351D02*
X35324D01*
X35264Y33291D02*
Y33411D01*
X36615Y32823D02*
X36735D01*
X36675Y32763D02*
Y32883D01*
X34472Y33799D02*
X34592D01*
X34532Y33739D02*
Y33859D01*
X40470Y34385D02*
X40590D01*
X40530Y34325D02*
Y34445D01*
X39177Y35858D02*
X39297D01*
X39237Y35798D02*
Y35918D01*
X39362Y36878D02*
X39482D01*
X39422Y36818D02*
Y36938D01*
X39146Y36065D02*
X39266D01*
X39206Y36005D02*
Y36125D01*
X38882Y36172D02*
X39002D01*
X38942Y36112D02*
Y36232D01*
X38875Y35897D02*
X38995D01*
X38935Y35837D02*
Y35957D01*
X38882Y36486D02*
X39002D01*
X38942Y36426D02*
Y36546D01*
X40584Y36876D02*
X40704D01*
X40644Y36816D02*
Y36936D01*
X40519Y35950D02*
X40639D01*
X40579Y35890D02*
Y36010D01*
X41662Y36398D02*
X41782D01*
X41722Y36338D02*
Y36458D01*
X41726Y35973D02*
X41846D01*
X41786Y35913D02*
Y36033D01*
X41292Y36406D02*
X41412D01*
X41352Y36346D02*
Y36466D01*
X41304Y35974D02*
X41424D01*
X41364Y35914D02*
Y36034D01*
X41873Y36235D02*
X41993D01*
X41933Y36175D02*
Y36295D01*
X41507Y36189D02*
X41627D01*
X41567Y36129D02*
Y36249D01*
X40847Y35962D02*
X40967D01*
X40907Y35902D02*
Y36022D01*
X41069Y36201D02*
X41189D01*
X41129Y36141D02*
Y36261D01*
X41857Y36577D02*
X41977D01*
X41917Y36517D02*
Y36637D01*
X41794Y37163D02*
X41914D01*
X41854Y37103D02*
Y37223D01*
X41678Y36877D02*
X41798D01*
X41738Y36817D02*
Y36937D01*
X41495Y36638D02*
X41615D01*
X41555Y36578D02*
Y36698D01*
X41069Y36606D02*
X41189D01*
X41129Y36546D02*
Y36666D01*
X41288Y36880D02*
X41408D01*
X41348Y36820D02*
Y36940D01*
X40910Y36869D02*
X41030D01*
X40970Y36809D02*
Y36929D01*
X41434Y37165D02*
X41554D01*
X41494Y37105D02*
Y37225D01*
X40735Y37171D02*
X40855D01*
X40795Y37111D02*
Y37231D01*
X41086Y37172D02*
X41206D01*
X41146Y37112D02*
Y37232D01*
X38660Y36025D02*
X38780D01*
X38720Y35965D02*
Y36085D01*
X38668Y36320D02*
X38788D01*
X38728Y36260D02*
Y36380D01*
X38668Y36625D02*
X38788D01*
X38728Y36565D02*
Y36685D01*
X38700Y37134D02*
X38820D01*
X38760Y37074D02*
Y37194D01*
X39364Y37146D02*
X39484D01*
X39424Y37086D02*
Y37206D01*
X39065Y37082D02*
X39185D01*
X39125Y37022D02*
Y37142D01*
X39002Y35691D02*
X39122D01*
X39062Y35631D02*
Y35751D01*
X38882Y36816D02*
X39002D01*
X38942Y36756D02*
Y36876D01*
X47882Y31207D02*
X48002D01*
X47942Y31147D02*
Y31267D01*
X48089Y31220D02*
X48209D01*
X48149Y31160D02*
Y31280D01*
X47864Y32969D02*
X47984D01*
X47924Y32909D02*
Y33029D01*
X48064Y32969D02*
X48184D01*
X48124Y32909D02*
Y33029D01*
X49780Y29120D02*
X49900D01*
X49840Y29060D02*
Y29180D01*
X49920Y28840D02*
X50040D01*
X49980Y28780D02*
Y28900D01*
X49920Y27720D02*
X50040D01*
X49980Y27660D02*
Y27780D01*
X49500Y27440D02*
X49620D01*
X49560Y27380D02*
Y27500D01*
X49220Y27440D02*
X49340D01*
X49280Y27380D02*
Y27500D01*
X49360Y27160D02*
X49480D01*
X49420Y27100D02*
Y27220D01*
X48940Y27440D02*
X49060D01*
X49000Y27380D02*
Y27500D01*
X49080Y27160D02*
X49200D01*
X49140Y27100D02*
Y27220D01*
X48940Y26880D02*
X49060D01*
X49000Y26820D02*
Y26940D01*
X48660Y27440D02*
X48780D01*
X48720Y27380D02*
Y27500D01*
X48800Y27160D02*
X48920D01*
X48860Y27100D02*
Y27220D01*
X48660Y26880D02*
X48780D01*
X48720Y26820D02*
Y26940D01*
X48800Y26600D02*
X48920D01*
X48860Y26540D02*
Y26660D01*
X48380Y29680D02*
X48500D01*
X48440Y29620D02*
Y29740D01*
X48520Y29400D02*
X48640D01*
X48580Y29340D02*
Y29460D01*
X48380Y29120D02*
X48500D01*
X48440Y29060D02*
Y29180D01*
X48380Y27440D02*
X48500D01*
X48440Y27380D02*
Y27500D01*
X48520Y27160D02*
X48640D01*
X48580Y27100D02*
Y27220D01*
X48380Y26880D02*
X48500D01*
X48440Y26820D02*
Y26940D01*
X48520Y26600D02*
X48640D01*
X48580Y26540D02*
Y26660D01*
X48380Y26320D02*
X48500D01*
X48440Y26260D02*
Y26380D01*
X48240Y29400D02*
X48360D01*
X48300Y29340D02*
Y29460D01*
X48100Y29120D02*
X48220D01*
X48160Y29060D02*
Y29180D01*
X48100Y28000D02*
X48220D01*
X48160Y27940D02*
Y28060D01*
X48240Y27720D02*
X48360D01*
X48300Y27660D02*
Y27780D01*
X48100Y27440D02*
X48220D01*
X48160Y27380D02*
Y27500D01*
X48240Y27160D02*
X48360D01*
X48300Y27100D02*
Y27220D01*
X48100Y26880D02*
X48220D01*
X48160Y26820D02*
Y26940D01*
X48240Y26600D02*
X48360D01*
X48300Y26540D02*
Y26660D01*
X48100Y26320D02*
X48220D01*
X48160Y26260D02*
Y26380D01*
X48240Y26040D02*
X48360D01*
X48300Y25980D02*
Y26100D01*
X47960Y29400D02*
X48080D01*
X48020Y29340D02*
Y29460D01*
X47960Y28840D02*
X48080D01*
X48020Y28780D02*
Y28900D01*
X47960Y28280D02*
X48080D01*
X48020Y28220D02*
Y28340D01*
X47960Y27720D02*
X48080D01*
X48020Y27660D02*
Y27780D01*
X47960Y27160D02*
X48080D01*
X48020Y27100D02*
Y27220D01*
X47960Y26600D02*
X48080D01*
X48020Y26540D02*
Y26660D01*
X47960Y26040D02*
X48080D01*
X48020Y25980D02*
Y26100D01*
X30880Y26600D02*
X31000D01*
X30940Y26540D02*
Y26660D01*
X30740Y25200D02*
X30860D01*
X30800Y25140D02*
Y25260D01*
X30880Y24920D02*
X31000D01*
X30940Y24860D02*
Y24980D01*
X30740Y24640D02*
X30860D01*
X30800Y24580D02*
Y24700D01*
X30880Y24360D02*
X31000D01*
X30940Y24300D02*
Y24420D01*
X30740Y24080D02*
X30860D01*
X30800Y24020D02*
Y24140D01*
X30880Y23800D02*
X31000D01*
X30940Y23740D02*
Y23860D01*
X30740Y23520D02*
X30860D01*
X30800Y23460D02*
Y23580D01*
X30880Y23240D02*
X31000D01*
X30940Y23180D02*
Y23300D01*
X30600Y26600D02*
X30720D01*
X30660Y26540D02*
Y26660D01*
X30600Y24920D02*
X30720D01*
X30660Y24860D02*
Y24980D01*
X30600Y24360D02*
X30720D01*
X30660Y24300D02*
Y24420D01*
X30600Y23800D02*
X30720D01*
X30660Y23740D02*
Y23860D01*
X30320Y26600D02*
X30440D01*
X30380Y26540D02*
Y26660D01*
X30040Y26600D02*
X30160D01*
X30100Y26540D02*
Y26660D01*
X29900Y22960D02*
X30020D01*
X29960Y22900D02*
Y23020D01*
X29760Y26600D02*
X29880D01*
X29820Y26540D02*
Y26660D01*
X29620Y25200D02*
X29740D01*
X29680Y25140D02*
Y25260D01*
X29760Y24920D02*
X29880D01*
X29820Y24860D02*
Y24980D01*
X29620Y24640D02*
X29740D01*
X29680Y24580D02*
Y24700D01*
X29760Y24360D02*
X29880D01*
X29820Y24300D02*
Y24420D01*
X29620Y24080D02*
X29740D01*
X29680Y24020D02*
Y24140D01*
X29760Y23800D02*
X29880D01*
X29820Y23740D02*
Y23860D01*
X29620Y23520D02*
X29740D01*
X29680Y23460D02*
Y23580D01*
X29760Y23240D02*
X29880D01*
X29820Y23180D02*
Y23300D01*
X29620Y22960D02*
X29740D01*
X29680Y22900D02*
Y23020D01*
X29480Y26600D02*
X29600D01*
X29540Y26540D02*
Y26660D01*
X29340Y25200D02*
X29460D01*
X29400Y25140D02*
Y25260D01*
X29480Y24920D02*
X29600D01*
X29540Y24860D02*
Y24980D01*
X29340Y24640D02*
X29460D01*
X29400Y24580D02*
Y24700D01*
X29480Y24360D02*
X29600D01*
X29540Y24300D02*
Y24420D01*
X29340Y24080D02*
X29460D01*
X29400Y24020D02*
Y24140D01*
X29480Y23800D02*
X29600D01*
X29540Y23740D02*
Y23860D01*
X29340Y23520D02*
X29460D01*
X29400Y23460D02*
Y23580D01*
X29480Y23240D02*
X29600D01*
X29540Y23180D02*
Y23300D01*
X29340Y22960D02*
X29460D01*
X29400Y22900D02*
Y23020D01*
X29060Y26880D02*
X29180D01*
X29120Y26820D02*
Y26940D01*
X29200Y26600D02*
X29320D01*
X29260Y26540D02*
Y26660D01*
X29060Y26320D02*
X29180D01*
X29120Y26260D02*
Y26380D01*
X29060Y25760D02*
X29180D01*
X29120Y25700D02*
Y25820D01*
X29060Y25200D02*
X29180D01*
X29120Y25140D02*
Y25260D01*
X29060Y24080D02*
X29180D01*
X29120Y24020D02*
Y24140D01*
X29200Y23800D02*
X29320D01*
X29260Y23740D02*
Y23860D01*
X29060Y23520D02*
X29180D01*
X29120Y23460D02*
Y23580D01*
X29200Y23240D02*
X29320D01*
X29260Y23180D02*
Y23300D01*
X29060Y22960D02*
X29180D01*
X29120Y22900D02*
Y23020D01*
X28920Y27160D02*
X29040D01*
X28980Y27100D02*
Y27220D01*
X28780Y26880D02*
X28900D01*
X28840Y26820D02*
Y26940D01*
X28920Y26600D02*
X29040D01*
X28980Y26540D02*
Y26660D01*
X28780Y26320D02*
X28900D01*
X28840Y26260D02*
Y26380D01*
X28920Y26040D02*
X29040D01*
X28980Y25980D02*
Y26100D01*
X28780Y25760D02*
X28900D01*
X28840Y25700D02*
Y25820D01*
X28920Y25480D02*
X29040D01*
X28980Y25420D02*
Y25540D01*
X28780Y25200D02*
X28900D01*
X28840Y25140D02*
Y25260D01*
X28780Y24080D02*
X28900D01*
X28840Y24020D02*
Y24140D01*
X28920Y23800D02*
X29040D01*
X28980Y23740D02*
Y23860D01*
X28780Y23520D02*
X28900D01*
X28840Y23460D02*
Y23580D01*
X28920Y23240D02*
X29040D01*
X28980Y23180D02*
Y23300D01*
X28780Y22960D02*
X28900D01*
X28840Y22900D02*
Y23020D01*
X28640Y27160D02*
X28760D01*
X28700Y27100D02*
Y27220D01*
X28500Y26880D02*
X28620D01*
X28560Y26820D02*
Y26940D01*
X28640Y26600D02*
X28760D01*
X28700Y26540D02*
Y26660D01*
X28500Y26320D02*
X28620D01*
X28560Y26260D02*
Y26380D01*
X28640Y26040D02*
X28760D01*
X28700Y25980D02*
Y26100D01*
X28500Y25760D02*
X28620D01*
X28560Y25700D02*
Y25820D01*
X28640Y25480D02*
X28760D01*
X28700Y25420D02*
Y25540D01*
X28500Y25200D02*
X28620D01*
X28560Y25140D02*
Y25260D01*
X28500Y24080D02*
X28620D01*
X28560Y24020D02*
Y24140D01*
X28640Y23800D02*
X28760D01*
X28700Y23740D02*
Y23860D01*
X28500Y23520D02*
X28620D01*
X28560Y23460D02*
Y23580D01*
X28640Y23240D02*
X28760D01*
X28700Y23180D02*
Y23300D01*
X28500Y22960D02*
X28620D01*
X28560Y22900D02*
Y23020D01*
X28360Y27160D02*
X28480D01*
X28420Y27100D02*
Y27220D01*
X28220Y26880D02*
X28340D01*
X28280Y26820D02*
Y26940D01*
X28360Y26600D02*
X28480D01*
X28420Y26540D02*
Y26660D01*
X28220Y26320D02*
X28340D01*
X28280Y26260D02*
Y26380D01*
X28360Y26040D02*
X28480D01*
X28420Y25980D02*
Y26100D01*
X28220Y25760D02*
X28340D01*
X28280Y25700D02*
Y25820D01*
X28360Y25480D02*
X28480D01*
X28420Y25420D02*
Y25540D01*
X28220Y25200D02*
X28340D01*
X28280Y25140D02*
Y25260D01*
X28220Y24080D02*
X28340D01*
X28280Y24020D02*
Y24140D01*
X28360Y23800D02*
X28480D01*
X28420Y23740D02*
Y23860D01*
X28220Y23520D02*
X28340D01*
X28280Y23460D02*
Y23580D01*
X28360Y23240D02*
X28480D01*
X28420Y23180D02*
Y23300D01*
X28220Y22960D02*
X28340D01*
X28280Y22900D02*
Y23020D01*
X28080Y27160D02*
X28200D01*
X28140Y27100D02*
Y27220D01*
X27940Y26880D02*
X28060D01*
X28000Y26820D02*
Y26940D01*
X28080Y26600D02*
X28200D01*
X28140Y26540D02*
Y26660D01*
X27940Y26320D02*
X28060D01*
X28000Y26260D02*
Y26380D01*
X28080Y26040D02*
X28200D01*
X28140Y25980D02*
Y26100D01*
X27940Y25760D02*
X28060D01*
X28000Y25700D02*
Y25820D01*
X28080Y25480D02*
X28200D01*
X28140Y25420D02*
Y25540D01*
X27940Y25200D02*
X28060D01*
X28000Y25140D02*
Y25260D01*
X27940Y24080D02*
X28060D01*
X28000Y24020D02*
Y24140D01*
X28080Y23800D02*
X28200D01*
X28140Y23740D02*
Y23860D01*
X27940Y23520D02*
X28060D01*
X28000Y23460D02*
Y23580D01*
X28080Y23240D02*
X28200D01*
X28140Y23180D02*
Y23300D01*
X27940Y22960D02*
X28060D01*
X28000Y22900D02*
Y23020D01*
X27800Y27160D02*
X27920D01*
X27860Y27100D02*
Y27220D01*
X27800Y26600D02*
X27920D01*
X27860Y26540D02*
Y26660D01*
X27800Y26040D02*
X27920D01*
X27860Y25980D02*
Y26100D01*
X27800Y25480D02*
X27920D01*
X27860Y25420D02*
Y25540D01*
X27800Y23800D02*
X27920D01*
X27860Y23740D02*
Y23860D01*
X27800Y23240D02*
X27920D01*
X27860Y23180D02*
Y23300D01*
X47894Y25651D02*
X48014D01*
X47954Y25591D02*
Y25711D01*
X45580Y27160D02*
X45700D01*
X45640Y27100D02*
Y27220D01*
X39101Y34588D02*
X39221D01*
X39161Y34528D02*
Y34648D01*
X38877Y34753D02*
X38997D01*
X38937Y34693D02*
Y34813D01*
X38211Y34983D02*
X38331D01*
X38271Y34923D02*
Y35043D01*
X40121Y34655D02*
X40241D01*
X40181Y34595D02*
Y34715D01*
X40153Y34359D02*
X40273D01*
X40213Y34299D02*
Y34419D01*
X29556Y31680D02*
X29676D01*
X29616Y31620D02*
Y31740D01*
X33343Y24363D02*
X33463D01*
X33403Y24303D02*
Y24423D01*
X33343Y25024D02*
X33463D01*
X33403Y24964D02*
Y25084D01*
X33737Y24386D02*
X33857D01*
X33797Y24326D02*
Y24446D01*
X35010Y23859D02*
X35130D01*
X35070Y23799D02*
Y23919D01*
X34488Y23851D02*
X34608D01*
X34548Y23791D02*
Y23911D01*
X32023Y28828D02*
X32143D01*
X32083Y28768D02*
Y28888D01*
X43135Y35134D02*
X43255D01*
X43195Y35074D02*
Y35194D01*
X43780Y35632D02*
X43960D01*
X43870Y35542D02*
Y35722D01*
X43524Y36490D02*
X43704D01*
X43614Y36400D02*
Y36580D01*
X47264Y31027D02*
X47384D01*
X47324Y30967D02*
Y31087D01*
X32337Y27086D02*
X32457D01*
X32397Y27026D02*
Y27146D01*
X34286Y30195D02*
X34406D01*
X34346Y30135D02*
Y30255D01*
X33437Y30203D02*
X33557D01*
X33497Y30143D02*
Y30263D01*
X33341Y30738D02*
X33461D01*
X33401Y30678D02*
Y30798D01*
X32349Y30256D02*
X32469D01*
X32409Y30196D02*
Y30316D01*
X32587Y30253D02*
X32707D01*
X32647Y30193D02*
Y30313D01*
X31665Y31019D02*
X31785D01*
X31725Y30959D02*
Y31079D01*
X30984Y27410D02*
X31104D01*
X31044Y27350D02*
Y27470D01*
X31671Y29918D02*
X31791D01*
X31731Y29858D02*
Y29978D01*
X42463Y36869D02*
X42583D01*
X42523Y36809D02*
Y36929D01*
X42133Y36336D02*
X42253D01*
X42193Y36276D02*
Y36396D01*
X42135Y36587D02*
X42255D01*
X42195Y36527D02*
Y36647D01*
X42128Y36876D02*
X42248D01*
X42188Y36816D02*
Y36936D01*
X42792Y37161D02*
X42912D01*
X42852Y37101D02*
Y37221D01*
X42468Y37163D02*
X42588D01*
X42528Y37103D02*
Y37223D01*
X42120Y37163D02*
X42240D01*
X42180Y37103D02*
Y37223D01*
X38174Y36939D02*
X38294D01*
X38234Y36879D02*
Y36999D01*
X38405Y36693D02*
X38525D01*
X38465Y36633D02*
Y36753D01*
X38405Y36939D02*
X38525D01*
X38465Y36879D02*
Y36999D01*
X38407Y37163D02*
X38527D01*
X38467Y37103D02*
Y37223D01*
X38177Y37159D02*
X38297D01*
X38237Y37099D02*
Y37219D01*
X37930Y37168D02*
X38050D01*
X37990Y37108D02*
Y37228D01*
X38247Y35566D02*
X38367D01*
X38307Y35506D02*
Y35626D01*
X38119Y35313D02*
X38239D01*
X38179Y35253D02*
Y35373D01*
X37012Y23185D02*
X37132D01*
X37072Y23125D02*
Y23245D01*
X36813Y23185D02*
X36933D01*
X36873Y23125D02*
Y23245D01*
X36979Y23586D02*
X37099D01*
X37039Y23526D02*
Y23646D01*
X36806Y23582D02*
X36926D01*
X36866Y23522D02*
Y23642D01*
X41677Y35226D02*
X41797D01*
X41737Y35166D02*
Y35286D01*
X38560Y35472D02*
X38680D01*
X38620Y35412D02*
Y35532D01*
X42513Y36093D02*
X42633D01*
X42573Y36033D02*
Y36153D01*
X42299Y35881D02*
X42419D01*
X42359Y35821D02*
Y35941D01*
X42847Y35675D02*
X42967D01*
X42907Y35615D02*
Y35735D01*
X46146Y27959D02*
X46266D01*
X46206Y27899D02*
Y28019D01*
X33060Y27065D02*
X33180D01*
X33120Y27005D02*
Y27125D01*
X33458Y27195D02*
X33578D01*
X33518Y27135D02*
Y27255D01*
X35556Y35740D02*
X35676D01*
X35616Y35680D02*
Y35800D01*
X35720Y35550D02*
X35840D01*
X35780Y35490D02*
Y35610D01*
X36721Y35991D02*
X36841D01*
X36781Y35931D02*
Y36051D01*
X36636Y34010D02*
X36756D01*
X36696Y33950D02*
Y34070D01*
X35241Y34839D02*
X35361D01*
X35301Y34779D02*
Y34899D01*
X37131Y34134D02*
X37251D01*
X37191Y34074D02*
Y34194D01*
X38172Y32952D02*
X38292D01*
X38232Y32892D02*
Y33012D01*
X44254Y32384D02*
X44374D01*
X44314Y32324D02*
Y32444D01*
X38987Y25896D02*
X39167D01*
X39077Y25806D02*
Y25986D01*
X37057Y32400D02*
X37177D01*
X37117Y32340D02*
Y32460D01*
X36803Y31998D02*
X36923D01*
X36863Y31938D02*
Y32058D01*
X37356Y31559D02*
X37476D01*
X37416Y31499D02*
Y31619D01*
X35627Y32382D02*
X35747D01*
X35687Y32322D02*
Y32442D01*
X38296Y32230D02*
X38416D01*
X38356Y32170D02*
Y32290D01*
X37641Y31685D02*
X37761D01*
X37701Y31625D02*
Y31745D01*
X43074Y33941D02*
X43194D01*
X43134Y33881D02*
Y34001D01*
X42908Y33941D02*
X43028D01*
X42968Y33881D02*
Y34001D01*
X41978Y32013D02*
X42098D01*
X42038Y31953D02*
Y32073D01*
X42158Y32076D02*
X42278D01*
X42218Y32016D02*
Y32136D01*
X42882Y34152D02*
X43002D01*
X42942Y34092D02*
Y34212D01*
X41977Y32718D02*
X42097D01*
X42037Y32658D02*
Y32778D01*
X41269Y32649D02*
X41389D01*
X41329Y32589D02*
Y32709D01*
X40432Y32366D02*
X40552D01*
X40492Y32306D02*
Y32426D01*
X42911Y31913D02*
X43031D01*
X42971Y31853D02*
Y31973D01*
X33775Y27926D02*
X33895D01*
X33835Y27866D02*
Y27986D01*
X42232Y34437D02*
X42352D01*
X42292Y34377D02*
Y34497D01*
X42246Y34232D02*
X42366D01*
X42306Y34172D02*
Y34292D01*
X41377Y33773D02*
X41497D01*
X41437Y33713D02*
Y33833D01*
X41670Y33493D02*
X41790D01*
X41730Y33433D02*
Y33553D01*
X33265Y27503D02*
X33385D01*
X33325Y27443D02*
Y27563D01*
X42120Y33926D02*
X42240D01*
X42180Y33866D02*
Y33986D01*
X41821Y34224D02*
X41941D01*
X41881Y34164D02*
Y34284D01*
X41075Y34261D02*
X41195D01*
X41135Y34201D02*
Y34321D01*
X43113Y31465D02*
X43233D01*
X43173Y31405D02*
Y31525D01*
X37115Y33289D02*
X37235D01*
X37175Y33229D02*
Y33349D01*
X37123Y33709D02*
X37243D01*
X37183Y33649D02*
Y33769D01*
X42400Y30261D02*
X42520D01*
X42460Y30201D02*
Y30321D01*
X42228Y30258D02*
X42348D01*
X42288Y30198D02*
Y30318D01*
X42590Y30264D02*
X42710D01*
X42650Y30204D02*
Y30324D01*
X35227Y26750D02*
X35407D01*
X35317Y26660D02*
Y26840D01*
X35035Y26975D02*
X35215D01*
X35125Y26885D02*
Y27065D01*
X34827Y27167D02*
X35007D01*
X34917Y27077D02*
Y27257D01*
X34606Y27352D02*
X34786D01*
X34696Y27262D02*
Y27442D01*
X34880Y28003D02*
X35000D01*
X34940Y27943D02*
Y28063D01*
X34877Y28202D02*
X34997D01*
X34937Y28142D02*
Y28262D01*
X34881Y28409D02*
X35001D01*
X34941Y28349D02*
Y28469D01*
X35074Y28007D02*
X35194D01*
X35134Y27947D02*
Y28067D01*
X35260Y28003D02*
X35380D01*
X35320Y27943D02*
Y28063D01*
X42156Y35212D02*
X42276D01*
X42216Y35152D02*
Y35272D01*
X36630Y33449D02*
X36750D01*
X36690Y33389D02*
Y33509D01*
X37781Y36187D02*
X37901D01*
X37841Y36127D02*
Y36247D01*
X35103Y28211D02*
X35223D01*
X35163Y28151D02*
Y28271D01*
X35304Y28205D02*
X35424D01*
X35364Y28145D02*
Y28265D01*
X35094Y28414D02*
X35214D01*
X35154Y28354D02*
Y28474D01*
X35293Y28414D02*
X35413D01*
X35353Y28354D02*
Y28474D01*
X35418Y32121D02*
X35538D01*
X35478Y32061D02*
Y32181D01*
X35896Y34207D02*
X36016D01*
X35956Y34147D02*
Y34267D01*
X35741Y24263D02*
X35861D01*
X35801Y24203D02*
Y24323D01*
X35626Y24414D02*
X35746D01*
X35686Y24354D02*
Y24474D01*
X35818Y24415D02*
X35938D01*
X35878Y24355D02*
Y24475D01*
X37156Y23741D02*
X37276D01*
X37216Y23681D02*
Y23801D01*
X36452Y23488D02*
X36572D01*
X36512Y23428D02*
Y23548D01*
X36443Y23322D02*
X36563D01*
X36503Y23262D02*
Y23382D01*
X35853Y23512D02*
X35973D01*
X35913Y23452D02*
Y23572D01*
X35857Y23344D02*
X35977D01*
X35917Y23284D02*
Y23404D01*
X36328Y23144D02*
X36448D01*
X36388Y23084D02*
Y23204D01*
X36134Y23153D02*
X36254D01*
X36194Y23093D02*
Y23213D01*
X35938Y23155D02*
X36058D01*
X35998Y23095D02*
Y23215D01*
X42416Y34095D02*
X42536D01*
X42476Y34035D02*
Y34155D01*
X39369Y31341D02*
X39489D01*
X39429Y31281D02*
Y31401D01*
X41910Y34597D02*
X42030D01*
X41970Y34537D02*
Y34657D01*
X42588Y34750D02*
X42708D01*
X42648Y34690D02*
Y34810D01*
X42334Y34767D02*
X42454D01*
X42394Y34707D02*
Y34827D01*
X42148Y35013D02*
X42268D01*
X42208Y34953D02*
Y35073D01*
X41677Y35024D02*
X41797D01*
X41737Y34964D02*
Y35084D01*
X44913Y33607D02*
X45033D01*
X44973Y33547D02*
Y33667D01*
X44911Y33449D02*
X45031D01*
X44971Y33389D02*
Y33509D01*
X44913Y33255D02*
X45033D01*
X44973Y33195D02*
Y33315D01*
X44917Y33059D02*
X45037D01*
X44977Y32999D02*
Y33119D01*
X46554Y28489D02*
X46674D01*
X46614Y28429D02*
Y28549D01*
X46554Y28675D02*
X46674D01*
X46614Y28615D02*
Y28735D01*
X41736Y25875D02*
X41916D01*
X41826Y25785D02*
Y25965D01*
X42367Y25880D02*
X42547D01*
X42457Y25790D02*
Y25970D01*
X42057Y25877D02*
X42237D01*
X42147Y25787D02*
Y25967D01*
X39888Y25890D02*
X40068D01*
X39978Y25800D02*
Y25980D01*
X39586Y25885D02*
X39766D01*
X39676Y25795D02*
Y25975D01*
X39284Y25895D02*
X39464D01*
X39374Y25805D02*
Y25985D01*
X41422Y25877D02*
X41602D01*
X41512Y25787D02*
Y25967D01*
X39636Y29340D02*
X39756D01*
X39696Y29280D02*
Y29400D01*
X39538Y30161D02*
X39658D01*
X39598Y30101D02*
Y30221D01*
X41046Y29585D02*
X41166D01*
X41106Y29525D02*
Y29645D01*
X40193Y30538D02*
X40313D01*
X40253Y30478D02*
Y30598D01*
X40847Y29879D02*
X40967D01*
X40907Y29819D02*
Y29939D01*
X40198Y30849D02*
X40318D01*
X40258Y30789D02*
Y30909D01*
X41013Y24081D02*
X41133D01*
X41073Y24021D02*
Y24141D01*
X40803Y24061D02*
X40923D01*
X40863Y24001D02*
Y24121D01*
X40496Y24343D02*
X40616D01*
X40556Y24283D02*
Y24403D01*
X40245Y23915D02*
X40365D01*
X40305Y23855D02*
Y23975D01*
X40245Y24102D02*
X40365D01*
X40305Y24042D02*
Y24162D01*
X40025Y24298D02*
X40145D01*
X40085Y24238D02*
Y24358D01*
X39802Y24303D02*
X39922D01*
X39862Y24243D02*
Y24363D01*
X39573Y24302D02*
X39693D01*
X39633Y24242D02*
Y24362D01*
X40255Y24289D02*
X40375D01*
X40315Y24229D02*
Y24349D01*
X30780Y27415D02*
X30900D01*
X30840Y27355D02*
Y27475D01*
X30544Y27415D02*
X30664D01*
X30604Y27355D02*
Y27475D01*
X30318Y27412D02*
X30438D01*
X30378Y27352D02*
Y27472D01*
X30087Y27410D02*
X30207D01*
X30147Y27350D02*
Y27470D01*
X29397Y27410D02*
X29517D01*
X29457Y27350D02*
Y27470D01*
X29626Y27411D02*
X29746D01*
X29686Y27351D02*
Y27471D01*
X29849Y27406D02*
X29969D01*
X29909Y27346D02*
Y27466D01*
X42967Y35131D02*
X43087D01*
X43027Y35071D02*
Y35191D01*
X47926Y30545D02*
X48046D01*
X47986Y30485D02*
Y30605D01*
X45755Y30626D02*
X45875D01*
X45815Y30566D02*
Y30686D01*
X45318Y32541D02*
X45438D01*
X45378Y32481D02*
Y32601D01*
X46552Y28865D02*
X46672D01*
X46612Y28805D02*
Y28925D01*
X46580Y30553D02*
X46700D01*
X46640Y30493D02*
Y30613D01*
X45314Y31937D02*
X45434D01*
X45374Y31877D02*
Y31997D01*
X45528Y29757D02*
X45648D01*
X45588Y29697D02*
Y29817D01*
X41747Y28041D02*
X41867D01*
X41807Y27981D02*
Y28101D01*
X42032Y27892D02*
X42152D01*
X42092Y27832D02*
Y27952D01*
X47269Y24679D02*
X47389D01*
X47329Y24619D02*
Y24739D01*
X47088Y24674D02*
X47208D01*
X47148Y24614D02*
Y24734D01*
X46873Y24676D02*
X46993D01*
X46933Y24616D02*
Y24736D01*
X47441Y24674D02*
X47561D01*
X47501Y24614D02*
Y24734D01*
X37788Y30380D02*
X37908D01*
X37848Y30320D02*
Y30440D01*
X42681Y29677D02*
X42801D01*
X42741Y29617D02*
Y29737D01*
X42262Y29677D02*
X42382D01*
X42322Y29617D02*
Y29737D01*
X41829Y29663D02*
X41949D01*
X41889Y29603D02*
Y29723D01*
X37065Y31409D02*
X37185D01*
X37125Y31349D02*
Y31469D01*
X36775Y31392D02*
X36895D01*
X36835Y31332D02*
Y31452D01*
X41019Y33349D02*
X41139D01*
X41079Y33289D02*
Y33409D01*
X40833Y33573D02*
X40953D01*
X40893Y33513D02*
Y33633D01*
X41243Y33157D02*
X41363D01*
X41303Y33097D02*
Y33217D01*
X40860Y31467D02*
X40980D01*
X40920Y31407D02*
Y31527D01*
X41300Y31055D02*
X41420D01*
X41360Y30995D02*
Y31115D01*
X42600Y32001D02*
X42720D01*
X42660Y31941D02*
Y32061D01*
X38130Y28223D02*
X38250D01*
X38190Y28163D02*
Y28283D01*
X36739Y28026D02*
X36859D01*
X36799Y27966D02*
Y28086D01*
X36919Y28216D02*
X37039D01*
X36979Y28156D02*
Y28276D01*
X37904Y31429D02*
X38024D01*
X37964Y31369D02*
Y31489D01*
X38416Y30946D02*
X38536D01*
X38476Y30886D02*
Y31006D01*
X37650Y31259D02*
X37770D01*
X37710Y31199D02*
Y31319D01*
X44252Y33719D02*
X44372D01*
X44312Y33659D02*
Y33779D01*
X41961Y30581D02*
X42081D01*
X42021Y30521D02*
Y30641D01*
X36564Y35819D02*
X36684D01*
X36624Y35759D02*
Y35879D01*
X36927Y36041D02*
X37047D01*
X36987Y35981D02*
Y36101D01*
X37567Y36407D02*
X37687D01*
X37627Y36347D02*
Y36467D01*
X37523Y35437D02*
X37643D01*
X37583Y35377D02*
Y35497D01*
X47030Y25982D02*
X47150D01*
X47090Y25922D02*
Y26042D01*
X47294Y25759D02*
X47414D01*
X47354Y25699D02*
Y25819D01*
X43079Y31055D02*
X43199D01*
X43139Y30995D02*
Y31115D01*
X43083Y31273D02*
X43203D01*
X43143Y31213D02*
Y31333D01*
X44710Y26306D02*
X44830D01*
X44770Y26246D02*
Y26366D01*
X44735Y25342D02*
X44855D01*
X44795Y25282D02*
Y25402D01*
X43645Y23115D02*
X43765D01*
X43705Y23055D02*
Y23175D01*
X43639Y23295D02*
X43759D01*
X43699Y23235D02*
Y23355D01*
X43645Y23474D02*
X43765D01*
X43705Y23414D02*
Y23534D01*
X44826Y23137D02*
X44946D01*
X44886Y23077D02*
Y23197D01*
X48217Y34233D02*
X48337D01*
X48277Y34173D02*
Y34293D01*
X47657Y34232D02*
X47777D01*
X47717Y34172D02*
Y34292D01*
X36606Y32171D02*
X36726D01*
X36666Y32111D02*
Y32231D01*
X36432Y32373D02*
X36552D01*
X36492Y32313D02*
Y32433D01*
X39364Y30540D02*
X39484D01*
X39424Y30480D02*
Y30600D01*
X29962Y32462D02*
X30082D01*
X30022Y32402D02*
Y32522D01*
X32583Y31546D02*
X32703D01*
X32643Y31486D02*
Y31606D01*
X32572Y32173D02*
X32692D01*
X32632Y32113D02*
Y32233D01*
X32565Y33638D02*
X32685D01*
X32625Y33578D02*
Y33698D01*
X29397Y33355D02*
X29517D01*
X29457Y33295D02*
Y33415D01*
X27918Y32848D02*
X28038D01*
X27978Y32788D02*
Y32908D01*
X36511Y33726D02*
X36631D01*
X36571Y33666D02*
Y33786D01*
X37990Y30907D02*
X38110D01*
X38050Y30847D02*
Y30967D01*
X38558Y30674D02*
X38678D01*
X38618Y30614D02*
Y30734D01*
X39158Y24297D02*
X39278D01*
X39218Y24237D02*
Y24357D01*
X41872Y23682D02*
X41992D01*
X41932Y23622D02*
Y23742D01*
X43335Y24232D02*
X43455D01*
X43395Y24172D02*
Y24292D01*
X40996Y23437D02*
X41116D01*
X41056Y23377D02*
Y23497D01*
X40502Y23167D02*
X40622D01*
X40562Y23107D02*
Y23227D01*
X37722Y23729D02*
X37842D01*
X37782Y23669D02*
Y23789D01*
X35175Y23282D02*
X35295D01*
X35235Y23222D02*
Y23342D01*
X35313Y23492D02*
X35433D01*
X35373Y23432D02*
Y23552D01*
X34642Y23421D02*
X34762D01*
X34702Y23361D02*
Y23481D01*
X41467Y29580D02*
X41587D01*
X41527Y29520D02*
Y29640D01*
X41670Y29333D02*
X41790D01*
X41730Y29273D02*
Y29393D01*
X41474Y29875D02*
X41594D01*
X41534Y29815D02*
Y29935D01*
X44714Y34721D02*
X44834D01*
X44774Y34661D02*
Y34781D01*
X44807Y36497D02*
X44927D01*
X44867Y36437D02*
Y36557D01*
X44801Y35865D02*
X44921D01*
X44861Y35805D02*
Y35925D01*
X47273Y33577D02*
X47393D01*
X47333Y33517D02*
Y33637D01*
X46591Y33557D02*
X46711D01*
X46651Y33497D02*
Y33617D01*
X41148Y34617D02*
X41268D01*
X41208Y34557D02*
Y34677D01*
X41533Y34527D02*
X41653D01*
X41593Y34467D02*
Y34587D01*
X39002Y32918D02*
X39122D01*
X39062Y32858D02*
Y32978D01*
X39558Y32362D02*
X39678D01*
X39618Y32302D02*
Y32422D01*
X39280Y32640D02*
X39400D01*
X39340Y32580D02*
Y32700D01*
X39837Y32640D02*
X39957D01*
X39897Y32580D02*
Y32700D01*
X39280Y32083D02*
X39400D01*
X39340Y32023D02*
Y32143D01*
X39280Y33197D02*
X39400D01*
X39340Y33137D02*
Y33257D01*
X39558Y32918D02*
X39678D01*
X39618Y32858D02*
Y32978D01*
X38723Y32640D02*
X38843D01*
X38783Y32580D02*
Y32700D01*
X39002Y32362D02*
X39122D01*
X39062Y32302D02*
Y32422D01*
M02*
