G04*
G04 #@! TF.GenerationSoftware,Altium Limited,Altium Designer,20.0.13 (296)*
G04*
G04 Layer_Color=2752767*
%FSLAX24Y24*%
%MOIN*%
G70*
G01*
G75*
%ADD115C,0.0020*%
%ADD116C,0.0027*%
D115*
X31320Y23360D02*
Y23520D01*
X31480D01*
Y23360D01*
X31320D01*
Y23860D02*
Y24020D01*
X31480D01*
Y23860D01*
X31320D01*
X32820Y23360D02*
Y23520D01*
X32980D01*
Y23360D01*
X32820D01*
Y23860D02*
Y24020D01*
X32980D01*
Y23860D01*
X32820D01*
X32320Y23860D02*
Y24020D01*
X32480D01*
Y23860D01*
X32320D01*
Y23360D02*
Y23520D01*
X32480D01*
Y23360D01*
X32320D01*
X31820Y23860D02*
Y24020D01*
X31980D01*
Y23860D01*
X31820D01*
Y23360D02*
Y23520D01*
X31980D01*
Y23360D01*
X31820D01*
X47200Y23860D02*
Y24020D01*
X47360D01*
Y23860D01*
X47200D01*
Y23360D02*
Y23520D01*
X47360D01*
Y23360D01*
X47200D01*
X45700Y23860D02*
Y24020D01*
X45860D01*
Y23860D01*
X45700D01*
Y23360D02*
Y23520D01*
X45860D01*
Y23360D01*
X45700D01*
X46200Y23360D02*
Y23520D01*
X46360D01*
Y23360D01*
X46200D01*
Y23860D02*
Y24020D01*
X46360D01*
Y23860D01*
X46200D01*
X46700Y23360D02*
Y23520D01*
X46860D01*
Y23360D01*
X46700D01*
Y23860D02*
Y24020D01*
X46860D01*
Y23860D01*
X46700D01*
X45700Y35970D02*
Y36130D01*
X45860D01*
Y35970D01*
X45700D01*
Y36470D02*
Y36630D01*
X45860D01*
Y36470D01*
X45700D01*
X47200Y35970D02*
Y36130D01*
X47360D01*
Y35970D01*
X47200D01*
Y36470D02*
Y36630D01*
X47360D01*
Y36470D01*
X47200D01*
X46700Y36470D02*
Y36630D01*
X46860D01*
Y36470D01*
X46700D01*
Y35970D02*
Y36130D01*
X46860D01*
Y35970D01*
X46700D01*
X46200Y36470D02*
Y36630D01*
X46360D01*
Y36470D01*
X46200D01*
Y35970D02*
Y36130D01*
X46360D01*
Y35970D01*
X46200D01*
X44829Y24421D02*
Y24581D01*
X44989D01*
Y24421D01*
X44829D01*
X43961Y24405D02*
Y24565D01*
X44121D01*
Y24405D01*
X43961D01*
X34320Y31724D02*
X34240Y31884D01*
X34400D01*
X34320Y31724D01*
X33210Y33891D02*
X33130Y34051D01*
X33290D01*
X33210Y33891D01*
X32593Y34403D02*
X32513Y34563D01*
X32673D01*
X32593Y34403D01*
X29583Y25645D02*
X29623Y25685D01*
X29663D01*
X29623Y25725D01*
X29663Y25765D01*
X29623D01*
X29583Y25805D01*
X29543Y25765D01*
X29503D01*
X29543Y25725D01*
X29503Y25685D01*
X29543D01*
X29583Y25645D01*
X30465Y25462D02*
X30505Y25502D01*
X30545D01*
X30505Y25542D01*
X30545Y25582D01*
X30505D01*
X30465Y25622D01*
X30425Y25582D01*
X30385D01*
X30425Y25542D01*
X30385Y25502D01*
X30425D01*
X30465Y25462D01*
X30158Y25465D02*
X30198Y25505D01*
X30238D01*
X30198Y25545D01*
X30238Y25585D01*
X30198D01*
X30158Y25625D01*
X30118Y25585D01*
X30078D01*
X30118Y25545D01*
X30078Y25505D01*
X30118D01*
X30158Y25465D01*
X31072Y25656D02*
X31112Y25696D01*
X31152D01*
X31112Y25736D01*
X31152Y25776D01*
X31112D01*
X31072Y25816D01*
X31032Y25776D01*
X30992D01*
X31032Y25736D01*
X30992Y25696D01*
X31032D01*
X31072Y25656D01*
X29834Y25462D02*
X29874Y25502D01*
X29914D01*
X29874Y25542D01*
X29914Y25582D01*
X29874D01*
X29834Y25622D01*
X29794Y25582D01*
X29754D01*
X29794Y25542D01*
X29754Y25502D01*
X29794D01*
X29834Y25462D01*
X30810Y25478D02*
X30850Y25518D01*
X30890D01*
X30850Y25558D01*
X30890Y25598D01*
X30850D01*
X30810Y25638D01*
X30770Y25598D01*
X30730D01*
X30770Y25558D01*
X30730Y25518D01*
X30770D01*
X30810Y25478D01*
X31748Y32817D02*
X31668Y32977D01*
X31828D01*
X31748Y32817D01*
X32380Y32999D02*
X32300Y33159D01*
X32460D01*
X32380Y32999D01*
X34973Y34447D02*
X34893Y34607D01*
X35053D01*
X34973Y34447D01*
X34977Y32993D02*
X34897Y33153D01*
X35057D01*
X34977Y32993D01*
X35267Y32995D02*
X35187Y33155D01*
X35347D01*
X35267Y32995D01*
X35264Y33271D02*
X35184Y33431D01*
X35344D01*
X35264Y33271D01*
X36675Y32743D02*
X36595Y32903D01*
X36755D01*
X36675Y32743D01*
X34532Y33719D02*
X34452Y33879D01*
X34612D01*
X34532Y33719D01*
X40530Y34305D02*
X40450Y34465D01*
X40610D01*
X40530Y34305D01*
X39237Y35778D02*
X39157Y35938D01*
X39317D01*
X39237Y35778D01*
X39422Y36798D02*
X39342Y36958D01*
X39502D01*
X39422Y36798D01*
X39206Y35985D02*
X39126Y36145D01*
X39286D01*
X39206Y35985D01*
X38942Y36092D02*
X38862Y36252D01*
X39022D01*
X38942Y36092D01*
X38935Y35817D02*
X38855Y35977D01*
X39015D01*
X38935Y35817D01*
X38942Y36406D02*
X38862Y36566D01*
X39022D01*
X38942Y36406D01*
X40644Y36796D02*
X40564Y36956D01*
X40724D01*
X40644Y36796D01*
X40579Y35870D02*
X40499Y36030D01*
X40659D01*
X40579Y35870D01*
X41722Y36318D02*
X41642Y36478D01*
X41802D01*
X41722Y36318D01*
X41786Y35893D02*
X41706Y36053D01*
X41866D01*
X41786Y35893D01*
X41352Y36326D02*
X41272Y36486D01*
X41432D01*
X41352Y36326D01*
X41364Y35894D02*
X41284Y36054D01*
X41444D01*
X41364Y35894D01*
X41933Y36155D02*
X41853Y36315D01*
X42013D01*
X41933Y36155D01*
X41567Y36109D02*
X41487Y36269D01*
X41647D01*
X41567Y36109D01*
X40907Y35882D02*
X40827Y36042D01*
X40987D01*
X40907Y35882D01*
X41129Y36121D02*
X41049Y36281D01*
X41209D01*
X41129Y36121D01*
X41917Y36497D02*
X41837Y36657D01*
X41997D01*
X41917Y36497D01*
X41854Y37083D02*
X41774Y37243D01*
X41934D01*
X41854Y37083D01*
X41738Y36797D02*
X41658Y36957D01*
X41818D01*
X41738Y36797D01*
X41555Y36558D02*
X41475Y36718D01*
X41635D01*
X41555Y36558D01*
X41129Y36526D02*
X41049Y36686D01*
X41209D01*
X41129Y36526D01*
X41348Y36800D02*
X41268Y36960D01*
X41428D01*
X41348Y36800D01*
X40970Y36789D02*
X40890Y36949D01*
X41050D01*
X40970Y36789D01*
X41494Y37085D02*
X41414Y37245D01*
X41574D01*
X41494Y37085D01*
X40795Y37091D02*
X40715Y37251D01*
X40875D01*
X40795Y37091D01*
X41146Y37092D02*
X41066Y37252D01*
X41226D01*
X41146Y37092D01*
X38720Y35945D02*
X38640Y36105D01*
X38800D01*
X38720Y35945D01*
X38728Y36240D02*
X38648Y36400D01*
X38808D01*
X38728Y36240D01*
X38728Y36545D02*
X38648Y36705D01*
X38808D01*
X38728Y36545D01*
X38760Y37054D02*
X38680Y37214D01*
X38840D01*
X38760Y37054D01*
X39424Y37066D02*
X39344Y37226D01*
X39504D01*
X39424Y37066D01*
X39125Y37002D02*
X39045Y37162D01*
X39205D01*
X39125Y37002D01*
X39062Y35611D02*
X38982Y35771D01*
X39142D01*
X39062Y35611D01*
X38942Y36736D02*
X38862Y36896D01*
X39022D01*
X38942Y36736D01*
X47942Y31127D02*
X47862Y31287D01*
X48022D01*
X47942Y31127D01*
X48149Y31140D02*
X48069Y31300D01*
X48229D01*
X48149Y31140D01*
X47924Y32889D02*
X47844Y33049D01*
X48004D01*
X47924Y32889D01*
X48124D02*
X48044Y33049D01*
X48204D01*
X48124Y32889D01*
X49840Y29040D02*
X49760Y29200D01*
X49920D01*
X49840Y29040D01*
X49980Y28760D02*
X49900Y28920D01*
X50060D01*
X49980Y28760D01*
Y27640D02*
X49900Y27800D01*
X50060D01*
X49980Y27640D01*
X49560Y27360D02*
X49480Y27520D01*
X49640D01*
X49560Y27360D01*
X49280D02*
X49200Y27520D01*
X49360D01*
X49280Y27360D01*
X49420Y27080D02*
X49340Y27240D01*
X49500D01*
X49420Y27080D01*
X49000Y27360D02*
X48920Y27520D01*
X49080D01*
X49000Y27360D01*
X49140Y27080D02*
X49060Y27240D01*
X49220D01*
X49140Y27080D01*
X49000Y26800D02*
X48920Y26960D01*
X49080D01*
X49000Y26800D01*
X48720Y27360D02*
X48640Y27520D01*
X48800D01*
X48720Y27360D01*
X48860Y27080D02*
X48780Y27240D01*
X48940D01*
X48860Y27080D01*
X48720Y26800D02*
X48640Y26960D01*
X48800D01*
X48720Y26800D01*
X48860Y26520D02*
X48780Y26680D01*
X48940D01*
X48860Y26520D01*
X48440Y29600D02*
X48360Y29760D01*
X48520D01*
X48440Y29600D01*
X48580Y29320D02*
X48500Y29480D01*
X48660D01*
X48580Y29320D01*
X48440Y29040D02*
X48360Y29200D01*
X48520D01*
X48440Y29040D01*
Y27360D02*
X48360Y27520D01*
X48520D01*
X48440Y27360D01*
X48580Y27080D02*
X48500Y27240D01*
X48660D01*
X48580Y27080D01*
X48440Y26800D02*
X48360Y26960D01*
X48520D01*
X48440Y26800D01*
X48580Y26520D02*
X48500Y26680D01*
X48660D01*
X48580Y26520D01*
X48440Y26240D02*
X48360Y26400D01*
X48520D01*
X48440Y26240D01*
X48300Y29320D02*
X48220Y29480D01*
X48380D01*
X48300Y29320D01*
X48160Y29040D02*
X48080Y29200D01*
X48240D01*
X48160Y29040D01*
Y27920D02*
X48080Y28080D01*
X48240D01*
X48160Y27920D01*
X48300Y27640D02*
X48220Y27800D01*
X48380D01*
X48300Y27640D01*
X48160Y27360D02*
X48080Y27520D01*
X48240D01*
X48160Y27360D01*
X48300Y27080D02*
X48220Y27240D01*
X48380D01*
X48300Y27080D01*
X48160Y26800D02*
X48080Y26960D01*
X48240D01*
X48160Y26800D01*
X48300Y26520D02*
X48220Y26680D01*
X48380D01*
X48300Y26520D01*
X48160Y26240D02*
X48080Y26400D01*
X48240D01*
X48160Y26240D01*
X48300Y25960D02*
X48220Y26120D01*
X48380D01*
X48300Y25960D01*
X48020Y29320D02*
X47940Y29480D01*
X48100D01*
X48020Y29320D01*
Y28760D02*
X47940Y28920D01*
X48100D01*
X48020Y28760D01*
Y28200D02*
X47940Y28360D01*
X48100D01*
X48020Y28200D01*
Y27640D02*
X47940Y27800D01*
X48100D01*
X48020Y27640D01*
Y27080D02*
X47940Y27240D01*
X48100D01*
X48020Y27080D01*
Y26520D02*
X47940Y26680D01*
X48100D01*
X48020Y26520D01*
Y25960D02*
X47940Y26120D01*
X48100D01*
X48020Y25960D01*
X30940Y26520D02*
X30860Y26680D01*
X31020D01*
X30940Y26520D01*
X30800Y25120D02*
X30720Y25280D01*
X30880D01*
X30800Y25120D01*
X30940Y24840D02*
X30860Y25000D01*
X31020D01*
X30940Y24840D01*
X30800Y24560D02*
X30720Y24720D01*
X30880D01*
X30800Y24560D01*
X30940Y24280D02*
X30860Y24440D01*
X31020D01*
X30940Y24280D01*
X30800Y24000D02*
X30720Y24160D01*
X30880D01*
X30800Y24000D01*
X30940Y23720D02*
X30860Y23880D01*
X31020D01*
X30940Y23720D01*
X30800Y23440D02*
X30720Y23600D01*
X30880D01*
X30800Y23440D01*
X30940Y23160D02*
X30860Y23320D01*
X31020D01*
X30940Y23160D01*
X30660Y26520D02*
X30580Y26680D01*
X30740D01*
X30660Y26520D01*
Y24840D02*
X30580Y25000D01*
X30740D01*
X30660Y24840D01*
Y24280D02*
X30580Y24440D01*
X30740D01*
X30660Y24280D01*
Y23720D02*
X30580Y23880D01*
X30740D01*
X30660Y23720D01*
X30380Y26520D02*
X30300Y26680D01*
X30460D01*
X30380Y26520D01*
X30100D02*
X30020Y26680D01*
X30180D01*
X30100Y26520D01*
X29960Y22880D02*
X29880Y23040D01*
X30040D01*
X29960Y22880D01*
X29820Y26520D02*
X29740Y26680D01*
X29900D01*
X29820Y26520D01*
X29680Y25120D02*
X29600Y25280D01*
X29760D01*
X29680Y25120D01*
X29820Y24840D02*
X29740Y25000D01*
X29900D01*
X29820Y24840D01*
X29680Y24560D02*
X29600Y24720D01*
X29760D01*
X29680Y24560D01*
X29820Y24280D02*
X29740Y24440D01*
X29900D01*
X29820Y24280D01*
X29680Y24000D02*
X29600Y24160D01*
X29760D01*
X29680Y24000D01*
X29820Y23720D02*
X29740Y23880D01*
X29900D01*
X29820Y23720D01*
X29680Y23440D02*
X29600Y23600D01*
X29760D01*
X29680Y23440D01*
X29820Y23160D02*
X29740Y23320D01*
X29900D01*
X29820Y23160D01*
X29680Y22880D02*
X29600Y23040D01*
X29760D01*
X29680Y22880D01*
X29540Y26520D02*
X29460Y26680D01*
X29620D01*
X29540Y26520D01*
X29400Y25120D02*
X29320Y25280D01*
X29480D01*
X29400Y25120D01*
X29540Y24840D02*
X29460Y25000D01*
X29620D01*
X29540Y24840D01*
X29400Y24560D02*
X29320Y24720D01*
X29480D01*
X29400Y24560D01*
X29540Y24280D02*
X29460Y24440D01*
X29620D01*
X29540Y24280D01*
X29400Y24000D02*
X29320Y24160D01*
X29480D01*
X29400Y24000D01*
X29540Y23720D02*
X29460Y23880D01*
X29620D01*
X29540Y23720D01*
X29400Y23440D02*
X29320Y23600D01*
X29480D01*
X29400Y23440D01*
X29540Y23160D02*
X29460Y23320D01*
X29620D01*
X29540Y23160D01*
X29400Y22880D02*
X29320Y23040D01*
X29480D01*
X29400Y22880D01*
X29120Y26800D02*
X29040Y26960D01*
X29200D01*
X29120Y26800D01*
X29260Y26520D02*
X29180Y26680D01*
X29340D01*
X29260Y26520D01*
X29120Y26240D02*
X29040Y26400D01*
X29200D01*
X29120Y26240D01*
Y25680D02*
X29040Y25840D01*
X29200D01*
X29120Y25680D01*
Y25120D02*
X29040Y25280D01*
X29200D01*
X29120Y25120D01*
Y24000D02*
X29040Y24160D01*
X29200D01*
X29120Y24000D01*
X29260Y23720D02*
X29180Y23880D01*
X29340D01*
X29260Y23720D01*
X29120Y23440D02*
X29040Y23600D01*
X29200D01*
X29120Y23440D01*
X29260Y23160D02*
X29180Y23320D01*
X29340D01*
X29260Y23160D01*
X29120Y22880D02*
X29040Y23040D01*
X29200D01*
X29120Y22880D01*
X28980Y27080D02*
X28900Y27240D01*
X29060D01*
X28980Y27080D01*
X28840Y26800D02*
X28760Y26960D01*
X28920D01*
X28840Y26800D01*
X28980Y26520D02*
X28900Y26680D01*
X29060D01*
X28980Y26520D01*
X28840Y26240D02*
X28760Y26400D01*
X28920D01*
X28840Y26240D01*
X28980Y25960D02*
X28900Y26120D01*
X29060D01*
X28980Y25960D01*
X28840Y25680D02*
X28760Y25840D01*
X28920D01*
X28840Y25680D01*
X28980Y25400D02*
X28900Y25560D01*
X29060D01*
X28980Y25400D01*
X28840Y25120D02*
X28760Y25280D01*
X28920D01*
X28840Y25120D01*
Y24000D02*
X28760Y24160D01*
X28920D01*
X28840Y24000D01*
X28980Y23720D02*
X28900Y23880D01*
X29060D01*
X28980Y23720D01*
X28840Y23440D02*
X28760Y23600D01*
X28920D01*
X28840Y23440D01*
X28980Y23160D02*
X28900Y23320D01*
X29060D01*
X28980Y23160D01*
X28840Y22880D02*
X28760Y23040D01*
X28920D01*
X28840Y22880D01*
X28700Y27080D02*
X28620Y27240D01*
X28780D01*
X28700Y27080D01*
X28560Y26800D02*
X28480Y26960D01*
X28640D01*
X28560Y26800D01*
X28700Y26520D02*
X28620Y26680D01*
X28780D01*
X28700Y26520D01*
X28560Y26240D02*
X28480Y26400D01*
X28640D01*
X28560Y26240D01*
X28700Y25960D02*
X28620Y26120D01*
X28780D01*
X28700Y25960D01*
X28560Y25680D02*
X28480Y25840D01*
X28640D01*
X28560Y25680D01*
X28700Y25400D02*
X28620Y25560D01*
X28780D01*
X28700Y25400D01*
X28560Y25120D02*
X28480Y25280D01*
X28640D01*
X28560Y25120D01*
Y24000D02*
X28480Y24160D01*
X28640D01*
X28560Y24000D01*
X28700Y23720D02*
X28620Y23880D01*
X28780D01*
X28700Y23720D01*
X28560Y23440D02*
X28480Y23600D01*
X28640D01*
X28560Y23440D01*
X28700Y23160D02*
X28620Y23320D01*
X28780D01*
X28700Y23160D01*
X28560Y22880D02*
X28480Y23040D01*
X28640D01*
X28560Y22880D01*
X28420Y27080D02*
X28340Y27240D01*
X28500D01*
X28420Y27080D01*
X28280Y26800D02*
X28200Y26960D01*
X28360D01*
X28280Y26800D01*
X28420Y26520D02*
X28340Y26680D01*
X28500D01*
X28420Y26520D01*
X28280Y26240D02*
X28200Y26400D01*
X28360D01*
X28280Y26240D01*
X28420Y25960D02*
X28340Y26120D01*
X28500D01*
X28420Y25960D01*
X28280Y25680D02*
X28200Y25840D01*
X28360D01*
X28280Y25680D01*
X28420Y25400D02*
X28340Y25560D01*
X28500D01*
X28420Y25400D01*
X28280Y25120D02*
X28200Y25280D01*
X28360D01*
X28280Y25120D01*
Y24000D02*
X28200Y24160D01*
X28360D01*
X28280Y24000D01*
X28420Y23720D02*
X28340Y23880D01*
X28500D01*
X28420Y23720D01*
X28280Y23440D02*
X28200Y23600D01*
X28360D01*
X28280Y23440D01*
X28420Y23160D02*
X28340Y23320D01*
X28500D01*
X28420Y23160D01*
X28280Y22880D02*
X28200Y23040D01*
X28360D01*
X28280Y22880D01*
X28140Y27080D02*
X28060Y27240D01*
X28220D01*
X28140Y27080D01*
X28000Y26800D02*
X27920Y26960D01*
X28080D01*
X28000Y26800D01*
X28140Y26520D02*
X28060Y26680D01*
X28220D01*
X28140Y26520D01*
X28000Y26240D02*
X27920Y26400D01*
X28080D01*
X28000Y26240D01*
X28140Y25960D02*
X28060Y26120D01*
X28220D01*
X28140Y25960D01*
X28000Y25680D02*
X27920Y25840D01*
X28080D01*
X28000Y25680D01*
X28140Y25400D02*
X28060Y25560D01*
X28220D01*
X28140Y25400D01*
X28000Y25120D02*
X27920Y25280D01*
X28080D01*
X28000Y25120D01*
Y24000D02*
X27920Y24160D01*
X28080D01*
X28000Y24000D01*
X28140Y23720D02*
X28060Y23880D01*
X28220D01*
X28140Y23720D01*
X28000Y23440D02*
X27920Y23600D01*
X28080D01*
X28000Y23440D01*
X28140Y23160D02*
X28060Y23320D01*
X28220D01*
X28140Y23160D01*
X28000Y22880D02*
X27920Y23040D01*
X28080D01*
X28000Y22880D01*
X27860Y27080D02*
X27780Y27240D01*
X27940D01*
X27860Y27080D01*
Y26520D02*
X27780Y26680D01*
X27940D01*
X27860Y26520D01*
Y25960D02*
X27780Y26120D01*
X27940D01*
X27860Y25960D01*
Y25400D02*
X27780Y25560D01*
X27940D01*
X27860Y25400D01*
Y23720D02*
X27780Y23880D01*
X27940D01*
X27860Y23720D01*
Y23160D02*
X27780Y23320D01*
X27940D01*
X27860Y23160D01*
X47954Y25571D02*
X47874Y25731D01*
X48034D01*
X47954Y25571D01*
X45640Y27080D02*
X45560Y27240D01*
X45720D01*
X45640Y27080D01*
X39161Y34508D02*
X39081Y34668D01*
X39241D01*
X39161Y34508D01*
X38937Y34673D02*
X38857Y34833D01*
X39017D01*
X38937Y34673D01*
X38271Y34903D02*
X38191Y35063D01*
X38351D01*
X38271Y34903D01*
X40181Y34575D02*
X40101Y34735D01*
X40261D01*
X40181Y34575D01*
X40213Y34279D02*
X40133Y34439D01*
X40293D01*
X40213Y34279D01*
X29616Y31600D02*
X29536Y31760D01*
X29696D01*
X29616Y31600D01*
X33403Y24283D02*
X33323Y24443D01*
X33483D01*
X33403Y24283D01*
X33403Y24944D02*
X33323Y25104D01*
X33483D01*
X33403Y24944D01*
X33797Y24306D02*
X33717Y24466D01*
X33877D01*
X33797Y24306D01*
X35070Y23779D02*
X34990Y23939D01*
X35150D01*
X35070Y23779D01*
X34548Y23771D02*
X34468Y23931D01*
X34628D01*
X34548Y23771D01*
X32083Y28748D02*
X32003Y28908D01*
X32163D01*
X32083Y28748D01*
X43195Y35054D02*
X43115Y35214D01*
X43275D01*
X43195Y35054D01*
X43870Y35552D02*
X43910Y35592D01*
X43950D01*
X43910Y35632D01*
X43950Y35672D01*
X43910D01*
X43870Y35712D01*
X43830Y35672D01*
X43790D01*
X43830Y35632D01*
X43790Y35592D01*
X43830D01*
X43870Y35552D01*
X43614Y36410D02*
X43654Y36450D01*
X43694D01*
X43654Y36490D01*
X43694Y36530D01*
X43654D01*
X43614Y36570D01*
X43574Y36530D01*
X43534D01*
X43574Y36490D01*
X43534Y36450D01*
X43574D01*
X43614Y36410D01*
X47324Y30947D02*
X47244Y31107D01*
X47404D01*
X47324Y30947D01*
X32397Y27006D02*
X32317Y27166D01*
X32477D01*
X32397Y27006D01*
X34346Y30115D02*
X34266Y30275D01*
X34426D01*
X34346Y30115D01*
X33497Y30123D02*
X33417Y30283D01*
X33577D01*
X33497Y30123D01*
X33401Y30658D02*
X33321Y30818D01*
X33481D01*
X33401Y30658D01*
X32409Y30176D02*
X32329Y30336D01*
X32489D01*
X32409Y30176D01*
X32647Y30173D02*
X32567Y30333D01*
X32727D01*
X32647Y30173D01*
X31725Y30939D02*
X31645Y31099D01*
X31805D01*
X31725Y30939D01*
X31044Y27330D02*
X30964Y27490D01*
X31124D01*
X31044Y27330D01*
X31731Y29838D02*
X31651Y29998D01*
X31811D01*
X31731Y29838D01*
X42523Y36789D02*
X42443Y36949D01*
X42603D01*
X42523Y36789D01*
X42193Y36256D02*
X42113Y36416D01*
X42273D01*
X42193Y36256D01*
X42195Y36507D02*
X42115Y36667D01*
X42275D01*
X42195Y36507D01*
X42188Y36796D02*
X42108Y36956D01*
X42268D01*
X42188Y36796D01*
X42852Y37081D02*
X42772Y37241D01*
X42932D01*
X42852Y37081D01*
X42528Y37083D02*
X42448Y37243D01*
X42608D01*
X42528Y37083D01*
X42180D02*
X42100Y37243D01*
X42260D01*
X42180Y37083D01*
X38234Y36859D02*
X38154Y37019D01*
X38314D01*
X38234Y36859D01*
X38465Y36613D02*
X38385Y36773D01*
X38545D01*
X38465Y36613D01*
Y36859D02*
X38385Y37019D01*
X38545D01*
X38465Y36859D01*
X38467Y37083D02*
X38387Y37243D01*
X38547D01*
X38467Y37083D01*
X38237Y37079D02*
X38157Y37239D01*
X38317D01*
X38237Y37079D01*
X37990Y37088D02*
X37910Y37248D01*
X38070D01*
X37990Y37088D01*
X38307Y35486D02*
X38227Y35646D01*
X38387D01*
X38307Y35486D01*
X38179Y35233D02*
X38099Y35393D01*
X38259D01*
X38179Y35233D01*
X37072Y23105D02*
X36992Y23265D01*
X37152D01*
X37072Y23105D01*
X36873D02*
X36793Y23265D01*
X36953D01*
X36873Y23105D01*
X37039Y23506D02*
X36959Y23666D01*
X37119D01*
X37039Y23506D01*
X36866Y23502D02*
X36786Y23662D01*
X36946D01*
X36866Y23502D01*
X41737Y35146D02*
X41657Y35306D01*
X41817D01*
X41737Y35146D01*
X38620Y35392D02*
X38540Y35552D01*
X38700D01*
X38620Y35392D01*
X42573Y36013D02*
X42493Y36173D01*
X42653D01*
X42573Y36013D01*
X42359Y35801D02*
X42279Y35961D01*
X42439D01*
X42359Y35801D01*
X42907Y35595D02*
X42827Y35755D01*
X42987D01*
X42907Y35595D01*
X46206Y27879D02*
X46126Y28039D01*
X46286D01*
X46206Y27879D01*
X33120Y26985D02*
X33040Y27145D01*
X33200D01*
X33120Y26985D01*
X33518Y27115D02*
X33438Y27275D01*
X33598D01*
X33518Y27115D01*
X35616Y35660D02*
X35536Y35820D01*
X35696D01*
X35616Y35660D01*
X35780Y35470D02*
X35700Y35630D01*
X35860D01*
X35780Y35470D01*
X36781Y35911D02*
X36701Y36071D01*
X36861D01*
X36781Y35911D01*
X36696Y33930D02*
X36616Y34090D01*
X36776D01*
X36696Y33930D01*
X35301Y34759D02*
X35221Y34919D01*
X35381D01*
X35301Y34759D01*
X37191Y34054D02*
X37111Y34214D01*
X37271D01*
X37191Y34054D01*
X38232Y32872D02*
X38152Y33032D01*
X38312D01*
X38232Y32872D01*
X44314Y32304D02*
X44234Y32464D01*
X44394D01*
X44314Y32304D01*
X39077Y25816D02*
X39117Y25856D01*
X39157D01*
X39117Y25896D01*
X39157Y25936D01*
X39117D01*
X39077Y25976D01*
X39037Y25936D01*
X38997D01*
X39037Y25896D01*
X38997Y25856D01*
X39037D01*
X39077Y25816D01*
X37117Y32320D02*
X37037Y32480D01*
X37197D01*
X37117Y32320D01*
X36863Y31918D02*
X36783Y32078D01*
X36943D01*
X36863Y31918D01*
X37416Y31479D02*
X37336Y31639D01*
X37496D01*
X37416Y31479D01*
X35687Y32302D02*
X35607Y32462D01*
X35767D01*
X35687Y32302D01*
X38356Y32150D02*
X38276Y32310D01*
X38436D01*
X38356Y32150D01*
X37701Y31605D02*
X37621Y31765D01*
X37781D01*
X37701Y31605D01*
X43134Y33861D02*
X43054Y34021D01*
X43214D01*
X43134Y33861D01*
X42968D02*
X42888Y34021D01*
X43048D01*
X42968Y33861D01*
X42038Y31933D02*
X41958Y32093D01*
X42118D01*
X42038Y31933D01*
X42218Y31996D02*
X42138Y32156D01*
X42298D01*
X42218Y31996D01*
X42942Y34072D02*
X42862Y34232D01*
X43022D01*
X42942Y34072D01*
X42037Y32638D02*
X41957Y32798D01*
X42117D01*
X42037Y32638D01*
X41329Y32569D02*
X41249Y32729D01*
X41409D01*
X41329Y32569D01*
X40492Y32286D02*
X40412Y32446D01*
X40572D01*
X40492Y32286D01*
X42971Y31833D02*
X42891Y31993D01*
X43051D01*
X42971Y31833D01*
X33835Y27846D02*
X33755Y28006D01*
X33915D01*
X33835Y27846D01*
X42292Y34357D02*
X42212Y34517D01*
X42372D01*
X42292Y34357D01*
X42306Y34152D02*
X42226Y34312D01*
X42386D01*
X42306Y34152D01*
X41437Y33693D02*
X41357Y33853D01*
X41517D01*
X41437Y33693D01*
X41730Y33413D02*
X41650Y33573D01*
X41810D01*
X41730Y33413D01*
X33325Y27423D02*
X33245Y27583D01*
X33405D01*
X33325Y27423D01*
X42180Y33846D02*
X42100Y34006D01*
X42260D01*
X42180Y33846D01*
X41881Y34144D02*
X41801Y34304D01*
X41961D01*
X41881Y34144D01*
X41135Y34181D02*
X41055Y34341D01*
X41215D01*
X41135Y34181D01*
X43173Y31385D02*
X43093Y31545D01*
X43253D01*
X43173Y31385D01*
X37175Y33209D02*
X37095Y33369D01*
X37255D01*
X37175Y33209D01*
X37183Y33629D02*
X37103Y33789D01*
X37263D01*
X37183Y33629D01*
X42460Y30181D02*
X42380Y30341D01*
X42540D01*
X42460Y30181D01*
X42288Y30178D02*
X42208Y30338D01*
X42368D01*
X42288Y30178D01*
X42650Y30184D02*
X42570Y30344D01*
X42730D01*
X42650Y30184D01*
X35317Y26670D02*
X35357Y26710D01*
X35397D01*
X35357Y26750D01*
X35397Y26790D01*
X35357D01*
X35317Y26830D01*
X35277Y26790D01*
X35237D01*
X35277Y26750D01*
X35237Y26710D01*
X35277D01*
X35317Y26670D01*
X35125Y26895D02*
X35165Y26935D01*
X35205D01*
X35165Y26975D01*
X35205Y27015D01*
X35165D01*
X35125Y27055D01*
X35085Y27015D01*
X35045D01*
X35085Y26975D01*
X35045Y26935D01*
X35085D01*
X35125Y26895D01*
X34917Y27087D02*
X34957Y27127D01*
X34997D01*
X34957Y27167D01*
X34997Y27207D01*
X34957D01*
X34917Y27247D01*
X34877Y27207D01*
X34837D01*
X34877Y27167D01*
X34837Y27127D01*
X34877D01*
X34917Y27087D01*
X34696Y27272D02*
X34736Y27312D01*
X34776D01*
X34736Y27352D01*
X34776Y27392D01*
X34736D01*
X34696Y27432D01*
X34656Y27392D01*
X34616D01*
X34656Y27352D01*
X34616Y27312D01*
X34656D01*
X34696Y27272D01*
X34940Y27923D02*
X34860Y28083D01*
X35020D01*
X34940Y27923D01*
X34937Y28122D02*
X34857Y28282D01*
X35017D01*
X34937Y28122D01*
X34941Y28329D02*
X34861Y28489D01*
X35021D01*
X34941Y28329D01*
X35134Y27927D02*
X35054Y28087D01*
X35214D01*
X35134Y27927D01*
X35320Y27923D02*
X35240Y28083D01*
X35400D01*
X35320Y27923D01*
X42216Y35132D02*
X42136Y35292D01*
X42296D01*
X42216Y35132D01*
X36690Y33369D02*
X36610Y33529D01*
X36770D01*
X36690Y33369D01*
X37841Y36107D02*
X37761Y36267D01*
X37921D01*
X37841Y36107D01*
X35163Y28131D02*
X35083Y28291D01*
X35243D01*
X35163Y28131D01*
X35364Y28125D02*
X35284Y28285D01*
X35444D01*
X35364Y28125D01*
X35154Y28334D02*
X35074Y28494D01*
X35234D01*
X35154Y28334D01*
X35353D02*
X35273Y28494D01*
X35433D01*
X35353Y28334D01*
X35478Y32041D02*
X35398Y32201D01*
X35558D01*
X35478Y32041D01*
X35956Y34127D02*
X35876Y34287D01*
X36036D01*
X35956Y34127D01*
X35801Y24183D02*
X35721Y24343D01*
X35881D01*
X35801Y24183D01*
X35686Y24334D02*
X35606Y24494D01*
X35766D01*
X35686Y24334D01*
X35878Y24335D02*
X35798Y24495D01*
X35958D01*
X35878Y24335D01*
X37216Y23661D02*
X37136Y23821D01*
X37296D01*
X37216Y23661D01*
X36512Y23408D02*
X36432Y23568D01*
X36592D01*
X36512Y23408D01*
X36503Y23242D02*
X36423Y23402D01*
X36583D01*
X36503Y23242D01*
X35913Y23432D02*
X35833Y23592D01*
X35993D01*
X35913Y23432D01*
X35917Y23264D02*
X35837Y23424D01*
X35997D01*
X35917Y23264D01*
X36388Y23064D02*
X36308Y23224D01*
X36468D01*
X36388Y23064D01*
X36194Y23073D02*
X36114Y23233D01*
X36274D01*
X36194Y23073D01*
X35998Y23075D02*
X35918Y23235D01*
X36078D01*
X35998Y23075D01*
X42476Y34015D02*
X42396Y34175D01*
X42556D01*
X42476Y34015D01*
X39429Y31261D02*
X39349Y31421D01*
X39509D01*
X39429Y31261D01*
X41970Y34517D02*
X41890Y34677D01*
X42050D01*
X41970Y34517D01*
X42648Y34670D02*
X42568Y34830D01*
X42728D01*
X42648Y34670D01*
X42394Y34687D02*
X42314Y34847D01*
X42474D01*
X42394Y34687D01*
X42208Y34933D02*
X42128Y35093D01*
X42288D01*
X42208Y34933D01*
X41737Y34944D02*
X41657Y35104D01*
X41817D01*
X41737Y34944D01*
X44973Y33527D02*
X44893Y33687D01*
X45053D01*
X44973Y33527D01*
X44971Y33369D02*
X44891Y33529D01*
X45051D01*
X44971Y33369D01*
X44973Y33175D02*
X44893Y33335D01*
X45053D01*
X44973Y33175D01*
X44977Y32979D02*
X44897Y33139D01*
X45057D01*
X44977Y32979D01*
X46614Y28409D02*
X46534Y28569D01*
X46694D01*
X46614Y28409D01*
Y28595D02*
X46534Y28755D01*
X46694D01*
X46614Y28595D01*
X41826Y25795D02*
X41866Y25835D01*
X41906D01*
X41866Y25875D01*
X41906Y25915D01*
X41866D01*
X41826Y25955D01*
X41786Y25915D01*
X41746D01*
X41786Y25875D01*
X41746Y25835D01*
X41786D01*
X41826Y25795D01*
X42457Y25800D02*
X42497Y25840D01*
X42537D01*
X42497Y25880D01*
X42537Y25920D01*
X42497D01*
X42457Y25960D01*
X42417Y25920D01*
X42377D01*
X42417Y25880D01*
X42377Y25840D01*
X42417D01*
X42457Y25800D01*
X42147Y25797D02*
X42187Y25837D01*
X42227D01*
X42187Y25877D01*
X42227Y25917D01*
X42187D01*
X42147Y25957D01*
X42107Y25917D01*
X42067D01*
X42107Y25877D01*
X42067Y25837D01*
X42107D01*
X42147Y25797D01*
X39978Y25810D02*
X40018Y25850D01*
X40058D01*
X40018Y25890D01*
X40058Y25930D01*
X40018D01*
X39978Y25970D01*
X39938Y25930D01*
X39898D01*
X39938Y25890D01*
X39898Y25850D01*
X39938D01*
X39978Y25810D01*
X39676Y25805D02*
X39716Y25845D01*
X39756D01*
X39716Y25885D01*
X39756Y25925D01*
X39716D01*
X39676Y25965D01*
X39636Y25925D01*
X39596D01*
X39636Y25885D01*
X39596Y25845D01*
X39636D01*
X39676Y25805D01*
X39374Y25815D02*
X39414Y25855D01*
X39454D01*
X39414Y25895D01*
X39454Y25935D01*
X39414D01*
X39374Y25975D01*
X39334Y25935D01*
X39294D01*
X39334Y25895D01*
X39294Y25855D01*
X39334D01*
X39374Y25815D01*
X41512Y25797D02*
X41552Y25837D01*
X41592D01*
X41552Y25877D01*
X41592Y25917D01*
X41552D01*
X41512Y25957D01*
X41472Y25917D01*
X41432D01*
X41472Y25877D01*
X41432Y25837D01*
X41472D01*
X41512Y25797D01*
X39696Y29260D02*
X39616Y29420D01*
X39776D01*
X39696Y29260D01*
X39598Y30081D02*
X39518Y30241D01*
X39678D01*
X39598Y30081D01*
X41106Y29505D02*
X41026Y29665D01*
X41186D01*
X41106Y29505D01*
X40253Y30458D02*
X40173Y30618D01*
X40333D01*
X40253Y30458D01*
X40907Y29799D02*
X40827Y29959D01*
X40987D01*
X40907Y29799D01*
X40258Y30769D02*
X40178Y30929D01*
X40338D01*
X40258Y30769D01*
X41073Y24001D02*
X40993Y24161D01*
X41153D01*
X41073Y24001D01*
X40863Y23981D02*
X40783Y24141D01*
X40943D01*
X40863Y23981D01*
X40556Y24263D02*
X40476Y24423D01*
X40636D01*
X40556Y24263D01*
X40305Y23835D02*
X40225Y23995D01*
X40385D01*
X40305Y23835D01*
Y24022D02*
X40225Y24182D01*
X40385D01*
X40305Y24022D01*
X40085Y24218D02*
X40005Y24378D01*
X40165D01*
X40085Y24218D01*
X39862Y24223D02*
X39782Y24383D01*
X39942D01*
X39862Y24223D01*
X39633Y24222D02*
X39553Y24382D01*
X39713D01*
X39633Y24222D01*
X40315Y24209D02*
X40235Y24369D01*
X40395D01*
X40315Y24209D01*
X30840Y27335D02*
X30760Y27495D01*
X30920D01*
X30840Y27335D01*
X30604D02*
X30524Y27495D01*
X30684D01*
X30604Y27335D01*
X30378Y27332D02*
X30298Y27492D01*
X30458D01*
X30378Y27332D01*
X30147Y27330D02*
X30067Y27490D01*
X30227D01*
X30147Y27330D01*
X29457D02*
X29377Y27490D01*
X29537D01*
X29457Y27330D01*
X29686Y27331D02*
X29606Y27491D01*
X29766D01*
X29686Y27331D01*
X29909Y27326D02*
X29829Y27486D01*
X29989D01*
X29909Y27326D01*
X43027Y35051D02*
X42947Y35211D01*
X43107D01*
X43027Y35051D01*
X47986Y30465D02*
X47906Y30625D01*
X48066D01*
X47986Y30465D01*
X45815Y30546D02*
X45735Y30706D01*
X45895D01*
X45815Y30546D01*
X45378Y32461D02*
X45298Y32621D01*
X45458D01*
X45378Y32461D01*
X46612Y28785D02*
X46532Y28945D01*
X46692D01*
X46612Y28785D01*
X46640Y30473D02*
X46560Y30633D01*
X46720D01*
X46640Y30473D01*
X45374Y31857D02*
X45294Y32017D01*
X45454D01*
X45374Y31857D01*
X45588Y29677D02*
X45508Y29837D01*
X45668D01*
X45588Y29677D01*
X41807Y27961D02*
X41727Y28121D01*
X41887D01*
X41807Y27961D01*
X42092Y27812D02*
X42012Y27972D01*
X42172D01*
X42092Y27812D01*
X47329Y24599D02*
X47249Y24759D01*
X47409D01*
X47329Y24599D01*
X47148Y24594D02*
X47068Y24754D01*
X47228D01*
X47148Y24594D01*
X46933Y24596D02*
X46853Y24756D01*
X47013D01*
X46933Y24596D01*
X47501Y24594D02*
X47421Y24754D01*
X47581D01*
X47501Y24594D01*
X37848Y30300D02*
X37768Y30460D01*
X37928D01*
X37848Y30300D01*
X42741Y29597D02*
X42661Y29757D01*
X42821D01*
X42741Y29597D01*
X42322D02*
X42242Y29757D01*
X42402D01*
X42322Y29597D01*
X41889Y29583D02*
X41809Y29743D01*
X41969D01*
X41889Y29583D01*
X37125Y31329D02*
X37045Y31489D01*
X37205D01*
X37125Y31329D01*
X36835Y31312D02*
X36755Y31472D01*
X36915D01*
X36835Y31312D01*
X41079Y33269D02*
X40999Y33429D01*
X41159D01*
X41079Y33269D01*
X40893Y33493D02*
X40813Y33653D01*
X40973D01*
X40893Y33493D01*
X41303Y33077D02*
X41223Y33237D01*
X41383D01*
X41303Y33077D01*
X40920Y31387D02*
X40840Y31547D01*
X41000D01*
X40920Y31387D01*
X41360Y30975D02*
X41280Y31135D01*
X41440D01*
X41360Y30975D01*
X42660Y31921D02*
X42580Y32081D01*
X42740D01*
X42660Y31921D01*
X38190Y28143D02*
X38110Y28303D01*
X38270D01*
X38190Y28143D01*
X36799Y27946D02*
X36719Y28106D01*
X36879D01*
X36799Y27946D01*
X36979Y28136D02*
X36899Y28296D01*
X37059D01*
X36979Y28136D01*
X37964Y31349D02*
X37884Y31509D01*
X38044D01*
X37964Y31349D01*
X38476Y30866D02*
X38396Y31026D01*
X38556D01*
X38476Y30866D01*
X37710Y31179D02*
X37630Y31339D01*
X37790D01*
X37710Y31179D01*
X44312Y33639D02*
X44232Y33799D01*
X44392D01*
X44312Y33639D01*
X42021Y30501D02*
X41941Y30661D01*
X42101D01*
X42021Y30501D01*
X36624Y35739D02*
X36544Y35899D01*
X36704D01*
X36624Y35739D01*
X36987Y35961D02*
X36907Y36121D01*
X37067D01*
X36987Y35961D01*
X37627Y36327D02*
X37547Y36487D01*
X37707D01*
X37627Y36327D01*
X37583Y35357D02*
X37503Y35517D01*
X37663D01*
X37583Y35357D01*
X47090Y25902D02*
X47010Y26062D01*
X47170D01*
X47090Y25902D01*
X47354Y25679D02*
X47274Y25839D01*
X47434D01*
X47354Y25679D01*
X43139Y30975D02*
X43059Y31135D01*
X43219D01*
X43139Y30975D01*
X43143Y31193D02*
X43063Y31353D01*
X43223D01*
X43143Y31193D01*
X44770Y26226D02*
X44690Y26386D01*
X44850D01*
X44770Y26226D01*
X44795Y25262D02*
X44715Y25422D01*
X44875D01*
X44795Y25262D01*
X43705Y23035D02*
X43625Y23195D01*
X43785D01*
X43705Y23035D01*
X43699Y23215D02*
X43619Y23375D01*
X43779D01*
X43699Y23215D01*
X43705Y23394D02*
X43625Y23554D01*
X43785D01*
X43705Y23394D01*
X44886Y23057D02*
X44806Y23217D01*
X44966D01*
X44886Y23057D01*
X48277Y34153D02*
X48197Y34313D01*
X48357D01*
X48277Y34153D01*
X47717Y34152D02*
X47637Y34312D01*
X47797D01*
X47717Y34152D01*
X36666Y32091D02*
X36586Y32251D01*
X36746D01*
X36666Y32091D01*
X36492Y32293D02*
X36412Y32453D01*
X36572D01*
X36492Y32293D01*
X39424Y30460D02*
X39344Y30620D01*
X39504D01*
X39424Y30460D01*
X30022Y32382D02*
X29942Y32542D01*
X30102D01*
X30022Y32382D01*
X32643Y31466D02*
X32563Y31626D01*
X32723D01*
X32643Y31466D01*
X32632Y32093D02*
X32552Y32253D01*
X32712D01*
X32632Y32093D01*
X32625Y33558D02*
X32545Y33718D01*
X32705D01*
X32625Y33558D01*
X29457Y33275D02*
X29377Y33435D01*
X29537D01*
X29457Y33275D01*
X27978Y32768D02*
X27898Y32928D01*
X28058D01*
X27978Y32768D01*
X36571Y33646D02*
X36491Y33806D01*
X36651D01*
X36571Y33646D01*
X38050Y30827D02*
X37970Y30987D01*
X38130D01*
X38050Y30827D01*
X38618Y30594D02*
X38538Y30754D01*
X38698D01*
X38618Y30594D01*
X39218Y24217D02*
X39138Y24377D01*
X39298D01*
X39218Y24217D01*
X41932Y23602D02*
X41852Y23762D01*
X42012D01*
X41932Y23602D01*
X43395Y24152D02*
X43315Y24312D01*
X43475D01*
X43395Y24152D01*
X41056Y23357D02*
X40976Y23517D01*
X41136D01*
X41056Y23357D01*
X40562Y23087D02*
X40482Y23247D01*
X40642D01*
X40562Y23087D01*
X37782Y23649D02*
X37702Y23809D01*
X37862D01*
X37782Y23649D01*
X35235Y23202D02*
X35155Y23362D01*
X35315D01*
X35235Y23202D01*
X35373Y23412D02*
X35293Y23572D01*
X35453D01*
X35373Y23412D01*
X34702Y23341D02*
X34622Y23501D01*
X34782D01*
X34702Y23341D01*
X41527Y29500D02*
X41447Y29660D01*
X41607D01*
X41527Y29500D01*
X41730Y29253D02*
X41650Y29413D01*
X41810D01*
X41730Y29253D01*
X41534Y29795D02*
X41454Y29955D01*
X41614D01*
X41534Y29795D01*
X44774Y34641D02*
X44694Y34801D01*
X44854D01*
X44774Y34641D01*
X44867Y36417D02*
X44787Y36577D01*
X44947D01*
X44867Y36417D01*
X44861Y35785D02*
X44781Y35945D01*
X44941D01*
X44861Y35785D01*
X47333Y33497D02*
X47253Y33657D01*
X47413D01*
X47333Y33497D01*
X46651Y33477D02*
X46571Y33637D01*
X46731D01*
X46651Y33477D01*
X41208Y34537D02*
X41128Y34697D01*
X41288D01*
X41208Y34537D01*
X41593Y34447D02*
X41513Y34607D01*
X41673D01*
X41593Y34447D01*
X39062Y32838D02*
X38982Y32998D01*
X39142D01*
X39062Y32838D01*
X39618Y32282D02*
X39538Y32442D01*
X39698D01*
X39618Y32282D01*
X39340Y32560D02*
X39260Y32720D01*
X39420D01*
X39340Y32560D01*
X39897Y32560D02*
X39817Y32720D01*
X39977D01*
X39897Y32560D01*
X39340Y32003D02*
X39260Y32163D01*
X39420D01*
X39340Y32003D01*
X39340Y33117D02*
X39260Y33277D01*
X39420D01*
X39340Y33117D01*
X39618Y32838D02*
X39538Y32998D01*
X39698D01*
X39618Y32838D01*
X38783Y32560D02*
X38703Y32720D01*
X38863D01*
X38783Y32560D01*
X39062Y32282D02*
X38982Y32442D01*
X39142D01*
X39062Y32282D01*
D116*
X49180Y28419D02*
G03*
X49180Y28419I-80J0D01*
G01*
M02*
