G04*
G04 #@! TF.GenerationSoftware,Altium Limited,Altium Designer,20.0.13 (296)*
G04*
G04 Layer_Color=16777215*
%FSLAX24Y24*%
%MOIN*%
G70*
G01*
G75*
%ADD109C,0.0039*%
%ADD111C,0.0020*%
%ADD112C,0.0010*%
%ADD113C,0.0016*%
%ADD114C,0.0050*%
%ADD115C,0.0020*%
G36*
X39489Y37085D02*
X39489Y37065D01*
X39475Y37052D01*
X39465Y37052D01*
X39465D01*
X39456Y37052D01*
X39442Y37065D01*
X39442Y37085D01*
X39456Y37099D01*
X39465Y37099D01*
X39465D01*
X39475Y37099D01*
X39489Y37085D01*
D02*
G37*
G36*
X40430Y36937D02*
X39721D01*
Y37075D01*
X40430D01*
Y36937D01*
D02*
G37*
G36*
X40154Y36642D02*
X40213Y36603D01*
X40253Y36524D01*
Y36445D01*
X40213Y36367D01*
X40154Y36327D01*
X40076Y36308D01*
X39997Y36327D01*
X39958Y36347D01*
X39918Y36406D01*
X39898Y36426D01*
X39721D01*
Y36367D01*
X39465D01*
Y36603D01*
X39721D01*
Y36544D01*
X39898D01*
X39918Y36563D01*
X39958Y36622D01*
X39997Y36642D01*
X40076Y36662D01*
X40154Y36642D01*
D02*
G37*
G36*
X40686Y36367D02*
X40450D01*
Y36603D01*
X40686D01*
Y36367D01*
D02*
G37*
G36*
X40430Y35894D02*
X39721D01*
Y36032D01*
X40430D01*
Y35894D01*
D02*
G37*
G36*
X39357Y34605D02*
X39364Y34599D01*
Y34579D01*
X39350Y34565D01*
X39330D01*
X39323Y34572D01*
X39316Y34579D01*
Y34599D01*
X39330Y34612D01*
X39350D01*
X39357Y34605D01*
D02*
G37*
G36*
X39618Y34310D02*
X39507Y34199D01*
X39451Y34255D01*
X39563Y34366D01*
X39618Y34310D01*
D02*
G37*
G36*
X39229Y34255D02*
X39173Y34199D01*
X39062Y34310D01*
X39117Y34366D01*
X39229Y34255D01*
D02*
G37*
G36*
X39730Y34199D02*
X39618Y34088D01*
X39563Y34143D01*
X39674Y34255D01*
X39730Y34199D01*
D02*
G37*
G36*
X39117Y34143D02*
X39062Y34088D01*
X38950Y34199D01*
X39006Y34255D01*
X39117Y34143D01*
D02*
G37*
G36*
X34989Y34027D02*
X34280D01*
Y34558D01*
X34989D01*
Y34027D01*
D02*
G37*
G36*
X39841Y34088D02*
X39730Y33976D01*
X39674Y34032D01*
X39785Y34143D01*
X39841Y34088D01*
D02*
G37*
G36*
X39006Y34032D02*
X38950Y33976D01*
X38839Y34088D01*
X38895Y34143D01*
X39006Y34032D01*
D02*
G37*
G36*
X39952Y33976D02*
X39841Y33865D01*
X39785Y33921D01*
X39897Y34032D01*
X39952Y33976D01*
D02*
G37*
G36*
X38895Y33921D02*
X38839Y33865D01*
X38728Y33976D01*
X38783Y34032D01*
X38895Y33921D01*
D02*
G37*
G36*
X40064Y33865D02*
X39952Y33754D01*
X39897Y33809D01*
X40008Y33921D01*
X40064Y33865D01*
D02*
G37*
G36*
X38783Y33809D02*
X38728Y33754D01*
X38616Y33865D01*
X38672Y33921D01*
X38783Y33809D01*
D02*
G37*
G36*
X40175Y33754D02*
X40064Y33642D01*
X40008Y33698D01*
X40120Y33809D01*
X40175Y33754D01*
D02*
G37*
G36*
X38672Y33698D02*
X38616Y33642D01*
X38505Y33754D01*
X38561Y33809D01*
X38672Y33698D01*
D02*
G37*
G36*
X40287Y33642D02*
X40175Y33531D01*
X40120Y33587D01*
X40231Y33698D01*
X40287Y33642D01*
D02*
G37*
G36*
X38561Y33587D02*
X38505Y33531D01*
X38394Y33642D01*
X38449Y33698D01*
X38561Y33587D01*
D02*
G37*
G36*
X40398Y33531D02*
X40287Y33419D01*
X40231Y33475D01*
X40342Y33587D01*
X40398Y33531D01*
D02*
G37*
G36*
X38449Y33475D02*
X38394Y33419D01*
X38282Y33531D01*
X38338Y33587D01*
X38449Y33475D01*
D02*
G37*
G36*
X40509Y33419D02*
X40398Y33308D01*
X40342Y33364D01*
X40454Y33475D01*
X40509Y33419D01*
D02*
G37*
G36*
X38338Y33364D02*
X38282Y33308D01*
X38171Y33419D01*
X38226Y33475D01*
X38338Y33364D01*
D02*
G37*
G36*
X40621Y33308D02*
X40509Y33197D01*
X40454Y33252D01*
X40565Y33364D01*
X40621Y33308D01*
D02*
G37*
G36*
X38226Y33252D02*
X38171Y33197D01*
X38059Y33308D01*
X38115Y33364D01*
X38226Y33252D01*
D02*
G37*
G36*
X40732Y33197D02*
X40621Y33085D01*
X40565Y33141D01*
X40676Y33252D01*
X40732Y33197D01*
D02*
G37*
G36*
X38115Y33141D02*
X38059Y33085D01*
X37948Y33197D01*
X38004Y33252D01*
X38115Y33141D01*
D02*
G37*
G36*
X40843Y33085D02*
X40732Y32974D01*
X40676Y33030D01*
X40788Y33141D01*
X40843Y33085D01*
D02*
G37*
G36*
X38004Y33030D02*
X37948Y32974D01*
X37837Y33085D01*
X37892Y33141D01*
X38004Y33030D01*
D02*
G37*
G36*
X40955Y32974D02*
X40843Y32863D01*
X40788Y32918D01*
X40899Y33030D01*
X40955Y32974D01*
D02*
G37*
G36*
X37892Y32918D02*
X37837Y32863D01*
X37725Y32974D01*
X37781Y33030D01*
X37892Y32918D01*
D02*
G37*
G36*
X30772Y32846D02*
X30394D01*
Y32935D01*
X30772D01*
Y32846D01*
D02*
G37*
G36*
X29221D02*
X28843D01*
Y32935D01*
X29221D01*
Y32846D01*
D02*
G37*
G36*
X41066Y32863D02*
X40955Y32751D01*
X40899Y32807D01*
X41010Y32918D01*
X41066Y32863D01*
D02*
G37*
G36*
X37781Y32807D02*
X37725Y32751D01*
X37614Y32863D01*
X37670Y32918D01*
X37781Y32807D01*
D02*
G37*
G36*
X30772Y32649D02*
X30394D01*
Y32738D01*
X30772D01*
Y32649D01*
D02*
G37*
G36*
X29221D02*
X28843D01*
Y32738D01*
X29221D01*
Y32649D01*
D02*
G37*
G36*
X30772Y32452D02*
X30394D01*
Y32541D01*
X30772D01*
Y32452D01*
D02*
G37*
G36*
X29221D02*
X28843D01*
Y32541D01*
X29221D01*
Y32452D01*
D02*
G37*
G36*
X34989Y32393D02*
X34280D01*
Y32924D01*
X34989D01*
Y32393D01*
D02*
G37*
G36*
X41066Y32417D02*
X41010Y32362D01*
X40899Y32473D01*
X40955Y32529D01*
X41066Y32417D01*
D02*
G37*
G36*
X37781Y32473D02*
X37670Y32362D01*
X37614Y32417D01*
X37725Y32529D01*
X37781Y32473D01*
D02*
G37*
G36*
X30772Y32256D02*
X30394D01*
Y32344D01*
X30772D01*
Y32256D01*
D02*
G37*
G36*
X29221D02*
X28843D01*
Y32344D01*
X29221D01*
Y32256D01*
D02*
G37*
G36*
X40955Y32306D02*
X40899Y32250D01*
X40788Y32362D01*
X40843Y32417D01*
X40955Y32306D01*
D02*
G37*
G36*
X37892Y32362D02*
X37781Y32250D01*
X37725Y32306D01*
X37837Y32417D01*
X37892Y32362D01*
D02*
G37*
G36*
X40843Y32195D02*
X40788Y32139D01*
X40676Y32250D01*
X40732Y32306D01*
X40843Y32195D01*
D02*
G37*
G36*
X38004Y32250D02*
X37892Y32139D01*
X37837Y32195D01*
X37948Y32306D01*
X38004Y32250D01*
D02*
G37*
G36*
X30772Y32059D02*
X30394D01*
Y32147D01*
X30772D01*
Y32059D01*
D02*
G37*
G36*
X29221D02*
X28843D01*
Y32147D01*
X29221D01*
Y32059D01*
D02*
G37*
G36*
X40732Y32083D02*
X40676Y32028D01*
X40565Y32139D01*
X40621Y32195D01*
X40732Y32083D01*
D02*
G37*
G36*
X38115Y32139D02*
X38004Y32028D01*
X37948Y32083D01*
X38059Y32195D01*
X38115Y32139D01*
D02*
G37*
G36*
X40621Y31972D02*
X40565Y31916D01*
X40454Y32028D01*
X40509Y32083D01*
X40621Y31972D01*
D02*
G37*
G36*
X38226Y32028D02*
X38115Y31916D01*
X38059Y31972D01*
X38171Y32083D01*
X38226Y32028D01*
D02*
G37*
G36*
X28843Y31930D02*
X28853Y31930D01*
X28866Y31916D01*
X28866Y31897D01*
X28853Y31883D01*
X28843Y31883D01*
X28843Y31883D01*
X28834Y31883D01*
X28820Y31897D01*
X28820Y31916D01*
X28834Y31930D01*
X28843Y31930D01*
X28843Y31930D01*
D02*
G37*
G36*
X40509Y31861D02*
X40454Y31805D01*
X40342Y31916D01*
X40398Y31972D01*
X40509Y31861D01*
D02*
G37*
G36*
X38338Y31916D02*
X38226Y31805D01*
X38171Y31861D01*
X38282Y31972D01*
X38338Y31916D01*
D02*
G37*
G36*
X36672Y32060D02*
X36869Y31862D01*
X36744Y31737D01*
X36548Y31933D01*
D01*
X36367Y32114D01*
X36492Y32239D01*
X36672Y32060D01*
D02*
G37*
G36*
X40398Y31749D02*
X40342Y31693D01*
X40231Y31805D01*
X40287Y31861D01*
X40398Y31749D01*
D02*
G37*
G36*
X38449Y31805D02*
X38338Y31693D01*
X38282Y31749D01*
X38394Y31861D01*
X38449Y31805D01*
D02*
G37*
G36*
X40287Y31638D02*
X40231Y31582D01*
X40120Y31693D01*
X40175Y31749D01*
X40287Y31638D01*
D02*
G37*
G36*
X38561Y31693D02*
X38449Y31582D01*
X38394Y31638D01*
X38505Y31749D01*
X38561Y31693D01*
D02*
G37*
G36*
X40454Y32640D02*
X39340Y31526D01*
X38226Y32640D01*
X39340Y33754D01*
X40454Y32640D01*
D02*
G37*
G36*
X40175Y31526D02*
X40120Y31471D01*
X40008Y31582D01*
X40064Y31638D01*
X40175Y31526D01*
D02*
G37*
G36*
X38672Y31582D02*
X38561Y31471D01*
X38505Y31526D01*
X38616Y31638D01*
X38672Y31582D01*
D02*
G37*
G36*
X36317Y31708D02*
X36516Y31509D01*
X36390Y31383D01*
X36191Y31582D01*
X36013Y31761D01*
X36138Y31886D01*
X36317Y31708D01*
D02*
G37*
G36*
X40064Y31415D02*
X40008Y31359D01*
X39897Y31471D01*
X39952Y31526D01*
X40064Y31415D01*
D02*
G37*
G36*
X38783Y31471D02*
X38672Y31359D01*
X38616Y31415D01*
X38728Y31526D01*
X38783Y31471D01*
D02*
G37*
G36*
X39952Y31304D02*
X39897Y31248D01*
X39785Y31359D01*
X39841Y31415D01*
X39952Y31304D01*
D02*
G37*
G36*
X38895Y31359D02*
X38783Y31248D01*
X38728Y31304D01*
X38839Y31415D01*
X38895Y31359D01*
D02*
G37*
G36*
X39841Y31192D02*
X39785Y31137D01*
X39674Y31248D01*
X39730Y31304D01*
X39841Y31192D01*
D02*
G37*
G36*
X39006Y31248D02*
X38895Y31137D01*
X38839Y31192D01*
X38950Y31304D01*
X39006Y31248D01*
D02*
G37*
G36*
X35963Y31354D02*
X36162Y31155D01*
X36037Y31030D01*
X35841Y31226D01*
X35660Y31407D01*
X35785Y31532D01*
X35963Y31354D01*
D02*
G37*
G36*
X39730Y31081D02*
X39674Y31025D01*
X39563Y31137D01*
X39618Y31192D01*
X39730Y31081D01*
D02*
G37*
G36*
X39117Y31137D02*
X39006Y31025D01*
X38950Y31081D01*
X39062Y31192D01*
X39117Y31137D01*
D02*
G37*
G36*
X39618Y30970D02*
X39563Y30914D01*
X39451Y31025D01*
X39507Y31081D01*
X39618Y30970D01*
D02*
G37*
G36*
X39229Y31025D02*
X39117Y30914D01*
X39062Y30970D01*
X39173Y31081D01*
X39229Y31025D01*
D02*
G37*
G36*
X35204Y30935D02*
X35204Y30935D01*
X35211Y30928D01*
X35211Y30909D01*
X35197Y30895D01*
X35178Y30895D01*
X35171Y30902D01*
X35171Y30902D01*
X35164Y30909D01*
X35164Y30928D01*
X35178Y30942D01*
X35197Y30942D01*
X35204Y30935D01*
D02*
G37*
G36*
X35609Y31001D02*
X35809Y30802D01*
X35683Y30676D01*
X35487Y30873D01*
D01*
X35306Y31054D01*
X35431Y31179D01*
X35609Y31001D01*
D02*
G37*
G36*
X38513Y30218D02*
D01*
X38691Y30040D01*
X38566Y29915D01*
X38385Y30096D01*
D01*
X38189Y30292D01*
X38314Y30417D01*
X38513Y30218D01*
D02*
G37*
G36*
X38157Y29868D02*
X38338Y29687D01*
X38212Y29561D01*
X38034Y29740D01*
X38031Y29742D01*
X37835Y29939D01*
X37960Y30064D01*
X38157Y29868D01*
D02*
G37*
G36*
X37803Y29514D02*
X37984Y29333D01*
X37859Y29208D01*
X37681Y29386D01*
X37678Y29389D01*
X37482Y29585D01*
X37607Y29710D01*
X37803Y29514D01*
D02*
G37*
G36*
X37450Y29160D02*
X37631Y28980D01*
X37505Y28854D01*
X37327Y29032D01*
X37324Y29035D01*
X37128Y29231D01*
X37253Y29357D01*
X37450Y29160D01*
D02*
G37*
D109*
X31446Y29337D02*
X32746D01*
X31446Y31037D02*
X32746D01*
Y29337D02*
Y31037D01*
X31446Y29337D02*
Y31037D01*
X43015Y30808D02*
X45115D01*
X43015Y33760D02*
X45115D01*
Y30808D02*
Y33760D01*
X43015Y30808D02*
Y33760D01*
X47000Y25720D02*
Y26980D01*
X45600Y25720D02*
Y26980D01*
X47000D01*
X45600Y25720D02*
X47000D01*
X41370Y23030D02*
X43070D01*
X41370D02*
Y24330D01*
X43070D01*
Y23030D02*
Y24330D01*
X37200Y23090D02*
X38900D01*
X37200D02*
Y24390D01*
X38900D01*
Y23090D02*
Y24390D01*
D111*
X28855Y34496D02*
G03*
X28855Y34496I-138J0D01*
G01*
X29955Y31513D02*
G03*
X29955Y31513I-138J0D01*
G01*
X32234Y30187D02*
G03*
X32234Y30187I-138J0D01*
G01*
X37088Y23734D02*
G03*
X37088Y23734I-138J0D01*
G01*
X34346Y27750D02*
G03*
X34346Y27750I-138J0D01*
G01*
X29098Y26620D02*
G03*
X29098Y26620I-138J0D01*
G01*
X32287Y23690D02*
G03*
X32287Y23690I-138J0D01*
G01*
X46667D02*
G03*
X46667Y23690I-138J0D01*
G01*
X46667Y36300D02*
G03*
X46667Y36300I-138J0D01*
G01*
X44203Y32284D02*
G03*
X44203Y32284I-138J0D01*
G01*
X41748Y27750D02*
G03*
X41748Y27750I-138J0D01*
G01*
X44624Y24510D02*
G03*
X44624Y24510I-138J0D01*
G01*
X46438Y26350D02*
G03*
X46438Y26350I-138J0D01*
G01*
X42358Y23680D02*
G03*
X42358Y23680I-138J0D01*
G01*
X38188Y23740D02*
G03*
X38188Y23740I-138J0D01*
G01*
X42628Y34650D02*
G03*
X42628Y34650I-138J0D01*
G01*
X42176Y32588D02*
G03*
X42176Y32588I-138J0D01*
G01*
X34675Y23705D02*
G03*
X34675Y23705I-138J0D01*
G01*
X35206Y23720D02*
G03*
X35206Y23720I-138J0D01*
G01*
X35705Y23722D02*
G03*
X35705Y23722I-138J0D01*
G01*
X37112Y27676D02*
G03*
X37112Y27676I-138J0D01*
G01*
X47448Y31360D02*
G03*
X47448Y31360I-138J0D01*
G01*
X46778Y31350D02*
G03*
X46778Y31350I-138J0D01*
G01*
X48128D02*
G03*
X48128Y31350I-138J0D01*
G01*
X46088D02*
G03*
X46088Y31350I-138J0D01*
G01*
X39348Y23730D02*
G03*
X39348Y23730I-138J0D01*
G01*
X40698D02*
G03*
X40698Y23730I-138J0D01*
G01*
X43538Y23660D02*
G03*
X43538Y23660I-138J0D01*
G01*
X46168Y28674D02*
G03*
X46168Y28674I-138J0D01*
G01*
D02*
G03*
X46168Y28674I-138J0D01*
G01*
X36348Y23750D02*
G03*
X36348Y23750I-138J0D01*
G01*
D02*
G03*
X36348Y23750I-138J0D01*
G01*
X40018Y23720D02*
G03*
X40018Y23720I-138J0D01*
G01*
D02*
G03*
X40018Y23720I-138J0D01*
G01*
X28717Y34299D02*
Y34693D01*
X28520Y34496D02*
X28914D01*
X29620Y31513D02*
X30014D01*
X29817Y31316D02*
Y31710D01*
X31899Y30187D02*
X32293D01*
X32096Y29990D02*
Y30384D01*
X36950Y23537D02*
Y23931D01*
X36753Y23734D02*
X37147D01*
X34208Y27553D02*
Y27947D01*
X34011Y27750D02*
X34405D01*
X28763Y26620D02*
X29157D01*
X28960Y26423D02*
Y26817D01*
X31953Y23690D02*
X32346D01*
X32149Y23493D02*
Y23887D01*
X46333Y23690D02*
X46726D01*
X46530Y23493D02*
Y23887D01*
X46333Y36300D02*
X46726D01*
X46530Y36103D02*
Y36497D01*
X44065Y32087D02*
Y32481D01*
X43868Y32284D02*
X44262D01*
X41413Y27750D02*
X41807D01*
X41610Y27553D02*
Y27947D01*
X44486Y24313D02*
Y24707D01*
X44290Y24510D02*
X44683D01*
X46300Y26153D02*
Y26547D01*
X46103Y26350D02*
X46497D01*
X42220Y23483D02*
Y23877D01*
X42023Y23680D02*
X42417D01*
X38050Y23543D02*
Y23937D01*
X37853Y23740D02*
X38247D01*
X42490Y34453D02*
Y34847D01*
X42293Y34650D02*
X42687D01*
X41841Y32588D02*
X42235D01*
X42038Y32391D02*
Y32785D01*
X34537Y23508D02*
Y23902D01*
X34340Y23705D02*
X34734D01*
X35068Y23523D02*
Y23917D01*
X34871Y23720D02*
X35265D01*
X35567Y23525D02*
Y23919D01*
X35370Y23722D02*
X35764D01*
X36974Y27479D02*
Y27873D01*
X36777Y27676D02*
X37171D01*
X47310Y31163D02*
Y31557D01*
X47113Y31360D02*
X47507D01*
X46640Y31153D02*
Y31547D01*
X46443Y31350D02*
X46837D01*
X47990Y31153D02*
Y31547D01*
X47793Y31350D02*
X48187D01*
X45950Y31153D02*
Y31547D01*
X45753Y31350D02*
X46147D01*
X39210Y23533D02*
Y23927D01*
X39013Y23730D02*
X39407D01*
X40560Y23533D02*
Y23927D01*
X40363Y23730D02*
X40757D01*
X43400Y23463D02*
Y23857D01*
X43203Y23660D02*
X43597D01*
X46030Y28477D02*
Y28871D01*
X45833Y28674D02*
X46227D01*
X45833D02*
X46227D01*
X46030Y28477D02*
Y28871D01*
X36013Y23750D02*
X36407D01*
X36210Y23553D02*
Y23947D01*
Y23553D02*
Y23947D01*
X36013Y23750D02*
X36407D01*
X39683Y23720D02*
X40077D01*
X39880Y23523D02*
Y23917D01*
Y23523D02*
Y23917D01*
X39683Y23720D02*
X40077D01*
D112*
X39740Y35196D02*
G03*
X39740Y35196I-50J0D01*
G01*
X38737Y34990D02*
G03*
X38737Y34990I-50J0D01*
G01*
X40303Y35423D02*
G03*
X40303Y35423I-50J0D01*
G01*
X39315Y35186D02*
G03*
X39315Y35186I-50J0D01*
G01*
X33040Y30546D02*
G03*
X33040Y30546I-50J0D01*
G01*
X32319Y28981D02*
G03*
X32319Y28981I-50J0D01*
G01*
X42370Y29969D02*
G03*
X42370Y29969I-50J0D01*
G01*
X42800D02*
G03*
X42800Y29969I-50J0D01*
G01*
X41940D02*
G03*
X41940Y29969I-50J0D01*
G01*
X36920Y33290D02*
G03*
X36920Y33290I-50J0D01*
G01*
X36928Y34131D02*
G03*
X36928Y34131I-50J0D01*
G01*
X38446Y28432D02*
G03*
X38446Y28432I-50J0D01*
G01*
X45421Y32243D02*
G03*
X45421Y32243I-50J0D01*
G01*
X41110Y23740D02*
G03*
X41110Y23740I-50J0D01*
G01*
X29200Y33360D02*
G03*
X29200Y33360I-50J0D01*
G01*
X31730Y33110D02*
G03*
X31730Y33110I-50J0D01*
G01*
Y32690D02*
G03*
X31730Y32690I-50J0D01*
G01*
X28199Y32692D02*
G03*
X28199Y32692I-50J0D01*
G01*
X36930Y33712D02*
G03*
X36930Y33712I-50J0D01*
G01*
X40940Y34610D02*
G03*
X40940Y34610I-50J0D01*
G01*
X42020Y34910D02*
G03*
X42020Y34910I-50J0D01*
G01*
X40378Y34830D02*
G03*
X40378Y34830I-50J0D01*
G01*
X36950Y32610D02*
G03*
X36950Y32610I-50J0D01*
G01*
X41196Y31264D02*
G03*
X41196Y31264I-50J0D01*
G01*
X37660Y36170D02*
G03*
X37660Y36170I-50J0D01*
G01*
X37410Y35220D02*
G03*
X37410Y35220I-50J0D01*
G01*
X41190Y35090D02*
G03*
X41190Y35090I-50J0D01*
G01*
X41417Y34294D02*
G03*
X41417Y34294I-50J0D01*
G01*
X41712Y33996D02*
G03*
X41712Y33996I-50J0D01*
G01*
X42008Y33700D02*
G03*
X42008Y33700I-50J0D01*
G01*
X39611Y35196D02*
X39769D01*
X39690Y35117D02*
Y35275D01*
X38608Y34990D02*
X38766D01*
X38687Y34911D02*
Y35069D01*
X40174Y35423D02*
X40332D01*
X40253Y35344D02*
Y35502D01*
X39265Y35107D02*
Y35265D01*
X39186Y35186D02*
X39344D01*
X32990Y30467D02*
Y30625D01*
X32911Y30546D02*
X33069D01*
X32190Y28981D02*
X32348D01*
X32269Y28902D02*
Y29060D01*
X42241Y29969D02*
X42399D01*
X42320Y29890D02*
Y30048D01*
X42671Y29969D02*
X42829D01*
X42750Y29890D02*
Y30048D01*
X41811Y29969D02*
X41969D01*
X41890Y29890D02*
Y30048D01*
X36870Y33211D02*
Y33369D01*
X36791Y33290D02*
X36949D01*
X36878Y34052D02*
Y34210D01*
X36799Y34131D02*
X36957D01*
X38340Y28488D02*
X38452Y28376D01*
X38340D02*
X38452Y28488D01*
X45292Y32243D02*
X45450D01*
X45371Y32164D02*
Y32322D01*
X40981Y23740D02*
X41139D01*
X41060Y23661D02*
Y23819D01*
X29150Y33281D02*
Y33439D01*
X29071Y33360D02*
X29229D01*
X31680Y33031D02*
Y33189D01*
X31601Y33110D02*
X31759D01*
X31680Y32611D02*
Y32769D01*
X31601Y32690D02*
X31759D01*
X28149Y32613D02*
Y32771D01*
X28070Y32692D02*
X28228D01*
X36880Y33633D02*
Y33791D01*
X36801Y33712D02*
X36959D01*
X40890Y34531D02*
Y34689D01*
X40811Y34610D02*
X40969D01*
X41891Y34910D02*
X42049D01*
X41970Y34831D02*
Y34989D01*
X40249Y34830D02*
X40407D01*
X40328Y34751D02*
Y34909D01*
X36844Y32554D02*
X36956Y32666D01*
X36844D02*
X36956Y32554D01*
X41090Y31208D02*
X41202Y31320D01*
X41090D02*
X41202Y31208D01*
X37554Y36226D02*
X37666Y36114D01*
X37554D02*
X37666Y36226D01*
X37304Y35276D02*
X37416Y35164D01*
X37304D02*
X37416Y35276D01*
X41140Y35011D02*
Y35169D01*
X41061Y35090D02*
X41219D01*
X41311Y34350D02*
X41423Y34238D01*
X41311D02*
X41423Y34350D01*
X41606Y34052D02*
X41718Y33940D01*
X41606D02*
X41718Y34052D01*
X41902Y33756D02*
X42014Y33644D01*
X41902D02*
X42014Y33756D01*
D113*
X36482Y35804D02*
G03*
X36482Y35804I-71J0D01*
G01*
X36340Y35733D02*
X36482Y35875D01*
X36340D02*
X36482Y35733D01*
D114*
X32020Y34396D02*
Y34596D01*
X31920Y34496D02*
X32120D01*
X37429Y27729D02*
X37629D01*
X37529Y27629D02*
Y27829D01*
X44150Y36483D02*
X44350D01*
X44250Y36383D02*
Y36583D01*
X44144Y35861D02*
X44344Y35861D01*
X44244Y35961D02*
X44244Y35761D01*
X42553Y32581D02*
X42753D01*
X42653Y32481D02*
Y32681D01*
X46840Y27980D02*
X47040D01*
X46940Y27880D02*
Y28080D01*
X46840Y27360D02*
X47040D01*
X46940Y27260D02*
Y27460D01*
X45160Y26330D02*
X45360D01*
X45260Y26230D02*
Y26430D01*
X44472Y23223D02*
Y23423D01*
X44372Y23323D02*
X44572D01*
X43012Y34527D02*
X43212D01*
X43112Y34427D02*
Y34627D01*
X47250Y26350D02*
X47450D01*
X47350Y26250D02*
Y26450D01*
X47900Y32970D02*
X48100D01*
X48000Y32870D02*
Y33070D01*
X47220Y32970D02*
X47420D01*
X47320Y32870D02*
Y33070D01*
X44983Y30307D02*
Y30507D01*
X44883Y30407D02*
X45083D01*
X44984Y29662D02*
Y29862D01*
X44884Y29762D02*
X45084D01*
X45870Y32950D02*
X46070D01*
X45970Y32850D02*
Y33050D01*
X44151Y33993D02*
Y34193D01*
X44051Y34093D02*
X44251D01*
X46550Y32950D02*
X46750D01*
X46650Y32850D02*
Y33050D01*
X44161Y34613D02*
Y34813D01*
X44061Y34713D02*
X44261D01*
X32030Y31450D02*
Y31650D01*
X31930Y31550D02*
X32130D01*
X32030Y32060D02*
Y32260D01*
X31930Y32160D02*
X32130D01*
X28670Y30990D02*
X28870D01*
X28770Y30890D02*
Y31090D01*
X28010Y30990D02*
X28210D01*
X28110Y30890D02*
Y31090D01*
X32020Y33540D02*
Y33740D01*
X31920Y33640D02*
X32120D01*
D115*
X39564Y35973D02*
X40587D01*
X39564D02*
Y36996D01*
X40430D01*
X40587Y36839D01*
Y35973D02*
Y36839D01*
X33963Y34562D02*
X35306D01*
Y32389D02*
Y34562D01*
X33963Y32389D02*
X35306D01*
X33963D02*
Y34562D01*
X29217Y31906D02*
X30398D01*
Y33087D01*
X29217D02*
X30398D01*
X29217Y31906D02*
Y33087D01*
X35536Y30554D02*
X36992Y32010D01*
X38462Y30540D01*
X37006Y29084D02*
X38462Y30540D01*
X35536Y30554D02*
X37006Y29084D01*
X39340Y34589D02*
X41289Y32640D01*
X39340Y30691D02*
X41289Y32640D01*
X37391D02*
X39340Y30691D01*
X37391Y32640D02*
X39340Y34589D01*
M02*
